<svg xmlns="http://www.w3.org/2000/svg" version="1.1" width="24" height="24" viewBox="0 0 24 24">
<path d="M12 24c-6.627 0-12-5.373-12-12s5.373-12 12-12 12 5.373 12 12-5.373 12-12 12zM10.856 13.070c0-1.292-0.763-2.019-1.858-2.019-0.341 0-0.637 0.072-0.862 0.224v-1.723c0-0.323-0.197-0.485-0.601-0.485s-0.601 0.162-0.601 0.485v4.533c0 0.305 0 0.601 0.413 0.835 0.359 0.206 0.826 0.305 1.328 0.305 1.4 0 2.181-0.844 2.181-2.155zM8.136 14.12v-1.921c0.151-0.113 0.342-0.18 0.548-0.18 0.006 0 0.012 0 0.018 0l-0.001-0c0.556 0 0.924 0.413 0.924 1.131 0 0.709-0.359 1.104-0.942 1.104-0.206 0-0.395-0.045-0.547-0.134zM13.104 9.866c0-0.413-0.296-0.691-0.709-0.691s-0.709 0.278-0.709 0.691 0.296 0.7 0.709 0.7 0.709-0.287 0.709-0.7zM12.996 11.535c0-0.323-0.197-0.485-0.601-0.485s-0.601 0.162-0.601 0.485v3.186c0 0.323 0.197 0.485 0.601 0.485s0.601-0.162 0.601-0.485zM16.636 14.129c-0.072 0-0.135 0.018-0.206 0.036-0.081 0.018-0.18 0.045-0.278 0.045-0.153 0-0.269-0.054-0.332-0.18-0.081-0.153-0.081-0.386-0.081-0.548v-1.346h0.754c0.323 0 0.485-0.162 0.485-0.503s-0.162-0.503-0.485-0.503h-0.754v-0.79c0-0.323-0.197-0.485-0.601-0.485s-0.601 0.162-0.601 0.485v0.79h-0.314c-0.323 0-0.485 0.162-0.485 0.503s0.162 0.503 0.485 0.503h0.314v1.346c0 0.413 0.018 0.799 0.197 1.122 0.197 0.359 0.583 0.619 1.23 0.619 0.35 0 0.691-0.081 0.889-0.197 0.171-0.099 0.215-0.224 0.215-0.35 0-0.197-0.099-0.548-0.432-0.547z"/>
</svg>