<svg xmlns="http://www.w3.org/2000/svg" version="1.1" width="24" height="24" viewBox="0 0 24 24">
<path d="M12.030 0c-5.090 0-9.46 3.17-11.21 7.65l1.91 0.77c1.483-3.767 5.084-6.387 9.298-6.4h0.002c2.24 0 4.32 0.77 5.96 1.97l1.2-1.64c-1.963-1.468-4.438-2.35-7.12-2.35-0.014 0-0.028 0-0.042 0h0.002zM12.030 2.3c-4.113 0.008-7.627 2.559-9.057 6.164l-0.023 0.066 1.91 0.7c1.124-2.895 3.888-4.91 7.122-4.91 0.017 0 0.034 0 0.051 0l-0.003-0zM15.58 3l-0.76 1.92c2.443 0.922 4.248 3.019 4.742 5.583l0.008 0.047h2.080c-0.554-3.468-2.88-6.286-6.004-7.527l-0.066-0.023zM12.030 4.6c-4.098 0.014-7.415 3.34-7.415 7.44 0 4.109 3.331 7.44 7.44 7.44 3.592 0 6.59-2.546 7.287-5.932l0.008-0.048h-2.080c-0.692 2.286-2.772 3.924-5.238 3.94h-0.002c-0.009 0-0.019 0-0.030 0-2.977 0-5.39-2.413-5.39-5.39 0-0.007 0-0.014 0-0.021v0.001c-0-0.006-0-0.013-0-0.020 0-2.977 2.413-5.39 5.39-5.39 0.011 0 0.021 0 0.032 0h-0.002c0.001 0 0.003 0 0.004 0 2.459 0 4.534 1.643 5.187 3.892l0.009 0.038h2.070c-0.68-3.413-3.651-5.95-7.215-5.95-0.019 0-0.038 0-0.057 0l0.003-0zM22.25 5.69l-1.75 1.090c0.705 1.075 1.205 2.348 1.413 3.717l0.007 0.053h2.080c-0.226-1.828-0.848-3.476-1.777-4.905l0.027 0.045zM11.97 6.83c-2.839 0.056-5.12 2.371-5.12 5.219 0 0.741 0.154 1.446 0.433 2.085l-0.013-0.034 1.97-0.87c-0.165-0.352-0.264-0.764-0.27-1.198l-0-0.002c0-1.64 1.36-3.010 3-3.010zM13.89 7.22l-0.77 2.020c0.66 0.27 1.15 0.7 1.53 1.31h2.3c-0.45-1.542-1.575-2.756-3.026-3.318l-0.034-0.012zM0 12.020c0 1.65 0.33 3.29 1.040 4.87l1.8-0.82c-0.515-1.192-0.816-2.581-0.82-4.039v-0.001zM2.3 12.020c0 4.1 2.51 7.6 6.12 9.030l0.76-1.92c-2.866-1.139-4.856-3.887-4.86-7.1v-0.001zM14.6 13.5c-0.33 0.6-0.82 1.1-1.48 1.31l0.77 2.030c1.487-0.576 2.613-1.794 3.051-3.304l0.009-0.036zM19.57 13.5c-0.719 3.566-3.817 6.218-7.538 6.24h-0.002v2.020c0.006 0 0.012 0 0.019 0 4.851 0 8.871-3.557 9.594-8.205l0.007-0.055zM21.92 13.5c-0.782 4.836-4.908 8.491-9.896 8.53l-0.004 0c-2.73 0-5.24-1.15-7.040-2.95l-1.43 1.42c2.19 2.19 5.2 3.5 8.53 3.5 0.004 0 0.009 0 0.014 0 6.099 0 11.135-4.549 11.899-10.44l0.006-0.060zM9.9 14.16l-1.53 1.53c0.937 0.939 2.229 1.522 3.658 1.53h0.002v-2.19c-0.003 0-0.006 0-0.009 0-0.827 0-1.576-0.332-2.121-0.87l0 0z"/>
</svg>