<svg xmlns="http://www.w3.org/2000/svg" version="1.1" width="24" height="24" viewBox="0 0 24 24">
<path d="M22.768 12.002c0 5.935-4.829 10.768-10.768 10.768-5.935-0.005-10.763-4.833-10.763-10.768 0-5.94 4.828-10.767 10.768-10.767 5.934 0 10.763 4.828 10.763 10.767zM23.060 7.329c-0.634-1.483-1.502-2.748-2.57-3.813l-0-0c-1.065-1.067-2.331-1.935-3.735-2.54l-0.078-0.030c-1.369-0.598-2.964-0.946-4.641-0.946-0.011 0-0.022 0-0.033 0h0.002c-0.009-0-0.020-0-0.030-0-3.305 0-6.295 1.344-8.455 3.516l-0.001 0.001c-1.068 1.065-1.935 2.331-2.541 3.736l-0.030 0.078c-0.63 1.481-0.946 3.050-0.946 4.672s0.316 3.192 0.942 4.673c0.634 1.483 1.502 2.748 2.57 3.813l0 0c2.166 2.17 5.16 3.512 8.467 3.512 0.007 0 0.013 0 0.020-0h-0.001c1.619 0 3.191-0.32 4.673-0.942 1.483-0.634 2.748-1.502 3.813-2.57l0-0c2.17-2.166 3.512-5.16 3.512-8.467 0-0.007 0-0.013-0-0.020v0.001c0-1.623-0.311-3.191-0.938-4.673zM8.566 14.631v-5.368l2.574 2.684zM7.327 6.296v11.422l8.116-8.455v6.767c0 0.343 0.279 0.618 0.617 0.618 0.344 0 0.622-0.278 0.622-0.622v0-9.74l-4.677 4.77z"/>
</svg>