<svg xmlns="http://www.w3.org/2000/svg" version="1.1" width="24" height="24" viewBox="0 0 24 24">
<path d="M11.96 17.804l7.959-3.396-7.049 7.241c-0.124-1.315-0.432-2.61-0.91-3.844zM24 11.118c-5.101-0.236-10.208 0.414-15.087 1.92 1.024 1.073 1.881 2.292 2.535 3.621 4.042-2.25 9.646-5.123 12.552-5.531v-0.015zM11.426 11.393l0.207-0.060c1.538-0.459 3.049-1.015 4.523-1.656 1.492-0.585 2.896-1.38 4.159-2.367 1.345-1.069 2.355-2.499 2.915-4.122 0.12-0.267 0.211-0.549 0.267-0.837-2.024 2.76-10.041 3.048-10.041 3.048l1.89-1.734c-5.506 0.019-10.876 1.759-15.346 4.98 3.030 0.322 5.877 1.596 8.139 3.634 1.086-0.336 2.196-0.576 3.286-0.879v-0.006z"/>
</svg>