<svg xmlns="http://www.w3.org/2000/svg" version="1.1" width="24" height="24" viewBox="0 0 24 24">
<path d="M23.8 12.57c-0.29-0.15-3.4 1.4-4.070 1.27-1.68-0.3-1.37-0.5-3.63-1.020-0.9-0.2-0.77-0.080-0.97-0.23-0.13-0.1-0.26-0.12-0.45-0.3 3-0.54 4.52-1.27 5.050-1.38 0.57-0.11 3.87 1.47 4.070 1.1s-0.72-1.18-0.3-2.27c0.44-1.1-0.52-1.82 0.010-2.69 0.54-0.87 0.43-2.2 0.3-2.27-0.3-0.15-3.4 1.4-4.080 1.27-1.68-0.31-1.37-0.51-3.63-1.020-0.9-0.2-0.77-0.090-0.97-0.24s-0.39-0.1-0.78-0.73-4.88-1.6-5.18-1.6c-0.62 0-1.78 1.6-1.78 1.6s-0.45 0-1.8 0.070-2.53 0.67-4.12 1.92c-1.6 1.25-1.37 2.51-1.37 2.51s1.48 0.5 1.48 0.78c0 0.27-1.3 0.6-1.3 0.6 0.84 1.060 3.44 2.060 4.1 2.060h0.52c-1.080 0.21-2.12 0.8-3.44 1.83-1.59 1.27-1.36 2.53-1.36 2.53s1.48 0.5 1.48 0.77-1.3 0.6-1.3 0.6c0.84 1.070 3.44 2.070 4.1 2.070 0.63 0 1.070 0.020 1.87-0.13 0.060 0.13 0.68 1.45 1.95 1.72 1.34 0.29 2.080 0.060 2.080 0.060s0.070-0.59-0.24-1.18c1.16 0.12 2.48 0.15 3.77-0.050 3.57-0.54 5.34-1.4 5.92-1.51 0.57-0.12 3.87 1.46 4.070 1.1 0.2-0.38-0.72-1.19-0.29-2.28 0.43-1.1-0.53-1.81 0-2.69 0.54-0.87 0.43-2.2 0.29-2.27zM3.46 8.87c-0.079-0.002-0.154-0.012-0.227-0.031l0.007 0.002h-0.040c-0.035-0.017-0.055-0.027-0.074-0.037l0.014 0.007-0.040-0.010-0.060-0.030h-0.040c-0.020-0.011-0.036-0.021-0.052-0.031l0.002 0.001-0.050-0.040-0.050-0.030-0.040-0.030c-0.019-0.015-0.036-0.028-0.052-0.041l0.002 0.001-0.030-0.030c-0.016-0.018-0.033-0.038-0.048-0.058l-0.002-0.002-0.020-0.020c-0.022-0.024-0.045-0.050-0.067-0.077l-0.003-0.003-0.020-0.020c-0.011-0.020-0.025-0.046-0.037-0.073l-0.003-0.007-0.060-0.090c-0.008-0.022-0.015-0.039-0.022-0.055l0.002 0.005-0.020-0.060-0.020-0.040c-0.003-0.014-0.006-0.038-0.009-0.062l-0.001-0.008-0.010-0.050c-0.006-0.014-0.013-0.034-0.019-0.055l-0.001-0.005v-0.050c0.070 0.43 0.42 0.76 0.83 0.76 0.47 0 0.86-0.43 0.86-0.97s-0.38-0.98-0.86-0.98c-0.47 0-0.85 0.43-0.86 0.96 0-0.7 0.5-1.27 1.12-1.27s1.11 0.56 1.11 1.26-0.5 1.27-1.11 1.27zM2.71 7.92c0-0.15 0.1-0.27 0.24-0.27s0.23 0.12 0.23 0.27-0.1 0.26-0.23 0.26-0.24-0.12-0.24-0.26zM3.46 16.66c-0.016 0.001-0.036 0.002-0.055 0.002s-0.039-0.001-0.058-0.002l0.003 0-0.040-0.010c-0.028-0.003-0.052-0.006-0.075-0.011l0.005 0.001-0.040-0.010-0.060-0.020-0.040-0.020c-0.024-0.007-0.044-0.014-0.064-0.021l0.004 0.001-0.040-0.020c-0.020-0.011-0.037-0.021-0.053-0.032l0.003 0.002-0.040-0.020-0.050-0.040-0.040-0.030c-0.019-0.014-0.035-0.027-0.051-0.041l0.001 0.001-0.030-0.030c-0.025-0.022-0.048-0.045-0.069-0.069l-0.001-0.001c-0.022-0.026-0.045-0.056-0.067-0.086l-0.003-0.004-0.020-0.020c-0.011-0.018-0.025-0.041-0.037-0.064l-0.003-0.006-0.020-0.040c-0.011-0.015-0.024-0.035-0.037-0.055l-0.003-0.005-0.020-0.040-0.020-0.070-0.020-0.040c0.002 0.013-0.005-0.011-0.011-0.034l-0.009-0.036-0.010-0.040c-0.006-0.018-0.013-0.041-0.019-0.065l-0.001-0.005v-0.050c0.070 0.43 0.42 0.76 0.83 0.76 0.47 0 0.86-0.43 0.86-0.97s-0.38-0.97-0.86-0.97c-0.47 0-0.85 0.42-0.86 0.95 0-0.7 0.5-1.27 1.12-1.27s1.11 0.57 1.11 1.26-0.5 1.27-1.11 1.27zM2.71 15.71c0-0.14 0.1-0.26 0.24-0.26s0.23 0.12 0.23 0.26-0.1 0.26-0.23 0.26-0.24-0.11-0.24-0.26zM7.79 10.21v-0.030l0.030-0.060 0.060-0.22c0.103-0.306 0.227-0.751 0.334-1.203l0.026-0.127c0.12-0.53 0.17-0.96 0.15-1.2-0.011-0.107-0.025-0.199-0.043-0.289l0.003 0.019c-0.056-0.309-0.126-0.574-0.212-0.832l0.012 0.042c-0.076-0.224-0.14-0.39-0.21-0.553l0.020 0.053-0.060-0.13-0.020-0.050c-0.090-0.2 0.040-0.43 0.24-0.42h0.14l0.4 0.030 1.58 0.080 0.86 0.060c2.92 0.197 5.62 0.958 8.052 2.175l-0.122-0.055 0.67 0.3c0.13 0.060 0.2 0.23 0.14 0.38-0.050 0.14-0.2 0.22-0.33 0.16l-0.67-0.3c-2.263-1.142-4.907-1.892-7.705-2.086l-0.065-0.004-0.86-0.050-0.38-0.020-1.2-0.070h-0.12c0.123 0.319 0.24 0.71 0.329 1.112l0.011 0.058 0.050 0.32c0.030 0.34-0.030 0.81-0.17 1.41l-0.15 0.62c-0.126 0.483-0.225 0.813-0.333 1.14l0.043-0.15-0.020 0.060c-0 0.005-0.001 0.010-0.001 0.015s0 0.011 0.001 0.016l-0-0.001c-0.050 0.14-0.2 0.22-0.33 0.16-0.13-0.050-0.2-0.22-0.15-0.36zM6.29 5.45c0.042-0.048 0.104-0.077 0.172-0.077 0.077 0 0.146 0.038 0.187 0.097l0 0.001c0.146 0.181 0.285 0.384 0.408 0.597l0.012 0.023c0.22 0.4 0.37 0.8 0.41 1.21 0.020 0.23 0 0.49-0.040 0.77-0.055 0.323-0.125 0.603-0.212 0.874l0.012-0.044c-0.091 0.292-0.176 0.521-0.27 0.744l0.020-0.054c-0.060 0.14-0.21 0.2-0.34 0.13s-0.18-0.24-0.12-0.39l0.020-0.040 0.050-0.13c0.040-0.095 0.095-0.244 0.144-0.395l0.016-0.055c0.069-0.207 0.131-0.459 0.175-0.718l0.005-0.032c0.040-0.23 0.050-0.43 0.040-0.6-0.052-0.364-0.172-0.691-0.347-0.982l0.007 0.012c-0.108-0.191-0.217-0.355-0.337-0.509l0.007 0.009-0.030-0.030c-0.043-0.054-0.069-0.123-0.069-0.199 0-0.081 0.030-0.155 0.080-0.211l-0 0zM7.44 15.85c-0.054 0.329-0.123 0.616-0.212 0.894l0.012-0.044c-0.092 0.288-0.176 0.514-0.271 0.734l0.021-0.054c-0.060 0.14-0.21 0.2-0.34 0.13s-0.18-0.24-0.12-0.39l0.020-0.040 0.050-0.13c0.040-0.095 0.095-0.244 0.144-0.395l0.016-0.055c0.069-0.207 0.131-0.459 0.175-0.718l0.005-0.032c0.040-0.23 0.050-0.43 0.030-0.6-0.050-0.36-0.166-0.684-0.337-0.972l0.007 0.012c-0.108-0.191-0.217-0.355-0.337-0.509l0.007 0.009-0.030-0.040c-0.038-0.052-0.061-0.117-0.061-0.188 0-0.082 0.031-0.156 0.081-0.213l-0 0c0.042-0.050 0.105-0.081 0.175-0.081s0.133 0.031 0.175 0.080l0 0c0.147 0.184 0.286 0.39 0.408 0.607l0.012 0.023c0.22 0.4 0.37 0.81 0.41 1.21 0.020 0.23 0 0.49-0.040 0.76zM19.84 15.97c-0.050 0.14-0.2 0.22-0.33 0.16l-0.67-0.3c-2.263-1.142-4.907-1.892-7.705-2.086l-0.065-0.004-0.85-0.050h-0.050l-0.34-0.020c1.906 0.079 1.448 0.054 0.989 0.029l-2.309-0.099 0.030 0.060c0.162 0.414 0.288 0.896 0.356 1.397l0.004 0.033c0.030 0.34-0.030 0.81-0.17 1.41l-0.15 0.62c-0.126 0.486-0.225 0.82-0.332 1.151l0.042-0.151-0.020 0.050c-0 0.005-0.001 0.010-0.001 0.015s0 0.011 0.001 0.016l-0-0.001c-0.050 0.15-0.2 0.22-0.33 0.17-0.13-0.060-0.2-0.23-0.15-0.38v-0.020l0.030-0.060 0.060-0.22c0.103-0.306 0.227-0.751 0.334-1.203l0.026-0.127c0.12-0.53 0.17-0.96 0.15-1.2-0.011-0.107-0.025-0.199-0.043-0.289l0.003 0.019c-0.056-0.309-0.126-0.574-0.212-0.832l0.012 0.042c-0.077-0.22-0.141-0.382-0.21-0.542l0.020 0.052-0.040-0.090-0.040-0.1c-0.090-0.2 0.040-0.43 0.24-0.42h0.14l0.4 0.030 1.59 0.080 0.85 0.060c2.92 0.196 5.62 0.957 8.052 2.175l-0.122-0.055 0.67 0.3c0.13 0.060 0.2 0.23 0.14 0.38z"/>
</svg>