<svg xmlns="http://www.w3.org/2000/svg" version="1.1" width="24" height="24" viewBox="0 0 24 24">
<path d="M0 0.3v23.4h24v-23.4zM1 1.3h22v21.4h-22zM5.8 5.78c0-0.067 0.14-0.116 0.224-0.116 0.644-0.033 1.588-0.050 2.578-0.050 2.772 0 3.85 1.52 3.85 3.466 0 2.54-1.842 3.63-4.102 3.63-0.38 0-0.51-0.017-0.775-0.017v3.842c0 0.083-0.033 0.116-0.115 0.116h-1.544c-0.083 0-0.115-0.030-0.115-0.113zM7.575 11.092c0.23 0.016 0.412 0.016 0.81 0.016 1.17 0 2.27-0.412 2.27-1.996 0-1.27-0.786-1.914-2.122-1.914-0.396 0-0.775 0.016-0.957 0.033zM16.182 9.904c-0.792 0-1.056 0.396-1.056 0.726 0 0.363 0.18 0.61 1.237 1.155 1.568 0.76 2.062 1.485 2.062 2.557 0 1.6-1.22 2.46-2.87 2.46-0.876 0-1.62-0.183-2.050-0.43-0.065-0.033-0.080-0.082-0.080-0.165v-1.467c0-0.1 0.048-0.133 0.114-0.084 0.624 0.413 1.352 0.594 2.012 0.594 0.792 0 1.122-0.33 1.122-0.776 0-0.363-0.23-0.677-1.237-1.205-1.42-0.68-2.014-1.37-2.014-2.527 0-1.287 1.006-2.36 2.755-2.36 0.86 0 1.464 0.132 1.794 0.28 0.082 0.050 0.1 0.132 0.1 0.198v1.37c0 0.083-0.050 0.133-0.15 0.1-0.444-0.264-1.1-0.43-1.739-0.426z"/>
</svg>