<svg xmlns="http://www.w3.org/2000/svg" version="1.1" width="24" height="24" viewBox="0 0 24 24">
<path d="M15.287 3.63c-4.223 0.164-7.636 3.419-8.048 7.558l-0.003 0.035h0.55c0.197-1.854 1.015-3.486 2.24-4.713l-0 0c0.273 0.252 0.576 0.482 0.899 0.681l0.025 0.014c-0.608 1.177-0.98 2.556-1.082 4.018h0.135c0.105-1.467 0.485-2.819 1.065-3.947 0.745 0.434 1.623 0.754 2.577 0.94-0.159 1.118-0.25 2.41-0.25 3.722 0 0.014 0 0.029 0 0.043v-0.002h-0.847v0.135h0.847c0.003 1.334 0.090 2.617 0.25 3.764-0.954 0.185-1.832 0.506-2.577 0.94-0.47-0.91-0.813-1.967-0.972-3.084l-0.006-0.053h-0.137c0.164 1.16 0.502 2.25 0.997 3.208-0.348 0.213-0.651 0.443-0.928 0.699l0.004-0.004c-1.262-1.264-2.093-2.96-2.253-4.846l-0.002-0.029h-0.551c0.398 4.308 3.995 7.656 8.373 7.656 4.616 0 8.363-3.72 8.407-8.326l0-0.004c0-0.001 0-0.003 0-0.004 0-1.204-0.253-2.348-0.709-3.383l0.021 0.054c-1.323-3.012-4.28-5.077-7.719-5.077-0.108 0-0.215 0.002-0.321 0.006l0.015-0zM15.602 4.176c0.155 0 0.31 0.005 0.464 0.014 0.365 0.34 0.708 1.070 0.983 2.114 0.131 0.478 0.256 1.083 0.346 1.7l0.011 0.090c-0.54 0.102-1.162 0.16-1.797 0.16-0.002 0-0.005 0-0.007 0h0c-0.002 0-0.005 0-0.008 0-0.635 0-1.257-0.058-1.86-0.17l0.063 0.010c0.101-0.707 0.226-1.312 0.383-1.905l-0.026 0.115c0.275-1.045 0.618-1.775 0.983-2.114 0.139-0.009 0.301-0.014 0.465-0.014h0zM14.937 4.204c-0.345 0.392-0.658 1.093-0.913 2.065-0.132 0.48-0.258 1.089-0.349 1.709l-0.011 0.091c-0.939-0.183-1.802-0.498-2.533-0.926 0.686-1.283 1.635-2.264 2.73-2.775 0.305-0.072 0.672-0.13 1.047-0.162l0.029-0.002zM16.267 4.204c0.407 0.035 0.777 0.094 1.137 0.178l-0.053-0.010c1.092 0.513 2.037 1.492 2.721 2.771-0.73 0.428-1.594 0.743-2.533 0.927-0.102-0.711-0.228-1.32-0.386-1.916l0.026 0.116c-0.255-0.972-0.568-1.673-0.912-2.066zM13.295 4.518c-0.655 0.407-1.257 0.989-1.776 1.73-0.165 0.233-0.333 0.503-0.485 0.782l-0.021 0.043c-0.336-0.206-0.627-0.427-0.895-0.674l0.004 0.004c0.866-0.848 1.931-1.497 3.118-1.87l0.055-0.015zM17.919 4.524c1.238 0.389 2.299 1.035 3.166 1.879l-0.002-0.002c-0.264 0.244-0.556 0.465-0.868 0.658l-0.025 0.014c-0.173-0.322-0.341-0.592-0.523-0.851l0.017 0.026c-0.516-0.738-1.115-1.318-1.765-1.724zM21.179 6.509c0.675 0.679 1.226 1.481 1.618 2.369l0.020 0.050c0.399 0.899 0.635 1.946 0.642 3.048l0 0.003h-2.095c-0.010-1.74-0.398-3.396-1.11-4.774 0.349-0.213 0.651-0.443 0.929-0.7l-0.004 0.004zM20.135 7.276c0.679 1.32 1.084 2.945 1.094 4.703h-3.42c0-0.009 0-0.020 0-0.031 0-1.316-0.091-2.611-0.268-3.878l0.017 0.146c0.954-0.186 1.833-0.506 2.577-0.94zM13.778 8.241c0.544 0.102 1.169 0.16 1.808 0.16 0.005 0 0.011 0 0.016-0h-0.001c0.004 0 0.009 0 0.015 0 0.639 0 1.265-0.058 1.872-0.17l-0.063 0.010c0.16 1.138 0.246 2.413 0.249 3.738h-1.178c-0.030 0.051-0.061 0.095-0.094 0.137l0.001-0.002h1.27c0 0.012 0 0.026 0 0.040 0 1.305-0.090 2.588-0.265 3.845l0.017-0.145c-0.548-0.103-1.179-0.161-1.824-0.161s-1.275 0.059-1.887 0.171l0.064-0.010c-0.158-1.112-0.248-2.396-0.248-3.701 0-0.013 0-0.027 0-0.040v0.002h1.294c-0.032-0.039-0.061-0.084-0.087-0.13l-0.003-0.005h-1.204c0.003-1.325 0.088-2.6 0.248-3.738zM2.558 9.37c-1.333 0.015-2.424 1.036-2.546 2.34l-0.001 0.010c-0.142 1.541 1.064 2.842 2.566 2.842 1.26 0 2.312-0.917 2.533-2.124h4.44v0.972h0.946v-0.972h0.837v1.431h0.945v-2.376h-7.168c-0.227-1.215-1.28-2.123-2.544-2.123-0.003 0-0.005 0-0.008 0h0zM2.5 10.335c0.020-0.001 0.044-0.001 0.068-0.001 0.905 0 1.639 0.733 1.639 1.638v0c-0.001 0.905-0.734 1.637-1.639 1.638h-0c-0.893-0.015-1.612-0.743-1.612-1.639 0-0.872 0.68-1.584 1.539-1.636l0.005-0zM15.59 10.723c-0.405 0.012-0.728 0.343-0.728 0.75 0 0.28 0.153 0.523 0.38 0.652l0.004 0.002-0.383 1.958h1.5l-0.383-1.958c0.231-0.131 0.384-0.374 0.384-0.654v-0c0-0 0-0 0-0 0-0.414-0.336-0.75-0.75-0.75-0.008 0-0.016 0-0.024 0l0.001-0zM17.808 12.114h3.421c-0.010 1.758-0.415 3.384-1.094 4.704-0.744-0.434-1.623-0.755-2.577-0.94 0.159-1.118 0.25-2.409 0.25-3.721 0-0.015-0-0.030-0-0.046v0.002zM21.364 12.114h2.095c-0.012 2.137-0.882 4.068-2.281 5.47l0-0c-0.273-0.253-0.576-0.483-0.899-0.682l-0.025-0.014c0.712-1.378 1.1-3.033 1.11-4.774zM15.844 15.817c0.562 0.013 1.1 0.070 1.625 0.166l-0.063-0.010c-0.101 0.707-0.226 1.313-0.383 1.906l0.026-0.115c-0.275 1.045-0.618 1.774-0.982 2.114-0.139 0.009-0.301 0.014-0.465 0.014s-0.326-0.005-0.487-0.015l0.022 0.001c-0.365-0.34-0.708-1.070-0.983-2.114-0.131-0.478-0.256-1.083-0.346-1.7l-0.011-0.090c0.543-0.102 1.168-0.16 1.806-0.16 0.085 0 0.169 0.001 0.253 0.003l-0.012-0zM17.539 15.998c0.94 0.184 1.803 0.5 2.533 0.926-0.686 1.284-1.635 2.265-2.73 2.776-0.305 0.072-0.672 0.13-1.046 0.162l-0.029 0.002c0.344-0.393 0.657-1.094 0.913-2.065 0.132-0.48 0.257-1.090 0.348-1.711l0.011-0.090zM13.665 15.998c0.102 0.711 0.227 1.32 0.385 1.916l-0.026-0.116c0.255 0.973 0.568 1.674 0.913 2.066-0.403-0.034-0.77-0.092-1.128-0.174l0.053 0.010c-1.096-0.511-2.045-1.492-2.731-2.775 0.73-0.428 1.594-0.743 2.534-0.927zM11.013 16.995c0.173 0.322 0.341 0.592 0.523 0.851l-0.017-0.026c0.52 0.741 1.121 1.323 1.776 1.73-1.242-0.388-2.307-1.036-3.175-1.885l0.001 0.001c0.264-0.243 0.556-0.465 0.867-0.657l0.025-0.014zM20.191 16.995c0.336 0.206 0.627 0.427 0.895 0.674l-0.004-0.004c-0.866 0.848-1.931 1.497-3.118 1.87l-0.055 0.015c0.654-0.407 1.256-0.989 1.775-1.73 0.165-0.233 0.334-0.503 0.486-0.782l0.021-0.043z"/>
</svg>