<svg xmlns="http://www.w3.org/2000/svg" version="1.1" width="24" height="24" viewBox="0 0 24 24">
<path d="M21.385 9.768h-7.074l-4.293 5.022h-8.461l2.283-2.69h-2.718c-0.617 0-1.122 0.516-1.122 1.15v2.428c0 0.633 0.505 1.15 1.122 1.15h12.933c0.617 0 1.46-0.384 1.874-0.854l5.425-6.171zM20.262 11.047l-0.751 0.855zM22.878 7.172h-12.896c-0.617 0-1.462 0.384-1.876 0.853l-5.49 6.208h7.047l4.368-5.020h8.424l-2.263 2.689h2.686c0.617 0 1.122-0.518 1.122-1.151v-2.428c0-0.633-0.505-1.15-1.122-1.151zM21.008 10.196l-0.474 0.541z"/>
</svg>