<svg xmlns="http://www.w3.org/2000/svg" version="1.1" width="24" height="24" viewBox="0 0 24 24">
<path d="M1.8 18h-1.8v6h6v-1.8h-4.2zM23 0h-8.93c-0.002 0-0.004 0-0.006 0-0.691 0-1.3 0.35-1.659 0.883l-0.005 0.007-3.4 5.1h-8c-0.552 0-1 0.448-1 1v0 5.5l3.5 3.61 1.2-1.29 1.5 1.5-1.2 1.22 1.48 1.48 1.22-1.22 1.5 1.51-1.2 1.2 3.5 3.5h5.5c0.552 0 1-0.448 1-1v0-8l5.11-3.4c0.54-0.364 0.89-0.973 0.89-1.664 0-0.006-0-0.011-0-0.017v0.001-8.92c0-0.552-0.448-1-1-1v0zM18 9c-1.657 0-3-1.343-3-3s1.343-3 3-3v0c1.657 0 3 1.343 3 3s-1.343 3-3 3v0z"/>
</svg>