<svg xmlns="http://www.w3.org/2000/svg" version="1.1" width="24" height="24" viewBox="0 0 24 24">
<path d="M11.979 24c-2.483 0-4.898-0.777-6.954-2.262v0c-2.59-1.872-4.3-4.644-4.814-7.807-0.514-3.162 0.228-6.336 2.091-8.937 1.864-2.604 4.627-4.321 7.78-4.835 3.148-0.514 6.307 0.233 8.896 2.104 2.59 1.872 4.3 4.644 4.815 7.807 0.514 3.162-0.228 6.336-2.091 8.938-1.865 2.604-4.628 4.321-7.78 4.835-0.649 0.105-1.299 0.157-1.943 0.157zM5.505 21.074c2.411 1.742 5.353 2.438 8.284 1.96 2.936-0.479 5.509-2.079 7.246-4.504 3.583-5.004 2.445-12.004-2.538-15.604-2.411-1.742-5.353-2.438-8.284-1.96-2.935 0.48-5.509 2.079-7.245 4.504-3.584 5.004-2.445 12.004 2.537 15.604zM16.111 17.522c0.731-0.214 1.246-0.734 1.458-1.468l0.062-0.216 0.008-5.787c0.006-4.334 0-5.814-0.024-5.895-0.025-0.086-0.066-0.157-0.118-0.214-0.077-0.048-0.17-0.073-0.276-0.073-0.073 0-0.325 0.035-0.56 0.078-1.041 0.19-7.176 1.411-7.281 1.45-0.162 0.061-0.323 0.203-0.399 0.354l-0.065 0.128c0 0-0.031 9.071-0.078 9.173-0.071 0.155-0.23 0.303-0.376 0.35-0.069 0.022-0.343 0.084-0.609 0.137-1.231 0.245-1.688 0.421-2.075 0.801-0.22 0.216-0.382 0.51-0.453 0.819-0.067 0.295-0.045 0.737 0.051 1.006 0.1 0.281 0.262 0.521 0.473 0.71 0.192 0.148 0.419 0.258 0.674 0.324 0.563 0.144 1.618-0.016 2.158-0.328 0.226-0.131 0.516-0.404 0.667-0.629 0.060-0.089 0.15-0.268 0.2-0.399 0.176-0.456 0.181-8.582 0.204-8.684 0.038-0.174 0.157-0.301 0.32-0.344 0.147-0.039 6.055-1.207 6.222-1.23 0.146-0.020 0.284 0.027 0.36 0.12 0.045 0.024 0.083 0.056 0.109 0.096 0.048 0.071 0.051 0.213 0.058 2.785 0.008 2.961 0.012 2.892-0.149 3.079-0.117 0.136-0.263 0.189-0.864 0.311-0.914 0.187-1.226 0.275-1.576 0.446-0.437 0.213-0.679 0.447-0.867 0.836-0.133 0.275-0.182 0.481-0.182 0.754 0.001 0.489 0.169 0.871 0.55 1.245 0.035 0.034 0.069 0.066 0.104 0.097 0.192 0.148 0.387 0.238 0.633 0.294 0.37 0.082 1.124 0.025 1.641-0.126z"/>
</svg>