<svg xmlns="http://www.w3.org/2000/svg" version="1.1" width="24" height="24" viewBox="0 0 24 24">
<path d="M15.65 16.105v-0.24c-0.073-0.996-0.548-1.869-1.261-2.466l-0.006-0.005c-0.724-0.663-1.69-0.965-2.655-0.904-1.87 0.12-3.378 1.747-3.378 3.615 0 0.784 0.12 1.567 0.422 2.471h-4.222v-11.63l7.42-5.123 7.482 5.122v11.692h-4.223c0.18-0.663 0.422-1.688 0.422-2.532zM20.719 5.861l-8.267-5.725c-0.301-0.181-0.663-0.181-0.905 0l-8.325 5.724c-0.242 0.12-0.362 0.361-0.362 0.663v12.957c0 0.482 0.362 0.844 0.844 0.844h6.216c0.006 0 0.013 0 0.020 0 0.455 0 0.824-0.369 0.824-0.824 0-0.007-0-0.014-0-0.021l0 0.001c0-0.060 0-0.18-0.060-0.24l-0.060-0.182c-0.302-0.723-0.664-1.627-0.664-2.53v-0.182c-0.060-0.542 0.12-1.084 0.482-1.446 0.343-0.399 0.83-0.667 1.379-0.722l0.009-0.001c0.543-0.060 1.026 0.12 1.448 0.482s0.664 0.844 0.724 1.386v0.18c0.060 1.206-0.724 2.954-0.845 3.135l-1.146 2.17-0.18-0.362c-0.122-0.181-0.302-0.362-0.483-0.422s-0.423-0.060-0.604 0.060c-0.18 0.12-0.362 0.301-0.422 0.482s-0.060 0.422 0.060 0.603l0.905 1.687c0.121 0.241 0.423 0.422 0.724 0.422s0.604-0.18 0.724-0.422l1.81-3.375h5.732c0.006 0 0.013 0 0.020 0 0.455 0 0.824-0.369 0.824-0.824 0-0.007-0-0.014-0-0.020l0 0.001v-12.836c-0.060-0.302-0.18-0.543-0.422-0.663z"/>
</svg>