<svg xmlns="http://www.w3.org/2000/svg" version="1.1" width="24" height="24" viewBox="0 0 24 24">
<path d="M5.37 2.65c0 0.003 0 0.007 0 0.010 0 1.451-1.171 2.629-2.619 2.64h-0.001c-1.454-0.006-2.63-1.185-2.63-2.64 0-0.004 0-0.007 0-0.011v0.001c-0-0.003-0-0.006-0-0.010 0-1.455 1.176-2.634 2.629-2.64h0.001c1.449 0.011 2.62 1.189 2.62 2.64 0 0.004 0 0.007-0 0.011v-0.001zM5.37 12c0 0.003 0 0.007 0 0.010 0 1.451-1.171 2.629-2.619 2.64h-0.001c-1.454-0.006-2.63-1.185-2.63-2.64 0-0.004 0-0.007 0-0.011v0.001c-0-0.003-0-0.006-0-0.010 0-1.455 1.176-2.634 2.629-2.64h0.001c1.449 0.011 2.62 1.189 2.62 2.64 0 0.004 0 0.007-0 0.011v-0.001zM5.37 21.35c0 0.003 0 0.007 0 0.010 0 1.451-1.171 2.629-2.619 2.64h-0.001c-1.454-0.006-2.63-1.185-2.63-2.64 0-0.004 0-0.007 0-0.011v0.001c-0-0.003-0-0.006-0-0.010 0-1.455 1.176-2.634 2.629-2.64h0.001c1.449 0.011 2.62 1.189 2.62 2.64 0 0.004 0 0.007-0 0.011v-0.001zM11.31 0c-1.445 0.017-2.61 1.192-2.61 2.64 0 0.004 0 0.007 0 0.011v-0.001c-0 0.003-0 0.007-0 0.010 0 1.444 1.159 2.617 2.598 2.64l0.002 0h9.94c1.454-0.006 2.63-1.185 2.63-2.64 0-0.004 0-0.007-0-0.011v0.001c0-0.003 0-0.007 0-0.010 0-1.451-1.171-2.629-2.619-2.64h-0.001zM8.7 12c-0-0.003-0-0.007-0-0.010 0-1.451 1.171-2.629 2.619-2.64h5.681c1.441 0.023 2.6 1.196 2.6 2.64 0 0.004 0 0.007-0 0.011v-0.001c0 0.003 0 0.007 0 0.010 0 1.444-1.159 2.617-2.598 2.64l-0.002 0h-5.7c-1.441-0.023-2.6-1.196-2.6-2.64 0-0.004 0-0.007 0-0.011v0.001z"/>
</svg>