<svg xmlns="http://www.w3.org/2000/svg" version="1.1" width="24" height="24" viewBox="0 0 24 24">
<path d="M17.787 11.41h-1.026c-0.001-0.102-0.020-0.2-0.054-0.29l0.002 0.006c-0.080-0.205-0.247-0.361-0.454-0.426l-0.005-0.001c-0.128-0.042-0.276-0.066-0.429-0.066-0.174 0-0.34 0.031-0.494 0.089l0.010-0.003c-0.251 0.093-0.445 0.289-0.533 0.536l-0.002 0.006c-0.084 0.231-0.133 0.497-0.133 0.774 0 0.232 0.034 0.456 0.097 0.667l-0.004-0.016c0.078 0.27 0.275 0.483 0.529 0.582l0.006 0.002c0.157 0.061 0.338 0.096 0.527 0.096 0.161 0 0.315-0.025 0.46-0.072l-0.011 0.003c0.193-0.063 0.345-0.202 0.426-0.38l0.002-0.004c0.051-0.114 0.080-0.247 0.080-0.387 0-0.003-0-0.006-0-0.009v0h1.031c-0.008 0.129-0.025 0.249-0.052 0.366l0.003-0.015c-0.090 0.365-0.346 0.672-0.684 0.814-0.374 0.162-0.809 0.257-1.266 0.257-0.352 0-0.69-0.056-1.008-0.159l0.023 0.006c-0.477-0.15-0.89-0.493-1.054-0.96-0.084-0.233-0.133-0.503-0.133-0.784 0-0.002 0-0.003 0-0.005v0c0-0.388 0.068-0.764 0.254-1.077 0.192-0.321 0.486-0.569 0.842-0.701 0.321-0.125 0.693-0.198 1.082-0.198 0.447 0 0.872 0.096 1.255 0.268l-0.019-0.008c0.354 0.156 0.614 0.467 0.697 0.845l0.001 0.008c0.017 0.076 0.028 0.156 0.033 0.235zM13.808 13.846h-1.088l-0.32-0.793h-1.834c-0.001 0.001-0.315 0.794-0.319 0.793h-1.090l1.727-3.693c0 0.002 1.199 0 1.199 0zM19.291 13.847h-0.977c0 0 0.005-3.693 0-3.693h0.977v1.477h1.976c0 0.005-0.002-1.478 0-1.477h0.979c0 0 0.003 3.686 0 3.693h-0.979v-1.626c0 0.005-1.976 0-1.976 0 0.002 0.007 0 1.624 0 1.626zM0.979 13.847h-0.979c0 0 0.005-3.693 0-3.693h0.979c0 0-0.002 1.487 0 1.477h1.976c0 0.005-0.004-1.478 0-1.477h0.978c0 0 0.004 3.686 0 3.693h-0.978v-1.626c0 0.005-1.976 0-1.976 0 0 0.007-0.002 1.625 0 1.626zM8.51 13.846h-0.977v-3.065h-1.497c0 0 0.002-0.626 0-0.627 0.002 0.001 3.971 0 3.971 0v0.627h-1.497zM4.709 10.154h0.977v3.692h-0.977zM23.021 10.154h0.979v3.692h-0.979zM11.484 10.781l-0.681 1.68h1.361z"/>
</svg>