<svg xmlns="http://www.w3.org/2000/svg" version="1.1" width="24" height="24" viewBox="0 0 24 24">
<path d="M12.008 17.362l11.992-7.477v2.028l-11.992 7.509-12.008-7.51v-2.026zM12.008 7.984c-2.709 0-5.085 1.363-6.448 3.47 0.111-0.111 0.175-0.175 0.286-0.254 3.374-2.804 8.237-2.17 10.883 1.362l1.758-1.124c-1.394-2.044-3.786-3.454-6.48-3.454zM12.007 11.454c-1.455 0.004-2.743 0.716-3.539 1.808l-0.009 0.013c0.588-0.435 1.327-0.697 2.128-0.697 0.004 0 0.008 0 0.012 0h-0.001c1.299 0 2.455 0.666 3.232 1.79l1.679-1.045c-0.729-1.157-2.028-1.87-3.501-1.87zM3.897 8.412c4.943-3.897 11.929-2.836 15.652 2.344l0.031 0.032 1.822-1.125c-2.032-3.080-5.477-5.085-9.391-5.085-0.001 0-0.002 0-0.003 0h0c-3.897 0-7.366 1.996-9.394 5.085 0.364-0.412 0.824-0.903 1.283-1.251z"/>
</svg>