<svg xmlns="http://www.w3.org/2000/svg" version="1.1" width="24" height="24" viewBox="0 0 24 24">
<path d="M14.31 9.588v0.005c-0.077-0.048-0.227-0.070-0.42-0.070v4.815c0.27 0 0.44-0.060 0.5-0.165 0.062-0.104 0.095-0.405 0.095-0.885v-2.866c0-0.33-0.004-0.54-0.033-0.63-0.022-0.096-0.067-0.163-0.142-0.204zM22.416 0h-20.796c-0.878 0.060-1.56 0.744-1.62 1.596v20.784c0.060 0.874 0.712 1.542 1.555 1.617 0.015 0.003 0.030 0.003 0.045 0.003h20.845c0.88-0.088 1.55-0.826 1.555-1.71v-20.58c0-0.89-0.695-1.64-1.584-1.71zM4.792 15.626h-1.905v-7.366h1.905zM11.332 15.624h-1.662v-4.97l-0.67 4.969h-1.188l-0.698-4.86-0.007 4.86h-1.667v-7.363h2.468c0.083 0.523 0.16 1.048 0.23 1.574l0.27 1.87 0.442-3.444h2.483zM16.309 13.444c0 0.655-0.044 1.094-0.104 1.32-0.062 0.22-0.17 0.4-0.326 0.52-0.15 0.13-0.34 0.218-0.57 0.266-0.223 0.045-0.57 0.075-1.020 0.075l-0.004-0.002h-2.305v-7.363h1.426c0.914 0 1.45 0.047 1.77 0.128 0.325 0.090 0.575 0.225 0.745 0.42 0.165 0.18 0.273 0.404 0.313 0.645 0.050 0.235 0.076 0.705 0.076 1.402zM21.253 13.919c0 0.45-0.045 0.764-0.090 0.99-0.060 0.224-0.195 0.404-0.405 0.568-0.226 0.166-0.48 0.24-0.78 0.24-0.22 0-0.5-0.060-0.68-0.136-0.19-0.094-0.358-0.237-0.515-0.427l-0.116 0.47h-1.717v-7.364l-0.020-0.003h1.8v2.4c0.15-0.175 0.315-0.31 0.51-0.4 0.196-0.083 0.466-0.127 0.69-0.127 0.226-0.003 0.45 0.036 0.66 0.115 0.17 0.070 0.32 0.185 0.436 0.33 0.090 0.125 0.15 0.27 0.18 0.42 0.030 0.138 0.044 0.43 0.044 0.87zM19.080 11.205c-0.12 0-0.194 0.040-0.225 0.12-0.030 0.080-0.060 0.29-0.060 0.624v1.946c0 0.324 0.030 0.533 0.060 0.623 0.040 0.086 0.13 0.14 0.226 0.134 0.12 0 0.272-0.047 0.3-0.14 0.030-0.097 0.046-0.32 0.046-0.674l0.030-0.002v-1.89c0-0.303-0.015-0.508-0.060-0.603-0.044-0.1-0.195-0.14-0.317-0.138z"/>
</svg>