<svg xmlns="http://www.w3.org/2000/svg" version="1.1" width="24" height="24" viewBox="0 0 24 24">
<path d="M22.033 21.18l-8.263-20.721h-5.901l1.049 2.623-7.082 18.098c-0.262 0.918-1.049 1.050-1.836 1.181v1.18h6.82v-1.18c-1.836-0.131-2.886-0.394-2.099-2.361 0.131-0.131 0.656-1.574 1.311-3.41h8.393l1.18 3.016c0.131 0.525 0.262 0.918 0.262 1.311 0 1.049-0.918 1.443-2.623 1.443v1.18h10.756v-1.18c-0.918-0.13-1.705-0.393-1.967-1.18zM6.82 14.361c1.311-3.279 2.754-7.082 3.279-8.525l3.41 8.525z"/>
</svg>