<svg xmlns="http://www.w3.org/2000/svg" version="1.1" width="24" height="24" viewBox="0 0 24 24">
<path d="M23.58 2.4c-0.963 1.206-2.55 6.476-11.46 6.71-4.253 0.112-6.36-4.731-6.36-4.731l-0.334 7.771c-0.831-1.042-1.945-1.705-3.014-1.74-0.032-0.002-0.069-0.003-0.106-0.003-0.503 0-0.967 0.167-1.34 0.448l0.006-0.004c-0.663 0.502-0.977 1.345-0.97 2.28s0.33 1.965 0.97 2.896 1.476 1.587 2.324 1.89c0.456 0.164 0.916 0.214 1.35 0.157 6.029 4.808 22.152 8.483 18.935-15.674zM8.404 8.85c1.265 0 2.314 0.94 2.614 2.196 0.484-1.19 1.614-2.027 2.931-2.027 1.758 0 3.178 1.49 3.178 3.322s-1.42 3.334-3.178 3.334c-1.531 0-2.81-1.14-3.115-2.644-0.437 0.978-1.353 1.666-2.43 1.666-0.915 0-1.716-0.497-2.203-1.246-0.101-0.228-0.197-0.414-0.304-0.594l0.015 0.027c-0.13-0.33-0.205-0.712-0.205-1.112 0-0 0-0.001 0-0.001v0c0-1.604 1.198-2.922 2.697-2.921zM8.404 9.21c-1.284 0-2.33 1.138-2.33 2.561s1.046 2.559 2.33 2.559c0.214 0 0.417-0.043 0.614-0.102-0.898-0.036-1.613-0.808-1.614-1.756v-0c0.001-0.971 0.751-1.758 1.676-1.758v0c0.795 0 1.461 0.581 1.633 1.361l0.002 0.012c0.012-0.105 0.029-0.207 0.029-0.316 0-1.423-1.056-2.56-2.34-2.561zM13.949 9.341c-1.576 0-2.86 1.334-2.86 3s1.284 3.008 2.86 3.008c0.591 0 1.14-0.188 1.596-0.512-0.253 0.119-0.547 0.189-0.858 0.19h-0c-1.184-0.001-2.144-1.009-2.144-2.252v0c0-1.243 0.96-2.251 2.144-2.252h0c0 0 0.001 0 0.001 0 1.048 0 1.921 0.788 2.109 1.831l0.002 0.014 0.003-0.026c0-1.667-1.277-3-2.853-3.001zM2.404 10.731c1.038 0.035 2.206 0.77 3.008 1.936 0.606 0.882 0.914 1.866 0.92 2.727s-0.282 1.589-0.846 2.016c-0.564 0.426-1.31 0.48-2.082 0.205-0.772-0.277-1.564-0.883-2.17-1.764-0.605-0.881-0.911-1.867-0.917-2.728-0.007-0.862 0.282-1.589 0.845-2.016 0.315-0.236 0.713-0.378 1.145-0.378 0.034 0 0.068 0.001 0.102 0.003l-0.005-0zM14.094 10.976c0 0 0 0 0 0-0.556 0-1.006 0.473-1.006 1.056 0 0.001 0 0.002 0 0.003v-0c0.001 0.582 0.451 1.054 1.006 1.054 0 0 0 0 0 0v0c0.555-0.001 1.004-0.472 1.005-1.054v-0c0-0.001 0-0.002 0-0.003 0-0.583-0.45-1.055-1.005-1.056h-0zM8.449 11.196c0 0 0 0 0 0-0.365 0-0.661 0.311-0.662 0.694v0c0 0.001 0 0.001 0 0.002 0 0.384 0.296 0.695 0.662 0.695 0 0 0 0 0 0v0c0 0 0 0 0 0 0.366 0 0.662-0.311 0.662-0.695 0-0.001 0-0.001 0-0.002v0c-0.001-0.383-0.297-0.694-0.662-0.694v0zM2.035 11.419c-0 0-0.001 0-0.001 0-0.617 0-1.118 0.63-1.118 1.407v0c0 0 0 0 0 0 0 0.778 0.501 1.408 1.118 1.408 0.001 0 0.001 0 0.002 0h-0c0.617-0.001 1.116-0.631 1.116-1.408 0 0 0 0 0 0v0c-0-0.777-0.5-1.406-1.117-1.407h-0zM16.211 15.417c0 0 1.487 0.435 2.011 1.145 0.523 0.708 0.194 1.145 0.057 2.050-0.202-0.528-0.407-0.942-0.621-1.183-0.81 1.259-3.104 1.858-6.18 1.559 1.38-0.072 2.451-0.288 3.301-0.584-1.4 0.090-3.214-0.27-5.365-1.067 4.262 0.895 6.433 0.063 7.703-0.966-0.335-0.455-0.906-0.954-0.906-0.954z"/>
</svg>