<svg xmlns="http://www.w3.org/2000/svg" version="1.1" width="24" height="24" viewBox="0 0 24 24">
<path d="M23.999 3.733v16.547c0 0.141-0.050 0.255-0.149 0.346-0.101 0.094-0.221 0.138-0.36 0.138h-8.559v-2.295h6.982v-1.045h-6.988v-1.279h6.982v-1.044h-6.977v-1.29h6.98v-1.032h-6.98v-1.293h6.98v-1.044h-6.98v-1.279h6.98v-1.043h-6.98v-1.305h6.98v-0.994h-6.98v-2.593h8.562c0.149 0 0.27 0.048 0.358 0.149 0.105 0.099 0.15 0.22 0.149 0.356zM13.65 0.641v22.722l-13.65-2.362v-17.934l13.65-2.43zM11.59 7.349l-1.709 0.105-1.096 6.785h-0.025c-0.054-0.321-0.255-1.445-0.615-3.367l-0.639-3.263-1.604 0.080-0.642 3.183c-0.375 1.854-0.584 2.933-0.639 3.236h-0.015l-0.975-6.25-1.47 0.078 1.575 7.883 1.634 0.105 0.615-3.068c0.36-1.8 0.57-2.846 0.615-3.132h0.045c0.061 0.305 0.256 1.374 0.615 3.21l0.615 3.158 1.77 0.105 1.98-8.85z"/>
</svg>