<svg xmlns="http://www.w3.org/2000/svg" version="1.1" width="24" height="24" viewBox="0 0 24 24">
<path d="M12 0c-6.625 0-11.995 5.368-12 11.992v9.286c0.003 1.504 1.223 2.722 2.728 2.722 0 0 0 0 0 0h9.277c6.625-0.003 11.995-5.374 11.995-12 0-6.627-5.373-12-12-12zM16.595 5.577c-0.379 0-0.516-0.073-1.072-0.073 0 0 0 0 0 0-1.64 0-2.97 1.328-2.973 2.968v2.583c0 0.232 0.188 0.42 0.42 0.42h1.953c0.728 0 1.316 0.58 1.316 1.31 0 0.734-0.594 1.312-1.33 1.312h-2.358v2.985c0 3.11-2.522 5.632-5.632 5.632-0 0-0.001 0-0.001 0h0c-0.008 0-0.018 0-0.028 0-0.433 0-0.851-0.061-1.247-0.176l0.032 0.008c-0.637-0.166-1.157-0.689-1.157-1.296 0-0.734 0.533-1.268 1.33-1.268 0.378 0 0.516 0.072 1.071 0.072 1.64 0 2.97-1.328 2.973-2.968v-2.583c-0.001-0.232-0.188-0.419-0.42-0.419 0 0 0 0 0 0h-1.953c-0.727 0-1.315-0.58-1.315-1.31 0-0.734 0.594-1.312 1.33-1.312h2.357v-2.985c0-3.11 2.522-5.632 5.632-5.632v0c0.472 0 0.807 0.053 1.244 0.167 0.637 0.167 1.158 0.69 1.158 1.296 0 0.735-0.533 1.269-1.329 1.269z"/>
</svg>