<svg xmlns="http://www.w3.org/2000/svg" version="1.1" width="24" height="24" viewBox="0 0 24 24">
<path d="M23.725 0.588c1.273 1.272-2.254 6.862-2.85 7.458-0.597 0.596-2.111 0.048-3.383-1.224s-1.82-2.787-1.224-3.383 6.186-4.123 7.457-2.851zM5.885 1.934c-1.942-1.102-4.705-2.328-5.585-1.449-0.89 0.89 0.38 3.717 1.494 5.663 0.99-1.723 2.4-3.174 4.091-4.214zM21.785 7.608c0.179 0.606 0.147 1.107-0.143 1.397-0.678 0.678-2.508-0.044-4.157-1.614-0.122-0.109-0.234-0.215-0.342-0.323l0 0c-0.597-0.597-1.060-1.232-1.358-1.817-0.578-1.036-0.722-1.952-0.285-2.388 0.238-0.238 0.618-0.303 1.083-0.22 0.303-0.191 0.66-0.405 1.052-0.623-1.541-0.82-3.37-1.301-5.311-1.301-0.007 0-0.013 0-0.020 0h0.001c-6.378 0-11.548 5.17-11.548 11.548 0 6.377 5.17 11.548 11.548 11.548s11.549-5.17 11.549-11.548c0-2.060-0.54-3.991-1.485-5.666-0.243 0.448-0.437 0.778-0.639 1.101l0.055-0.094z"/>
</svg>