<svg xmlns="http://www.w3.org/2000/svg" version="1.1" width="24" height="24" viewBox="0 0 24 24">
<path d="M19.229 4.18l-4.066 2.327v-4.681l-3.17-1.826-3.166 1.83v4.677l-4.047-2.337-3.174 1.83v3.664l4.051 2.336-4.054 2.343v3.657l3.165 1.831 4.044-2.338v4.681l3.171 1.826 3.174-1.831v-4.676l4.052 2.327 3.173-1.829v-3.646l-4.043-2.345 4.058-2.336v-3.664l-3.164-1.82zM19.602 7.609v-1.894l1.639 0.942v1.905l-1.636-0.953zM21.24 16.895l-6.075-3.504 1.65-0.945 4.424 2.554v1.896zM14.413 12.945l-1.65-0.945 6.452-3.726 1.641 0.944-6.446 3.727zM3.134 9.219l1.641-0.944 6.453 3.725-1.639 0.945zM8.824 13.389l-6.075 3.508v-1.897l4.435-2.555 1.641 0.945zM2.749 8.564v-1.904l1.64-0.945v1.898zM12.376 8.564v-7.014l1.641 0.937v5.123l-1.641 0.953zM9.974 7.604v-5.111l1.64-0.944v7.004zM18.84 5.715v1.898l-6.456 3.734v-1.905zM11.612 9.439v1.897l-6.459-3.727v-1.894l6.46 3.721zM9.209 15.952l-4.435 2.555-1.64-0.944 6.074-3.508zM9.974 13.609l1.64-0.945v7.453l-1.64 0.959zM13.63 21.724l-1.639 0.954-1.64-0.951 1.64-0.946 1.639 0.946zM14.024 21.067l-1.648-0.95v-7.441l1.648 0.944v7.458zM20.855 17.563l-1.641 0.944-4.425-2.555v-1.897l6.075 3.508z"/>
</svg>