<svg xmlns="http://www.w3.org/2000/svg" version="1.1" width="24" height="24" viewBox="0 0 24 24">
<path d="M21.51 8.107c-0.012-0.001-0.026-0.001-0.040-0.001-0.259 0-0.494 0.101-0.669 0.265l0-0c-0.192 0.181-0.311 0.438-0.311 0.722 0 0.534 0.421 0.969 0.949 0.992l0.002 0c0.010 0 0.022 0.001 0.034 0.001 0.534 0 0.97-0.423 0.99-0.953l0-0.002c0-0.010 0.001-0.021 0.001-0.033 0-0.535-0.424-0.972-0.955-0.991l-0.002-0zM21.672 9.189c-0.242 0-0.438-0.131-0.438-0.292 0-0.163 0.196-0.293 0.438-0.293 0.243 0 0.44 0.13 0.44 0.293 0 0.16-0.197 0.292-0.44 0.292zM23.978 10.369c0.007-0.006 0.024-0.020 0.022-0.034-0.055-0.343-0.565-2.004-0.952-2.404-0.106-0.109-0.191-0.216-0.364-0.317-1.398-0.814-4.713-1.306-4.869-1.328 0 0-0.015-0.004-0.026 0.007-0.009 0.008-0.010 0.024-0.010 0.024l-0.015 0.764c-0.339-0.114-2.8-0.91-5.108-0.99-1.956-0.067-4.806-0.321-8.584 2.002l-0.111 0.070c-1.777 1.107-3.004 2.474-3.645 4.061-0.201 0.5-0.472 1.628-0.204 2.688 0.116 0.464 0.331 0.93 0.621 1.347 0.656 0.943 1.757 1.568 2.943 1.674 1.674 0.15 2.941-0.602 3.392-2.010 0.31-0.971 0-2.397-1.188-3.124-0.967-0.591-2.006-0.457-2.609-0.058-0.523 0.347-0.819 0.886-0.814 1.477 0.012 1.050 0.917 1.608 1.567 1.61 0.189 0 0.378-0.033 0.592-0.103 0.086-0.025 0.162-0.059 0.231-0.102l-0.004 0.002 0.025-0.015 0.015-0.010-0.005 0.003c0.143-0.097 0.236-0.26 0.236-0.444 0-0.051-0.007-0.1-0.020-0.147l0.001 0.004c-0.066-0.225-0.27-0.386-0.512-0.386-0.035 0-0.070 0.003-0.103 0.010l0.003-0.001-0.036 0.008-0.050 0.015-0.072 0.025c-0.15 0.037-0.262 0.040-0.286 0.041-0.076-0.005-0.45-0.117-0.45-0.527v-0.005c0-0.151 0.060-0.257 0.093-0.314 0.117-0.183 0.435-0.362 0.866-0.325 0.565 0.050 0.973 0.34 1.243 0.886 0.25 0.508 0.185 1.134-0.17 1.592-0.35 0.454-0.976 0.647-1.809 0.557-0.85-0.091-1.564-0.599-1.94-1.313l-0.007-0.014c-0.389-0.735-0.41-1.607-0.055-2.276 0.85-1.604 2.455-1.587 3.334-1.435 1.302 0.226 2.784 1.427 3.309 2.814 0.085 0.22 0.128 0.396 0.166 0.556l0.057 0.24 1.47 0.718c0.032 0.015 0.043 0.020 0.055 0.011 0.016-0.011 0.007-0.042 0.007-0.042-0.010-0.033-0.030-0.063-0.065-0.475-0.027-0.365-0.084-1.365 0.42-1.86 0.195-0.195 0.492-0.367 0.728-0.423 0.964-0.235 2.094-0.073 3.163 1.164 0.553 0.64 0.823 0.93 0.959 1.061 0 0 0.030 0.030 0.047 0.043 0.018 0.015 0.030 0.027 0.055 0.041 0.045 0.025 1.838 0.85 1.838 0.85s0.022 0.011 0.037-0.008c0.016-0.020 0.001-0.038 0.001-0.038-0.012-0.014-1.137-1.468-0.937-2.665 0.158-0.954 0.917-0.867 1.967-0.749 0.343 0.040 0.733 0.085 1.137 0.094 1.127 0.007 2.342-0.201 3.090-0.529 0.485-0.21 0.794-0.35 0.988-0.526 0.070-0.058 0.106-0.152 0.143-0.253l0.027-0.066c0.031-0.082 0.077-0.254 0.097-0.348 0.009-0.042 0.018-0.083-0.016-0.11-0.032-0.024-0.104 0.020-0.104 0.020-0.329 0.198-1.15 0.573-1.919 0.589-0.954 0.019-2.887-0.966-3.087-1.070-0.134-0.32-0.268-0.639-0.404-0.957 1.383 0.911 2.53 1.415 3.408 1.492 0.977 0.088 1.74-0.446 2.070-0.668 0.043-0.028 0.086-0.060 0.126-0.091zM20.055 9.058c0.014-0.379 0.173-0.73 0.45-0.988 0.252-0.236 0.592-0.381 0.965-0.381 0.018 0 0.036 0 0.054 0.001l-0.003-0c0.763 0.029 1.371 0.655 1.371 1.422 0 0.016-0 0.032-0.001 0.048l0-0.002c-0.015 0.379-0.174 0.73-0.45 0.987-0.277 0.26-0.638 0.394-1.019 0.381-0.762-0.031-1.369-0.656-1.369-1.423 0-0.016 0-0.032 0.001-0.047l-0 0.002z"/>
</svg>