<svg xmlns="http://www.w3.org/2000/svg" version="1.1" width="24" height="24" viewBox="0 0 24 24">
<path d="M2.43 11.361c0-0.372 0.303-0.705 0.675-0.705h6.968c0.271-0.003 0.486-0.219 0.486-0.488v-1.455c0-0.27-0.219-0.487-0.488-0.487h-7.641c-1.342 0.001-2.43 1.088-2.43 2.428v2.695c0 1.342 1.086 2.431 2.426 2.431h5.021c0.372 0 0.676 0.331 0.676 0.706v1.282c0 0.371-0.304 0.707-0.676 0.707h-6.961c-0.271 0-0.485 0.217-0.485 0.486v1.453c0 0.268 0.216 0.486 0.485 0.486h7.644c1.34 0 2.426-1.087 2.426-2.427v-2.697c0-1.34-1.086-2.428-2.427-2.428h-5.025c-0.372 0-0.675-0.334-0.675-0.704zM23.518 8.231h-5.024v-2.706h5.020c0.266 0 0.483-0.217 0.483-0.486v-1.454c0-0.271-0.215-0.486-0.484-0.486h-5.019c-1.34 0-2.427 1.087-2.427 2.427v2.706h-2.327c-0.27 0-0.484 0.218-0.484 0.485v1.459c0 0.268 0.216 0.484 0.483 0.484h2.325v7.953c0 0.24 0.099 0.284 0.303 0.284 0.488 0 2.124-0.91 2.124-1.688v-6.551h5.024c0.266 0 0.484-0.218 0.484-0.484v-1.46c0-0.266-0.219-0.483-0.484-0.483z"/>
</svg>