<svg xmlns="http://www.w3.org/2000/svg" version="1.1" width="24" height="24" viewBox="0 0 24 24">
<path d="M18.825 23.859c-0.022 0.092-0.117 0.141-0.281 0.141h-3.139c-0.187 0-0.351-0.082-0.492-0.248l-5.178-6.589-1.448 1.374v5.111c0 0.235-0.117 0.352-0.351 0.352h-2.431c-0.236 0-0.354-0.117-0.354-0.352v-23.295c0-0.233 0.118-0.353 0.354-0.353h2.431c0.234 0 0.351 0.12 0.351 0.353v14.343l6.203-6.272c0.165-0.165 0.33-0.246 0.495-0.246h3.239c0.144 0 0.236 0.060 0.285 0.18 0.046 0.149 0.034 0.255-0.036 0.315l-6.555 6.344 6.836 8.507c0.095 0.104 0.117 0.208 0.070 0.358z"/>
</svg>