<svg xmlns="http://www.w3.org/2000/svg" version="1.1" width="24" height="24" viewBox="0 0 24 24">
<path d="M6.981 0.555c-0.038 0-0.074 0.005-0.109 0.012l0.003-0.001c-0.287 0.062-0.47 0.344-0.408 0.631s0.344 0.47 0.631 0.408c0.242-0.054 0.42-0.266 0.42-0.521 0-0.040-0.004-0.078-0.013-0.116l0.001 0.004c-0.054-0.251-0.278-0.421-0.525-0.418zM13.436 1.193c-0.001 0-0.002 0-0.004 0-0.188 0-0.365 0.053-0.514 0.145l0.004-0.002c-0.47 0.282-0.624 0.89-0.342 1.359s0.892 0.622 1.361 0.34c0.47-0.282 0.622-0.89 0.34-1.359-0.175-0.29-0.488-0.48-0.846-0.482h-0zM10.406 3.43c-0.974 0.005-1.956 0.292-2.82 0.889-0.875 0.604-1.497 1.436-1.848 2.359-0.508 0.069-1.010 0.239-1.461 0.551-1.492 1.031-1.886 3.039-0.939 4.563-1.285 1.176-1.581 3.136-0.606 4.649 0.579 0.897 1.488 1.437 2.465 1.598 0.018 0.732 0.238 1.466 0.685 2.113 1.224 1.771 3.653 2.216 5.424 0.992 0.068-0.047 0.12-0.106 0.184-0.156 0.987 0.881 2.471 1.026 3.607 0.24 0.606-0.419 0.993-1.029 1.162-1.691 0.889 0.033 1.796-0.193 2.584-0.738 1.892-1.307 2.4-3.861 1.189-5.789 0.971-0.819 1.18-2.251 0.434-3.309-0.333-0.472-0.803-0.781-1.316-0.934 0.075-0.984-0.17-1.998-0.775-2.873-1.179-1.706-3.333-2.331-5.195-1.656-0.779-0.506-1.731-0.807-2.754-0.807-0.007 0-0.013 0-0.020 0h0.001zM4.803 4.246c-0.159 0.002-0.305 0.052-0.426 0.136l0.002-0.002c-0.345 0.238-0.432 0.71-0.193 1.055s0.712 0.432 1.057 0.193c0.199-0.138 0.328-0.366 0.328-0.624 0-0.161-0.050-0.311-0.136-0.433l0.002 0.002c-0.139-0.199-0.366-0.328-0.624-0.328-0.003 0-0.006 0-0.009 0h0zM20.797 6.617c-0.176 0.002-0.339 0.058-0.473 0.152l0.003-0.002c-0.222 0.155-0.365 0.408-0.365 0.695 0 0.467 0.378 0.845 0.845 0.845s0.845-0.378 0.845-0.845c0-0.18-0.056-0.346-0.152-0.483l0.002 0.003c-0.155-0.222-0.408-0.365-0.696-0.365-0.003 0-0.007 0-0.010 0h0zM12.647 7.644c0.063 0 0.124 0.005 0.182 0.014 0.229 0.034 0.366 0.119 0.451 0.188 0.168 0.134 0.273 0.241 0.432 0.393 0.239 0.228 0.413 0.089 0.533 0.019 0.208-0.121 0.369-0.218 0.984-0.207 0.633 0.011 1.363 0.237 1.514 1.316 0.168 1.199-1.966 4.289-1.816 5.723 0.105 1.010 1.815 0.299 1.959 1.221 0.187 1.197-2.135 0.752-2.666 0.492-0.832-0.408-1.337-1.34-1.121-2.26 0.161-0.688 1.7-3.498 1.758-3.93 0.059-0.44-0.177-0.477-0.324-0.484-0.189-0.010-0.339 0.081-0.525 0.361-0.169 0.256-2.082 4.086-2.248 4.398-0.297 0.559-0.67 0.694-1.045 0.674-0.547-0.029-0.798-0.321-0.719-0.848 0.047-0.31 1.259-3.049 1.322-3.477 0.039-0.264-0.013-0.545-0.275-0.68s-0.571 0.070-0.664 0.227c-0.128 0.215-1.848 4.707-2.031 5.039-0.317 0.576-0.651 0.759-1.152 0.783-1.186 0.056-2.066-0.919-1.678-2.115 0.173-0.533 1.316-4.572 1.895-5.6 0.389-0.691 1.468-1.216 2.217-0.893 0.388 0.168 0.925 0.438 1.084 0.508 0.366 0.162 0.759-0.278 0.914-0.412s0.302-0.276 0.49-0.357c0.141-0.060 0.343-0.095 0.531-0.094zM23.527 9.701c-0.034 0.001-0.066 0.005-0.097 0.012l0.003-0.001c-0.213 0.047-0.37 0.233-0.37 0.457 0 0.035 0.004 0.068 0.011 0.101l-0.001-0.003c0.048 0.213 0.235 0.37 0.459 0.37 0.035 0 0.068-0.004 0.101-0.011l-0.003 0.001c0.252-0.055 0.414-0.304 0.359-0.557-0.048-0.213-0.235-0.369-0.459-0.369-0.001 0-0.003 0-0.004 0h0zM1.008 10.512c-0.003-0-0.006-0-0.009-0-0.34 0-0.641 0.17-0.821 0.43l-0.002 0.003c-0.312 0.455-0.198 1.078 0.258 1.391s1.078 0.196 1.391-0.26 0.198-1.077-0.258-1.389c-0.156-0.109-0.35-0.174-0.558-0.176h-0zM22.303 12.605c-0.045 0-0.089 0.005-0.131 0.014l0.004-0.001c-0.285 0.063-0.495 0.313-0.495 0.613 0 0.047 0.005 0.093 0.015 0.138l-0.001-0.004c0.063 0.286 0.314 0.497 0.614 0.497 0.047 0 0.092-0.005 0.136-0.015l-0.004 0.001c0.339-0.073 0.556-0.407 0.482-0.746-0.064-0.286-0.315-0.496-0.615-0.496-0.002 0-0.004 0-0.006 0h0zM4.062 18.703c-0.033 0.001-0.065 0.005-0.095 0.012l0.003-0.001c-0.251 0.054-0.412 0.302-0.357 0.553s0.302 0.41 0.553 0.355c0.211-0.047 0.366-0.232 0.366-0.454 0-0.035-0.004-0.069-0.011-0.102l0.001 0.003c-0.047-0.211-0.233-0.367-0.455-0.367-0.001 0-0.003 0-0.004 0h0zM17.738 20.254c-0.219 0.002-0.421 0.071-0.587 0.188l0.003-0.002c-0.476 0.329-0.594 0.981-0.266 1.457s0.981 0.594 1.457 0.266c0.476-0.329 0.594-0.981 0.266-1.457-0.191-0.274-0.505-0.451-0.86-0.451-0.005 0-0.009 0-0.014 0h0.001zM11.4 22.154c-0.135 0.002-0.259 0.045-0.361 0.117l0.002-0.001c-0.169 0.118-0.279 0.312-0.279 0.531 0 0.137 0.043 0.265 0.116 0.369l-0.001-0.002c0.118 0.169 0.312 0.279 0.531 0.279 0.137 0 0.265-0.043 0.369-0.116l-0.002 0.001c0.169-0.118 0.279-0.312 0.279-0.531 0-0.137-0.043-0.265-0.116-0.369l0.001 0.002c-0.118-0.17-0.312-0.279-0.532-0.279-0.003 0-0.005 0-0.008 0h0z"/>
</svg>