<svg xmlns="http://www.w3.org/2000/svg" version="1.1" width="24" height="24" viewBox="0 0 24 24">
<path d="M12.571 0c-0.699 0.022-2.041 0.555-3.458 1.419-1.649 1.001-2.855 2.119-2.953 2.689-0.008 0.009-0.019 0.014-0.026 0.023-0.563 0.746 0.203 2.277 1.711 3.414 1.408 1.063 2.958 1.397 3.617 0.832 0.518-0.090 1.227-1.776 1.627-3.94 0.383-2.054 0.35-3.812-0.045-4.214-0.006-0.020 0.001-0.048-0.010-0.066-0.069-0.113-0.23-0.163-0.463-0.157zM10.294 2.936c-0.164 0.193-0.329 0.383-0.492 0.605-0.217 0.296-0.403 0.587-0.568 0.866-0.257-0.155-0.556-0.3-0.869-0.419l-0.039-0.013c0.7-0.299 1.286-0.605 1.846-0.949l-0.061 0.035c0.067-0.040 0.118-0.084 0.183-0.125zM11.206 4.020c-0.004 0.024-0.010 0.043-0.015 0.066-0.097 0.497-0.178 1.106-0.224 1.726l-0.003 0.054c-0.204-0.245-0.418-0.465-0.648-0.668l-0.006-0.006c0.215-0.241 0.436-0.507 0.652-0.801 0.093-0.127 0.16-0.246 0.244-0.371zM8.066 8.022c-0.41-0.075-0.968 1.14-1.246 2.706-0.276 1.566-0.164 2.897 0.246 2.969s0.972-1.141 1.248-2.707 0.164-2.896-0.248-2.968zM2.506 10.73c-0.072 0.032-0.026 0.314 0.103 0.625 0.132 0.312 0.297 0.539 0.37 0.51 0.074-0.031 0.025-0.311-0.104-0.623-0.13-0.312-0.295-0.54-0.369-0.512zM1.904 11.236c-0.035-0.005-0.061 0-0.076 0.018-0.062 0.067 0.083 0.298 0.322 0.512 0.24 0.215 0.483 0.332 0.545 0.265 0.060-0.070-0.084-0.298-0.324-0.513-0.18-0.16-0.361-0.267-0.467-0.282zM1.68 11.92c-0.118 0-0.197 0.020-0.205 0.058-0.017 0.077 0.247 0.205 0.587 0.282 0.343 0.078 0.636 0.078 0.653 0.002 0.017-0.080-0.248-0.204-0.588-0.284-0.133-0.033-0.286-0.054-0.444-0.058l-0.003-0zM2.976 12.064c-0.251 0.067-0.235 0.954 0.036 1.98 0.27 1.030 0.695 1.81 0.945 1.745 0.25-0.067 0.234-0.954-0.037-1.98-0.271-1.030-0.694-1.812-0.944-1.745zM13.37 12.25c-0.072-0.031-0.237 0.198-0.369 0.51-0.13 0.311-0.178 0.59-0.103 0.62 0.072 0.032 0.24-0.197 0.369-0.51 0.13-0.31 0.178-0.591 0.103-0.62zM13.98 12.754c-0.105 0.015-0.285 0.12-0.463 0.281-0.238 0.213-0.382 0.445-0.323 0.512 0.058 0.064 0.304-0.057 0.541-0.27 0.238-0.213 0.38-0.443 0.32-0.508-0.014-0.016-0.040-0.020-0.075-0.015zM6.355 13.347c-0.34 0.035-0.86 0.369-1.326 0.883-0.621 0.686-0.914 1.437-0.652 1.672 0.261 0.237 0.978-0.125 1.601-0.81 0.621-0.689 0.912-1.437 0.65-1.674-0.065-0.059-0.16-0.082-0.273-0.071zM14.205 13.439c-0.119 0-0.276 0.018-0.446 0.057-0.343 0.077-0.607 0.202-0.59 0.281 0.017 0.077 0.31 0.077 0.652 0 0.34-0.077 0.607-0.202 0.588-0.28-0.008-0.037-0.087-0.057-0.204-0.058zM8.075 13.607c-0.003-0-0.007-0-0.011-0-0.033 0-0.064 0.011-0.088 0.029l0-0c-0.21 0.163 0.143 0.978 0.793 1.82 0.647 0.841 1.346 1.393 1.557 1.23 0.21-0.16-0.148-0.977-0.795-1.818-0.567-0.737-1.172-1.251-1.456-1.26zM12.632 13.65c-0.267-0.030-0.843 0.36-1.387 0.96-0.62 0.685-0.966 1.386-0.767 1.563 0.196 0.18 0.861-0.232 1.482-0.917 0.621-0.686 0.964-1.385 0.768-1.565-0.026-0.023-0.059-0.037-0.095-0.041l-0.001-0zM7.029 13.783c-0.386 0.082-0.48 1.2-0.205 2.492 0.273 1.292 0.815 2.275 1.2 2.193 0.387-0.081 0.481-1.2 0.208-2.49-0.276-1.292-0.815-2.279-1.203-2.195zM22.477 16.242c-0.13-0.055-0.48 0.471-0.78 1.174-0.297 0.705-0.432 1.323-0.3 1.378 0.13 0.056 0.48-0.47 0.777-1.173 0.297-0.705 0.433-1.324 0.303-1.379zM12.974 16.654c-0.070 0.031-0.024 0.31 0.105 0.621 0.132 0.312 0.298 0.542 0.367 0.514 0.072-0.031 0.027-0.31-0.105-0.621-0.13-0.312-0.295-0.543-0.367-0.514zM12.374 17.16c-0.035-0.005-0.062 0-0.078 0.017-0.060 0.070 0.087 0.297 0.324 0.51 0.238 0.213 0.481 0.33 0.541 0.264 0.060-0.067-0.083-0.297-0.32-0.51-0.178-0.158-0.36-0.266-0.467-0.281zM12.15 17.841c-0.118 0-0.195 0.019-0.203 0.057-0.017 0.079 0.245 0.204 0.585 0.283 0.343 0.077 0.636 0.077 0.653 0s-0.246-0.204-0.586-0.281c-0.133-0.034-0.288-0.055-0.446-0.059l-0.003-0zM13.52 18.051c-0.26 0-0.476 0.75-0.476 1.675s0.215 1.676 0.477 1.676c0.26 0 0.478-0.75 0.478-1.676s-0.217-1.676-0.479-1.675zM8.345 18.384c-0.050 0.001-0.096 0.018-0.134 0.045l0.001-0c-0.294 0.216 0.040 1.17 0.744 2.13 0.703 0.962 1.514 1.564 1.807 1.35 0.295-0.215-0.035-1.171-0.74-2.13-0.617-0.842-1.315-1.41-1.678-1.395zM21.365 18.906c-0.105-0.094-0.601 0.297-1.105 0.873-0.503 0.575-0.824 1.119-0.718 1.213 0.108 0.093 0.603-0.298 1.107-0.873 0.504-0.576 0.825-1.12 0.716-1.213zM10.351 19.349c-0.113-0.005-0.194 0.019-0.23 0.074-0.144 0.223 0.46 0.875 1.353 1.453 0.89 0.58 1.73 0.872 1.875 0.649s-0.46-0.877-1.35-1.457c-0.667-0.434-1.308-0.704-1.648-0.719zM8.73 20.451c-0.266 0-0.48 0.75-0.48 1.675s0.214 1.676 0.48 1.676 0.482-0.75 0.482-1.676c0-0.925-0.216-1.675-0.482-1.675zM5.086 20.511c-0.072 0.031-0.026 0.313 0.103 0.625 0.132 0.312 0.297 0.539 0.37 0.51 0.074-0.031 0.025-0.312-0.104-0.623-0.13-0.312-0.295-0.54-0.369-0.512zM19.382 20.988c-0.368-0.040-1.127 0.127-1.96 0.453-1.107 0.434-1.929 0.984-1.833 1.228 0.096 0.242 1.074 0.093 2.181-0.342 1.11-0.434 1.932-0.985 1.836-1.23-0.024-0.060-0.102-0.096-0.224-0.109zM4.484 21.017c-0.035-0.005-0.061 0-0.076 0.018-0.062 0.067 0.082 0.298 0.322 0.511 0.24 0.216 0.483 0.333 0.545 0.266 0.060-0.070-0.084-0.298-0.324-0.514-0.18-0.16-0.362-0.267-0.467-0.281zM4.261 21.702c-0.118 0-0.196 0.019-0.205 0.057-0.016 0.080 0.248 0.204 0.588 0.283 0.343 0.077 0.636 0.077 0.653 0s-0.248-0.204-0.588-0.281c-0.133-0.034-0.287-0.055-0.445-0.059l-0.003-0zM5.551 21.749c-0.114-0.005-0.194 0.019-0.231 0.075-0.144 0.223 0.461 0.875 1.353 1.453 0.89 0.58 1.731 0.871 1.875 0.648 0.147-0.223-0.46-0.877-1.35-1.457-0.666-0.433-1.307-0.704-1.647-0.719zM12.179 21.839c-0.865-0.036-1.493 0.081-1.527 0.32-0.046 0.317 0.98 0.73 2.289 0.92 1.311 0.19 2.415 0.087 2.46-0.232 0.046-0.317-0.98-0.73-2.292-0.92-0.265-0.041-0.585-0.073-0.91-0.087l-0.020-0.001z"/>
</svg>