<svg xmlns="http://www.w3.org/2000/svg" version="1.1" width="24" height="24" viewBox="0 0 24 24">
<path d="M23.663 21.572c0.449-0.748 0.449-1.496 0-2.244l-9.72-16.897c-0.447-0.747-1.195-1.048-1.943-1.048s-1.495 0.449-1.943 1.048l-3.141 5.532 0.748 0.449c2.393 1.346 4.336 3.289 5.682 5.682 1.197 2.094 1.944 4.336 2.094 6.73h-2.243c-0.149-1.945-0.748-3.889-1.794-5.684-1.047-2.093-2.692-3.738-4.785-4.935l-0.749-0.447-2.99 5.084 0.747 0.449c1.944 1.195 3.29 3.139 3.589 5.383h-4.935c-0.149 0-0.3-0.15-0.3-0.15s-0.148-0.15 0-0.299l1.348-2.393c-0.449-0.447-1.048-0.748-1.646-0.896l-1.346 2.393c-0.449 0.748-0.449 1.496 0 2.244 0.448 0.746 1.046 1.045 1.943 1.045h6.879v-0.896c0-1.645-0.449-3.141-1.196-4.637-0.599-1.195-1.496-2.093-2.542-2.84l1.047-1.945c1.347 1.046 2.543 2.243 3.439 3.739 1.047 1.793 1.496 3.738 1.496 5.682v0.896h5.831v-0.896c0-2.99-0.747-5.982-2.392-8.673-1.197-2.394-3.141-4.337-5.385-5.833l2.244-3.887c0.151-0.15 0.3-0.15 0.3-0.15 0.15 0 0.15 0 0.299 0.15l9.721 16.896c0.148 0.148 0 0.299 0 0.299s-0.15 0.15-0.3 0.15h-2.243v1.795h2.243c0.896 0.149 1.495-0.15 1.943-0.896z"/>
</svg>