<svg xmlns="http://www.w3.org/2000/svg" version="1.1" width="24" height="24" viewBox="0 0 24 24">
<path d="M5.934 3.801c-1.099 0.11-2.288 0.4-3.038 0.74-1.069 0.499-1.259 0.869-0.909 1.868 0.36 1.040 0.19 2.308-1 7.505-0.878 3.876-1.027 4.686-0.977 5.406 0.040 0.47 0.090 0.63 0.29 0.79 0.22 0.179 0.33 0.189 1.688 0.129 3.408-0.17 4.057-0.22 4.267-0.34 0.24-0.13 0.25-0.2 0.44-1.758 0.32-2.868 1.788-7.155 3.027-8.894 1.060-1.479 2.359-2.128 3.098-1.549 0.78 0.62 0.76 1.559-0.13 4.147-0.68 1.999-0.79 2.428-0.909 3.617-0.15 1.46 0.13 2.489 0.96 3.408 0.849 0.94 2.118 1.409 3.846 1.409 1.64 0 2.968-0.41 4.377-1.339 1.29-0.86 2.828-2.608 3.008-3.428 0.1-0.41-0.070-0.859-0.35-0.969-0.41-0.15-0.65-0.040-1.389 0.63-0.859 0.78-1.249 0.949-2.008 0.889-1.010-0.080-1.45-0.66-1.45-1.919 0-0.899 0.090-1.349 0.65-3.317 0.79-2.728 0.93-3.967 0.58-5.027-0.57-1.768-2.978-2.538-5.646-1.798-1.449 0.41-3.238 1.449-4.597 2.688-0.38 0.34-0.68 0.59-0.68 0.56 0-0.020 0.070-0.35 0.16-0.72 0.34-1.499 0.2-2.248-0.479-2.598-0.39-0.2-1.599-0.26-2.829-0.13z"/>
</svg>