<svg xmlns="http://www.w3.org/2000/svg" version="1.1" width="24" height="24" viewBox="0 0 24 24">
<path d="M8.010 0.138l-8.010 4.542v10.458c-0.015 4.803 3.915 8.71 8.775 8.725 1.604 0.004 3.115-0.418 4.414-1.154l6.487-3.686c2.561-1.306 4.313-3.946 4.323-6.991v-10.936l-1.59-0.916-6.503 3.631v11.373c-0.003 0.482-0.025 0.836-0.153 1.435-0.216 0.915-0.521 1.561-0.574 1.665-0.511-0.030-1.546-0.314-2.386-0.81-0.42-0.24-0.914-0.601-1.364-1.021-0.3-0.285-0.556-0.615-0.78-0.945-0.24-0.345-0.435-0.704-0.585-1.079-0.165-0.391-0.284-0.78-0.375-1.185-0.090-0.421-0.104-0.855-0.104-1.275l0.015-10.918-1.59-0.908zM11.697 21.721c-0.436 0.179-0.889 0.316-1.35 0.41-0.477 0.094-0.916 0.141-1.403 0.141-0.488 0-0.978-0.053-1.452-0.151-0.461-0.092-0.915-0.234-1.35-0.417-0.424-0.179-0.836-0.404-1.219-0.659-0.99-0.691-1.5-1.291-1.941-1.936-0.26-0.39-0.48-0.795-0.66-1.215-0.183-0.435-0.322-0.886-0.416-1.335-0.090-0.465-0.104-0.961-0.104-1.439v-9.54l6-3.621v10.011c0 3.806 2.819 6.979 6.45 7.747-0.135 0.165-0.24 0.331-0.391 0.48-0.33 0.322-0.675 0.624-1.064 0.877-0.375 0.257-0.645 0.465-1.065 0.644zM22.102 13.313c-0.087 0.404-0.211 0.803-0.375 1.186-0.439 0.955-1.148 1.77-1.74 2.294-1.216 1.101-2.725 1.44-2.898 1.44 0.362-0.948 0.608-1.965 0.611-3.039v-10.469l4.504-2.725 0.003 10.009c0 0.431-0.018 0.879-0.105 1.296z"/>
</svg>