<svg xmlns="http://www.w3.org/2000/svg" version="1.1" width="24" height="24" viewBox="0 0 24 24">
<path d="M4.010 0c-2.215 0-4.010 1.795-4.010 4.010v0 15.98c0 2.21 1.8 4 4.010 4.010h15.98c2.21 0 4.010-1.8 4.010-4.010v-15.99c-0.006-2.21-1.799-4-4.010-4 0 0 0 0-0 0v0zM5.63 4.36h12.74c0.7 0 1.26 0.57 1.26 1.27v12.74c0 0.7-0.56 1.27-1.26 1.27h-12.74c-0.7 0-1.26-0.57-1.26-1.27v-12.74c0 0 0-0 0-0 0-0.698 0.563-1.264 1.259-1.27h0.001zM9.46 8.71c-0.403 0-0.73 0.327-0.73 0.73v0 5.090c0 0.4 0.32 0.72 0.72 0.72h5.1c0 0 0 0 0 0 0.4 0 0.724-0.321 0.73-0.719v-5.091c0-0.403-0.327-0.73-0.73-0.73v0z"/>
</svg>