<svg xmlns="http://www.w3.org/2000/svg" version="1.1" width="24" height="24" viewBox="0 0 24 24">
<path d="M13.976 9.15c-2.172-0.806-3.356-1.426-3.356-2.409 0-0.831 0.683-1.305 1.901-1.305 2.227 0 4.515 0.858 6.090 1.631l0.89-5.494c-1.249-0.598-3.804-1.573-7.336-1.573-2.498 0-4.576 0.654-6.061 1.872-1.544 1.275-2.347 3.12-2.347 5.346 0 4.039 2.467 5.76 6.476 7.219 2.585 0.92 3.445 1.574 3.445 2.583 0 0.98-0.84 1.545-2.354 1.545-1.875 0-4.965-0.921-6.99-2.109l-0.9 5.555c1.741 0.979 4.951 1.989 8.28 1.989 2.641 0 4.843-0.624 6.328-1.813 1.664-1.305 2.525-3.236 2.525-5.732 0-4.128-2.524-5.851-6.594-7.305z"/>
</svg>