<svg xmlns="http://www.w3.org/2000/svg" version="1.1" width="24" height="24" viewBox="0 0 24 24">
<path d="M14.156 5.579l-0.194 0.269c-0.24-0.247-0.819-0.509-0.86-0.528l0.155-0.411-0.014-0.010c-0.024-0.016-0.050-0.028-0.078-0.037-0.873-0.329-1.675-0.333-2.768-0.017l0.517 1.381h-0.010c-0.724 0.235-1.264 0.888-1.323 0.961l-0.716-0.511c-0.395 0.522-0.675 1.466-0.675 2.191h-0.913c0.007 0.656 0.126 1.794 0.9 2.738l0.682-0.521c0.623 0.916 1.925 1.581 3.015 1.468l-0.016-1.906h0.014v0.026c0.273 0.080 0.843-0.093 1.092-0.289l0.517 0.692c0.543-0.185 0.964-1.238 1.008-1.351l0.823 0.282c0.22-0.763 0.228-1.572 0.023-2.339l-0.001 0.001v-0.009c0.001 0.002 0.001 0.005 0.001 0.007l0.294-0.107c-0.218-0.825-0.746-1.534-1.473-1.98zM12.168 9.258c-0.341 0.142-0.735 0.063-0.995-0.2-0.261-0.265-0.339-0.66-0.198-1.004 0.142-0.344 0.475-0.568 0.845-0.568 0 0 0 0 0 0h0.001c0 0 0 0 0 0 0.505 0.003 0.913 0.415 0.912 0.92-0.001 0.373-0.224 0.71-0.565 0.852zM22.662 3.692l-10.523-3.649c-0.162-0.057-0.338-0.057-0.499 0l-10.299 3.652c-0.335 0.119-0.543 0.452-0.505 0.805l1.453 13.842c0.025 0.248 0.17 0.469 0.387 0.591l8.961 4.973c0.112 0.061 0.238 0.094 0.366 0.094h0.001c0.131 0 0.26-0.034 0.373-0.099l8.739-4.973c0.209-0.119 0.35-0.333 0.38-0.575l1.67-13.842c0.042-0.359-0.166-0.699-0.504-0.819zM16.764 12.917c0 0-0.127 0.144 0.051 0.445 0.179 0.299 0.23 0.299-0.102 0.612 0.256 0.222 0.256 0.406-0.127 0.58 0.009 0.618 0.134 1.171-0.651 1.218s-1.78-0.482-2.039 0.939c-0.259 1.419-0.192 0.888-0.269 1.244h-5.545c0.69-1.902 1.28-4.001 0-5.032-1.279-1.030-3.373-5.358 0.756-7.575 0.465-0.248 0.961-0.435 1.474-0.554l-0.174-0.464 0.054-0.021c0.017-0.007 1.774-0.684 3.293 0.062l0.050 0.025-0.183 0.416c0.979 0.22 1.709 0.582 1.98 0.751 0.614 0.382 1.429 0.99 1.507 1.566 0.077 0.575-0.664 0.286-0.664 0.286 0.46 1.117 0.485 1.918 0.28 2.768v0.001c-0.204 0.848 0.945 1.725 0.92 2.342-0.075 0.286-0.611 0.391-0.611 0.391z"/>
</svg>