<svg xmlns="http://www.w3.org/2000/svg" version="1.1" width="24" height="24" viewBox="0 0 24 24">
<path d="M12.186 21.63c-0.085-0.169-0.186-0.523-0.254-0.675-0.067-0.135-0.27-0.506-0.37-0.625-0.22-0.253-0.27-0.27-0.338-0.607-0.119-0.574-0.405-1.587-0.76-2.295-0.186-0.372-0.49-0.676-0.76-0.946-0.236-0.236-0.776-0.624-0.877-0.607-0.895 0.169-1.165 1.046-1.586 1.738-0.237 0.388-0.473 0.709-0.659 1.114-0.168 0.371-0.152 0.793-0.439 1.114-0.275 0.305-0.489 0.672-0.618 1.076l-0.006 0.021c-0.034 0.084-0.101 0.928-0.186 1.13l1.317-0.084c1.232 0.085 0.877 0.557 2.785 0.456l3.020-0.101c-0.085-0.28-0.176-0.515-0.283-0.742l0.014 0.033zM20.962 1.546h-17.924c-0.001 0-0.002 0-0.003 0-1.667 0-3.018 1.351-3.018 3.018 0 0.001 0 0.001 0 0.002v-0 6.583c0.439-0.152 1.046-1.080 1.249-1.3 0.337-0.388 0.405-0.894 0.574-1.198 0.388-0.709 0.455-1.215 1.333-1.215 0.405 0 0.574 0.101 0.844 0.473 0.186 0.253 0.523 0.742 0.675 1.063 0.186 0.371 0.473 0.86 0.608 0.962 0.1 0.067 0.185 0.135 0.27 0.169 0.135 0.050 0.253-0.051 0.354-0.119 0.118-0.1 0.169-0.286 0.287-0.556 0.169-0.389 0.338-0.827 0.439-0.996 0.169-0.27 0.236-0.608 0.422-0.76 0.27-0.236 0.641-0.253 0.742-0.27 0.557-0.118 0.81 0.27 1.080 0.507 0.186 0.168 0.422 0.489 0.608 0.91 0.135 0.338 0.304 0.66 0.388 0.845 0.068 0.185 0.237 0.49 0.338 0.86 0.101 0.321 0.337 0.574 0.439 0.743 0 0 0.152 0.405 1.030 0.777 0.212 0.093 0.481 0.191 0.757 0.272l0.053 0.014c0.388 0.135 0.759 0.119 1.231 0.068 0.338 0 0.524-0.49 0.676-0.878 0.084-0.236 0.185-0.894 0.236-1.080 0.050-0.185-0.085-0.32 0.034-0.49 0.135-0.185 0.219-0.202 0.286-0.438 0.17-0.523 1.114-0.54 1.654-0.54 0.456 0 0.389 0.439 1.148 0.287 0.439-0.085 0.86 0.050 1.317 0.185 0.388 0.102 0.76 0.22 0.979 0.473 0.135 0.169 0.489 0.996 0.135 1.030 0.033 0.033 0.067 0.118 0.118 0.151-0.085 0.321-0.422 0.085-0.625 0.051-0.253-0.050-0.439 0-0.692 0.118-0.439 0.186-1.063 0.169-1.451 0.49-0.32 0.27-0.32 0.86-0.473 1.198 0 0-0.422 1.063-1.316 1.721-0.237 0.17-0.692 0.574-1.671 0.726-0.439 0.068-0.86 0.068-1.317 0.050-0.219-0.016-0.438-0.016-0.658-0.016-0.135 0-0.574-0.017-0.557 0.034l-0.050 0.118c0.003 0.061 0.015 0.119 0.034 0.173l-0.001-0.004c0.017 0.1 0.017 0.185 0.034 0.27 0 0.185-0.017 0.388 0 0.574 0.017 0.388 0.169 0.742 0.186 1.147 0.017 0.439 0.236 0.912 0.455 1.266 0.085 0.135 0.203 0.152 0.254 0.32 0.067 0.186 0 0.406 0.033 0.608 0.118 0.794 0.355 1.637 0.71 2.363v0.017c0.438-0.067 0.894-0.236 1.468-0.32 1.063-0.153 2.531-0.085 3.476-0.17 2.397-0.219 3.697 0.98 5.84 0.49v-17.755c-0.012-1.669-1.367-3.018-3.038-3.021h-0zM12.017 15.723c0-0.034 0-0.034 0 0zM5.553 18.49c0.169-0.371 0.27-0.777 0.405-1.148 0.135-0.354 0.337-0.86 0.692-1.046-0.050-0.050-0.743-0.068-0.928-0.085-0.203-0.017-0.406-0.050-0.608-0.084-0.532-0.094-0.92-0.176-1.304-0.267l0.156 0.031c-0.22-0.051-0.979-0.321-1.13-0.389-0.389-0.168-0.642-0.658-0.929-0.607-0.185 0.034-0.371 0.101-0.49 0.287-0.1 0.152-0.134 0.422-0.202 0.607-0.084 0.203-0.22 0.405-0.32 0.608-0.237 0.354-0.625 0.675-0.794 1.030-0.033 0.084-0.050 0.168-0.084 0.253v4.067c0.202 0.034 0.405 0.068 0.624 0.135 1.688 0.456 2.093 0.49 3.747 0.304l0.152-0.017c0.118-0.27 0.22-1.164 0.304-1.434 0.067-0.22 0.152-0.389 0.186-0.591 0.033-0.203 0-0.405-0.017-0.59-0.034-0.49 0.354-0.66 0.54-1.064z"/>
</svg>