<svg xmlns="http://www.w3.org/2000/svg" version="1.1" width="24" height="24" viewBox="0 0 24 24">
<path d="M1.961 13.532c-0.303 0-0.575-0.052-0.818-0.157s-0.448-0.25-0.616-0.437-0.298-0.408-0.389-0.664c-0.092-0.256-0.138-0.533-0.138-0.832s0.046-0.576 0.137-0.832 0.221-0.477 0.389-0.664c0.169-0.187 0.374-0.333 0.617-0.438s0.516-0.157 0.818-0.157c0.303 0 0.575 0.052 0.818 0.157s0.448 0.25 0.616 0.437 0.298 0.408 0.389 0.664 0.137 0.533 0.137 0.832-0.046 0.576-0.137 0.832c-0.092 0.256-0.221 0.477-0.389 0.664s-0.374 0.333-0.616 0.437c-0.243 0.105-0.515 0.158-0.818 0.158zM1.961 13.089c0.235 0 0.443-0.042 0.622-0.126s0.331-0.199 0.454-0.345 0.216-0.319 0.277-0.521c0.062-0.202 0.092-0.42 0.092-0.656s-0.031-0.454-0.092-0.656c-0.062-0.202-0.154-0.376-0.277-0.524s-0.275-0.263-0.454-0.347-0.386-0.125-0.622-0.125c-0.235 0-0.443 0.042-0.622 0.126s-0.331 0.2-0.454 0.347c-0.123 0.148-0.216 0.322-0.277 0.524s-0.092 0.42-0.092 0.656c0 0.235 0.031 0.454 0.092 0.656 0.062 0.202 0.154 0.375 0.277 0.521s0.275 0.261 0.454 0.345c0.18 0.083 0.387 0.125 0.622 0.125zM4.455 10.551h0.454v0.409h0.011c0.108-0.149 0.237-0.266 0.387-0.35 0.149-0.084 0.331-0.126 0.544-0.126 0.183 0 0.351 0.035 0.504 0.104s0.284 0.168 0.392 0.297 0.193 0.289 0.255 0.479c0.062 0.191 0.092 0.405 0.092 0.644 0 0.232-0.029 0.442-0.087 0.63-0.058 0.189-0.141 0.349-0.249 0.482s-0.241 0.234-0.398 0.305-0.333 0.106-0.527 0.106c-0.198 0-0.37-0.032-0.516-0.095s-0.278-0.174-0.398-0.331h-0.010v1.557h-0.454zM5.8 13.151c0.138 0 0.26-0.029 0.364-0.087s0.191-0.137 0.261-0.238c0.069-0.101 0.12-0.22 0.154-0.359s0.050-0.289 0.050-0.454c0-0.161-0.017-0.311-0.050-0.451-0.034-0.14-0.085-0.261-0.154-0.364s-0.155-0.183-0.258-0.241-0.223-0.087-0.361-0.087c-0.157 0-0.294 0.030-0.412 0.090s-0.214 0.142-0.289 0.247-0.131 0.226-0.168 0.364-0.056 0.286-0.056 0.443 0.017 0.305 0.050 0.443c0.034 0.138 0.087 0.259 0.16 0.361 0.073 0.103 0.167 0.184 0.283 0.244 0.116 0.059 0.258 0.089 0.426 0.089zM8.837 13.526c-0.22 0-0.417-0.040-0.591-0.12s-0.32-0.19-0.44-0.328-0.211-0.3-0.275-0.485-0.095-0.382-0.095-0.591 0.033-0.406 0.098-0.591 0.159-0.346 0.28-0.485c0.121-0.138 0.266-0.247 0.434-0.328 0.168-0.080 0.355-0.12 0.56-0.12 0.217 0 0.408 0.040 0.574 0.12s0.305 0.192 0.417 0.336 0.197 0.316 0.255 0.516 0.087 0.419 0.087 0.658h-2.24c0.007 0.146 0.034 0.282 0.078 0.409 0.045 0.127 0.106 0.237 0.185 0.331 0.078 0.093 0.174 0.166 0.286 0.219s0.241 0.078 0.387 0.078c0.213 0 0.387-0.049 0.521-0.148s0.228-0.247 0.28-0.445h0.443c-0.067 0.314-0.209 0.555-0.426 0.723-0.217 0.167-0.49 0.251-0.818 0.251zM8.809 10.837c-0.134 0-0.254 0.023-0.359 0.070s-0.193 0.112-0.266 0.196-0.133 0.183-0.179 0.297c-0.047 0.114-0.078 0.236-0.092 0.367h1.743c-0.015-0.291-0.094-0.519-0.238-0.684-0.145-0.164-0.348-0.246-0.609-0.246zM11.12 10.932h0.011c0.105-0.138 0.231-0.247 0.378-0.328 0.148-0.080 0.328-0.12 0.541-0.12 0.303 0 0.541 0.079 0.714 0.238 0.174 0.159 0.261 0.389 0.261 0.692v2.034h-0.454v-1.995c0-0.191-0.058-0.336-0.174-0.437s-0.276-0.151-0.482-0.151c-0.116 0-0.222 0.020-0.319 0.059s-0.181 0.093-0.252 0.163c-0.071 0.069-0.126 0.153-0.165 0.252s-0.059 0.208-0.059 0.328v1.782h-0.454v-2.897h0.454zM15.409 13.53c-0.549 0-0.972-0.116-1.271-0.347s-0.456-0.561-0.47-0.989h0.8c0.030 0.244 0.116 0.418 0.259 0.521s0.359 0.155 0.648 0.155c0.105 0 0.205-0.009 0.299-0.028s0.177-0.049 0.248-0.090 0.129-0.095 0.172-0.161 0.065-0.146 0.065-0.24c0-0.098-0.024-0.178-0.070-0.242s-0.114-0.117-0.2-0.161c-0.086-0.043-0.191-0.081-0.313-0.113s-0.26-0.065-0.414-0.099c-0.18-0.041-0.354-0.087-0.521-0.138s-0.314-0.119-0.44-0.206c-0.126-0.086-0.227-0.197-0.304-0.332s-0.116-0.308-0.116-0.518c0-0.199 0.038-0.374 0.116-0.524 0.077-0.15 0.184-0.276 0.321-0.378 0.137-0.101 0.3-0.178 0.487-0.228 0.188-0.051 0.394-0.076 0.62-0.076 0.454 0 0.82 0.107 1.096 0.321s0.429 0.526 0.459 0.935h-0.783c-0.023-0.203-0.105-0.355-0.248-0.456s-0.319-0.152-0.53-0.152c-0.222 0-0.398 0.043-0.53 0.13-0.132 0.086-0.197 0.201-0.197 0.344 0 0.083 0.018 0.151 0.054 0.206s0.090 0.102 0.163 0.144c0.073 0.041 0.164 0.077 0.273 0.107s0.238 0.062 0.389 0.096c0.207 0.045 0.401 0.095 0.583 0.149 0.182 0.055 0.342 0.127 0.479 0.217s0.245 0.205 0.324 0.344 0.118 0.318 0.118 0.535c0 0.203-0.039 0.384-0.118 0.544s-0.188 0.293-0.327 0.4-0.304 0.189-0.496 0.245c-0.191 0.056-0.399 0.085-0.625 0.085zM19.168 13.53c-0.549 0-0.972-0.116-1.271-0.347s-0.456-0.561-0.47-0.989h0.8c0.030 0.244 0.116 0.418 0.259 0.521s0.359 0.155 0.648 0.155c0.105 0 0.205-0.009 0.299-0.028s0.177-0.049 0.248-0.090 0.129-0.095 0.172-0.161 0.065-0.146 0.065-0.24c0-0.098-0.024-0.178-0.070-0.242s-0.114-0.117-0.2-0.161c-0.086-0.043-0.191-0.081-0.313-0.113s-0.26-0.065-0.414-0.099c-0.18-0.041-0.354-0.087-0.521-0.138s-0.314-0.119-0.44-0.206c-0.126-0.086-0.227-0.197-0.304-0.332s-0.116-0.308-0.116-0.518c0-0.199 0.038-0.374 0.116-0.524 0.077-0.15 0.184-0.276 0.321-0.378 0.137-0.101 0.3-0.178 0.487-0.228 0.188-0.051 0.394-0.076 0.62-0.076 0.454 0 0.82 0.107 1.096 0.321s0.429 0.526 0.459 0.935h-0.783c-0.023-0.203-0.105-0.355-0.248-0.456s-0.319-0.152-0.53-0.152c-0.222 0-0.398 0.043-0.53 0.13-0.132 0.086-0.197 0.201-0.197 0.344 0 0.083 0.018 0.151 0.054 0.206s0.090 0.102 0.163 0.144c0.073 0.041 0.164 0.077 0.273 0.107s0.238 0.062 0.389 0.096c0.207 0.045 0.401 0.095 0.583 0.149 0.182 0.055 0.342 0.127 0.479 0.217s0.245 0.205 0.324 0.344 0.118 0.318 0.118 0.535c0 0.203-0.039 0.384-0.118 0.544s-0.188 0.293-0.327 0.4-0.304 0.189-0.496 0.245c-0.191 0.056-0.4 0.085-0.625 0.085zM21.29 9.41h0.817v3.347h1.893v0.682h-2.71z"/>
</svg>