<svg xmlns="http://www.w3.org/2000/svg" version="1.1" width="24" height="24" viewBox="0 0 24 24">
<path d="M2.391 13.861c0.089 0.195 0.204 0.37 0.341 0.524-0.27 0.148-0.592 0.235-0.935 0.235-0.010 0-0.020-0-0.030-0l0.002 0c-1.025 0-1.769-0.676-1.769-1.754 0-1.086 0.782-1.762 1.769-1.762 0.351 0 0.628 0.076 0.908 0.225-0.131 0.16-0.238 0.342-0.32 0.541-0.152-0.062-0.328-0.098-0.512-0.098-0.003 0-0.005 0-0.008 0h0c-0.607 0-1.078 0.388-1.078 1.094 0 0.668 0.456 1.094 1.109 1.094 0.187 0 0.36-0.034 0.523-0.099zM4.453 11.104c1.010 0 1.739 0.714 1.739 1.762 0 1.040-0.729 1.754-1.739 1.754-1.002 0-1.731-0.714-1.731-1.754 0-1.048 0.729-1.762 1.731-1.762zM4.453 11.749c-0.562 0-0.972 0.433-0.972 1.117 0 0.676 0.41 1.109 0.972 1.109 0.577 0 0.98-0.433 0.98-1.109 0-0.684-0.403-1.117-0.98-1.117zM6.67 14.544v-3.364h0.751v3.364zM6.571 10.147c0.017-0.247 0.221-0.441 0.471-0.441s0.454 0.194 0.471 0.44l0 0.001c-0.001 0.261-0.21 0.473-0.471 0.478h-0c-0.261-0.005-0.47-0.217-0.471-0.478v-0zM8.077 11.393c0.457-0.178 0.986-0.283 1.539-0.289l0.002-0c0.858 0 1.405 0.326 1.405 1.276v2.164h-0.744v-2.096c0-0.486-0.304-0.661-0.721-0.661-0.006-0-0.013-0-0.020-0-0.253 0-0.497 0.036-0.728 0.104l0.018-0.005v2.658h-0.752zM11.652 9.38h0.752v1.891c0.159-0.084 0.471-0.167 0.766-0.167 0.972 0 1.701 0.623 1.701 1.701 0 1.086-0.721 1.815-1.966 1.815-0.486 0-0.911-0.098-1.253-0.22zM12.404 13.907c0.144 0.045 0.334 0.068 0.524 0.068 0.69 0 1.184-0.38 1.184-1.155 0-0.653-0.463-1.040-1.032-1.040-0.007-0-0.016-0-0.025-0-0.238 0-0.462 0.059-0.659 0.163l0.008-0.004zM17.042 12.289c0-0.365-0.273-0.532-0.645-0.532-0.359 0.002-0.695 0.103-0.98 0.278l0.008-0.005v-0.653c0.31-0.172 0.679-0.273 1.072-0.273 0.007 0 0.015 0 0.022 0h-0.001c0.737 0 1.26 0.304 1.26 1.147v2.225c-0.346 0.086-0.743 0.136-1.152 0.137h-0.001c-0.873 0-1.511-0.266-1.511-1.026 0-0.683 0.584-1.017 1.556-1.017h0.372zM17.042 13.071h-0.319c-0.524 0-0.865 0.152-0.865 0.494 0 0.349 0.319 0.486 0.774 0.486 0.114 0 0.274-0.016 0.41-0.038zM18.325 13.633c0.311 0.235 0.683 0.38 1.025 0.38 0.334 0 0.554-0.114 0.554-0.38 0-0.274-0.197-0.372-0.63-0.486-0.698-0.16-0.995-0.441-0.995-1.025 0-0.684 0.517-1.018 1.2-1.018 0.38 0 0.683 0.083 0.964 0.258v0.691c-0.296-0.212-0.584-0.342-0.941-0.342-0.327 0-0.501 0.16-0.501 0.38s0.144 0.334 0.531 0.441c0.767 0.167 1.101 0.455 1.101 1.063 0 0.706-0.539 1.025-1.268 1.025-0.395 0-0.789-0.106-1.040-0.273zM21.662 13.033v0.015c0.045 0.6 0.562 0.927 1.085 0.927 0.463 0 0.798-0.107 1.131-0.327v0.661c-0.303 0.213-0.751 0.311-1.184 0.311-1.047 0-1.761-0.668-1.761-1.731 0-1.071 0.698-1.785 1.625-1.785 0.979 0 1.442 0.63 1.442 1.549v0.38zM23.294 12.547c-0.015-0.524-0.273-0.813-0.759-0.813-0.433 0-0.752 0.304-0.85 0.813z"/>
</svg>