<svg xmlns="http://www.w3.org/2000/svg" version="1.1" width="24" height="24" viewBox="0 0 24 24">
<path d="M19.736 19.056c0 0 0.103-0.073 0.267-0.198 2.457-1.9 3.997-4.655 3.997-7.719 0-5.715-5.373-10.352-11.997-10.352-6.626 0-12.003 4.637-12.003 10.352 0 5.717 5.371 10.356 11.998 10.356 0.847 0 1.694-0.073 2.524-0.228l0.262-0.045c1.683 1.092 4.139 1.99 6.288 1.99 0.665 0 0.978-0.546 0.552-1.104-0.648-0.795-1.541-2.068-1.888-3.052zM18.274 14.53c-0.716 1.069-2.934 2.889-6.254 2.889h-0.046c-3.328 0-5.543-1.831-6.254-2.889-0.139-0.156-0.236-0.351-0.272-0.567l-0.001-0.007c-0.001-0.011-0.001-0.024-0.001-0.038 0-0.256 0.196-0.466 0.447-0.488l0.002-0c0.008-0.003 0.014-0.003 0.021-0.003 0.117 0.006 0.23 0.043 0.328 0.111 1.555 1.276 3.564 2.051 5.753 2.056h0.001c0.030 0 0.065 0.001 0.101 0.001 2.161 0 4.14-0.779 5.672-2.070l-0.013 0.011c0.082-0.076 0.192-0.122 0.312-0.122 0 0 0 0 0.001 0h-0c0.267 0 0.478 0.213 0.483 0.475-0.032 0.246-0.128 0.465-0.27 0.646l0.002-0.003z"/>
</svg>