<svg xmlns="http://www.w3.org/2000/svg" version="1.1" width="24" height="24" viewBox="0 0 24 24">
<path d="M22.717 8.417c-0.014 2.959-2.412 5.321-5.391 5.309-2.946-0.014-5.306-2.424-5.291-5.407 0.014-2.9 2.458-5.287 5.391-5.265 2.926 0.022 5.304 2.434 5.291 5.363zM9.813 24c-2.357 0.008-4.337-1.965-4.361-4.344-0.024-2.33 1.955-4.33 4.295-4.34 2.438-0.010 4.395 1.916 4.395 4.326 0.003 2.383-1.952 4.35-4.329 4.358zM8.923 2.84c0 1.562-1.286 2.847-2.841 2.839-1.549-0.007-2.861-1.329-2.836-2.859 0.025-1.552 1.342-2.842 2.88-2.82 1.531 0.023 2.797 1.308 2.797 2.84zM21.9 11.948c-2.697 2.356-5 2.779-7.42 1.36-2.14-1.254-3.196-3.721-2.654-6.197 0.587-2.68 2.506-4.085 6.197-4.467-2.801-2.002-5.763-2.619-9.015-1.823-0.421 0.102-0.241 0.261-0.126 0.473 0.786 1.447 0.383 3.207-0.942 4.151s-3.126 0.755-4.218-0.49c-0.322-0.367-0.427-0.269-0.654 0.063-2.508 3.673-2.363 8.679 0.372 12.185 0.492 0.631 1.027 1.219 1.691 1.71 0.75-3.208 3.394-4.251 5.519-3.888 2.593 0.442 4.002 2.602 3.758 5.787 3.516-0.43 7.927-5.65 7.492-8.864zM12.812 2.095c0.462-0.023 0.87 0.365 0.881 0.835 0.009 0.456-0.347 0.827-0.807 0.843-0.506 0.017-0.862-0.32-0.866-0.818-0.005-0.476 0.328-0.837 0.792-0.86zM5.076 6.629c0.48 0.009 0.853 0.401 0.832 0.876-0.019 0.452-0.398 0.804-0.859 0.798-0.46-0.006-0.821-0.366-0.828-0.827-0.007-0.483 0.369-0.855 0.855-0.847zM4.355 9.728c0.003-0.451 0.374-0.824 0.829-0.835 0.461-0.011 0.825 0.335 0.844 0.803 0.020 0.489-0.337 0.878-0.813 0.887-0.473 0.007-0.863-0.381-0.86-0.855zM4.87 12.099c0.023-0.46 0.396-0.806 0.858-0.797 0.479 0.010 0.822 0.391 0.802 0.891-0.019 0.468-0.384 0.813-0.846 0.797-0.478-0.014-0.838-0.409-0.814-0.891zM6.862 15.133c-0.5 0.007-0.857-0.345-0.851-0.838 0.006-0.46 0.371-0.832 0.818-0.836 0.47-0.004 0.873 0.391 0.869 0.853-0.002 0.452-0.371 0.813-0.836 0.821zM10.693 3.023c-0.469 0.012-0.868-0.38-0.866-0.849 0.002-0.481 0.384-0.84 0.876-0.826 0.462 0.013 0.814 0.376 0.813 0.837-0.001 0.449-0.372 0.827-0.823 0.838zM15.701 18.145c-0.494-0.004-0.856-0.375-0.838-0.858 0.018-0.446 0.402-0.81 0.855-0.808 0.479 0.004 0.85 0.393 0.833 0.875-0.015 0.462-0.37 0.792-0.85 0.791zM17.235 16.375c-0.482 0.011-0.872-0.367-0.866-0.84 0.005-0.462 0.363-0.822 0.825-0.833 0.485-0.011 0.864 0.356 0.863 0.841 0.001 0.455-0.362 0.821-0.822 0.832z"/>
</svg>