<svg xmlns="http://www.w3.org/2000/svg" version="1.1" width="24" height="24" viewBox="0 0 24 24">
<path d="M21.715 13.643h-4.989c-0.003-0-0.007-0-0.011-0-0.326 0-0.596 0.239-0.643 0.551l-0 0.004c-0.295 2.004-2 3.526-4.061 3.531h-0.001l1.35 6.172c4.872-0.653 8.642-4.608 9.005-9.511l0.002-0.034c0.002-0.019 0.003-0.040 0.003-0.062 0-0.36-0.291-0.651-0.651-0.651-0.001 0-0.002 0-0.003 0h0zM13.082 13.485l7.2-6.171c0.14-0.119 0.228-0.295 0.228-0.492s-0.088-0.373-0.227-0.491l-0.001-0.001-7.201-6.17c-0.113-0.099-0.262-0.159-0.425-0.159-0.356 0-0.645 0.287-0.648 0.642v12.343c0 0.001-0 0.003-0 0.004 0 0.36 0.291 0.651 0.651 0.651 0.162 0 0.31-0.059 0.424-0.157l-0.001 0.001zM1.727 14.99c0.702 5.11 5.038 9.006 10.285 9.010h0v-6.27c-0.002 0-0.005 0-0.007 0-2.258 0-4.090-1.829-4.093-4.087v-0zM1.631 13.543v0.1h6.28c0.003-2.258 1.835-4.087 4.093-4.087 0.002 0 0.004 0 0.005 0h-0l-1.348-6.17c-5.079 0.68-8.965 4.955-9.030 10.15l-0 0.007z"/>
</svg>