<svg xmlns="http://www.w3.org/2000/svg" version="1.1" width="24" height="24" viewBox="0 0 24 24">
<path d="M2.49 5.114l8.299-4.79c0.739-0.427 1.647-0.432 2.391-0.017l0.030 0.017 8.299 4.79c0.74 0.427 1.2 1.212 1.211 2.065v9.611c0 0.854-0.451 1.644-1.184 2.080l-0.027 0.016-8.299 4.79c-0.739 0.427-1.647 0.432-2.391 0.017l-0.030-0.017-8.299-4.79c-0.74-0.427-1.199-1.213-1.21-2.065v-9.611c0-0.854 0.45-1.644 1.184-2.080l0.026-0.016 8.299-4.79zM12 4.026l-6.908 3.987v7.974l6.908 3.987v-7.974l6.908-3.987z"/>
</svg>