<svg xmlns="http://www.w3.org/2000/svg" version="1.1" width="24" height="24" viewBox="0 0 24 24">
<path d="M19.31 23.957h-3.6c-0.042 0.005-0.090 0.008-0.139 0.008-0.53 0-0.984-0.327-1.17-0.791l-0.003-0.008c-1.332-2.665-2.78-5.288-3.987-8.046-0.894-1.881-1.415-4.088-1.415-6.416 0-2.983 0.857-5.767 2.337-8.117l-0.037 0.063c0.166-0.281 0.52-0.625 0.791-0.625s0.593 0.375 0.74 0.666q5.444 10.89 10.898 21.788c0.542 1.041 0.292 1.468-0.905 1.479zM4.737 23.957h-3.697c-1.041 0-1.27-0.417-0.812-1.333q2.8-5.538 5.549-11.055c0.5-1.041 0.895-1.041 1.592-0.177 1.828 2.124 2.941 4.908 2.941 7.952 0 1.145-0.157 2.253-0.452 3.304l0.021-0.086c-0.344 1.322-0.532 1.405-1.864 1.405z"/>
</svg>