<svg xmlns="http://www.w3.org/2000/svg" version="1.1" width="24" height="24" viewBox="0 0 24 24">
<path d="M0 7.97v4.96c0 1.87 1.3 3.1 3 3.1 0.83 0 1.56-0.32 2.090-0.87v0.74h1.18v-7.93h-1.19v4.89c0 1.26-0.85 2.11-1.94 2.11-1.11 0-1.95-0.83-1.95-2.11v-4.89h-1.19zM7.44 7.97v7.93h1.13v-0.73c0.523 0.531 1.249 0.86 2.053 0.86 0.003 0 0.005 0 0.008 0h-0c0.009 0 0.020 0 0.030 0 1.657 0 3-1.343 3-3 0-0.011-0-0.021-0-0.032l0 0.002c0-0 0-0 0-0 0-1.657-1.343-3-3-3-0.011 0-0.021 0-0.032 0l0.002-0c-0.002 0-0.004 0-0.006 0-0.801 0-1.525 0.329-2.044 0.859l-0 0v-2.89h-1.14zM17.31 10c-1.69 0-2.97 1.38-2.97 3 0 1.73 1.34 3 3.070 3 1.060 0 1.92-0.44 2.49-1.21l-0.82-0.62c-0.43 0.58-1 0.83-1.67 0.83-0.97 0-1.75-0.68-1.91-1.62h4.7v-0.38c0-1.71-1.23-3-2.89-3zM23.6 10.080c-0.63 0-1.1 0.29-1.38 0.75v-0.71h-1.13v5.78h1.14v-3.29c0-0.89 0.55-1.47 1.3-1.47h0.47v-1.070h-0.4zM17.29 11c0.85 0 1.56 0.59 1.75 1.47h-3.54c0.23-0.88 0.94-1.47 1.79-1.47zM10.55 11c1.090 0 1.98 0.9 1.98 2 0 1.13-0.89 2-1.98 2-1.1-0.006-1.99-0.899-1.99-2 0 0 0-0 0-0v0c0 0 0-0 0-0 0-1.101 0.89-1.994 1.989-2h0.001z"/>
</svg>