<svg xmlns="http://www.w3.org/2000/svg" version="1.1" width="24" height="24" viewBox="0 0 24 24">
<path d="M2.18 18.212c1.805-1.162 3.928-3.162 3.122-5.51-0.437-1.282-1.046-2.379-1.127-3.762-0.010-0.152-0.015-0.33-0.015-0.509 0-1.060 0.194-2.074 0.55-3.010l-0.019 0.058c1.62-4.34 6.436-6.397 10.791-5.091 4.030 1.216 6.808 5.893 5.119 9.973-0.965 2.356-1.395 4.173 0.755 6.006 0.582 0.496 2 1.24 1.992 2.123 0 1.163-2.27-0.244-2.522-0.445 0.286 0.503 3.138 3.487 1.325 3.688-1.67 0.194-3.147-2.139-4.15-3.142-1.686-1.682-1.395 2.042-1.403 2.81 0 1.212-0.868 3.676-2.41 2.072-1.27-1.321-0.775-3.433-1.674-4.905-0.968-1.612-2.58 1.612-2.983 2.2-0.45 0.66-2.713 3.844-3.596 2.147-0.725-1.38 0.434-3.538 1.007-4.785-0.209 0.453-1.685 1.123-2.115 1.34-0.799 0.449-1.754 0.713-2.77 0.713-0.101 0-0.201-0.003-0.3-0.008l0.014 0.001c-2.267-0.163-0.527-1.368 0.387-1.96z"/>
</svg>