<svg xmlns="http://www.w3.org/2000/svg" version="1.1" width="24" height="24" viewBox="0 0 24 24">
<path d="M11.503 12.216c-0.119 0.259-0.251 0.549-0.387 0.858-0.482 1.092-1.016 2.42-1.21 3.271-0.071 0.314-0.112 0.674-0.112 1.044 0 0.018 0 0.037 0 0.055l-0-0.003c0 0.164 0.009 0.337 0.022 0.514 0.682 0.25 1.417 0.388 2.186 0.39 0.716-0.002 1.404-0.121 2.046-0.339l-0.045 0.013c-0.151-0.136-0.287-0.28-0.412-0.434l-0.006-0.007c-0.854-1.089-1.329-2.682-2.082-5.362zM8.355 6.813c-1.639 1.162-2.696 3.051-2.698 5.187v0c0.002 2.104 1.029 3.968 2.607 5.121l0.018 0.013c0.39-1.622 1.366-3.107 2.83-6.084-0.087-0.239-0.186-0.5-0.297-0.775-0.406-1.018-0.991-2.198-1.513-2.733-0.274-0.28-0.585-0.522-0.926-0.718l-0.021-0.011zM17.527 19.277c-0.84-0.105-1.533-0.232-2.141-0.446-0.987 0.5-2.152 0.793-3.385 0.793-4.211 0-7.624-3.413-7.625-7.623v-0c0-0.002 0-0.004 0-0.006 0-2.279 1.003-4.323 2.591-5.716l0.009-0.007c-0.397-0.102-0.854-0.161-1.323-0.162h-0.001c-2.236 0.020-4.597 1.258-5.58 4.602-0.092 0.486-0.070 0.854-0.070 1.29 0 6.627 5.373 12 12 12 4.059 0 7.643-2.017 9.815-5.101-1.174 0.293-2.305 0.433-3.271 0.436-0.362 0-0.702-0.020-1.019-0.058zM15.273 16.952c0.074 0.036 0.242 0.097 0.475 0.163 1.581-1.167 2.596-3.022 2.6-5.114v-0.001h-0.002c-0.005-3.502-2.843-6.34-6.345-6.345h-0c-0.713 0.001-1.398 0.12-2.037 0.337l0.045-0.013c1.289 1.468 1.908 3.566 2.507 5.862l0.001 0.003c0.001 0.002 0.192 0.637 0.518 1.48 0.326 0.842 0.789 1.885 1.293 2.645 0.332 0.51 0.697 0.876 0.945 0.983zM12.001 0c-0.002 0-0.004 0-0.006 0-4.002 0-7.546 1.963-9.722 4.978l-0.024 0.035c1.134-0.71 2.291-0.967 3.301-0.957 1.394 0.004 2.491 0.436 3.017 0.732 0.127 0.073 0.248 0.152 0.366 0.233 0.903-0.407 1.957-0.644 3.067-0.644 4.21 0 7.624 3.413 7.625 7.623v0c0 0.002 0 0.005 0 0.007 0 2.12-0.868 4.038-2.267 5.417l-0.001 0.001c0.344 0.038 0.709 0.063 1.084 0.061 1.328 0 2.766-0.293 3.842-1.198 0.703-0.592 1.291-1.458 1.617-2.757 0.065-0.502 0.1-1.012 0.1-1.531 0-6.627-5.371-12-11.999-12z"/>
</svg>