<svg xmlns="http://www.w3.org/2000/svg" version="1.1" width="24" height="24" viewBox="0 0 24 24">
<path d="M7.15 15.24h-2.79c-0.221 0-0.4 0.179-0.4 0.4v0 2c0 0.21 0.18 0.4 0.4 0.4h2.8v1.32h-3.5c-0.56 0-1.020-0.46-1.020-1.030v-3.39c0-0.56 0.46-1.020 1.030-1.020h3.48zM8.16 11.54c0 0.58-0.47 1.050-1.050 1.050h-4.48v-1.35h3.78c0.221 0 0.4-0.179 0.4-0.4v0-4.45c0-0.221-0.179-0.4-0.4-0.4v0h-2.020c-0.003-0-0.006-0-0.010-0-0.221 0-0.4 0.179-0.4 0.4 0 0 0 0 0 0v0 2.020c0 0.23 0.18 0.4 0.4 0.4h1.62v1.35h-2.32c-0.58 0-1.050-0.46-1.050-1.040v-3.44c0-0.57 0.47-1.040 1.050-1.040h3.42c0.58 0 1.050 0.47 1.050 1.040zM21.36 19.36h-1.32v-4.12h-0.93c-0.221 0-0.4 0.179-0.4 0.4v3.72h-1.33v-4.12h-0.93c-0.221 0-0.4 0.179-0.4 0.4v3.72h-1.33v-4.42c0-0.56 0.46-1.020 1.030-1.020h5.61zM21.37 11.54c0 0.58-0.47 1.050-1.050 1.050h-4.48v-1.35h3.78c0.221 0 0.4-0.179 0.4-0.4v0-4.45c0-0.221-0.179-0.4-0.4-0.4v0h-2.030c-0.221 0-0.4 0.179-0.4 0.4v0 2.020c0 0.23 0.18 0.4 0.4 0.4h1.62v1.35h-2.31c-0.58 0-1.050-0.46-1.050-1.040v-3.44c0-0.57 0.47-1.040 1.050-1.040h3.43c0.58 0 1.050 0.47 1.050 1.040zM13.72 4.64h-3.44c-0.58 0-1.040 0.47-1.040 1.040v3.44c0 0.58 0.46 1.040 1.040 1.040h3.44c0.57 0 1.040-0.46 1.040-1.040v-3.44c0-0.57-0.47-1.040-1.040-1.040zM13.42 6.39v2.020c0 0.221-0.179 0.4-0.4 0.4v0h-2.030c-0.221 0-0.4-0.179-0.4-0.4v0-2.010c0-0.22 0.17-0.4 0.4-0.4h2.010c0.23 0 0.4 0.18 0.42 0.39zM12.63 13.92h-3.39c-0.57 0-1.030 0.46-1.030 1.020v3.39c0 0.57 0.46 1.030 1.030 1.030h3.39c0.57 0 1.030-0.46 1.030-1.030v-3.39c0-0.56-0.46-1.020-1.030-1.020zM12.33 15.64v2c0 0.221-0.179 0.4-0.4 0.4v0-0.010h-1.99c-0.221 0-0.4-0.179-0.4-0.4v0-1.99c0-0.22 0.18-0.4 0.4-0.4h2c0.22 0 0.4 0.18 0.39 0.4zM23.49 1.1c-0.316-0.321-0.755-0.52-1.24-0.52h-20.5c-0.003-0-0.006-0-0.010-0-0.961 0-1.74 0.779-1.74 1.74 0 0.004 0 0.007 0 0.011v-0.001 19.34c-0 0.003-0 0.006-0 0.010 0 0.961 0.779 1.74 1.74 1.74 0.004 0 0.007 0 0.011-0h20.499c0.003 0 0.006 0 0.010 0 0.961 0 1.74-0.779 1.74-1.74 0-0.004 0-0.007-0-0.011v0.001-19.34c0-0.48-0.2-0.92-0.51-1.24zM23.49 21.67c0 0.003 0 0.007 0 0.010 0 0.679-0.551 1.23-1.23 1.23-0.004 0-0.007-0-0.011-0h-20.499c-0.006 0-0.013 0-0.020 0-0.679 0-1.23-0.551-1.23-1.23 0-0.004 0-0.007 0-0.011v0.001-19.34c-0-0.003-0-0.007-0-0.010 0-0.679 0.551-1.23 1.23-1.23 0.004 0 0.007 0 0.011 0h20.499c0.685 0 1.24 0.555 1.24 1.24v0z"/>
</svg>