<svg xmlns="http://www.w3.org/2000/svg" version="1.1" width="24" height="24" viewBox="0 0 24 24">
<path d="M4.839 10.145v0.57h0.034c1.021-0.615 2.070-0.666 2.7-0.666 1.695 0 2.28 0.479 2.49 0.66 0.39-0.225 1.229-0.676 2.685-0.676 2.896 0 2.896 1.141 2.896 1.59v2.7h-2.324v-2.384c0-0.494 0-1.045-1.24-1.045-0.612 0-1.242 0.187-1.463 0.46-0.206 0.234-0.291 0.446-0.291 0.964v2.021h-2.325v-2.303c0-0.711 0.015-1.14-1.206-1.14-0.615 0-1.242 0.162-1.48 0.405-0.186 0.185-0.307 0.379-0.307 0.996v2.040h-2.338v-4.2h2.16zM21.27 11.074h-1.69v1.68c0 0.593 0 0.786 0.691 0.786 0.328 0 0.618-0.037 0.929-0.096l0.070-0.009 0.22 0.854c-0.817 0.15-1.711 0.166-1.966 0.166-0.76 0-1.742-0.111-2.105-0.425-0.309-0.255-0.346-0.506-0.346-1.141v-1.82h-1.145v-0.877h1.144v-0.827l2.52-0.65v1.479h1.696v0.877zM1.54 16.71c-0.925-1.397-1.54-3.060-1.54-4.731 0-1.974 0.775-3.579 1.561-4.709h0.936c-0.695 1.54-1.168 2.85-1.168 4.752 0 2.182 0.774 3.865 1.125 4.627 0.012 0 0.034 0.045 0.034 0.061zM22.459 7.29c0.926 1.398 1.541 3.060 1.541 4.731 0 1.971-0.776 3.58-1.561 4.709h-0.936c0.694-1.541 1.17-2.85 1.17-4.752 0-2.184-0.777-3.863-1.129-4.629-0.012-0.010-0.031-0.049-0.031-0.060z"/>
</svg>