<svg xmlns="http://www.w3.org/2000/svg" version="1.1" width="24" height="24" viewBox="0 0 24 24">
<path d="M18.164 7.931v-2.846c0.75-0.357 1.261-1.107 1.266-1.977v-0.068c-0.003-1.209-0.983-2.189-2.192-2.193h-0.067c-1.209 0.003-2.189 0.983-2.193 2.192v0.067c0.004 0.866 0.508 1.613 1.239 1.967l0.013 0.006 0.013 0.006v2.852c-1.141 0.179-2.149 0.644-2.98 1.319l0.011-0.009 0.012-0.009-7.828-6.096c0.054-0.193 0.084-0.415 0.084-0.643 0-1.379-1.118-2.497-2.497-2.497s-2.497 1.118-2.497 2.497c0 1.379 1.118 2.497 2.497 2.497 0.463 0 0.896-0.126 1.267-0.345l-0.012 0.006-0.012 0.006 7.696 5.991c-0.65 0.963-1.038 2.15-1.038 3.427 0 0.007 0 0.013 0 0.020v-0.001c0 1.343 0.425 2.588 1.147 3.606l-0.013-0.019-2.342 2.342c-0.173-0.058-0.372-0.092-0.579-0.095l-0.001-0h-0.002c-1.123 0-2.033 0.91-2.033 2.033s0.91 2.033 2.033 2.033c1.123 0 2.033-0.91 2.033-2.033v0c-0.003-0.214-0.039-0.418-0.103-0.609l0.004 0.014 0.004 0.014 2.317-2.317c1.039 0.8 2.359 1.282 3.791 1.282 3.45 0 6.247-2.797 6.247-6.247 0-3.1-2.258-5.673-5.22-6.163l-0.036-0.005zM17.2 17.308c-1.767-0.005-3.198-1.438-3.198-3.206 0-1.771 1.435-3.206 3.206-3.206s3.206 1.435 3.206 3.206v0 0.002c-0.001 1.77-1.436 3.204-3.206 3.204-0.003 0-0.006 0-0.008 0h0z"/>
</svg>