<svg xmlns="http://www.w3.org/2000/svg" version="1.1" width="24" height="24" viewBox="0 0 24 24">
<path d="M21 0h-18c-1.657 0-3 1.343-3 3v18c0 1.658 1.343 3 3 3h18c1.658 0 3-1.342 3-3v-18c0-1.657-1.342-3-3-3zM15.199 4.399c0-0.44 0.36-0.8 0.802-0.8 0.44 0 0.8 0.36 0.8 0.8v10.688c0 0.442-0.36 0.801-0.8 0.801-0.443 0-0.802-0.359-0.802-0.801zM11.2 3.994c0-0.44 0.357-0.799 0.8-0.799s0.8 0.359 0.8 0.799v11.602c0 0.44-0.357 0.8-0.8 0.8s-0.8-0.36-0.8-0.8zM7.2 4.399c0-0.44 0.359-0.8 0.799-0.8 0.443 0 0.802 0.36 0.802 0.8v10.688c0 0.442-0.36 0.801-0.802 0.801-0.44 0-0.799-0.359-0.799-0.801zM3.199 6c0-0.442 0.36-0.8 0.802-0.8 0.44 0 0.799 0.358 0.799 0.8v7.195c0 0.441-0.359 0.8-0.799 0.8-0.443 0-0.802-0.36-0.802-0.8zM20.52 18.202c-0.123 0.105-3.086 2.593-8.52 2.593-5.433 0-8.397-2.486-8.521-2.593-0.335-0.288-0.375-0.792-0.086-1.128 0.285-0.334 0.79-0.375 1.125-0.090 0.047 0.041 2.693 2.211 7.481 2.211 4.848 0 7.456-2.186 7.479-2.207 0.334-0.289 0.839-0.25 1.128 0.086s0.25 0.84-0.086 1.128zM20.801 13.195c0 0.441-0.36 0.8-0.801 0.8s-0.801-0.36-0.801-0.8v-7.195c0-0.442 0.361-0.8 0.801-0.8 0.441 0 0.801 0.357 0.801 0.8z"/>
</svg>