<svg xmlns="http://www.w3.org/2000/svg" version="1.1" width="24" height="24" viewBox="0 0 24 24">
<path d="M17.18 9.518c-1.263-5.56-4.242-7.387-4.562-8.086-0.352-0.493-0.733-1.432-0.733-1.432-0.002 0.019-0.004 0.031-0.005 0.049v0.013h-0.001c-0.002 0.015-0.003 0.025-0.004 0.039v0.015h-0.002c0 0.010-0.002 0.018-0.002 0.026v0.026h-0.003c-0.001 0.008-0.001 0.018-0.003 0.025v0.021h-0.002c0 0.007 0 0.015-0.002 0.021v0.020h-0.002c0 0.010-0.001 0.022-0.002 0.032v0.002c-0.003 0.017-0.006 0.034-0.009 0.050v0.008h-0.002c-0.001 0.004-0.003 0.008-0.003 0.012v0.017h-0.003v0.022h-0.005v0.018h-0.005v0.021h-0.004v0.019h-0.004v0.017h-0.006v0.014h-0.004v0.018h-0.004v0.014h-0.005v0.013h-0.003v0.015h-0.004c-0.001 0.001-0.001 0.003-0.001 0.004v0.010h-0.003c-0.001 0.002-0.001 0.004-0.001 0.006v0.006h-0.002c-0.001 0.003-0.002 0.008-0.002 0.010-0.003 0.007-0.007 0.014-0.010 0.021v0.002c-0.002 0.002-0.004 0.005-0.005 0.007v0.008h-0.004v0.008h-0.005v0.008h-0.003v0.010h-0.006v0.014h-0.004v0.004h-0.004v0.008h-0.004v0.011h-0.004v0.008h-0.006v0.011h-0.004v0.008h-0.005v0.008h-0.003v0.010h-0.005v0.008h-0.004v0.006h-0.004v0.008h-0.006v0.009h-0.004v0.006h-0.005v0.008h-0.004v0.011h-0.005v0.004h-0.003v0.008h-0.006v0.004h-0.004v0.010h-0.004v0.004h-0.004v0.008h-0.005v0.006h-0.003l-0.002 0.004v0.004h-0.002c-0.001 0.002-0.002 0.002-0.002 0.004v0.001h-0.001c-0.001 0.003-0.002 0.005-0.004 0.007v0.003h-0.001c-0.005 0.006-0.008 0.012-0.012 0.018v0.001c-0.002 0.002-0.007 0.006-0.009 0.010v0.002h-0.001c-0.001 0.001-0.003 0.002-0.003 0.003v0.003h-0.002l-0.003 0.003v0.001h-0.001c0 0.001-0.002 0.002-0.003 0.004v0.004h-0.003l-0.002 0.002v0.002h-0.002c0 0.002-0.002 0.002-0.002 0.003v0.003h-0.004c0 0.001-0.001 0.002-0.002 0.003v0.006h-0.003v0.004h-0.004v0.006h-0.004v0.008h-0.005v-0.008h-0.005v0.004h-0.004v0.006h-0.005v0.008h-0.005v0.004h-0.004v0.006h-0.004v0.004h-0.004v0.008h-0.006v0.004h-0.004v0.006h-0.005v0.004h-0.004v0.005h-0.005v0.010h-0.002v0.004h-0.006v0.005h-0.004v0.002h-0.004v0.004h-0.005v0.010h-0.004v0.004h-0.005v0.004h-0.004v0.006h-0.005v0.004h-0.005v0.004h-0.004v0.004h-0.004v0.010h-0.004v0.005h-0.006v0.004h-0.004v0.004h-0.005v0.006h-0.004v0.004h-0.005v0.007h-0.004v0.004h-0.006v0.006h-0.002v0.004h-0.004v0.004h-0.005v0.004h-0.004v0.006h-0.005v0.004h-0.003c-0.001 0.001-0.001 0.002-0.001 0.002v0.002h-0.002l-0.004 0.004c0 0-0.002 0.002-0.004 0.003v0.006h-0.004v0.005h-0.004v0.004h-0.004v0.004h-0.003l-0.003 0.003v0.003h-0.002l-0.002 0.002v0.003h-0.002c-0.005 0.006-0.007 0.010-0.014 0.016-0.002 0.002-0.008 0.007-0.012 0.010-0.012 0.008-0.027 0.021-0.039 0.032-0.008 0.005-0.016 0.012-0.022 0.017v0.001h-0.001c-0.016 0.013-0.031 0.025-0.049 0.039v0.001c-0.024 0.020-0.047 0.039-0.074 0.062v-0.001h-0.002c-0.057 0.047-0.117 0.1-0.186 0.159v0.001h-0.001c-0.169 0.148-0.37 0.338-0.595 0.568l-0.019 0.019c-1.36 1.407-3.503 4.339-3.729 9.077-0.020 0.392-0.016 0.773 0.006 1.144v0.009c0.109 1.867 0.695 3.461 1.428 4.756v0.001c0.292 0.516 0.607 0.985 0.926 1.405v0.001c1.102 1.455 2.227 2.317 2.514 2.526 0.441 1.023 0.4 2.779 0.4 2.779l0.644 0.215c0 0-0.131-1.701 0.053-2.522 0.057-0.257 0.192-0.476 0.349-0.662 0.106-0.075 0.42-0.301 0.797-0.645 0.018-0.019 0.028-0.036 0.044-0.054 1.521-1.418 4.362-4.91 3.388-10.599z"/>
</svg>