<svg xmlns="http://www.w3.org/2000/svg" version="1.1" width="24" height="24" viewBox="0 0 24 24">
<path d="M8.073 24c-0.348 0-0.689-0.063-1.020-0.189-1.375-0.525-2.104-2.020-1.726-3.402l-0.015-0.006 0.090-0.226 6.997-18.167c0.105-0.27 0.057-0.91 0.006-1.267-0.016-0.085-0.016-0.161 0.008-0.24l0.008-0.023 0.006-0.015v-0.007l0.009-0.019c0.108-0.292 0.45-0.439 1.008-0.439 0.673 0 1.602 0.21 2.551 0.573 0.797 0.307 1.523 0.689 2.033 1.075 0.602 0.45 0.842 0.854 0.707 1.2l-0.031 0.045-0.016 0.015c-0.045 0.061-0.090 0.12-0.15 0.165-0.314 0.271-0.764 0.735-0.84 0.945l-7.063 18.421-0.016-0.006c-0.494 0.948-1.457 1.557-2.543 1.561h-0.006zM5.886 20.282l-0.020 0.050c-0.447 1.201 0.162 2.557 1.364 3.018 0.271 0.105 0.551 0.154 0.837 0.154 0.971 0 1.83-0.585 2.188-1.5l0.027-0.061 6.959-18.090c0.146-0.39 0.84-1.020 0.979-1.14l0.016-0.016c0.012-0.015 0.020-0.015 0.020-0.030 0-0.060-0.061-0.27-0.557-0.645-0.479-0.36-1.154-0.72-1.904-1.005-0.868-0.328-1.768-0.539-2.368-0.539-0.39 0-0.524 0.082-0.545 0.126v0.040c0.016 0.104 0.147 1.035-0.034 1.515l-6.962 18.12zM14.836 8.775c0 0-0.964 1.109-1.843 1.509-0.88 0.398-1.529 0.293-2.32 0.756-0.789 0.461-1.188 1.103-1.188 1.103l-3.215 8.362c-0.348 0.944 0.168 2.050 1.125 2.42 0.96 0.369 2.040-0.12 2.412-1.056zM9.905 18.76c0.104-0.041 0.225 0 0.266 0.105 0.042 0.104 0 0.222-0.105 0.264-0.104 0.043-0.225 0-0.266-0.104-0.042-0.097 0-0.216 0.105-0.265zM8.891 16.958c-0.152 0.068-0.334 0-0.397-0.155-0.070-0.152 0-0.334 0.154-0.397 0.154-0.070 0.335 0 0.398 0.153 0.074 0.15 0.008 0.314-0.155 0.39zM9.177 15.862c-0.123-0.288 0-0.623 0.287-0.758 0.285-0.124 0.615 0 0.75 0.285 0.121 0.289 0 0.624-0.285 0.757-0.3 0.126-0.629 0-0.765-0.285zM11.603 13.604c0.153-0.074 0.335 0 0.398 0.15 0.070 0.154 0 0.336-0.153 0.399-0.155 0.070-0.337 0-0.399-0.155-0.074-0.152 0-0.334 0.154-0.397zM10.31 12.225c0.105-0.042 0.226 0 0.266 0.105 0.043 0.104 0 0.226-0.104 0.266-0.104 0.042-0.226 0-0.265-0.104-0.044-0.106 0.006-0.227 0.103-0.267zM13.681 1.14c0.1-0.261 0.993-0.162 1.995 0.226 0.999 0.384 1.729 0.909 1.63 1.17-0.104 0.264-0.997 0.164-1.996-0.221-1.005-0.385-1.734-0.91-1.632-1.176z"/>
</svg>