<svg xmlns="http://www.w3.org/2000/svg" version="1.1" width="24" height="24" viewBox="0 0 24 24">
<path d="M3.883 9.825c0.605-2.172 1.994-3.95 3.836-5.049l0.039-0.021 0.040-0.021-1.803-3.113c-2.719 1.591-4.727 4.148-5.568 7.189l-0.020 0.084zM9.824 3.894c0.642-0.18 1.38-0.283 2.142-0.283 0.008 0 0.016 0 0.023 0h0.004v-3.595h-0.019c-0.002 0-0.005 0-0.008 0-1.123 0-2.211 0.154-3.242 0.441l0.169-0.040zM14.178 3.897c2.169 0.605 3.946 1.995 5.042 3.836l0.021 0.039 0.021 0.040 3.117-1.799c-1.591-2.718-4.146-4.726-7.186-5.568l-0.084-0.020zM0 12v0.006c0 1.1 0.148 2.165 0.425 3.177l-0.020-0.084 3.476-0.929c-0.18-0.639-0.284-1.373-0.284-2.132 0-0.010 0-0.021 0-0.031v0.002-0.008zM1.605 17.995c0.55 0.941 1.18 1.754 1.901 2.475l2.553-2.54c-0.495-0.496-0.929-1.052-1.291-1.656l-0.022-0.039-0.022-0.040zM5.995 22.38c1.699 1.008 3.746 1.604 5.932 1.604 0.012 0 0.025-0 0.037-0h0.018v-3.595h-0.004c-0.004 0-0.009 0-0.014 0-1.552 0-3.004-0.425-4.247-1.166l0.038 0.021 0.039 0.021zM19.259 16.205c-1.109 1.879-2.875 3.271-4.974 3.869l-0.060 0.015-0.059 0.014 0.931 3.476c3.124-0.86 5.681-2.863 7.246-5.52l0.031-0.056zM23.577 15.221c0.268-0.947 0.423-2.035 0.423-3.159 0-1.087-0.144-2.14-0.415-3.142l0.019 0.084-3.486 0.931c0.175 0.64 0.275 1.374 0.275 2.132 0 0.79-0.109 1.555-0.313 2.28l0.014-0.059z"/>
</svg>