<svg xmlns="http://www.w3.org/2000/svg" version="1.1" width="24" height="24" viewBox="0 0 24 24">
<path d="M6.389 23.97c-0.948 0-1.946-0.747-1.946-2.194v-3.392c0-1.346 0.848-2.892 2.045-3.54l4.739-2.794-4.739-2.793c-1.147-0.749-2.045-2.245-2.045-3.592v-3.441c0-1.447 0.998-2.195 1.997-2.195 0.399 0 0.847 0.1 1.246 0.35l10.674 6.333c0.748 0.449 1.147 1.147 1.147 1.845 0 0.749-0.45 1.447-1.147 1.846l-2.544 1.497 2.544 1.497c0.748 0.449 1.197 1.147 1.197 1.845 0 0.748-0.45 1.447-1.197 1.846l-10.675 6.534c-0.448 0.25-0.847 0.349-1.296 0.348zM13.521 13.397l-5.836 3.441c-0.448 0.25-0.897 1.048-0.897 1.546v3.043l10.125-5.985zM6.788 2.623v3.042c0 0.5 0.449 1.297 0.897 1.547l5.836 3.441 3.442-2.045z"/>
</svg>