<svg xmlns="http://www.w3.org/2000/svg" version="1.1" width="24" height="24" viewBox="0 0 24 24">
<path d="M8.206 5.866l0.005 0.396h-1.457l0.006 0.655v0.005l-6.758 0.002v0.211l-0.002 0.838 0.020 0.041c0.212 0.467 0.663 0.901 1.257 1.313s1.335 0.796 2.145 1.13c1.62 0.664 3.502 1.12 5.006 1.1 0.746-0.010 1.265 0.228 1.62 0.672 0.341 0.426 0.51 1.092 0.524 1.92l-2.632 2.090 0.008 1.896h12.342l-0.004-1.76-2.63-2.22c0.055-2.013 0.708-3.443 1.777-4.405 1.087-0.979 2.61-1.49 4.37-1.616l0.195-0.015 0.002-2.247zM8.631 6.288l14.946 0.006-0.004 1.457c-1.737 0.155-3.29 0.666-4.424 1.685-0.912 0.822-1.433 2.062-1.691 3.534l-1.617 0.004 0.002 0.422 1.535-0.004c-0.027 0.226-0.113 0.4-0.123 0.64l-0.893-0.003-0.002 0.422 0.995 0.004 2.138 1.802-2.941 0.002c-0.724-0.675-1.552-1.116-2.416-1.158-0.817-0.040-1.638 0.324-2.387 1.040l-2.978-0.024 2.248-1.781v-0.102c0.002-0.943-0.2-1.72-0.64-2.269-0.396-0.496-1.007-0.749-1.741-0.79l-0.008-4.49h0.008zM7.181 6.684h1.026l0.008 4.404c-1.387-0.020-3.125-0.404-4.631-1.023-0.787-0.324-1.507-0.698-2.066-1.086-0.55-0.379-0.931-0.776-1.094-1.119v-0.514l6.336-0.002v2.16h0.422v-2.16h0.004l-0.004-0.435zM14.116 15.523c0.75 0.037 1.503 0.436 2.18 1.078l-0.002 1.112h-4.345l-0.006-1.2c0.706-0.717 1.443-1.026 2.173-0.99zM8.36 16.537l3.16 0.023 0.006 1.153h-3.16zM19.86 16.679l0.002 1.034h-3.148v-1.033z"/>
</svg>