<svg xmlns="http://www.w3.org/2000/svg" version="1.1" width="24" height="24" viewBox="0 0 24 24">
<path d="M16.377 21.658c0 1.225-0.989 2.215-2.212 2.215s-2.217-0.99-2.217-2.215c0-1.223 0.993-2.215 2.217-2.215 1.223 0 2.213 0.993 2.212 2.215zM11.662 21.486l-5.192 1.214c0 0-0.287 0.080-0.392-0.215-0.060-0.181 0.091-0.398 0.091-0.398l5.213-8.514c0 0 0.267-0.402 0.77-0.549 0.418-0.121 0.872 0.16 0.872 0.16l8.351 5.253c0 0 0.362 0.147 0.348 0.438-0.015 0.293-0.333 0.343-0.333 0.343l-5.040 1.178c-0.426-0.744-1.23-1.244-2.156-1.244-1.32 0-2.413 1.032-2.504 2.335zM3.898 7.297l1.513-5.263c0 0 0.072-0.303 0.381-0.242 0.186 0.031 0.303 0.273 0.303 0.273l4.889 8.698c0 0 0.223 0.425 0.106 0.941-0.099 0.425-0.567 0.683-0.567 0.683l-8.659 4.723c0 0-0.307 0.243-0.547 0.084-0.242-0.163-0.136-0.463-0.136-0.463l1.472-5.116c1.177-0.206 2.071-1.233 2.071-2.47 0-0.738-0.319-1.396-0.826-1.859zM4.43 9.155c0 1.225-0.989 2.218-2.214 2.218-1.221 0-2.216-0.993-2.216-2.218 0-1.221 0.995-2.213 2.216-2.213 1.225 0 2.217 0.992 2.217 2.213zM20.096 7.421l3.81 4.18c0 0 0.211 0.212 0.003 0.445-0.124 0.141-0.394 0.111-0.394 0.111l-9.974-0.395c0 0-0.478-0.035-0.853-0.402-0.31-0.303-0.282-0.838-0.282-0.838l0.51-9.852c0 0-0.050-0.389 0.212-0.511 0.27-0.122 0.467 0.129 0.467 0.129l3.318 3.628c-0.188 0.35-0.293 0.744-0.293 1.17 0 1.381 1.123 2.504 2.509 2.504 0.341 0 0.667-0.075 0.964-0.197zM21.346 5.104c0 1.229-0.986 2.217-2.212 2.217-1.224 0-2.217-0.987-2.217-2.217 0-1.215 0.993-2.201 2.217-2.201 1.223 0 2.213 1.002 2.213 2.217z"/>
</svg>