<svg xmlns="http://www.w3.org/2000/svg" version="1.1" width="24" height="24" viewBox="0 0 24 24">
<path d="M22.406 15.477c0.979 0.846 1.594 2.089 1.594 3.476 0 0.001 0 0.001 0 0.002v-0c0 2.531-2.053 4.59-4.577 4.59h-18.31c-0.615 0-1.113-0.498-1.113-1.113s0.498-1.113 1.113-1.113h18.31c1.299-0.006 2.35-1.060 2.35-2.36 0-0.001 0-0.003 0-0.004v0c0-0.001 0-0.003 0-0.004 0-1.3-1.051-2.354-2.349-2.36h-18.311c-0.615 0-1.113-0.499-1.113-1.113s0.499-1.113 1.113-1.113v0h18.31c1.299-0.006 2.35-1.060 2.35-2.36 0-0.001 0-0.003 0-0.004v0c0-0.001 0-0.003 0-0.004 0-1.3-1.051-2.354-2.349-2.36h-18.311c-0.615 0-1.113-0.499-1.113-1.113s0.499-1.113 1.113-1.113v0h18.31c1.296 0 2.35-1.060 2.35-2.364s-1.054-2.364-2.35-2.364c-0.615 0-1.113-0.499-1.113-1.113s0.499-1.113 1.113-1.113v0c2.524 0 4.577 2.060 4.577 4.591 0 1.389-0.62 2.635-1.594 3.477 0.979 0.846 1.594 2.089 1.594 3.476 0 0.001 0 0.001 0 0.002v-0c0 1.389-0.62 2.635-1.594 3.477z"/>
</svg>