<svg xmlns="http://www.w3.org/2000/svg" version="1.1" width="24" height="24" viewBox="0 0 24 24">
<path d="M17.895 11.927c0.001-0.561 0.147-1.088 0.402-1.546l-0.008 0.016-0.008 0.017c0.247-0.47 0.614-0.848 1.062-1.101l0.013-0.007 0.014-0.007c0.437-0.241 0.958-0.382 1.511-0.382 0.004 0 0.008 0 0.012 0h0.046q1.346 0 2.2 0.871t0.86 2.203c0 0.895-0.29 1.635-0.867 2.226s-1.306 0.886-2.183 0.886c-0.566 0-1.1-0.137-1.571-0.379l0.019 0.009c-0.477-0.236-0.859-0.603-1.108-1.054l-0.007-0.013-0.007-0.013q-0.38-0.708-0.381-1.726zM19.488 12.010c0 0.591 0.138 1.043 0.42 1.349 0.252 0.291 0.621 0.474 1.034 0.474s0.78-0.182 1.031-0.47l0.001-0.002 0.001-0.002c0.275-0.307 0.413-0.764 0.413-1.357s-0.138-1.033-0.413-1.342c-0.253-0.289-0.622-0.47-1.033-0.47s-0.78 0.181-1.031 0.468l-0.001 0.002-0.001 0.002c-0.281 0.306-0.42 0.758-0.42 1.349zM17.886 14.951h-1.556v-3.015c0-0.635-0.032-1.044-0.101-1.234-0.063-0.18-0.177-0.329-0.325-0.433l-0.006-0.004c-0.146-0.098-0.325-0.156-0.518-0.156-0.001 0-0.002 0-0.003 0h-0.038c-0.27 0-0.521 0.084-0.727 0.228l0.004-0.003c-0.206 0.137-0.361 0.335-0.442 0.568l-0.002 0.008-0.002 0.008c-0.083 0.248-0.121 0.696-0.121 1.359v2.673h-1.549v-5.923h1.439v0.867c0.518-0.656 1.167-0.98 1.952-0.98h0.021c0.335 0 0.655 0.067 0.946 0.189l-0.016-0.006c0.261 0.105 0.48 0.268 0.648 0.475l0.002 0.003c0.141 0.185 0.247 0.404 0.304 0.643l0.002 0.012c0.057 0.278 0.089 0.597 0.089 0.924l-0.002 0.135v-0.007zM6.413 9.028h1.654l1.412 4.204 1.376-4.204h1.611l-2.067 5.693-0.38 1.038c-0.115 0.309-0.249 0.575-0.41 0.823l0.010-0.016 0.010-0.017c-0.114 0.175-0.254 0.322-0.417 0.44l-0.005 0.003-0.005 0.003c-0.17 0.113-0.367 0.203-0.578 0.26l-0.014 0.003c-0.232 0.064-0.499 0.1-0.774 0.1h-0.024c-0.324-0.001-0.638-0.039-0.939-0.111l0.028 0.006 0.028 0.005-0.129-1.229c0.198 0.046 0.426 0.074 0.659 0.077h0.002c0.36 0 0.628-0.106 0.8-0.318 0.177-0.228 0.313-0.498 0.391-0.791l0.004-0.016 0.004-0.016zM0 12.29l1.592-0.149q0.147 0.802 0.586 1.181t1.192 0.375c0.528 0 0.927-0.113 1.197-0.335s0.4-0.486 0.4-0.782v-0.024c0-0.001 0-0.001 0-0.002 0-0.18-0.063-0.344-0.168-0.474l0.001 0.001 0.001 0.001c-0.113-0.132-0.309-0.252-0.59-0.347-0.193-0.074-0.631-0.191-1.312-0.365-0.882-0.216-1.496-0.486-1.85-0.804-0.46-0.396-0.749-0.979-0.749-1.629 0-0.001 0-0.001 0-0.002v0-0.028c0-0.431 0.132-0.831 0.358-1.163l-0.005 0.007c0.245-0.366 0.587-0.651 0.988-0.821l0.015-0.005 0.015-0.005c0.442-0.184 0.973-0.281 1.602-0.281q1.529 0 2.304 0.676c0.516 0.457 0.785 1.057 0.811 1.809l-1.649 0.055c-0.073-0.413-0.219-0.714-0.452-0.899s-0.579-0.276-1.034-0.276c-0.476 0-0.85 0.098-1.118 0.298-0.158 0.107-0.261 0.287-0.261 0.49 0 0 0 0 0 0v-0 0.012c0 0.201 0.095 0.379 0.242 0.493l0.001 0.001c0.205 0.179 0.709 0.36 1.507 0.546s1.388 0.387 1.769 0.59c0.374 0.196 0.678 0.48 0.893 0.825l0.006 0.010c0.214 0.345 0.326 0.786 0.326 1.305 0 0.489-0.146 0.944-0.396 1.325l0.006-0.009c-0.264 0.408-0.64 0.724-1.084 0.908l-0.016 0.006c-0.475 0.194-1.065 0.298-1.772 0.298-1.029 0-1.819-0.241-2.373-0.722s-0.879-1.177-0.983-2.091z"/>
</svg>