<svg xmlns="http://www.w3.org/2000/svg" version="1.1" width="24" height="24" viewBox="0 0 24 24">
<path d="M24 12v-0.34l-0.030-0.24c-0.273-2.58-2.301-4.612-4.856-4.888l-0.024-0.002-0.24-0.010h-0.050l-0.27-0.010c-0.007-0-0.015-0-0.023-0-1.507 0-2.871 0.612-3.857 1.6l-0 0-1.85 1.86 1.35 1.36 1.35-1.35h-0.010l0.5-0.51c0.643-0.649 1.535-1.050 2.52-1.050 0.003 0 0.007 0 0.010 0h0.199l0.16 0.010c1.688 0.176 3.019 1.503 3.199 3.174l0.001 0.016v0.73c-0.139 1.255-0.908 2.303-1.979 2.831l-0.021 0.009-0.030 0.020-0.1 0.040-0.070 0.030-0.060 0.030-0.11 0.040h-0.030c-0.349 0.125-0.751 0.197-1.17 0.197-0.983 0-1.873-0.396-2.52-1.037l-0.5-0.5-3.37-3.36-5.38-5.39-6.74 6.74 6.74 6.74 1.34-1.35 3.37-3.37-1.34-1.35-3.37 3.37-4.040-4.040 4.040-4.040 7.91 7.91c0.988 0.989 2.354 1.601 3.862 1.601 0.64 0 1.255-0.11 1.826-0.313l-0.038 0.012 0.050-0.010 0.16-0.070 0.1-0.040 0.11-0.040 0.16-0.070 0.050-0.030c1.665-0.827 2.835-2.432 3.038-4.326l0.002-0.024v-0.010l0.020-0.24v-0.31z"/>
</svg>