<svg xmlns="http://www.w3.org/2000/svg" version="1.1" width="24" height="24" viewBox="0 0 24 24">
<path d="M0 0v24h24v-24zM3.723 3.111h5v1.834h-1.39v6.277h1.39v1.834h-5v-1.834h1.444v-6.277h-1.444zM14.778 3.111h2.222v6.5c0 0.612-0.055 1.111-0.222 1.556s-0.39 0.777-0.723 1.11c-0.277 0.279-0.666 0.557-1.11 0.668-0.428 0.175-0.924 0.277-1.445 0.278h-0c-0.778 0-1.444-0.167-1.944-0.445-0.497-0.286-0.92-0.637-1.274-1.050l-0.005-0.006 1.39-1.555c0.277 0.334 0.555 0.555 0.833 0.722s0.611 0.278 0.945 0.278c0.389 0 0.721-0.111 1-0.389 0.221-0.278 0.333-0.667 0.333-1.278zM2.222 19.5h9v1.5h-9z"/>
</svg>