<svg xmlns="http://www.w3.org/2000/svg" version="1.1" width="24" height="24" viewBox="0 0 24 24">
<path d="M19.187 13.909c-0.11-0.026-0.206-0.057-0.297-0.096l0.011 0.004c-0.079-0.035-0.146-0.082-0.203-0.139l-0-0c0.056-0.488 0-0.912 0.047-1.392 0.184-1.862 1.355-1.272 2.406-1.577 0.655-0.184 1.31-0.562 1.475-1.336-0.708-0.826-1.494-1.551-2.358-2.177l-0.039-0.027c-2.85-2.028-6.574-2.84-9.958-2.277 0.524 0.903 1.289 1.615 2.208 2.061l0.030 0.013c0 0-0.917 0-1.703-0.587-0.23 0.092-0.692 0.274-0.913 0.384 0.914 0.88 2.159 1.422 3.53 1.422 1.172 0 2.251-0.396 3.112-1.060l-0.012 0.009c-0.010 0.017-0.185 0.285-0.397 1.4-0.47 2.38-1.826 2.195-3.504 1.596-3.485-1.264-5.403-0.093-7.145-2.49-0.507 0.286-0.82 0.82-0.82 1.402 0 0.599 0.331 1.106 0.81 1.383 0.262-0.348 0.38-0.446 0.836-0.446-0.706 0.4-0.79 0.75-1.094 1.718-0.368 1.171-0.212 2.37-1.936 2.683-0.913 0.046-0.894 0.664-1.226 1.586-0.415 1.199-0.968 1.678-2.047 2.812 0.443 0.535 0.904 0.6 1.374 0.406 0.968-0.406 1.715-1.66 2.415-2.471 0.784-0.904 2.665-0.517 4.085-1.402 0.977-0.599 1.457-1.41 0.811-2.784 0.401 0.44 0.66 1.017 0.701 1.652l0 0.008c1.641-0.213 3.836 1.788 5.836 2.12-0.189-0.237-0.353-0.507-0.479-0.797l-0.009-0.023c-0.23-0.554-0.304-1.060-0.258-1.503 0.184 1.097 1.29 2.507 3.070 2.637 0.452 0.036 0.95-0.019 1.466-0.176 0.618-0.184 1.19-0.424 1.872-0.295 0.507 0.093 0.977 0.35 1.272 0.784 0.443 0.645 1.41 0.784 1.844-0.009-0.977-2.554-3.67-2.72-4.813-3.015z"/>
</svg>