<svg xmlns="http://www.w3.org/2000/svg" version="1.1" width="24" height="24" viewBox="0 0 24 24">
<path d="M15.126 6.408c0.008 0.101 0.008 0.194 0 0.295-0.034 0.589-0.295 1.027-0.656 1.388-0.376 0.373-0.893 0.603-1.464 0.606h-0c-0.016 0-0.035 0.001-0.054 0.001-0.559 0-1.068-0.218-1.445-0.574l0.001 0.001c-0.421-0.39-0.683-0.945-0.683-1.561 0-0.554 0.212-1.058 0.558-1.436l-0.001 0.002 0.101-0.101c0.353-0.345 0.757-0.547 1.372-0.606 0.045-0.003 0.097-0.005 0.149-0.005 0.554 0 1.058 0.213 1.434 0.562l-0.001-0.001c0.396 0.37 0.64 0.884 0.689 1.431zM23.591 13.696l-0.631 1.22c-0.174 0.331-0.304 0.716-0.367 1.123l-0.003 0.021-0.21 1.363c-0.188 1.212-0.944 2.216-1.982 2.742l-0.021 0.010-1.229 0.614c-0.362 0.185-0.69 0.421-0.976 0.707l-0.968 0.985c-0.672 0.68-1.604 1.102-2.635 1.102-0.214 0-0.423-0.018-0.626-0.053l0.022 0.003-1.355-0.227c-0.181-0.032-0.389-0.050-0.601-0.050s-0.421 0.018-0.623 0.053l0.022-0.003-1.355 0.227c-0.181 0.031-0.39 0.049-0.602 0.049-1.032 0-1.965-0.421-2.638-1.101l-0-0-0.968-0.985c-0.278-0.281-0.6-0.517-0.955-0.697l-0.021-0.010-1.229-0.614c-1.057-0.539-1.812-1.541-2-2.731l-0.003-0.021-0.21-1.363c-0.063-0.427-0.193-0.813-0.379-1.163l0.009 0.019-0.64-1.22c-0.262-0.493-0.416-1.079-0.416-1.7s0.154-1.207 0.426-1.72l-0.010 0.020 0.631-1.22c0.174-0.331 0.304-0.716 0.367-1.123l0.003-0.021 0.21-1.363c0.188-1.212 0.944-2.216 1.982-2.742l0.021-0.010 1.229-0.614c0.362-0.185 0.69-0.421 0.976-0.707l0.968-0.976c0.672-0.68 1.604-1.102 2.635-1.102 0.214 0 0.423 0.018 0.626 0.053l-0.022-0.003 1.355 0.227c0.396 0.067 0.808 0.067 1.203 0l1.355-0.227c0.181-0.031 0.39-0.049 0.602-0.049 1.032 0 1.965 0.421 2.638 1.101l0 0 0.968 0.976c0.286 0.286 0.614 0.53 0.976 0.707l1.229 0.614c1.057 0.539 1.812 1.541 2 2.731l0.003 0.021 0.21 1.363c0.059 0.404 0.185 0.791 0.37 1.144l0.631 1.22c0.263 0.496 0.418 1.084 0.418 1.709 0 0.618-0.151 1.2-0.419 1.712l0.010-0.020zM16.304 6.366c-0.019-0.477-0.144-0.92-0.353-1.312l0.008 0.016c-0.574-1.097-1.703-1.833-3.005-1.833-0.077 0-0.153 0.003-0.228 0.008l0.010-0.001c-0.135 0.017-0.252 0.025-0.37 0.042-0.748 0.142-1.391 0.519-1.865 1.049l-0.003 0.003c-0.527 0.576-0.85 1.347-0.85 2.194 0 0.087 0.003 0.173 0.010 0.257l-0.001-0.011c0.076 0.926 0.488 1.717 1.086 2.23 0.438 0.379 0.993 0.715 1.691 0.816 1.338 0.202 2.365-0.328 3.029-1.052 0.526-0.574 0.848-1.342 0.848-2.186 0-0.077-0.003-0.154-0.008-0.23l0.001 0.010zM6.568 13.132c0.244-0.135 0.48-0.278 0.715-0.412-0.084-0.968-0.16-2.011-0.236-2.903 0.985-0.412 1.683-1.212 1.994-2.339 0.252-0.909 0.143-1.977-0.32-2.575-0.154-0.209-0.355-0.375-0.588-0.484l-0.009-0.004c-0.404-0.151-0.892-0.034-1.229 0.109-0.2 0.090-0.371 0.192-0.53 0.309l0.008-0.006c-0.32 0.227-0.614 0.48-0.884 0.774 0.286 2.491 0.572 5.108 0.85 7.657 0.076-0.034 0.151-0.076 0.229-0.126zM6.694 5.979c0.017-0.076 0.202-0.185 0.269-0.236 0.12-0.088 0.266-0.145 0.426-0.16l0.003-0c0.463-0.017 0.572 0.379 0.597 0.825 0.017 0.236 0.017 0.471 0 0.707-0.059 0.783-0.429 1.287-1.043 1.54-0.050-0.488-0.084-1.077-0.143-1.641-0.025-0.227-0.059-0.53-0.093-0.799-0.008-0.076-0.017-0.151-0.016-0.236zM5.558 12.257c-0.109-0.462-0.254-0.867-0.437-1.249l0.016 0.037c-0.17-0.359-0.299-0.775-0.367-1.212l-0.003-0.025c-0.067-0.597 0.050-1.119 0.429-1.397-0.143-0.463-0.261-0.917-0.404-1.372-0.825 0.438-1.397 1.229-1.397 2.407 0 0.724 0.269 1.195 0.53 1.717 0.177 0.345 0.328 0.698 0.446 1.069 0.118 0.396 0.227 0.833 0.194 1.245-0.067 0.791-0.396 1.346-0.825 1.818-0.042 0.050-0.185 0.168-0.185 0.202 0.025 0.059 0.050 0.109 0.084 0.16 0.168 0.353 0.32 0.656 0.488 1.001 0.025 0.050 0.050 0.151 0.084 0.168s0.101-0.067 0.143-0.118c0.143-0.151 0.278-0.311 0.404-0.48 0.698-0.968 1.119-2.474 0.8-3.971zM8.335 13.931c0.345-0.976 0.673-1.986 0.926-3.012 0.076-0.303 0.168-0.614 0.227-0.926 0.008-0.034 0.034-0.109 0-0.126-0.446 0.135-0.909 0.252-1.346 0.396-0.185 1.523-0.64 2.878-1.153 4.148s-1.144 2.44-1.801 3.559c0.808 0.875 1.834 1.54 2.962 2.095 0.202-0.337 0.421-0.665 0.614-1.010-0.69-0.421-1.405-0.825-1.994-1.346 0.485-0.977 1.013-2.224 1.478-3.502l0.088-0.276zM10.96 11.247c-0.286-0.194-0.64-0.337-0.951-0.505-0.623 2.39-1.456 4.594-2.255 6.833 0.278 0.151 0.547 0.32 0.833 0.471 0.539-1.043 0.867-2.163 1.296-3.299 0.21-0.555 0.387-1.128 0.564-1.708s0.353-1.186 0.513-1.792zM13.384 18.24v-0.993c0-0.227-0.008-0.48-0.017-0.875-0.597 0.076-1.203 0.126-1.792 0.21-0.025 0.328-0.025 0.673-0.042 1.018 0.261 0.017 0.673-0.034 0.934-0.034 0 0.488 0 0.909 0.008 1.321 0 0.16 0.025 0.32-0.017 0.454-0.059 0.202-0.269 0.328-0.539 0.303-0.311-0.034-0.555-0.353-0.69-0.614-0.463-0.909-0.311-2.407-0.126-3.416 0.126-0.726 0.382-1.375 0.745-1.949l-0.013 0.022c0.345-0.547 0.816-1.001 1.489-1.195 0-0.278-0.017-0.656-0.034-0.968-0.008-0.143 0-0.32-0.034-0.396-0.008-0.008-0.025 0.008-0.034 0.008-0.433 0.155-0.808 0.372-1.134 0.645l0.006-0.005c-0.492 0.387-0.9 0.856-1.208 1.391l-0.012 0.023c-0.092 0.16-0.188 0.353-0.272 0.553l-0.014 0.036c-0.362 0.808-0.53 1.742-0.631 2.777-0.076 0.791-0.084 1.515 0.034 2.23 0.042 0.227 0.109 0.454 0.194 0.673 0.295 0.774 0.867 1.422 2.028 1.262 0.446-0.059 0.808-0.236 1.186-0.396 0-0.74-0.017-1.515-0.015-2.085zM16.943 13.763c-0.053-0.483-0.093-1.069-0.108-1.662l-0.001-0.029c-0.025-0.783 0-1.54 0.042-2.322 0-0.008 0-0.008-0.008-0.008-0.303 0.236-0.648 0.48-0.976 0.715-0.050 0.031-0.092 0.070-0.125 0.117l-0.001 0.001c-0.004 0.030-0.006 0.065-0.006 0.101s0.002 0.071 0.006 0.105l-0-0.004c-0.008 1.128 0.059 2.322 0.084 3.332-0.278 0.118-0.555 0.269-0.833 0.379-0.086-0.803-0.18-1.981-0.25-3.165l-0.011-0.243c-0.37 0.126-0.707 0.278-1.069 0.412 0.076 0.555 0.151 1.086 0.202 1.599 0.093 0.816 0.135 1.632 0.143 2.449 0 0.236 0 0.471-0.017 0.707-0.034 0.496-0.025 1.001-0.059 1.498-0.076 0.959-0.067 1.986-0.067 2.895 0.194-0.084 0.379-0.194 0.572-0.286 0.194-0.084 0.379-0.185 0.564-0.295 0-0.362 0.017-0.648 0.025-0.959 0.034-1.186 0.067-2.179 0.025-3.231 0.32-0.151 0.64-0.303 0.976-0.446 0.227 1.355 0.682 2.541 1.094 3.753 0.345-0.261 0.64-0.572 0.968-0.858-0.184-0.468-0.394-1.107-0.575-1.757l-0.039-0.162c-0.254-0.762-0.45-1.655-0.551-2.577l-0.005-0.059zM19.526 9.976c0.194-0.076 0.37-0.194 0.555-0.286s0.362-0.194 0.539-0.303c-0.337-0.968-0.757-1.851-1.338-2.609-0.572-0.757-1.223-1.411-1.953-1.968l-0.024-0.018c0-0.017-0.025 0-0.025 0.008-0.171 0.211-0.34 0.447-0.495 0.693l-0.018 0.031c-0.034 0.059-0.151 0.21-0.143 0.269 0.050 0.067 0.109 0.126 0.177 0.177 0.067 0.067 0.135 0.118 0.185 0.168 0.303 0.311 0.555 0.589 0.833 0.926 0.042 0.050 0.143 0.16 0.143 0.21-0.018 0.102-0.045 0.192-0.079 0.278l0.003-0.009c-0.135 0.48-0.227 0.951-0.311 1.456-0.115 0.635-0.18 1.365-0.18 2.111 0 0.299 0.011 0.597 0.031 0.891l-0.002-0.040c0.076 1.052 0.278 2.003 0.505 2.928 0.109 0.454 0.244 0.909 0.412 1.346 0.126 0.328 0.252 0.656 0.396 0.951 0.050 0.101 0.076 0.219 0.16 0.295 0.286-0.37 0.589-0.724 0.867-1.094-0.421-0.749-0.707-1.666-0.926-2.617-0.076-0.286-0.138-0.629-0.175-0.981l-0.002-0.029c-0.126-1.372-0.177-2.861 0.194-4.157 0.295 0.429 0.522 0.892 0.671 1.373z"/>
</svg>