<svg xmlns="http://www.w3.org/2000/svg" version="1.1" width="24" height="24" viewBox="0 0 24 24">
<path d="M14.839 21.059c0-2.123 1.572-3.939 3.543-4.307-0.094-1.973-0.924-3.328-2.219-4.343-1.305-1.016-3.121-1.785-5.088-2.557-2.13-0.832-3.721-1.569-3.721-3.172 0-1.352 1.17-2.369 3.137-2.369 1.201 0 1.974 0.185 2.371 0.399 0 0.093-0.029 0.216-0.090 0.309-0.061 0.123-0.090 0.276-0.090 0.493 0 1.354 0.983 2.555 2.738 2.555 1.602 0 2.555-1.201 2.555-2.957 0-1.477-0.832-2.77-2.188-3.663-1.378-0.892-3.3-1.447-5.475-1.447-2.252 0.155-4.189 0.985-5.542 2.217-1.355 1.23-2.155 2.894-2.155 4.863 0 2.187 0.77 3.603 2.031 4.683 1.262 1.077 3.078 1.846 5.265 2.616 2.372 0.764 3.757 1.561 3.757 3.137 0 1.59-1.385 2.551-3.572 2.551-1.141 0-2.124-0.193-2.957-0.764 0.219-0.406 0.219-0.813 0.219-1.201 0-1.143-1.006-2.568-2.764-2.568-1.56 0-2.73 1.201-2.73 2.957 0 1.471 0.93 2.867 2.445 3.844 1.485 1.019 3.571 1.665 5.823 1.665 1.982 0 3.768-0.375 5.148-1.365-0.21-0.406-0.39-0.992-0.39-1.607zM22.138 21.059c0 1.572-1.275 2.773-2.777 2.773-1.5 0-2.746-1.201-2.746-2.771 0-1.5 1.23-2.732 2.73-2.732 1.502 0 2.764 1.232 2.764 2.748z"/>
</svg>