<svg xmlns="http://www.w3.org/2000/svg" version="1.1" width="24" height="24" viewBox="0 0 24 24">
<path d="M21.86 5.17c1.343 1.905 2.146 4.274 2.146 6.83s-0.803 4.925-2.172 6.868l0.025-0.038-3.1-3.1c0.608-1.075 0.967-2.361 0.967-3.73s-0.358-2.655-0.987-3.768l0.020 0.038zM18.83 2.14l-3.1 3.1c-1.072-0.601-2.353-0.955-3.717-0.955-4.258 0-7.71 3.452-7.71 7.71s3.452 7.71 7.71 7.71c1.364 0 2.644-0.354 3.756-0.975l-0.039 0.020 3.1 3.11c-1.908 1.336-4.277 2.135-6.832 2.135-6.627 0-12-5.373-12-12s5.373-12 12-12c2.556 0 4.925 0.799 6.871 2.161l-0.039-0.026zM21.86 5.17c1.343 1.905 2.146 4.274 2.146 6.83s-0.803 4.925-2.172 6.868l0.025-0.038-3.1-3.1c0.608-1.075 0.967-2.361 0.967-3.73s-0.358-2.655-0.987-3.768l0.020 0.038z"/>
</svg>