<svg xmlns="http://www.w3.org/2000/svg" version="1.1" width="24" height="24" viewBox="0 0 24 24">
<path d="M11.994 1.046h0.022c0.899 0.002 1.73 0.301 2.398 0.805l0.003 0.001 0.001 0.001c0.459 0.348 0.833 0.781 1.106 1.278l0.010 0.021 4.467 7.769 0.025 0.065 3.419 5.927c0.349 0.58 0.555 1.279 0.555 2.027 0 0.003 0 0.005 0 0.008v-0c0 0.565-0.117 1.104-0.329 1.592l0.006 0.016c-0.171 0.38-0.383 0.708-0.638 0.997l0.004-0.004c-0.294 0.344-0.639 0.632-1.026 0.858l-0.019 0.010c-0.558 0.329-1.228 0.527-1.943 0.537l-0.003 0h-0.068c-0.905-0.001-1.739-0.303-2.408-0.812l0.010 0.007-0.003-0.001v-0.001h-0.001c-0.459-0.348-0.833-0.781-1.106-1.278l-0.010-0.021-4.467-7.769-0.025-0.065-3.435-5.955c-0.339-0.573-0.539-1.263-0.539-2 0-0.002 0-0.005 0-0.007v0c0-0.424 0.066-0.832 0.188-1.215v-0.001l0.008-0.025 0.010-0.030c0.052-0.157 0.117-0.337 0.117-0.337 0.158-0.358 0.371-0.689 0.626-0.984l0.063-0.072 0.014-0.015 0.002-0.003 0.003-0.003 0.009-0.010 0.006-0.007c0.27-0.296 0.59-0.557 0.956-0.767 0.558-0.329 1.228-0.527 1.943-0.537l0.003-0zM4.006 22.954h-0.058c-0.718-0.010-1.388-0.208-1.965-0.547l0.019 0.010c-0.406-0.236-0.751-0.524-1.040-0.863l-0.005-0.005c-0.251-0.285-0.463-0.613-0.624-0.968l-0.010-0.025 0.006-0.016c-0.208-0.467-0.329-1.013-0.329-1.586 0-0.002 0-0.004 0-0.006v0c0-0.743 0.202-1.439 0.555-2.035l3.419-5.927 0.025-0.065 3.039-5.286c0.076 0.648 0.276 1.281 0.596 1.856l0.057 0.1 3.377 5.854-0.003-0.010 0.067 0.142 0.291 0.507-3.889 6.764c-0.283 0.518-0.657 0.951-1.106 1.292l-0.010 0.007h-0.001v0.001l-0.003 0.001c-0.659 0.502-1.493 0.804-2.398 0.805h-0z"/>
</svg>