<svg xmlns="http://www.w3.org/2000/svg" version="1.1" width="24" height="24" viewBox="0 0 24 24">
<path d="M3.129 17.941c-0.030-0.213-0.021-0.713-0.021-0.713h-0.288c-0.662 0-0.922-0.267-0.922-0.93v-2.635c0-1.19-0.278-1.481-0.835-1.664v-0.061c0.557-0.183 0.835-0.486 0.835-1.676v-2.624c0-0.663 0.26-0.87 0.92-0.87h0.285c0 0 0.014-0.457 0.045-0.724-0.135-0.018-0.66-0.030-0.66-0.030-1.334 0-1.709 0.646-1.709 1.979v2.391c0 0.978-0.569 1.109-0.779 1.109v0.95c0.21 0 0.765 0.132 0.765 1.094v2.406c0 1.334 0.374 1.964 1.709 1.964 0 0 0.524 0.046 0.63 0.046zM2.318 12.59c0.488 0 1.184 0.168 1.184 1.398v3.063c0 1.698 0.408 2.549 2.107 2.549h0.765v-0.908h-0.39c-0.84 0-1.154-0.349-1.154-1.189v-3.359c0-1.515-0.479-1.885-1.319-2.12v-0.068c0.84-0.236 1.335-0.623 1.335-2.138v-3.352c0-0.839 0.314-1.090 1.154-1.090h0.389v-0.974h-0.75c-1.693 0-2.098 0.824-2.098 2.518v3.058c0 1.244-0.689 1.425-1.185 1.425v1.198zM13.805 16.488c0.464-0.131 0.854-0.319 1.176-0.565 0.32-0.245 0.57-0.548 0.75-0.902 0.176-0.355 0.266-0.749 0.266-1.185 0-0.379-0.066-0.705-0.198-0.974-0.132-0.271-0.345-0.506-0.636-0.712-0.293-0.206-0.665-0.391-1.118-0.551-0.452-0.16-0.999-0.32-1.642-0.479-0.689-0.175-1.166-0.33-1.434-0.465-0.271-0.14-0.405-0.362-0.405-0.672 0-0.354 0.141-0.614 0.423-0.772 0.28-0.166 0.627-0.24 1.041-0.24 0.445 0 0.893 0.060 1.34 0.21 0.446 0.134 0.922 0.374 1.426 0.689l0.945-1.425c-0.551-0.344-1.145-0.615-1.779-0.824-0.63-0.209-1.273-0.3-1.904-0.3-0.51 0-0.988 0.060-1.424 0.194-0.435 0.136-0.824 0.33-1.154 0.586-0.332 0.254-0.585 0.569-0.766 0.929-0.179 0.359-0.27 0.78-0.27 1.229 0 0.344 0.060 0.629 0.181 0.885 0.119 0.254 0.299 0.465 0.554 0.659s0.585 0.359 1.005 0.509 0.914 0.301 1.499 0.436c0.778 0.18 1.319 0.345 1.648 0.51 0.33 0.149 0.495 0.39 0.495 0.705 0 0.314-0.135 0.568-0.405 0.733s-0.659 0.255-1.139 0.255c-1.064 0-2.174-0.375-3.313-1.125l-0.975 1.619c0.271 0.181 0.57 0.346 0.915 0.495 0.345 0.15 0.704 0.271 1.079 0.375 0.375 0.105 0.765 0.181 1.17 0.24 0.404 0.060 0.779 0.074 1.139 0.074 0.569 0 1.080-0.074 1.544-0.209zM21.266 6.768c0.66 0 0.853 0.207 0.853 0.87v2.623c0 1.188 0.209 1.493 1.045 1.679v0.052c-0.836 0.185-1.045 0.476-1.045 1.663v2.643c0 0.659-0.192 0.929-0.853 0.929h-0.289c0 0-0.003 0.499-0.031 0.71 0.116 0 0.575-0.015 0.575-0.015 1.335 0 1.643-0.647 1.643-1.981v-2.398c0-0.965 0.56-1.095 0.837-1.095v-0.958c-0.277 0-0.837-0.133-0.837-1.109v-2.388c0-1.334-0.308-1.981-1.643-1.981 0 0-0.47 0.015-0.608 0.032 0.029 0.267 0.059 0.726 0.059 0.726h0.285zM20.444 17.049v-3.063c0-1.229 0.697-1.397 1.185-1.397v-1.21c-0.487 0-1.185-0.168-1.185-1.413v-3.048c0-1.697-0.269-2.518-1.969-2.518h-0.82v0.975h0.449c0.84 0 1.086 0.25 1.086 1.091v3.349c0 1.514 0.419 1.9 1.259 2.136v0.067c-0.84 0.235-1.244 0.605-1.244 2.119v3.364c0 0.843-0.24 1.191-1.079 1.191h-0.449v0.908h0.824c1.708 0 1.978-0.853 1.978-2.552z"/>
</svg>