<svg xmlns="http://www.w3.org/2000/svg" version="1.1" width="24" height="24" viewBox="0 0 24 24">
<path d="M11.992 1.395c-0.195 0.001-0.371 0.082-0.498 0.211l-0 0-11.332 11.492c-0.1 0.102-0.162 0.241-0.162 0.395 0 0 0 0.001 0 0.001v-0c0 0.313 0.254 0.566 0.566 0.566h2.104v8.074c0 0.26 0.21 0.471 0.471 0.471h7.947v-3.684l-3.051-3.055c-0.279 0.122-0.605 0.193-0.947 0.193h-0c-1.338 0-2.422-1.087-2.422-2.426s1.084-2.424 2.422-2.424c1.338 0 2.422 1.085 2.422 2.424 0 0.336-0.068 0.656-0.192 0.947l1.768 1.768v-5.375c-0.888-0.36-1.515-1.231-1.515-2.248 0-1.339 1.086-2.426 2.424-2.426s2.422 1.087 2.422 2.426c0 1.017-0.626 1.888-1.514 2.248v5.375l1.766-1.768c-0.121-0.278-0.191-0.603-0.191-0.943 0-0.001 0-0.003 0-0.004v0c0-1.339 1.086-2.424 2.424-2.424s2.422 1.085 2.422 2.424-1.084 2.426-2.422 2.426c-0.342-0-0.668-0.071-0.963-0.199l0.016 0.006-3.051 3.055v3.684h7.947c0 0 0 0 0 0 0.26 0 0.47-0.211 0.47-0.47 0-0 0-0 0-0.001v0-8.074h2.111c0.154-0 0.294-0.062 0.397-0.162l-0 0c0.223-0.219 0.226-0.577 0.008-0.801l-2.516-2.572v-4.055c0-0.26-0.21-0.473-0.471-0.473h-1.965c-0.26 0-0.471 0.212-0.471 0.473v1.104l-5.916-5.971c-0.128-0.129-0.305-0.209-0.501-0.209-0.002 0-0.005 0-0.007 0h0zM11.996 7.756c-0.535 0-0.969 0.435-0.969 0.971s0.434 0.969 0.969 0.969c0 0 0 0 0 0 0.535 0 0.968-0.434 0.968-0.968 0-0 0-0 0-0v0c0-0.536-0.433-0.971-0.969-0.971zM7.090 12.666c-0 0-0 0-0 0-0.535 0-0.968 0.434-0.968 0.968 0 0 0 0 0 0.001v-0c0 0.535 0.434 0.971 0.969 0.971s0.969-0.435 0.969-0.971c0-0 0-0 0-0 0-0.535-0.434-0.968-0.968-0.968-0 0-0 0-0.001 0h0zM16.902 12.666c-0.535 0-0.971 0.433-0.971 0.969s0.436 0.971 0.971 0.971c0.535 0 0.969-0.435 0.969-0.971 0-0 0-0 0-0 0-0.535-0.434-0.968-0.968-0.968-0 0-0 0-0.001 0h0z"/>
</svg>