<svg xmlns="http://www.w3.org/2000/svg" version="1.1" width="24" height="24" viewBox="0 0 24 24">
<path d="M20.987 6.248l0.041 0.002 0.039 0.006 0.040 0.011 0.039 0.015 0.038 0.020 0.039 0.022 0.035 0.030 0.035 0.029 0.037 0.045 0.046 0.045 0.030 0.045 0.044 0.045 0.075 0.119 0.029 0.060 0.029 0.075 0.030 0.074 0.031 0.074 0.028 0.074 0.058 0.18 0.030 0.090 0.031 0.089 0.029 0.104 0.028 0.104 0.031 0.105 0.030 0.104 0.058 0.208 0.030 0.12 0.030 0.118 0.029 0.135 0.015 0.12 0.029 0.134 0.030 0.134 0.017 0.135 0.028 0.149 0.015 0.148 0.015 0.149 0.031 0.149 0.015 0.149 0.016 0.148 0.015 0.165 0.015 0.164 0.015 0.163 0.015 0.165 0.015 0.164 0.016 0.179 0.015 0.343 0.016 0.179 0.015 0.179 0.030 0.36 0.045 0.579 0.016 0.195 0.015 0.193v0.388l0.016 0.209 0.015 0.209v0.403l0.015 0.208v0.611l0.015 0.419 0.015 0.625v1.269l0.015 0.373 0.030 0.269 0.046 0.179 0.043 0.119 0.047 0.104 0.059 0.090 0.045 0.044 0.045 0.045 0.044 0.045 0.062 0.029 0.089 0.046 0.089 0.029 0.096 0.030 0.142 0.029 0.193 0.011 0.269-0.016h0.1v2.253l-0.239 0.029-0.566 0.026-0.61-0.029-0.448-0.067-0.344-0.089-0.254-0.089-0.237-0.119-0.236-0.15-0.208-0.184-0.134-0.134-0.136-0.149-0.17-0.269-0.15-0.313-0.119-0.342-0.082-0.403-0.054-0.456-0.015-0.508v-1.938l-0.015-0.418v-0.865l-0.015-0.402v-0.287l-0.016-0.199v-0.397l-0.015-0.194v-0.193l-0.008-0.193-0.015-0.194-0.014-0.179-0.003-0.18-0.015-0.179-0.015-0.183v-0.178l-0.015-0.18-0.017-0.179-0.012-0.179-0.014-0.17-0.017-0.17-0.015-0.164-0.015-0.169-0.015-0.16-0.014-0.163-0.015-0.164-0.017-0.15-0.015-0.148-0.016-0.158-0.015-0.141-0.015-0.135-0.044-0.278-0.016-0.134-0.015-0.135-0.030-0.125-0.026-0.135-0.029-0.118-0.030-0.12-0.031-0.119-0.034-0.103-0.029-0.104-0.025-0.103-0.045-0.090-0.029-0.104-0.029-0.089-0.022-0.090-0.029-0.089-0.031-0.090-0.030-0.074-0.029-0.076-0.029-0.074-0.030-0.059-0.030-0.061-0.029-0.060-0.044-0.060-0.030-0.045-0.036-0.045-0.031-0.044-0.041-0.030-0.028-0.029-0.046-0.030-0.028-0.015-0.046-0.016-0.049-0.012-0.044-0.016-0.030-0.015h2.522zM0.008 3.082l1.169 0.021 1.089 0.026 0.97 0.015 0.851 0.030 0.73 0.029 0.642 0.029 0.567 0.030 0.506 0.029 0.463 0.046 0.418 0.044 0.387 0.046 0.357 0.044 0.642 0.090 0.283 0.061 0.27 0.059 0.252 0.059 0.24 0.060 0.223 0.060 0.209 0.060 0.194 0.075 0.194 0.059 0.179 0.074 0.163 0.076 0.166 0.074 0.148 0.074 0.164 0.074 0.148 0.090 0.27 0.18 0.119 0.088 0.357 0.27 0.104 0.090 0.104 0.104 0.104 0.090 0.105 0.104 0.18 0.208 0.104 0.105 0.18 0.208 0.074 0.104 0.090 0.105 0.074 0.119 0.074 0.104 0.074 0.119 0.075 0.12 0.074 0.119 0.074 0.12 0.060 0.119 0.061 0.119 0.074 0.119 0.18 0.357 0.060 0.12 0.045 0.118 0.048 0.12 0.060 0.135 0.050 0.118 0.060 0.135 0.060 0.119 0.044 0.119 0.061 0.135 0.054 0.135 0.044 0.119 0.051 0.134 0.045 0.12 0.045 0.133 0.090 0.27 0.045 0.134 0.044 0.135 0.030 0.134 0.045 0.135 0.039 0.135 0.029 0.133 0.039 0.135 0.029 0.135 0.041 0.134 0.029 0.134 0.045 0.135 0.029 0.119 0.045 0.135v0.014l0.029 0.12 0.031 0.127 0.029 0.134 0.029 0.135 0.030 0.119 0.030 0.135 0.029 0.133 0.045 0.12 0.029 0.134 0.030 0.119 0.030 0.135 0.058 0.238 0.030 0.12 0.030 0.119 0.029 0.12 0.060 0.238 0.058 0.238 0.060 0.238 0.014 0.12 0.030 0.104 0.046 0.223 0.029 0.105 0.029 0.104 0.030 0.104 0.022 0.104 0.029 0.104 0.016 0.104 0.029 0.104 0.030 0.104 0.015 0.104 0.029 0.105 0.030 0.090 0.030 0.097 0.015 0.089 0.030 0.090 0.015 0.090 0.015 0.089 0.015 0.090 0.015 0.075 0.016 0.090 0.015 0.085 0.016 0.075 0.014 0.074 0.016 0.078 0.024 0.074 0.015 0.074 0.015 0.075 0.015 0.068 0.016 0.060 0.023 0.074 0.023 0.061 0.016 0.065 0.015 0.060 0.016 0.060 0.045 0.18 0.015 0.045 0.030 0.051 0.030 0.090 0.016 0.044 0.029 0.046 0.015 0.044 0.038 0.075 0.015 0.038 0.030 0.061 0.015 0.029 0.015 0.030 0.015 0.029 0.016 0.030 0.045 0.045 0.016 0.015 0.015 0.016 0.029 0.016 0.016 0.004 0.015 0.015h-6.997l-0.051-0.015-0.057-0.016-0.057-0.014-0.060-0.016-0.060-0.015h-0.016l-0.052-0.024-0.056-0.015-0.057-0.031-0.061-0.030-0.044-0.029-0.060-0.030-0.045-0.029-0.061-0.030-0.088-0.090-0.061-0.045-0.045-0.045-0.060-0.044-0.060-0.060-0.060-0.056-0.044-0.060-0.061-0.054-0.060-0.045-0.060-0.060-0.061-0.060-0.044-0.060-0.062-0.005-0.059-0.060-0.045-0.068-0.054-0.065-0.119-0.148-0.059-0.075-0.045-0.074-0.061-0.090-0.059-0.074-0.061-0.090-0.060-0.075-0.060-0.088-0.12-0.18-0.061-0.090-0.059-0.090-0.061-0.090-0.060-0.089-0.060-0.104-0.059-0.090-0.046-0.104-0.060-0.105-0.060-0.104-0.060-0.105-0.061-0.104-0.059-0.104-0.12-0.208-0.061-0.104-0.059-0.104-0.061-0.104-0.059-0.104-0.061-0.119-0.060-0.12-0.060-0.119-0.061-0.12-0.059-0.119-0.061-0.119-0.059-0.119-0.060-0.119-0.135-0.028-0.049-0.126-0.059-0.123-0.061-0.123-0.059-0.125-0.064-0.125-0.060-0.127-0.060-0.119-0.064-0.119-0.060-0.119-0.063-0.119-0.060-0.119-0.060-0.15-0.060-0.134-0.063-0.119-0.063-0.12-0.060-0.134-0.063-0.119-0.061-0.135-0.060-0.119-0.060-0.135-0.12-0.268-0.058-0.134-0.059-0.135-0.061-0.119-0.059-0.134-0.059-0.133-0.059-0.135-0.060-0.135-0.060-0.134-0.119-0.268-0.060-0.149-0.060-0.12-0.059-0.134-0.061-0.12-0.060-0.119-0.073-0.118-0.060-0.135-0.074-0.12-0.060-0.118-0.074-0.12-0.061-0.119-0.059-0.12-0.12-0.238-0.059-0.137-0.12-0.239-0.060-0.119-0.061-0.119-0.148-0.238-0.135-0.229-0.058-0.119-0.074-0.11-0.076-0.12-0.059-0.112-0.061-0.104-0.125-0.208-0.074-0.106-0.061-0.103-0.058-0.105-0.061-0.089-0.060-0.105-0.063-0.104-0.066-0.090-0.059-0.090-0.074-0.090-0.076-0.088-0.059-0.089-0.075-0.090-0.088-0.117-0.067-0.076-0.069-0.078-0.059-0.074-0.058-0.1-0.074-0.074-0.066-0.060-0.075-0.069-0.062-0.065-0.075-0.081-0.13-0.12-0.068-0.058-0.067-0.053-0.069-0.045-0.070-0.045-0.064-0.059-0.075-0.046-0.060-0.044-0.074-0.044-0.067-0.030-0.068-0.030-0.070-0.030-0.071-0.030-0.068-0.031-0.059-0.023-0.060-0.006h0.008z"/>
</svg>