<svg xmlns="http://www.w3.org/2000/svg" version="1.1" width="24" height="24" viewBox="0 0 24 24">
<path d="M15.345 12.506l2.37 3.131c0.198 0.261 0.211 0.69 0.025 0.961l-0.119 0.177c-0.181 0.27-0.55 0.645-0.814 0.831l-0.285 0.201c-0.266 0.195-0.697 0.195-0.956-0.016l-3.135-2.369c-0.255-0.195-0.681-0.195-0.94 0l-3.136 2.369c-0.258 0.211-0.689 0.211-0.956 0.030l-0.207-0.135c-0.27-0.181-0.641-0.556-0.825-0.81l-0.181-0.256c-0.186-0.27-0.18-0.689 0.018-0.96l2.377-3.149c0.195-0.256 0.195-0.675 0-0.945l-2.384-3.136c-0.194-0.263-0.203-0.69-0.013-0.957l0.2-0.285c0.187-0.264 0.56-0.629 0.828-0.814l0.175-0.119c0.27-0.196 0.703-0.182 0.961 0.014l3.135 2.37c0.26 0.195 0.684 0.195 0.942 0l3.135-2.385c0.258-0.195 0.698-0.226 0.979-0.061l0.33 0.195c0.28 0.165 0.639 0.524 0.795 0.81l0.12 0.21c0.154 0.285 0.123 0.721-0.075 0.99l-2.37 3.135c-0.194 0.255-0.194 0.676 0 0.945zM12 0c-6.63 0-12 5.373-12 12s5.37 12 12 12c6.627 0 12-5.373 12-12s-5.373-12-12-12z"/>
</svg>