<svg xmlns="http://www.w3.org/2000/svg" version="1.1" width="24" height="24" viewBox="0 0 24 24">
<path d="M8.571 23.429c0 0.315-0.256 0.571-0.571 0.571v0h-5.714c-0.316 0-0.571-0.256-0.571-0.572s0.256-0.572 0.571-0.572v0h5.714c0.316 0 0.571 0.256 0.571 0.572zM8 20.57h-1.143c-0.316 0-0.572 0.256-0.572 0.572s0.256 0.572 0.572 0.572v0h1.143c0.316 0 0.572-0.256 0.572-0.572s-0.256-0.572-0.572-0.572v0zM2.286 21.713h2.284c0.316 0 0.571-0.256 0.571-0.572s-0.256-0.572-0.572-0.572v0h-2.284c-0.316 0-0.572 0.256-0.572 0.572s0.256 0.572 0.572 0.572v0zM8 18.286h-5.714c-0.316 0-0.571 0.256-0.571 0.572s0.256 0.572 0.571 0.572v0h5.714c0.316 0 0.572-0.256 0.572-0.572s-0.256-0.572-0.572-0.572v0zM16 16h-10.286c-0.316 0-0.572 0.256-0.572 0.572s0.256 0.572 0.572 0.572v0h10.286c0.316 0 0.572-0.256 0.572-0.572s-0.256-0.572-0.572-0.572v0zM2.286 17.143h1.143c0.316 0 0.571-0.256 0.571-0.572s-0.256-0.572-0.572-0.572v0h-1.143c-0.316 0-0.572 0.256-0.572 0.572s0.256 0.572 0.572 0.572v0zM19.429 13.714h-3.429c-0.316 0-0.572 0.256-0.572 0.572s0.256 0.572 0.572 0.572v0h3.429c0.316 0 0.572-0.256 0.572-0.572s-0.256-0.572-0.572-0.572v0zM9.143 14.857h4.571c0.316 0 0.572-0.256 0.572-0.572s-0.256-0.572-0.572-0.572v0h-4.571c-0.316 0-0.572 0.256-0.572 0.572s0.256 0.572 0.572 0.572v0zM2.286 14.857h4.571c0.316 0 0.572-0.256 0.572-0.572s-0.256-0.572-0.572-0.572v0h-4.571c-0.316 0-0.571 0.256-0.571 0.572s0.256 0.572 0.571 0.572v0zM20.57 11.43h-9.14c-0.315 0-0.571 0.256-0.571 0.571s0.256 0.571 0.571 0.571h9.142c0.315-0.001 0.57-0.256 0.57-0.571s-0.256-0.571-0.571-0.571c-0 0-0.001 0-0.001 0h0zM9.714 12c0-0.315-0.256-0.571-0.571-0.571v0h-3.429c-0.315 0-0.571 0.256-0.571 0.571s0.256 0.571 0.571 0.571h3.429c0.315 0 0.571-0.256 0.571-0.571v0zM2.286 12.571h1.143c0.315 0 0.571-0.256 0.571-0.571s-0.256-0.571-0.571-0.571h-1.143c-0.315 0-0.571 0.256-0.571 0.571s0.256 0.571 0.571 0.571v0zM21.714 9.143h-5.714c-0.316 0-0.572 0.256-0.572 0.572s0.256 0.572 0.572 0.572v0h5.714c0.316 0 0.572-0.256 0.572-0.572s-0.256-0.572-0.572-0.572v0zM2.286 10.286h5.714c0.316 0 0.571-0.256 0.571-0.572s-0.256-0.572-0.571-0.572v0h-5.714c-0.316 0-0.572 0.256-0.572 0.572s0.256 0.572 0.572 0.572v0zM15.429 7.429c0 0.315 0.255 0.571 0.571 0.571h5.714c0.316 0 0.572-0.256 0.572-0.572s-0.256-0.572-0.572-0.572v0h-5.714c0 0 0 0 0 0-0.315 0-0.571 0.256-0.571 0.571 0 0 0 0.001 0 0.001v-0zM6.857 6.857c-0.316 0-0.572 0.256-0.572 0.572s0.256 0.572 0.572 0.572v0h1.143c0.316 0 0.571-0.256 0.571-0.572s-0.256-0.572-0.571-0.572v0zM2.286 8h2.284c0.316 0 0.571-0.256 0.571-0.572s-0.256-0.572-0.572-0.572v0h-2.284c-0.316 0-0.572 0.256-0.572 0.572s0.256 0.572 0.572 0.572v0zM18.857 5.143c0 0.315 0.256 0.571 0.572 0.571h1.142c0.316 0 0.572-0.256 0.572-0.572s-0.256-0.572-0.572-0.572v0h-1.141c-0.001 0-0.001 0-0.002 0-0.315 0-0.571 0.256-0.571 0.571 0 0 0 0.001 0 0.001v-0zM17.714 5.143c0-0 0-0.001 0-0.001 0-0.315-0.256-0.571-0.571-0.571 0 0 0 0 0 0h-4.573c-0.316 0-0.572 0.256-0.572 0.572s0.256 0.572 0.572 0.572v0h4.572c0 0 0.001 0 0.001 0 0.315 0 0.571-0.256 0.571-0.571 0 0 0 0 0 0v0zM2.286 5.714h8c0.316 0 0.572-0.256 0.572-0.571s-0.256-0.572-0.572-0.572v0h-8c-0.316 0-0.571 0.256-0.571 0.572s0.256 0.572 0.571 0.572v0zM7.429 2.857c0 0.316 0.255 0.572 0.571 0.572h11.429c0.316 0 0.572-0.256 0.572-0.572s-0.256-0.571-0.572-0.571v0h-11.429c-0.315 0-0.571 0.256-0.571 0.571v0zM2.286 3.429h3.428c0.316 0 0.571-0.256 0.571-0.572s-0.256-0.571-0.572-0.571v0h-3.428c-0.316 0-0.572 0.256-0.572 0.571s0.256 0.572 0.572 0.572v0zM2.286 1.143h13.714c0.316 0 0.572-0.256 0.572-0.572s-0.256-0.572-0.572-0.572v0h-13.714c-0.316 0-0.571 0.256-0.571 0.572s0.256 0.572 0.571 0.572v0z"/>
</svg>