<svg xmlns="http://www.w3.org/2000/svg" version="1.1" width="24" height="24" viewBox="0 0 24 24">
<path d="M2.93 15.475l6.396 0.004-3.582 6.758c-3.566-2.18-5.742-6.057-5.744-10.237 0-6.617 5.383-12 12-12 1.761 0 3.436 0.381 4.94 1.064l-11.512 11.516h10.25l-7.539 7.614 3.115-5.876h-7.459c-0.34-1.154-0.318-2.318-0.318-2.318 0.006-4.713 3.831-8.529 8.544-8.523 0.093 0 0.187 0.002 0.28 0.005l1.094-1.099c-0.455-0.065-0.915-0.098-1.375-0.098-5.356 0-9.73 4.357-9.73 9.715-0.001 0-0.061 1.719 0.64 3.475zM18.255 1.764c3.565 2.179 5.742 6.056 5.745 10.236 0 6.616-5.384 12-12 12-1.704 0.003-3.389-0.36-4.941-1.065l11.426-11.513h-10.28l7.656-7.616-3.115 5.876h7.46c0.319 1.079 0.319 2.318 0.319 2.318-0.008 4.714-3.834 8.529-8.547 8.522-0.105 0-0.21-0.002-0.314-0.006l-1.084 1.096c5.314 0.777 10.256-2.901 11.032-8.218 0.067-0.461 0.103-0.928 0.103-1.395 0-1.189-0.22-2.369-0.647-3.479h-6.394z"/>
</svg>