<svg xmlns="http://www.w3.org/2000/svg" version="1.1" width="24" height="24" viewBox="0 0 24 24">
<path d="M23.958 11.26c-0.378-6.256-5.554-11.215-11.896-11.254h-0.142c-2.24 0.016-4.336 0.64-6.125 1.724-1.652 0.998-3.043 2.384-4.048 4.033-0.987 1.615-1.597 3.487-1.724 5.49-0.015 0.247-0.023 0.494-0.023 0.747 0 0.25 0.010 0.5 0.025 0.746 0.123 2.003 0.734 3.873 1.723 5.49 1 1.648 2.384 3.030 4.024 4.033 1.798 1.074 3.897 1.705 6.13 1.72h0.18c6.343-0.043 11.498-4.99 11.89-11.24 0.014-0.24 0.030-0.496 0.030-0.735s0-0.495-0.016-0.734zM12.002 15.64v3.83c0.096 2.34-0.57 2.73-1.37 2.766-0.034 0-0.066 0.003-0.1 0.004-4.556-0.645-8.158-4.257-8.784-8.823-0.066-0.464-0.1-0.938-0.1-1.42 0-0.48 0.034-0.953 0.1-1.418 0.625-4.56 4.218-8.17 8.77-8.82l0.115 0.010c0.8 0.043 1.465 0.43 1.37 2.764v3.828c-0.010 1.573 0.895 3.072 1.857 3.64-0.962 0.56-1.868 1.875-1.858 3.639z"/>
</svg>