<svg xmlns="http://www.w3.org/2000/svg" version="1.1" width="24" height="24" viewBox="0 0 24 24">
<path d="M3.16 0c-0.001 0-0.003 0-0.004 0-1.742 0-3.154 1.411-3.156 3.152v17.69c0.002 1.744 1.416 3.157 3.16 3.158h17.68c1.747 0 3.16-1.42 3.16-3.16v-17.68c0-1.747-1.42-3.16-3.16-3.16zM11.030 3.494h2.429c0 0 0.001 0 0.001 0 0.574 0 1.040 0.466 1.040 1.040 0 0 0 0.001 0 0.001v-0 0.822c0 0.001 0 0.003 0 0.004 0 0.077-0.063 0.14-0.14 0.14-0.012 0-0.024-0.002-0.035-0.004l0.001 0c-0.612-0.175-1.316-0.276-2.043-0.276h-0c-0.003 0-0.006 0-0.010 0-0.749 0-1.473 0.108-2.157 0.311l0.054-0.014c-0.095 0.021-0.182-0.045-0.182-0.14v-0.843c0-0 0-0.001 0-0.001 0-0.574 0.466-1.039 1.042-1.040h0zM6.68 5.714c0.003-0 0.008-0 0.012-0 0.289 0 0.55 0.117 0.738 0.306l0.414 0.416c0.058 0.065 0.051 0.167-0.022 0.21-0.349 0.252-0.656 0.515-0.941 0.801l-0 0c-0.281 0.283-0.541 0.587-0.777 0.909l-0.016 0.023c-0.058 0.065-0.153 0.080-0.219 0.016l-0.408-0.409c-0.189-0.188-0.306-0.449-0.306-0.736s0.117-0.548 0.306-0.736l0.496-0.494c0.185-0.186 0.44-0.302 0.722-0.306h0.001zM12.277 6.064c0.004 0 0.008-0 0.013-0 3.741 0 6.774 3.033 6.774 6.774 0 0.001 0 0.003 0 0.004v-0c-0.001 3.746-3.038 6.783-6.784 6.783-0.001 0-0.002 0-0.003 0h0c-3.748 0-6.789-3.028-6.789-6.777 0.001-3.747 3.039-6.784 6.786-6.784 0.001 0 0.002 0 0.003 0h-0zM12.277 8.072c0 0 0 0 0 0-2.639 0-4.779 2.137-4.783 4.776v0c0.005 2.638 2.144 4.775 4.783 4.775v0c0.002 0 0.005 0 0.007 0 2.638 0 4.776-2.138 4.777-4.775v-0c-0.003-2.638-2.143-4.776-4.782-4.776-0.001 0-0.001 0-0.002 0h0zM12.422 8.91c1.405 0.053 2.616 0.832 3.271 1.969l0.010 0.019c0.036 0.073 0.015 0.16-0.057 0.196l-3.166 1.638c-0.093 0.052-0.205-0.023-0.205-0.125v-3.557h0.002c0-0.080 0.072-0.139 0.145-0.14z"/>
</svg>