<svg xmlns="http://www.w3.org/2000/svg" version="1.1" width="24" height="24" viewBox="0 0 24 24">
<path d="M5.272 20.562h4.928l2.657 2.657c0.873 0.874 2.114 1.039 2.782 0.371l7.951-7.951c0.668-0.668 0.503-1.909-0.37-2.782l-12.078-12.076c-0.872-0.874-2.113-1.039-2.782-0.371l-7.95 7.95c-0.668 0.668-0.503 1.909 0.37 2.782l4.492 4.492zM7.414 18.42v-3.768l-0.88-0.88h0.016l-2.507-2.507c-0.873-0.873-1.039-2.114-0.371-2.782l4.811-4.811c0.668-0.668 1.909-0.502 2.782 0.371l8.692 8.692c0.873 0.873 1.039 2.114 0.371 2.782l-4.811 4.811c-0.438 0.438-1.12 0.511-1.786 0.269 0.332-0.555 0.552-1.485 0.561-2.542 0.001-0.107-0.001-0.212-0.004-0.316l0 0.013c-0.204-0.428-0.47-0.688-0.762-0.691-0.302-0.002-0.58 0.272-0.796 0.727l0.002-0.004c-0.38 0.049-0.714 0.527-0.929 1.243l-0.002 0.009-0.618-0.617zM5.172 11.24c0.295 0.295 0.702 0.477 1.151 0.477s0.856-0.182 1.151-0.477v0c0.295-0.295 0.477-0.702 0.477-1.151s-0.182-0.856-0.477-1.151v0c-0.295-0.295-0.702-0.477-1.152-0.477s-0.857 0.182-1.151 0.477v0c-0.294 0.295-0.476 0.701-0.476 1.151s0.182 0.857 0.477 1.151v0z"/>
</svg>