<svg xmlns="http://www.w3.org/2000/svg" version="1.1" width="24" height="24" viewBox="0 0 24 24">
<path d="M22.61 24h-21.22v-1.090h21.22zM21.81 20.82h-19.58v1.51h19.58zM21.58 3.66h-19.48v2.090h19.48zM11.84 0l-10.2 2.39 0.59 0.61h19.23l0.54-0.61zM3.71 20.21c0.018 0 0.040 0.001 0.061 0.001 0.334 0 0.657-0.048 0.963-0.137l-0.024 0.006c0.16-1.74 0.25-4.9 0.25-6.87s-0.090-5-0.24-6.76c-0.010-0.072-0.061-0.13-0.129-0.15l-0.001-0c-0.252-0.064-0.54-0.1-0.838-0.1-0.001 0-0.002 0-0.002 0h0c-0.295 0.002-0.581 0.038-0.855 0.105l0.025-0.005c-0.069 0.020-0.12 0.078-0.13 0.149l-0 0.001c-0.16 1.76-0.24 4.82-0.24 6.76s0.090 5.13 0.25 6.87c0.272 0.081 0.585 0.129 0.909 0.13h0.001zM9.020 20.21c0.021 0 0.046 0.001 0.070 0.001 0.331 0 0.651-0.048 0.953-0.137l-0.024 0.006c0.16-1.74 0.25-4.9 0.25-6.87s-0.090-5-0.24-6.76c-0.010-0.072-0.061-0.13-0.129-0.15l-0.001-0c-0.252-0.064-0.54-0.101-0.838-0.101-0.022 0-0.044 0-0.066 0.001l0.003-0c-0.299 0.002-0.588 0.038-0.866 0.105l0.026-0.005c-0.069 0.020-0.12 0.078-0.13 0.149l-0 0.001c-0.15 1.76-0.24 4.82-0.24 6.76s0.090 5.13 0.25 6.87c0.278 0.083 0.597 0.13 0.927 0.13 0.019 0 0.037-0 0.056-0l-0.003 0zM15.17 20.21c0.021 0 0.046 0.001 0.070 0.001 0.331 0 0.651-0.048 0.953-0.137l-0.024 0.006c0.16-1.74 0.25-4.9 0.25-6.87s-0.080-5-0.24-6.76c-0.010-0.085-0.082-0.15-0.169-0.15-0.004 0-0.008 0-0.012 0l0.001-0c-0.249-0.063-0.535-0.1-0.83-0.1h-0c-0.295 0.001-0.581 0.038-0.855 0.105l0.025-0.005c-0.073 0.016-0.129 0.075-0.14 0.149l-0 0.001c-0.15 1.76-0.24 4.82-0.24 6.76s0.090 5.13 0.26 6.87c0.274 0.083 0.589 0.13 0.915 0.13 0.012 0 0.025-0 0.037-0l-0.002 0zM20.35 20.21c0.007 0 0.015 0 0.023 0 0.33 0 0.649-0.048 0.951-0.136l-0.024 0.006c0.16-1.74 0.25-4.9 0.25-6.87s-0.080-5-0.24-6.76c-0.010-0.072-0.061-0.13-0.129-0.15l-0.001-0c-0.249-0.063-0.535-0.1-0.83-0.1h-0c-0.299 0.002-0.588 0.038-0.866 0.105l0.026-0.005c-0.069 0.020-0.12 0.078-0.13 0.149l-0 0.001c-0.15 1.76-0.24 4.82-0.24 6.76s0.090 5.13 0.25 6.87c0.277 0.083 0.596 0.13 0.926 0.13 0.012 0 0.024-0 0.036-0l-0.002 0z"/>
</svg>