<svg xmlns="http://www.w3.org/2000/svg" version="1.1" width="24" height="24" viewBox="0 0 24 24">
<path d="M9.341 0.002c-0.176 0.008-0.342 0.033-0.502 0.073l0.018-0.004c-1.356 0.308-2.157 1.664-1.85 3.021l1.405 5.048-5.044-1.655c-1.295-0.432-2.713 0.308-3.145 1.603-0.431 1.295 0.31 2.714 1.603 3.146l5.853 1.919-4.063 4.556c-0.378 0.448-0.611 1.029-0.618 1.664l-0 0.002c0.005 1.36 1.106 2.462 2.467 2.466h0c0.678 0 1.357-0.308 1.85-0.863l3.563-3.979 1.433 5.151c0.295 1.072 1.259 1.846 2.405 1.85h0.001c0.185 0 0.431-0.061 0.617-0.123 1.058-0.313 1.817-1.275 1.817-2.415 0-0.238-0.033-0.468-0.095-0.686l0.004 0.018-1.38-5.017 4.957 1.625c0.309 0.062 0.556 0.123 0.802 0.123 1.111 0 2.036-0.678 2.343-1.726 0.433-1.296-0.308-2.714-1.603-3.146l-5.728-1.878 4.063-4.537c0.925-1.048 0.863-2.59-0.185-3.514-1.049-0.926-2.59-0.864-3.516 0.184l-3.571 4.006-1.424-5.178c-0.324-1.080-1.356-1.781-2.477-1.733z"/>
</svg>