<svg xmlns="http://www.w3.org/2000/svg" version="1.1" width="24" height="24" viewBox="0 0 24 24">
<path d="M22.877 0v0.738h0.738v-0.738zM22.877 0.738h-0.738v0.739h0.738zM22.877 1.477v0.738h0.738v-0.738zM22.139 1.477h-1.477v0.738h-0.738v1.475h-0.738v0.74h-1.479v0.725c-1.807-1.485-4.143-2.385-6.689-2.385-0.006 0-0.013 0-0.019 0h0.001c-5.864 0-10.615 4.75-10.615 10.615 0 5.863 4.751 10.615 10.615 10.615s10.615-4.752 10.615-10.615c0-2.56-0.904-4.906-2.412-6.739h0.72v-0.738h0.74v-1.478h0.737v-0.74h0.739v-0.738h-0.739v-0.738h0.739zM19.186 3.69v-0.738h-0.74v0.738zM11 6.154c0.003 0 0.007 0 0.010 0 1.501 0 2.894 0.46 4.048 1.246l-0.025-0.016h-0.28v0.739h-0.737c-1.927 2.409-2.414 3.466-3.182 5.414-0.871-1.763-1.911-2.978-3.711-3.783l-0.020-0.006c-0.327-0.083-0.493-0.125-0.718 0.19-0.23 0.322-0.092 0.613 0.183 0.955 0.239 0.295 0.431 0.523 0.625 0.75l-0.039-0.047c0.547 0.646 1.095 1.289 1.508 2.035 0.408 0.738 0.877 1.772 1.242 2.574 0.223 0.49 0.406 0.894 0.51 1.088 0.22 0.406 0.752 0.584 0.955 0.584 0.985-0.117 1.080-0.582 1.242-1.379l0.057-0.264c0.336-1.574 0.771-3.203 2.824-5.158v-0.736h0.738v-0.74h0.74v-0.295c0.789 1.138 1.26 2.547 1.26 4.067 0 0.005 0 0.009-0 0.014v-0.001c0 3.99-3.24 7.23-7.23 7.23s-7.2-3.24-7.2-7.23 3.21-7.23 7.2-7.231z"/>
</svg>