<svg xmlns="http://www.w3.org/2000/svg" version="1.1" width="24" height="24" viewBox="0 0 24 24">
<path d="M16.56 3c-2.41 0-4.52 1.24-5.88 2.97v3.79c1.82-5.050 5.88-4.68 5.88-4.68 2.94 0 5.28 2.3 5.28 5.12 0 2.84-2.34 5.13-5.28 5.13-0.005 0-0.011 0-0.017 0-1.44 0-2.746-0.572-3.704-1.501l0.001 0.001-2.56-2.8c-1.090-1.058-2.578-1.71-4.219-1.71-0.011 0-0.022 0-0.032 0h0.002c-3.33 0-6.030 2.61-6.030 5.84 0 3.24 2.7 5.84 6.030 5.84 1.87 0 3.55-0.81 4.65-2.11v-3.030c-1.8 3.43-4.65 3.060-4.65 3.060-2.13 0-3.86-1.68-3.86-3.76 0-2.060 1.73-3.74 3.86-3.74 1.060 0 2.020 0.42 2.72 1.080l2.56 2.81c1.349 1.311 3.193 2.12 5.226 2.12 0.009 0 0.017-0 0.026-0h-0.001c4.11 0 7.44-3.24 7.44-7.23s-3.33-7.2-7.44-7.2z"/>
</svg>