<svg xmlns="http://www.w3.org/2000/svg" version="1.1" width="24" height="24" viewBox="0 0 24 24">
<path d="M8.1 24h7.8v-5.85l-1.95-1.801h-3.9l-1.95 1.801zM18.15 8.1l-1.801 1.95v3.9l1.801 1.95h5.85v-7.8zM15.9 0h-7.8v5.85l1.95 1.801h3.9l1.95-1.801zM24 24v-5.85l-1.801-1.801h-5.85v7.651zM1.8 0l-1.8 1.8v5.85h7.65v-7.65zM16.35 0v5.85l1.8 1.8h5.85v-7.65zM12 13.050c-0.6 0-1.050-0.45-1.050-1.050s0.45-1.050 1.050-1.050 1.050 0.45 1.050 1.050-0.45 1.050-1.050 1.050zM7.65 18.15l-1.8-1.8h-5.85v7.65h5.85l1.801-1.801zM7.65 8.1h-7.65v7.8h5.85l1.801-1.95z"/>
</svg>