<svg xmlns="http://www.w3.org/2000/svg" version="1.1" width="24" height="24" viewBox="0 0 24 24">
<path d="M24 11.599v0.803c-0.008 0.044-0.017 0.087-0.022 0.13-0.040 0.35-0.067 0.701-0.124 1.048-0.199 1.184-0.611 2.242-1.197 3.18l0.021-0.036c-0.88 1.444-2.118 2.591-3.594 3.337l-0.051 0.023c-0.816 0.421-1.767 0.718-2.772 0.839l-0.040 0.004c-0.217 0.026-0.435 0.049-0.652 0.073h-8.431c-0.043-0.008-0.085-0.020-0.128-0.024-0.897-0.056-1.731-0.271-2.493-0.616l0.045 0.018c-1.697-0.755-2.963-1.98-3.791-3.664-0.347-0.689-0.594-1.49-0.697-2.335l-0.003-0.035-0.071-0.602v-0.78c0.008-0.043 0.020-0.086 0.023-0.13 0.045-0.793 0.211-1.534 0.478-2.225l-0.017 0.050c0.716-1.88 1.966-3.276 3.738-4.179 0.852-0.44 1.852-0.719 2.912-0.769l0.016-0.001c0.112-0.006 0.244-0.009 0.376-0.009 0.398 0 0.789 0.029 1.171 0.085l-0.043-0.005c0.005 0 0.011 0.001 0.017 0.001 0.048 0 0.092-0.018 0.125-0.048l-0 0c0.695-0.725 1.507-1.33 2.407-1.787l0.051-0.023c0.82-0.422 1.775-0.722 2.784-0.844l0.041-0.004c0.234-0.027 0.467-0.050 0.7-0.074h0.72c0.046 0.007 0.094 0.016 0.14 0.021 0.357 0.043 0.715 0.070 1.068 0.13 1.16 0.204 2.194 0.619 3.106 1.206l-0.033-0.020c1.434 0.904 2.568 2.165 3.296 3.66l0.023 0.053c0.415 0.832 0.708 1.8 0.826 2.821l0.004 0.041c0.026 0.229 0.048 0.458 0.072 0.687zM10.58 6.399c0.015 0.020 0.019 0.029 0.025 0.032 0.493 0.247 0.965 0.538 1.41 0.867 0.028 0.020 0.098 0.012 0.132-0.010 1.222-0.787 2.547-1.059 3.97-0.802 1.395 0.251 2.53 0.96 3.397 2.092 0.982 1.28 1.357 2.73 1.086 4.34-0.182 1.080-0.608 2.050-1.33 2.861-1.32 1.48-2.973 2.092-4.918 1.833-1.197-0.16-2.23-0.685-3.086-1.564-1.098-1.128-2.204-2.248-3.305-3.373-0.147-0.15-0.31-0.27-0.521-0.297-0.033-0.005-0.072-0.007-0.111-0.007-0.334 0-0.621 0.198-0.751 0.482l-0.002 0.005c-0.142 0.3-0.124 0.64 0.185 0.948 1.227 1.226 2.444 2.462 3.67 3.69 0.21 0.21 0.435 0.405 0.674 0.582 0.896 0.661 1.906 1.027 3 1.174 0.858 0.116 1.71 0.090 2.555-0.102 1.612-0.369 2.948-1.205 4-2.497 0.829-1.006 1.394-2.259 1.572-3.634l0.004-0.036c0.042-0.295 0.066-0.635 0.066-0.981 0-0.488-0.048-0.964-0.139-1.425l0.008 0.046c-0.244-1.27-0.773-2.408-1.62-3.377-1.618-1.846-3.653-2.67-6.074-2.487-0.98 0.083-1.878 0.366-2.675 0.807l0.034-0.017c-0.477 0.254-0.888 0.537-1.265 0.858l0.010-0.008zM9.988 19.29c-0.042-0.039-0.074-0.070-0.107-0.1l0.007 0.006c-0.501-0.482-1.006-0.96-1.502-1.449-0.074-0.084-0.182-0.137-0.303-0.137-0.006 0-0.012 0-0.018 0l0.001-0c-0.502 0.012-1.005 0.014-1.5-0.1-2.461-0.565-3.89-3.286-2.983-5.68 0.715-1.889 2.696-3.038 4.649-2.684 0.875 0.159 1.644 0.536 2.274 1.197 0.77 0.808 1.562 1.592 2.34 2.391 0.176 0.182 0.38 0.265 0.625 0.23 0.316-0.046 0.569-0.2 0.683-0.516 0.112-0.31 0.058-0.605-0.173-0.844-0.816-0.84-1.613-1.702-2.462-2.507-1.647-1.561-3.588-2.026-5.736-1.362-2.888 0.893-4.579 3.926-3.919 6.919 0.602 2.727 2.947 4.64 5.691 4.643h2.299c0.038 0 0.076-0.004 0.134-0.007z"/>
</svg>