<svg xmlns="http://www.w3.org/2000/svg" version="1.1" width="24" height="24" viewBox="0 0 24 24">
<path d="M18.197 24h-12.393c-0.531-0.002-0.96-0.431-0.962-0.962v-9.168c0-0.529 0.433-0.962 0.962-0.962h1.164v-1.482c0-2.775 2.258-5.032 5.032-5.032s5.032 2.258 5.032 5.032v1.482h1.164c0.529 0 0.962 0.433 0.962 0.962v9.168c-0.002 0.53-0.431 0.96-0.961 0.962h-0zM12.628 18.928c0.39-0.223 0.649-0.636 0.649-1.11 0-0.704-0.57-1.274-1.274-1.274-0.001 0-0.002 0-0.003 0h0c-0.704 0.001-1.274 0.571-1.274 1.275 0 0.473 0.257 0.886 0.64 1.106l0.006 0.003v1.242c0 0.347 0.281 0.628 0.628 0.628s0.628-0.281 0.628-0.628v0zM9.854 12.908h4.293v-1.482c0-1.183-0.963-2.146-2.146-2.146s-2.146 0.963-2.146 2.146zM4.547 11.542h-2.99c-0.485 0-0.878-0.393-0.878-0.878s0.393-0.878 0.878-0.878h2.99c0.485 0 0.878 0.393 0.878 0.878s-0.393 0.878-0.878 0.878v0zM6.654 6.838c-0.001 0-0.001 0-0.002 0-0.212 0-0.406-0.076-0.556-0.201l0.001 0.001-2.365-1.945c-0.196-0.162-0.32-0.406-0.32-0.678 0-0.485 0.393-0.878 0.878-0.878 0.213 0 0.408 0.076 0.559 0.201l-0.001-0.001 2.365 1.945c0.197 0.162 0.321 0.406 0.321 0.679 0 0.485-0.393 0.878-0.878 0.878-0.001 0-0.002 0-0.003 0h0zM12 4.77c-0.485 0-0.878-0.393-0.878-0.878v0-3.014c0-0.485 0.393-0.878 0.878-0.878s0.878 0.393 0.878 0.878v3.014c0 0.485-0.393 0.878-0.878 0.878v0zM17.346 6.838c-0.001 0-0.003 0-0.004 0-0.484 0-0.877-0.393-0.877-0.877 0-0.273 0.125-0.517 0.32-0.678l0.002-0.001 2.365-1.945c0.15-0.124 0.345-0.2 0.558-0.2 0.485 0 0.878 0.393 0.878 0.878 0 0.273-0.124 0.516-0.319 0.677l-0.001 0.001-2.365 1.945c-0.15 0.124-0.344 0.199-0.556 0.199-0 0-0.001 0-0.001 0h0zM22.443 11.542h-3.019c-0.485 0-0.878-0.393-0.878-0.878s0.393-0.878 0.878-0.878h3.019c0.485 0 0.878 0.393 0.878 0.878s-0.393 0.878-0.878 0.878v0z"/>
</svg>