<svg xmlns="http://www.w3.org/2000/svg" version="1.1" width="24" height="24" viewBox="0 0 24 24">
<path d="M9.623 19.131c0-0.064 0-0.123-0.023-0.191-0.103-0.741-0.375-1.449-0.796-2.070-0.268-0.34-0.577-0.646-0.92-0.912-0.101-0.078-0.189-0.041-0.193 0.082l-0.087 1.281c0 0.123-0.147 0.128-0.184 0l-0.571-1.801c-0.026-0.065-0.066-0.125-0.115-0.175s-0.109-0.090-0.175-0.117c-0.382-0.131-0.773-0.236-1.169-0.315-0.525-0.091-1.284-0.141-1.284-0.141-0.129 0-0.17 0.077-0.097 0.178l0.782 1.409c0.074 0.105 0 0.205-0.11 0.123l-1.703-1.368c-0.159-0.103-0.337-0.172-0.524-0.203s-0.378-0.024-0.562 0.021c-0.377 0.059-0.92 0.173-0.92 0.173-0.059 0.013-0.112 0.047-0.147 0.096-0.037 0.047-0.055 0.105-0.051 0.164 0 0 0.041 0.547 0.087 0.912 0.005 0.186 0.049 0.369 0.128 0.537s0.192 0.319 0.332 0.443l1.772 1.254c0.11 0.073 0.032 0.182-0.087 0.137l-1.578-0.351c-0.12-0.046-0.189 0-0.152 0.137 0 0 0.262 0.711 0.492 1.181 0.195 0.368 0.416 0.721 0.663 1.058 0.044 0.055 0.098 0.1 0.16 0.133 0.062 0.034 0.129 0.055 0.199 0.063l1.905 0.046c0.124 0 0.156 0.141 0.041 0.178l-1.219 0.456c-0.12 0.036-0.129 0.128-0.028 0.205 0.357 0.252 0.743 0.461 1.15 0.62 0.72 0.231 1.483 0.295 2.232 0.187 0.557-0.078 1.106-0.208 1.638-0.388-0.020-0.151-0.031-0.303-0.032-0.456 0.002-0.488 0.106-0.97 0.307-1.416 0.2-0.446 0.493-0.845 0.858-1.173zM23.217 15.388c0.002-0.059-0.016-0.117-0.051-0.164-0.036-0.049-0.088-0.083-0.147-0.096 0 0-0.543-0.114-0.92-0.169-0.183-0.045-0.373-0.053-0.559-0.022s-0.364 0.099-0.522 0.2l-1.703 1.368c-0.101 0.082-0.184 0-0.11-0.123l0.778-1.409c0.078-0.1 0.037-0.182-0.092-0.178 0 0-0.759 0.050-1.284 0.141-0.396 0.079-0.787 0.184-1.169 0.315-0.065 0.027-0.125 0.067-0.175 0.117s-0.089 0.109-0.115 0.175l-0.571 1.796c-0.037 0.119-0.179 0.114-0.184 0l-0.092-1.281c0-0.123-0.087-0.16-0.189-0.082-0.343 0.266-0.652 0.572-0.92 0.912-0.42 0.615-0.693 1.316-0.796 2.052 0 0.068 0 0.128 0 0.191 0.365 0.327 0.657 0.727 0.857 1.173s0.303 0.929 0.303 1.417c-0.001 0.152-0.012 0.305-0.032 0.456 0.534 0.179 1.084 0.309 1.643 0.388 0.749 0.108 1.512 0.044 2.232-0.187 0.408-0.16 0.794-0.368 1.15-0.62 0.101-0.077 0.092-0.169-0.028-0.205l-1.219-0.456c-0.115-0.036-0.083-0.173 0.041-0.178l1.901-0.046c0.071-0.006 0.14-0.027 0.203-0.060 0.063-0.034 0.117-0.080 0.161-0.136 0.227-0.328 0.431-0.671 0.612-1.026 0.235-0.456 0.497-1.181 0.497-1.181 0.037-0.118-0.032-0.182-0.152-0.137l-1.578 0.351c-0.124 0.046-0.198-0.064-0.092-0.137l1.785-1.254c0.14-0.124 0.253-0.275 0.332-0.443 0.079-0.169 0.123-0.351 0.128-0.537 0.046-0.378 0.087-0.912 0.087-0.912zM18.229 9.429c0-0.196-0.129-0.269-0.304-0.16l-1.841 0.994c-0.17 0.109-0.207-0.1-0.083-0.26l1.758-2.325c0.064-0.091 0.107-0.195 0.126-0.305 0.018-0.11 0.012-0.222-0.020-0.329-0.23-0.627-0.505-1.236-0.824-1.824-0.321-0.516-0.678-1.010-1.068-1.477-0.124-0.155-0.276-0.128-0.341 0.059l-0.86 2.129c-0.064 0.187-0.226 0.182-0.221 0l0.101-3.342c-0.002-0.237-0.094-0.465-0.258-0.638 0 0-0.511-0.511-0.92-0.884-0.409-0.374-1.173-0.966-1.173-0.966-0.081-0.065-0.184-0.101-0.289-0.101-0.106 0-0.208 0.036-0.29 0.102 0 0-0.722 0.561-1.192 0.966-0.469 0.406-0.92 0.88-0.92 0.88-0.166 0.166-0.264 0.387-0.276 0.62l0.105 3.342c0 0.201-0.156 0.205-0.226 0l-0.86-2.106c-0.060-0.187-0.216-0.214-0.341-0.055-0.411 0.496-0.785 1.022-1.117 1.573-0.303 0.555-0.565 1.131-0.783 1.723-0.029 0.105-0.036 0.216-0.018 0.323 0.017 0.108 0.058 0.211 0.12 0.301l1.767 2.334c0.124 0.16 0.087 0.369-0.087 0.26l-1.842-0.993c-0.17-0.11-0.312-0.037-0.308 0.159 0.015 0.645 0.12 1.285 0.313 1.901 0.435 1.115 1.13 2.111 2.029 2.909 1.182 1.209 2.14 2.615 2.83 4.153 0.702-0.225 1.457-0.225 2.158 0 0.688-1.534 1.639-2.938 2.812-4.149 0.823-0.731 1.479-1.628 1.924-2.63 0.253-0.701 0.394-1.436 0.419-2.179zM14.308 21.721c0 0.451-0.135 0.892-0.388 1.266-0.253 0.375-0.612 0.667-1.033 0.84-0.42 0.173-0.883 0.218-1.329 0.13s-0.856-0.305-1.178-0.624-0.541-0.725-0.63-1.167-0.043-0.9 0.131-1.317 0.469-0.773 0.847-1.023 0.823-0.384 1.278-0.384c0.61 0 1.195 0.24 1.627 0.668 0.433 0.426 0.675 1.006 0.675 1.611z"/>
</svg>