<svg xmlns="http://www.w3.org/2000/svg" version="1.1" width="24" height="24" viewBox="0 0 24 24">
<path d="M12.265 0.002c-0.068-0.001-0.149-0.002-0.23-0.002-0.78 0-1.543 0.075-2.282 0.218l0.075-0.012c13.876 1.704 10.27 17.94 1.717 17.819 0 0 12.453 1.625 11.673-10.215-1.694-4.526-5.939-7.708-10.941-7.808l-0.012-0zM8.213 0.827c-0.2 0.002-0.402 0.008-0.61 0.016-4.473 1.764-7.58 6.048-7.58 11.058 0 0.602 0.045 1.194 0.132 1.772l-0.008-0.065c2.784-14.029 18.659-9.486 17.754-0.92 0 0 2.85-12.014-9.687-11.861zM9.667 5.862c-3.665 0.024-8.976 1.588-8.851 10.482 0.672 1.698 1.656 3.143 2.893 4.326l0.004 0.004c0.052 0.051 0.108 0.1 0.162 0.149 0.343 0.317 0.714 0.621 1.102 0.902l0.035 0.024c0.061 0.044 0.12 0.092 0.181 0.135 0.371 0.258 0.8 0.516 1.246 0.748l0.066 0.031c0.132 0.068 0.266 0.13 0.4 0.193 0.313 0.154 0.71 0.318 1.116 0.461l0.083 0.025c0.1 0.034 0.195 0.077 0.297 0.109 0.404 0.13 0.906 0.253 1.419 0.343l0.071 0.010c0.153 0.027 0.307 0.050 0.461 0.070 0.469 0.072 1.015 0.116 1.57 0.123l0.008 0 0.060 0.003c0.4 0 0.792-0.021 1.18-0.060-13.949-3.327-8.645-18.924-0.114-17.68 0 0-1.469-0.41-3.389-0.398zM12.103 8.624c-0 0-0.001 0-0.001 0-1.853 0-3.355 1.502-3.355 3.355s1.502 3.355 3.355 3.355c1.853 0 3.354-1.502 3.355-3.354v-0c0-0 0-0.001 0-0.001 0-1.853-1.502-3.354-3.354-3.355h-0zM6.153 10.816c0 0-3.333 12.274 10.019 12.38 4.214-1.597 7.251-5.387 7.738-9.939l0.005-0.053c0.033-0.319 0.043-0.644 0.050-0.97 0.001-0.085 0.013-0.168 0.013-0.255 0-0.371-0.023-0.737-0.056-1.1-3.527 13.887-19.132 8.448-17.769-0.063z"/>
</svg>