<svg xmlns="http://www.w3.org/2000/svg" version="1.1" width="24" height="24" viewBox="0 0 24 24">
<path d="M18.324 9.137l1.559 1.56h2.556v2.557l1.561 1.56v-5.677zM2 9.52l-2 4.96h1.309l0.37-0.982h2.221l0.408 0.982h1.338l-2.214-4.96zM6.209 9.52v4.955h1.238v-3.092l1.338 1.562h0.188l1.338-1.556v3.091h1.238v-4.96h-1.079l-1.592 1.845-1.591-1.845zM12.492 9.52v4.96h2.057c1.979 0 2.88-1.046 2.88-2.472 0-1.36-0.937-2.488-2.747-2.488zM13.729 10.43h0.792c1.17 0 1.63 0.711 1.63 1.57 0 0.728-0.372 1.572-1.616 1.572h-0.806zM2.744 10.703l0.791 1.932h-1.527zM19.881 11.010l-1.604 1.603v2.25h2.246l1.604-1.607h-2.246z"/>
</svg>