<svg xmlns="http://www.w3.org/2000/svg" version="1.1" width="24" height="24" viewBox="0 0 24 24">
<path d="M20 0h-16c-2.207 0.006-3.994 1.793-4 4v16c0 2.2 1.8 4 4 4h16c2.2 0 4-1.8 4-4v-16c0-2.2-1.8-4-4-4zM17.813 16.855c-0.2 0.482-0.517 0.907-0.923 1.234-0.42 0.34-0.952 0.62-1.607 0.82-0.654 0.203-1.432 0.305-2.333 0.305h-6.432v-14h6.802c1.258 0 2.266 0.283 3.020 0.86 0.76 0.58 1.138 1.444 1.138 2.61 0 0.705-0.172 1.31-0.518 1.81-0.344 0.497-0.84 0.886-1.48 1.156v0.046c0.854 0.18 1.515 0.585 1.95 1.215s0.658 1.426 0.658 2.387c0 0.538-0.104 1.050-0.3 1.528zM15.037 13.405c-0.41-0.375-0.986-0.558-1.73-0.558h-4.322v4.368h4.334c0.74 0 1.32-0.192 1.73-0.58 0.41-0.385 0.62-0.934 0.62-1.64-0.007-0.69-0.21-1.224-0.62-1.59zM14.437 10.582c0.396-0.336 0.59-0.817 0.59-1.444 0-0.704-0.175-1.204-0.53-1.49-0.352-0.285-0.86-0.433-1.528-0.433h-4v3.863h4c0.583 0 1.080-0.17 1.468-0.496z"/>
</svg>