<svg xmlns="http://www.w3.org/2000/svg" version="1.1" width="24" height="24" viewBox="0 0 24 24">
<path d="M23.638 10.303h-0.045v-0.1h0.045c0.037 0 0.055 0.019 0.055 0.051s-0.018 0.050-0.055 0.049zM23.788 10.253c0-0.059-0.038-0.112-0.127-0.112h-0.162v0.364h0.094v-0.14h0.035l0.085 0.14h0.11l-0.104-0.151c0.040-0.014 0.068-0.052 0.068-0.096 0-0.002-0-0.003-0-0.005v0zM23.637 10.593c-0.148 0-0.267-0.12-0.267-0.267s0.12-0.267 0.267-0.267v0c0.148 0 0.267 0.12 0.267 0.267s-0.12 0.267-0.267 0.267v0zM23.637 10.019c-0.17 0-0.307 0.137-0.307 0.307s0.137 0.307 0.307 0.307v0c0.17 0 0.307-0.137 0.307-0.307s-0.137-0.307-0.307-0.307v0zM15.937 10.119l-0.621 1.846-0.014 0.040-0.013-0.040-0.611-1.854h-0.497l-0.611 1.854-0.014 0.040-0.013-0.040-0.62-1.846h-0.616l0.981 2.726h0.505l0.615-1.778 0.014-0.038 0.013 0.038 0.615 1.778h0.505l0.982-2.726h-0.6zM1.033 11.355c-0.615-0.126-0.732-0.287-0.732-0.539v-0.007c0-0.267 0.254-0.46 0.605-0.46 0.293 0 0.526 0.087 0.755 0.285l0.021 0.018 0.006-0.006v-0.302c-0.205-0.141-0.459-0.226-0.733-0.226-0.015 0-0.030 0-0.044 0.001l0.002-0c-0.49 0-0.86 0.305-0.86 0.708v0.008c0 0.408 0.26 0.627 0.895 0.755 0.598 0.12 0.71 0.277 0.71 0.525v0.007c0 0.287-0.257 0.487-0.626 0.487-0.36 0-0.616-0.106-0.91-0.378l-0.021-0.019-0.005 0.005v0.312c0.283 0.212 0.574 0.309 0.924 0.309 0.522 0 0.886-0.302 0.886-0.734v-0.008c0-0.395-0.26-0.616-0.873-0.74zM11.116 10.126c-0.4 0-0.732 0.128-0.998 0.387-0.246 0.234-0.398 0.564-0.398 0.929 0 0.010 0 0.019 0 0.029l-0-0.001c0 0.36 0.11 0.667 0.329 0.922 0.261 0.301 0.618 0.452 1.070 0.452 0.239 0 0.454-0.045 0.647-0.135 0.096-0.044 0.184-0.12 0.264-0.183v-0.336c-0.242 0.273-0.54 0.41-0.894 0.41-0.33 0-0.603-0.106-0.82-0.317-0.2-0.193-0.324-0.463-0.324-0.762 0-0.010 0-0.019 0-0.029l-0 0.001c-0-0.008-0-0.018-0-0.027 0-0.401 0.222-0.751 0.549-0.933l0.005-0.003c0.176-0.1 0.367-0.149 0.574-0.149 0.189 0 0.362 0.038 0.52 0.114 0.15 0.072 0.28 0.177 0.39 0.314v-0.35c-0.078-0.065-0.165-0.143-0.26-0.19-0.185-0.090-0.402-0.143-0.632-0.143-0.008 0-0.016 0-0.024 0l0.001-0zM17.718 10.838l0.36 0.927-0.074-0.003c-0.069-0.002-0.151-0.004-0.232-0.004-0.147 0-0.293 0.004-0.438 0.013l0.020-0.001zM18.621 11.798l-0.645-1.68h-0.524l-0.64 1.715c-0.63 0.117-1.037 0.392-0.836 0.936 0.278 0.758 1.542 1.212 1.542 1.212s-1.253-0.808-0.604-1.332c0.29-0.234 0.803-0.41 1.29-0.536l0.28 0.725h0.536l-0.321-0.837c0.411-0.084 0.721-0.124 0.721-0.124s-0.365-0.045-0.8-0.080zM22.19 10.119h-0.517v2.714h1.547v-0.493h-1.030v-2.22zM20.095 10.12h-0.517v2.714h1.547v-0.493h-1.030v-2.221zM8.728 12.847h0.256v-2.73h-0.256v2.73zM7.718 12.214l-1.82-2.095h-0.060v2.734h0.283v-2.070l1.805 2.070h0.061v-2.734h-0.27v2.095zM4.732 12.038c-0.095 0.169-0.228 0.301-0.398 0.398s-0.355 0.145-0.554 0.145c-0.3 0-0.555-0.105-0.767-0.316-0.196-0.191-0.318-0.458-0.318-0.753 0-0.008 0-0.015 0-0.023l-0 0.001c0-0.206 0.047-0.394 0.143-0.562s0.232-0.304 0.395-0.398l0.005-0.003c0.17-0.1 0.351-0.149 0.542-0.149 0.194 0 0.377 0.050 0.55 0.149 0.328 0.186 0.545 0.533 0.545 0.931 0 0.007-0 0.014-0 0.020l0-0.001c0 0.206-0.048 0.393-0.143 0.561zM3.768 10.128c-0.24 0-0.464 0.060-0.67 0.18-0.207 0.119-0.37 0.284-0.49 0.495s-0.18 0.44-0.18 0.688c0 0.371 0.132 0.687 0.395 0.949 0.262 0.26 0.584 0.392 0.966 0.392 0.377 0 0.697-0.132 0.959-0.394s0.393-0.582 0.393-0.96c0-0.38-0.131-0.7-0.394-0.96-0.242-0.241-0.575-0.39-0.944-0.39-0.012 0-0.025 0-0.037 0l0.002-0z"/>
</svg>