<svg xmlns="http://www.w3.org/2000/svg" version="1.1" width="24" height="24" viewBox="0 0 24 24">
<path d="M21.24 12.060c-0.009-0.296-0.195-0.545-0.455-0.648l-0.005-0.002-7.38-2.34 7.37-2.34c0.27-0.105 0.461-0.359 0.47-0.659l0-0.001v-5.69c0.003-0.016 0.004-0.034 0.004-0.053 0-0.193-0.157-0.35-0.35-0.35-0.045 0-0.087 0.008-0.126 0.024l0.002-0.001-17.54 5.58c-0.273 0.091-0.467 0.342-0.47 0.64v5.7c0.001 0.291 0.192 0.536 0.455 0.619l0.005 0.001 7.46 2.37-7.46 2.36c-0.266 0.108-0.452 0.361-0.46 0.659l-0 0.001v5.69c-0.002 0.013-0.003 0.028-0.003 0.043 0 0.188 0.152 0.34 0.34 0.34 0.044 0 0.086-0.008 0.125-0.024l-0.002 0.001 17.56-5.57c0.268-0.084 0.459-0.329 0.46-0.62v-0z"/>
</svg>