<svg xmlns="http://www.w3.org/2000/svg" version="1.1" width="24" height="24" viewBox="0 0 24 24">
<path d="M23.98 11.645c0 0 0.553-11.645-12.245-11.645-11.317 0-11.671 11.17-11.671 11.17s-1.664 12.83 11.933 12.83c13.043 0 11.983-12.355 11.983-12.355zM8.155 7.576c2.4-1.47 5.469-0.571 6.618 1.638 0.218 0.419 0.246 1.063 0.108 1.503-0.477 1.516-1.601 2.366-3.145 2.728 0.455-0.39 0.817-0.832 0.933-1.442 0.028-0.129 0.044-0.277 0.044-0.429 0-0.469-0.153-0.903-0.412-1.254l0.004 0.006c-0.394-0.536-1.022-0.88-1.73-0.88-0.264 0-0.517 0.048-0.75 0.135l0.015-0.005c-0.95 0.36-1.47 1.228-1.377 2.294 0.087 0.99 0.839 1.632 2.245 1.876-0.21 0.111-0.372 0.193-0.53 0.281-0.656 0.364-1.204 0.844-1.635 1.417l-0.009 0.013c-0.143 0.192-0.24 0.208-0.458 0.075-2.827-1.729-3.009-6.067 0.079-7.956zM6.040 18.258c-0.455 0.116-0.895 0.286-1.359 0.438 0.227-1.532 2.021-2.943 3.539-2.782-0.423 0.577-0.693 1.289-0.739 2.061l-0.001 0.011c-0.504 0.093-0.98 0.155-1.44 0.272zM15.703 3.3c0.448 0.017 0.898 0.010 1.347 0.020 0.124 0.009 0.238 0.025 0.349 0.050l-0.015-0.003c-0.107 0.163-0.219 0.304-0.342 0.436l0.002-0.002c-0.16 0.15-0.341 0.296-0.573 0.069-0.055-0.055-0.187-0.042-0.283-0.044-0.447-0.005-0.894-0.020-1.34-0.003-0.418 0.014-0.816 0.056-1.204 0.125l0.050-0.007c-0.072 0.013-0.178 0.25-0.146 0.338 0.078 0.207 0.191 0.435 0.359 0.567 0.619 0.49 1.277 0.928 1.9 1.413 0.604 0.472 1.167 0.99 1.51 1.7 0.446 0.928 0.46 1.9 0.267 2.877-0.322 1.63-1.147 2.98-2.483 3.962-0.538 0.395-1.205 0.62-1.821 0.903-0.543 0.25-1.1 0.465-1.644 0.712-0.98 0.446-1.53 1.51-1.369 2.615 0.149 1.015 1.040 1.862 2.059 2.037 1.223 0.21 2.486-0.586 2.785-1.83 0.336-1.397-0.423-2.646-1.845-3.024l-0.256-0.066c0.38-0.17 0.708-0.291 1.012-0.458q0.793-0.437 1.558-0.925c0.15-0.096 0.231-0.096 0.36 0.014 0.977 0.846 1.56 1.898 1.724 3.187 0.27 2.135-0.74 4.096-2.646 5.101-2.948 1.555-6.557-0.215-7.208-3.484-0.558-2.8 1.418-5.34 3.797-5.83 1.023-0.211 1.958-0.637 2.685-1.425 0.47-0.508 0.697-0.944 0.775-1.141 0.137-0.341 0.217-0.737 0.217-1.152 0-0.002 0-0.004 0-0.007v0c-0.017-0.363-0.102-0.701-0.244-1.009l0.007 0.017c-0.248-0.566-1.2-1.466-1.435-1.656l-2.24-1.754c-0.079-0.065-0.168-0.060-0.36-0.047-0.23 0.016-0.815 0.048-1.067-0.018 0.204-0.155 0.76-0.38 1-0.56-0.726-0.49-1.554-0.314-2.315-0.46 0.176-0.328 1.046-0.831 1.541-0.888-0.034-0.317-0.082-0.597-0.145-0.871l0.010 0.049c-0.030-0.111-0.154-0.22-0.263-0.283-0.262-0.154-0.541-0.281-0.843-0.434 0.256-0.168 0.568-0.271 0.904-0.28l0.002-0c0.039-0.002 0.085-0.003 0.13-0.003 0.276 0 0.544 0.033 0.801 0.095l-0.023-0.005c0.54 0.123 0.97 0.042 1.399-0.324-0.338-0.136-0.676-0.26-1.003-0.407-0.379-0.173-0.688-0.338-0.986-0.518l0.044 0.025c0.85 0.118 1.671 0.437 2.54 0.32l0.022-0.118-2.018-0.47c1.203-0.11 2.323-0.128 3.384 0.388 0.299 0.146 0.61 0.266 0.897 0.432 0.14 0.080 0.233 0.24 0.348 0.365 0.090 0.098 0.164 0.23 0.276 0.29 0.424 0.225 0.89 0.234 1.366 0.223l0.010-0.16c0.479 0.15 1.017 0.702 1.017 1.105-0.776 0-1.55-0.003-2.325 0.004-0.083 0-0.165 0.061-0.247 0.094 0.078 0.046 0.155 0.128 0.235 0.131zM14.703 2.153c-0.034 0.021-0.057 0.058-0.057 0.101 0 0.036 0.016 0.067 0.041 0.089l0 0c0.032 0.054 0.089 0.090 0.155 0.090 0.033 0 0.065-0.009 0.092-0.025l-0.001 0c0.075-0.038 0.148-0.078 0.238-0.125-0.072-0.062-0.13-0.114-0.19-0.163-0.106-0.087-0.193-0.032-0.278 0.033z"/>
</svg>