<svg xmlns="http://www.w3.org/2000/svg" version="1.1" width="24" height="24" viewBox="0 0 24 24">
<path d="M4.105 4.105c0 0 5.053-2.525 7.579-3.789 0.397-0.2 0.866-0.317 1.361-0.317 0.042 0 0.084 0.001 0.126 0.003l-0.006-0c0.766 0.047 1.677 0.788 1.677 0.788l9.158 9.159v9.789h-4.263v4.263h-9.948l-9-9c-0.486-0.5-0.789-1.205-0.789-1.895 0-0.319 0.18-0.818 0.316-1.105zM4.784 4.784v11.787c0.002 0.543 0.021 1.024 0.498 1.508l4.922 4.921h8.533v-4.263zM16.839 4.106c-0.899-0.896-1.809-1.78-2.74-2.643-0.302-0.267-0.567-0.468-1.070-0.462-0.37 0.014-0.87 0.195-0.87 0.195l-5.818 2.909z"/>
</svg>