<svg xmlns="http://www.w3.org/2000/svg" version="1.1" width="24" height="24" viewBox="0 0 24 24">
<path d="M1.811 10.715c-0.047 0-0.058-0.023-0.035-0.059l0.246-0.315c0.023-0.035 0.081-0.058 0.128-0.058h4.172c0.046 0 0.058 0.035 0.035 0.070l-0.199 0.303c-0.023 0.036-0.082 0.070-0.117 0.070zM0.047 11.79c-0.047 0-0.059-0.023-0.035-0.058l0.245-0.316c0.023-0.035 0.082-0.058 0.129-0.058h5.328c0.047 0 0.070 0.035 0.058 0.070l-0.093 0.28c-0.012 0.047-0.058 0.070-0.105 0.070zM2.875 12.865c-0.047 0-0.059-0.035-0.035-0.070l0.163-0.292c0.023-0.035 0.070-0.070 0.117-0.070h2.337c0.047 0 0.070 0.035 0.070 0.082l-0.023 0.28c0 0.047-0.047 0.082-0.082 0.082zM15.004 10.505c-0.736 0.187-1.239 0.327-1.963 0.514-0.176 0.046-0.187 0.058-0.34-0.117-0.174-0.199-0.303-0.327-0.548-0.444-0.737-0.362-1.45-0.257-2.115 0.175-0.795 0.514-1.204 1.274-1.192 2.22 0.011 0.935 0.654 1.706 1.577 1.835 0.795 0.105 1.46-0.175 1.987-0.771 0.105-0.129 0.198-0.269 0.315-0.433h-2.255c-0.245 0-0.304-0.152-0.222-0.35 0.152-0.362 0.432-0.97 0.596-1.274 0.050-0.111 0.16-0.187 0.288-0.187 0.001 0 0.003 0 0.004 0h4.253c-0.023 0.316-0.023 0.631-0.070 0.947-0.13 0.874-0.47 1.651-0.967 2.302l0.009-0.012c-0.841 1.11-1.94 1.8-3.33 1.986-1.145 0.152-2.209-0.070-3.143-0.77-0.865-0.655-1.356-1.52-1.484-2.595-0.152-1.274 0.222-2.419 0.993-3.424 0.83-1.086 1.928-1.776 3.272-2.021 1.098-0.199 2.15-0.070 3.096 0.572 0.62 0.41 1.063 0.97 1.356 1.648 0.070 0.105 0.023 0.164-0.117 0.199zM18.872 16.967c-1.064-0.024-2.034-0.328-2.852-1.029-0.662-0.561-1.121-1.345-1.259-2.234l-0.003-0.021c-0.21-1.32 0.152-2.489 0.947-3.529 0.853-1.122 1.881-1.706 3.272-1.951 1.192-0.21 2.314-0.094 3.33 0.596 0.923 0.63 1.496 1.484 1.648 2.605 0.198 1.578-0.257 2.863-1.344 3.962-0.771 0.783-1.718 1.273-2.805 1.495-0.315 0.059-0.63 0.070-0.934 0.106zM21.652 12.246c-0.011-0.152-0.011-0.269-0.034-0.386-0.21-1.157-1.274-1.811-2.384-1.554-1.087 0.245-1.788 0.935-2.045 2.033-0.21 0.912 0.234 1.835 1.075 2.209 0.643 0.28 1.285 0.245 1.905-0.070 0.923-0.48 1.425-1.227 1.483-2.232z"/>
</svg>