<svg xmlns="http://www.w3.org/2000/svg" version="1.1" width="24" height="24" viewBox="0 0 24 24">
<path d="M19.803 12.274c2.108 0 3.818-1.703 3.818-3.804s-1.71-3.795-3.818-3.795c-2.109 0-3.818 1.71-3.818 3.81 0 2.101 1.709 3.811 3.818 3.811zM11.2 12.979c1.897 0 3.436-1.533 3.436-3.424s-1.538-3.425-3.436-3.425-3.436 1.546-3.436 3.436c0 1.891 1.535 3.434 3.436 3.434zM3.4 13.614c1.71 0 3.093-1.38 3.093-3.081 0-1.704-1.395-3.084-3.105-3.084-1.707 0-3.088 1.38-3.088 3.090 0 1.7 1.387 3.078 3.095 3.078zM3.4 14.319c-1.96 0-3.4 1.717-3.4 3.495v1.196c0 0.17 0.138 0.31 0.31 0.31h6.18c0.171 0 0.309-0.14 0.309-0.31v-1.196c0-1.779-1.437-3.5-3.398-3.5zM11.2 13.759c-2.179 0-3.78 1.915-3.78 3.891v1.331c0 0.188 0.156 0.344 0.345 0.344h6.871c0.188 0 0.342-0.155 0.342-0.344v-1.331c0-1.976-1.598-3.891-3.778-3.891zM19.803 13.142c-2.422 0-4.197 2.126-4.197 4.323v1.477c0 0.21 0.172 0.381 0.382 0.381h7.63c0.21 0 0.383-0.171 0.383-0.381v-1.477c-0.001-2.197-1.776-4.323-4.198-4.323z"/>
</svg>