<svg xmlns="http://www.w3.org/2000/svg" version="1.1" width="24" height="24" viewBox="0 0 24 24">
<path d="M3.744 12.816c0 0-0.033-0.092 0.059-0.164 0.118-0.085 0.269-0.17 0.354-0.072l0.014 0.014c0.066 0.072 0.144 0.098 0.223 0.098 0.17 0 0.347-0.118 0.426-0.17 0.19-0.131 0.321-0.242 0.347-0.583v-0.013c0-0.007 0-0.105 0.085-0.124 0.033-0.007 0.066 0.013 0.092 0.033 0.066 0.059 0.144 0.203 0.131 0.413-0.026 0.308-0.177 0.583-0.446 0.819-0.020 0.020-0.039 0.033-0.059 0.052-0.164 0.131-0.321 0.249-0.465 0.347-0.203 0.111-0.387-0.059-0.478-0.17-0.039-0.052-0.072-0.098-0.124-0.177l-0.013-0.026c-0.054-0.094-0.106-0.186-0.146-0.277v0 0zM3.089 14.801c0.020 0.013 0.039 0.026 0.059 0.039 0.026 0.020 0.052 0.033 0.085 0.046 0.072 0.033 0.144 0.020 0.269-0.013 0.033-0.007 0.066-0.013 0.098-0.020-0.157-0.144-0.275-0.314-0.36-0.505-0.007 0.152-0.046 0.309-0.151 0.453v0zM4.95 3.197c0-0.006-0.007-0.006 0 0-0.079-0.098-0.144-0.196-0.197-0.294 0.020 0.177 0.052 0.354 0.085 0.511 0.013 0.059 0.020 0.111 0.033 0.164 0.059-0.066 0.118-0.124 0.17-0.183-0.032-0.132-0.091-0.198-0.091-0.198v0zM2.113 13.327c0.007-0.013 0.007-0.033 0.007-0.059v-0.020c-0.007-0.072 0-0.144 0.007-0.229 0.007-0.105 0.026-0.203 0.052-0.308v0c0-0.007 0-0.013 0.007-0.020 0.007-0.020 0.013-0.066 0.007-0.079v0c-0.079-0.059-0.17-0.111-0.236-0.144 0.013 0.151 0.007 0.314 0 0.406v0.046c-0.007 0.098-0.013 0.21 0.138 0.373-0.002 0.014 0.011 0.021 0.018 0.034v0zM16.691 6.532c0.079 0 0.157-0.007 0.236-0.020 0.124-0.039 0.21-0.059 0.223-0.066 0.688-0.203 1.258-0.642 1.52-1.173 0.183-0.478 0.164-0.845 0.144-1.107-0.007-0.059-0.007-0.118-0.007-0.177-0.007-0.459 0.563-1.258 0.681-1.422 0.413-0.681 0.55-1.265 0.413-1.684-0.124-0.373-0.432-0.498-0.439-0.505v0h-0.007c-0.118-0.052-0.236-0.098-0.36-0.131-0.196-0.050-0.405-0.077-0.622-0.077-0.858 0-1.795 0.439-2.496 1.179 0 0.007-0.007 0.013-0.013 0.020-0.256 0.334-0.662 1.016-0.485 1.821 0.124 0.55 0.426 0.983 0.924 1.33 0.066 0.046 0.098 0.118 0.085 0.197s-0.059 0.138-0.131 0.164c-0.007 0-0.629 0.236-0.76 0.636-0.052 0.157-0.020 0.328 0.105 0.518 0.020 0.006 0.38 0.497 0.989 0.497v0 0zM3.030 11.283c0.092 0 0.216-0.052 0.419-0.177 0.282-0.17 0.563-0.282 0.845-0.328h0.013c0.092-0.020 0.157-0.098 0.157-0.197v-0.020c-0.007-0.072-0.052-0.138-0.124-0.164-0.007 0-0.013-0.007-0.020-0.007-0.072-0.026-0.151-0.039-0.236-0.039h-0.005c-0.111 0-0.177 0.020-0.249 0.046-0.059 0.020-0.111 0.033-0.177 0.033h-0.040c-0.059-0.007-0.118-0.026-0.157-0.046-0.046-0.020-0.085-0.033-0.131-0.033-0.020 0-0.033 0-0.052 0.007-0.124 0.026-0.256 0.138-0.301 0.183 0 0-0.007 0.007-0.013 0.007h-0.007c-0.079 0.066-0.164 0.138-0.249 0.203l-0.039 0.039c0 0-0.007 0.007-0.007 0.013l-0.013 0.020c-0.013 0.026-0.020 0.059-0.020 0.085 0 0.052 0.020 0.105 0.059 0.144 0.007 0.007 0.013 0.013 0.020 0.020v0c0.007 0.007 0.013 0.013 0.020 0.020 0.144 0.132 0.209 0.191 0.307 0.191v0 0zM12.675 23.174c0.007 0 0.013-0.007 0.020-0.007 0.983-0.393 1.946-0.891 2.863-1.487l0.039-0.026c0.052-0.039 0.092-0.098 0.092-0.164v0-0.020c0-0.013 0-0.020-0.007-0.033 0-0.007-0.007-0.013-0.007-0.020l-0.007-0.013c-0.21-0.583-0.505-1.854-0.131-3.774 0.098-0.491 0.151-0.963 0.157-1.402v-0.047c-0.012-0.102-0.097-0.181-0.195-0.181-0.066 0-0.124 0.033-0.157 0.079l-0.007 0.013v0.007l-0.013 0.013c-0.105 0.197-0.236 0.4-0.387 0.616-1.566 2.247-2.745 4.134-2.523 6.283 0.013 0.105 0.098 0.177 0.197 0.177 0.020 0 0.046-0.007 0.066-0.014v0zM9.753 23.987l0.033-0.007c0.367-0.052 1.114-0.19 2.070-0.505v0l0.013-0.007h0.007c0.007 0 0.013-0.007 0.020-0.007v0c0.072-0.033 0.118-0.105 0.118-0.183v0-0.013l-0.007-0.026c-0.321-2.359 0.924-4.364 2.575-6.735 1.055-1.514 0.773-2.247 0.465-2.667-0.301-0.36-0.688-0.537-1.16-0.537-0.216 0-0.452 0.039-0.701 0.118-0.216 0.072-0.439 0.138-0.668 0.197-0.229 0.052-0.472 0.098-0.721 0.138-0.164 0.026-0.328 0.046-0.485 0.066-0.812 0.105-1.586 0.203-2.49 0.675l-0.013 0.013h-0.013c-0.072 0.033-0.138 0.072-0.21 0.105v0h-0.006c-0.007 0.007-0.020 0.007-0.026 0.013h-0.007c-0.020 0.013-0.033 0.026-0.046 0.046 0 0-0.007 0.007-0.007 0.013v0.007l-0.013 0.013c-0.013 0.026-0.020 0.059-0.020 0.085 0 0.059 0.026 0.118 0.072 0.157h0.047v0.033c0.609 0.38 1.048 1.317 1.114 2.385 0.085 1.369-0.039 2.634-0.151 3.741v0.013c-0.118 1.153-0.21 2.057-0.033 2.706v0.014c0 0.013 0.007 0.033 0.013 0.046 0.033 0.070 0.105 0.116 0.184 0.116 0.033-0.013 0.039-0.013 0.046-0.013v0zM4.223 4.226c0.007-0.007 0.007-0.007 0.013-0.013v0-0.007c0.092-0.111 0.177-0.216 0.262-0.308 0.007-0.007 0.007-0.007 0.013-0.013 0.026-0.033 0.046-0.079 0.046-0.124v-0.040c-0.013-0.078-0.026-0.163-0.046-0.235-0.085-0.426-0.183-0.95 0-1.382 0-0.229 0.039-0.465 0.066-0.675v-0.014c0.020-0.124 0.039-0.249 0.052-0.373 0.039-0.393-0.033-0.721-0.197-0.898-0.091-0.098-0.203-0.144-0.34-0.144h-0.020c-0.065 0-0.157 0-0.255 0.092-0.066 0.078-0.118 0.229-0.158 0.419-0.052 0.275-0.052 0.583-0.039 0.76 0.066 0.662 0.052 0.747 0 0.891-0.026 0.066-0.059 0.157-0.072 0.531-0.013 0.282 0.105 0.675 0.223 1.048v0.007c0.039 0.124 0.078 0.255 0.111 0.386v0c0 0.007 0.007 0.020 0.007 0.026v0.007c0.033 0.079 0.105 0.131 0.19 0.131 0.052-0.006 0.104-0.033 0.144-0.072v0zM4.465 6.565c0-0.007 0.007-0.020 0.007-0.026v0-0.007c0.033-0.236 0.059-0.55 0.078-1.022 0.007-0.138 0.026-0.288 0.052-0.439v0l0.020-0.085c0-0.013 0.007-0.026 0.007-0.039v-0.020c-0.013-0.105-0.098-0.183-0.197-0.183-0.059 0-0.118 0.026-0.151 0.072 0 0-0.007 0.007-0.007 0.013v0.007c-0.071 0.091-0.117 0.15-0.13 0.163l-0.006 0.007c-0.066 0.072-0.125 0.164-0.177 0.268-0.124 0.242-0.183 0.485-0.19 0.505v0.007c-0.027 0.104-0.053 0.216-0.079 0.334 0 0.072 0.020 0.138 0.059 0.203 0.072 0.131 0.21 0.249 0.419 0.367l0.007 0.007c0.007 0.007 0.013 0.007 0.020 0.013 0.026 0.013 0.052 0.020 0.085 0.020 0.078-0.014 0.164-0.073 0.183-0.165v0zM5.428 2.922v0l0.013-0.013c0.184-0.157 0.387-0.295 0.616-0.419h0.007c0.066-0.033 0.098-0.105 0.098-0.177v-0.020c-0.007-0.039-0.020-0.079-0.046-0.111-0.216-0.256-0.386-0.603-0.53-0.911l-0.014-0.026c-0.045-0.092-0.091-0.184-0.131-0.269v0 0l-0.020-0.039c-0.032-0.066-0.104-0.111-0.176-0.111-0.066 0-0.124 0.033-0.157 0.079 0 0-0.007 0.007-0.007 0.013v0.007l-0.013 0.012c-0.013 0.026-0.020 0.046-0.020 0.072l-0.006 0.066c-0.013 0.137-0.033 0.268-0.053 0.393-0.032 0.229-0.065 0.445-0.065 0.655 0.006 0.282 0.072 0.511 0.216 0.727v0.007c0 0.007 0.007 0.007 0.013 0.013 0.039 0.052 0.098 0.079 0.164 0.079 0.033 0.019 0.079-0.001 0.111-0.027v0zM5.487 10.49v0c0.249-0.675 0.727-1.343 1.114-1.887 0.157-0.223 0.315-0.433 0.419-0.61 0.839-1.363 1.297-2.64 1.304-2.654 0-0.007 0.007-0.013 0.007-0.020 0.387-0.865 0.865-1.468 1.461-1.848 0.524-0.334 1.133-0.511 1.972-0.57h0.013c0.301-0.020 0.544-0.098 0.721-0.242v-0.005h0.007l0.013-0.013h0.007c0.013-0.013 0.033-0.026 0.039-0.039 0.026-0.033 0.046-0.079 0.046-0.124v-0.021c-0.007-0.092-0.085-0.17-0.177-0.177l-0.059-0.007c-0.242-0.026-0.505-0.039-0.786-0.039-0.577 0-1.225 0.059-1.867 0.17-0.204 0.033-0.42 0.053-0.669 0.053-0.197 0-0.387-0.013-0.577-0.020-0.183-0.007-0.373-0.020-0.557-0.020-0.079 0-0.144 0-0.21 0.007-0.196 0.007-0.393 0.040-0.596 0.092v0l-0.052 0.013h-0.007c-0.747 0.216-1.395 0.878-1.788 1.802 0 0 0 0.007-0.007 0.007-0.17 0.4-0.269 0.819-0.288 1.179-0.046 0.917-0.098 1.317-0.242 1.69v0.013l-0.014 0.013c-0.065 0.164-0.144 0.321-0.242 0.525l-0.020 0.046c-0.138 0.268-0.321 0.583-0.504 0.891l-0.053 0.085c-0.026 0.039-0.046 0.078-0.072 0.118-0.157 0.268-0.314 0.543-0.413 0.753v0.013l-0.013 0.013c0 0.007-0.007 0.013-0.007 0.013v0c-0.006 0.020-0.012 0.046-0.012 0.066 0 0.085 0.052 0.157 0.124 0.183 0.007 0 0.013 0.007 0.020 0.007l0.013 0.007c0.026 0.013 0.052 0.020 0.079 0.033 0.013 0.007 0.033 0.013 0.039 0.013 0.013 0 0.033-0.007 0.046-0.013h0.007c0.079-0.026 0.197-0.059 0.38-0.059h0.007c0.216 0 0.413 0.059 0.583 0.164 0.131 0.085 0.308 0.249 0.478 0.446 0.039 0.046 0.092 0.072 0.157 0.072 0.071 0.012 0.144-0.041 0.176-0.119v0zM6.057 12.593v0c0.013 0 0.020-0.007 0.026-0.007h0.007c0.432-0.105 0.786-0.229 1.009-0.753 0.242-0.563 0.406-1.245 0.563-1.907l0.052-0.21c0.262-1.081 0.524-2.025 1.088-2.673l0.007-0.007c0.020-0.026 0.046-0.052 0.066-0.072v0c0.007-0.007 0.007-0.007 0.013-0.013 0.007-0.007 0.007-0.007 0.013-0.013 0.255-0.242 0.629-0.373 1.055-0.373 0.21 0 0.426 0.033 0.649 0.092v0h0.007c0.039 0.013 0.079 0.020 0.118 0.033 0.203 0.059 0.439 0.131 0.688 0.131v0c0.223 0 0.426-0.052 0.629-0.17v0h0.007c0.013-0.007 1.533-0.839 2.346-3.355v-0.007c0.007-0.013 0.007-0.033 0.013-0.046v0l0.013-0.033v-0.006l0.007-0.013c0.007-0.020 0.013-0.033 0.020-0.052l0.013-0.033c0.007-0.020 0.007-0.033 0.007-0.052v-0.020c-0.013-0.105-0.098-0.177-0.197-0.177-0.039 0-0.072 0.013-0.105 0.033l-0.013 0.007c-0.544 0.36-1.094 0.393-1.704 0.4-0.229 0-0.432 0.007-0.622 0.020h-0.013c-1.304 0.092-2.333 0.491-3.086 2.169-0.035 0.083-0.5 1.361-1.339 2.724-0.111 0.183-0.269 0.4-0.426 0.622l-0.033 0.013c-0.59 0.819-1.389 1.946-1.173 2.804v0.013c0.059 0.21 0.079 0.413 0.066 0.603v0 0.014c0 0.033-0.007 0.059-0.013 0.092v0 0.027c0 0.111 0.092 0.203 0.203 0.203 0.013-0.008 0.026-0.008 0.039-0.008v0zM15.066 7.338v0l0.013-0.007h0.014c0.183-0.118 0.387-0.229 0.616-0.341v0c0.007 0 0.013-0.007 0.026-0.013 0.066-0.033 0.098-0.105 0.098-0.177v-0.019c-0.007-0.052-0.033-0.105-0.079-0.138v0c-0.229-0.164-0.36-0.341-0.387-0.38-0.197-0.301-0.249-0.596-0.157-0.878 0.072-0.216 0.229-0.419 0.472-0.596h0.007c0.007 0 0.007-0.007 0.013-0.007v0c0.046-0.039 0.072-0.092 0.072-0.151v-0.018c-0.007-0.052-0.026-0.092-0.066-0.131l-0.052-0.046 0.007-0.007c-0.229-0.249-0.393-0.518-0.498-0.812v0l-0.020-0.079c-0.026-0.085-0.105-0.144-0.19-0.144-0.066 0-0.124 0.033-0.157 0.079-0.007 0.007-0.013 0.020-0.020 0.033-0.007 0.007-0.007 0.020-0.013 0.026 0 0.007 0 0.007-0.007 0.013v0.014c-0.17 0.668-0.105 1.409-0.046 2.195v0.007c0.039 0.459 0.079 0.937 0.066 1.402v0.027c0 0.111 0.092 0.197 0.203 0.197 0.020-0.023 0.059-0.036 0.085-0.049v0zM5.075 16.164c0.727 0 1.101-0.308 1.664-0.767l0.026-0.020c0.079-0.066 0.157-0.131 0.242-0.197h0.007c0.033-0.026 0.059-0.046 0.092-0.072l0.007-0.007h0.007c0.341-0.269 0.832-0.622 1.546-0.976 0.439-0.229 0.871-0.393 1.363-0.511 0.426-0.105 0.826-0.157 1.258-0.21l0.026-0.007c0.151-0.020 0.308-0.039 0.465-0.066 0.465-0.066 0.911-0.17 1.317-0.314 1.638-0.57 2.68-1.723 2.929-3.25 0.195-1.21 0.51-1.767 0.988-2.33 0.039-0.046 0.085-0.098 0.144-0.164 0.033-0.039 0.052-0.085 0.052-0.138v-0.020c-0.013-0.105-0.098-0.183-0.197-0.183-0.026 0-0.046 0.007-0.072 0.013l-0.092 0.033v-0.007c-0.649 0.216-1.972 0.74-2.28 1.474-0.007 0.026-0.020 0.046-0.026 0.072-0.138 0.347-0.328 0.655-0.583 0.93-0.812 0.878-1.612 1.088-2.391 1.291-0.747 0.197-1.448 0.38-2.143 1.179l-0.007 0.007c-0.007 0.007-0.426 0.446-1.147 1.704-0.406 0.714-1.094 1.271-1.946 1.566-0.4 0.144-0.826 0.216-1.232 0.216-0.36 0-0.708-0.059-0.989-0.177v0h-0.018l-0.013-0.013c-0.079-0.033-0.157-0.052-0.236-0.052-0.085 0-0.164 0.020-0.236 0.033-0.072 0.020-0.157 0.039-0.242 0.039h-0.066c-0.059 0.007-0.111 0.033-0.144 0.079 0 0-0.007 0.007-0.007 0.013v0.007l-0.013 0.013c-0.013 0.026-0.020 0.059-0.020 0.085 0 0.059 0.026 0.118 0.072 0.157l0.008 0.006c0.046 0.039 0.098 0.072 0.151 0.105 0.458 0.295 1.041 0.439 1.716 0.446h0.020v0.013zM13.559 2.516c-0.111-0.052-0.236-0.105-0.373-0.144-0.020-0.007-0.039-0.013-0.066-0.020-0.013 0.046-0.059 0.144-0.059 0.144-0.013 0.033-0.026 0.072-0.026 0.111 0 0.151 0.118 0.269 0.269 0.269 0.020 0 0.033 0 0.052-0.007 0.013 0 0.020-0.007 0.033-0.007 0.151-0.039 0.295-0.098 0.439-0.177-0.079-0.058-0.164-0.117-0.269-0.169v0zM16.285 21.183v0c0.007-0.007 0.013-0.013 0.020-0.013l0.013-0.007c0.334-0.242 0.668-0.505 0.983-0.773 1.324-1.12 2.464-2.418 3.394-3.859v-0.007c0.007-0.007 0.013-0.020 0.020-0.026 0.013-0.026 0.026-0.059 0.026-0.092v-0.019c-0.007-0.066-0.046-0.124-0.105-0.157h-0.007c-0.197-0.098-0.387-0.229-0.557-0.4-0.701-0.688-1.14-1.894-1.297-3.577l-0.013-0.111c-0.052-0.59-0.164-1.815-0.747-2.732v0c-0.256-0.373-0.505-0.767-0.727-1.173l-0.007-0.013c-0.039-0.059-0.098-0.092-0.17-0.092-0.066 0-0.124 0.033-0.157 0.079v0c0 0.007-0.007 0.007-0.007 0.013l-0.013 0.020c-0.236 0.413-0.393 0.904-0.511 1.592-0.19 1.166-0.806 2.149-1.769 2.844-0.007 0-0.007 0.007-0.013 0.007l-0.007 0.007c-0.013 0.013-0.026 0.020-0.039 0.039 0 0-0.007 0.007-0.007 0.013v0.007l-0.013 0.013c-0.013 0.026-0.020 0.059-0.020 0.085 0 0.079 0.046 0.151 0.124 0.183l0.039 0.020c0.256 0.118 0.485 0.288 0.675 0.518 0.708 0.839 0.911 2.352 0.557 4.147-0.256 1.297-0.177 2.274-0.066 2.863 0.033 0.17 0.072 0.334 0.118 0.485 0 0.007 0 0.007 0.007 0.013 0.026 0.085 0.105 0.138 0.19 0.138 0.020-0.009 0.053-0.016 0.086-0.035v0zM21.127 15.817l0.014-0.026c0.609-1.068 0.95-1.946 1.101-2.378 0-0.007 0.007-0.013 0.007-0.013 0.007-0.020 0.007-0.039 0.007-0.059v-0.021c-0.007-0.066-0.046-0.124-0.105-0.157-0.963-0.459-1.88-1.14-2.726-2.011 0 0-0.020-0.020-0.026-0.026-0.033-0.033-0.085-0.046-0.131-0.046-0.066 0-0.124 0.033-0.157 0.079 0 0-0.007 0.007-0.007 0.013v0.007l-0.013 0.013c-0.013 0.026-0.020 0.059-0.020 0.085v0.027l0.007 0.020c0.046 0.308 0.072 0.583 0.092 0.78l0.013 0.111c0.098 1.081 0.38 2.529 1.153 3.302 0.157 0.157 0.328 0.282 0.498 0.36l0.059 0.026c0.026 0.013 0.052 0.013 0.079 0.013 0.057-0.014 0.116-0.047 0.155-0.099v0zM2.965 14.264v0-0.027c-0.013-0.105-0.085-0.197-0.19-0.229-0.007 0-0.013 0-0.020-0.007-0.072-0.020-0.151-0.046-0.236-0.085h-0.006c-0.098-0.046-0.203-0.105-0.308-0.17-0.046-0.026-0.098-0.066-0.157-0.111l-0.007-0.007c-0.033-0.020-0.072-0.039-0.111-0.039-0.059 0-0.118 0.033-0.151 0.079v0c-0.007 0.007-0.007 0.013-0.013 0.020v0c-0.013 0.026-0.020 0.059-0.020 0.092 0 0.020 0 0.033 0.007 0.046 0 0.007 0 0.007 0.007 0.013 0.007 0.020 0.013 0.046 0.020 0.066 0.098 0.275 0.256 0.511 0.446 0.668v0c0.151 0.124 0.308 0.19 0.439 0.183 0.013 0 0.026-0.007 0.039-0.007 0.059-0.013 0.111-0.039 0.151-0.092 0.097-0.118 0.116-0.262 0.11-0.393v0zM5.088 11.387v-0.013c-0.007-0.079-0.059-0.144-0.138-0.17h-0.007c-0.098-0.026-0.21-0.039-0.334-0.039-0.039 0-0.085 0-0.124 0.007-0.262 0.020-0.537 0.118-0.819 0.288-0.262 0.164-0.472 0.236-0.649 0.236-0.236 0-0.393-0.138-0.577-0.314-0.079-0.079-0.164-0.118-0.262-0.118-0.066 0-0.131 0.020-0.203 0.052-0.013 0.007-0.052 0.039-0.085 0.066-0.013 0.013-0.020 0.026-0.033 0.039v0l-0.007 0.007c0 0-0.007 0.007-0.007 0.013v0.007l-0.013 0.013c-0.013 0.026-0.020 0.059-0.020 0.085 0 0.105 0.079 0.19 0.177 0.197h0.013c0.098 0.007 0.197 0.052 0.295 0.124 0.393 0.295 0.314 0.544 0.249 0.793-0.013 0.039-0.020 0.079-0.033 0.124l-0.007 0.020c-0.020 0.085-0.033 0.164-0.039 0.242-0.005 0.071-0.005 0.137-0.005 0.196 0.013 0.236 0.118 0.308 0.21 0.36 0.013 0.007 0.026 0.013 0.039 0.020s0.033 0.013 0.052 0.013c0.052 0 0.098-0.033 0.118-0.079 0-0.007 0.007-0.013 0.007-0.020s0.007-0.013 0.013-0.020v-0.006c0-0.007 0.007-0.007 0.007-0.013l0.013-0.013c0.007-0.007 0.013-0.013 0.020-0.013 0.007-0.007 0.013-0.007 0.020-0.013 0.007 0 0.007-0.007 0.013-0.007 0.007 0 0.007-0.007 0.013-0.007h0.007c0.007 0 0.007-0.007 0.013-0.007v0h0.105c0.007 0 0.013 0 0.020 0.007h0.007l0.013 0.007c0.007 0 0.013 0.007 0.026 0.013 0.007 0 0.007 0.007 0.013 0.007 0.007 0.007 0.013 0.007 0.020 0.013l0.026 0.026c0.007 0.007 0.013 0.013 0.013 0.020v0c0 0.007 0.007 0.007 0.007 0.013v0.007c0 0.007 0.007 0.007 0.007 0.013l0.007 0.007c0 0.007 0.007 0.007 0.007 0.013 0.020 0.059 0.052 0.098 0.105 0.131 0.059 0.033 0.131 0.052 0.223 0.052 0.052 0 0.111-0.007 0.17-0.020 0.066-0.020 0.098-0.052 0.098-0.072 0.007-0.026-0.013-0.072-0.046-0.111l-0.007-0.007c-0.013-0.013-0.020-0.026-0.033-0.046-0.039-0.059-0.079-0.105-0.131-0.183l-0.020-0.033c-0.072-0.105-0.131-0.21-0.177-0.321l-0.020-0.046c-0.131-0.328-0.124-0.642 0.020-0.865 0.111-0.17 0.288-0.262 0.505-0.269h0.007c0.262 0 0.36 0.223 0.406 0.373v0c0.020 0.072 0.085 0.118 0.164 0.118 0.033 0 0.059-0.007 0.079-0.020 0.007-0.007 0.013-0.007 0.020-0.013s0.013-0.007 0.020-0.013c0.144-0.098 0.183-0.124 0.197-0.321 0-0.111 0.046-0.262 0.164-0.36 0.007-0.007 0.013-0.007 0.020-0.013 0.046-0.039 0.072-0.092 0.072-0.151-0.024 0.001-0.024 0.001-0.024-0.006v0zM14.293 5.772c-0.007-0.118-0.020-0.236-0.026-0.354v-0.013c-0.013-0.105-0.098-0.183-0.197-0.183-0.066 0-0.124 0.033-0.157 0.079 0 0-0.007 0.007-0.007 0.013v0.006l-0.013 0.013c-0.649 1.002-1.33 1.474-1.559 1.618-0.059 0.269-0.288 1.029-1.133 1.586-0.020 0.013-0.039 0.026-0.059 0.039-0.013 0.007-0.026 0.013-0.039 0.026-0.871 0.531-1.789 0.426-1.789 0.426v0c-0.865-0.124-1.107 0.432-1.199 0.78l-0.052 0.21c-0.164 0.681-0.328 1.382-0.59 1.979-0.328 0.76-0.904 0.898-1.409 1.016-0.295 0.072-0.57 0.138-0.793 0.314-0.020 0.020-0.039 0.039-0.066 0.052-0.164 0.131-0.321 0.249-0.472 0.347l-0.046 0.033c-0.295 0.19-0.57 0.314-0.812 0.367l-0.033 0.007c-0.007 0-0.013 0-0.020 0.007h-0.012c-0.092 0.020-0.151 0.105-0.151 0.197 0 0.039 0.013 0.079 0.033 0.111v0c0.007 0.007 0.013 0.013 0.020 0.026 0 0 0 0.007 0.007 0.007 0.124 0.157 0.295 0.282 0.511 0.373l0.013 0.007c0.242 0.098 0.531 0.151 0.839 0.151 0.924 0 2.201-0.491 2.824-1.579 0.727-1.265 1.16-1.736 1.206-1.782 0.773-0.891 1.572-1.101 2.346-1.304 0.753-0.197 1.461-0.38 2.195-1.173 0.223-0.236 0.387-0.498 0.498-0.799 0.007-0.026 0.020-0.052 0.026-0.072 0.26-0.768 0.188-1.666 0.116-2.531v0zM3.469 8.799c0-0.007 0-0.020-0.007-0.026v-0.006c-0.045-0.092-0.098-0.217-0.137-0.374v-0.013c-0.020-0.052-0.072-0.098-0.131-0.098-0.046 0-0.085 0.020-0.111 0.052v0c0 0.007-0.007 0.013-0.007 0.013v0c0 0 0 0.007-0.007 0.007-0.006 0.006-0.006 0.019-0.006 0.026-0.065 0.197-0.131 0.373-0.203 0.531-0.046 0.098-0.092 0.183-0.138 0.268v0 0c0 0 0 0.007-0.007 0.007v0c0 0 0 0 0 0.007v0c0 0.007-0.007 0.013-0.007 0.026s0 0.020 0.007 0.033c0 0 0 0.007 0.007 0.007 0.013 0.013 0.020 0.026 0.033 0.046v0c0.046 0.077 0.125 0.156 0.216 0.156 0.098 0 0.197-0.085 0.242-0.17 0-0.007 0.007-0.007 0.007-0.013 0.072-0.138 0.158-0.289 0.243-0.433 0-0.007 0.007-0.013 0.007-0.013v0c0.007-0.013 0.007-0.020 0.007-0.033-0.008 0.007-0.008 0.007-0.008 0v0 0zM2.624 9.651c0-0.007-0.007-0.007-0.007-0.013 0 0 0-0.007-0.007-0.007-0.020-0.026-0.052-0.046-0.085-0.046s-0.066 0.013-0.085 0.039v0c0 0 0 0.007-0.007 0.007 0 0 0 0 0 0.007v0c0 0 0 0.007-0.007 0.007v0c-0.164 0.328-0.197 0.603-0.21 0.819v0.013c0 0.059 0.046 0.105 0.105 0.105 0.020 0 0.039-0.007 0.059-0.020l0.007-0.007c0.026-0.020 0.052-0.039 0.072-0.059l0.007-0.007c0.033-0.026 0.105-0.085 0.183-0.17 0 0 0 0 0.007-0.007v0l0.007-0.007c0.171-0.156 0.099-0.398-0.039-0.654v0z"/>
</svg>