<svg xmlns="http://www.w3.org/2000/svg" version="1.1" width="24" height="24" viewBox="0 0 24 24">
<path d="M8.051 5.238c-1.328 1.566-2.186 3.883-2.246 6.48v0.564c0.061 2.598 0.918 4.912 2.246 6.479 1.721 2.236 4.279 3.654 7.139 3.654 1.756 0 3.4-0.537 4.807-1.471-2.118 1.902-4.923 3.056-7.997 3.056-0.192 0-0.383-0.004-0.57-0.014-6.366-0.297-11.43-5.55-11.43-11.986 0-6.629 5.373-12 12-12h0.045c3.055 0.012 5.84 1.166 7.953 3.055-1.408-0.93-3.051-1.471-4.81-1.471-2.858 0-5.417 1.42-7.14 3.654zM24 12c0 3.556-1.545 6.748-4.002 8.945-3.078 1.5-5.946 0.451-6.896-0.205 3.023-0.664 5.307-4.32 5.307-8.74 0-4.422-2.283-8.075-5.307-8.74 0.949-0.654 3.818-1.703 6.896-0.205 2.457 2.195 4.002 5.39 4.002 8.945z"/>
</svg>