<svg xmlns="http://www.w3.org/2000/svg" version="1.1" width="24" height="24" viewBox="0 0 24 24">
<path d="M2.050 3.54l-0.88 4.16h3.28c2.52 0 3.28-1.23 3.28-2.34 0-0.82-0.47-1.82-2.52-1.82h-3.16zM10.54 3.54l-0.88 4.16h3.28c2.56 0 3.28-1.23 3.28-2.34 0-0.82-0.47-1.82-2.52-1.82h-3.16zM18.32 7.23l-0.93 4.16h3.28c2.57 0 3.33-1.17 3.33-2.34 0-0.82-0.47-1.82-2.5-1.82h-3.18zM0.88 9.8l-0.88 4.16h3.28c2.57 0 3.28-1.23 3.28-2.34 0-0.82-0.47-1.82-2.52-1.82h-3.16zM9.43 9.8l-0.93 4.16h3.27c2.57 0 3.34-1.23 3.34-2.34 0-0.82-0.47-1.82-2.52-1.82h-3.17zM17.090 13.73l-0.87 4.15h3.28c2.5 0 3.27-1.17 3.27-2.34 0-0.82-0.47-1.81-2.51-1.81h-3.17zM8.2 16.3l-0.88 4.16h3.28c2.51 0 3.27-1.23 3.27-2.34 0-0.82-0.46-1.82-2.51-1.82z"/>
</svg>