<svg xmlns="http://www.w3.org/2000/svg" version="1.1" width="24" height="24" viewBox="0 0 24 24">
<path d="M13.24 0.003v2.322c1.29 0.16 2.938 0.622 4.477 1.795l-1.186 1.608-0.016-0.015c0 0-1.229-1.051-3.27-1.38v6.419h6.33c-0.12-0.914-0.436-2.010-1.154-3.119l1.695-1.125c0 0 1.26 1.71 1.53 4.244h2.354v-10.752h-10.76zM17.575 23.206l-0.6 0.097-1.306-8.045 0.349-0.056 6.555-0.015-5.655 4.064 0.631 3.954zM13.238 13.239v10.761h10.758v-10.759l-10.758-0.004zM6.455 19.992l1.184-1.605h0.019c0 0 1.163 0.987 3.103 1.342v-6.491h-6.171c0.109 0.933 0.42 2.076 1.174 3.235l-1.684 1.119c0 0-1.296-1.761-1.529-4.355h-2.551v10.76h10.76v-2.231c-1.264-0.179-2.835-0.647-4.305-1.77zM4.977 1.968c-0.169 0-0.309 0.105-0.309 0.234s0.139 0.232 0.309 0.232 0.308-0.104 0.31-0.232c-0.001-0.129-0.141-0.234-0.31-0.234zM5.006 2.61c-0.502 0-0.906-0.405-0.906-0.9s0.404-0.896 0.906-0.896c0.5 0 0.905 0.404 0.905 0.899s-0.405 0.897-0.899 0.897zM3.67 2.67l-1.037 0.524c-0.094-0.113-0.165-0.205-0.24-0.309l-1.31 0.489-0.276-0.434 3.237-0.67-0.619 0.231c0.079 0.060 0.146 0.109 0.244 0.171zM1.676 0.765c0.378 0.575 0.824 1.047 1.4 1.482l-1.005 0.18c-0.376-0.537-0.706-1.059-1.007-1.699l0.609 0.035zM0 0v10.759h2.407c-0.102-0.983-0.21-3.805 1.481-6.146 0 0-0.375-0.359-0.88-0.951l-1.103 0.944-0.477-0.405 2.869-1.635-0.338 0.286c0.404 0.24 0.81 0.42 1.215 0.555 0 0 1.395-0.78 2.774-2.655l0.33 0.016c-0.255 0.84-1.050 2.28-2.294 3.435 0 0 3.299 1.44 4.049 3.886-0.21-0.12-1.395-0.375-1.979-0.24-0.105-0.165-1.215-2.431-2.896-2.4 0 0-0.375 0.45-0.734 1.62-0.314 1.035-0.18 3.21-0.136 3.72h6.45v-10.789z"/>
</svg>