<svg xmlns="http://www.w3.org/2000/svg" version="1.1" width="24" height="24" viewBox="0 0 24 24">
<path d="M12.010 0c-1.285 0-2.524 0.202-3.685 0.576l0.085-0.024v6.647c0.99-0.749 2.242-1.2 3.6-1.2 3.314 0 6 2.686 6 6s-2.686 6-6 6c-3.314 0-6-2.686-6-5.999v-10.398c-3.618 2.112-6.011 5.976-6.011 10.398 0 6.627 5.373 12 12 12s12-5.373 12-12c0-6.624-5.367-11.994-11.989-12h-0.001zM12.16 8.402c-0.045-0.002-0.097-0.003-0.15-0.003-1.988 0-3.6 1.612-3.6 3.6 0 0 0 0.001 0 0.001v-0c0 1.988 1.612 3.599 3.6 3.6h0c0.003 0 0.007 0 0.011 0 1.988 0 3.6-1.612 3.6-3.6 0-1.939-1.534-3.521-3.454-3.597l-0.007-0z"/>
</svg>