<svg xmlns="http://www.w3.org/2000/svg" version="1.1" width="24" height="24" viewBox="0 0 24 24">
<path d="M22.393 6c-0.167-0.29-0.398-0.543-0.652-0.69l-8.816-5.090c-0.508-0.293-1.339-0.293-1.847 0l-8.818 5.090c-0.508 0.293-0.923 1.013-0.923 1.6v10.18c0 0.294 0.104 0.62 0.271 0.91s0.398 0.543 0.652 0.689l8.816 5.091c0.508 0.293 1.339 0.293 1.847 0l8.816-5.091c0.254-0.146 0.485-0.399 0.652-0.689s0.271-0.616 0.271-0.91v-10.18c0.002-0.294-0.102-0.62-0.269-0.91zM12 19.109c-3.92 0-7.109-3.189-7.109-7.109s3.189-7.109 7.109-7.109c2.615 0.005 4.9 1.417 6.138 3.519l0.018 0.033-3.076 1.781c-0.628-1.069-1.771-1.777-3.080-1.779h-0c-1.96 0-3.554 1.595-3.554 3.555s1.594 3.555 3.554 3.555c1.309-0.003 2.452-0.709 3.071-1.761l0.009-0.017 3.077 1.78c-1.256 2.135-3.541 3.547-6.156 3.552h-0.001zM19.109 12.395h-0.79v0.79h-0.79v-0.79h-0.79v-0.79h0.79v-0.79h0.79v0.79h0.79zM22.071 12.395h-0.79v0.79h-0.79v-0.79h-0.789v-0.79h0.789v-0.79h0.79v0.79h0.79z"/>
</svg>