<svg xmlns="http://www.w3.org/2000/svg" version="1.1" width="24" height="24" viewBox="0 0 24 24">
<path d="M8.59 23.974q-0.185 0-0.33-0.066t-0.277-0.172-0.185-0.264-0.079-0.344l0.026-5.921h15.648l-7.11 6.767h-7.718zM24 15.41q-0.026 0.185-0.079 0.33t-0.185 0.264-0.277 0.185-0.33 0.066h-5.921l-0.026-15.674 6.793 7.137v7.692zM15.41 0.027q0.159 0 0.33 0.066t0.264 0.172 0.172 0.264 0.053 0.344l0.026 5.921h-15.7l7.163-6.767h7.665zM0.027 8.591q-0.026-0.185 0.053-0.33t0.185-0.264 0.264-0.185 0.317-0.066h5.947l-0.026 15.674-6.74-7.137-0.027-7.692z"/>
</svg>