<svg xmlns="http://www.w3.org/2000/svg" version="1.1" width="24" height="24" viewBox="0 0 24 24">
<path d="M23.775 14.443l-2.293-9.943c-0.128-0.536-0.621-1.093-1.178-1.243l-10.436-3.214c-0.129-0.043-0.279-0.043-0.45-0.043-0.45 0-0.9 0.171-1.222 0.45l-7.478 6.964c-0.408 0.366-0.622 1.093-0.493 1.607l2.443 10.65c0.128 0.536 0.621 1.093 1.178 1.243l9.772 3.043c0.128 0.043 0.278 0.043 0.45 0.043 0.45 0 0.9-0.171 1.221-0.45l7.993-7.436c0.407-0.428 0.622-1.114 0.493-1.671zM10.961 2.4l7.178 2.207c0.279 0.086 0.279 0.214 0 0.279l-3.771 0.857c-0.279 0.086-0.686-0.043-0.879-0.257l-2.614-2.829c-0.236-0.236-0.193-0.343 0.086-0.257zM15.439 15.257c0.086 0.279-0.107 0.45-0.385 0.364l-7.736-2.4c-0.279-0.085-0.343-0.321-0.129-0.514l5.915-5.507c0.214-0.214 0.45-0.129 0.514 0.15zM2.69 8.25l6.278-5.85c0.214-0.214 0.536-0.171 0.75 0.021l3.15 3.408c0.214 0.214 0.171 0.535-0.022 0.75l-6.278 5.85c-0.214 0.214-0.536 0.171-0.75-0.022l-3.15-3.407c-0.214-0.236-0.193-0.579 0.022-0.75zM4.212 17.507l-1.65-7.286c-0.086-0.278 0.043-0.342 0.235-0.128l2.615 2.828c0.214 0.215 0.278 0.622 0.214 0.9l-1.136 3.686c-0.085 0.3-0.214 0.3-0.278 0zM13.405 21.793l-8.208-2.55c-0.226-0.074-0.387-0.282-0.387-0.529 0-0.056 0.008-0.11 0.024-0.161l-0.001 0.004 1.372-4.414c0.074-0.226 0.282-0.386 0.529-0.386 0.056 0 0.109 0.008 0.16 0.023l-0.004-0.001 8.207 2.528c0.279 0.086 0.45 0.386 0.365 0.686l-1.372 4.414c-0.085 0.234-0.305 0.398-0.564 0.398-0.043 0-0.085-0.005-0.125-0.013l0.004 0.001zM20.69 15.814l-5.485 5.1c-0.215 0.215-0.322 0.129-0.236-0.15l1.136-3.685c0.085-0.279 0.385-0.579 0.685-0.622l3.772-0.857c0.278-0.107 0.321 0.021 0.128 0.214zM21.29 14.7l-4.521 1.029c-0.279 0.085-0.579-0.108-0.643-0.386l-1.929-8.357c-0.085-0.279 0.108-0.579 0.386-0.643l4.522-1.029c0.278-0.085 0.578 0.107 0.642 0.386l1.929 8.357c0.064 0.322-0.107 0.6-0.386 0.643z"/>
</svg>