<svg xmlns="http://www.w3.org/2000/svg" version="1.1" width="24" height="24" viewBox="0 0 24 24">
<path d="M6.55 18.779c-1.855 0-3.372-0.339-4.598-1.602l1.92-1.908c0.63 0.631 1.74 0.853 2.715 0.853 1.186 0 1.739-0.391 1.739-1.089 0-0.291-0.060-0.529-0.239-0.717-0.15-0.154-0.404-0.273-0.795-0.324l-1.455-0.205c-1.064-0.152-1.891-0.51-2.43-1.072-0.555-0.578-0.84-1.395-0.84-2.434-0.031-2.215 1.633-3.831 4.393-3.831 1.74 0 3.048 0.407 4.086 1.448l-1.875 1.872c-0.765-0.766-1.77-0.715-2.295-0.715-1.039 0-1.465 0.597-1.465 1.125 0 0.152 0.051 0.375 0.24 0.561 0.15 0.153 0.404 0.307 0.832 0.359l1.467 0.203c1.090 0.153 1.875 0.495 2.385 1.005 0.645 0.63 0.9 1.53 0.9 2.655 0 2.47-2.127 3.819-4.68 3.819zM20.813 2.651c-1.635-1.219-3.443-2.039-5.724-2.414v10.875l3.261-4.539h3.565l-4.095 5.72c0 0 0.944 1.51 1.515 2.405 0.586 0.899 1.139 1.14 1.965 1.14h0.57v2.806h-0.872c-1.812 0-2.9-0.33-3.72-1.575-0.504-0.811-2.175-3.436-2.175-3.436v4.995h-2.983v-18.629h-0.12c-3.852 0-6.509 0.931-8.811 2.652-3.321 2.486-3.188 5.8-3.188 9.346 0 3.547-0.133 6.867 3.188 9.352 2.302 1.725 4.959 2.651 8.811 2.651s6.51-0.927 8.812-2.651c3.319-2.484 3.188-5.805 3.188-9.352 0-3.546 0.132-6.859-3.188-9.346z"/>
</svg>