<svg xmlns="http://www.w3.org/2000/svg" version="1.1" width="24" height="24" viewBox="0 0 24 24">
<path d="M24.002 1.86v-1.059c-0.212 0-0.419-0.087-0.568-0.236-0.148-0.148-0.234-0.356-0.234-0.567h-1.061c-0.021 0.444-0.4 0.786-0.844 0.765-0.413-0.021-0.743-0.352-0.764-0.765h-1.061c-0.027 0.444-0.408 0.782-0.853 0.755-0.405-0.025-0.729-0.35-0.755-0.755h-1.059c-0.023 0.444-0.4 0.786-0.845 0.765-0.413-0.021-0.743-0.352-0.765-0.765h-1.060c-0.022 0.444-0.399 0.786-0.844 0.765-0.413-0.021-0.743-0.352-0.765-0.765h-1.059c-0.027 0.444-0.408 0.782-0.853 0.755-0.405-0.025-0.729-0.35-0.755-0.755h-1.060c-0.011 0.444-0.383 0.791-0.826 0.774-0.422-0.014-0.761-0.353-0.776-0.774h-1.060c-0.021 0.444-0.4 0.786-0.844 0.765-0.413-0.022-0.744-0.352-0.764-0.765h-1.060c-0.016 0.444-0.389 0.791-0.832 0.774-0.422-0.014-0.76-0.353-0.775-0.774h-1.060c0 0.211-0.086 0.419-0.235 0.567s-0.356 0.236-0.568 0.236v1.059c0.444 0.017 0.79 0.389 0.774 0.832-0.013 0.422-0.352 0.761-0.774 0.775v1.061c0.444 0.016 0.79 0.388 0.774 0.832-0.013 0.422-0.352 0.76-0.774 0.775v1.059c0.444 0 0.804 0.361 0.804 0.805s-0.36 0.804-0.804 0.804v1.059c0.444 0 0.804 0.359 0.804 0.804s-0.359 0.804-0.804 0.804v1.060c0.444 0.016 0.79 0.389 0.774 0.832-0.014 0.422-0.353 0.76-0.774 0.775v1.061c0.444 0 0.804 0.359 0.804 0.803 0 0.445-0.359 0.805-0.804 0.805v1.061c0.444 0.016 0.79 0.387 0.774 0.83-0.014 0.422-0.353 0.762-0.774 0.775v1.061c0.444 0 0.804 0.359 0.804 0.805 0 0.443-0.359 0.803-0.804 0.803v1.061c0.442 0.002 0.802 0.359 0.803 0.803h1.060c0.027-0.443 0.41-0.781 0.854-0.754 0.406 0.025 0.729 0.348 0.754 0.754h1.061c0.021-0.443 0.4-0.785 0.844-0.764 0.413 0.021 0.743 0.352 0.764 0.764h1.059c0.023-0.443 0.4-0.785 0.845-0.764 0.413 0.021 0.743 0.352 0.764 0.764h1.060c0.017-0.443 0.389-0.791 0.832-0.775 0.422 0.016 0.761 0.354 0.775 0.775h1.061c0.021-0.443 0.4-0.785 0.844-0.764 0.413 0.021 0.743 0.352 0.764 0.764h1.059c0.023-0.443 0.4-0.785 0.845-0.764 0.413 0.021 0.743 0.352 0.765 0.764h1.059c0.023-0.443 0.4-0.785 0.845-0.764 0.413 0.021 0.743 0.352 0.765 0.764h1.060c0.016-0.443 0.388-0.791 0.831-0.775 0.422 0.016 0.761 0.354 0.775 0.775h1.055c0-0.211 0.086-0.418 0.235-0.568 0.148-0.148 0.355-0.234 0.567-0.234v-1.061c-0.444-0.027-0.781-0.408-0.755-0.852 0.025-0.406 0.35-0.73 0.755-0.754v-1.061c-0.444-0.023-0.786-0.4-0.764-0.844 0.021-0.414 0.351-0.744 0.764-0.764v-1.061c-0.444-0.027-0.781-0.41-0.755-0.854 0.025-0.406 0.35-0.729 0.755-0.754v-1.061c-0.444-0.021-0.786-0.4-0.764-0.844 0.021-0.412 0.351-0.742 0.764-0.764v-1.058c-0.444-0.027-0.781-0.41-0.755-0.854 0.025-0.406 0.35-0.729 0.755-0.754v-1.060c-0.444-0.021-0.786-0.4-0.764-0.844 0.021-0.413 0.351-0.743 0.764-0.764v-1.060c-0.444-0.027-0.781-0.408-0.755-0.853 0.025-0.405 0.35-0.729 0.755-0.754v-1.060c-0.444-0.022-0.786-0.4-0.765-0.844 0.021-0.413 0.351-0.743 0.765-0.764zM19.934 11.698l-6.404 6.226c0.58 0.090 1.14 0.225 1.742 0.225 1.465 0 3.148-0.445 4.287-0.916l-0.584 2.746c-1.676 0.805-2.701 0.871-3.703 0.871-1.095 0-2.144-0.357-3.215-0.357-0.603 0-1.474 0.045-2.009 0.4l-1.161-2.053 6.607-6.541h-7.603l-1.451 6.808h-3.17l3.305-15.58h10.49l-0.67 3.146h-7.299l-0.625 2.925h11.977l-0.514 2.1z"/>
</svg>