<svg xmlns="http://www.w3.org/2000/svg" version="1.1" width="24" height="24" viewBox="0 0 24 24">
<path d="M17.805 3.852c0 0 0.34 1.441-0.746 1.64-0.754 0.133-1.973-0.617-2.586-1.363-0.758-0.922-0.66-1.649-0.075-2.29 0.883-0.98 2.399-0.6 2.399-0.6s-2.774-2.43-5.66-0.438c-2.57 1.77-1.832 4.18 0.488 6.285 2.090 1.902 0.422 3.988-1.688 3.719-1.44-0.184-2.030-1.344-1.687-2.055 0.3-0.61 1.336-0.984 1.336-0.984s-1.191-0.48-2.59 0.046c-1.262 0.473-2.297 1.512-2.215 4.122v12.078c0 0 1.301-1.602 2.832-3.235 1.711-1.84 2.492-3.082 4.25-2.937 3.328 0.207 5.735-1.274 7.371-3.645 3.141-4.562 0.68-9.66-1.429-10.343z"/>
</svg>