<svg xmlns="http://www.w3.org/2000/svg" version="1.1" width="24" height="24" viewBox="0 0 24 24">
<path d="M12.004 0.059c-3.31 0.012-6.305 1.348-8.485 3.506l0.001-0.001v0.002c-2.225 2.224-3.516 5.321-3.516 8.464 0 3.142 1.285 6.244 3.516 8.465l0.001 0.002c2.181 2.152 5.172 3.487 8.475 3.505l0.004 0h0.004c3.148 0 6.255-1.283 8.482-3.508l0.002-0.002c2.158-2.169 3.498-5.155 3.516-8.454l0-0.003v-0.004c0-3.141-1.287-6.243-3.518-8.465-2.178-2.158-5.173-3.495-8.48-3.507h-0.002zM12.004 1.395c0.48 0 0.96 0.046 1.435 0.113-2.030 0.566-3.765 1.622-5.554 1.949-0.379 0.069-0.814 0.109-1.259 0.109-0.34 0-0.676-0.023-1.004-0.068l0.038 0.004c1.826-1.338 4.084-2.107 6.344-2.107zM16.139 2.467c0.173 0 0.348 0.011 0.521 0.023 1.112 0.536 2.064 1.213 2.884 2.023l-0.001-0.001c0.092 0.091 0.173 0.194 0.262 0.289-1.288 0.692-2.809 1.121-4.424 1.178l-0.018 0c-2.43 0.060-4.958-0.794-7.69-0.823-0.025-0-0.055-0-0.085-0-1.534 0-3.004 0.273-4.365 0.773l0.088-0.028c0.32-0.457 0.672-0.893 1.062-1.293 1.223 0.322 2.5 0.39 3.748 0.164h0.002c2.264-0.412 4.133-1.625 6.049-2.080 0.577-0.142 1.239-0.224 1.921-0.224 0.016 0 0.033 0 0.049 0h-0.003zM20.674 5.871c0.581 0.812 1.067 1.747 1.41 2.748l0.023 0.076c-0.435-0.243-0.884-0.46-1.35-0.644h-0.001c-1.219-0.49-2.632-0.774-4.111-0.774-0.89 0-1.755 0.103-2.586 0.297l0.076-0.015h-0.003c-1.489 0.344-2.841 0.967-4.154 1.523-0.468 0.198-0.933 0.383-1.399 0.553-0.403-0.106-0.895-0.196-1.396-0.252l-0.049-0.004h-0.002c-0.265-0.026-0.573-0.041-0.885-0.041-1.188 0-2.326 0.216-3.375 0.612l0.066-0.022c-0.484-0.163-0.895-0.344-1.287-0.556l0.043 0.021c0.159-0.61 0.34-1.129 0.557-1.627l-0.027 0.070c1.671-0.877 3.552-1.364 5.433-1.344 2.445 0.026 4.992 0.89 7.738 0.822h0.004c1.944-0.059 3.752-0.587 5.333-1.473l-0.059 0.030zM16.643 8.613c1.233 0 2.463 0.229 3.625 0.682 0.872 0.351 1.624 0.782 2.308 1.299l-0.025-0.018c0.036 0.252 0.064 0.504 0.082 0.758-0.734-0.187-1.488-0.3-2.244-0.328-0.12-0.005-0.262-0.008-0.404-0.008-0.996 0-1.959 0.142-2.87 0.406l0.073-0.018c-0.697 0.198-1.353 0.463-1.989 0.759-1.087-0.371-2.166-0.86-3.277-1.336-0.207-0.102-0.644-0.283-1.085-0.456l-0.239-0.082c1.3-0.552 2.554-1.113 3.834-1.41 0.664-0.158 1.426-0.248 2.21-0.248 0 0 0.001 0 0.001 0h-0zM5.877 10.676c0.374-0.016 0.75-0.005 1.125 0.031 1.475 0.148 2.935 0.704 4.393 1.33 0.717 0.309 1.453 0.625 2.203 0.928-1.1 0.604-2.156 1.225-3.237 1.701-1.050-0.394-2.131-0.758-3.302-0.918-1.835-0.25-3.717 0.060-5.387 0.828-0.182-0.683-0.297-1.473-0.32-2.285l-0-0.015c0.403-0.3 0.828-0.57 1.28-0.79 0.947-0.466 2.056-0.76 3.228-0.809l0.017-0.001zM20.34 12.342c0.775 0.029 1.547 0.16 2.29 0.379-0.050 0.698-0.158 1.344-0.321 1.968l0.017-0.074c-0.67 0.438-1.383 0.807-2.139 1.080-1.828 0.657-3.85 0.79-5.75 0.373-0.78-0.17-1.557-0.45-2.341-0.75 1.889-0.973 3.598-2.119 5.457-2.646h0.002c0.729-0.214 1.567-0.337 2.433-0.337 0.124 0 0.247 0.003 0.369 0.007l-0.018-0.001zM5.508 15.006c0.458-0.016 0.916 0.005 1.369 0.066 2.354 0.322 4.617 1.718 7.275 2.301 0.357 0.078 0.717 0.134 1.078 0.178-0.35 0.1-0.698 0.21-1.043 0.332v0.002h-0.001c-1.283 0.462-2.455 1.042-3.637 1.388-2.151 0.625-4.443 0.54-6.543-0.23-0.793-0.903-1.444-1.956-1.901-3.107l-0.025-0.073c1-0.496 2.172-0.807 3.411-0.856l0.017-0.001zM21.652 16.506c-0.067 0.145-0.133 0.291-0.207 0.433-0.221-0.017-0.442-0.039-0.664-0.048 0.298-0.112 0.584-0.251 0.871-0.385zM19.952 18.209c0.231-0.001 0.464 0.007 0.696 0.016-0.333 0.465-0.696 0.912-1.105 1.324h-0.002v0.002c-1.966 1.963-4.754 3.113-7.535 3.113-2.154-0.014-4.156-0.655-5.835-1.75l0.042 0.025c1.57 0.189 3.173 0.065 4.71-0.382h0.003c1.332-0.391 2.526-0.987 3.71-1.414 1.581-0.582 3.407-0.923 5.311-0.934l0.005-0z"/>
</svg>