<svg xmlns="http://www.w3.org/2000/svg" version="1.1" width="24" height="24" viewBox="0 0 24 24">
<path d="M12.2 18.1c-3.8 0-7.2-1.4-9-3.4 0.7 1.8 1.9 3.4 3.5 4.5s3.5 1.7 5.5 1.7 3.9-0.6 5.5-1.7 2.8-2.7 3.5-4.5c-1.8 2-5.2 3.4-9 3.4zM12.2 4.9c3.8 0 7.2 1.4 9 3.4-0.7-1.8-1.9-3.4-3.5-4.5-1.7-1.2-3.6-1.8-5.5-1.8-2 0-3.9 0.6-5.5 1.7-1.6 1.2-2.8 2.7-3.5 4.6 1.8-2.1 5.1-3.4 9-3.4zM19.2 0.1c-0.773 0-1.4 0.627-1.4 1.4s0.627 1.4 1.4 1.4v0c0.773 0 1.4-0.627 1.4-1.4s-0.627-1.4-1.4-1.4v0zM5.1 20.3c-0.994 0-1.8 0.806-1.8 1.8s0.806 1.8 1.8 1.8v0c0.994 0 1.8-0.806 1.8-1.8s-0.806-1.8-1.8-1.8v0zM3.6 2.3c-0.552 0-1 0.448-1 1s0.448 1 1 1v0c0.552 0 1-0.448 1-1s-0.448-1-1-1v0z"/>
</svg>