<svg xmlns="http://www.w3.org/2000/svg" version="1.1" width="24" height="24" viewBox="0 0 24 24">
<path d="M1.77 1.76c1.018-1.067 2.444-1.737 4.026-1.76l0.004-0h12.6c1.37 0 2.65 0.6 3.83 1.76 1.072 0.981 1.749 2.379 1.77 3.936l0 0.004v12.77c0 1.34-0.56 2.58-1.68 3.73-1.027 1.082-2.466 1.766-4.064 1.8l-0.006 0h-12.38c-1.576-0.016-3.011-0.608-4.107-1.576l0.007 0.006c-1.080-0.98-1.67-2.4-1.77-4.3v-12.4c-0-0.017-0-0.037-0-0.057 0-1.556 0.683-2.954 1.765-3.908l0.006-0.005zM8.020 10.060l7.93 10.060h2.12c0.49-0.060 0.88-0.2 1.17-0.43 0.3-0.23 0.5-0.56 0.64-1v-4.94c0.080-0.95 0.67-1.54 1.77-1.75-1.1-0.4-1.69-1.020-1.77-1.86v-4.72c-0.12-0.44-0.33-0.8-0.64-1.070-0.29-0.264-0.667-0.437-1.084-0.47l-0.006-0h-2.15v10.2l-7.98-10.21h-2.23c-0.56 0.1-0.97 0.3-1.25 0.6s-0.46 0.78-0.54 1.43v4.85c-0.35 0.69-0.9 1.1-1.65 1.25 0.85 0.16 1.4 0.61 1.65 1.36v4.77c0.020 0.55 0.2 1 0.54 1.37 0.33 0.36 0.7 0.53 1.1 0.5h2.36z"/>
</svg>