<svg xmlns="http://www.w3.org/2000/svg" version="1.1" width="24" height="24" viewBox="0 0 24 24">
<path d="M4.586 9.346c-0.003-0-0.006-0-0.010-0-0.125 0-0.24 0.043-0.331 0.114l0.001-0.001c-0.095 0.074-0.164 0.177-0.196 0.295l-0.001 0.004-1.309 4.896h0.922c0.002 0 0.004 0 0.006 0 0.124 0 0.238-0.043 0.328-0.114l-0.001 0.001c0.095-0.072 0.165-0.172 0.199-0.287l0.001-0.004 0.968-3.604h0.744c0.001 0 0.002 0 0.003 0 0.115 0 0.223 0.029 0.317 0.079l-0.004-0.002c0.096 0.049 0.176 0.116 0.239 0.197l0.001 0.002c0.060 0.079 0.105 0.174 0.128 0.276l0.001 0.005c0.010 0.043 0.016 0.093 0.016 0.144 0 0.065-0.010 0.128-0.027 0.187l0.001-0.005c-0.079 0.305-0.352 0.526-0.676 0.526h-0.385c-0.002-0-0.005-0-0.007-0-0.125 0-0.24 0.043-0.331 0.114l0.001-0.001c-0.095 0.072-0.165 0.172-0.199 0.287l-0.001 0.004-0.24 0.896h1.201c0.001 0 0.003 0 0.004 0 0.672 0 1.263-0.341 1.611-0.86l0.004-0.007c0.113-0.168 0.204-0.363 0.262-0.572l0.003-0.014 0.027-0.1c0.045-0.151 0.070-0.325 0.070-0.505 0-0.142-0.016-0.281-0.046-0.414l0.002 0.012c-0.13-0.589-0.51-1.070-1.020-1.335l-0.011-0.005c-0.25-0.132-0.547-0.21-0.862-0.21-0.006 0-0.012 0-0.019 0h0.001zM23.033 9.346c-0.002-0-0.005-0-0.007-0-0.092 0-0.176 0.031-0.244 0.083l0.001-0.001c-0.069 0.053-0.119 0.128-0.14 0.214l-0 0.003-1.334 5.010c0.002 0 0.004 0 0.007 0 0.202 0 0.395-0.035 0.575-0.1l-0.012 0.004c0.19-0.067 0.354-0.157 0.5-0.269l-0.004 0.003c0.15-0.115 0.277-0.25 0.381-0.402l0.004-0.006c0.104-0.152 0.184-0.329 0.232-0.52l0.002-0.011 0.996-3.696c0.006-0.020 0.010-0.043 0.010-0.068 0-0.057-0.021-0.11-0.055-0.15l0 0c-0.045-0.058-0.116-0.095-0.194-0.095-0.002 0-0.004 0-0.006 0h0zM8.381 10.643l-0.133 0.503c-0.012 0.043-0.018 0.092-0.018 0.143 0 0.042 0.005 0.082 0.013 0.121l-0.001-0.004c0.018 0.085 0.052 0.159 0.101 0.222l-0.001-0.001c0.050 0.064 0.111 0.116 0.182 0.153l0.003 0.001c0.071 0.038 0.155 0.060 0.245 0.060 0.002 0 0.005-0 0.007-0h2.157c0.001-0 0.003-0 0.005-0 0.032 0 0.060 0.015 0.079 0.038l0 0c0.012 0.016 0.020 0.037 0.020 0.059 0 0.010-0.002 0.021-0.005 0.030l0-0.001-0.020 0.072-0.324 1.201-0.013 0.055c-0.009 0.043-0.033 0.080-0.067 0.105l-0 0c-0.034 0.025-0.076 0.040-0.122 0.040-0.002 0-0.004-0-0.006-0h-1.306c-0.001 0-0.002 0-0.004 0-0.047 0-0.089-0.022-0.116-0.057l-0-0c-0.021-0.024-0.033-0.055-0.033-0.089 0-0.015 0.002-0.029 0.007-0.042l-0 0.001c0.022-0.074 0.071-0.112 0.147-0.112h0.808c0.002 0 0.004 0 0.006 0 0.123 0 0.237-0.042 0.327-0.113l-0.001 0.001c0.095-0.073 0.165-0.173 0.199-0.289l0.001-0.004 0.132-0.498h-1.81c-0.001 0-0.001 0-0.002 0-0.135 0-0.265 0.024-0.386 0.068l0.008-0.002c-0.124 0.044-0.231 0.104-0.326 0.178l0.003-0.002c-0.099 0.077-0.184 0.166-0.253 0.267l-0.003 0.004c-0.069 0.099-0.123 0.214-0.154 0.339l-0.002 0.007-0.028 0.1c-0.025 0.088-0.040 0.188-0.040 0.292 0 0.085 0.010 0.168 0.028 0.248l-0.001-0.007c0.040 0.177 0.113 0.333 0.214 0.467l-0.002-0.003c0.21 0.276 0.54 0.453 0.91 0.453 0.003 0 0.005 0 0.008-0h-0l2.157 0.006c0.002 0 0.004 0 0.006 0 0.415 0 0.764-0.281 0.868-0.664l0.001-0.006 0.525-1.95c0.023-0.083 0.036-0.179 0.036-0.278 0-0.084-0.009-0.165-0.027-0.244l0.001 0.007c-0.037-0.17-0.109-0.319-0.207-0.447l0.002 0.003c-0.102-0.129-0.227-0.234-0.371-0.309l-0.006-0.003c-0.141-0.076-0.309-0.12-0.487-0.12-0.004 0-0.008 0-0.012 0h0.001zM1.984 10.653c-0.002 0-0.003 0-0.005 0-0.227 0-0.444 0.039-0.646 0.111l0.013-0.004c-0.211 0.074-0.395 0.174-0.558 0.299l0.005-0.004c-0.335 0.259-0.582 0.618-0.697 1.031l-0.003 0.014-0.027 0.1c-0.042 0.15-0.066 0.322-0.066 0.5 0 0.143 0.016 0.283 0.045 0.418l-0.002-0.013c0.065 0.301 0.19 0.565 0.364 0.791l-0.003-0.005c0.179 0.23 0.402 0.416 0.657 0.549l0.011 0.005c0.25 0.132 0.547 0.21 0.862 0.21 0.006 0 0.012-0 0.019-0h0.463l0.266-0.983c0.006-0.020 0.010-0.044 0.010-0.068 0-0.056-0.020-0.108-0.054-0.148l0 0c-0.044-0.059-0.113-0.096-0.192-0.096-0.002 0-0.005 0-0.007 0h-0.423c-0.002 0-0.003 0-0.005 0-0.114 0-0.222-0.027-0.318-0.076l0.004 0.002c-0.096-0.047-0.176-0.113-0.239-0.193l-0.001-0.002c-0.059-0.079-0.103-0.174-0.126-0.276l-0.001-0.005c-0.010-0.045-0.016-0.097-0.016-0.15 0-0.068 0.010-0.133 0.027-0.195l-0.001 0.005c0.045-0.154 0.135-0.283 0.254-0.376l0.002-0.001c0.113-0.087 0.256-0.14 0.412-0.14 0.003 0 0.006 0 0.009 0h0.697c0.002 0 0.004 0 0.007 0 0.125 0 0.241-0.043 0.332-0.115l-0.001 0.001c0.095-0.074 0.165-0.176 0.198-0.293l0.001-0.004 0.232-0.89zM13.064 10.653l-0.982 3.689c-0.006 0.020-0.010 0.043-0.010 0.068 0 0.057 0.021 0.11 0.055 0.15l-0-0c0.044 0.058 0.113 0.095 0.19 0.095 0.002 0 0.003-0 0.005-0h0.711c0.001 0 0.002 0 0.004 0 0.092 0 0.177-0.030 0.245-0.081l-0.001 0.001c0.070-0.050 0.121-0.123 0.142-0.207l0.001-0.003 0.644-2.41h0.745c0.002-0 0.005-0 0.008-0 0.113 0 0.22 0.028 0.314 0.077l-0.004-0.002c0.095 0.050 0.174 0.117 0.237 0.198l0.001 0.002c0.060 0.079 0.105 0.173 0.128 0.275l0.001 0.005c0.010 0.043 0.016 0.093 0.016 0.144 0 0.065-0.010 0.128-0.027 0.187l0.001-0.005-0.398 1.506c-0.006 0.021-0.010 0.044-0.010 0.069 0 0.134 0.109 0.243 0.243 0.243 0.002 0 0.005-0 0.007-0h0.713c0.001 0 0.002 0 0.003 0 0.091 0 0.175-0.030 0.242-0.081l-0.001 0.001c0.070-0.051 0.122-0.125 0.142-0.21l0.001-0.003 0.332-1.248c0.045-0.154 0.071-0.33 0.071-0.513 0-0.14-0.015-0.276-0.044-0.408l0.002 0.013c-0.064-0.302-0.19-0.568-0.364-0.795l0.003 0.005c-0.179-0.23-0.402-0.416-0.657-0.549l-0.011-0.005c-0.251-0.132-0.548-0.209-0.864-0.209-0.007 0-0.015 0-0.022 0h0.001zM18.857 10.653c-0.003-0-0.006-0-0.009-0-0.172 0-0.336 0.030-0.489 0.084l0.010-0.003c-0.314 0.11-0.572 0.313-0.749 0.575l-0.003 0.005c-0.089 0.13-0.159 0.281-0.203 0.444l-0.002 0.010-0.406 1.505c-0.026 0.085-0.041 0.183-0.041 0.285 0 0.079 0.009 0.156 0.026 0.23l-0.001-0.007c0.038 0.171 0.109 0.32 0.207 0.449l-0.002-0.003c0.1 0.13 0.226 0.235 0.371 0.309l0.006 0.003c0.141 0.073 0.307 0.115 0.483 0.115 0.005 0 0.011-0 0.016-0h2.501c0.002 0 0.004 0 0.006 0 0.124 0 0.238-0.043 0.328-0.114l-0.001 0.001c0.095-0.072 0.165-0.172 0.199-0.287l0.001-0.004 0.21-0.791h-2.748c-0.11-0.001-0.198-0.090-0.198-0.2 0-0.018 0.003-0.036 0.007-0.053l-0 0.001 0.299-1.127c0.022-0.066 0.061-0.121 0.112-0.161l0.001-0.001c0.048-0.040 0.111-0.064 0.179-0.064 0.001 0 0.001 0 0.002 0h1.232c0.084 0 0.152 0.069 0.152 0.153 0 0.014-0.002 0.028-0.006 0.041l0-0.001-0.026 0.1c-0.022 0.075-0.071 0.113-0.146 0.113h-0.81c-0.003-0-0.008-0-0.012-0-0.124 0-0.238 0.042-0.329 0.112l0.001-0.001c-0.093 0.072-0.161 0.173-0.19 0.289l-0.001 0.004-0.133 0.49h2.004c0.003 0 0.006 0 0.010 0 0.203 0 0.39-0.068 0.539-0.183l-0.002 0.002c0.156-0.118 0.27-0.285 0.319-0.477l0.001-0.006 0.12-0.45c0.023-0.085 0.037-0.183 0.037-0.284 0-0.081-0.009-0.16-0.025-0.236l0.001 0.007c-0.035-0.17-0.106-0.319-0.205-0.445l0.002 0.002c-0.101-0.129-0.226-0.234-0.369-0.31l-0.006-0.003c-0.141-0.075-0.308-0.119-0.485-0.119-0.005 0-0.009 0-0.014 0h0.001z"/>
</svg>