<svg xmlns="http://www.w3.org/2000/svg" version="1.1" width="24" height="24" viewBox="0 0 24 24">
<path d="M21.724 4.973l-8.306-4.645c-0.413-0.207-0.899-0.328-1.414-0.328s-1.001 0.121-1.433 0.336l0.019-0.008-8.314 4.645c-0.809 0.518-1.353 1.388-1.414 2.389l-0 0.009v9.256c0.061 1.010 0.605 1.882 1.402 2.393l0.012 0.007 8.306 4.645c0.413 0.207 0.899 0.328 1.414 0.328s1.001-0.121 1.433-0.336l-0.019 0.008 8.314-4.645c0.809-0.518 1.353-1.39 1.414-2.392l0-0.008v-9.254c-0.061-1.010-0.605-1.882-1.402-2.393l-0.012-0.007zM12 4.921c0 0 0 0 0 0 1.42 0 2.571 1.151 2.571 2.571s-1.151 2.571-2.571 2.571h-0c-0 0-0 0-0 0-1.42 0-2.571-1.151-2.571-2.571s1.151-2.571 2.571-2.571h0zM15.094 18.548c-0.923 0.346-1.989 0.547-3.102 0.549h-0.001c-1.105-0.002-2.162-0.204-3.138-0.57l0.062 0.020c-3.234-1.249-5.486-4.333-5.486-7.943 0-0.016 0-0.031 0-0.046v0.002-0.857c4.646 0.017 8.074 3.823 8.074 8.51v0.198h0.926v-0.197c0-4.688 3.445-8.51 8.056-8.51 0.026 0.29 0.043 0.582 0.086 0.856 0 0.013 0 0.027 0 0.042 0 3.608-2.248 6.691-5.419 7.926l-0.058 0.020z"/>
</svg>