<svg xmlns="http://www.w3.org/2000/svg" version="1.1" width="24" height="24" viewBox="0 0 24 24">
<path d="M15.3 0.002c-0.009-0.002-0.015-0.002-0.019 0.002-0.047 0.055-0.25 1.273-0.449 2.706-0.204 1.47-0.468 2.851-0.604 3.17l-0.243 0.566-0.555-0.11c-0.707-0.14-2.091-0.14-2.787-0.003-0.515 0.102-0.548 0.089-0.795-0.326-0.186-0.311-0.356-1.157-0.612-3.037-0.194-1.432-0.384-2.714-0.422-2.847-0.053-0.189-0.157-0.088-0.469 0.456-0.625 1.092-1.756 3.65-1.998 4.52l-0.219 0.787 0.487 1.296 0.486 1.296-0.142 1.405c-0.074 0.693-0.124 1.523-0.141 2.361l-0 0.029c0 0.95 0.021 1.020 0.569 1.834l0.569 0.847-0.314 2.847c-0.3 2.73-0.304 2.855-0.080 3.025 0.128 0.097 0.27 0.178 0.314 0.18 0.045 0.003 0.188-1.050 0.317-2.34 0.13-1.29 0.277-2.344 0.328-2.344 0.207 0 0.25 2.075 0.074 3.516-0.137 1.117-0.146 1.538-0.036 1.654 0.082 0.085 0.88 0.683 1.776 1.328s1.645 1.176 1.666 1.18 1.077-0.737 2.345-1.645c1.269-0.908 2.321-1.66 2.34-1.672 0.018-0.011-0.11-1.32-0.283-2.906l-0.315-2.885 0.575-0.859c0.661-0.986 0.672-1.080 0.433-3.899l-0.144-1.693 0.48-1.276 0.48-1.275-0.282-0.939c-0.324-1.078-2.106-4.846-2.33-4.949zM15.658 2.254c0.133 0 0.78 1.414 1.205 2.629 0.264 0.757 0.28 0.912 0.136 1.391-0.089 0.296-0.214 0.539-0.277 0.539-0.267 0-1.12-2.348-1.183-3.257-0.047-0.676 0.010-1.302 0.119-1.302zM8.388 2.347c0.005 0 0.010 0 0.013 0.004 0.34 0.341 0.021 2.34-0.598 3.74-0.167 0.378-0.362 0.724-0.433 0.768-0.070 0.043-0.203-0.186-0.294-0.51-0.131-0.47-0.132-0.702-0.005-1.138 0.283-0.967 1.155-2.854 1.317-2.864zM9.944 4.207v0.359c0.001 0.197 0.063 0.578 0.137 0.847 0.15 0.541 0.162 0.544 1.205 0.352 0.225-0.045 0.483-0.071 0.747-0.071 0.281 0 0.554 0.029 0.819 0.084l-0.026-0.005c0.976 0.177 1.093 0.092 1.22-0.882l0.090-0.684h-2.096zM5.906 4.749l-1.628 0.44-0.028 6.64-0.029 6.642 1.257 0.878c0.69 0.483 1.285 0.848 1.321 0.812 0.036-0.035 0.192-1.222 0.347-2.636l0.282-2.571-0.377-0.555c-0.777-1.144-0.802-1.29-0.623-3.759l0.162-2.23-0.425-1.125c-0.362-0.96-0.412-1.23-0.342-1.831zM18.15 4.749l0.078 0.674c0.066 0.57 0.006 0.864-0.387 1.91-0.256 0.681-0.438 1.355-0.404 1.499 0.146 0.63 0.29 3.699 0.197 4.209-0.057 0.309-0.309 0.865-0.56 1.237l-0.458 0.676 0.3 2.605c0.164 1.433 0.304 2.622 0.31 2.642 0.022 0.066 0.448-0.212 1.51-0.986l1.043-0.76v-13.267l-0.814-0.22zM8.947 5.186c0.030-0.002 0.052 0.096 0.090 0.27 0.087 0.416 0.104 0.45 0.599 1.246l0.295 0.476 0.523-0.18c0.287-0.1 0.76-0.218 1.048-0.265 0.476-0.076 0.526-0.057 0.526 0.194 0 0.221-0.079 0.277-0.394 0.277-0.216 0-0.727 0.117-1.135 0.26s-0.755 0.26-0.773 0.26c-0.017 0-0.186-0.263-0.375-0.586-0.189-0.322-0.358-0.586-0.377-0.586s-0.23 0.308-0.47 0.684c-0.314 0.492-0.441 0.848-0.454 1.27-0.010 0.323-0.065 1.452-0.124 2.51l-0.107 1.923 0.493 0.714c0.27 0.393 0.505 0.715 0.521 0.715 0.312 0 0.91-0.398 1.302-0.866 0.366-0.439 0.525-0.55 0.597-0.42 0.131 0.237 0.176 3.206 0.056 3.667-0.124 0.479 0.247 0.924 0.681 0.815 0.267-0.067 0.299-0.029 0.299 0.36 0 0.007 0 0.015 0 0.023 0 0.275-0.116 0.522-0.302 0.696l-0.001 0c-0.39 0.367-1.11 0.373-1.568 0.013-0.389-0.305-0.67-1.163-0.808-2.466-0.081-0.768-0.161-0.943-0.859-1.88-0.423-0.57-0.807-1.185-0.853-1.368-0.046-0.184-0.010-1.314 0.079-2.512s0.127-2.235 0.085-2.304c-0.043-0.069 0.154-0.484 0.438-0.923 0.284-0.44 0.618-1.102 0.743-1.474 0.127-0.377 0.184-0.543 0.224-0.544zM14.509 9.964c0.205 0.012 0.32 0.134 0.32 0.366 0 0.311-0.039 0.327-0.88 0.364-0.483 0.020-0.878 0.009-0.878-0.027s0.261-0.22 0.58-0.406c0.36-0.21 0.654-0.31 0.858-0.297zM9.517 9.984c0.356-0.007 0.888 0.193 1.143 0.475 0.234 0.26 0.23 0.261-0.56 0.261-0.65 0-0.822-0.045-0.93-0.246-0.099-0.184-0.082-0.289 0.065-0.41 0.072-0.050 0.162-0.081 0.259-0.081 0.008 0 0.016 0 0.024 0.001l-0.001-0zM10.264 11.241c0.288 0 0.25 0.486-0.050 0.647-0.359 0.192-0.495 0.17-0.79-0.125-0.344-0.344-0.33-0.55 0.032-0.498 0.202 0.029 0.28 0.116 0.252 0.28-0.030 0.172 0.026 0.226 0.195 0.191 0.139-0.028 0.22-0.14 0.198-0.271s0.045-0.224 0.163-0.224zM14.563 11.241c0.288 0 0.25 0.486-0.051 0.647-0.358 0.192-0.495 0.17-0.79-0.125-0.344-0.344-0.33-0.55 0.032-0.498 0.202 0.029 0.28 0.116 0.252 0.28-0.029 0.172 0.026 0.226 0.196 0.191 0.138-0.028 0.22-0.14 0.198-0.271s0.045-0.224 0.163-0.224zM13.293 12.937c0.062 0.003 0.347 0.263 0.663 0.605 0.417 0.451 0.758 0.694 1.068 0.76 0.661 0.14 0.701 0.192 0.398 0.514-0.32 0.341-0.528 0.988-0.528 1.644 0 0.699-0.37 1.806-0.72 2.156-0.685 0.685-1.885 0.23-1.885-0.716 0-0.36 0.038-0.412 0.254-0.343 0.395 0.125 0.84-0.387 0.714-0.825-0.102-0.356-0.078-3.684 0.028-3.793 0.002-0.002 0.005-0.003 0.008-0.002zM12.028 19.317c0.637 0 0.857 0.154 0.446 0.312s-1.097 0.037-1.097-0.192c0-0.066 0.293-0.12 0.651-0.12zM10.702 19.404l0.413 0.348c0.556 0.468 1.266 0.472 1.815 0.010 0.383-0.322 0.401-0.326 0.401-0.068 0 0.148-0.144 0.363-0.32 0.479-0.784 0.513-2.167 0.236-2.264-0.454z"/>
</svg>