<svg xmlns="http://www.w3.org/2000/svg" version="1.1" width="24" height="24" viewBox="0 0 24 24">
<path d="M0 2.75v5.090c0 1.92 1.34 3.19 3.080 3.19 0.85 0 1.61-0.33 2.15-0.9v0.76h1.21v-8.14h-1.22v5.020c0 1.29-0.87 2.16-2 2.16-1.14 0-2-0.85-2-2.16v-5.020h-1.22zM7.35 2.75v8.14h1.15v-0.75c0.538 0.549 1.287 0.89 2.116 0.89 0.005 0 0.010-0 0.015-0h-0.001c0.006 0 0.013 0 0.020 0 1.707 0 3.090-1.383 3.090-3.090 0-0.004 0-0.007-0-0.011v0.001c0-0.003 0-0.007 0-0.010 0-1.707-1.383-3.090-3.090-3.090-0.007 0-0.014 0-0.021 0h0.001c-0.83 0-1.57 0.34-2.13 0.88v-2.96h-1.15zM17.26 4.84c-1.76 0-3.050 1.41-3.050 3.080 0 1.77 1.37 3.080 3.15 3.080 1.080 0 1.97-0.46 2.56-1.25l-0.85-0.63c-0.44 0.59-1.020 0.88-1.71 0.88-1 0-1.8-0.73-1.96-1.69h4.82v-0.39c0-1.76-1.25-3.080-2.96-3.080zM23.45 4.91c-0.65 0-1.12 0.3-1.41 0.78v-0.73h-1.17v5.93h1.18v-3.39c0-0.9 0.56-1.5 1.32-1.5h0.49v-1.090h-0.41zM17.23 5.86c0.88 0 1.61 0.61 1.81 1.52h-3.62c0.21-0.91 0.94-1.52 1.81-1.52zM10.55 5.88c1.11 0 2.030 0.9 2.030 2.050 0 1.14-0.92 2.070-2.030 2.070-0.003 0-0.007 0-0.010 0-1.127 0-2.040-0.913-2.040-2.040 0-0.011 0-0.021 0-0.032l-0 0.002c0-1.15 0.92-2.050 2.050-2.050zM0 12.96v8.14h5.72v-1.39h-4.17v-2.020h4.060v-1.35h-4.060v-1.99h4.17v-1.39h-5.72zM14.56 13.38v1.71h-1.16v1.36h1.16v3.2c0 0.81 0.57 1.45 1.6 1.45h1.64v-1.36h-1.14c-0.35 0-0.57-0.16-0.57-0.48v-2.81h1.71v-1.36h-1.71v-1.71h-1.53zM9.32 14.94c-1.79 0-3.2 1.4-3.2 3.16 0 1.75 1.41 3.15 3.2 3.15 0.72 0 1.39-0.25 1.92-0.69v0.54h1.52v-6.010h-1.52v0.54c-0.51-0.429-1.175-0.69-1.9-0.69-0.007 0-0.014 0-0.021 0h0.001zM21.040 14.94c-1.59 0-2.7 0.65-2.7 1.92 0 0.87 0.61 1.44 1.93 1.72l1.45 0.34c0.57 0.11 0.72 0.26 0.72 0.5 0 0.37-0.44 0.61-1.13 0.61-0.87 0-1.37-0.2-1.57-0.86h-1.53c0.22 1.25 1.15 2.080 3.050 2.080 1.74 0 2.74-0.83 2.74-1.99 0-0.82-0.58-1.43-1.81-1.69l-1.29-0.27c-0.75-0.14-0.99-0.3-0.99-0.56 0-0.36 0.36-0.58 1.030-0.58 0.72 0 1.25 0.2 1.4 0.84h1.52c-0.080-1.23-0.99-2.060-2.82-2.060zM9.45 16.26c1.010 0 1.82 0.81 1.82 1.84s-0.81 1.83-1.82 1.83c-0.003 0-0.006 0-0.010 0-1.005 0-1.82-0.815-1.82-1.82 0-0.004 0-0.007 0-0.011v0.001c0-1.030 0.83-1.84 1.83-1.84z"/>
</svg>