<svg xmlns="http://www.w3.org/2000/svg" version="1.1" width="24" height="24" viewBox="0 0 24 24">
<path d="M0.393 3.617c-0.217 0.001-0.393 0.178-0.393 0.395 0 0 0 0 0 0v0c0 0.12 0.054 0.225 0.139 0.297l8.507 7.404c0.078 0.072 0.127 0.174 0.127 0.288 0 0.12-0.054 0.228-0.14 0.299l-0.001 0-8.52 7.412c-0.071 0.071-0.114 0.169-0.114 0.277 0 0.217 0.176 0.393 0.393 0.393 0 0 0.001 0 0.001 0h4.86c0.103 0 0.195-0.040 0.265-0.104l9.17-7.98c0.083-0.073 0.136-0.18 0.136-0.298s-0.052-0.225-0.134-0.297l-0-0-9.171-7.982c-0.069-0.064-0.162-0.104-0.264-0.104-0 0-0 0-0 0h0zM18.752 3.617c-0.107 0-0.203 0.043-0.273 0.113l0-0-4.717 4.106c-0.087 0.072-0.141 0.18-0.141 0.301 0 0.101 0.038 0.194 0.101 0.263l-0-0 2.428 2.114c0.072 0.079 0.176 0.129 0.291 0.129v0c0.109-0.001 0.207-0.046 0.278-0.118l0-0 7.127-6.203c0.094-0.072 0.154-0.184 0.154-0.31 0 0 0 0 0 0v0c0 0 0 0 0 0 0-0.217-0.176-0.394-0.393-0.395h-0zM16.442 13.359c-0.116 0-0.22 0.050-0.292 0.13l-2.427 2.113c-0.063 0.069-0.102 0.162-0.102 0.263 0 0.121 0.054 0.228 0.14 0.3l0.001 0 4.717 4.104c0.070 0.070 0.166 0.113 0.273 0.113h4.855c0 0 0 0 0 0 0.217 0 0.393-0.176 0.393-0.393 0-0.127-0.060-0.239-0.153-0.311l-0.001-0.001-7.127-6.203c-0.071-0.071-0.169-0.115-0.277-0.116h-0z"/>
</svg>