<svg xmlns="http://www.w3.org/2000/svg" version="1.1" width="24" height="24" viewBox="0 0 24 24">
<path d="M21.016 18.12l-8.665 4.88v-3.801l5.399-2.957zM21.608 17.586v-10.205l-3.171 1.822v6.559zM2.926 18.12l8.665 4.88v-3.801l-5.399-2.957zM2.333 17.586v-10.205l3.171 1.822v6.559zM2.704 6.72l8.886-5.006v3.675l-5.736 3.142zM21.237 6.72l-8.886-5.006v3.675l5.736 3.143zM11.591 18.335l-5.326-2.916v-5.777l5.326 3.062zM12.351 18.335l5.326-2.916v-5.777l-5.326 3.062zM6.625 8.973l5.347-2.928 5.347 2.928-5.347 3.074z"/>
</svg>