<svg xmlns="http://www.w3.org/2000/svg" version="1.1" width="24" height="24" viewBox="0 0 24 24">
<path d="M0 0.3v23.4h24v-23.4zM1 1.3h22v21.4h-22zM8.775 16.518c0 0.1-0.017 0.132-0.132 0.132h-1.536c-0.1 0-0.132-0.050-0.132-0.132v-10.736c0-0.1 0.050-0.132 0.132-0.132h1.553c0.082 0 0.115 0.033 0.115 0.116zM10.545 12.646c0-2.393 1.578-4.257 4.102-4.257 0.214 0 0.33 0 0.528 0.015v-2.654c0-0.066 0.050-0.1 0.1-0.1h1.625c0.084 0 0.1 0.034 0.1 0.084v9.355c0 0.28 0 0.625 0.050 1.004 0 0.066-0.020 0.083-0.087 0.116-0.858 0.413-1.766 0.595-2.624 0.595-2.213 0-3.797-1.37-3.794-4.158zM15.175 10.022c-0.148-0.066-0.347-0.1-0.594-0.1-1.285 0-2.187 0.99-2.187 2.64 0 1.882 0.918 2.64 2.073 2.64 0.247 0 0.512-0.032 0.71-0.115z"/>
</svg>