<svg xmlns="http://www.w3.org/2000/svg" version="1.1" width="24" height="24" viewBox="0 0 24 24">
<path d="M22.2 9.739h-7.090c-0.567-0.068-0.999-0.567-0.999-1.155v-7.44c0.001-0.634-0.514-1.144-1.143-1.144h-2.481c-0.635 0-1.145 0.515-1.145 1.145v7.518c-0.031 0.567-0.499 1.024-1.061 1.076h-1.857c-0.546-0.067-0.968-0.525-1.004-1.077v-7.517c0-0.635-0.515-1.145-1.144-1.145h-2.482c-0.634 0-1.144 0.515-1.144 1.145v21.71c0 0.635 0.515 1.145 1.144 1.145h20.411c0.635 0 1.144-0.515 1.144-1.145v-11.971c-0.004-0.635-0.514-1.145-1.149-1.145zM18.934 17.949c0 0.635-0.515 1.145-1.144 1.145h-2.481c-0.635 0-1.144-0.515-1.144-1.145v-2.341c0-0.635 0.515-1.145 1.144-1.145h2.481c0.635 0 1.144 0.515 1.144 1.145z"/>
</svg>