<svg xmlns="http://www.w3.org/2000/svg" version="1.1" width="24" height="24" viewBox="0 0 24 24">
<path d="M12.081 0c-5.033-0.034-9.742 3.125-11.444 8.153-2.125 6.276 1.24 13.086 7.516 15.21 6.276 2.125 13.086-1.24 15.21-7.516 1.727-5.1-0.172-10.552-4.311-13.557l0.126 2.547c2.065 2.282 2.88 5.512 1.852 8.549-1.534 4.532-6.594 6.915-11.3 5.321-4.708-1.593-7.28-6.559-5.745-11.092 1.031-3.046 3.655-5.121 6.694-5.67l1.642-1.94c-0.066-0.003-0.144-0.005-0.221-0.005-0.007 0-0.013 0-0.020 0h0.001zM15.609 1.094c-0.003-0-0.005-0-0.008-0-0.041 0-0.081 0.009-0.116 0.025l0.002-0.001-0.004 0.001c-0.042 0.017-0.079 0.041-0.109 0.071l0-0c-0.145 0.142-0.657 0.828-0.657 0.828l-1.116 1.382-1.3 1.585-2.232 2.776c0 0-1.024 1.278-0.798 2.851s1.396 2.34 2.304 2.648c0.907 0.307 2.302 0.408 3.438-0.704s1.098-2.75 1.098-2.75l-0.087-3.56-0.070-2.050-0.047-1.775c0 0 0.010-0.856-0.020-1.057-0.006-0.040-0.018-0.076-0.036-0.109l0.001 0.002-0.006-0.012-0.007-0.011c-0.047-0.081-0.131-0.136-0.228-0.14l-0.001-0z"/>
</svg>