<svg xmlns="http://www.w3.org/2000/svg" version="1.1" width="24" height="24" viewBox="0 0 24 24">
<path d="M23.181 3.077c0.568 0 0.923 0.463 0.792 1.035l-3.659 15.981c-0.13 0.572-0.697 1.035-1.265 1.035h-18.23c-0.568 0-0.923-0.463-0.792-1.035l3.659-15.981c0.13-0.572 0.697-1.035 1.265-1.035zM14.806 12.422c0.251-0.394 0.227-0.905-0.090-1.243l-5.594-5.951c-0.38-0.405-1.037-0.407-1.466-0.004s-0.468 1.057-0.088 1.461l4.662 4.96v0.11l-7.42 5.373c-0.45 0.327-0.533 0.977-0.187 1.453s0.991 0.597 1.44 0.27l8.229-5.909c0.28-0.197 0.438-0.366 0.514-0.52zM12.010 16.821c-0.002-0-0.004-0-0.006-0-0.511 0-0.925 0.413-0.928 0.923v0c0 0.51 0.418 0.923 0.934 0.923h4.433c0.002 0 0.004 0 0.006 0 0.511 0 0.925-0.413 0.928-0.923v-0c-0.003-0.51-0.417-0.923-0.928-0.923-0.002 0-0.004 0-0.006 0h0z"/>
</svg>