<svg xmlns="http://www.w3.org/2000/svg" version="1.1" width="24" height="24" viewBox="0 0 24 24">
<path d="M7.453 0c-0.18 0.587-0.369 1.167-0.565 1.75-4.090 1.861-6.884 5.911-6.888 10.613v0.001c0.003 1.215 0.191 2.386 0.538 3.485l-0.022-0.082-0.339 0.598-0.177 0.365 0.279 0.143c0.213 0.094 0.461 0.171 0.72 0.219l0.021 0.003c0.306 0.683 0.633 1.265 1.006 1.814l-0.026-0.041c4.034 0.343 8.55 0.512 12.446-0.056 3.192-0.463 5.94-1.423 7.735-3.117 0.252-0.233 0.474-0.474 0.674-0.722 0.019-0.038 0.037-0.053 0.060-0.076 0.011 0 0.026-0.037 0.038-0.052 0.015 0 0.030-0.038 0.041-0.057 0.008 0 0.015-0.038 0.023-0.038 0.33-0.444 0.587-0.892 0.801-1.31l0.181-0.365-0.365-0.365c-0.115-0.121-0.233-0.236-0.355-0.345l-0.006-0.005c0-6.428-5.211-11.638-11.638-11.638v0c-1.146 0.004-2.25 0.173-3.293 0.484l0.082-0.021c-0.464-0.677-0.828-1.144-0.971-1.185zM7.818 1.637c1.242 2.183 2.312 3.423 3.636 5.82 0.132 1.524 0.67 9.45 0.727 10.181-0.392-0.037-2.485-0.24-5.104-0.515-1.43-0.147-2.899-0.316-4.092-0.49l-1.9-0.447c2.149-3.787 5.551-9.727 6.733-14.549zM12.361 7.817c0 0 4.991 3.927 7.092 8.73-2.56 1.26-4.916 1.098-6.361 1.090 1.023-2.634 1.023-6.21-0.731-9.82zM15.817 10.001c1.301 0.354 2.271 0.664 3.225 1.005l-0.315-0.098c1.768 0.629 3.417 1.49 4.365 2.364-0.667 1.247-1.663 2.243-2.873 2.892l-0.037 0.018c0.151-1.495-0.39-2.933-1.456-4.002-0.787-0.787-1.822-1.453-2.909-2.179zM22.524 16.479c-2.352 1.667-5.126 2.68-7.965 3.112-1.045 0.154-2.326 0.275-3.623 0.337l-0.092 0.003h-0.323c-0.556 0.021-1.208 0.032-1.863 0.032s-1.308-0.012-1.957-0.035l0.094 0.003c-1.594-0.049-3.045-0.132-4.486-0.25l0.305 0.020c2.555 3.255 6.993 4.893 11.092 4.102 1.707-0.308 3.222-0.957 4.535-1.876l-0.037 0.024c0.001 0 0.002 0 0.003 0s0.002 0 0.004 0h-0c0.312-0.214 0.614-0.444 0.903-0.685 0.015-0.015 0.028-0.027 0.040-0.039l-0.002 0.002c1.485-1.253 2.64-2.85 3.346-4.671l0.027-0.079zM2.511 19.584c0.037 0.064 0.044 0.076 0.052 0.088l-0.029-0.050c-0.008 0-0.015-0.038-0.023-0.038z"/>
</svg>