<svg xmlns="http://www.w3.org/2000/svg" version="1.1" width="24" height="24" viewBox="0 0 24 24">
<path d="M11.2 13.598l0.020-3.196-2.67 1.61zM12.798 10.403l-0.015 3.19 2.667-1.608zM12.783 13.598v-0.004l-0.004 0.002zM23.997 4.59c0-0.878-0.715-1.59-1.597-1.59h-20.8c-0.883 0-1.6 0.713-1.6 1.59v14.82c0 0.878 0.715 1.59 1.6 1.59h20.8c0.883 0 1.6-0.713 1.6-1.59v-14.82zM17.563 14.13h-0.014c0 0.586-0.466 1.052-1.050 1.065l0.036-0.016h-9.070c-0.58-0.010-1.050-0.48-1.050-1.060h-0.005v-4.239h0.010c0-0.58 0.463-1.050 1.033-1.060h9.060c0.57 0.017 1.050 0.48 1.050 1.067z"/>
</svg>