<svg xmlns="http://www.w3.org/2000/svg" version="1.1" width="24" height="24" viewBox="0 0 24 24">
<path d="M23.827 19.73h-5.595c-0.094 0-0.17 0.058-0.17 0.172v1.515c0 0.094 0.058 0.17 0.172 0.17h5.594c0.096 0 0.172-0.044 0.172-0.164v-1.515c0-0.105-0.057-0.166-0.173-0.166v-0.014zM16.463 2.465c0.016 0.035 0.030 0.068 0.047 0.12v18.79c0 0.061-0.020 0.096-0.037 0.114-0.031 0.037-0.077 0.060-0.129 0.060-0.002 0-0.004-0-0.007-0h-16.185c-0.038 0-0.075 0-0.097-0.020-0.035-0.033-0.056-0.079-0.056-0.131 0-0.001 0-0.002 0-0.003v0-18.829c0-0.076 0.040-0.134 0.096-0.15h16.242c0.040 0 0.096 0.017 0.115 0.034v0.016zM1.818 19.575c0 0.073 0.038 0.136 0.096 0.153h12.643c0.058-0.019 0.096-0.076 0.096-0.154v-15.17c0-0.073-0.039-0.134-0.098-0.15h-12.64c-0.056 0.020-0.096 0.073-0.096 0.15l-0.003 15.17zM6.992 11.201c0.65 0 1.014 0.177 1.396 0.619 0.058 0.075 0.153 0.094 0.23 0.035l1.034-0.92c0.075-0.044 0.058-0.164 0.020-0.224-0.635-0.764-1.554-1.244-2.74-1.244-1.59 0-2.79 0.795-3.255 2.206-0.165 0.495-0.24 1.126-0.24 1.979 0 0.855 0.075 1.484 0.255 1.98 0.465 1.426 1.665 2.205 3.255 2.205 1.2 0 2.115-0.48 2.745-1.216 0.045-0.074 0.060-0.165-0.015-0.226l-1.037-0.915c-0.073-0.047-0.163-0.047-0.224 0.027-0.39 0.45-0.795 0.69-1.454 0.69-0.706 0-1.245-0.345-1.47-1.035-0.136-0.39-0.166-0.87-0.166-1.483 0-0.615 0.045-1.068 0.18-1.471 0.24-0.659 0.766-1.007 1.486-1.007z"/>
</svg>