<svg xmlns="http://www.w3.org/2000/svg" version="1.1" width="24" height="24" viewBox="0 0 24 24">
<path d="M1.1 6.050c-0.614 0-1.1 0.48-1.1 1.080 0 0 0 0 0 0 0 0.596 0.484 1.080 1.080 1.080 0.007 0 0.014-0 0.021-0l-0.001 0c0.62 0 1.11-0.48 1.11-1.080s-0.49-1.080-1.11-1.080zM8.71 6.070c-3.36 0-5.46 2.29-5.46 5.93 0 3.67 2.1 5.95 5.46 5.95 3.34 0 5.45-2.28 5.45-5.95 0-3.64-2.11-5.93-5.45-5.93zM19.55 6.070c-2.5 0-4.28 1.38-4.28 3.43 0 1.63 1.010 2.65 3.13 3.14l1.49 0.36c1.45 0.33 2.040 0.81 2.040 1.64 0 0.96-0.97 1.64-2.35 1.64-1.41 0-2.47-0.69-2.58-1.75h-2c0.080 2.12 1.82 3.42 4.46 3.42 2.79 0 4.54-1.37 4.54-3.55 0-1.71-1-2.68-3.32-3.21l-1.33-0.3c-1.41-0.34-1.99-0.79-1.99-1.55 0-0.96 0.88-1.6 2.18-1.6 1.31 0 2.21 0.65 2.31 1.72h1.96c-0.050-2.020-1.72-3.39-4.26-3.39zM8.71 7.82c2.040 0 3.35 1.63 3.35 4.18 0 2.57-1.31 4.2-3.35 4.2-2.060 0-3.36-1.63-3.36-4.2 0-2.55 1.3-4.18 3.36-4.18zM0.111 9.31v8.45h1.989v-8.45z"/>
</svg>