<svg xmlns="http://www.w3.org/2000/svg" version="1.1" width="24" height="24" viewBox="0 0 24 24">
<path d="M11 13.299l-5.824 8.133c-0.298 0.416-0.8 0.635-1.308 0.572-0.578-0.072-1.374-0.289-2.195-0.879s-1.281-1.276-1.534-1.802c-0.088-0.178-0.139-0.388-0.139-0.61 0-0.306 0.098-0.589 0.264-0.819l-0.003 0.004 5.824-8.133c0.278-0.386 0.634-0.698 1.046-0.919l0.016-0.008 1.146-0.604c0.23-0.121 0.436-0.283 0.608-0.478 0.556-0.631 2.049-2.284 4.696-4.957l0.046-0.212c0.011-0.049 0.048-0.087 0.095-0.1l0.001-0 0.146-0.037c0.059-0.015 0.101-0.068 0.101-0.131 0-0.004-0-0.007-0-0.011l0 0-0.015-0.18c-0-0.004-0.001-0.008-0.001-0.012 0-0.070 0.056-0.127 0.125-0.13h0c0.176-0.005 0.518 0.046 1.001 0.393s0.64 0.656 0.692 0.824c0.003 0.011 0.005 0.024 0.005 0.037 0 0.061-0.042 0.113-0.1 0.126l-0.001 0-0.175 0.044c-0.059 0.015-0.102 0.067-0.102 0.129 0 0.004 0 0.008 0.001 0.012l-0-0.001 0.012 0.15c0 0.003 0 0.007 0 0.011 0 0.047-0.025 0.089-0.063 0.112l-0.001 0-0.186 0.112c-1.679 3.369-2.764 5.316-3.183 6.046-0.122 0.21-0.212 0.456-0.255 0.718l-0.002 0.012-0.205 1.281c-0.081 0.496-0.27 0.936-0.542 1.313l0.006-0.009zM23.739 17.897l-5.824-8.133c-0.278-0.386-0.634-0.698-1.046-0.919l-0.016-0.008-1.146-0.605c-0.237-0.126-0.438-0.286-0.606-0.476l-0.002-0.002c-0.236-0.268-0.428-0.481-0.621-0.692l0.034 0.038c-0.016-0.017-0.039-0.028-0.064-0.028-0.033 0-0.062 0.018-0.077 0.045l-0 0c-0.816 1.599-1.396 2.653-1.996 3.696l0.251-0.473c-0.082 0.14-0.142 0.303-0.17 0.477l-0.001 0.008c-0.028 0.166-0.043 0.357-0.043 0.552s0.016 0.386 0.046 0.572l-0.003-0.020 0.010 0.064c0.075 0.471 0.259 0.918 0.536 1.305l5.824 8.133c0.296 0.413 0.79 0.635 1.294 0.574 0.84-0.11 1.591-0.424 2.222-0.89l-0.013 0.009c0.651-0.463 1.17-1.069 1.521-1.774l0.012-0.028c0.088-0.178 0.14-0.389 0.14-0.611 0-0.306-0.098-0.588-0.264-0.818l0.003 0.004zM8.306 3.366l0.175 0.044c0.059 0.015 0.101 0.068 0.101 0.13 0 0.004-0 0.008-0 0.012l0-0-0.012 0.15c-0 0.003-0 0.007-0 0.011 0 0.047 0.025 0.089 0.063 0.111l0.001 0 0.186 0.112c0.311 0.623 0.599 1.194 0.869 1.721 0.026 0.051 0.091 0.060 0.129 0.019 0.437-0.469 0.964-1.025 1.585-1.668 0.025-0.025 0.040-0.059 0.040-0.097 0-0.036-0.014-0.069-0.037-0.094l0 0c-0.315-0.322-0.645-0.659-1.002-1.020l-0.046-0.212c-0.011-0.049-0.048-0.087-0.095-0.099l-0.001-0-0.146-0.037c-0.059-0.015-0.101-0.068-0.101-0.131 0-0.004 0-0.007 0-0.011l-0 0 0.015-0.18c0-0.004 0.001-0.008 0.001-0.012 0-0.070-0.055-0.126-0.123-0.13l-0-0c-0.175-0.005-0.518 0.045-1.002 0.393-0.483 0.347-0.64 0.656-0.692 0.824-0.003 0.011-0.005 0.023-0.005 0.036 0 0.061 0.042 0.112 0.098 0.126l0.001 0z"/>
</svg>