<svg xmlns="http://www.w3.org/2000/svg" version="1.1" width="24" height="24" viewBox="0 0 24 24">
<path d="M12.053 0c-0.972 0-2.398 0.405-2.398 0.762v2.117c0.72-0.157 1.554-0.256 2.407-0.272l0.013-0c0.87 0.020 1.705 0.114 2.515 0.275l-0.092-0.015v-2.094c0-0.367-1.475-0.774-2.445-0.773zM12.075 3.787c-2.042 0-5.068 0.837-5.068 1.193v2.595c1.442-1.014 3.106-1.854 4.887-2.435l0.133-0.038c0.012-0.013 2.803 0.749 5.212 2.495l0.003 0.003v-2.62c0-0.37-3.126-1.193-5.167-1.193zM12.1 6.37c-0.763 0.197-1.514 0.555-2.214 0.887-1.602 0.764-2.982 1.689-4.207 2.782l0.017-0.015c1.352 1.378 2.161 3.11 2.654 4.72l0.037 0.113 0.040 0.037-0.052-0.037c-0.013-0.013-1.623-1.661-3.972-1.661-1.242 0-2.68 0.456-4.193 1.833 0.147 0.516 0.32 1.006 0.528 1.498v0.016l0.025 0.047c2.004 4.575 6.7 7.553 11.693 7.406 4.895-0.147 9.348-3.311 11.13-7.859 0.098-0.246 0.184-0.506 0.272-0.752-1.686-1.254-4.332-2.814-5.351-2.617v-0.003c-0.776 0.149-1.686 1.266-2.854 2.385 0.468-1.66 1.307-3.515 2.832-5.114-0.375-0.343-0.78-0.678-1.202-0.992l-0.041-0.029v-0.012c-1.525-1.133-3.298-2.104-5.142-2.633zM12.090 7.267l0.612 3.050-0.147 2.67-0.443 3.959v0.018l-0.050-0.006c-0.006-0.001-0.015-0.008-0.022-0.010v-0.027l-0.493-3.947-0.122-2.654zM12.99 17.092l0.021 0.004c0 0.002-0.047 0.021-0.094 0.039l-0.049 0.017c0.040-0.023 0.080-0.036 0.122-0.060z"/>
</svg>