<svg xmlns="http://www.w3.org/2000/svg" version="1.1" width="24" height="24" viewBox="0 0 24 24">
<path d="M15.74 10.7c-0.53-1.53 0.14-4 0.14-4s-2.28 1.31-3.95 1.3-3.8-1.3-3.8-1.3 0.56 2.46 0.070 4.040c-0.48 1.58-2.47 3.34-2.47 3.34s2.58 0.23 3.85 1.1 2.42 3.46 2.42 3.46 0.78-2.35 2.32-3.41c1.54-1.070 3.96-1.15 3.96-1.15s-2-1.84-2.54-3.38zM13.74 14.39c-1.090 0.81-1.75 2.19-1.75 2.19s-0.76-1.43-1.8-2.22c-1.050-0.79-2.57-0.97-2.57-0.97 0.709-0.618 1.24-1.421 1.521-2.334l0.009-0.036c0.46-1.54 0.18-2.73 0.18-2.73s0.92 0.7 2.62 0.7 2.79-0.7 2.79-0.7-0.38 1.58 0.070 2.7c0.44 1.14 1.57 2.41 1.57 2.41s-1.56 0.17-2.64 0.99zM13.73 9.6c0 0-0.95 0.38-1.77 0.37-0.82 0-1.7-0.37-1.7-0.37 0.050 0.58 0 1.15-0.17 1.7-0.27 0.86-0.91 1.64-0.91 1.64 1.21 0.248 2.212 0.985 2.809 1.99l0.011 0.020c0 0 0.45-0.85 1.18-1.33 0.5-0.31 1.050-0.55 1.63-0.7 0 0-0.74-0.78-1.020-1.57-0.28-0.78-0.060-1.75-0.060-1.75zM20.1 12l3.31-3.7-4.85-1.070 0.5-4.94-4.56 2-2.5-4.29-2.5 4.29-4.55-2 0.49 4.95-4.85 1.050 3.3 3.71-3.29 3.7 4.85 1.070-0.5 4.94 4.55-2 2.5 4.29 2.5-4.29 4.56 2-0.5-4.94 4.85-1.060zM14.83 15.95c-0.83 0.61-2.83 4.86-2.83 4.86s-1.5-3.86-3-4.86c-1.48-1-5.38-1.22-5.38-1.22s2.99-2.37 3.57-4.47c0.59-2.1-0.37-5.37-0.37-5.37s2.9 2.1 5.080 2.1c2.17 0 5.26-2.1 5.26-2.1s-0.82 4.5-0.53 5.46c0.3 0.96 3.73 4.38 3.73 4.38s-4.7 0.62-5.53 1.22z"/>
</svg>