<svg xmlns="http://www.w3.org/2000/svg" version="1.1" width="24" height="24" viewBox="0 0 24 24">
<path d="M12 0c-6.627 0-12 5.373-12 12v0c0 6.627 5.373 12 12 12v0c6.627 0 12-5.373 12-12v0c0-6.627-5.373-12-12-12v0zM12 0.57c6.315 0 11.43 5.115 11.43 11.43 0 6.31-5.115 11.43-11.43 11.43-6.31 0-11.43-5.116-11.43-11.43 0-6.31 5.12-11.43 11.43-11.43zM12 0.804c-0.1 0-0.183 0.060-0.218 0.147l-0.492 1.551c-4.946 0.38-8.815 4.486-8.815 9.497 0 0 0 0.001 0 0.001v-0c0 1.48 0.337 2.885 0.94 4.136l-1.1 1.206c-0.029 0.039-0.047 0.089-0.047 0.143 0 0.044 0.012 0.085 0.032 0.121l-0.001-0.001c0.044 0.071 0.121 0.117 0.209 0.117 0.010 0 0.020-0.001 0.030-0.002l-0.001 0 1.592-0.353c1.737 2.525 4.612 4.16 7.868 4.16 0.001 0 0.002 0 0.002 0h-0c3.27 0 6.16-1.652 7.874-4.16l1.592 0.353c0.007 0.001 0.014 0.001 0.022 0.001 0.089 0 0.167-0.050 0.207-0.123l0.001-0.001c0.021-0.034 0.033-0.075 0.033-0.119 0-0.054-0.018-0.104-0.049-0.143l0 0.001-1.1-1.198c0.597-1.203 0.946-2.619 0.946-4.117 0-0.007 0-0.013-0-0.020v0.001c0-0 0-0.001 0-0.001 0-5.010-3.869-9.117-8.783-9.495l-0.032-0.002-0.493-1.555c-0.037-0.085-0.121-0.143-0.218-0.143-0 0-0 0-0 0h0zM11.997 1.054c0.024 0 0.048 0.020 0.056 0.043l1.020 3.354c-0.292 0.221-0.479 0.567-0.48 0.957v0c0 0.389 0.19 0.734 0.48 0.952h-0.004c0.436 0.326 0.718 0.846 0.718 1.429v1.12l4.326-2.497 0.476 0.825-4.802 2.77v0.965l0.834 0.48 4.802-2.774 0.476 0.825-4.326 2.5 0.972 0.56c0.508 0.294 0.818 0.798 0.882 1.338v-0.004c0.074 0.594 0.576 1.050 1.184 1.050 0.17 0 0.332-0.036 0.478-0.1l-0.008 0.003 2.393 2.56c0.020 0.020 0.020 0.047 0.008 0.070-0.016 0.025-0.040 0.033-0.068 0.029l-3.413-0.794c-0.073-0.595-0.576-1.052-1.185-1.052-0.168 0-0.328 0.035-0.473 0.097l0.008-0.003 0.003-0.004c-0.5 0.215-1.091 0.199-1.6-0.095l-0.968-0.56v4.994h-0.952v-5.545l-0.834-0.48-0.833 0.48v5.545h-0.953v-4.993l-0.972 0.555c-0.508 0.294-1.1 0.31-1.6 0.096l0.004 0.004c-0.138-0.060-0.298-0.095-0.466-0.095-0.609 0-1.112 0.457-1.184 1.046l-0.001 0.006-3.413 0.793c-0.004 0.001-0.009 0.002-0.015 0.002-0.021 0-0.039-0.012-0.048-0.030l-0-0c-0.016-0.020-0.012-0.047 0.008-0.067l2.397-2.56c0.333 0.143 0.73 0.135 1.067-0.064 0.338-0.194 0.544-0.528 0.588-0.889v0.004c0.063-0.54 0.373-1.044 0.88-1.337l0.97-0.56-4.327-2.496 0.477-0.826 4.802 2.774 0.833-0.484v-0.964l-4.802-2.77 0.476-0.826 4.326 2.496v-1.118c0-0.583 0.282-1.103 0.719-1.429h-0.004c0.29-0.214 0.476-0.56 0.476-0.952s-0.19-0.738-0.48-0.957l1.020-3.353c0.008-0.028 0.031-0.044 0.051-0.045zM12.001 6.956c-0.46 0-0.833 0.373-0.833 0.833v0 1.67l0.832 0.481 0.833-0.48v-1.671c0-0.46-0.372-0.832-0.832-0.833h-0zM12.001 11.040l-0.833 0.48v0.964l0.833 0.476 0.833-0.48v-0.96zM9.381 12.556l-1.444 0.833c-0.252 0.146-0.418 0.415-0.418 0.722 0 0.154 0.042 0.298 0.114 0.421l-0.002-0.004c0.145 0.248 0.409 0.412 0.712 0.412 0.004 0 0.007-0 0.011-0h-0.001c0 0 0.001 0 0.001 0 0.153 0 0.296-0.041 0.419-0.113l-0.004 0.002 1.445-0.834v-0.96zM14.624 12.556l-0.833 0.48v0.964l1.445 0.834c0.118 0.067 0.259 0.107 0.409 0.107 0.461 0 0.834-0.373 0.834-0.834 0-0.304-0.163-0.57-0.406-0.716l-0.004-0.002z"/>
</svg>