<svg xmlns="http://www.w3.org/2000/svg" version="1.1" width="24" height="24" viewBox="0 0 24 24">
<path d="M5.721 0c-3.47 0-5.721 2.25-5.721 5.719v12.561c0 3.471 2.252 5.72 5.721 5.72h12.56c3.47 0 5.719-2.25 5.719-5.719v-12.561c0-3.471-2.25-5.72-5.719-5.72zM7.685 4.078c-0.271 0.73-0.5 1.434-0.68 2.11h4.587c0.545-0.006 0.445 1.168 0.445 1.171h-2.653c0 0.055 0 0.121 0 0.186 0 1.27-0.041 2.531-0.121 3.781l0.009-0.17h2.712c0.388 0.023 0.393 1.251 0.393 1.266h-3.194c-0.060 0.771-0.205 1.487-0.426 2.167l0.018-0.065 0.757-0.604c0.452 0.456 1.512 1.712 1.906 2.177 0.473 0.681 0.063 2.081 0.063 2.081l-2.794-3.382c-0.653 2.518-1.845 3.607-1.845 3.607-0.523 0.468-1.58 0.82-2.64 0.516 2.218-1.73 3.44-3.917 3.667-6.497h-3.398c0-0.015 0.197-1.243 0.806-1.266h2.71c0.024-0.32 0.086-3.254 0.086-3.797h-1.495c-0.136 0.406-0.158 0.447-0.268 0.753-0.594 1.095-1.603 1.122-1.907 1.155 0.906-1.821 1.416-3.6 1.591-4.064 0.425-1.124 1.671-1.125 1.671-1.125zM13.078 6h6.377v11.33h-2.573l-2.184 1.373-0.401-1.373h-1.219zM14.391 7.219v8.86h0.623l0.263 0.937 1.455-0.938h1.456v-8.86z"/>
</svg>