<svg xmlns="http://www.w3.org/2000/svg" version="1.1" width="24" height="24" viewBox="0 0 24 24">
<path d="M15.337 23.979l7.216-1.561c0 0-2.604-17.613-2.625-17.73-0.018-0.116-0.114-0.192-0.211-0.192s-1.929-0.136-1.929-0.136-1.275-1.274-1.439-1.411c-0.045-0.037-0.075-0.057-0.121-0.074l-0.914 21.104zM11.71 11.305c0 0-0.81-0.424-1.774-0.424-1.447 0-1.504 0.906-1.504 1.141 0 1.232 3.24 1.715 3.24 4.629 0 2.295-1.44 3.76-3.406 3.76-2.354 0-3.54-1.465-3.54-1.465l0.646-2.086c0 0 1.245 1.066 2.28 1.066 0.675 0 0.975-0.545 0.975-0.932 0-1.619-2.654-1.694-2.654-4.359-0.034-2.237 1.571-4.416 4.827-4.416 1.257 0 1.875 0.361 1.875 0.361l-0.945 2.715zM11.17 0.83c0.136 0 0.271 0.038 0.405 0.135-0.984 0.465-2.064 1.639-2.508 3.992-0.656 0.213-1.293 0.405-1.889 0.578 0.519-1.785 1.773-4.695 3.992-4.695zM12.405 3.779v0.135c-0.754 0.232-1.583 0.484-2.394 0.736 0.466-1.777 1.333-2.645 2.085-2.971 0.193 0.501 0.309 1.176 0.309 2.1zM12.944 1.545c0.694 0.074 1.141 0.867 1.429 1.755-0.349 0.114-0.735 0.231-1.158 0.366v-0.252c0-0.752-0.096-1.371-0.271-1.871zM15.936 2.834c-0.020 0-0.060 0.021-0.078 0.021s-0.289 0.075-0.714 0.21c-0.423-1.233-1.176-2.37-2.508-2.37h-0.115c-0.386-0.486-0.852-0.695-1.256-0.695-3.106 0-4.59 3.877-5.055 5.846-1.194 0.365-2.063 0.636-2.16 0.674-0.675 0.213-0.694 0.232-0.772 0.87-0.075 0.462-1.83 14.063-1.83 14.063l13.561 2.547z"/>
</svg>