<svg xmlns="http://www.w3.org/2000/svg" version="1.1" width="24" height="24" viewBox="0 0 24 24">
<path d="M20.983 0.002h-11.475v6.494h0.11c0.67-0.855 1.703-1.399 2.863-1.399 0.246 0 0.485 0.024 0.717 0.071l-0.023-0.004-0.023-0.004c1.966 0.144 3.91 1.336 4.020 5.158v7.554c-0.006 0.156-0.131 0.281-0.286 0.287l-0.001 0h-2.11c-0.159 0-0.287-0.128-0.287-0.287v0-7.322c0-1.778-0.585-3.114-2.341-3.114h-0.038c-1.439 0-2.606 1.167-2.606 2.606 0 0.061 0.002 0.122 0.006 0.182l-0-0.008v-0.008 7.665c0 0.159-0.128 0.287-0.287 0.287v0h-2.098c-0.159 0-0.287-0.128-0.287-0.287v0-17.869l-3.711-0.001c-0.823 0-1.493 0.652-1.523 1.468v20.987c0.030 0.857 0.73 1.541 1.59 1.546h17.792c0.787-0.023 1.416-0.667 1.416-1.457 0-0.033-0.001-0.065-0.003-0.097l0 0.004v0.004-20.984c0.002-0.027 0.003-0.058 0.003-0.089 0-0.762-0.618-1.38-1.38-1.38v0l-0.038 0.001zM18.443 20.985h-12.888v-1.325h12.888z"/>
</svg>