<svg xmlns="http://www.w3.org/2000/svg" version="1.1" width="24" height="24" viewBox="0 0 24 24">
<path d="M7.439 9.010c-1.65 0.002-2.988 1.34-2.99 2.99v0c0.002 1.651 1.339 2.988 2.99 2.99h0c1.65-0.002 2.988-1.34 2.99-2.99v-0c-0.002-1.651-1.339-2.988-2.99-2.99h-0zM7.439 14.353c-1.297 0-2.354-1.056-2.354-2.353s1.057-2.353 2.354-2.353 2.353 1.056 2.353 2.353-1.056 2.353-2.353 2.353zM13.911 9.010c-1.65 0.002-2.988 1.34-2.99 2.99v0c0.002 1.651 1.339 2.988 2.99 2.99h0c1.65-0.002 2.988-1.34 2.99-2.99v-0c-0.002-1.65-1.34-2.988-2.99-2.99h-0zM13.911 14.353c-1.298 0-2.353-1.056-2.353-2.353s1.055-2.353 2.353-2.353c1.297 0 2.353 1.056 2.353 2.353s-1.056 2.353-2.353 2.353zM2.299 10.803c-0.091-0.014-0.196-0.022-0.303-0.022-0.49 0-0.94 0.168-1.297 0.448l0.005-0.003v-1.585h2.687c0.093 0 0.16-0.017 0.16-0.292 0-0.269-0.108-0.28-0.18-0.28h-2.974c-0.174 0-0.265 0.14-0.265 0.294v2.602c0 0.136 0.087 0.183 0.247 0.214 0.141 0.028 0.223 0.012 0.285-0.057l0.006-0.010c0.283-0.408 0.9-0.804 1.486-0.732 0.699 0.086 1.262 0.644 1.34 1.327 0.006 0.052 0.010 0.112 0.010 0.173 0 0.835-0.676 1.511-1.511 1.512h-0c-0.635 0-1.19-0.408-1.421-1.001-0.035-0.088-0.092-0.152-0.343-0.062-0.229 0.083-0.243 0.181-0.212 0.268 0.303 0.814 1.073 1.383 1.976 1.386h0c1.156-0.007 2.090-0.945 2.090-2.102 0-1.049-0.769-1.919-1.774-2.076l-0.012-0.002zM18.945 9.039c-0.805 0.062-1.434 0.769-1.434 1.61v2.661c0 0.154 0.117 0.186 0.293 0.186s0.293-0.031 0.293-0.186v-2.668c0-0.524 0.382-0.974 0.868-1.024 0.031-0.004 0.068-0.006 0.104-0.006 0.252 0 0.482 0.096 0.654 0.253l-0.001-0.001c0.198 0.181 0.322 0.44 0.322 0.728 0 0 0 0.001 0 0.001v-0c0 0.080-0.039 0.34-0.217 0.581-0.135 0.182-0.391 0.399-0.844 0.399h-0.009c-0.115 0-0.215 0.005-0.234 0.28-0.013 0.186-0.012 0.269 0.148 0.29 0.286 0.040 0.576-0.016 0.865-0.166 0.492-0.256 0.822-0.741 0.861-1.267 0.003-0.035 0.005-0.077 0.005-0.118 0-0.431-0.174-0.821-0.457-1.104l0 0c-0.282-0.281-0.671-0.454-1.101-0.454-0.041 0-0.082 0.002-0.123 0.005l0.005-0zM22.864 10.598l1.085-1.085c0.040-0.039 0.132-0.132-0.055-0.324-0.080-0.083-0.153-0.125-0.217-0.125h-0.001c-0.049 0.001-0.092 0.023-0.121 0.058l-0 0-1.088 1.088-1.086-1.093c-0.088-0.088-0.19-0.067-0.322 0.065-0.135 0.136-0.157 0.24-0.069 0.328l1.086 1.092-1.071 1.071c-0.026 0.025-0.065 0.063-0.065 0.125-0.001 0.063 0.042 0.139 0.126 0.223 0.070 0.071 0.138 0.107 0.2 0.107 0.069 0 0.114-0.045 0.139-0.070l1.068-1.067 1.091 1.092c0.029 0.028 0.069 0.045 0.112 0.045 0.001 0 0.001 0 0.002-0h0.002c0.069 0 0.142-0.040 0.217-0.118 0.122-0.129 0.143-0.236 0.061-0.319z"/>
</svg>