<svg xmlns="http://www.w3.org/2000/svg" version="1.1" width="24" height="24" viewBox="0 0 24 24">
<path d="M11.558 1.034c-6.384 0-11.558 5.176-11.558 11.558 0 1.258 0.201 2.47 0.574 3.597l0.002-0.007c0.152-0.697 0.335-1.295 0.559-1.872l-0.029 0.085 0.011-0.030c0.085-0.222 0.179-0.442 0.277-0.66l0.084-0.181c0.080-0.171 0.165-0.34 0.253-0.507 0.036-0.068 0.070-0.136 0.108-0.203 0.020-0.038 0.044-0.073 0.064-0.11 0.094-0.166 0.19-0.332 0.29-0.493l0.075-0.114c0.125-0.195 0.256-0.386 0.393-0.573l0.035-0.050c0.144-0.193 0.295-0.38 0.451-0.563l0.1-0.118c0.155-0.177 0.315-0.35 0.481-0.517l0.099-0.097c0.171-0.169 0.349-0.334 0.532-0.492l0.014-0.011c0.74-2.48 3.005-4.285 5.686-4.285 1.079 0 2.152 0.31 3.071 0.873 0.944 0.589 1.697 1.405 2.195 2.373l0.023 0.049 0.040 0.074v0.003l0.004 0.002c0.59 0.367 1.103 0.763 1.572 1.203l-0.005-0.005c0.040 0.037 0.081 0.071 0.12 0.109 0.002 0 0.006 0.005 0.007 0.006l-0.002-0.006-0.001-0.004v-0.003l0.042-0.084c0.377-2.384 1.43-4.102 2.67-4.102 0.934 0 1.762 0.975 2.276 2.476l0.005 0.016 0.001 0.002c0.145 0.158 0.287 0.331 0.424 0.521l0.007 0.010 0.021 0.067-0.020-0.078c-1.542-4.569-5.863-7.857-10.951-7.859zM9.927 5.477c-2.341 0.043-4.587 1.655-5.353 3.888l-0.012 0.034c0.385-0.311 0.815-0.607 1.266-0.869l0.049-0.026c2.806-1.656 6.479-1.646 9.278 0.016-0.895-1.653-2.631-2.819-4.5-3.004-0.192-0.025-0.413-0.040-0.638-0.040-0.032 0-0.063 0-0.094 0.001l0.005-0zM19.761 5.977c-0.14 0.003-0.274 0.028-0.4 0.070l0.010-0.003c-1.265 0.562-1.719 2.073-2.031 3.303l-0.016 0.072c0.365-0.62 0.808-1.215 1.396-1.642 0.835-0.687 2.105-0.655 2.916 0.053 0.308 0.326 0.141 0.008 0.031-0.22-0.342-0.75-1.025-1.653-1.906-1.633zM12.35 8.315l-1.070 3.27-0.002 0.005-0.006 0.002-4.507 1.112 4.456 1.087c0.105 0.11 0.227 0.205 0.36 0.28h0.002c0.042 0.024 0.085 0.045 0.129 0.065l0.010 0.005c0.041 0.018 0.083 0.033 0.126 0.047l0.021 0.008c0.040 0.013 0.080 0.023 0.12 0.032l0.033 0.008c0.095 0.020 0.205 0.032 0.317 0.033h0.001c0.001 0 0.003 0 0.004 0 0.638 0 1.186-0.386 1.422-0.938l0.004-0.010c0.080-0.186 0.123-0.39 0.123-0.604v-0.011l-0.001-0.012c-0.001-0.054-0.004-0.107-0.010-0.16l-0.001-0.002c-0.007-0.060-0.016-0.112-0.028-0.163l0.002 0.010-0.001-0.004c-0.025-0.11-0.058-0.206-0.1-0.297l0.004 0.009v-0.003c-0.086-0.191-0.204-0.354-0.347-0.489l-0.001-0.001v-0.003zM15.498 8.941c0.048 1.008 0.036 2.046-0.1 3.057-0.17 2.018-1.19 3.798-1.972 5.616l-0.030 0.080-0.035 0.086c1.51-1.522 3.17-3.040 3.969-5.082 0.383-0.636 0.118-1.342-0.115-1.976-0.17-0.877-1.069-1.278-1.717-1.781zM21.67 9.513l-0.588 2.688c-0.017 0.053-0.033 0.121-0.045 0.189l-0.002 0.011c-0.002 0.020-0.007 0.040-0.010 0.060-0.009 0.066-0.015 0.143-0.016 0.221v0.001l-0.002 0.031h0.003c0 0.628 0.297 1.136 0.663 1.137 0.067-0.001 0.129-0.017 0.184-0.046l-0.002 0.001 0.027-0.015c0.027-0.015 0.050-0.031 0.071-0.048l-0.001 0.001c0.013-0.010 0.024-0.022 0.036-0.033 0.053-0.048 0.098-0.104 0.135-0.165l0.002-0.003 0.030-0.054c0.016-0.028 0.033-0.064 0.049-0.1l0.003-0.008 0.017-0.040c0.020-0.053 0.038-0.108 0.053-0.166l0.002-0.002 0.001-0.003 0.404-0.451-0.407-0.456v0.001l-0.020-0.063zM17.289 10.369c0.69 1.716 0.85 3.707 0.091 5.43-0.49 1.368-1.587 2.463-1.874 3.905 0.73 0.115 1.468 0.176 2.21 0.186 2.166 0.029 4.332-0.42 6.284-1.365-2.040-2.869-4.121-5.755-6.711-8.156zM12.341 11.346c0.322 0 0.583 0.261 0.583 0.583s-0.261 0.583-0.583 0.583v0c-0.322 0-0.583-0.261-0.583-0.583s0.261-0.583 0.583-0.583v0zM21.693 11.716c0.138 0 0.249 0.19 0.249 0.426s-0.111 0.426-0.249 0.426c-0.137 0-0.248-0.19-0.248-0.426s0.11-0.426 0.248-0.426zM17.649 11.9c-0.016 0.112-0.033 0.209-0.050 0.29l-0.006 0.023c-0.010 0.050-0.022 0.094-0.033 0.128-0.48 1.417-1.275 2.52-2.36 3.697-0.147 0.16-0.301 0.32-0.459 0.484-0.401 0.415-0.791 0.808-1.186 1.195l-0.010 0.010c-0.112 0.11-0.259 0.261-0.425 0.436-0.103 0.287-0.22 0.61-0.318 0.95-0.044-0.016-0.086-0.031-0.131-0.049-2.108-0.815-3.519-1.904-3.519-1.904s1.086 1.414 2.915 2.74c0.177 0.129 0.351 0.24 0.522 0.339-0.075 1.194 0.452 2.34 2.83 2.682 0.194 0.028 0.418 0.043 0.645 0.043 0.205 0 0.408-0.013 0.607-0.038l-0.024 0.002-0.010-0.029c-0.001-0.004-0.003-0.007-0.004-0.010l0 0c0 0-0.167-0.133-0.379-0.377-0.227-0.259-0.422-0.554-0.574-0.874l-0.010-0.023c-0.118-0.249-0.211-0.539-0.263-0.842l-0.003-0.020c-0.026-0.152-0.040-0.327-0.040-0.505 0-0.165 0.013-0.326 0.037-0.484l-0.002 0.018c0.017-0.12 0.040-0.241 0.072-0.366 0.093-0.374 0.255-0.772 0.507-1.192l0.002-0.003 0.241-0.404c1.103-1.86 1.797-3.275 1.506-5.441-0.028-0.21-0.055-0.372-0.086-0.532l0.009 0.056zM22.317 12.476l0.001 0.008zM22.33 12.679l0.003 0.036v0.010c0 0.013-0.003 0.025-0.003 0.038 0-0.014 0.003-0.028 0.003-0.043 0-0.014-0.002-0.026-0.003-0.041zM22.318 12.954v0.001l-0.002 0.010-0.002 0.014zM23.671 18.882c-2.553 1.138-5.44 1.44-8.192 1.007-0.14 1.108 0.384 2.218 1.214 2.93l0.012 0.010c2.703-0.433 4.975-2.168 6.966-3.947z"/>
</svg>