<svg xmlns="http://www.w3.org/2000/svg" version="1.1" width="24" height="24" viewBox="0 0 24 24">
<path d="M17.578 12.201c-0.76-0.692-1.721-1.251-2.704-1.81-0.446-0.246-1.81-1.318-1.34-2.838l-0.851-0.358c1.342-2.078 3.085-4.134 5.229-6.056-1.721 0.581-3.24 1.476-4.379 3.062 0.67-1.407 1.765-2.793 2.972-4.201-1.654 1.185-3.084 2.525-3.979 4.313l0.627-2.503c-0.894 1.608-1.52 3.24-1.766 4.871l-1.317-0.535-0.223 0.178c1.162 2.078 0.559 3.174-0.022 3.553-1.162 0.783-2.838 1.788-3.688 2.659-1.609 1.654-2.078 3.218-1.921 5.296 0.157 2.66 2.101 4.873 4.67 5.744 1.14 0.38 2.19 0.424 3.352 0.424 1.877 0 3.799-0.491 5.207-1.676 1.448-1.207 2.364-3.009 2.369-5.026v-0.001c0-0.007 0-0.014 0-0.022 0-2.007-0.86-3.813-2.231-5.069l-0.005-0.005zM14.025 21.073c-0.090 0.402-0.38 0.894-0.737 1.341 0.134-0.246 0.246-0.492 0.313-0.76 0.559-1.989 0.805-2.904 0.537-5.095-0.045-0.224-0.135-0.938-0.471-1.721-0.468-1.185-1.184-2.303-1.272-2.548-0.157-0.38-0.38-1.989-0.403-3.084 0.023 0.938 0.089 2.659 0.335 3.329 0.067 0.225 0.715 1.229 1.185 2.459 0.312 0.849 0.38 1.632 0.446 1.854 0.224 1.007-0.045 2.705-0.401 4.313-0.111 0.581-0.426 1.252-0.828 1.766 0.225-0.313 0.402-0.715 0.537-1.185 0.269-0.938 0.38-2.145 0.356-2.905-0.021-0.446-0.222-1.407-0.558-2.278-0.201-0.47-0.492-0.961-0.692-1.297-0.224-0.335-0.224-1.072-0.313-1.921 0.021 0.916-0.068 1.385 0.156 2.033 0.134 0.379 0.625 0.916 0.759 1.43 0.201 0.693 0.402 1.453 0.381 1.922 0 0.536-0.022 1.52-0.269 2.593-0.157 0.804-0.515 1.497-1.095 1.943 0.246-0.312 0.38-0.625 0.447-0.938 0.089-0.469 0.111-0.916 0.156-1.475 0.012-0.144 0.019-0.312 0.019-0.481 0-0.439-0.048-0.867-0.138-1.279l0.007 0.039c-0.179-0.805-0.469-1.608-0.604-2.168 0.022 0.626 0.269 1.408 0.381 2.235 0.089 0.604 0.044 1.206 0.021 1.742-0.021 0.627-0.223 1.722-0.492 2.258-0.268-0.112-0.357-0.269-0.537-0.491-0.223-0.291-0.357-0.604-0.491-0.962-0.114-0.259-0.214-0.565-0.285-0.881l-0.006-0.034c-0.017-0.123-0.027-0.264-0.027-0.408 0-0.678 0.22-1.305 0.592-1.813l-0.006 0.009c0.469-0.671 0.559-0.716 0.715-1.497-0.223 0.692-0.379 0.759-0.871 1.341-0.559 0.647-0.648 1.586-0.648 2.346 0 0.313 0.134 0.671 0.246 1.007 0.134 0.356 0.268 0.714 0.447 0.982 0.134 0.223 0.313 0.379 0.469 0.491-0.581-0.156-1.184-0.379-1.564-0.692-0.938-0.805-1.765-2.167-1.877-3.375-0.089-0.982 0.804-2.413 2.078-3.128 1.073-0.626 1.318-1.319 1.542-2.459-0.313 0.983-0.626 1.833-1.654 2.348-1.475 0.804-2.235 2.1-2.167 3.352 0.112 1.586 0.737 2.682 2.011 3.554 0.291 0.2 0.693 0.401 1.118 0.559-1.587-0.381-1.788-0.604-2.324-1.229 0-0.045-0.134-0.135-0.134-0.156-0.715-0.805-1.609-2.19-1.922-3.464-0.112-0.447-0.224-0.916-0.089-1.363 0.581-2.101 1.854-2.905 3.128-3.775 0.313-0.225 0.626-0.426 0.916-0.649 0.715-0.559 0.894-2.012 1.050-2.838-0.29 1.006-0.603 2.258-1.162 2.659-0.29 0.224-0.648 0.402-0.938 0.604-1.318 0.894-2.637 1.743-3.24 3.91-0.134 0.56-0.044 0.962 0.089 1.498 0.335 1.317 1.229 2.748 1.989 3.597l0.134 0.135c0.335 0.381 0.76 0.67 1.274 0.871-0.493-0.118-0.925-0.279-1.33-0.485l0.034 0.016c-2.078-1.005-3.463-3.173-3.553-4.939-0.179-3.597 1.542-4.647 3.151-5.966 0.894-0.737 2.145-1.095 2.86-2.413 0.134-0.291 0.224-0.916 0.045-1.587-0.067-0.224-0.402-1.028-0.537-1.207l1.989 0.872c-0.044 0.938-0.067 1.698 0.112 2.391 0.2 0.76 1.184 1.854 1.586 3.129 0.783 2.41 0.583 5.561 0.023 8.019z"/>
</svg>