<svg xmlns="http://www.w3.org/2000/svg" version="1.1" width="24" height="24" viewBox="0 0 24 24">
<path d="M12.118 5.466c-0.006-0-0.013-0-0.021-0-0.214 0-0.422 0.029-0.619 0.084l0.016-0.004c-0.278 0.067-0.702 0.332-0.953 0.583-0.41 0.423-0.49 0.609-0.662 1.469-0.080 0.423 0.41 1.43 0.847 1.734 0.45 0.317 1.085 0.502 2.065 0.608 1.429 0.16 1.84 0.636 1.84 2.197 0 1.377-0.385 1.747-1.96 1.906-1.707 0.172-2.58 0.834-2.765 2.117-0.106 0.781 0.41 1.76 1.125 2.091 1.627 0.768 3.15-0.198 3.467-2.196 0.211-1.284 0.622-1.642 1.998-1.747 1.588-0.133 2.409-0.675 2.713-1.787 0.278-1.020-0.304-2.157-1.297-2.554-0.264-0.106-0.873-0.238-1.35-0.291-1.495-0.16-1.879-0.424-2.038-1.39-0.225-1.337-0.317-1.562-0.794-2.090-0.397-0.446-0.972-0.726-1.612-0.73h-0.001zM7.333 9.826c-0.013-0-0.028-0-0.044-0-0.161 0-0.317 0.018-0.468 0.051l0.014-0.003c-1.469 0.318-2.17 2.051-1.35 3.295 1.178 1.774 3.944 0.953 3.97-1.177 0.012-1.193-0.98-2.143-2.123-2.166zM2.089 14.19c-0.153 0.004-0.3 0.023-0.442 0.055l0.015-0.003c-2.158 0.476-2.237 3.626-0.106 4.182 0.53 0.145 0.582 0.145 1.111 0.013 1.191-0.318 1.866-1.456 1.549-2.607-0.278-1.020-1.144-1.664-2.127-1.64zM21.913 14.198c-0.233 0.002-0.477 0.058-0.784 0.162-1.39 0.477-1.866 2.092-0.98 3.336 0.557 0.794 1.96 1.058 2.82 0.516 1.416-0.874 1.363-3.057-0.093-3.746-0.38-0.186-0.663-0.271-0.963-0.268z"/>
</svg>