<svg xmlns="http://www.w3.org/2000/svg" version="1.1" width="24" height="24" viewBox="0 0 24 24">
<path d="M14.822 10.308c-0.4 0.21-0.875 0.333-1.378 0.333-1.667 0-3.018-1.351-3.018-3.018s1.351-3.018 3.018-3.018c1.174 0 2.191 0.67 2.69 1.648l0.008 0.017c0.204 0.395 0.324 0.863 0.324 1.358 0 1.163-0.661 2.172-1.628 2.672l-0.017 0.008zM11.6 0.572c2.47-0.901 5.294-0.852 7.408 0.982 0.44 0.364 0.788 0.823 1.014 1.347l0.009 0.023c0.213 0.69-0.749-0.070-0.88-0.168-0.619-0.429-1.329-0.799-2.085-1.074l-0.065-0.021c-4.164-1.275-8.104 1.046-10.538 4.655-0.934 1.475-1.702 3.178-2.215 4.989l-0.033 0.137c-0.051 0.243-0.125 0.458-0.221 0.66l0.008-0.018c-0.107 0.204-0.049-0.547-0.049-0.572 0.102-0.853 0.253-1.612 0.456-2.35l-0.026 0.111c1.128-3.933 3.627-7.208 7.217-8.701zM11.637 21.565v-8.763c0.249 0.025 0.486 0.037 0.736 0.037 0.006 0 0.012 0 0.019 0 1.183 0 2.288-0.333 3.226-0.91l-0.027 0.015v9.62c0 0.822-0.15 1.43-0.52 1.826-0.344 0.376-0.837 0.611-1.385 0.611-0.024 0-0.047-0-0.071-0.001l0.003 0c-0.019 0.001-0.042 0.001-0.065 0.001-0.541 0-1.026-0.235-1.36-0.608l-0.002-0.002c-0.368-0.404-0.56-1.013-0.556-1.826z"/>
</svg>