<svg xmlns="http://www.w3.org/2000/svg" version="1.1" width="24" height="24" viewBox="0 0 24 24">
<path d="M10.812 12.010c0 0.909-0.555 1.34-1.25 1.34h-0.422v-0.55h0.392c0.42 0 0.7-0.224 0.7-0.795 0-0.563-0.265-0.842-0.712-0.842-0.43 0-0.736 0.264-0.736 0.83v2.284h-0.584v-3.587h0.579v0.31h0.080c0.173-0.23 0.446-0.377 0.753-0.377 0.008 0 0.017 0 0.025 0l-0.001-0c0.641 0 1.176 0.466 1.176 1.387zM7.008 11.773l-0.384-0.039c-0.303-0.027-0.462-0.109-0.462-0.287 0-0.21 0.205-0.33 0.497-0.33 0.302 0 0.497 0.144 0.512 0.345h0.555c-0.023-0.52-0.423-0.839-1.063-0.839-0.645 0-1.080 0.342-1.080 0.843 0 0.42 0.264 0.691 0.866 0.75l0.392 0.038c0.237 0.023 0.396 0.070 0.396 0.299 0 0.206-0.147 0.354-0.54 0.354-0.36 0-0.539-0.164-0.601-0.385h-0.601c0.057 0.5 0.48 0.89 1.202 0.89 0.68 0 1.119-0.358 1.119-0.89-0.004-0.461-0.31-0.702-0.808-0.749zM13.052 12.526c-0.089 0.21-0.306 0.366-0.617 0.366-0.422 0-0.737-0.277-0.737-0.871 0-0.566 0.29-0.882 0.745-0.882 0.404 0 0.633 0.24 0.656 0.606h-1.040v0.42h1.611v-0.275c0-0.766-0.508-1.263-1.23-1.263-0.672 0-1.317 0.46-1.317 1.394 0 0.936 0.645 1.394 1.316 1.394 0.613 0 1.056-0.38 1.192-0.89zM3.926 10.623c-0.633 0-1.107 0.331-1.165 0.839h0.621c0.043-0.186 0.213-0.326 0.54-0.326 0.419 0 0.555 0.22 0.555 0.49v0.908c-0.237 0.271-0.513 0.396-0.788 0.396-0.288 0-0.485-0.14-0.485-0.384 0-0.238 0.155-0.385 0.45-0.385h0.461v-0.416h-0.48c-0.662 0-1.033 0.331-1.033 0.839 0 0.474 0.356 0.831 0.946 0.831 0.33 0 0.621-0.132 0.84-0.29h0.080v0.224h0.579v-1.774c0.016-0.656-0.43-0.952-1.121-0.952zM0 13.348h0.579v-3.636h-0.579zM2.43 10.69h-0.706l-0.841 1.11v0.346l0.864 1.202h0.718l-1.015-1.377zM23.36 10.69l-0.473 1.051c-0.117 0.253-0.225 0.501-0.26 0.669h-0.082c-0.035-0.168-0.148-0.408-0.264-0.66l-0.474-1.060h-0.641l1.115 2.388-0.551 1.202h0.617l1.653-3.59zM21.039 10.69h-0.707l-0.842 1.107v0.345l0.865 1.203h0.719l-1.014-1.378zM17.412 11.773l-0.383-0.039c-0.304-0.027-0.462-0.109-0.462-0.287 0-0.21 0.205-0.33 0.497-0.33 0.302 0 0.496 0.144 0.511 0.346h0.555c-0.023-0.521-0.422-0.84-1.063-0.84-0.645 0-1.080 0.342-1.080 0.843 0 0.42 0.265 0.691 0.866 0.75l0.393 0.038c0.236 0.023 0.396 0.070 0.396 0.299 0 0.206-0.148 0.354-0.54 0.354-0.361 0-0.54-0.164-0.601-0.385h-0.603c0.059 0.5 0.481 0.89 1.204 0.89 0.68 0 1.118-0.358 1.118-0.89 0-0.461-0.31-0.702-0.808-0.749zM18.608 13.349h0.578v-3.637h-0.578zM14.788 11h-0.082v-0.31h-0.578v2.66h0.578v-1.391c0-0.473 0.218-0.749 0.653-0.749h0.365v-0.587h-0.213c-0.4 0-0.571 0.153-0.723 0.377z"/>
</svg>