<svg xmlns="http://www.w3.org/2000/svg" version="1.1" width="24" height="24" viewBox="0 0 24 24">
<path d="M15.26 21.896l-2.332-3.256c-0.622-0.87-1.127-1.547-1.154-1.547s-1.006 1.314-2.316 3.113c-1.248 1.714-2.28 3.114-2.295 3.114-0.033 0-4.498-3.144-4.51-3.177-0.006-0.016 1.005-1.498 2.242-3.293 1.24-1.795 2.254-3.29 2.254-3.326 0-0.055-0.408-0.193-3.557-1.245l-3.592-1.199c-0.030-0.018 0.156-0.64 0.793-2.65 0.46-1.446 0.844-2.64 0.855-2.655 0.014-0.016 1.71 0.524 3.772 1.205 2.063 0.68 3.765 1.234 3.788 1.234s0.046-0.030 0.053-0.070c0.010-0.030 0.030-1.786 0.040-3.9 0.020-2.1 0.040-3.84 0.050-3.87 0.020-0.030 0.6-0.030 2.73-0.030 1.484 0 2.713 0.015 2.733 0.030 0.025 0.016 0.065 1.186 0.136 3.78 0.11 4.275 0.11 4.335 0.18 4.335 0.025 0 1.66-0.54 3.63-1.22 1.973-0.66 3.592-1.2 3.605-1.186 0.030 0.044 1.65 5.31 1.635 5.325-0.017 0.016-1.667 0.585-3.66 1.26-2.76 0.93-3.647 1.245-3.647 1.29-0.014 0.030 0.93 1.455 2.146 3.21 1.184 1.74 2.143 3.165 2.143 3.18-0.015 0.046-4.44 3.302-4.483 3.302-0.015 0-0.585-0.766-1.245-1.695z"/>
</svg>