<svg xmlns="http://www.w3.org/2000/svg" version="1.1" width="24" height="24" viewBox="0 0 24 24">
<path d="M13.556 12.924c0.21 0 0.386 0.017 0.585 0.056 1.043 0.206 1.898 0.964 2.246 1.956 0.101 0.319 0.234 0.797 0.319 1.125l0.111 0.433 0.446-0.009c3.552-0.075 6.456-2.965 6.456-6.546 0.001-5.426-4.524-9.939-11.438-9.939-2.852 0.009-5.556 1.046-7.603 2.715-2.683 2.2-4.397 5.543-4.397 9.286 0.002 0.96 0.118 1.926 0.334 2.818 0.788 3.268 2.91 6.015 5.759 7.628 1.723 0.971 3.784 1.547 5.909 1.553 0.521 0 1.052-0.036 1.554-0.099 3.126-0.405 5.873-2.012 7.765-4.339l0.124-0.152-0.24-0.868-0.463 0.122c-1.436 0.381-2.908 0.578-4.463 0.576-1.243 0-2.428-0.128-3.598-0.375-1.054-0.212-1.911-0.979-2.248-1.98-0.109-0.315-0.158-0.608-0.156-0.958-0.011-0.782 0.257-1.425 0.741-1.975 0.549-0.631 1.357-1.028 2.257-1.028zM12.281 1.125c6.398 0 10.313 4.11 10.313 8.813 0 2.811-2.168 5.119-4.919 5.397-0.073-0.261-0.152-0.536-0.219-0.746-1.741-5.457-5.889-9.682-11.226-11.632 1.735-1.177 3.78-1.839 6.051-1.832zM1.405 12.001c0-3.283 1.455-6.227 3.756-8.223 4.377 1.403 7.964 4.397 10.058 8.371-0.272-0.12-0.559-0.212-0.859-0.272-1.219-0.253-2.511-0.394-3.807-0.394-3.24 0.006-6.345 0.859-9.001 2.325-0.098-0.586-0.147-1.183-0.147-1.807zM12.729 19.967c1.224 0.257 2.526 0.398 3.829 0.398 0.996 0 1.986-0.083 2.948-0.234-1.519 1.352-3.418 2.282-5.519 2.614-0.799-0.938-1.493-1.95-2.072-3.032 0.259 0.109 0.531 0.195 0.814 0.254zM12.645 22.871c-0.12 0.004-0.242 0.006-0.364 0.006-1.825 0.006-3.486-0.424-4.994-1.209 0.433-1.907 1.172-3.675 2.171-5.277 0.034 0.294 0.099 0.587 0.186 0.848 0.67 2.041 1.703 3.963 3.001 5.632zM10.453 13.207c-1.954 2.19-3.43 4.913-4.176 7.864-2.143-1.421-3.752-3.582-4.467-6.117 2.586-1.508 5.532-2.351 8.744-2.346 0.18 0 0.358 0.002 0.536 0.008-0.232 0.174-0.446 0.371-0.637 0.591z"/>
</svg>