<svg xmlns="http://www.w3.org/2000/svg" version="1.1" width="24" height="24" viewBox="0 0 24 24">
<path d="M24 7.387v10.478c0 0.23-0.080 0.424-0.238 0.576-0.158 0.154-0.352 0.23-0.58 0.23h-8.547v-6.959l1.6 1.229c0.102 0.085 0.229 0.126 0.379 0.126 0.148 0 0.277-0.041 0.389-0.127zM14.635 5.366h8.547c0.211 0 0.393 0.063 0.543 0.192 0.15 0.128 0.234 0.3 0.248 0.51l-7.369 5.876-1.969-1.549zM13.404 0.864v22.271l-13.404-2.316v-17.575l13.406-2.38zM9.355 12.044c-0.020-1.133-0.313-2.072-0.879-2.814-0.555-0.74-1.275-1.131-2.131-1.164-0.824 0.033-1.529 0.423-2.1 1.164-0.57 0.742-0.855 1.682-0.87 2.814 0.015 1.117 0.315 2.047 0.885 2.791 0.571 0.74 1.274 1.133 2.101 1.176 0.855-0.035 1.574-0.424 2.145-1.17 0.57-0.748 0.87-1.68 0.885-2.797zM6.235 9.562c0.431 0.020 0.794 0.256 1.083 0.717 0.285 0.461 0.435 1.045 0.435 1.752 0 0.721-0.149 1.307-0.435 1.771-0.301 0.464-0.66 0.704-1.096 0.704s-0.795-0.226-1.095-0.69-0.435-1.050-0.435-1.754c0-0.705 0.135-1.291 0.435-1.74 0.284-0.45 0.646-0.69 1.081-0.721z"/>
</svg>