<svg xmlns="http://www.w3.org/2000/svg" version="1.1" width="24" height="24" viewBox="0 0 24 24">
<path d="M15.63 10.040c-0.47-0.393-0.863-1.020-0.863-1.648 0-0.235 0.078-0.627 0.157-0.863 0-0.156 0.078-0.156 0.157-0.235 0.706-0.157 1.020-0.157 1.098-0.235 0.157-0.314 0.235-0.706 0.235-0.706l-5.49-1.726c0 0 0.314 0.863 0.549 0.942l2.51 1.098c0 0-1.255 0.313-1.961 0.47l-0.157 0.079c0 0 0.235 0.47 0.706 0.706 0.47-0.157 1.333-0.314 1.333-0.314-1.176 2.353-3.686 3.921-6.353 3.921h-0.94c-0.315 0-0.393 0.236-0.158 0.393 0.47 0.235 0.863 0.705 1.020 1.176 0.078 0.314-0.079 0.55-0.314 0.706-0.47 0.392-1.725 1.255-2.902 2.196-0.151-0.226-0.283-0.484-0.384-0.759l-0.008-0.025c-1.098-2.432-1.647-5.883-1.647-10.432v-0.157l9.412-3.058 9.411 3.058v0.079c0 1.647-0.078 3.216-0.235 4.549v0.157h1.569v-0.079c0.157-1.411 0.235-2.902 0.235-4.549v-1.254l-10.98-3.53-10.98 3.53v1.176c0 4.784 0.548 8.392 1.725 11.059 0.157 0.392 0.392 0.784 0.549 1.098-0.941 0.706-1.726 1.255-1.726 1.255l0.47 0.784 6.040-4.314c3.070-2.111 6.868-3.372 10.961-3.372 0.007 0 0.014 0 0.020 0h1.882c-0.235 1.49-0.628 2.823-1.098 3.921-0.55 1.255-1.255 2.353-2.196 3.451-0.706 0.863-1.569 1.569-2.51 2.196-1.569 1.098-2.98 1.569-3.059 1.647-0.157-0.078-1.49-0.549-3.059-1.647-1.020-0.706-1.882-1.411-2.588-2.274-0.235-0.235-0.47-0.55-0.706-0.863l-0.078-0.078-1.255 0.94 0.078 0.080c0.314 0.391 0.55 0.705 0.785 1.019 0.784 0.941 1.725 1.725 2.745 2.431 1.725 1.177 3.215 1.726 3.45 1.804 0 0 0.314 0.079 0.393 0.157h0.157c0.157 0 0.392-0.157 0.392-0.157 0.314-0.078 1.725-0.627 3.45-1.804 1.030-0.729 1.93-1.529 2.734-2.417l0.012-0.014c0.962-1.104 1.777-2.371 2.393-3.747l0.038-0.096c0.595-1.323 1.036-2.859 1.246-4.467l0.009-0.083h1.334c0.078-0.313 0.156-0.862 0.156-0.862h-4.862c-1.804-0.078-2.432 0-2.902-0.313z"/>
</svg>