<svg xmlns="http://www.w3.org/2000/svg" version="1.1" width="24" height="24" viewBox="0 0 24 24">
<path d="M7.137 1.422c-0.891 0-1.576 0.275-2.055 1.1-0.479 0.821-4.389 7.61-4.8 8.226-0.413 0.617-0.413 1.374 0.273 2.607 0.686 1.234 4.115 7.269 4.527 8.024s1.028 1.2 2.055 1.2h9.73c1.030 0 1.647-0.448 2.057-1.2 0.412-0.755 3.84-6.787 4.525-8.024 0.681-1.233 0.681-1.99 0.272-2.607-0.412-0.617-4.32-7.402-4.801-8.227-0.479-0.821-1.164-1.1-2.055-1.1zM6.687 6.496h2.297l3.028 5.307 3.025-5.307h2.299l-3.086 5.502 3.086 5.502h-2.264l-3.060-5.307-3.060 5.307h-2.265l3.083-5.502z"/>
</svg>