<svg xmlns="http://www.w3.org/2000/svg" version="1.1" width="24" height="24" viewBox="0 0 24 24">
<path d="M11.007 0c-0.787 0.031-1.515 0.37-2.222 0.685-0.519 0.253-1.137 0.493-1.777 0.681l-0.087 0.022c-0.635 0.176-1.3 0.354-1.814 0.788-0.222 0.18-0.356 0.439-0.529 0.662-0.309 0.486-0.448 1.067-0.457 1.638 0.036 0.61 0.216 1.2 0.376 1.786 0.368 1.262 0.807 2.503 1.197 3.759 0.366 1.161 0.703 2.344 1.294 3.416 0.197 0.394 0.35 0.808 0.535 1.206 0.027 0.067 0.052 0.158 0.142 0.149 0.136-0.012 0.243-0.115 0.368-0.164 0.828-0.414 1.74-0.642 2.655-0.749 0.708-0.074 1.43-0.078 2.131 0.054 0.72 0.163 1.417 0.426 2.092 0.724 0.36 0.172 0.719 0.348 1.088 0.498 0.048 0.040 0.135 0.058 0.16-0.016 0.219-0.327 0.469-0.635 0.667-0.976 0.495-1.061 0.522-2.279 1.038-3.331 0.358-0.721 0.892-1.337 1.266-2.048 0.175-0.266 0.431-0.467 0.588-0.747 0.437-0.669 0.78-1.398 1.050-2.15 0.102-0.293 0.172-0.612 0.090-0.919-0.060-0.299-0.202-0.57-0.318-0.848-0.066-0.25-0.161-0.47-0.284-0.671l0.006 0.011c-0.407-0.676-1.070-1.149-1.743-1.536-1.045-0.59-2.196-0.969-3.351-1.28-1.085-0.301-2.36-0.526-3.67-0.629l-0.072-0.005c-0.098-0.007-0.213-0.011-0.329-0.011-0.032 0-0.063 0-0.095 0.001l0.005-0zM10.118 0.606c-0.261 0.223-0.363 0.569-0.468 0.883-0.168 0.568-0.263 1.163-0.207 1.756 0.064 1.062 0.197 2.12 0.33 3.175 0.18 1.352 0.387 2.7 0.677 4.034 0.026 0.165 0.064 0.347 0.050 0.51-0.115-0.175-0.182-0.383-0.258-0.58-0.25-0.765-0.432-1.549-0.604-2.334-0.287-1.263-0.488-2.744-0.56-4.259l-0.002-0.058c-0.025-0.843-0.004-1.726 0.37-2.501 0.118-0.226 0.259-0.46 0.48-0.597 0.057-0.031 0.124-0.050 0.196-0.050 0.008 0 0.016 0 0.023 0.001l-0.001-0zM6.516 1.77c0.128 0 0.139 0.159 0.168 0.252 0.266 0.798 0.422 1.628 0.679 2.428 0.174 0.649 0.238 1.323 0.308 1.991 0.097 1.039 0.108 2.085 0.246 3.12 0.026 0.199 0.082 0.393 0.119 0.59 0.010 0.067-0.059 0.049-0.083 0.014-0.148-0.161-0.183-0.391-0.246-0.592-0.16-0.645-0.242-1.305-0.334-1.962-0.174-1.316-0.287-2.64-0.529-3.945-0.158-0.612-0.356-1.215-0.46-1.838 0.006-0.051 0.093-0.048 0.132-0.058zM4.589 3.607c0.229 0.056 0.365 0.268 0.512 0.434 0.4 0.535 0.54 1.204 0.695 1.843 0.283 1.265 0.446 2.553 0.725 3.82 0.131 0.666 0.293 1.326 0.507 1.971 0.014 0.051 0.035 0.133 0.038 0.17-0.233-0.43-0.393-0.896-0.565-1.353-0.598-1.698-0.823-3.496-1.3-5.228-0.133-0.478-0.308-0.95-0.596-1.358-0.047-0.088-0.080-0.204-0.037-0.297 0.006-0.004 0.014-0.003 0.021-0.002zM17.235 16.803c-0.136 0.007-0.31 0.11-0.276 0.267 0.094 0.218 0.334 0.308 0.526 0.416 0.441 0.216 0.938 0.29 1.358 0.546 0.092 0.060 0.149 0.197 0.064 0.287-0.18 0.266-0.47 0.44-0.723 0.634-0.372 0.266-0.777 0.51-1.057 0.879-0.066 0.107-0.041 0.267 0.082 0.32 0.109 0.079 0.243 0.018 0.338-0.051 0.518-0.294 0.995-0.654 1.478-1.002 0.32-0.239 0.644-0.477 0.926-0.76 0.085-0.135-0.030-0.274-0.118-0.371-0.273-0.285-0.62-0.487-0.965-0.67-0.422-0.226-0.911-0.398-1.428-0.491l-0.030-0.004c-0.026-0.002-0.057-0.003-0.087-0.003s-0.061 0.001-0.092 0.003l0.004-0zM5.96 16.83c-0.527 0.134-0.997 0.42-1.474 0.673-0.425 0.243-0.854 0.496-1.205 0.841-0.107 0.122-0.173 0.283-0.173 0.46 0 0.010 0 0.020 0.001 0.030l-0-0.001c0.065 0.108 0.2 0.14 0.301 0.206 0.852 0.442 1.735 0.822 2.63 1.168 0.132 0.042 0.265 0.113 0.406 0.107 0.158-0.020 0.309-0.204 0.213-0.356-0.146-0.243-0.42-0.361-0.65-0.506-0.547-0.303-1.154-0.512-1.636-0.918-0.046-0.091 0.094-0.128 0.142-0.18 0.549-0.395 1.229-0.593 1.713-1.077 0.089-0.090 0.164-0.259 0.048-0.358-0.086-0.073-0.206-0.087-0.316-0.088zM14.075 17.623c-0.43 0.027-0.835 0.431-0.774 0.876 0.032 0.259 0.089 0.525 0.228 0.749 0.12 0.18 0.33 0.286 0.546 0.287 0.273 0.031 0.59-0.059 0.726-0.318 0.137-0.237 0.212-0.514 0.205-0.787-0.038-0.46-0.466-0.845-0.931-0.807zM9.585 17.633c-0.464 0.028-0.807 0.505-0.77 0.953 0.011 0.444 0.315 0.902 0.765 0.994 0.352 0.060 0.71-0.19 0.803-0.53 0.125-0.35 0.132-0.761-0.044-1.095-0.157-0.25-0.478-0.327-0.754-0.322zM9.697 18.286c0.241 0.064 0.294 0.47 0.045 0.558-0.141 0.034-0.239-0.12-0.234-0.244-0.008-0.127 0.050-0.287 0.189-0.314zM14.134 18.429c0.097 0 0.226 0.071 0.19 0.187-0.013 0.171-0.215 0.333-0.377 0.226-0.132-0.070-0.172-0.296-0.020-0.368 0.055-0.029 0.12-0.045 0.189-0.045 0.006 0 0.012 0 0.018 0l-0.001-0zM10.616 21.406c-0.553 0.051-1.044 0.335-1.542 0.559-0.304 0.156-0.662 0.312-1.005 0.187-0.377-0.12-0.707-0.35-1.059-0.52-0.075-0.013-0.061 0.077-0.047 0.122 0.081 0.53 0.129 1.102 0.454 1.55 0.338 0.437 0.902 0.618 1.433 0.667 0.797 0.072 1.642-0.118 2.271-0.629 0.309-0.262 0.571-0.631 0.585-1.049-0.006-0.324-0.244-0.596-0.524-0.734-0.159-0.096-0.351-0.153-0.556-0.153-0.004 0-0.007 0-0.011 0h0.001zM13.196 21.414c-0.396 0.052-0.815 0.262-0.972 0.65-0.129 0.358 0.034 0.748 0.272 1.020 0.426 0.509 1.070 0.793 1.718 0.884 0.577 0.078 1.186 0.014 1.714-0.24 0.438-0.225 0.767-0.655 0.85-1.142 0.064-0.291 0.081-0.59 0.124-0.884-0.066-0.078-0.148 0.038-0.218 0.052-0.337 0.142-0.647 0.367-1.010 0.435-0.363 0.024-0.687-0.172-1.015-0.293-0.43-0.178-0.851-0.403-1.315-0.478-0.032-0.003-0.069-0.005-0.107-0.005-0.015 0-0.029 0-0.043 0.001l0.002-0zM10.315 16.323c-0.070 0-0.143 0.014-0.216 0.030-0.176 0.044-0.328 0.096-0.473 0.159l0.019-0.007c-0.15 0.061-0.292 0.127-0.407 0.18-0.046 0.022-0.118 0.053-0.19 0.082l-0.028 0.010c-0.013 0.002-0.028 0.003-0.043 0.003-0.051 0-0.099-0.014-0.14-0.038l0.001 0.001c-0.062-0.037-0.12-0.101-0.141-0.255l-0.27 0.038c0.031 0.218 0.14 0.37 0.27 0.45s0.268 0.090 0.378 0.067c0.085-0.018 0.16-0.058 0.276-0.111s0.255-0.118 0.397-0.176c0.143-0.058 0.288-0.11 0.41-0.138 0.043-0.013 0.093-0.020 0.144-0.020 0.038 0 0.076 0.004 0.111 0.012l-0.003-0.001c0.14 0.060 0.19 0.13 0.215 0.179 0.025 0.050 0.030 0.067 0.030 0.067l0.263-0.060c0 0 0.002-0.024-0.050-0.128-0.078-0.14-0.199-0.247-0.345-0.305l-0.005-0.002c-0.055-0.024-0.119-0.037-0.186-0.037-0.006 0-0.012 0-0.018 0l0.001-0zM13.059 20.26c-0.041 0.001-0.078 0.020-0.102 0.050l-0 0c0 0-0.122 0.148-0.286 0.295-0.165 0.148-0.38 0.28-0.493 0.283-0.112 0.003-0.314-0.118-0.47-0.26-0.155-0.14-0.267-0.284-0.267-0.284-0.025-0.036-0.066-0.059-0.112-0.059-0.075 0-0.136 0.061-0.136 0.136 0 0.035 0.013 0.066 0.034 0.090l-0-0c0 0 0.124 0.16 0.299 0.319 0.175 0.16 0.397 0.337 0.66 0.33 0.259-0.008 0.484-0.19 0.666-0.352 0.182-0.163 0.315-0.325 0.315-0.325 0.020-0.023 0.032-0.054 0.032-0.087 0-0.075-0.061-0.136-0.136-0.136-0.001 0-0.002 0-0.004 0h0zM11.007 0.001c-0.787 0.030-1.515 0.368-2.222 0.684-0.519 0.253-1.137 0.493-1.777 0.681l-0.087 0.022c-0.635 0.176-1.3 0.354-1.814 0.788-0.222 0.18-0.356 0.44-0.529 0.663-0.309 0.485-0.448 1.066-0.457 1.637 0.036 0.61 0.216 1.2 0.376 1.786 0.368 1.263 0.807 2.503 1.197 3.759 0.366 1.161 0.703 2.344 1.294 3.417 0.197 0.393 0.35 0.807 0.535 1.205 0.027 0.067 0.052 0.158 0.142 0.15 0.136-0.013 0.243-0.116 0.368-0.165 0.828-0.414 1.74-0.641 2.655-0.749 0.708-0.074 1.43-0.078 2.131 0.055 0.72 0.163 1.417 0.425 2.092 0.723 0.36 0.172 0.719 0.348 1.088 0.498 0.048 0.040 0.135 0.058 0.16-0.016 0.219-0.327 0.469-0.635 0.667-0.975 0.495-1.062 0.522-2.28 1.038-3.332 0.358-0.721 0.892-1.336 1.266-2.047 0.175-0.266 0.431-0.468 0.588-0.747 0.437-0.67 0.78-1.4 1.050-2.151 0.102-0.293 0.172-0.612 0.090-0.919-0.060-0.298-0.202-0.57-0.318-0.848-0.066-0.25-0.161-0.469-0.284-0.67l0.006 0.011c-0.407-0.676-1.070-1.15-1.743-1.536-1.045-0.591-2.196-0.97-3.351-1.281-1.085-0.301-2.36-0.526-3.67-0.629l-0.072-0.005c-0.095-0.006-0.205-0.010-0.317-0.010-0.036 0-0.072 0-0.107 0.001l0.005-0zM10.118 0.607c-0.261 0.222-0.363 0.568-0.468 0.883-0.168 0.567-0.263 1.163-0.207 1.755 0.064 1.062 0.197 2.12 0.33 3.175 0.18 1.352 0.387 2.701 0.677 4.034 0.026 0.165 0.064 0.347 0.050 0.51-0.115-0.175-0.182-0.383-0.258-0.58-0.25-0.765-0.432-1.549-0.604-2.334-0.287-1.263-0.488-2.743-0.56-4.258l-0.002-0.058c-0.025-0.844-0.004-1.727 0.37-2.502 0.118-0.225 0.259-0.46 0.48-0.597 0.057-0.031 0.124-0.050 0.196-0.050 0.008 0 0.016 0 0.023 0.001l-0.001-0zM6.516 1.77c0.128 0 0.139 0.16 0.168 0.252 0.266 0.798 0.422 1.628 0.679 2.429 0.174 0.648 0.238 1.322 0.308 1.99 0.097 1.040 0.108 2.086 0.246 3.12 0.026 0.199 0.082 0.394 0.119 0.59 0.010 0.068-0.059 0.050-0.083 0.014-0.148-0.16-0.183-0.39-0.246-0.592-0.16-0.645-0.242-1.304-0.334-1.962-0.174-1.315-0.287-2.64-0.529-3.945-0.158-0.612-0.356-1.215-0.46-1.838 0.006-0.051 0.093-0.048 0.132-0.058zM4.589 3.608c0.229 0.055 0.365 0.267 0.512 0.433 0.4 0.535 0.54 1.204 0.695 1.843 0.283 1.265 0.446 2.554 0.725 3.82 0.131 0.666 0.293 1.327 0.507 1.971 0.014 0.051 0.035 0.133 0.038 0.17-0.233-0.43-0.393-0.896-0.565-1.352-0.598-1.7-0.823-3.497-1.3-5.23-0.133-0.477-0.308-0.95-0.596-1.357-0.047-0.087-0.080-0.204-0.037-0.296 0.006-0.004 0.014-0.003 0.021-0.002zM17.235 16.803c-0.136 0.007-0.31 0.11-0.276 0.268 0.094 0.217 0.334 0.307 0.526 0.416 0.441 0.215 0.938 0.289 1.358 0.545 0.092 0.060 0.149 0.197 0.064 0.287-0.18 0.267-0.47 0.44-0.723 0.634-0.372 0.266-0.777 0.51-1.057 0.879-0.066 0.107-0.041 0.267 0.082 0.32 0.109 0.079 0.243 0.019 0.338-0.050 0.518-0.295 0.995-0.655 1.478-1.002 0.32-0.24 0.644-0.478 0.926-0.761 0.085-0.135-0.030-0.274-0.118-0.37-0.273-0.286-0.62-0.488-0.965-0.672-0.422-0.225-0.911-0.397-1.428-0.489l-0.030-0.004c-0.028-0.002-0.061-0.004-0.095-0.004-0.028 0-0.056 0.001-0.084 0.003l0.004-0zM5.959 16.832c-0.527 0.133-0.997 0.42-1.474 0.672-0.425 0.243-0.854 0.497-1.205 0.842-0.107 0.122-0.173 0.283-0.173 0.46 0 0.010 0 0.019 0.001 0.029l-0-0.001c0.065 0.109 0.2 0.14 0.301 0.206 0.852 0.442 1.735 0.823 2.63 1.168 0.132 0.042 0.265 0.113 0.406 0.108 0.158-0.020 0.309-0.205 0.213-0.357-0.146-0.243-0.42-0.361-0.65-0.506-0.547-0.303-1.154-0.512-1.636-0.918-0.046-0.090 0.094-0.128 0.142-0.18 0.549-0.394 1.229-0.592 1.713-1.077 0.089-0.090 0.164-0.258 0.048-0.357-0.086-0.074-0.206-0.088-0.316-0.088zM14.074 17.624c-0.43 0.028-0.835 0.432-0.774 0.876 0.032 0.26 0.089 0.526 0.228 0.75 0.12 0.179 0.33 0.285 0.546 0.287 0.273 0.030 0.59-0.060 0.726-0.319 0.137-0.236 0.212-0.514 0.205-0.787-0.038-0.46-0.466-0.844-0.931-0.807zM9.584 17.634c-0.464 0.028-0.807 0.505-0.77 0.953 0.011 0.444 0.315 0.902 0.765 0.995 0.352 0.059 0.71-0.19 0.803-0.53 0.125-0.35 0.132-0.762-0.044-1.096-0.157-0.249-0.478-0.327-0.754-0.322zM9.696 18.288c0.241 0.063 0.294 0.47 0.045 0.557-0.141 0.034-0.239-0.12-0.234-0.244-0.008-0.127 0.050-0.287 0.189-0.313zM14.133 18.43c0.097 0 0.226 0.072 0.19 0.187-0.013 0.172-0.215 0.333-0.377 0.227-0.132-0.071-0.172-0.297-0.020-0.369 0.055-0.029 0.12-0.045 0.189-0.045 0.006 0 0.012 0 0.018 0l-0.001-0zM10.615 21.407c-0.553 0.052-1.044 0.336-1.542 0.56-0.304 0.155-0.662 0.311-1.005 0.186-0.377-0.119-0.707-0.35-1.059-0.52-0.075-0.012-0.061 0.078-0.047 0.122 0.081 0.53 0.129 1.102 0.454 1.55 0.338 0.438 0.902 0.619 1.433 0.667 0.797 0.072 1.642-0.118 2.271-0.629 0.309-0.262 0.571-0.63 0.585-1.049-0.006-0.324-0.244-0.596-0.524-0.734-0.159-0.096-0.351-0.153-0.556-0.153-0.004 0-0.007 0-0.011 0h0.001zM13.195 21.415c-0.396 0.052-0.815 0.262-0.972 0.65-0.129 0.359 0.034 0.748 0.272 1.021 0.426 0.508 1.070 0.792 1.718 0.883 0.577 0.078 1.186 0.015 1.714-0.24 0.438-0.225 0.767-0.655 0.85-1.142 0.064-0.29 0.081-0.59 0.124-0.884-0.066-0.077-0.148 0.039-0.218 0.052-0.337 0.143-0.647 0.367-1.010 0.436-0.363 0.024-0.687-0.172-1.015-0.294-0.43-0.178-0.851-0.402-1.315-0.477-0.034-0.003-0.074-0.005-0.115-0.005-0.012 0-0.023 0-0.035 0l0.002-0z"/>
</svg>