<svg xmlns="http://www.w3.org/2000/svg" version="1.1" width="24" height="24" viewBox="0 0 24 24">
<path d="M12 0c-6.624 0-12 5.376-12 12s5.376 12 12 12 12-5.376 12-12-5.376-12-12-12zM23.52 12c0 0.408-0.023 0.792-0.072 1.176l-2.040-0.24c0.024-0.312 0.050-0.624 0.050-0.936 0-0.288-0.025-0.6-0.050-0.888l2.040-0.24c0.072 0.384 0.072 0.744 0.072 1.128zM0.479 12c0-0.384 0.024-0.769 0.049-1.152l2.040 0.24c-0.024 0.312-0.047 0.6-0.047 0.912s0.023 0.6 0.047 0.912l-2.040 0.24c-0.049-0.383-0.049-0.768-0.049-1.152zM20.951 8.904l1.921-0.72c0.264 0.72 0.433 1.464 0.552 2.232l-2.040 0.24c-0.097-0.6-0.24-1.2-0.433-1.752zM21 12c0 0.6-0.072 1.176-0.167 1.752l-2.017-0.455c0.071-0.409 0.119-0.841 0.119-1.297s-0.048-0.912-0.119-1.344l2.017-0.457c0.118 0.577 0.167 1.177 0.167 1.801zM12 18.456c-3.565-0.001-6.455-2.891-6.456-6.456 0.001-3.565 2.891-6.455 6.456-6.456 3.565 0.001 6.455 2.891 6.456 6.456 0.008 3.559-2.871 6.448-6.429 6.456zM12.216 21v-2.064c0.885-0.029 1.756-0.224 2.568-0.575l0.888 1.872c-1.090 0.482-2.264 0.742-3.456 0.767zM8.28 20.209l0.912-1.873c0.792 0.359 1.656 0.575 2.568 0.6v2.064c-1.202-0.023-2.386-0.293-3.48-0.791zM3 12c0-0.624 0.072-1.224 0.192-1.824l2.016 0.456c-0.098 0.45-0.146 0.908-0.144 1.368 0 0.432 0.048 0.864 0.12 1.272l-2.016 0.455c-0.117-0.568-0.174-1.147-0.168-1.727zM11.76 3v2.064c-0.877 0.029-1.74 0.224-2.544 0.576l-0.888-1.871c1.083-0.478 2.249-0.739 3.432-0.769zM15.695 3.792l-0.911 1.872c-0.809-0.363-1.682-0.559-2.568-0.576v-2.064c1.248 0 2.424 0.288 3.479 0.768zM20.783 8.448c-0.231-0.56-0.513-1.098-0.84-1.608l1.681-1.152c0.407 0.648 0.768 1.32 1.056 2.040zM20.713 9.744l-2.018 0.456c-0.23-0.85-0.621-1.648-1.151-2.352l1.632-1.295c0.72 0.959 1.248 2.015 1.537 3.191zM17.256 7.488c-0.572-0.667-1.264-1.22-2.040-1.633l0.912-1.871c1.056 0.549 1.993 1.299 2.76 2.208zM16.656 3.744l0.96-1.824c0.672 0.384 1.295 0.816 1.896 1.32l-1.367 1.56c-0.461-0.401-0.959-0.754-1.489-1.056zM16.248 3.528c-0.54-0.266-1.102-0.483-1.68-0.648l0.504-1.992c0.744 0.216 1.464 0.48 2.159 0.84zM14.088 2.76c-0.6-0.144-1.2-0.216-1.824-0.239v-2.042c0.793 0.024 1.584 0.12 2.328 0.289zM11.808 2.521c-0.605 0.021-1.207 0.094-1.8 0.216l-0.48-1.993c0.72-0.168 1.487-0.265 2.28-0.265zM9.528 2.855c-0.586 0.167-1.156 0.384-1.704 0.649l-0.96-1.824c0.691-0.343 1.415-0.616 2.16-0.816zM7.416 3.72c-0.529 0.294-1.027 0.64-1.488 1.032l-1.368-1.536c0.6-0.504 1.224-0.936 1.896-1.319zM7.896 3.984l0.888 1.871c-0.792 0.408-1.464 0.96-2.040 1.608l-1.608-1.295c0.775-0.895 1.711-1.636 2.76-2.184zM4.848 6.552l1.608 1.295c-0.53 0.705-0.921 1.503-1.152 2.353l-2.016-0.456c0.312-1.2 0.84-2.28 1.56-3.192zM3.24 8.4l-1.92-0.72c0.287-0.72 0.648-1.416 1.080-2.040l1.68 1.176c-0.341 0.494-0.623 1.025-0.84 1.584zM3.072 8.855c-0.192 0.577-0.36 1.152-0.432 1.776l-2.040-0.238c0.12-0.769 0.288-1.537 0.553-2.257zM2.616 13.368c0.096 0.6 0.239 1.2 0.432 1.776l-1.92 0.72c-0.271-0.728-0.456-1.485-0.552-2.257zM3.24 15.576c0.239 0.576 0.528 1.104 0.84 1.607l-1.68 1.153c-0.435-0.629-0.797-1.306-1.080-2.016zM3.264 14.184l2.017-0.456c0.216 0.864 0.624 1.681 1.128 2.376l-1.609 1.296c-0.725-0.957-1.247-2.051-1.536-3.216zM6.696 16.464c0.577 0.672 1.272 1.248 2.064 1.656l-0.912 1.872c-1.063-0.557-2.009-1.315-2.784-2.232zM7.416 20.279l-0.96 1.825c-0.674-0.376-1.31-0.819-1.896-1.321l1.368-1.535c0.456 0.407 0.936 0.744 1.488 1.031zM7.824 20.496c0.528 0.264 1.104 0.48 1.705 0.647l-0.504 1.992c-0.747-0.196-1.471-0.469-2.16-0.815zM9.984 21.264c0.576 0.12 1.176 0.193 1.8 0.217v2.039c-0.774-0.026-1.544-0.114-2.305-0.264zM12.264 21.48c0.605-0.021 1.207-0.094 1.801-0.217l0.479 1.992c-0.749 0.168-1.513 0.264-2.28 0.287zM14.521 21.144c0.586-0.165 1.155-0.382 1.703-0.647l0.96 1.824c-0.688 0.35-1.412 0.623-2.159 0.815zM16.607 20.279c0.528-0.287 1.032-0.647 1.488-1.031l1.369 1.535c-0.588 0.502-1.223 0.945-1.896 1.321zM16.128 20.016l-0.888-1.871c0.788-0.414 1.489-0.977 2.064-1.656l1.606 1.296c-0.778 0.91-1.722 1.668-2.782 2.231zM19.199 17.424l-1.607-1.296c0.532-0.708 0.916-1.517 1.128-2.376l2.017 0.456c-0.311 1.157-0.831 2.248-1.538 3.216zM20.76 15.6l1.92 0.721c-0.288 0.72-0.648 1.392-1.079 2.040l-1.682-1.177c0.337-0.504 0.624-1.032 0.841-1.584zM20.928 15.145c0.192-0.553 0.336-1.152 0.433-1.752l2.039 0.239c-0.11 0.761-0.294 1.508-0.551 2.232zM21.384 5.304l-1.681 1.152c-0.358-0.49-0.76-0.947-1.199-1.368l1.368-1.536c0.552 0.552 1.056 1.128 1.512 1.752zM4.2 3.528l1.368 1.536c-0.456 0.408-0.84 0.864-1.2 1.368l-1.68-1.176c0.431-0.636 0.94-1.216 1.512-1.728zM2.664 18.744l1.68-1.152c0.36 0.48 0.769 0.937 1.2 1.369l-1.368 1.535c-0.548-0.545-1.054-1.131-1.512-1.752zM19.824 20.473l-1.368-1.537c0.432-0.407 0.841-0.863 1.199-1.344l1.682 1.176c-0.457 0.6-0.961 1.175-1.513 1.705z"/>
</svg>