<svg xmlns="http://www.w3.org/2000/svg" version="1.1" width="24" height="24" viewBox="0 0 24 24">
<path d="M5.905 0c-0.729 0.007-1.402 0.241-1.953 0.635l0.010-0.007 0.011-0.007c-0.889 0.629-1.463 1.653-1.463 2.812 0 0.317 0.043 0.625 0.124 0.917l-0.006-0.024-0.005-0.024v16.266c0 1.9 1.534 3.433 3.433 3.433s3.433-1.533 3.433-3.433v-3.433h1.865l3.768 5.383c0.624 0.894 1.647 1.471 2.805 1.471 0.735 0 1.416-0.233 1.972-0.628l-0.011 0.007c0.894-0.623 1.471-1.646 1.471-2.804 0-0.735-0.233-1.416-0.628-1.972l0.007 0.010-2.385-3.407c1.92-1.58 3.135-3.956 3.135-6.617 0-0.003 0-0.007 0-0.010v0.001c0-4.733-3.866-8.566-8.583-8.566l-6.999-0.002zM8.219 0.868h4.687c4.25 0.067 7.666 3.567 7.599 7.816-0.037 2.293-1.070 4.338-2.684 5.726l-0.010 0.009-0.454-0.648c1.47-1.264 2.395-3.125 2.395-5.203 0-3.782-3.065-6.848-6.846-6.85h-3.992c-0.060-0.105-0.115-0.192-0.174-0.275l0.007 0.010 0.007 0.011c-0.159-0.222-0.334-0.416-0.528-0.589l-0.004-0.003zM9.263 2.568h3.643c3.316 0 6 2.683 6 6 0 0.002 0 0.005 0 0.008 0 1.789-0.785 3.395-2.030 4.492l-0.007 0.006-0.489-0.699c1.031-0.946 1.674-2.299 1.674-3.802 0-2.844-2.304-5.151-5.148-5.154h-3.534c-0.001-0.311-0.042-0.612-0.12-0.898l0.006 0.024zM9.267 4.285h3.639c2.367 0.050 4.25 2 4.2 4.383-0.025 1.153-0.499 2.191-1.255 2.949l0-0-0.244-0.349c-0.091-0.13-0.182-0.243-0.28-0.35l0.003 0.003c0.56-0.592 0.91-1.389 0.927-2.267l0-0.003c0-0.019 0.001-0.042 0.001-0.064 0-1.877-1.497-3.404-3.362-3.452l-0.004-0h-3.969c0.143-0.245 0.262-0.527 0.342-0.826zM3.49 5.83c0.243 0.249 0.523 0.461 0.832 0.627l0.018 0.009v14.101c0 0.95 0.767 1.717 1.717 1.717 0.933 0 1.7-0.767 1.716-1.733v-5.133h2.38l0.607 0.867h-2.137v4.283c-0.049 1.38-1.179 2.48-2.566 2.48s-2.518-1.1-2.566-2.476l-0-0.004zM8.623 5.984h4.283c0.002 0 0.005-0 0.008-0 1.422 0 2.575 1.153 2.575 2.575 0 0.003 0 0.006-0 0.008v-0c0 0.719-0.29 1.366-0.759 1.833-0.237-0.165-0.51-0.304-0.801-0.406l-0.024-0.007c0.446-0.311 0.734-0.821 0.734-1.399 0-0.002 0-0.004 0-0.005v0c0-0.967-0.783-1.733-1.733-1.733h-3.433v3.45h1.548c-0.371 0.228-0.685 0.511-0.939 0.842l-0.006 0.008h-1.453zM7.756 6.347v5.671h1.839c-0.096 0.248-0.166 0.535-0.199 0.835l-0.001 0.015h-2.489v-6.143c0.323-0.095 0.605-0.224 0.864-0.386zM5.19 6.779c0.23 0.055 0.493 0.086 0.764 0.086l0.103-0.002v6.854h3.355c0.042 0.289 0.117 0.574 0.235 0.85h-2.74v6c-0.007 0.47-0.381 0.851-0.848 0.867l-0.002 0c-0.003 0-0.006 0-0.009 0-0.471 0-0.853-0.38-0.858-0.85v-0zM10.323 7.701h2.567c0.483 0 0.866 0.383 0.866 0.866s-0.367 0.883-0.85 0.883l-2.583-0.017z"/>
</svg>