<svg xmlns="http://www.w3.org/2000/svg" version="1.1" width="24" height="24" viewBox="0 0 24 24">
<path d="M12 0c-6.64 0-12 5.36-12 12s5.36 12 12 12 12-5.36 12-12-5.36-12-12-12zM12 1.41c1.2 0 2.36 0.22 3.43 0.59l-3.3 7.13c-0.040 0.040-0.040 0.13-0.13 0.13s-0.090-0.090-0.13-0.13l-3.3-7.13c1.070-0.37 2.23-0.58 3.43-0.58zM6.9 2.74l3.82 8.23c0.080 0.17 0.17 0.22 0.28 0.22h2c0.12 0 0.2-0.050 0.29-0.22l3.77-8.23c1.58 0.9 2.94 2.19 3.9 3.73l-5.36 10.37c-0.040 0.090-0.1 0.13-0.13 0.13-0.080 0-0.080-0.080-0.13-0.13l-2.050-4.54c-0.090-0.17-0.17-0.21-0.29-0.21h-2c-0.11 0-0.2 0.040-0.29 0.21l-2.050 4.54c-0.050 0.050-0.040 0.13-0.13 0.13s-0.090-0.080-0.13-0.13l-5.4-10.37c0.94-1.54 2.32-2.83 3.9-3.73zM2.060 8.53l6.17 12c0.080 0.17 0.17 0.3 0.39 0.3 0.21 0 0.29-0.13 0.38-0.3l2.87-6.39c0.040-0.080 0.090-0.14 0.13-0.14 0.090 0 0.090 0.1 0.13 0.14l2.91 6.39c0.090 0.17 0.17 0.3 0.39 0.3 0.21 0 0.3-0.13 0.38-0.3l6.19-12c0.37 1.070 0.59 2.23 0.59 3.47-0.050 5.79-4.8 10.59-10.59 10.59s-10.54-4.8-10.54-10.59c0-1.2 0.21-2.35 0.6-3.47z"/>
</svg>