<svg xmlns="http://www.w3.org/2000/svg" version="1.1" width="24" height="24" viewBox="0 0 24 24">
<path d="M11.108 0.024c-0.274 0.004-0.604 0.012-0.737 0.023-3.644 0.314-6.903 2.471-8.793 5.813-0.861 1.515-1.422 3.305-1.556 5.212l-0.002 0.040c-0.040 0.517-0.020 1.745 0.035 2.208 0.306 2.682 1.353 5.060 3.070 6.965 1.962 2.173 4.586 3.467 7.437 3.663 0.42 0.032 1.043 0.040 1.020 0.012-0.094-0.029-0.208-0.055-0.325-0.072l-0.013-0.002c-1.674-0.33-3.388-1.13-4.777-2.232-0.941-0.758-1.75-1.626-2.423-2.595l-0.027-0.041c-1.259-1.83-2.044-4.074-2.133-6.496l-0.001-0.022c-0.008-0.164-0.012-0.356-0.012-0.55 0-1.33 0.209-2.612 0.597-3.813l-0.024 0.088c0.785-2.522 2.37-4.726 4.475-6.228 1.199-0.878 2.622-1.531 4.164-1.862l0.073-0.013 0.443-0.098zM12.583 0.534c-1.938 0.116-3.777 0.765-5.283 1.866-1.875 1.37-3.306 3.244-4.080 5.346-0.145 0.397-0.282 0.82-0.282 0.879 0 0.012 3.828 0.024 10.31 0.024 8.464 0 10.316-0.008 10.316-0.036 0-0.047-0.153-0.525-0.283-0.878-0.153-0.42-0.576-1.31-0.82-1.722-0.4-0.683-0.91-1.373-1.474-1.992-1.651-1.82-3.593-2.934-5.82-3.334-0.785-0.141-1.8-0.2-2.584-0.153zM23.83 9.97c-0.020 0-4.792 0-10.609 0.004l-10.574 0.008-0.011 0.059c-0.036 0.16-0.134 1.082-0.134 1.243 0 0.028 1.785 0.032 10.747 0.032h10.751v-0.075c0-0.102-0.070-0.792-0.106-1.055-0.020-0.16-0.040-0.216-0.064-0.216zM13.257 12.606c-9.37-0.004-10.731 0-10.743 0.035-0.020 0.040 0.024 0.557 0.075 0.973 0.020 0.157 0.035 0.298 0.035 0.314 0 0.027 2.137 0.035 10.625 0.035h10.624l0.024-0.188c0.043-0.326 0.102-0.97 0.094-1.067l-0.008-0.094zM13.26 15.324c-8.883 0-10.322 0.004-10.322 0.035 0 0.020 0.054 0.208 0.121 0.42 0.473 1.44 1.179 2.686 2.085 3.758l-0.014-0.017c0.282 0.342 0.945 1.036 1.228 1.287 1.568 1.4 3.247 2.216 5.18 2.53 0.605 0.094 0.887 0.113 1.75 0.11 0.91 0 1.298-0.032 2.024-0.177 2.11-0.416 3.914-1.451 5.53-3.17 1.267-1.348 2.106-2.76 2.628-4.411l0.117-0.365z"/>
</svg>