<svg xmlns="http://www.w3.org/2000/svg" version="1.1" width="24" height="24" viewBox="0 0 24 24">
<path d="M13.88 12.68c-0.4 0 0.080 0.2 0.6 0.28 0.14-0.1 0.27-0.22 0.39-0.33-0.194 0.044-0.416 0.070-0.644 0.070-0.122 0-0.242-0.007-0.36-0.021l0.014 0.001zM16.020 12.15c0.23-0.33 0.4-0.69 0.47-1.060-0.060 0.27-0.2 0.5-0.33 0.73-0.75 0.47-0.070-0.27 0-0.56-0.8 1.010-0.11 0.6-0.14 0.89zM16.8 10.1c0.050-0.72-0.14-0.5-0.2-0.22 0.070 0.040 0.13 0.5 0.2 0.22zM12.38 0.31c0.2 0.040 0.45 0.070 0.42 0.12 0.23-0.050 0.28-0.1-0.43-0.12zM12.8 0.43l-0.15 0.030 0.14-0.010v-0.020zM19.42 10.37c0.020 0.64-0.2 0.95-0.38 1.5l-0.35 0.18c-0.28 0.54 0.030 0.35-0.17 0.78-0.44 0.39-1.34 1.22-1.62 1.3-0.2 0 0.14-0.25 0.19-0.34-0.59 0.4-0.48 0.6-1.37 0.85l-0.030-0.060c-2.22 1.040-5.3-1.020-5.25-3.84-0.030 0.17-0.070 0.13-0.12 0.2-0.008-0.090-0.013-0.194-0.013-0.3 0-1.402 0.812-2.613 1.992-3.191l0.021-0.009c0.44-0.226 0.959-0.358 1.51-0.358 0.853 0 1.632 0.318 2.224 0.841l-0.004-0.003c-0.617-0.794-1.572-1.301-2.645-1.301-0.026 0-0.053 0-0.079 0.001l0.004-0c-1.18 0.010-2.28 0.76-2.65 1.57-0.6 0.38-0.67 1.47-0.93 1.66-0.36 2.6 0.66 3.72 2.38 5.040 0.27 0.19 0.080 0.21 0.12 0.35-0.602-0.29-1.11-0.68-1.525-1.154l-0.005-0.006c0.23 0.33 0.47 0.66 0.8 0.91-0.55-0.18-1.27-1.3-1.48-1.35 0.93 1.66 3.78 2.92 5.26 2.3-0.131 0.010-0.284 0.016-0.439 0.016-0.676 0-1.326-0.108-1.935-0.308l0.044 0.012c-0.33-0.16-0.77-0.51-0.7-0.57 0.664 0.287 1.437 0.454 2.249 0.454 1.389 0 2.663-0.488 3.662-1.302l-0.011 0.008c0.44-0.35 0.93-0.94 1.070-0.95-0.2 0.32 0.040 0.16-0.12 0.44 0.44-0.72-0.2-0.3 0.46-1.24l0.24 0.33c-0.090-0.6 0.74-1.32 0.66-2.26 0.19-0.3 0.2 0.3 0 0.97 0.29-0.74 0.080-0.85 0.15-1.46 0.080 0.2 0.18 0.42 0.23 0.63-0.18-0.7 0.2-1.2 0.28-1.6-0.090-0.050-0.28 0.3-0.32-0.53 0-0.37 0.1-0.2 0.14-0.28-0.080-0.050-0.26-0.32-0.38-0.86 0.080-0.13 0.22 0.33 0.34 0.34-0.080-0.42-0.2-0.75-0.2-1.080-0.34-0.68-0.12 0.1-0.4-0.3-0.34-1.090 0.3-0.25 0.34-0.74 0.54 0.77 0.84 1.96 0.98 2.46-0.1-0.6-0.28-1.2-0.49-1.76 0.16 0.070-0.26-1.24 0.21-0.37-0.644-1.9-1.942-3.435-3.62-4.37l-0.040-0.020c0.18 0.17 0.42 0.39 0.33 0.42-0.75-0.45-0.62-0.48-0.73-0.67-0.61-0.25-0.65 0.020-1.060 0-1.16-0.62-1.38-0.55-2.44-0.95l0.050 0.23c-0.77-0.25-0.9 0.1-1.73 0-0.050-0.040 0.27-0.14 0.53-0.18-0.74 0.1-0.7-0.14-1.43 0.030 0.17-0.13 0.36-0.21 0.55-0.32-0.6 0.040-1.44 0.35-1.18 0.070-0.99 0.45-2.74 1.070-3.72 1.99l-0.030-0.22c-0.45 0.54-1.96 1.61-2.080 2.31l-0.13 0.030c-0.23 0.4-0.38 0.85-0.57 1.26-0.3 0.52-0.45 0.2-0.4 0.28-0.6 1.22-0.9 2.25-1.16 3.1 0.18 0.27 0 1.65 0.070 2.76-0.3 5.46 3.84 10.77 8.36 12 0.67 0.23 1.65 0.23 2.49 0.25-0.99-0.28-1.12-0.15-2.080-0.49-0.7-0.32-0.85-0.7-1.34-1.13l0.2 0.35c-0.97-0.34-0.57-0.42-1.36-0.67l0.21-0.27c-0.31-0.030-0.83-0.53-0.97-0.81l-0.34 0.010c-0.41-0.5-0.63-0.87-0.61-1.16l-0.11 0.2c-0.13-0.21-1.52-1.9-0.8-1.51-0.13-0.12-0.31-0.2-0.5-0.55l0.14-0.17c-0.35-0.44-0.64-1.020-0.62-1.2 0.2 0.24 0.32 0.3 0.45 0.33-0.88-2.17-0.93-0.12-1.6-2.2l0.15-0.020c-0.1-0.16-0.18-0.34-0.26-0.51l0.060-0.6c-0.63-0.74-0.18-3.1-0.090-4.4 0.070-0.54 0.53-1.1 0.88-1.98l-0.21-0.040c0.4-0.71 2.34-2.87 3.24-2.76 0.43-0.55-0.090 0-0.18-0.14 0.96-0.99 1.26-0.7 1.9-0.88 0.7-0.4-0.6 0.16-0.27-0.15 1.2-0.3 0.85-0.7 2.42-0.85 0.16 0.1-0.39 0.14-0.52 0.26 1-0.49 3.15-0.37 4.56 0.27 1.63 0.77 3.46 3.010 3.53 5.13l0.080 0.020c-0.040 0.85 0.13 1.82-0.17 2.71l0.2-0.42zM9.54 13.23l-0.050 0.28c0.26 0.35 0.47 0.73 0.8 1.010-0.24-0.47-0.42-0.66-0.75-1.3zM10.16 13.2c-0.14-0.15-0.22-0.34-0.31-0.52 0.080 0.32 0.26 0.6 0.43 0.88l-0.12-0.36zM21.1 10.82l-0.070 0.15c-0.1 0.76-0.34 1.51-0.69 2.21 0.4-0.73 0.65-1.54 0.75-2.36zM12.45 0.12c0.27-0.1 0.66-0.050 0.95-0.12-0.37 0.030-0.74 0.050-1.1 0.1l0.15 0.020zM3.010 5.14c0.070 0.57-0.43 0.8 0.11 0.42 0.3-0.66-0.11-0.18-0.1-0.42zM2.38 7.8c0.12-0.39 0.15-0.62 0.2-0.84-0.35 0.44-0.17 0.53-0.2 0.83z"/>
</svg>