<svg xmlns="http://www.w3.org/2000/svg" version="1.1" width="24" height="24" viewBox="0 0 24 24">
<path d="M12 0c-6.627 0-12 5.373-12 12s5.373 12 12 12 12-5.373 12-12-5.373-12-12-12zM12 23c-6.075 0-11-4.926-11-11s4.926-11 11-11 11 4.925 11 11-4.925 11-11 11zM22.219 12c0 4.805-3.317 8.833-7.786 9.925-0.27-0.521-0.53-1.017-0.749-1.438 0.645 0.249 1.93 0.718 2.208 0.615 0.376-0.144 0.282-3.149-0.14-3.245-0.338-0.075-1.632 0.837-2.141 1.209l0.034 0.156c0.078 0.397 0.144 0.993 0.030 1.247-0.001 0.004-0.002 0.010-0.004 0.013-0.015 0.036-0.038 0.065-0.067 0.088l-0 0c-0.284 0.188-1.081 0.284-1.503 0.188-0.025-0.006-0.047-0.013-0.067-0.021l0.003 0.001c-0.694 0.396-2.010 1.109-2.25 0.971-0.329-0.188-0.377-2.676-0.329-3.288 0.035-0.46 1.653 0.286 2.442 0.679 0.174-0.163 0.602-0.272 0.98-0.31-0.57-1.389-0.99-2.977-0.733-4.105 0 0.002 0.002 0.002 0.002 0.002 0.356 0.248 2.73 1.050 3.91 1.027 1.18-0.024 3.114-0.743 2.903-1.323s-2.135 0.51-4.142 0.324c-1.486-0.138-1.748-0.804-1.42-1.29 0.414-0.611 1.168 0.116 2.411-0.256 1.245-0.371 2.987-1.035 3.632-1.397 1.494-0.833-0.625-1.177-1.125-0.947-0.474 0.22-2.123 0.637-2.889 0.82 0.428-1.516-0.603-4.149-1.757-5.3-0.376-0.376-0.951-0.612-1.603-0.736-0.25-0.344-0.654-0.671-1.225-0.977-0.776-0.414-1.698-0.658-2.676-0.658-0.325 0-0.643 0.027-0.953 0.078l0.034-0.005-0.024 0.004-0.034 0.004 0.004 0.002c-0.148 0.028-0.237 0.080-0.357 0.098 0.148 0.016 0.705 0.276 1.057 0.418-0.174 0.068-0.412 0.108-0.596 0.184-0.076 0.011-0.145 0.031-0.209 0.058l0.005-0.002c-0.173 0.080-0.303 0.375-0.3 0.515 0.84-0.086 2.082-0.026 2.991 0.246-0.644 0.090-1.235 0.258-1.661 0.482-0.016 0.008-0.030 0.018-0.048 0.028-0.054 0.020-0.106 0.042-0.152 0.066-1.367 0.72-1.971 2.405-1.611 4.424 0.323 1.824 1.665 8.088 2.29 11.064-3.973-1.4-6.822-5.186-6.822-9.639 0-5.644 4.575-10.219 10.219-10.219s10.219 4.575 10.219 10.219zM9.095 9.581c-0.419 0-0.758 0.339-0.758 0.758s0.339 0.758 0.758 0.758v0c0.419 0 0.758-0.339 0.758-0.758s-0.339-0.758-0.758-0.758v0zM9.433 10.283c-0.108 0-0.196-0.088-0.196-0.196s0.088-0.196 0.196-0.196v0c0.108 0 0.196 0.088 0.196 0.196s-0.088 0.196-0.196 0.196v0zM14.157 9.24c-0.008-0-0.017-0-0.025-0-0.359 0-0.65 0.291-0.65 0.65s0.291 0.65 0.65 0.65c0.009 0 0.018-0 0.027-0.001l-0.001 0c0.348-0.014 0.625-0.299 0.625-0.649s-0.277-0.635-0.623-0.649l-0.001-0zM14.447 9.841c-0.093 0-0.168-0.075-0.168-0.168s0.075-0.168 0.168-0.168v0c0.093 0 0.168 0.075 0.168 0.168s-0.075 0.168-0.168 0.168v0zM9.313 8.146c0 0-0.571-0.26-1.125 0.090-0.554 0.348-0.534 0.704-0.534 0.704s-0.294-0.656 0.49-0.978c0.786-0.32 1.17 0.184 1.169 0.184zM14.549 8.094c0 0-0.41-0.234-0.73-0.23-0.654 0.008-0.831 0.296-0.831 0.296s0.11-0.688 0.945-0.55c0.277 0.052 0.502 0.234 0.614 0.479l0.002 0.005z"/>
</svg>