<svg xmlns="http://www.w3.org/2000/svg" version="1.1" width="24" height="24" viewBox="0 0 24 24">
<path d="M10.098 20.323c-3.977 0.391-7.414-1.406-7.672-4.020-0.259-2.609 2.759-5.047 6.74-5.441 3.979-0.394 7.413 1.404 7.671 4.018 0.259 2.6-2.759 5.049-6.737 5.439zM9.050 17.219c-0.384 0.616-1.208 0.884-1.829 0.602-0.612-0.279-0.793-0.991-0.406-1.593 0.379-0.595 1.176-0.861 1.793-0.601 0.622 0.263 0.82 0.972 0.442 1.592zM10.32 15.592c-0.141 0.237-0.449 0.353-0.689 0.253-0.236-0.090-0.313-0.361-0.177-0.586 0.138-0.227 0.436-0.346 0.672-0.24 0.239 0.090 0.315 0.36 0.18 0.601zM10.496 12.873c-1.893-0.493-4.033 0.45-4.857 2.118-0.836 1.704-0.026 3.591 1.886 4.21 1.983 0.64 4.318-0.341 5.132-2.179 0.8-1.793-0.201-3.642-2.161-4.149zM18.059 11.649c-0.346-0.105-0.57-0.18-0.405-0.615 0.375-0.977 0.42-1.804 0-2.404-0.781-1.112-2.915-1.053-5.364-0.030 0 0-0.766 0.331-0.571-0.271 0.376-1.217 0.315-2.224-0.27-2.809-1.338-1.337-4.869 0.045-7.888 3.080-2.252 2.27-3.561 4.673-3.561 6.748 0 3.981 5.099 6.395 10.086 6.395 6.536 0 10.888-3.801 10.888-6.82 0-1.822-1.547-2.854-2.915-3.284zM19.967 6.557c-0.766-0.856-1.908-1.187-2.96-0.962-0.436 0.090-0.706 0.511-0.616 0.932s0.511 0.691 0.932 0.602c0.511-0.105 1.067 0.044 1.442 0.465 0.376 0.421 0.466 0.977 0.316 1.473-0.136 0.406 0.089 0.856 0.51 0.992 0.405 0.119 0.857-0.105 0.992-0.512 0.33-1.021 0.12-2.178-0.646-3.035zM22.385 4.362c-1.576-1.757-3.905-2.419-6.054-1.968-0.496 0.104-0.812 0.587-0.706 1.081 0.104 0.496 0.586 0.813 1.082 0.707 1.532-0.331 3.185 0.15 4.296 1.383 1.112 1.246 1.429 2.943 0.947 4.416-0.165 0.48 0.106 1.007 0.586 1.157 0.479 0.165 0.991-0.104 1.157-0.586 0.675-2.088 0.241-4.478-1.338-6.235z"/>
</svg>