<svg xmlns="http://www.w3.org/2000/svg" version="1.1" width="24" height="24" viewBox="0 0 24 24">
<path d="M16.821 5.133l-0.26 1.992 2.435 0.717 0.031 2.152 2.231 0.041-0.056 2.255 2.171-0.141c0.003-0.759 0.050-5.045 0.626-7.016zM11.356 18.24c0.056-0.213 0-0.906 0-1.146l-0.049-1.463c-2.021-0.085-4.2 0.322-4.2 2.187 0 0.403 0.169 0.768 0.426 1.049h3.312c0.248-0.142 0.434-0.335 0.511-0.627zM20.389 13.066l0.052-2.247-2.202-0.040-0.035-2.425-2.527-0.861 0.338-2.36h-9.43c-3.818 0-6.585 3.252-6.585 6.817v6.916h4.116c-0.017-0.162-0.027-0.35-0.027-0.541 0-0.075 0.002-0.15 0.005-0.224l-0 0.011c0.148-3.665 4.199-4.294 7.241-4.204v-1.056c-0.050-0.852-0.74-1.605-2.74-1.605-1.333 0-2.915 0.171-3.939 0.541l0.272-2.384c0.978-0.277 2.080-0.545 4.453-0.545 4.572 0 5.077 2.029 5.040 4.383l-0.021 5.624h2.575c3.303 0 6.021-2.692 6.362-5.915z"/>
</svg>