<svg xmlns="http://www.w3.org/2000/svg" version="1.1" width="24" height="24" viewBox="0 0 24 24">
<path d="M15.406 0.133c-0.756-0.063-1.476 0.090-2.18 0.467-0.94 0.503-1.61 1.275-1.912 2.28v0.067l-0.035 0.235-0.134-0.235-0.335-0.603c-0.536-0.837-1.206-1.34-2.044-1.574-0.736-0.166-1.34-0.097-1.976 0.24-0.705 0.436-1.106 1.106-1.274 2.045-0.168 0.972 0 1.91 0.502 2.847l0.236 0.336-0.807-0.267c-1.005-0.236-1.944-0.104-2.883 0.4-0.972 0.499-1.574 1.205-1.976 2.179-0.37 0.938-0.336 1.843 0.133 2.68 0.202 0.37 0.504 0.67 0.772 0.872 0.402 0.402 0.905 0.636 1.508 0.736l0.234 0.066-0.502 0.438c-0.47 0.402-0.738 0.903-0.906 1.406-0.168 0.603-0.1 1.207 0.236 1.777 0.17 0.268 0.334 0.503 0.602 0.67 0.268 0.235 0.604 0.403 1.006 0.436 0.738 0.17 1.508 0.168 2.346-0.1l-0.604 1.005-0.168 0.436c-0.335 1.074-0.233 2.010 0.27 2.983 0.235 0.37 0.5 0.705 0.77 1.006 0.4 0.368 0.906 0.602 1.51 0.77 1.004 0.268 2.010 0.236 2.98-0.267 0.94-0.503 1.543-1.31 1.845-2.315l0.032-0.2c0.637 0.703 1.24 1.173 1.912 1.34 0.67 0.202 1.34 0.17 1.944-0.233 0.57-0.335 0.973-0.906 1.174-1.61 0.168-0.738 0.168-1.474 0-2.312 0.335 0.235 0.67 0.4 1.072 0.502 1.073 0.335 2.010 0.3 2.95-0.2 0.904-0.504 1.508-1.308 1.81-2.347 0.268-1.005 0.202-1.977-0.3-2.916l-0.17-0.27c-0.267-0.402-0.537-0.804-0.94-1.072-0.334-0.235-0.735-0.402-1.104-0.57 1.040-0.503 1.776-1.207 2.11-2.112 0.236-0.738 0.17-1.342-0.167-1.945v-0.066c-0.402-0.67-0.937-1.105-1.775-1.34-0.503-0.1-1.072-0.102-1.574-0.068l-1.108 0.235 0.37-0.838c0.334-1.073 0.235-2.112-0.335-3.084l-0.1-0.17c-0.503-0.838-1.24-1.34-2.246-1.607-0.26-0.067-0.516-0.113-0.769-0.133zM14.836 1.547c0.323-0.030 0.65 0.012 0.967 0.13 0.704 0.166 1.207 0.534 1.51 1.104v0.003c0.168 0.335 0.267 0.736 0.267 1.172l-0.1 0.738c-0.134 0.37-0.302 0.703-0.503 1.004l-3.016 3.69c-0.3-0.235-0.637-0.403-0.972-0.57l-0.336-3.79-0.033-1.34 0.032-0.335c0.168-0.67 0.638-1.173 1.24-1.508 0.302-0.168 0.62-0.268 0.944-0.298zM7.953 2.084c0.134-0.004 0.276 0.030 0.41 0.096 0.603 0.168 1.106 0.603 1.508 1.44 0.17 0.336 0.336 0.67 0.403 1.073l0.67 3.957-0.504 0.168-2.983-3.252-0.168-0.334c-0.27-0.604-0.435-1.173-0.368-1.777v-0.002c0.034-0.603 0.268-1.003 0.67-1.238 0.1-0.084 0.227-0.127 0.362-0.131zM20.083 7.117c0.15 0 0.297 0.007 0.448 0.024 0.57 0.068 0.972 0.337 1.173 0.74l0.135 0.433-0.067 0.335c-0.234 0.603-0.738 1.074-1.575 1.442-0.335 0.168-0.703 0.235-1.105 0.3l-4.123 0.503-0.067-0.235-0.068-0.1 0.135-0.167 3.387-2.816 0.4-0.166 0.002-0.002c0.45-0.2 0.885-0.286 1.325-0.291zM4.622 7.3c0.16 0.008 0.324 0.033 0.49 0.075v0.002l0.908 0.367 2.95 2.147c-0.27 0.336-0.435 0.67-0.536 1.005l-4.828 0.603-0.334-0.066c-0.603-0.1-1.007-0.37-1.276-0.87-0.27-0.503-0.267-1.006-0.066-1.51 0.235-0.636 0.67-1.14 1.306-1.407 0.453-0.252 0.906-0.373 1.386-0.346zM11.782 9.99c0.604 0 1.175 0.236 1.544 0.604 0.47 0.47 0.67 0.973 0.67 1.576s-0.2 1.172-0.67 1.574c-0.436 0.436-0.94 0.67-1.543 0.67-0.636 0-1.17-0.235-1.573-0.67-0.436-0.402-0.67-0.97-0.67-1.574s0.234-1.107 0.67-1.576c0.402-0.37 0.937-0.604 1.572-0.604zM20.197 12.57l0.336 0.035c0.504 0.168 0.973 0.468 1.24 0.97 0.336 0.37 0.503 0.873 0.503 1.443l-0.1 0.67c-0.167 0.67-0.57 1.173-1.14 1.44-0.603 0.336-1.207 0.403-1.877 0.17-0.402-0.1-0.67-0.268-0.904-0.536l-3.52-2.918 0.235-0.502 0.1-0.403 3.788-0.335zM13.561 15.018l1.407 1.44 0.87 1.073 0.17 0.337c0.3 0.57 0.468 1.105 0.4 1.742-0.066 0.602-0.267 1.038-0.67 1.206-0.234 0.168-0.502 0.17-0.77 0.135-0.637-0.166-1.14-0.668-1.508-1.473l-0.403-1.108-0.502-2.917 0.568-0.2zM9.941 15.086c0.334 0.167 0.67 0.334 1.040 0.367 0.066 1.14 0.165 2.347 0.332 3.654v1.342l-0.033 0.333c-0.236 0.603-0.638 1.107-1.24 1.375-0.604 0.335-1.24 0.402-1.845 0.235-0.67-0.167-1.173-0.57-1.44-1.106-0.17-0.335-0.304-0.74-0.304-1.14l0.17-0.77c0.066-0.335 0.235-0.67 0.503-0.94z"/>
</svg>