<svg xmlns="http://www.w3.org/2000/svg" version="1.1" width="24" height="24" viewBox="0 0 24 24">
<path d="M23.784 18.24c0.287 0.142 0.287 0.267 0 0.374l-11.357 5.223c-0.287 0.145-0.57 0.145-0.854 0l-11.36-5.223c-0.284-0.107-0.284-0.232 0-0.375l2.722-1.23c0.284-0.14 0.57-0.14 0.852 0l7.787 3.573c0.285 0.14 0.57 0.14 0.854 0l7.787-3.574c0.283-0.14 0.568-0.14 0.852 0zM23.784 11.786c0.287 0.143 0.287 0.285 0 0.426l-11.357 5.228c-0.287 0.104-0.57 0.104-0.854 0l-11.36-5.23c-0.284-0.143-0.284-0.284 0-0.426l2.722-1.227c0.284-0.144 0.57-0.144 0.852 0l7.787 3.57c0.285 0.144 0.57 0.144 0.854 0l7.787-3.57c0.283-0.144 0.568-0.144 0.852 0zM0.214 5.76c-0.285-0.143-0.285-0.267 0-0.375l11.36-5.225c0.283-0.14 0.57-0.14 0.852 0l11.358 5.23c0.287 0.107 0.287 0.232 0 0.375l-11.357 5.223c-0.287 0.143-0.57 0.143-0.854 0z"/>
</svg>