<svg xmlns="http://www.w3.org/2000/svg" version="1.1" width="24" height="24" viewBox="0 0 24 24">
<path d="M12.069 18.874c-4.023 0-5.82-1.979-5.82-3.464 0-0.765 0.561-1.296 1.333-1.296 1.723 0 1.273 2.477 4.487 2.477 1.641 0 2.55-0.895 2.55-1.811 0-0.551-0.269-1.16-1.354-1.429l-3.576-0.895c-2.88-0.724-3.403-2.286-3.403-3.751 0-3.047 2.861-4.191 5.549-4.191 2.471 0 5.393 1.373 5.393 3.199 0 0.784-0.688 1.24-1.453 1.24-1.469 0-1.198-2.037-4.164-2.037-1.469 0-2.292 0.664-2.292 1.617s1.153 1.258 2.157 1.487l2.637 0.587c2.891 0.649 3.624 2.346 3.624 3.944 0 2.476-1.902 4.324-5.722 4.324zM23.099 13.993l-0.029 0.135-0.044-0.24c0.015 0.045 0.044 0.074 0.059 0.12 0.12-0.675 0.181-1.363 0.181-2.052 0-1.529-0.301-3.012-0.898-4.42-0.569-1.348-1.395-2.562-2.427-3.596-1.049-1.033-2.247-1.856-3.595-2.426-1.318-0.631-2.801-0.93-4.328-0.93-0.72 0-1.444 0.070-2.143 0.204l0.119 0.060-0.239-0.033 0.119-0.025c-0.964-0.516-2.045-0.79-3.143-0.79-1.789 0-3.47 0.698-4.736 1.967-1.266 1.268-1.963 2.956-1.963 4.749 0 1.143 0.292 2.265 0.844 3.258l0.020-0.124 0.041 0.239-0.060-0.115c-0.114 0.645-0.172 1.299-0.172 1.955 0 1.53 0.3 3.017 0.884 4.416 0.568 1.362 1.378 2.576 2.427 3.609 1.034 1.050 2.247 1.857 3.595 2.442 1.394 0.6 2.877 0.898 4.404 0.898 0.659 0 1.334-0.060 1.977-0.179l-0.119-0.062 0.24 0.046-0.135 0.030c1.002 0.569 2.126 0.871 3.294 0.871 1.783 0 3.459-0.69 4.733-1.963 1.259-1.259 1.962-2.951 1.962-4.749 0-1.138-0.299-2.262-0.853-3.266z"/>
</svg>