<svg xmlns="http://www.w3.org/2000/svg" version="1.1" width="24" height="24" viewBox="0 0 24 24">
<path d="M12.135 24c1.875 0 9.314-8.439 9.314-14.096 0-5.414-4.229-9.904-9.314-9.904-5.355 0-9.584 4.488-9.584 9.904 0 5.656 7.439 14.096 9.584 14.096zM10.639 3.846c0.485-0.12 0.995-0.185 1.524-0.185 3 0 5.581 2.551 5.581 5.865 0 2.985-2.581 5.535-5.596 5.535-3.345 0-5.925-2.55-5.925-5.535 0-1.396 0.45-2.64 1.229-3.63v0.030c0 1.245 1.006 2.234 2.25 2.234 1.246 0.001 2.298-1.020 2.298-2.264 0-0.919-0.56-1.708-1.359-2.053z"/>
</svg>