<svg xmlns="http://www.w3.org/2000/svg" version="1.1" width="24" height="24" viewBox="0 0 24 24">
<path d="M11.586 1.655c-3.656 0.001-6.62 2.965-6.621 6.621v0.772c1.429 0.726 2.568 1.851 3.29 3.228l0.020 0.041v-4.041c0-0.002 0-0.005 0-0.008 0-1.824 1.478-3.302 3.302-3.302 0.003 0 0.006 0 0.008 0h-0c0.91 0 1.655-0.745 1.655-1.655s-0.745-1.655-1.654-1.656zM1.655 9.103c-0.91 0-1.655 0.745-1.655 1.655s0.745 1.655 1.655 1.655c0.002 0 0.005 0 0.008 0 1.824 0 3.302 1.478 3.302 3.302 0 0.003 0 0.006 0 0.008v-0 4.966c0 0.91 0.745 1.655 1.655 1.655s1.655-0.745 1.655-1.655v-4.966c-0.002-3.655-2.965-6.618-6.62-6.62h-0zM17.379 9.103c-3.655 0-6.621 2.966-6.621 6.621s2.966 6.621 6.621 6.621c0.002 0 0.005 0 0.008 0 1.278 0 2.472-0.364 3.482-0.995l-0.028 0.016c0.262 0.579 0.841 0.979 1.503 0.979 0.913-0.003 1.652-0.742 1.655-1.655v-9.931c-0.003-0.913-0.742-1.652-1.655-1.655h-0c-0.676 0-1.241 0.4-1.503 0.979-0.982-0.615-2.175-0.98-3.453-0.98-0.003 0-0.006 0-0.009 0h0zM17.379 12.414c1.834 0 3.31 1.476 3.31 3.31s-1.476 3.31-3.31 3.31c-1.835 0-3.31-1.476-3.31-3.31s1.476-3.31 3.31-3.31z"/>
</svg>