<svg xmlns="http://www.w3.org/2000/svg" version="1.1" width="24" height="24" viewBox="0 0 24 24">
<path d="M0.996 0c-0.55 0.001-0.995 0.446-0.996 0.996v11.004c0 6.628 5.372 12 12 12s12-5.372 12-12-5.372-12-12-12zM12.166 3.582c4.568 0.044 8.254 3.758 8.254 8.333 0 0.027-0 0.054-0 0.082l0-0.004c-0.046 4.567-3.759 8.252-8.333 8.252-0.027 0-0.054-0-0.082-0l0.004 0c-4.597-0.045-8.296-3.81-8.254-8.41 0.045-4.6 3.81-8.296 8.41-8.252zM12.135 5.852c-0.014-0-0.031-0-0.048-0-3.351 0-6.072 2.7-6.107 6.043l-0 0.003c-0 0.016-0 0.035-0 0.054 0 3.353 2.702 6.075 6.047 6.109l0.003 0c0.016 0 0.036 0 0.055 0 3.35 0 6.069-2.701 6.099-6.044l0-0.003c0-0.016 0-0.036 0-0.055 0-3.35-2.697-6.069-6.038-6.107l-0.004-0zM12.115 8.865c1.696 0.020 3.063 1.399 3.063 3.098 0 0.009-0 0.018-0 0.027v-0.001c-0.016 1.693-1.392 3.060-3.088 3.060-0.012 0-0.023-0-0.035-0l0.002 0 0.002-0.001c-1.695-0.016-3.063-1.394-3.063-3.091 0-1.707 1.384-3.091 3.091-3.091 0.010 0 0.020 0 0.030 0h-0.001z"/>
</svg>