<svg xmlns="http://www.w3.org/2000/svg" version="1.1" width="24" height="24" viewBox="0 0 24 24">
<path d="M22.154 22.154h-10.154c-0.012 0-0.026 0-0.041 0-2.902 0-5.518-1.229-7.354-3.195l-0.005-0.006c-1.94-2.063-2.91-4.763-2.732-7.603 0.315-5.091 4.39-9.168 9.482-9.484 0.22-0.014 0.44-0.020 0.657-0.020 0.009-0 0.020-0 0.030-0 2.681 0 5.116 1.049 6.919 2.758l-0.005-0.004c1.973 1.841 3.202 4.457 3.202 7.36 0 0.014-0 0.028-0 0.042v-0.002zM20.216 3.254c-2.438-2.291-5.626-3.44-8.98-3.23-6.018 0.375-10.838 5.195-11.212 11.213-0.207 3.353 0.94 6.543 3.231 8.98 2.197 2.327 5.301 3.777 8.744 3.783h11.078c0.51 0 0.923-0.413 0.923-0.922v-11.078c-0.007-3.444-1.457-6.548-3.778-8.74l-0.006-0.005zM16.154 15.231h-8.308c-0.51 0-0.923 0.413-0.923 0.923s0.413 0.923 0.923 0.923h8.308c0.51 0 0.923-0.413 0.923-0.923s-0.413-0.923-0.923-0.923v0zM7.846 8.77h8.308c0.51 0 0.924-0.413 0.924-0.924s-0.413-0.924-0.924-0.924v0h-8.308c-0.51 0-0.924 0.413-0.924 0.924s0.413 0.924 0.924 0.924v0zM5.077 11.078c-0.497 0.017-0.893 0.423-0.893 0.922s0.396 0.906 0.891 0.922l0.002 0h13.846c0.51 0 0.923-0.413 0.923-0.923s-0.413-0.923-0.923-0.923v0z"/>
</svg>