<svg xmlns="http://www.w3.org/2000/svg" version="1.1" width="24" height="24" viewBox="0 0 24 24">
<path d="M12.271 0.006c-0.092-0.004-0.201-0.006-0.31-0.006-0.73 0-1.438 0.091-2.114 0.262l0.059-0.013c-1.967 0.471-3.629 1.558-4.817 3.042l-0.013 0.017c-1.020 1.244-1.692 2.809-1.848 4.523l-0.002 0.033c-0.021 0.191-0.033 0.413-0.033 0.638 0 0.544 0.070 1.071 0.201 1.574l-0.010-0.043c0.293 1.057 0.652 1.969 1.092 2.833l-0.039-0.085c0.841 1.696 1.671 3.116 2.586 4.474l-0.088-0.138c1.738 2.63 3.402 4.873 5.172 7.026l-0.114-0.143 0.067-0.074c0.456-0.574 0.923-1.14 1.363-1.725 0.789-1.048 1.562-2.11 2.34-3.168 0.136-0.169 0.219-0.387 0.219-0.624 0-0.046-0.003-0.092-0.009-0.137l0.001 0.005c-0.072-0.472-0.475-0.83-0.962-0.83-0.083 0-0.163 0.010-0.239 0.030l0.007-0.001c-0.307 0.077-0.5 0.286-0.675 0.527-0.547 0.753-1.095 1.505-1.647 2.256-0.147 0.2-0.301 0.393-0.488 0.553-1.455-1.843-2.899-3.917-4.22-6.075l-0.16-0.281c-0.763-1.28-1.47-2.589-2.007-3.98-0.115-0.271-0.229-0.606-0.321-0.95l-0.013-0.056c-0.105-0.44-0.096-0.892-0.068-1.344 0.021-0.595 0.139-1.157 0.34-1.678l-0.012 0.035c0.244-0.604 0.507-1.195 0.9-1.712 0.688-0.923 1.578-1.658 2.608-2.147l0.042-0.018c0.788-0.36 1.596-0.62 2.47-0.62 0.082-0.001 0.18-0.002 0.277-0.002 0.377 0 0.751 0.012 1.123 0.035l-0.051-0.003c0.345 0.023 0.667 0.083 0.974 0.175l-0.031-0.008c1.486 0.448 2.742 1.256 3.696 2.494 0.37 0.492 0.682 1.056 0.91 1.662l0.015 0.047c0.097 0.24 0.192 0.535 0.266 0.838l0.010 0.047c0.041 0.195 0.072 0.427 0.085 0.664l0.001 0.013c0.044 0.494 0.063 0.99-0.047 1.477-0.079 0.324-0.18 0.641-0.305 0.951-0.133 0.359-0.281 0.71-0.437 1.059v-1.641c0-0.011 0.001-0.023 0.001-0.036 0-0.199-0.070-0.382-0.186-0.525l0.001 0.002c-0.118-0.13-0.247-0.246-0.387-0.349l-0.007-0.005c-1.62-1.23-3.238-2.46-4.858-3.688-0.159-0.121-0.361-0.194-0.58-0.194-0.222 0-0.427 0.075-0.59 0.202l0.002-0.002c-0.212 0.161-0.422 0.325-0.633 0.487l-1.273 0.972v-0.916c-0.001-0.088-0.013-0.175-0.035-0.261-0.007-0.537-0.444-0.97-0.982-0.97-0.542 0-0.982 0.44-0.982 0.982 0 0.088 0.012 0.174 0.033 0.255l-0.002-0.007v2.321c0 0.004 0 0.008 0 0.012 0 0.058-0.029 0.109-0.074 0.14l-0.001 0c-0.194 0.14-0.379 0.284-0.563 0.428l-0.025 0.020c-0.223 0.181-0.364 0.455-0.364 0.762 0 0.233 0.081 0.447 0.217 0.616l-0.001-0.002c0.339 0.422 0.956 0.49 1.378 0.152l3.831-2.925c0.018-0.017 0.042-0.027 0.069-0.027 0.030 0 0.056 0.013 0.075 0.033l0 0 2.268 1.734c0.52 0.397 1.039 0.8 1.564 1.19 0.082 0.053 0.136 0.144 0.136 0.248 0 0.010-0 0.019-0.001 0.029l0-0.001v4.83c0 0.020 0.003 0.039 0.004 0.058 0.001 0.044 0.004 0.087 0.011 0.128l-0.001-0.005c0 0 0 0.001 0 0.001s0 0.001 0 0.001v-0c0 0.007 0 0.013 0.002 0.020 0.005 0.030 0.010 0.055 0.016 0.079l-0.001-0.007c0.009 0.039 0.019 0.070 0.030 0.101l-0.002-0.007c0.013 0.037 0.026 0.067 0.040 0.096l-0.003-0.006c0.159 0.339 0.498 0.569 0.89 0.569 0.41 0 0.76-0.251 0.907-0.607l0.002-0.007 0.030-0.043c0.314-0.54 0.635-1.076 0.937-1.627 0.597-1.084 1.132-2.196 1.518-3.375 0.201-0.547 0.335-1.179 0.374-1.836l0.001-0.019c0.002-0.074 0.004-0.16 0.004-0.247 0-0.825-0.125-1.621-0.357-2.37l0.015 0.057c-0.524-1.769-1.556-3.252-2.924-4.324l-0.019-0.014c-1.536-1.213-3.295-1.837-5.251-1.907zM11.178 10.21c-0.553 0.014-0.996 0.466-0.996 1.022 0 0.009 0 0.018 0 0.027l-0-0.001v1.615c0.012 0.556 0.466 1.002 1.024 1.002 0.005 0 0.011-0 0.016-0h1.609c0.563-0.001 1.019-0.457 1.019-1.020 0-0.001 0-0.002 0-0.003v0-1.618c-0.002-0.562-0.456-1.018-1.018-1.021h-0.81v-0.002zM11.25 11.167h1.54c0.074 0 0.1 0.030 0.1 0.103v0.778l0.003 0.006c0 0.248-0.009 0.497 0 0.74 0 0.084-0.026 0.115-0.112 0.115h-1.529c-0.080 0-0.107-0.027-0.107-0.107v-1.526c0-0.077 0.023-0.109 0.105-0.109z"/>
</svg>