<svg xmlns="http://www.w3.org/2000/svg" version="1.1" width="24" height="24" viewBox="0 0 24 24">
<path d="M11.99 17.26h0.010l5.93-5.92v11.040c0 0.003 0 0.006 0 0.009 0.014 0.248 0.226 0.438 0.474 0.425 0.112-0.006 0.211-0.052 0.286-0.124l-0.001 0.001 4.98-4.97c0.203-0.206 0.325-0.49 0.32-0.798l-0-0.002v-11.63l0.010-0.010-3.98-3.97c-0.086-0.088-0.207-0.139-0.339-0.132-0.115 0.006-0.217 0.056-0.291 0.132l0-0-7.39 7.38-7.41-7.4c-0.086-0.088-0.207-0.139-0.339-0.132-0.115 0.006-0.217 0.056-0.291 0.132l0-0-3.96 3.99v11.66c-0 0.021 0 0.046 0.002 0.071 0.015 0.282 0.135 0.534 0.319 0.72l-0.001-0.001 4.97 4.98c0.087 0.082 0.206 0.13 0.335 0.123 0.237-0.013 0.422-0.208 0.425-0.442v-0.001l0.010-11.060z"/>
</svg>