<svg xmlns="http://www.w3.org/2000/svg" version="1.1" width="24" height="24" viewBox="0 0 24 24">
<path d="M11.152 0l-0.27 1.48c-0.644 0.068-1.271 0.194-1.876 0.373l-0.814-1.264-1.568 0.65 0.318 1.469c-0.563 0.307-1.094 0.664-1.59 1.064l-1.237-0.857-1.2 1.2 0.857 1.238c-0.4 0.495-0.757 1.026-1.064 1.589l-1.47-0.318-0.65 1.567 1.265 0.815c-0.166 0.538-0.297 1.175-0.368 1.829l-0.004 0.047-1.481 0.27v1.696l1.48 0.27c0.069 0.644 0.194 1.271 0.373 1.876l-1.264 0.814 0.65 1.568 1.469-0.318c0.307 0.563 0.664 1.094 1.064 1.59l-0.857 1.237 1.2 1.2 1.238-0.857c0.495 0.4 1.026 0.757 1.589 1.064l-0.318 1.47 1.568 0.65 0.814-1.264c0.605 0.178 1.232 0.303 1.877 0.371l0.269 1.481h1.696l0.27-1.48c0.701-0.075 1.338-0.206 1.951-0.391l-0.075 0.019 0.814 1.263 1.568-0.65-0.318-1.469c0.605-0.332 1.125-0.685 1.609-1.079l-0.019 0.015 1.237 0.857 1.2-1.2-0.857-1.238c0.4-0.495 0.757-1.026 1.064-1.589l1.47 0.318 0.65-1.568-1.264-0.814c0.178-0.605 0.304-1.232 0.371-1.877l1.481-0.269v-1.696l-1.48-0.27c-0.075-0.701-0.207-1.338-0.392-1.951l0.019 0.075 1.264-0.815-0.65-1.567-1.469 0.318c-0.332-0.605-0.685-1.125-1.079-1.609l0.015 0.019 0.857-1.237-1.2-1.2-1.238 0.857c-0.495-0.4-1.026-0.757-1.589-1.064l0.318-1.47-1.568-0.65-0.814 1.264c-0.539-0.166-1.176-0.296-1.83-0.367l-0.047-0.004-0.269-1.481zM12 2.805c5.079 0 9.196 4.117 9.196 9.196s-4.117 9.196-9.196 9.196v0c-5.079 0-9.196-4.117-9.196-9.196s4.117-9.196 9.196-9.196v0zM12 3.773c-4.544 0-8.227 3.683-8.227 8.227s3.683 8.227 8.227 8.227v0c4.544 0 8.227-3.683 8.227-8.227s-3.683-8.227-8.227-8.227v0zM11.525 5.755c0 0 0 0 0 0 0.355 0 0.643 0.288 0.644 0.643v0c-0 0.154-0.055 0.295-0.145 0.406l0.001-0.001 1.364 1.376c0.138-0.116 0.318-0.187 0.514-0.187h0c0.082 0 0.161 0.013 0.236 0.036l-0.006-0.002 0.383-0.968c-0.205-0.11-0.343-0.324-0.343-0.569v-0c0.001-0.355 0.289-0.643 0.644-0.643 0 0 0 0 0 0v0c0 0 0 0 0 0 0.355 0 0.643 0.288 0.644 0.643v0c0 0.356-0.288 0.644-0.644 0.644v0c-0.061-0-0.119-0.009-0.175-0.025l0.005 0.001-0.384 0.97c0.265 0.135 0.444 0.405 0.445 0.718v0c0 0.445-0.36 0.805-0.805 0.805v0c-0.223-0-0.424-0.091-0.57-0.238l-0-0-1.214 1.013c0.206 0.267 0.33 0.607 0.331 0.975v0c-0 0.451-0.186 0.859-0.486 1.152l-0 0 0.875 0.98c0.19-0.151 0.434-0.243 0.699-0.243v0c0.622 0.001 1.125 0.504 1.126 1.126v0c-0.001 0.094-0.013 0.185-0.035 0.272l0.002-0.008 1.556 0.523c0.131-0.277 0.408-0.465 0.729-0.465h0c0.444 0.001 0.804 0.361 0.804 0.805 0 0 0 0 0 0v0c-0.001 0.444-0.36 0.803-0.804 0.804h-0c-0.444 0-0.804-0.36-0.805-0.804v-0c0-0.074 0.010-0.146 0.029-0.214l-0.001 0.006-1.55-0.52c-0.165 0.428-0.573 0.727-1.051 0.728h-0c-0.192-0-0.374-0.049-0.532-0.134l0.006 0.003-0.696 1.288c0.219 0.146 0.361 0.391 0.362 0.67v0c0 0 0 0.001 0 0.001 0 0.444-0.36 0.804-0.804 0.805h-0c-0.445 0-0.805-0.36-0.805-0.805v0c0-0.445 0.36-0.805 0.805-0.805v0c0.115 0 0.225 0.024 0.324 0.068l-0.005-0.002 0.7-1.294c-0.292-0.206-0.481-0.542-0.482-0.922v-0c0-0.307 0.123-0.586 0.323-0.789l-0 0-0.876-0.981c-0.275 0.226-0.63 0.363-1.017 0.364h-0c-0.329-0-0.634-0.099-0.889-0.269l0.006 0.004-0.78 1.082c0.252 0.208 0.412 0.52 0.413 0.87v0c0 0.622-0.505 1.127-1.127 1.127v0c-0.622 0-1.127-0.505-1.127-1.127v0c0.001-0.622 0.505-1.126 1.127-1.126 0 0 0 0 0 0v0c0.223 0 0.43 0.065 0.605 0.177l-0.005-0.003 0.78-1.083c-0.374-0.297-0.612-0.751-0.613-1.261v-0c0.001-0.131 0.017-0.258 0.047-0.379l-0.002 0.011-1.68-0.473c-0.118 0.306-0.409 0.519-0.75 0.52h-0c-0.444 0-0.804-0.36-0.805-0.804v-0c0-0.444 0.36-0.804 0.804-0.805h0c0.445 0 0.805 0.36 0.805 0.805v0c0 0 0 0 0 0.001 0 0.053-0.005 0.105-0.015 0.155l0.001-0.005 1.677 0.471c0.218-0.647 0.819-1.106 1.528-1.106h0c0.47 0.001 0.893 0.204 1.187 0.526l0.001 0.001 1.214-1.013c-0.090-0.128-0.145-0.287-0.145-0.459v-0c0-0 0-0 0-0.001 0-0.199 0.072-0.38 0.191-0.521l-0.001 0.001-1.362-1.375c-0.109 0.087-0.249 0.14-0.401 0.14-0 0-0 0-0 0v0c-0.356 0-0.644-0.288-0.644-0.644v0c0.001-0.355 0.289-0.643 0.644-0.643 0 0 0 0 0 0v0z"/>
</svg>