<svg xmlns="http://www.w3.org/2000/svg" version="1.1" width="24" height="24" viewBox="0 0 24 24">
<path d="M7.247 22.499c1.488 0.661 3.058 1.075 4.794 1.075s3.39-0.414 4.795-1.075c-1.57-1.075-3.224-2.397-4.795-3.803-1.57 1.406-3.224 2.728-4.794 3.803zM21.962 17.869c0.987-1.684 1.57-3.708 1.57-5.868 0-0 0-0.001 0-0.001v0c0-1.736-0.413-3.39-1.074-4.795-1.736 2.563-4.216 5.456-7.027 8.267-0.579 0.579-1.24 1.24-1.902 1.819-0.248-0.248-0.496-0.496-0.826-0.744 0.681-0.599 1.302-1.221 1.881-1.879l0.020-0.023c3.059-3.058 5.622-6.117 7.275-8.68 1.901-2.893 2.397-4.712 1.57-5.621-0.082-0.166-0.495-0.331-0.909-0.331-0.992 0-2.645 0.744-4.63 2.067-1.735-0.992-3.72-1.654-5.869-1.654s-4.133 0.579-5.87 1.654c-1.982-1.323-3.636-2.067-4.628-2.067-0.497 0-0.827 0.165-1.075 0.413-1.984 1.984 4.216 9.674 8.845 14.302 5.456 5.456 10.913 9.259 13.227 9.259 0.496 0 0.827-0.165 1.075-0.413 0.827-0.827 0.33-2.728-1.57-5.622zM22.54 1.088c0.083 0 0.248 0 0.331 0.082 0.248 0.248 0.165 1.323-1.488 3.968-0.661-0.909-1.488-1.818-2.48-2.48 1.653-0.992 2.893-1.57 3.637-1.57zM2.7 5.138c-1.406-2.232-1.82-3.637-1.488-3.968 0.082-0.082 0.248-0.082 0.33-0.082 0.744 0 1.984 0.578 3.638 1.57-0.915 0.752-1.728 1.565-2.456 2.45l-0.024 0.030zM22.87 22.83c-0.083 0.082-0.248 0.082-0.33 0.082-0.745 0-1.985-0.578-3.638-1.57 0.91-0.662 1.819-1.488 2.48-2.48 1.653 2.645 1.736 3.72 1.488 3.968zM10.718 17.456c-0.744-0.661-1.488-1.323-2.15-2.067-2.728-2.728-5.373-5.786-7.027-8.266-0.66 1.487-1.073 3.141-1.073 4.794 0 2.15 0.578 4.134 1.57 5.87l-0.082 0.082c-1.902 2.894-2.398 4.713-1.571 5.622 0.248 0.248 0.661 0.413 1.075 0.413 1.818 0 5.539-2.314 9.672-5.952-0.152-0.148-0.288-0.31-0.407-0.485l-0.007-0.011zM1.541 22.912c-0.082 0-0.248 0-0.33-0.082-0.248-0.248-0.166-1.323 1.488-3.968 0.661 0.909 1.488 1.736 2.48 2.48-1.654 0.992-2.894 1.57-3.638 1.57z"/>
</svg>