<svg xmlns="http://www.w3.org/2000/svg" version="1.1" width="24" height="24" viewBox="0 0 24 24">
<path d="M12 0l-9.476 0.994v17.368l9.476 5.638 9.476-5.638v-17.368l-9.377-0.984zM20.236 17.657l-8.236 4.9-8.236-4.9v-7.119l8.2 4.881 0.014 0.885-5.626-3.349-0.008 0.86 5.648 3.394 0.015 0.908-5.647-3.36-0.008 0.86 5.648 3.393 5.703-3.412v-0.862l-0.008 0.004v-2.805l2.54-1.517zM20.23 9.495l-3.294 1.941-4.96-2.951-0.009 0.858 4.24 2.521-0.037 0.023-0.092 0.054-0.602 0.355-3.5-2.083-0.009 0.859 2.763 1.643-0.667 0.446-2.088-1.23-0.008 0.858 1.37 0.807-1.395 0.837-8.16-4.85 8.172-4.911zM20.236 8.631l-8.282-4.882-8.19 4.877v-6.516l8.236-0.864 8.237 0.864z"/>
</svg>