<svg xmlns="http://www.w3.org/2000/svg" version="1.1" width="24" height="24" viewBox="0 0 24 24">
<path d="M18.972 13.487c-0.173-0.406-0.354-0.749-0.558-1.074l0.018 0.031v-6.028c0-0.004 0-0.010 0-0.015 0-1.767-0.719-3.366-1.88-4.521l-0-0c-1.155-1.161-2.754-1.88-4.521-1.88-0.005 0-0.011 0-0.016 0h-0.001c-0.005-0-0.011-0-0.017-0-1.766 0-3.364 0.718-4.518 1.878l-0 0c-1.161 1.155-1.88 2.754-1.88 4.521 0 0.006 0 0.012 0 0.018v-0.001 0.877h2.57v-0.877c0-1.027 0.4-1.993 1.127-2.72 0.692-0.696 1.65-1.126 2.709-1.126 0.004 0 0.008 0 0.011 0h-0.001c2.123 0.003 3.844 1.723 3.847 3.846v3.508c-1.099-0.665-2.427-1.058-3.846-1.058-0.006 0-0.011 0-0.017 0h0.001c-0.003 0-0.007 0-0.011 0-2.086 0-3.974 0.847-5.339 2.216l-0 0c-1.37 1.365-2.217 3.254-2.217 5.34 0 0.003 0 0.007 0 0.010v-0.001c0 0.003 0 0.007 0 0.011 0 2.086 0.847 3.974 2.216 5.339l0 0c1.366 1.371 3.255 2.22 5.343 2.22 0.003 0 0.006 0 0.008 0h-0c0.003 0 0.007 0 0.011 0 2.086 0 3.974-0.847 5.339-2.216l0-0c1.37-1.365 2.217-3.254 2.217-5.34 0-0.004 0-0.008 0-0.011v0.001c0-1.021-0.2-2.012-0.595-2.948zM12 21.43c-2.755 0-4.997-2.242-4.997-4.997s2.242-4.997 4.997-4.997 4.997 2.241 4.997 4.997-2.242 4.997-4.997 4.997zM14.145 16.456c0 1.171-0.949 2.12-2.12 2.12s-2.12-0.949-2.12-2.12v0c0-1.171 0.949-2.12 2.12-2.12s2.12 0.949 2.12 2.12v0z"/>
</svg>