<svg xmlns="http://www.w3.org/2000/svg" version="1.1" width="24" height="24" viewBox="0 0 24 24">
<path d="M10.4 4.78v-0.43l-0.030-0.46c0-0.13-0.050-0.33-0.14-0.6-0.090-0.26-0.13-0.49-0.13-0.69 0-0.001 0-0.002 0-0.003 0-0.135 0.067-0.254 0.169-0.326l0.001-0.001 0.35-0.28c0.153-0.113 0.346-0.182 0.555-0.182 0.019 0 0.038 0.001 0.057 0.002l-0.003-0c0.16 0 0.41 0.020 0.77 0.070 0.31 0 0.54-0.070 0.7-0.2l0.37-0.26c0.17-0.14 0.26-0.29 0.26-0.46 0-0.29-0.16-0.52-0.48-0.7-0.326-0.165-0.711-0.262-1.119-0.262-0.036 0-0.071 0.001-0.106 0.002l0.005-0-1.36 0.1c-0.31 0-0.9 0.070-1.77 0.21-0.87 0.15-1.54 0.22-2.030 0.22-0.2 0-0.54-0.040-1.020-0.12-0.341-0.062-0.738-0.102-1.142-0.11l-0.008-0-0.75 0.24c-0.26 0.080-0.38 0.2-0.38 0.35l0.060 0.3c0.14 0.28 0.34 0.5 0.6 0.65l0.27 0.14c0.13 0.040 0.24 0.060 0.33 0.060 0.11 0 0.28 0 0.5-0.030 0.002-0 0.004-0 0.007-0 0.181 0 0.351 0.048 0.498 0.133l-0.005-0.003 0.37 0.33c0.18 0.2 0.3 0.4 0.38 0.58s0.12 0.35 0.12 0.5c0 0.12-0.020 0.3-0.070 0.57-0.040 0.26-0.060 0.47-0.060 0.62 0 0.2 0.050 0.49 0.15 0.86s0.15 0.68 0.15 0.92c-0.030 0.38-0.040 0.75-0.040 1.12v1.12c0 0.29 0.030 0.66 0.070 1.12s0.070 0.83 0.070 1.1l-0.070 1.37-0.030 2.21-0.1 1.81c0 0.25 0.040 0.56 0.13 0.96s0.13 0.71 0.13 0.95c0 0.25-0.030 0.55-0.1 0.93-0.065 0.254-0.102 0.545-0.102 0.845 0 0.167 0.012 0.332 0.034 0.493l-0.002-0.019c0.030 0.17 0.030 0.3 0 0.4-0.029 0.143-0.092 0.269-0.181 0.371l0.001-0.001-0.31 0.38c-0.2 0.24-0.43 0.43-0.67 0.56s-0.59 0.2-1.030 0.23c-0.45 0.020-0.77 0.11-0.97 0.28-0.2 0.16-0.3 0.29-0.3 0.38 0 0.57 0.53 0.85 1.6 0.85l0.23-0.030 1.92-0.2c0.32-0.020 0.7-0.030 1.12-0.030h0.4l1.2 0.030h3.2l0.88-0.080c0.28-0.030 0.53-0.050 0.75-0.050 0.29 0 0.69 0.070 1.2 0.22 0.51 0.14 0.94 0.19 1.3 0.14l0.38-0.1c0.24-0.060 0.46-0.1 0.69-0.1l0.45 0.060c0.27 0.030 0.5 0.050 0.68 0.050 0.090 0 0.24-0.030 0.47-0.070 0.55-0.11 0.94-0.32 1.16-0.63 0.16-0.22 0.24-0.42 0.24-0.62-0.069-0.319-0.108-0.685-0.108-1.061 0-0.102 0.003-0.203 0.009-0.303l-0.001 0.014c0.1-0.22 0.23-0.44 0.36-0.66 0.11-0.29 0.2-0.68 0.24-1.17 0.040-0.5 0.080-0.83 0.11-0.99 0.040-0.16 0.13-0.42 0.29-0.76 0.15-0.34 0.23-0.63 0.23-0.87 0-0.26-0.060-0.5-0.17-0.7-0.1-0.19-0.25-0.29-0.43-0.29-0.11 0-0.29 0.1-0.53 0.3-0.11 0.090-0.2 0.25-0.29 0.5-0.070 0.23-0.14 0.4-0.18 0.49-0.27 0.4-0.53 0.78-0.8 1.15-0.109 0.172-0.219 0.376-0.316 0.586l-0.014 0.034c-0.23 0.47-0.4 0.78-0.54 0.96-0.162 0.181-0.336 0.345-0.521 0.493l-0.009 0.007c-0.11 0.080-0.22 0.2-0.32 0.34s-0.24 0.37-0.41 0.68l-0.57 0.3-0.4 0.1c-0.13 0.010-0.31 0.070-0.53 0.16-0.23 0.080-0.4 0.14-0.5 0.16-0.11 0.020-0.26 0.030-0.44 0.030-0.2 0-0.5-0.030-0.9-0.1-0.4-0.060-0.72-0.1-0.96-0.1l-0.7 0.040c-0.8 0-1.4-0.43-1.77-1.29-0.371-0.969-0.586-2.091-0.586-3.262 0-0.497 0.039-0.984 0.113-1.46l-0.007 0.053c0.050-0.36 0.080-0.64 0.080-0.86v-2.3l0.030-0.76c0.030-0.31 0.040-0.53 0.040-0.66 0-0.016 0-0.035 0-0.055 0-0.36-0.062-0.706-0.177-1.027l0.007 0.021c-0.070-0.164-0.116-0.355-0.13-0.555l-0-0.005c0-0.1 0.020-0.26 0.060-0.46 0.050-0.2 0.070-0.35 0.070-0.46l-0.030-0.99c-0.030-0.42-0.040-0.75-0.040-0.99 0-0.28 0.050-0.63 0.14-1.050s0.13-0.76 0.13-1.020z"/>
</svg>