<svg xmlns="http://www.w3.org/2000/svg" version="1.1" width="24" height="24" viewBox="0 0 24 24">
<path d="M14.752 7.22c-0.003-0-0.006-0-0.009-0-1.127 0-2.040 0.913-2.040 2.040 0 0.003 0 0.006 0 0.008v-0c0 0.455 0.146 0.89 0.414 1.241l2.628 3.662c0.31 0.537 0.124 1.242-0.414 1.572-0.538 0.311-1.241 0.125-1.572-0.414-0.099-0.166-0.157-0.367-0.157-0.581 0-0.405 0.209-0.761 0.524-0.967l0.004-0.003 0.042-0.021c0.206-0.145 0.269-0.414 0.124-0.621-0.082-0.122-0.218-0.202-0.372-0.207l-0.001-0c-0.077 0.001-0.148 0.025-0.209 0.064l0.002-0.001-0.041 0.021c-0.951 0.6-1.262 1.861-0.662 2.813 0.601 0.953 1.862 1.264 2.813 0.662 0.952-0.6 1.263-1.861 0.662-2.813-0.041-0.063-0.082-0.104-0.104-0.166l-2.627-3.683c-0.092-0.157-0.146-0.345-0.146-0.545 0-0.012 0-0.024 0.001-0.036l-0 0.002c0-0.641 0.517-1.138 1.138-1.138 0.62 0 1.138 0.517 1.138 1.138 0 0.394-0.207 0.745-0.538 0.973-0.021 0-0.021 0.021-0.041 0.021-0.207 0.145-0.27 0.414-0.124 0.621 0.082 0.124 0.228 0.186 0.372 0.207 0.077-0.001 0.148-0.024 0.209-0.063l-0.002 0.001 0.041-0.021c0.952-0.6 1.263-1.862 0.662-2.814-0.364-0.574-0.996-0.95-1.716-0.951h-0zM14.752 15.311c0 0 0.001 0 0.001 0 0.319 0 0.578-0.259 0.578-0.578 0-0.001 0-0.001 0-0.002v0c0-0.32-0.259-0.579-0.579-0.579s-0.579 0.259-0.579 0.579v0c0 0.332 0.268 0.58 0.579 0.58zM14.752 8.689c-0 0-0.001 0-0.001 0-0.319 0-0.578 0.259-0.578 0.578 0 0.001 0 0.001 0 0.002v-0c0 0.32 0.259 0.579 0.579 0.579s0.579-0.259 0.579-0.579v0c-0.020-0.331-0.268-0.58-0.579-0.58zM12 0c-6.621 0-12 5.379-12 12 0 6.622 5.379 12 12 12s12-5.379 12-12-5.379-12-12-12zM9.269 17.357c-0.004 0-0.009 0-0.014 0-1.44 0-2.608-1.165-2.613-2.605v-0c-0-0.003-0-0.007-0-0.011 0-1.076 0.649-2 1.576-2.404l0.017-0.007-1.097-1.531c-0.848-1.18-0.579-2.814 0.579-3.642s2.814-0.58 3.641 0.579c0.828 1.159 0.58 2.814-0.579 3.642-0.149 0.109-0.319 0.206-0.5 0.284l-0.017 0.006 1.138 1.615c0.281 0.409 0.449 0.915 0.449 1.46 0 0.896-0.453 1.686-1.143 2.153l-0.009 0.006c-0.398 0.283-0.893 0.453-1.428 0.454h-0zM16.924 13.283c0.808 1.199 0.497 2.813-0.703 3.619s-2.814 0.498-3.621-0.703c-0.281-0.409-0.449-0.915-0.449-1.46 0-0.896 0.454-1.687 1.144-2.155l0.009-0.006c0.145-0.104 0.289-0.165 0.435-0.248l-1.117-1.531c-0.31-0.427-0.497-0.961-0.497-1.539 0-0.868 0.42-1.638 1.068-2.118l0.007-0.005c0.427-0.31 0.961-0.496 1.538-0.496 0.869 0 1.639 0.42 2.119 1.069l0.005 0.007c0.31 0.427 0.496 0.961 0.496 1.539 0 0.868-0.42 1.638-1.068 2.118l-0.007 0.005c-0.15 0.11-0.32 0.207-0.501 0.284l-0.017 0.006zM8.255 9.827c-0.091-0.157-0.145-0.345-0.145-0.546 0-0.011 0-0.023 0.001-0.034l-0 0.002c0-0.641 0.517-1.138 1.138-1.138 0.642 0 1.138 0.517 1.138 1.138 0 0.394-0.207 0.766-0.538 0.973l-0.041 0.021c-0.207 0.145-0.269 0.414-0.125 0.621 0.083 0.124 0.228 0.186 0.373 0.207 0.077-0.002 0.148-0.024 0.209-0.063l-0.002 0.001 0.041-0.021c0.591-0.368 0.979-1.014 0.979-1.751 0-0.393-0.11-0.76-0.301-1.072l0.005 0.009c-0.368-0.592-1.014-0.98-1.751-0.98-0.393 0-0.76 0.11-1.072 0.301l0.009-0.005c-0.588 0.372-0.973 1.018-0.973 1.755 0 0.391 0.108 0.756 0.297 1.068l-0.005-0.009c0.042 0.063 0.083 0.125 0.124 0.166l2.627 3.663c0.104 0.166 0.145 0.373 0.145 0.578 0 0.643-0.497 1.139-1.138 1.16-0.002 0-0.003 0-0.005 0-0.632 0-1.145-0.508-1.153-1.138v-0.001c0-0.393 0.207-0.766 0.538-0.973l0.042-0.020c0.207-0.146 0.269-0.414 0.124-0.621-0.082-0.122-0.218-0.202-0.372-0.207l-0.001-0c-0.077 0.001-0.149 0.025-0.209 0.064l0.002-0.001-0.042 0.021c-0.952 0.599-1.262 1.863-0.662 2.814s1.862 1.262 2.814 0.662c0.6-0.373 0.972-1.035 0.972-1.738 0-0.455-0.145-0.889-0.414-1.242zM9.269 15.311c0.31 0 0.579-0.248 0.579-0.58-0.013-0.31-0.268-0.556-0.579-0.556s-0.566 0.246-0.579 0.555l-0 0.001c0 0.332 0.249 0.58 0.58 0.58zM9.269 8.689c-0.002-0-0.003-0-0.005-0-0.312 0-0.566 0.248-0.575 0.558l-0 0.001c0 0.311 0.249 0.58 0.559 0.58s0.58-0.249 0.58-0.559c0-0.005 0-0.012 0-0.018 0-0.309-0.25-0.56-0.559-0.562h-0z"/>
</svg>