<svg xmlns="http://www.w3.org/2000/svg" version="1.1" width="24" height="24" viewBox="0 0 24 24">
<path d="M11.654 0.174v2.203h-1.972v0.58h1.972v2.203h0.696v-2.203h1.97v-0.58h-1.97v-2.203h-0.348zM17.684 2.436l-0.002 1.623v1.623h-2.957v0.927h2.957v3.188h1.043l0.011-1.582 0.020-1.576 1.465-0.020 1.46-0.010v-0.927h-2.953v-3.246h-0.522zM5.277 2.496v3.19h-2.986v0.925h2.986v3.19h0.985v-3.191h3.013v-0.925h-3.013v-3.189h-0.492zM11.363 7.766v3.593h-3.303v1.188h3.304v3.596h1.28v-3.596h3.309v-1.188h-3.31v-3.593h-0.637zM21.084 9.316v2.221h-2.012v0.811h2.012v2.261h0.887v-2.261h2.029v-0.811h-2.029v-2.22h-0.422zM1.973 9.447v2.174h-1.973v0.621h1.973v2.194h0.667v-2.194h2v-0.62h-2.031v-2.176h-0.318zM17.682 13.963v3.254h-3.016v0.927h3.016v3.217h1.072v-3.216h2.986v-0.928h-2.986v-3.254h-0.533zM5.219 13.971v3.246h-2.957v0.928h2.957v3.189h1.101v-3.189h2.955v-0.928h-2.955v-3.247h-0.55zM11.535 18.549l0.002 1.103v1.1h-1.971v0.812h1.971v2.262h0.928l0.012-1.119 0.017-1.143h1.969v-0.812h-2v-2.203h-0.465z"/>
</svg>