<svg xmlns="http://www.w3.org/2000/svg" version="1.1" width="24" height="24" viewBox="0 0 24 24">
<path d="M17.209 6.697c-0.035-0.274 0-0.594 0-0.594v-0.010c0.141-0.714 0.771-1.254 1.525-1.254 0.005 0 0.009 0.001 0.014 0.001h0.002c0.859 0 1.557 0.698 1.557 1.556s-0.697 1.556-1.557 1.556c-0.003 0-0.006-0.001-0.009-0.001h-0.007c-0.742-0.001-1.38-0.526-1.525-1.254zM24 1.54v20.92c0 0.851-0.646 1.54-1.443 1.54h-21.113c-0.797 0-1.444-0.689-1.444-1.54v-20.92c0-0.85 0.647-1.54 1.444-1.54h21.113c0.797 0 1.443 0.69 1.443 1.54zM21.697 17.547c0-1.636-1.326-2.962-2.961-2.962-1.317 0-2.477 0.87-2.844 2.134h-1.758l-2.742-4.721 0.002-0.004 2.736-4.709h1.748c0.457 1.571 2.102 2.474 3.673 2.017s2.475-2.102 2.017-3.673c-0.457-1.571-2.102-2.474-3.672-2.017-0.975 0.29-1.728 1.042-2.013 1.996l-0.005 0.021h-2.665l-0.026-0.016-3.252 5.594h-1.917c-0.457-1.571-2.102-2.474-3.673-2.016s-2.474 2.102-2.017 3.673c0.458 1.571 2.103 2.474 3.673 2.017 0.973-0.283 1.733-1.045 2.017-2.017h1.961l3.208 5.52 0.015-0.009h2.69c0.369 1.243 1.502 2.134 2.842 2.134 0 0 0 0 0 0h0.002c1.636 0 2.961-1.326 2.961-2.962zM18.764 15.928c-0.743 0.002-1.381 0.526-1.527 1.254-0.004 0.029-0.004 0.057-0.007 0.085-0.004 0.017-0.015 0.029-0.018 0.046-0.041 0.301 0 0.602 0 0.602 0.173 0.842 0.995 1.383 1.837 1.209 0.573-0.118 1.005-0.548 1.164-1.088 0.065-0.172 0.105-0.356 0.105-0.551 0-0.859-0.697-1.557-1.554-1.557zM5.2 10.417c-0.858 0-1.556 0.698-1.556 1.557 0 0.006 0.002 0.012 0.002 0.018 0 0.003-0.001 0.005-0.001 0.008 0.001 0.854 0.693 1.547 1.548 1.548 0.541-0.001 1.015-0.278 1.292-0.698 0.171-0.249 0.272-0.551 0.272-0.875 0-0.86-0.698-1.558-1.557-1.558z"/>
</svg>