<svg xmlns="http://www.w3.org/2000/svg" version="1.1" width="24" height="24" viewBox="0 0 24 24">
<path d="M1.685 0v0.357l1.232 1.046c1.477 1.204 1.67 1.439 1.67 2.526v20.071h8.646c4.537 0 9.083-1.629 9.083-6.849 0-3.082-2.174-5.458-5.186-5.797v-0.067c2.475-0.745 4.169-2.54 4.169-5.253 0-4.372-3.73-6.032-7.349-6.032zM8.861 3.664h3.524c2.383 0 3.121 0.327 3.844 1.013 0.548 0.521 0.799 1.237 0.801 2.070 0 0.775-0.267 1.466-0.831 2.004-0.705 0.676-1.674 1.011-3.443 1.011h-3.894zM8.861 13.422h4.099c3.456 0 5.085 0.881 5.085 3.39 0 3.153-3.055 3.526-5.256 3.526h-3.929z"/>
</svg>