<svg xmlns="http://www.w3.org/2000/svg" version="1.1" width="24" height="24" viewBox="0 0 24 24">
<path d="M0 12v12h24v-24h-24zM19.341 11.044c0.61 0.152 1.074 0.423 1.501 0.865 0.221 0.236 0.549 0.666 0.575 0.77 0.008 0.030-1.036 0.73-1.668 1.123-0.023 0.015-0.115-0.084-0.217-0.236-0.31-0.45-0.633-0.644-1.128-0.678-0.728-0.050-1.196 0.331-1.192 0.967-0 0.011-0.001 0.024-0.001 0.037 0 0.151 0.038 0.293 0.105 0.417l-0.002-0.005c0.16 0.331 0.458 0.53 1.39 0.933 1.719 0.74 2.454 1.227 2.911 1.92 0.51 0.773 0.625 2.008 0.278 2.926-0.38 0.998-1.325 1.676-2.655 1.9-0.411 0.073-1.386 0.062-1.828-0.018-0.964-0.172-1.878-0.648-2.442-1.273-0.221-0.243-0.652-0.88-0.625-0.925 0.011-0.016 0.11-0.077 0.22-0.141 0.108-0.061 0.511-0.294 0.892-0.515l0.69-0.4 0.145 0.214c0.202 0.308 0.643 0.731 0.91 0.872 0.766 0.404 1.817 0.347 2.335-0.118 0.193-0.163 0.314-0.405 0.314-0.675 0-0.016-0-0.031-0.001-0.047l0 0.002c0-0.278-0.035-0.4-0.18-0.61-0.186-0.266-0.567-0.49-1.649-0.96-1.238-0.533-1.771-0.864-2.259-1.39-0.294-0.334-0.521-0.736-0.653-1.178l-0.006-0.022c-0.091-0.339-0.114-1.189-0.042-1.531 0.255-1.197 1.158-2.030 2.461-2.278 0.423-0.080 1.406-0.050 1.821 0.053zM13.707 12.046l0.008 0.983h-3.125v8.876h-2.21v-8.876h-3.122v-0.964c0-0.534 0.011-0.98 0.026-0.99 0.012-0.016 1.913-0.024 4.217-0.020l4.195 0.012z"/>
</svg>