<svg xmlns="http://www.w3.org/2000/svg" version="1.1" width="24" height="24" viewBox="0 0 24 24">
<path d="M11.891 13.463c3.757 0 4.854-1.347 5.065-1.674l-1.36-4.334c-0.36 0.34-1.327 0.937-3.68 0.937-2.292 0-3.188-0.567-3.52-0.91l-1.39 4.422c0.228 0.361 1.255 1.56 4.885 1.559zM11.917 3.807c0.861-0.010 1.676-0.196 2.415-0.522l-0.039 0.015-0.858-2.734c-0.074-0.195-0.218-0.349-0.401-0.435l-0.005-0.002c0 0-0.115-0.129-0.997-0.129s-1.055 0.136-1.055 0.136c-0.191 0.080-0.338 0.234-0.408 0.425l-0.002 0.005-0.884 2.815c0.662 0.255 1.428 0.41 2.227 0.426l0.007 0zM22.59 23.319c0.001-0.012 0.002-0.027 0.002-0.042 0-0.042-0.007-0.083-0.019-0.121l0.001 0.003-2.334-7.632c-0.088-0.245-0.314-0.419-0.582-0.431l-0.001-0h-1.663l0.2 0.64c-0.24 0.485-1.488 2.38-6.303 2.38-4.6 0-5.828-1.73-6.11-2.308l0.223-0.712h-1.661c-0.269 0.012-0.495 0.186-0.582 0.426l-0.001 0.005-2.334 7.633c-0.012 0.036-0.018 0.077-0.018 0.119 0 0.011 0 0.022 0.001 0.032l-0-0.001-0.002 0.020c0.004 0.083 0.012 0.161 0.026 0.237l-0.002-0.011c0.041 0.25 0.252 0.439 0.509 0.445h20.12c0.258-0.006 0.469-0.195 0.51-0.442l0-0.003c0.011-0.070 0.018-0.152 0.020-0.235l0-0.002z"/>
</svg>