<svg xmlns="http://www.w3.org/2000/svg" version="1.1" width="24" height="24" viewBox="0 0 24 24">
<path d="M17.813 22.502c-0.089 0.047-0.084 0.066 0.005 0.021 0.027-0.012 0.050-0.028 0.070-0.047l-0 0c0-0.016-0.002-0.014-0.075 0.026zM17.991 22.408c-0.042 0.033-0.042 0.035 0.009 0.009 0.028-0.014 0.052-0.030 0.052-0.035 0-0.019-0.012-0.014-0.061 0.026zM18.108 22.337c-0.042 0.033-0.042 0.035 0.009 0.009 0.028-0.014 0.052-0.030 0.052-0.035 0-0.019-0.012-0.014-0.061 0.026zM18.225 22.267c-0.042 0.033-0.042 0.035 0.009 0.009 0.028-0.014 0.052-0.030 0.052-0.035 0-0.019-0.012-0.014-0.061 0.026zM18.387 22.162c-0.082 0.052-0.108 0.087-0.035 0.047 0.052-0.030 0.136-0.094 0.122-0.096-0.033 0.014-0.062 0.031-0.088 0.050l0.001-0.001zM11.214 0.006c-0.052 0.005-0.216 0.021-0.364 0.033-3.408 0.307-6.601 2.146-8.623 4.973-1.073 1.474-1.823 3.25-2.11 5.178l-0.008 0.065c-0.096 0.659-0.108 0.854-0.108 1.748s0.012 1.088 0.108 1.748c0.652 4.506 3.859 8.292 8.208 9.695 0.779 0.251 1.6 0.422 2.533 0.525 0.364 0.040 1.935 0.040 2.299 0 1.611-0.178 2.977-0.577 4.323-1.264 0.206-0.106 0.246-0.134 0.218-0.157-0.234-0.284-0.876-1.137-1.511-1.994l-0.443-0.626-1.919-2.592-2.404-3.558c-1.534-2.325-2.331-3.484-3.135-4.637l0.714 1.081c-0.009-0.002-0.019 1.579-0.023 3.509-0.007 3.38-0.009 3.516-0.052 3.596-0.042 0.094-0.114 0.168-0.203 0.212l-0.003 0.001c-0.075 0.038-0.141 0.045-0.495 0.045h-0.406l-0.108-0.068c-0.067-0.042-0.12-0.1-0.156-0.169l-0.001-0.002-0.049-0.106 0.005-4.703 0.007-4.705 0.073-0.091c0.049-0.057 0.106-0.105 0.171-0.141l0.003-0.002c0.096-0.047 0.134-0.052 0.54-0.052 0.479 0 0.558 0.019 0.683 0.155-0.083-0.214 0.871 1.207 1.818 2.634l1.077 1.727c1.558 2.362 3.687 5.587 4.734 7.171l1.9 2.878 0.096-0.063c0.937-0.628 1.746-1.342 2.453-2.149l0.012-0.014c1.46-1.664 2.469-3.758 2.816-6.068l0.008-0.066c0.096-0.659 0.108-0.854 0.108-1.748s-0.012-1.088-0.108-1.748c-0.652-4.506-3.859-8.292-8.208-9.695-0.722-0.239-1.569-0.424-2.442-0.518l-0.056-0.005c-0.225-0.023-1.776-0.049-1.972-0.033zM16.126 7.264c0.112 0.057 0.197 0.155 0.236 0.274l0.001 0.003c0.019 0.061 0.023 1.365 0.019 4.304l-0.007 4.218-0.744-1.14-0.746-1.14v-3.066c0-1.982 0.009-3.096 0.023-3.15 0.036-0.128 0.119-0.232 0.23-0.295l0.002-0.001c0.096-0.049 0.131-0.054 0.5-0.054 0.347 0 0.408 0.005 0.486 0.047z"/>
</svg>