<svg xmlns="http://www.w3.org/2000/svg" version="1.1" width="24" height="24" viewBox="0 0 24 24">
<path d="M22.989 2.339h-1.554l-1.088-0.003c-0.861 0-1.654 0.655-2.261 1.176-0.601 0.496-1.11 1.111-1.591 1.726-0.204-0.533-0.422-0.983-0.671-1.411l0.025 0.046c-0.314-0.616-0.914-1.201-1.605-1.336-0.346-0.075-0.735-0.045-1.080-0.045h-2.31c-0.352 0-0.736-0.045-1.081 0.030-0.682 0.135-1.291 0.72-1.599 1.336-0.24 0.42-0.465 0.885-0.642 1.365-0.485-0.615-0.991-1.23-1.582-1.74-0.607-0.526-1.396-1.186-2.26-1.186h-2.633c-0.375 0-1.213-0.106-1.014 0.51 0.045 0.15 0.214 0.285 0.31 0.405 0.11 0.135 0.218 0.285 0.313 0.435 0.15 0.24 0.297 0.48 0.438 0.736 0.339 0.6 0.626 1.23 0.963 1.831 0.74 1.336 1.534 2.627 2.492 3.813 0.709 0.87 1.564 1.756 2.622 2.191l-2.383 4.503c-0.69 1.276-1.381 2.567-2.106 3.828l-0.105 0.18c-0.095 0.181-0.231 0.436-0.23 0.631 0 0.406 0.6 0.42 0.9 0.42 0.316 0 0.631-0.014 0.946-0.014 0.54-0.017 1.081-0.017 1.636-0.031 0.316 0 0.646 0.015 0.976-0.029 0.846-0.090 1.574-0.527 2.050-1.163l0.005-0.008c0.15-0.226 1.622-2.642 2.222-3.618 0.225-0.375 0.93-1.471 0.93-1.471s0.706 1.096 0.931 1.471c0.586 0.977 2.057 3.378 2.222 3.604 0.48 0.66 1.23 1.080 2.057 1.154 0.314 0.030 0.645 0.016 0.959 0.016l1.638 0.015h0.944c0.287 0 0.901-0.015 0.901-0.435 0-0.211-0.135-0.463-0.239-0.643l-0.105-0.18c-0.736-1.276-1.411-2.553-2.102-3.828-0.795-1.486-1.59-2.987-2.401-4.458 1.065-0.435 1.905-1.32 2.627-2.191 0.96-1.186 1.739-2.492 2.491-3.813 0.33-0.615 0.615-1.246 0.959-1.846 0.137-0.255 0.287-0.495 0.437-0.736 0.091-0.15 0.195-0.3 0.315-0.435 0.090-0.13 0.256-0.264 0.316-0.405 0.194-0.617-0.609-0.386-0.984-0.397zM10.287 5.27c0.063-0.007 0.11 0.159 0.143 0.495l0.005 0.017c0 0.015-0.151 0-0.286-0.015l-0.165-0.030c-0.075-0.015-0.15-0.045-0.225-0.075-0.201-0.068-0.321-0.163-0.411-0.233-0.054-0.039-0.099-0.087-0.134-0.142l-0.001-0.002c0.48 0.008 0.837 0.005 1.074-0.015zM10.469 7.688v-0.014h0.005zM10.485 7.636c-0.107 0.117-0.267 0.162-0.42 0.192-0.15 0.031-0.324 0.054-0.465-0.022-0.164-0.085-0.23-0.284-0.275-0.45-0.060-0.21-0.112-0.438-0.090-0.66h0.014c0-0.123 0.045-0.253 0.090-0.363 0.043-0.096 0.105-0.176 0.182-0.239l0.001-0.001c0.213-0.16 0.536-0.16 0.728 0.030 0.087 0.087 0.156 0.19 0.204 0.306l0.002 0.006c0.111 0.258 0.195 0.555 0.177 0.841-0.009 0.139-0.063 0.264-0.149 0.361l0.001-0.001zM12.576 8.048c-0.021 0.030-0.049 0.045-0.075 0.060-0.133 0.094-0.299 0.151-0.477 0.151-0.013 0-0.025-0-0.037-0.001l0.002 0c-0.011 0.001-0.024 0.001-0.037 0.001-0.178 0-0.344-0.056-0.479-0.153l0.003 0.002c-0.029-0.014-0.054-0.034-0.072-0.059l-0-0.001c-0.009 0-0.016-0.015-0.016-0.030 0-0.009 0.004-0.017 0.010-0.024v0.039c0.014-0.015 0.039-0.015 0.054-0.015 0.021 0.015 0.040 0.030 0.066 0.045 0.125 0.085 0.279 0.135 0.444 0.135 0.009 0 0.019-0 0.028-0l-0.001 0c0.007 0 0.016 0 0.024 0 0.167 0 0.323-0.051 0.452-0.137l-0.003 0.002c0.024-0.015 0.045-0.045 0.069-0.060 0.023-0.015 0.045-0.015 0.060 0s0.007 0.030-0.015 0.045zM14.646 7.358c-0.045 0.165-0.112 0.375-0.277 0.45-0.141 0.075-0.316 0.049-0.467 0.019-0.152-0.030-0.31-0.076-0.42-0.19-0.084-0.097-0.138-0.221-0.146-0.358l-0-0.002c-0.019-0.288 0.067-0.584 0.179-0.844 0.049-0.121 0.119-0.225 0.205-0.312l-0 0c0.191-0.188 0.514-0.188 0.728-0.030 0.078 0.064 0.14 0.144 0.181 0.236l0.002 0.004v0.007c0.056 0.113 0.091 0.235 0.105 0.36 0.021 0.225-0.033 0.45-0.090 0.66zM14.621 5.437c-0.088 0.075-0.21 0.165-0.408 0.225-0.063 0.024-0.139 0.046-0.217 0.062l-0.010 0.002c-0.014 0.005-0.084 0.015-0.164 0.030l-0.002 0.026c-0.131 0.015-0.283 0.030-0.28 0 0.032-0.33 0.078-0.495 0.144-0.495 0.236 0.030 0.592 0.030 1.072 0.015-0.035 0.055-0.080 0.1-0.133 0.134l-0.002 0.001z"/>
</svg>