<svg xmlns="http://www.w3.org/2000/svg" version="1.1" width="24" height="24" viewBox="0 0 24 24">
<path d="M12.879 13.006v3.65l-3.004-3.048v-3.495h3.582l2.852 2.893zM23.765 20.612v3.388h-3.654l-5.73-5.9v-3.55h3.354zM12.937 19.164l3.372 3.371c-1.309 0.442-2.557 0.726-4.325 0.726-6.848-0.001-11.984-5.018-11.984-11.696 0-6.645 5.136-11.565 11.984-11.565 6.88 0 12.016 4.952 12.016 11.565 0 2.12-0.523 4.076-1.457 5.759l-3.625-3.725c0.152-0.598 0.24-1.285 0.24-1.993 0-0.004 0-0.009 0-0.013v0.001c0-4.291-3.148-7.527-7.1-7.527-3.954 0-7.248 3.236-7.248 7.527s3.33 7.6 7.247 7.6c0.548 0 0.661 0.017 0.88-0.030z"/>
</svg>