<svg xmlns="http://www.w3.org/2000/svg" version="1.1" width="24" height="24" viewBox="0 0 24 24">
<path d="M0.632 0.55v22.9h1.648v0.55h-2.28v-24h2.28v0.55zM7.675 7.81v1.157h0.033c0.309-0.443 0.683-0.784 1.117-1.024 0.433-0.245 0.936-0.365 1.5-0.365 0.54 0 1.033 0.107 1.481 0.314 0.448 0.208 0.785 0.582 1.020 1.108 0.254-0.374 0.6-0.706 1.034-0.992 0.434-0.287 0.95-0.43 1.546-0.43 0.453 0 0.872 0.056 1.26 0.167 0.388 0.11 0.716 0.286 0.993 0.53 0.276 0.245 0.489 0.559 0.646 0.951 0.152 0.392 0.23 0.863 0.23 1.417v5.728h-2.349v-4.851c0-0.286-0.010-0.559-0.032-0.812-0.018-0.243-0.082-0.468-0.185-0.67l0.005 0.010c-0.102-0.19-0.251-0.342-0.433-0.445l-0.005-0.003c-0.194-0.11-0.457-0.166-0.785-0.166-0.332 0-0.6 0.064-0.803 0.189-0.2 0.125-0.363 0.293-0.476 0.492l-0.004 0.007c-0.115 0.201-0.196 0.436-0.23 0.686l-0.001 0.010c-0.037 0.235-0.058 0.507-0.060 0.783v4.77h-2.35v-4.8c0-0.254-0.004-0.503-0.018-0.752-0.009-0.25-0.061-0.485-0.148-0.702l0.005 0.014c-0.084-0.211-0.228-0.383-0.411-0.5l-0.004-0.003c-0.194-0.125-0.476-0.19-0.854-0.19-0.111 0-0.259 0.024-0.439 0.074-0.18 0.051-0.36 0.143-0.53 0.282-0.171 0.138-0.319 0.337-0.439 0.595-0.12 0.259-0.18 0.6-0.18 1.020v4.966h-2.349v-8.565zM23.368 23.45v-22.9h-1.648v-0.55h2.28v24h-2.28v-0.55z"/>
</svg>