<svg xmlns="http://www.w3.org/2000/svg" version="1.1" width="24" height="24" viewBox="0 0 24 24">
<path d="M17.865 0c-3.8 0-4.513 5.414-2.375 5.414s6.176-5.414 2.375-5.414zM11.992 0.664c-0.060 0-0.124 0.003-0.191 0.012-2.14 0.277-1.385 3.997-0.246 4.066 1.103 0.068 2.308-4.071 0.437-4.078zM8.287 2.134c-0.113 0.003-0.237 0.031-0.371 0.087-1.72 0.71-0.262 3.636 0.701 3.44 0.889-0.182 1.004-3.556-0.33-3.527zM5.547 4.43c-0.183 0.001-0.351 0.062-0.485 0.165l0.002-0.001c-1.376 0.95 0.462 3.249 1.272 2.892 0.708-0.312 0.257-3.021-0.789-3.056zM13.184 6.188c-2.92 0.025-6.636 1.506-7.284 4.404-0.718 3.217 2.96 7.68 6.797 7.68 1.888 0 4.066-1.706 4.473-3.866 0.311-1.647-3.662-0.986-3.52 0.104 0.171 1.306-0.958 1.95-2.064 1.107-3.52-2.68 5.83-4.016 5.213-7.678-0.2-1.187-1.744-1.768-3.615-1.751zM5.268 20.19c-0.536 0-0.958 0.17-1.266 0.51s-0.463 0.805-0.463 1.397c0 0.585 0.153 1.048 0.455 1.39 0.303 0.341 0.713 0.512 1.23 0.512 0.258 0 0.873 0.004 1.288-0.344v-1.765h-1.248v0.634h0.644v0.635c-0.098 0.080-0.282 0.154-0.58 0.154-0.293 0-0.544-0.106-0.71-0.318-0.167-0.211-0.25-0.51-0.25-0.898 0-0.392 0.087-0.693 0.259-0.903 0.173-0.211 0.419-0.318 0.738-0.318 0.302 0 0.583 0.084 0.824 0.229l-0.007-0.004 0.216-0.637c-0.154-0.085-0.333-0.155-0.522-0.202l-0.015-0.003c-0.175-0.044-0.377-0.069-0.584-0.069-0.003 0-0.006 0-0.009 0h0zM11.83 20.19c-0.47 0.013-0.842 0.182-1.115 0.506-0.283 0.338-0.426 0.806-0.426 1.4s0.143 1.060 0.426 1.397c0.284 0.338 0.675 0.506 1.174 0.506s0.89-0.168 1.174-0.506c0.283-0.338 0.423-0.803 0.423-1.396 0-0.595-0.14-1.063-0.424-1.4-0.283-0.338-0.674-0.507-1.173-0.507zM7.060 20.257v3.67h0.682v-2.205l1.598 2.205h0.506v-3.67h-0.682v2.207l-1.598-2.207zM14.168 20.257l-0.389 3.67h0.76l0.234-2.373 0.715 2.384h0.508l0.717-2.306 0.234 2.295h0.758l-0.39-3.67h-0.862l-0.713 2.29-0.707-2.29zM18.252 20.257v3.67h2.209v-0.715h-1.408v-0.84h1.047v-0.639h-1.047v-0.761h1.361v-0.715zM11.865 20.876h0.024c0.245 0 0.435 0.107 0.57 0.32s0.201 0.514 0.201 0.9-0.066 0.684-0.201 0.897c-0.112 0.193-0.318 0.32-0.554 0.32-0.006 0-0.011-0-0.017-0l0.001 0c-0.005 0-0.011 0-0.016 0-0.235 0-0.441-0.128-0.551-0.317l-0.002-0.003c-0.134-0.213-0.203-0.511-0.203-0.896 0-0.387 0.069-0.688 0.203-0.9 0.11-0.191 0.312-0.318 0.545-0.321h0z"/>
</svg>