<svg xmlns="http://www.w3.org/2000/svg" version="1.1" width="24" height="24" viewBox="0 0 24 24">
<path d="M0.010 5.756c-0.128 0.070 1.019 0.82 3.161 1.706 2.143 0.886 5.103 3.13 4.87 3.493-0.695 0.984-1.105 2.162-0.822 4.178 0.051 0.355-1.047 0.97-0.968 1.506 0.067 0.408 1.228-0.403 1.355-0.243 0.078 0.288-0.621 1.743-0.338 1.847 0.206 0.062 2.023-1.73 2.129-1.7 2.995 0.908 6.892 0.222 6.967 0.194-0.007-0.016 2.804 1.326 3.049 1.166 0.616-0.67-1.169-1.615-0.871-1.992 0.13-0.198 2.173 0.742 2.274 0.485 0.146-0.443-0.948-1.375-1.113-1.651-0.143-0.255-0.174-0.666 0.194-0.924 0.367-0.257 4.125-1.7 3.967-2.818-0.272-2.030-4.766-2.161-4.839-2.332-0.034-0.080 0.199-2.902-1.112-2.38-0.808 0.301-0.15 2.099-0.097 2.332 0.048 0.214-0.359 0.19-0.436 0.097-0.17-0.21-0.736-2.084-1.403-1.75-0.935 0.518-0.055 2.135-0.242 2.187-0.346 0.195-0.326 0.67-0.604 1.056-0.458 0.66-3.886-0.309-4.994-0.376-0.811-0.048-1.586 0.62-1.66 0.535-0.987-0.993-3.030-2.722-5.27-3.297-1.254-0.342-3.121-1.332-3.197-1.319zM22.876 7.572c-0.068-0.018-0.382 1.593-0.234 1.665 0.13 0.097 0.355-1.576 0.237-1.662zM23.983 7.785c-0.17-0.003-1.076 1.449-0.867 1.603 0.129 0.098 0.937-1.543 0.881-1.598-0.004-0.003-0.009-0.005-0.014-0.005h-0zM19.598 9.553c0 0 0 0 0 0 0.214 0 0.387 0.198 0.388 0.443v0c0 0.245-0.174 0.444-0.388 0.444v0c-0.214 0-0.388-0.199-0.388-0.444v0c0-0.245 0.174-0.443 0.388-0.443 0 0 0 0 0 0v0zM18.727 9.823c0.165 0.714 0.422 0.94 1.194 0.918-0.983 0.905-1.58-0.645-1.194-0.918zM20.852 11.69c0.040 0 0.071 0.011 0.092 0.030 0.387 0.141-1.664 0.883-1.678 0.778-0.021-0.075 1.197-0.823 1.586-0.808zM21.060 12.165c0.004-0.001 0.008-0.001 0.013-0.001 0.016 0 0.031 0.004 0.044 0.010l-0.001-0c0.365 0.364-1.157 1.173-1.14 1.144-0.123-0.074 0.766-1.129 1.084-1.153z"/>
</svg>