<svg xmlns="http://www.w3.org/2000/svg" version="1.1" width="24" height="24" viewBox="0 0 24 24">
<path d="M10.599 17.211l-0.881-2.393c0 0-1.433 1.596-3.579 1.596-1.9 0-3.249-1.652-3.249-4.296 0-3.385 1.708-4.596 3.388-4.596 2.418 0 3.184 1.568 3.845 3.578l0.871 2.751c0.871 2.672 2.523 4.818 7.285 4.818 3.41 0 5.722-1.045 5.722-3.801 0-2.227-1.276-3.383-3.635-3.935l-1.757-0.384c-1.217-0.274-1.577-0.771-1.577-1.597 0-0.936 0.736-1.487 1.952-1.487 1.323 0 2.028 0.495 2.147 1.679l2.749-0.33c-0.225-2.479-1.937-3.494-4.745-3.494-2.479 0-4.897 0.936-4.897 3.934 0 1.873 0.902 3.058 3.185 3.605l1.862 0.443c1.397 0.33 1.863 0.916 1.863 1.713 0 1.021-0.992 1.441-2.869 1.441-2.779 0-3.936-1.457-4.597-3.469l-0.901-2.75c-1.156-3.574-3.004-4.896-6.669-4.896-3.965-0.014-6.112 2.538-6.112 6.894 0 4.179 2.147 6.445 6.003 6.445 3.108 0 4.596-1.457 4.596-1.457z"/>
</svg>