<svg xmlns="http://www.w3.org/2000/svg" version="1.1" width="24" height="24" viewBox="0 0 24 24">
<path d="M22.597 24h-21.191c-0.776-0.002-1.404-0.63-1.406-1.406v-21.188c0.002-0.776 0.63-1.404 1.406-1.406h21.191c0.776 0.002 1.404 0.63 1.406 1.406v21.188c-0.002 0.776-0.63 1.404-1.406 1.406h-0zM11.911 2.109c-5.405 0.047-9.763 4.482-9.802 9.89-0.040 5.507 4.381 9.885 9.89 9.89 5.415 0.003 9.796-4.5 9.89-9.89 0.097-5.572-4.406-9.939-9.978-9.89zM9.65 8.633l-0.889 2.159h6.539l-0.889-2.159 6.642 3.365-6.642 3.365 0.889-2.159h-6.539l0.882 2.159-6.659-3.365z"/>
</svg>