<svg xmlns="http://www.w3.org/2000/svg" version="1.1" width="24" height="24" viewBox="0 0 24 24">
<path d="M23.275 5.265c0-0.852-0.132-1.703-0.36-2.555-0.328-1.016-1.081-1.834-2.031-2.194-0.907-0.327-1.955-0.516-3.046-0.516s-2.139 0.189-3.111 0.536l0.065-0.020c-0.998 0.352-1.755 1.163-2.025 2.172l-0.005 0.022c-0.219 0.761-0.344 1.635-0.344 2.538s0.126 1.777 0.361 2.606l-0.016-0.067c0.326 1.015 1.080 1.834 2.030 2.194 0.826 0.314 1.781 0.495 2.779 0.495 0.094 0 0.188-0.002 0.281-0.005l-0.014 0c1.049 0 2.063-0.196 3.046-0.491 0.998-0.353 1.755-1.163 2.026-2.172l0.005-0.022c0.229-0.819 0.36-1.67 0.36-2.522zM19.967 5.265c0 0.393-0.065 0.852-0.196 1.212-0.164 0.524-0.623 0.95-1.18 1.081-0.236 0.047-0.508 0.074-0.786 0.074s-0.549-0.027-0.812-0.078l0.027 0.004c-0.575-0.1-1.031-0.522-1.178-1.071l-0.002-0.010c-0.125-0.372-0.197-0.8-0.197-1.245s0.072-0.873 0.205-1.273l-0.008 0.028c0.163-0.524 0.622-0.95 1.18-1.081 0.236-0.047 0.508-0.074 0.786-0.074s0.549 0.027 0.812 0.078l-0.027-0.004c0.575 0.101 1.030 0.523 1.178 1.071l0.002 0.010c0.13 0.458 0.196 0.884 0.196 1.277zM11.222 19.055c0.218-0.761 0.343-1.635 0.343-2.538s-0.125-1.777-0.36-2.606l0.016 0.067c-0.327-1.016-1.081-1.834-2.030-2.195-0.907-0.327-1.955-0.516-3.046-0.516s-2.139 0.189-3.111 0.536l0.065-0.020c-0.998 0.353-1.755 1.164-2.026 2.173l-0.005 0.022c-0.218 0.761-0.343 1.635-0.343 2.538s0.125 1.777 0.36 2.606l-0.016-0.067c0.328 1.015 1.081 1.834 2.031 2.193 0.907 0.327 1.955 0.516 3.046 0.516s2.139-0.189 3.111-0.536l-0.065 0.020c0.977-0.384 1.72-1.18 2.024-2.169l0.006-0.024zM8.274 16.532c0 0.393-0.066 0.852-0.197 1.212-0.183 0.538-0.622 0.945-1.168 1.079l-0.011 0.002c-0.236 0.047-0.508 0.074-0.786 0.074s-0.55-0.027-0.813-0.078l0.027 0.004c-0.575-0.101-1.029-0.523-1.177-1.071l-0.002-0.010c-0.125-0.372-0.196-0.8-0.196-1.245s0.072-0.873 0.205-1.273l-0.008 0.029c0.182-0.539 0.621-0.946 1.168-1.079l0.011-0.002c0.236-0.047 0.508-0.074 0.786-0.074s0.55 0.027 0.813 0.079l-0.027-0.004c0.575 0.101 1.029 0.523 1.177 1.071l0.002 0.010c0.131 0.426 0.197 0.851 0.197 1.277zM8.274 5.232h3.308c0-0.851-0.131-1.703-0.36-2.521-0.327-1.016-1.081-1.834-2.030-2.194-0.907-0.327-1.955-0.516-3.046-0.516s-2.139 0.189-3.111 0.536l0.065-0.020c-1.016 0.392-1.769 1.211-2.032 2.226-0.218 0.761-0.343 1.635-0.343 2.538s0.125 1.777 0.36 2.606l-0.016-0.067c0.328 1.015 1.081 1.834 2.031 2.194 0.982 0.36 1.998 0.492 3.046 0.492s2.063-0.197 3.046-0.492c0.998-0.353 1.754-1.163 2.025-2.172l0.005-0.022c0.033-0.131 0.065-0.295 0.131-0.426l-3.111-1.441c-0.033 0.196-0.065 0.36-0.131 0.557-0.163 0.524-0.622 0.95-1.179 1.081-0.236 0.047-0.508 0.074-0.786 0.074s-0.55-0.027-0.813-0.078l0.027 0.004c-0.574-0.101-1.029-0.523-1.177-1.071l-0.002-0.010c-0.125-0.372-0.196-0.8-0.196-1.245s0.072-0.873 0.205-1.273l-0.008 0.029c0.164-0.524 0.622-0.95 1.179-1.082 0.236-0.047 0.508-0.074 0.786-0.074s0.55 0.027 0.813 0.078l-0.027-0.004c0.575 0.101 1.030 0.523 1.177 1.072l0.002 0.010c0.098 0.425 0.164 0.818 0.164 1.211zM12.695 14.011c-0.226 0.765-0.357 1.644-0.36 2.554v7.435h3.308v-7.468c0-0.393 0.065-0.852 0.196-1.212 0.163-0.524 0.622-0.95 1.18-1.081 0.236-0.047 0.508-0.074 0.786-0.074s0.549 0.027 0.812 0.079l-0.027-0.004c0.575 0.101 1.030 0.523 1.178 1.071l0.002 0.010c0.125 0.372 0.196 0.8 0.196 1.245s-0.072 0.873-0.205 1.273l0.008-0.029c-0.164 0.523-0.623 0.95-1.146 1.080-0.236 0.047-0.508 0.074-0.786 0.074s-0.55-0.027-0.813-0.079l0.027 0.004c-0.099-0.031-0.229-0.064-0.327-0.098l1.113 3.079c1.049 0 2.063-0.197 3.046-0.491 0.998-0.353 1.754-1.163 2.026-2.172l0.005-0.022c0.218-0.761 0.343-1.635 0.343-2.538s-0.125-1.777-0.36-2.606l0.016 0.067c-0.328-1.016-1.081-1.834-2.031-2.195-0.907-0.327-1.955-0.516-3.046-0.516s-2.139 0.189-3.111 0.536l0.065-0.020c-1.016 0.263-1.769 1.082-2.097 2.098z"/>
</svg>