<svg xmlns="http://www.w3.org/2000/svg" version="1.1" width="24" height="24" viewBox="0 0 24 24">
<path d="M2.933 13.467c-0.021-0.249-0.033-0.54-0.033-0.833 0-5.827 4.723-10.55 10.55-10.55s10.55 4.723 10.55 10.55c0 0.012-0 0.023-0 0.035v-0.669c0-6.627-5.373-12-12-12s-12 5.373-12 12 5.373 12 12 12h0.8c-5.512-0.402-9.836-4.958-9.867-10.53l-0-0.003zM19.2 14c-0.004 0-0.009 0-0.014 0-2.126 0-3.85-1.724-3.85-3.85 0-1.653 1.042-3.063 2.504-3.608l0.027-0.009c-1.078-0.588-2.361-0.934-3.724-0.934-0.050 0-0.1 0-0.15 0.001l0.008-0c-4.639 0-8.4 3.761-8.4 8.4s3.761 8.4 8.4 8.4c4.639 0 8.4-3.761 8.4-8.4v0c0.003-0.079 0.005-0.173 0.005-0.266 0-0.472-0.050-0.933-0.146-1.376l0.008 0.043c-0.614 0.97-1.68 1.604-2.895 1.604-0.060 0-0.12-0.002-0.18-0.005l0.008 0z"/>
</svg>