<svg xmlns="http://www.w3.org/2000/svg" version="1.1" width="24" height="24" viewBox="0 0 24 24">
<path d="M21.078 11.251c0.010-0.141 0.021-0.278 0.021-0.419 0-3.883-3.193-7.031-7.135-7.031-2.738-0.010-5.24 1.548-6.441 4.009-0.575-0.442-1.28-0.681-2.007-0.681-1.82 0-3.295 1.45-3.295 3.24 0 0.338 0.053 0.663 0.15 0.967-1.463 0.845-2.367 2.403-2.371 4.093 0 2.602 2.124 4.717 4.759 4.755h14.25c0.090 0 0.18 0.015 0.27 0.015 2.609 0 4.723-2.083 4.723-4.662-0.012-1.886-1.16-3.579-2.91-4.286zM6.44 16.602c-0.479-0.434-0.779-0.959-0.898-1.58-0.041-0.216-0.061-0.434-0.061-0.652 0-0.885 0.322-1.613 0.967-2.188s1.462-0.864 2.455-0.864c1.020 0 1.979 0.383 2.831 1.146 0.21 0.189 0.417 0.404 0.614 0.641l1.091 1.284c0.188 0.259 0.389 0.48 0.6 0.671 0.563 0.504 1.17 0.756 1.686 0.756 0.438 0 0.801-0.135 1.094-0.402 0.248-0.229 0.402-0.539 0.434-0.875l0.008-0.148c0.002-0.141-0.021-0.281-0.064-0.416-0.227-0.619-0.824-1.023-1.484-1.001-0.543 0-1.082 0.183-1.672 0.755l-0.967-1.139-0.105-0.129c0.855-0.829 1.695-1.139 2.834-1.139 1.004 0 1.828 0.284 2.441 0.854l0.016 0.015c0.646 0.569 0.959 1.305 0.959 2.208 0 0.21-0.016 0.435-0.059 0.63-0.121 0.614-0.42 1.124-0.885 1.559-0.477 0.435-1.070 0.717-1.709 0.81-0.225 0.030-0.449 0.045-0.705 0.045-1.033 0-2.008-0.375-2.832-1.124-0.234-0.212-0.449-0.443-0.645-0.689l-1.094-1.275c-0.171-0.244-0.366-0.471-0.585-0.674-0.555-0.51-1.17-0.75-1.709-0.75-0.156 0-0.313 0.021-0.465 0.061-0.235 0.060-0.452 0.178-0.629 0.345-0.279 0.259-0.438 0.623-0.436 1.005 0 0.389 0.135 0.719 0.42 0.988l0.016 0.016c0.3 0.27 0.675 0.404 1.109 0.404 0.555 0 1.094-0.194 1.678-0.764l0.96 1.124 0.104 0.119c-0.869 0.84-1.708 1.154-2.803 1.154-1.004 0-1.828-0.284-2.458-0.854z"/>
</svg>