<svg xmlns="http://www.w3.org/2000/svg" version="1.1" width="24" height="24" viewBox="0 0 24 24">
<path d="M3.489 2.392l-2.208 12.166c0.862-1.684 2.586-2.817 4.574-2.817h0.007c0.002 0 0.005 0 0.007 0 1.080 0 2.080 0.337 2.903 0.911l-0.017-0.011-0.017-0.011c0.391-0.357 0.693-0.806 0.871-1.313l0.007-0.023 0.007-0.023c0.413-1.328-0.787-5.473 3.662-5.538 2.222-0.031 5.068 1.816 4.992 1.805-3.994-0.614-5.263-0.787-6.242 1.115-0.889 1.726-0.657 3.163-1.802 4.24-0.979 0.923-3.32 1.534-4.048 1.383-0.33-0.069 0.837-0.379 1.921-1.136-0.644-0.396-1.424-0.631-2.259-0.631-2.408 0-4.36 1.952-4.36 4.36s1.952 4.36 4.36 4.36c2.292 0 4.171-1.769 4.347-4.016l0.001-0.015 0.001-0.014c0.251 0.145 0.489 0.294 0.711 0.444-0.281 1.798-1.459 3.267-3.054 3.954l-0.067 0.026h9.235c-0.733-1.264-3.514-5.267-9.87-6.403 0.783-0.387 7.589-0.197 13.546 5.381l3.304-18.192zM10.018 3.98c0.592 0.019 1.176 0.177 1.664 0.294 1.338 0.32 2.533 0.674 2.372 0.747-0.033 0.014-0.586-0.064-0.816-0.088-0.178-0.027-0.383-0.043-0.592-0.043-0.343 0-0.676 0.042-0.994 0.121l0.028-0.006 0.028-0.006c-2.099 0.503-2.857 2.962-3 3.183-0.017 0.024-1.186-0.6-1.274-1.826-0.062-0.894 0.258-1.752 1.525-2.224l0.002 0.002c0.273-0.1 0.589-0.158 0.918-0.158 0.049 0 0.098 0.001 0.146 0.004l-0.007-0zM15.407 8.073c0.651-0.008 1.469 0.085 2.505 0.305-0.71 0.421-1.322 0.903-1.864 1.455l-0.001 0.001-0.002 0.002c-1.070 1.098-2.061 2.566-1.691 3.379s2.652 1.826 4.3 2.92c0.852 0.568 1.515 2.559 1.517 2.566-3.11-2.417-5.369-3.097-7.048-4.1-1.971-1.186-0.712-4.058-0.114-5.301 0.342-0.704 0.964-1.209 2.398-1.227zM0.759 17.427l-0.759 4.181h3.904c-1.708-0.717-2.93-2.284-3.143-4.157z"/>
</svg>