<svg xmlns="http://www.w3.org/2000/svg" version="1.1" width="24" height="24" viewBox="0 0 24 24">
<path d="M0 0h24v24h-24zM2.1 21h9v-1.5h-9zM3.3 6.9h0.3c0.7-0.1 1.2-0.7 1.2-1.5v-2.4h-1.1v2.5c0 0.4-0.1 0.5-0.4 0.5s-0.5-0.1-0.6-0.3l-0.7 0.6c0.3 0.5 0.8 0.7 1.3 0.6zM8.3 6.9v-0.9h-2.1v-0.6h1.8v-0.9h-1.8v-0.6h2.1v-0.9h-3.2v4h3.2zM9.6 6.9h1.1v-3h1.2v-0.9h-3.4v0.9h1.2v3zM5.6 10.7c0-0.5-0.3-0.9-0.8-0.9 0.4-0.1 0.6-0.5 0.6-0.9 0-0.2-0.1-0.5-0.2-0.7-0.3-0.3-0.7-0.4-1.1-0.4h-2v3.9h2c0.9 0 1.5-0.4 1.5-1zM3.1 8.7h0.7c0.3 0 0.5 0.1 0.5 0.3 0 0.3-0.2 0.4-0.5 0.4h-0.7zM3.1 10.8v-0.7h0.8c0.4 0 0.6 0.1 0.5 0.3 0 0.2-0.2 0.4-0.5 0.4zM10.5 7.8l-1.5 3.5-0.6-0.9c0.5-0.2 0.8-0.7 0.8-1.2 0-0.3-0.1-0.7-0.3-0.9-0.4-0.4-0.9-0.5-1.3-0.5h-1.9v3.9h1.1v-1.2h0.5l0.8 1.2h1.8l0.3-0.7h1.5l0.3 0.7h1.2l-1.6-4h-1.1zM7.5 9.7h-0.7v-0.9h0.7c0.3 0 0.6 0.1 0.6 0.5 0 0.2-0.2 0.4-0.6 0.4zM11.4 10.2h-0.8l0.4-1.1zM13.3 11.7h1.1v-3.9h-1.1zM17.3 9.9l-1.6-2.1h-1v3.9h1.1v-2.1l1.7 2.2h0.9v-4h-1.1zM20.4 9.3c-0.5-0.1-0.7-0.2-0.7-0.4 0-0.1 0.1-0.2 0.4-0.2 0.4 0 0.8 0.2 1.1 0.4l0.6-0.8c-0.5-0.4-1-0.5-1.6-0.5-0.9 0-1.5 0.6-1.5 1.3 0 0.8 0.6 1 1.5 1.2 0.5 0.1 0.7 0.2 0.7 0.4s-0.2 0.3-0.5 0.3c-0.5 0-0.9-0.2-1.3-0.5l-0.6 0.7c0.5 0.4 1.2 0.6 1.8 0.6 1 0 1.6-0.5 1.6-1.3 0-0.7-0.6-1-1.5-1.2z"/>
</svg>