<svg xmlns="http://www.w3.org/2000/svg" version="1.1" width="24" height="24" viewBox="0 0 24 24">
<path d="M13.722 1.154h0.58c3.74 0 5.483 1.957 6.211 7.174l1.159-0.050-0.155-8.278h-19.033l-0.187 8.278 1.114 0.050c0.193-1.956 0.425-3.010 0.927-4.064 0.888-1.956 2.742-3.11 5.020-3.11h0.811v18.010c0 1.907-0.116 2.509-0.579 2.96-0.386 0.351-1.158 0.502-2.047 0.502h-0.888v1.204h10.581v-1.204h-0.893c-0.883 0-1.66-0.151-2.041-0.502-0.464-0.451-0.58-1.054-0.58-2.96v-18.010zM2 10.875h4.88v4.87h-4.88zM16.932 10.875h4.88v4.87h-4.88z"/>
</svg>