<svg xmlns="http://www.w3.org/2000/svg" version="1.1" width="24" height="24" viewBox="0 0 24 24">
<path d="M6.102 7.021v7.353h0.736v-7.354zM19.757 7.031v7.343h0.735v-7.342zM20.492 11.664l2.479 2.71h1.019l-2.574-2.731 2.584-2.521h-0.987zM16.484 9.028c-0.536 0-0.972 0.125-1.31 0.378-0.337 0.252-0.505 0.609-0.505 1.070 0 0.26 0.049 0.474 0.148 0.642 0.1 0.168 0.226 0.306 0.38 0.415 0.154 0.108 0.328 0.198 0.522 0.267 0.194 0.070 0.39 0.134 0.59 0.19 0.175 0.049 0.342 0.1 0.5 0.152s0.297 0.117 0.418 0.194c0.12 0.077 0.216 0.17 0.286 0.278 0.070 0.109 0.104 0.244 0.104 0.405 0 0.21-0.095 0.388-0.286 0.535-0.19 0.147-0.484 0.221-0.88 0.221-0.609 0-1.104-0.245-1.485-0.735l-0.572 0.504c0.286 0.315 0.59 0.54 0.913 0.678 0.322 0.136 0.693 0.204 1.11 0.204 0.272 0 0.527-0.033 0.766-0.1 0.237-0.064 0.444-0.165 0.626-0.298l-0.005 0.004c0.176-0.13 0.316-0.288 0.419-0.478 0.102-0.189 0.153-0.402 0.153-0.64 0-0.26-0.051-0.474-0.153-0.646-0.105-0.174-0.24-0.319-0.398-0.433l-0.004-0.003c-0.157-0.114-0.337-0.212-0.529-0.284l-0.016-0.005c-0.106-0.044-0.303-0.114-0.502-0.179l-0.092-0.026c-0.161-0.049-0.317-0.1-0.467-0.152-0.152-0.052-0.283-0.114-0.406-0.189l0.009 0.005c-0.109-0.066-0.201-0.15-0.273-0.249l-0.002-0.003c-0.065-0.094-0.104-0.211-0.104-0.337 0-0.007 0-0.014 0-0.021l-0 0.001c0-0.203 0.075-0.371 0.225-0.504s0.413-0.2 0.787-0.2c0.293 0 0.546 0.055 0.759 0.163 0.213 0.109 0.41 0.278 0.594 0.51l0.011 0.010 0.54-0.494c-0.272-0.315-0.556-0.535-0.853-0.661-0.287-0.12-0.621-0.189-0.971-0.189-0.016 0-0.033 0-0.049 0l0.002-0zM1.796 9.069c-0.588 0-1.187 0.095-1.796 0.284v7.626h0.725v-2.72c0.182 0.048 0.364 0.087 0.546 0.115 0.167 0.028 0.359 0.044 0.554 0.044 0.368 0 0.723-0.056 1.057-0.16l-0.025 0.007c0.336-0.102 0.635-0.261 0.898-0.478s0.474-0.494 0.636-0.83c0.16-0.336 0.241-0.739 0.241-1.208 0-0.385-0.067-0.742-0.2-1.071-0.135-0.333-0.329-0.617-0.571-0.85l-0.001-0.001c-0.251-0.237-0.549-0.426-0.88-0.551l-0.018-0.006c-0.35-0.133-0.739-0.2-1.166-0.2zM10.682 9.069c-0.322 0-0.627 0.055-0.914 0.163-0.287 0.11-0.54 0.275-0.756 0.5-0.222 0.235-0.397 0.517-0.51 0.828l-0.005 0.017c-0.126 0.34-0.189 0.74-0.189 1.202 0 0.35 0.052 0.683 0.157 0.998 0.106 0.315 0.263 0.596 0.473 0.84 0.21 0.246 0.473 0.44 0.788 0.583s0.683 0.216 1.103 0.216c0.455 0 0.844-0.068 1.166-0.205s0.605-0.338 0.85-0.604l-0.44-0.462c-0.204 0.224-0.431 0.387-0.683 0.488-0.241 0.097-0.519 0.153-0.811 0.153-0.010 0-0.020-0-0.030-0l0.002 0c-0.554 0-0.992-0.175-1.314-0.526-0.322-0.35-0.493-0.822-0.514-1.417h3.939c0.013-0.904-0.176-1.592-0.568-2.064s-0.973-0.71-1.743-0.71zM10.713 9.689c0.26 0 0.487 0.040 0.683 0.121 0.196 0.080 0.355 0.187 0.478 0.32 0.122 0.133 0.217 0.295 0.284 0.484s0.1 0.392 0.1 0.609h-3.184c0.058-0.426 0.235-0.803 0.496-1.106l-0.002 0.003c0.111-0.126 0.264-0.23 0.456-0.31 0.193-0.080 0.422-0.12 0.689-0.121zM1.86 9.7c0.616 0 1.094 0.188 1.434 0.563 0.34 0.374 0.51 0.866 0.51 1.475 0 0.659-0.185 1.165-0.552 1.518-0.368 0.354-0.863 0.53-1.486 0.53-0.168 0-0.342-0.018-0.52-0.057-0.21-0.045-0.384-0.094-0.554-0.152l0.034 0.010v-3.719c0.182-0.063 0.367-0.107 0.557-0.132 0.189-0.024 0.38-0.036 0.577-0.036zM4.237 16.288v0.692h4.423v-0.692z"/>
</svg>