<svg xmlns="http://www.w3.org/2000/svg" version="1.1" width="24" height="24" viewBox="0 0 24 24">
<path d="M0 0v24h24v-24zM17.889 2.889c1.444 0 2.667 0.444 3.667 1.278l-1.111 1.667c-0.889-0.611-1.722-1-2.556-1s-1.278 0.389-1.278 0.889v0.056c0 0.667 0.444 0.889 2.111 1.333 2 0.556 3.111 1.278 3.111 3v0.056c0 2-1.5 3.111-3.611 3.111-1.5-0.056-3-0.611-4.167-1.667l1.278-1.556c0.889 0.722 1.833 1.222 2.944 1.222 0.889 0 1.389-0.333 1.389-0.944v-0.056c0-0.556-0.333-0.833-2-1.278-2-0.5-3.222-1.056-3.222-3.056v-0.056c0-1.833 1.444-3 3.445-2.999zM1.778 3.111h2.278l1.5 5.778 1.722-5.778h1.667l1.667 5.778 1.5-5.778h2.333l-2.833 9.944h-1.889l-1.611-5.778-1.667 5.778h-1.833zM2.278 19.5h9v1.5h-9z"/>
</svg>