<svg xmlns="http://www.w3.org/2000/svg" version="1.1" width="24" height="24" viewBox="0 0 24 24">
<path d="M22.088 5.499l1.894-1.894-3.587-3.587-1.894 1.894c-1.874-1.21-4.105-1.912-6.501-1.912-6.627 0-12 5.373-12 12 0 2.396 0.702 4.627 1.912 6.501l-1.894 1.894 3.587 3.587 1.894-1.894c1.874 1.21 4.105 1.912 6.501 1.912 6.627 0 12-5.373 12-12 0-2.396-0.702-4.627-1.912-6.501zM4.569 12c0-4.104 3.327-7.431 7.431-7.431 1.125 0 2.191 0.25 3.146 0.698l-9.88 9.88c-0.447-0.956-0.697-2.022-0.697-3.147zM12 19.431c-1.125 0-2.191-0.25-3.146-0.698l9.88-9.88c0.447 0.956 0.698 2.022 0.698 3.146-0.001 4.105-3.328 7.432-7.432 7.432z"/>
</svg>