<svg xmlns="http://www.w3.org/2000/svg" version="1.1" width="24" height="24" viewBox="0 0 24 24">
<path d="M14.547 6.502c-0.077 0.027-0.131 0.098-0.131 0.183 0 0.003 0 0.005 0 0.008v-0 2.396h-3.617c-0.783 0-1.421 0.208-1.887 0.64-0.468 0.436-0.701 1.066-0.701 1.852v3.416c-0.010 0.089-0.024 0.184-0.024 0.285 0 0.482 0.142 0.933 0.417 1.328 0.277 0.4 0.659 0.673 1.115 0.795 0.254 0.070 0.606 0.096 1.092 0.096h1.779c0.86 0 1.529-0.198 1.992-0.617 0.463-0.42 0.687-1.043 0.688-1.828v-8.362c-0.002-0.104-0.086-0.188-0.19-0.19h-0.475c-0.010-0.002-0.021-0.003-0.032-0.003-0.009 0-0.018 0.001-0.027 0.002l0.001-0zM0.2 9.086c-0.007 0-0.014 0.001-0.021 0.002l0.001-0c-0.081 0.024-0.139 0.098-0.139 0.185 0 0.047 0.017 0.090 0.044 0.123l-0-0 3.049 3.915-3.096 3.878c-0.024 0.032-0.039 0.072-0.039 0.116 0 0.107 0.086 0.193 0.193 0.193h0.641c0.002 0 0.003 0 0.005 0 0.060 0 0.113-0.027 0.149-0.070l0-0 2.692-3.416 2.68 3.416c0.036 0.043 0.089 0.070 0.149 0.070 0.002 0 0.004-0 0.005-0h0.629c0.106-0 0.193-0.087 0.193-0.193 0-0.044-0.015-0.084-0.039-0.116l0 0-3.058-3.889 3-3.903c0.024-0.032 0.038-0.072 0.038-0.115 0-0.106-0.086-0.192-0.192-0.193h-0.64c-0.002-0-0.004-0-0.006-0-0.060 0-0.113 0.027-0.149 0.070l-0 0-2.61 3.428-2.644-3.428c-0.036-0.043-0.089-0.070-0.149-0.070-0.002 0-0.004 0-0.005 0h-0.641c-0.010-0.002-0.022-0.003-0.034-0.003-0.002 0-0.004 0-0.006 0h0zM17.186 9.086c-0.007 0-0.014 0.001-0.020 0.002l0.001-0c-0.076 0.027-0.13 0.098-0.13 0.182 0 0.003 0 0.005 0 0.008l-0-0v0.486c0.002 0.104 0.085 0.188 0.189 0.19h4.4c0.541 0 0.913 0.125 1.15 0.357 0.238 0.23 0.37 0.59 0.37 1.115v0.332h-3.844c-0.686 0-1.26 0.21-1.672 0.629s-0.617 0.985-0.617 1.672v1.197c0 0.569 0.17 1.070 0.51 1.459 0.003 0.004 0.008 0.007 0.011 0.012 0.432 0.512 1.060 0.771 1.815 0.771h2.408c0.706 0 1.281-0.21 1.672-0.64 0.386-0.426 0.57-1.010 0.57-1.721v-3.617c0-0.784-0.211-1.41-0.664-1.827-0.453-0.416-1.118-0.605-1.957-0.605h-4.152c-0.009-0.001-0.019-0.002-0.030-0.002-0.004 0-0.007 0-0.011 0l0-0zM10.784 9.965h3.631v5.066c0 0.495-0.143 0.846-0.404 1.104-0.257 0.254-0.655 0.433-1.221 0.498h-0.156c-0.004-0-0.008-0-0.012-0s-0.008 0-0.013 0l0.001-0c-0.042 0.007-0.091 0.011-0.141 0.012h-1.673c-0.683 0-1.13-0.153-1.363-0.381-0.233-0.23-0.381-0.659-0.381-1.34v-3.309c0-0.649 0.234-1.102 0.713-1.424v0.012c0.217-0.142 0.556-0.238 1.019-0.238zM19.267 12.609v0.002h3.867v2.645c0 0.495-0.12 0.828-0.332 1.045s-0.538 0.344-1.022 0.344h-2.467c-0.080-0.001-0.157-0.010-0.232-0.025l0.008 0.001c-0.43-0.075-0.732-0.238-0.926-0.463s-0.297-0.525-0.297-0.937v-1.176c0-0.43 0.108-0.747 0.297-0.973 0.187-0.223 0.47-0.37 0.877-0.437h0.012c0.112-0.017 0.187-0.026 0.215-0.026z"/>
</svg>