<svg xmlns="http://www.w3.org/2000/svg" version="1.1" width="24" height="24" viewBox="0 0 24 24">
<path d="M19.525 15.977v-15.487h-2.059v2.906h-0.064c-0.211-0.455-0.481-0.891-0.842-1.307-0.36-0.412-0.767-0.777-1.232-1.094-0.466-0.314-0.962-0.561-1.519-0.736-0.553-0.169-1.14-0.259-1.771-0.259-1.21 0-2.3 0.225-3.246 0.67-0.947 0.447-1.743 1.057-2.385 1.83s-1.133 1.676-1.47 2.711c-0.336 1.037-0.506 2.129-0.506 3.283 0 1.199 0.141 2.326 0.425 3.382 0.286 1.057 0.737 1.976 1.368 2.762 0.631 0.78 1.412 1.397 2.375 1.833 0.961 0.436 2.119 0.661 3.471 0.661 1.248 0 2.33-0.315 3.262-0.946s1.638-1.473 2.119-2.525h0.061v2.284c0 2.044-0.421 3.607-1.264 4.705-0.84 1.081-2.224 1.638-4.146 1.638-0.572 0-1.128-0.061-1.669-0.181s-1.036-0.315-1.487-0.57c-0.437-0.271-0.827-0.601-1.143-1.038-0.316-0.435-0.526-0.961-0.632-1.593h-2.107c0.067 0.887 0.315 1.654 0.737 2.3 0.424 0.646 0.961 1.172 1.602 1.593 0.641 0.406 1.367 0.706 2.172 0.902 0.811 0.194 1.639 0.3 2.494 0.3 1.383 0 2.541-0.195 3.486-0.555 0.947-0.376 1.714-0.902 2.301-1.608 0.601-0.708 1.021-1.549 1.293-2.556 0.27-1.007 0.42-2.134 0.42-3.367zM12.041 15.42c-0.955 0-1.784-0.189-2.479-0.571-0.697-0.38-1.277-0.882-1.732-1.503-0.467-0.621-0.797-1.332-1.022-2.139s-0.332-1.633-0.332-2.484c0-0.871 0.105-1.725 0.301-2.563 0.21-0.84 0.54-1.587 0.992-2.24s1.037-1.182 1.728-1.584 1.533-0.605 2.51-0.605 1.803 0.209 2.495 0.621c0.676 0.415 1.247 0.959 1.683 1.634 0.436 0.677 0.751 1.429 0.947 2.255s0.285 1.656 0.285 2.482c0 0.852-0.12 1.678-0.345 2.484-0.226 0.807-0.572 1.518-1.038 2.139-0.465 0.621-1.021 1.123-1.698 1.503-0.676 0.382-1.458 0.571-2.359 0.571z"/>
</svg>