<svg xmlns="http://www.w3.org/2000/svg" version="1.1" width="24" height="24" viewBox="0 0 24 24">
<path d="M2.873 24h-0.975c-0.025-0.066-0.049-0.131-0.070-0.197-0.215-0.666-0.594-1.49-0.692-2.154-0.146-0.984 0.78-1.039 1.374-1.465 0.915-0.66 1.635-1.025 2.627-1.621 0.295-0.178 1.182-0.623 1.281-0.828 0.201-0.408-0.345-0.982-0.49-1.301-0.225-0.506-0.345-0.936-0.376-1.434-0.824-0.131-1.455-0.627-1.844-1.185-0.63-0.925-1.066-2.635-0.525-3.936 0.045-0.103 0.254-0.305 0.285-0.463 0.060-0.309-0.105-0.72-0.121-1.049-0.060-1.692 0.285-3.15 1.426-3.66 0.463-1.84 2.113-2.453 3.673-3.367 0.581-0.342 1.224-0.562 1.89-0.807 2.372-0.877 6.028-0.712 7.995 0.783 0.836 0.633 2.176 1.971 2.656 2.939 1.262 2.555 1.17 6.826 0.287 9.935-0.121 0.421-0.291 1.032-0.533 1.533-0.168 0.349-0.689 1.050-0.625 1.36 0.064 0.314 1.189 1.17 1.432 1.395 0.434 0.422 1.26 0.975 1.324 1.5 0.070 0.557-0.248 1.336-0.41 1.875-0.217 0.721-0.436 1.441-0.654 2.131h-18.937zM13.977 20.459c-0.545-0.299-1.361-0.621-2.065-0.756-0.869-0.164-0.779 1.188-0.75 1.994 0.030 0.643 0.361 1.316 0.511 1.744 0.075 0.197 0.089 0.41 0.255 0.449 0.3 0.068 1.29-0.326 1.575-0.479 0.6-0.328 1.064-0.844 1.574-1.189 0.016-0.17 0.016-0.34 0.031-0.508-0.301-0.148-0.645-0.258-1.096-0.277 0.314-0.15 0.75-0.15 1.035-0.332l0.016-0.193c-0.496-0.031-0.689-0.254-1.021-0.436zM21.432 23.395c0.193-0.619 0.359-1.221 0.465-1.752 0.059-0.287 0.215-0.918 0.178-1.176-0.059-0.459-0.684-0.799-1.004-1.086-0.584-0.525-0.951-0.975-1.561-1.469-0.248 0.375-0.779 0.615-0.982 0.914 1.447-0.689 1.709 2.625 1.141 3.689 0.090 0.33 0.391 0.451 0.514 0.736l-0.086 0.166h1.289c0.014 0 0.031 0 0.045 0.014zM14.797 23.383c-0.049-0.074-0.1-0.135-0.15-0.209l-0.301 0.195h0.451zM17.568 23.383c0.008-0.209 0.018-0.404 0.029-0.598-0.529 0.029-0.824-0.48-1.195-0.527-0.324-0.045-0.6 0.361-1.020 0.195-0.096 0.105-0.184 0.227-0.285 0.316 0.154 0.18 0.295 0.375 0.424 0.584h0.816c0.014-0.164 0.135-0.285 0.299-0.285 0.166 0 0.285 0.121 0.285 0.27h0.66zM19.684 23.383c-0.314-0.479-0.947-0.898-1.68-0.555l-0.031 0.541h1.711zM11.174 23.383l-0.105-0.344c-0.225-0.721-0.359-1.26-0.405-1.68-0.914-0.436-1.875-0.871-2.654-1.426-0.15-0.105-1.109-1.35-1.23-1.305-1.739 0.676-3.359 1.859-4.814 2.984 0.256 0.557 0.48 1.141 0.69 1.74h8.505zM19.439 21.27c-0.029-0.512-0.164-1.561-0.48-1.74-0.66-0.391-1.846 0.779-2.34 0.943 0.045 0.15 0.135 0.271 0.15 0.48 0.285-0.074 0.645-0.029 0.898 0.092-0.299 0.029-0.629 0.029-0.824 0.164-0.074 0.195 0.016 0.48-0.029 0.764 0.689 0.197 1.5 0.303 2.385 0.332 0.164-0.227 0.225-0.645 0.211-1.082zM15.359 20.91c-0.045 0.375 0.045 0.51 0.119 0.943 1.26 0.391 1.035-1.74-0.135-0.959zM8.761 19.5c-0.45 0.457 1.271 1.082 1.814 1.115 0-0.291 0.165-0.564 0.135-0.771-0.649-0.117-1.502-0.041-1.945-0.346zM14.326 19.715c0 0.043-0.061 0.029-0.068 0.064 0.58 0.451 1.014 0.545 1.803 0.51 0.354-0.262 0.67-0.563 1.043-0.807-0.855 0.074-1.932 0.607-2.775 0.229zM17.746 1.988c-1.605-0.906-4.35-1.591-6.076-0.731-1.38 0.692-3.27 1.841-3.899 3.292 0.6 1.402-0.166 2.686-0.226 4.109-0.018 0.758 0.36 1.42 0.391 2.243-0.2 0.338-0.825 0.38-1.26 0.356-0.146-0.729-0.401-1.549-1.155-1.631-1.064-0.115-1.845 0.765-1.891 1.684-0.060 1.079 0.834 2.864 2.086 2.745 0.488-0.046 0.608-0.541 1.139-0.541 0.285 0.57-0.445 0.75-0.523 1.155-0.016 0.105 0.059 0.511 0.104 0.705 0.233 0.944 0.744 2.159 1.245 2.88 0.635 0.9 1.884 1.051 3.229 1.141 0.24-0.525 1.125-0.48 1.706-0.346-0.691-0.27-1.336-0.945-1.875-1.529-0.615-0.676-1.23-1.41-1.261-2.28 1.155 1.604 2.1 2.999 4.201 3.704 1.59 0.525 3.449-0.254 4.664-1.109 0.51-0.359 0.811-0.93 1.17-1.439 1.35-1.936 1.98-4.71 1.846-7.395-0.061-1.111-0.061-2.221-0.436-2.955-0.389-0.781-1.695-1.471-2.475-0.781-0.15-0.764 0.629-1.229 1.545-0.959-0.66-0.855-1.336-1.859-2.266-2.385zM13.582 14.896c0.615 1.544 2.725 1.363 4.506 1.323-0.084 0.194-0.256 0.435-0.465 0.515-0.57 0.232-2.146 0.408-2.938-0.012-0.506-0.271-0.824-0.873-1.102-1.227-0.137-0.172-0.795-0.608-0.012-0.609zM13.746 14.025c0.893 0.465 2.52 0.518 3.732 0.48 0.066 0.268 0.066 0.594 0.068 0.914-1.551 0.080-3.387-0.304-3.795-1.395zM20.422 13.44c-0.473 0.9-1.145 1.897-2.539 1.928-0.023-0.284-0.045-0.735 0-0.904 1.064-0.103 1.727-0.646 2.543-1.017zM19.773 12.773c-1.020 0.66-2.154 1.375-3.824 1.21-0.352-0.31-0.486-1.001-0.141-1.458 0.182 0.313 0.061 0.885 0.57 0.969 0.945 0.166 2.039-0.578 2.73-0.84 0.42-0.712-0.045-0.975-0.42-1.432-0.781-0.931-1.83-2.1-1.801-3.51 0.314-0.225 0.346 0.345 0.391 0.449 0.404 0.961 1.424 2.176 2.174 3 0.18 0.211 0.48 0.391 0.51 0.525 0.092 0.389-0.254 0.854-0.209 1.109zM6.333 12.098c-0.314-0.184-0.393-0.99-0.768-1.010-0.535-0.030-0.438 1.049-0.436 1.679-0.37-0.329-0.435-1.364-0.164-1.89-0.308-0.15-0.445 0.165-0.618 0.285 0.22-1.59 2.34-0.734 1.989 0.96zM4.714 5.994c-0.685 0.756-0.54 2.174-0.459 3.188 1.244-0.785 2.898 0.060 2.883 1.395 0.595-0.016 0.223-0.744 0.115-1.215-0.353-1.529 0.592-3.188 0.041-4.59-1.064 0.083-1.939 0.519-2.578 1.214zM13.834 7.107c0.307 0.562 0.404 1.148 0.84 1.57 0.195 0.191 0.574 0.424 0.387 0.951-0.045 0.121-0.365 0.391-0.551 0.45-0.674 0.195-2.254 0.030-1.721-0.81 0.563 0.015 1.314 0.359 1.732-0.045-0.314-0.525-0.885-1.53-0.674-2.13zM20.033 7.094h0.068c0.33 0.668 0.6 1.375 1.004 1.965-0.27 0.629-2.053 1.19-2.023 0.057 0.389-0.17 1.049-0.035 1.395-0.25-0.193-0.556-0.48-1.006-0.434-1.771zM13.105 5.477c-1.422-0.33-2.131 0.592-2.56 1.553-0.384-0.094-0.231-0.615-0.135-0.883 0.255-0.701 1.28-1.633 2.119-1.506 0.359 0.057 0.848 0.386 0.576 0.834zM9.643 1.592c-1.56 0.44-3.56 1.574-4.2 2.974 0.495-0.070 0.84-0.321 1.33-0.351 0.186-0.016 0.428 0.074 0.641 0.015 0.424-0.104 0.78-1.065 1.102-1.409 0.311-0.346 0.685-0.497 0.941-0.811 0.166-0.090 0.408-0.074 0.42-0.33-0.074-0.075-0.15-0.135-0.233-0.105z"/>
</svg>