<svg xmlns="http://www.w3.org/2000/svg" version="1.1" width="24" height="24" viewBox="0 0 24 24">
<path d="M21.55 16.77c0 0.006 0 0.013 0 0.020 0 3.943-3.197 7.14-7.14 7.14-0.007 0-0.014 0-0.021-0h-11.939v-7.16h8.36c3.68-0.013 6.871-2.092 8.475-5.137l0.025-0.053c1.38 1.297 2.24 3.134 2.24 5.172 0 0.006 0 0.013-0 0.019v-0.001zM17.31 10.24c0.414-0.883 0.657-1.918 0.66-3.009v-0.001c0-0.006 0-0.013 0-0.020 0-3.943-3.197-7.14-7.14-7.14-0.011 0-0.021 0-0.032 0h-8.338v14.32h8.35c2.9 0 5.37-1.7 6.5-4.15z"/>
</svg>