<svg xmlns="http://www.w3.org/2000/svg" version="1.1" width="24" height="24" viewBox="0 0 24 24">
<path d="M19.94 1.9l-9.092 11.874 4.598 6.392c-0.764 0.145-1.644 0.228-2.543 0.228-0.006 0-0.012 0-0.018 0h0.001c-2.387 0-4.582-0.577-6.316-1.542l6.556-8.627-6.031-8.311-4.865-0.004 7.57 10.57-4.332 5.66c-1.692-1.266-2.729-2.965-2.729-4.832 0-2.13 1.348-4.042 3.48-5.342l-0.655-0.999c-3.344 1.419-5.564 3.909-5.564 6.743 0 2.432 1.635 4.61 4.212 6.075l-1.765 2.307h1.661l1.299-1.709c1.892 0.83 4.158 1.314 6.592 1.314 0.012 0 0.025 0 0.039 0 1.473 0 2.903-0.183 4.269-0.527l-0.12 0.026 0.65 0.903h4.865l-1.729-2.422c2.47-1.463 4.027-3.595 4.027-5.967 0-2.94-2.39-5.512-5.948-6.9l-0.217 0.311c3.099 1.214 5.195 3.531 5.195 6.188 0 2.202-1.44 4.17-3.698 5.47l-5.153-7.22 7.382-9.658zM12 5.755c-0.586 0-1.212 0.046-1.775 0.1 1.004 1.309 1.836 2.417 2.795 3.676-0.538-1.157-1.644-2.268-1.261-2.839 0.378-0.565 1.075-0.47 1.128-0.47 1.118 0 2.194 0.127 3.2 0.36l0.235-0.324c-1.342-0.348-2.799-0.504-4.322-0.503z"/>
</svg>