<svg xmlns="http://www.w3.org/2000/svg" version="1.1" width="24" height="24" viewBox="0 0 24 24">
<path d="M-0.102 12.53c0.112-6.574 4.715-11.253 10.35-12.010 6.718-0.9 12.371 3.67 13.456 9.735 1.030 5.75-2.13 11.133-7.339 13.263-0.45 0.184-0.697 0.082-0.87-0.373l-2.587-6.728c-0.15-0.392-0.048-0.64 0.34-0.814 1.17-0.532 1.901-1.423 2.095-2.7 0.026-0.16 0.041-0.345 0.041-0.533 0-1.806-1.384-3.29-3.15-3.446l-0.013-0.001c-0.1-0.010-0.215-0.016-0.332-0.016-1.716 0-3.14 1.248-3.415 2.886l-0.003 0.020c-0.253 1.598 0.536 3.084 2.027 3.76 0.464 0.214 0.556 0.418 0.377 0.892l-2.6 6.772c-0.125 0.334-0.4 0.45-0.75 0.315-2.773-1.105-4.984-3.131-6.299-5.693l-0.031-0.067c-1.206-2.383-1.22-4.247-1.297-5.262zM0.91 12.438c0.020 0.32 0.030 0.692 0.063 1.070 0.305 3.48 2.4 6.946 6.34 8.862 0.156 0.073 0.214 0.040 0.272-0.11q1.082-2.84 2.178-5.68c0.063-0.16 0.030-0.231-0.116-0.323-1.53-0.963-2.29-2.348-2.207-4.163 0.048-1.045 0.45-1.96 1.152-2.725 1.452-1.583 3.727-1.927 5.59-0.852 1.337 0.781 2.22 2.209 2.22 3.843 0 0.188-0.012 0.373-0.034 0.555l0.002-0.022c-0.174 1.48-0.934 2.609-2.212 3.378-0.13 0.078-0.17 0.14-0.11 0.29q1.102 2.847 2.187 5.698c0.058 0.15 0.116 0.184 0.27 0.11 1.72-0.802 3.157-1.95 4.265-3.484 1.685-2.333 2.377-4.932 2.048-7.793-0.663-5.687-5.78-10.397-12.368-9.584-5.135 0.63-9.453 4.96-9.54 10.93z"/>
</svg>