<svg xmlns="http://www.w3.org/2000/svg" version="1.1" width="24" height="24" viewBox="0 0 24 24">
<path d="M17.963 14.6v-5.276h1.222v4.204h2.14v1.070zM8.179 11.312l2.98-2.292c0.281 0.228 0.56 0.458 0.841 0.687l-2.827 2.14 0.611 0.535 2.827-2.216c0.281 0.228 0.56 0.458 0.841 0.688-0.323 0.274-1.243 1-2.168 1.721l-0.659 0.495 0.61 0.536 2.83-2.295-0.001-1.986h1.223v4.204h2.216v1.070h-3.362v-1.987c-0.995 0.763-1.987 1.529-2.981 2.292l-2.981-2.292c-0.144 0.729-0.653 1.36-1.312 1.694-0.285 0.147-0.597 0.24-0.915 0.276-0.183 0.022-0.367 0.017-0.551 0.017h-1.885v-5.274h2.174c0.594 0.006 1.138 0.215 1.568 0.561l-0.005-0.004c0.454 0.36 0.778 0.872 0.927 1.43zM4.664 10.395v3.21l0.953-0.001c0.42-0.014 0.791-0.214 1.034-0.52l0.002-0.003c0.236-0.295 0.379-0.673 0.379-1.084 0-0.294-0.073-0.571-0.202-0.814l0.005 0.009c-0.2-0.38-0.548-0.66-0.966-0.764l-0.010-0.002c-0.166-0.040-0.338-0.030-0.507-0.032zM11.82 0h0.337c1.981 0.027 3.838 0.532 5.469 1.404l-0.064-0.031c1.657 0.884 3.036 2.081 4.103 3.524l0.023 0.033c1.412 1.906 2.274 4.294 2.312 6.881l0 0.009v0.36c-0.040 3.114-1.264 5.935-3.242 8.039l0.006-0.006c-2.155 2.297-5.195 3.742-8.574 3.787l-0.008 0h-0.361c-1.497-0.023-2.918-0.317-4.226-0.834l0.081 0.028c-1.673-0.662-3.098-1.625-4.271-2.833l-0.003-0.003c-1.252-1.287-2.221-2.856-2.802-4.603l-0.024-0.085c-0.346-1.039-0.556-2.236-0.576-3.479l-0-0.010v-0.361c0.042-2.388 0.78-4.596 2.019-6.439l-0.027 0.043c1.187-1.773 2.775-3.189 4.641-4.14l0.069-0.032c1.491-0.762 3.247-1.221 5.108-1.252l0.010-0zM11.667 1.23c-2.451 0.072-4.683 0.956-6.45 2.391l0.020-0.016c-1.469 1.19-2.608 2.732-3.294 4.499l-0.025 0.074c-0.44 1.135-0.694 2.448-0.694 3.821 0 1.554 0.327 3.032 0.915 4.369l-0.027-0.070c0.796 1.8 2.006 3.292 3.516 4.4l0.030 0.021c1.343 0.989 2.965 1.679 4.728 1.939l0.058 0.007c1.456 0.209 2.955 0.124 4.376-0.26 2.016-0.556 3.735-1.623 5.069-3.055l0.006-0.006c1.329-1.424 2.278-3.218 2.675-5.212l0.011-0.068c0.125-0.62 0.197-1.333 0.197-2.063 0-0.93-0.116-1.832-0.335-2.694l0.016 0.075c-0.924-3.615-3.587-6.452-7.022-7.604l-0.076-0.022c-0.998-0.337-2.147-0.531-3.341-0.531-0.124 0-0.247 0.002-0.37 0.006l0.018-0z"/>
</svg>