<svg xmlns="http://www.w3.org/2000/svg" version="1.1" width="24" height="24" viewBox="0 0 24 24">
<path d="M8.315 1.735c0.277-0.166 0.554-0.333 0.831-0.443 0.111 0.277 0.277 0.554 0.388 0.83-0.61 0.333-1.219 0.61-1.772 0.997-8.149 4.948-6.9 10.574-3.379 11.077 2.399 0.45 5.343-1.094 7.422-2.326 1.575-0.985 2.99-1.926 2.99-3.046 0-0.713-0.824-1.053-1.495-0.942-2.167 0.542-5.070 3.545-7.477 3.545-1.097 0-1.895-0.842-1.772-1.828 0.154-1.843 1.891-3.229 3.49-4.154 2.585-1.696 6.020-3.199 9.082-3.046 7.647 0.264 12.227 9.815-0.997 18.167-1.501 0.948-3.92 1.99-4.43 2.16-0.222-0.997-0.554-1.994-0.776-2.991 2.421-1.14 3.145-1.281 5.816-3.323 2.243-1.795 4.4-3.917 4.763-6.813 0.055-0.664 0.055-1.274-0.111-1.938-0.901-3.090-5.070-6.275-12.905-1.052-0.815 0.475-2.16 1.436-2.16 2.381 0 0.222 0.166 0.499 0.388 0.554 1.204 0.516 3.881-2.192 6.535-3.102 2.080-0.734 4.175 0.047 4.542 1.884 0.055 0.498 0.055 0.996-0.11 1.44-0.594 1.541-2.025 2.658-3.49 3.6-1.53 0.842-3.087 2.042-6.48 2.935-2.315 0.631-5.267 0.29-6.48-1.772-0.499-0.776-0.72-1.717-0.72-2.603 0.055-1.053 0.277-2.105 0.72-3.047 0.775-1.606 1.938-3.046 3.323-4.209 1.263-1.111 2.679-2.103 4.199-2.93l0.121-0.060z"/>
</svg>