<svg xmlns="http://www.w3.org/2000/svg" version="1.1" width="24" height="24" viewBox="0 0 24 24">
<path d="M15.363 9.438h-3.148c-0.97 0-1.447 0.6-1.447 1.38v2.366c0 0.483-0.228 0.83-0.71 0.83h-2.754c-0.020 0-0.035 0.017-0.035 0.035v0.47c0 0.020 0.010 0.032 0.030 0.032h3.11c0.97 0 1.45-0.597 1.45-1.377v-2.364c0-0.484 0.225-0.832 0.71-0.832h2.782c0.020 0 0.040-0.014 0.040-0.033v-0.475c0-0.020-0.020-0.035-0.028-0.032zM6.096 9.438h-6.058c-0.022 0-0.038 0.017-0.038 0.035v0.477c0 0.020 0.016 0.036 0.038 0.036h5.694c0.48 0 0.71 0.347 0.71 0.83s-0.228 0.83-0.71 0.83h-4.504c-0.7 0-1.227 0.587-1.227 1.366v1.513c0 0.020 0.020 0.037 0.040 0.037h1.030c0.020 0 0.040-0.016 0.040-0.037v-1.513c0-0.48 0.28-0.82 0.68-0.82h4.309c0.97 0 1.444-0.595 1.444-1.375 0-0.778-0.473-1.38-1.448-1.379zM23.55 11.936c-0.015-0.015-0.015-0.040 0-0.056 0.3-0.25 0.45-0.627 0.45-1.062 0-0.778-0.474-1.38-1.446-1.38h-6.057c-0.020 0-0.036 0.018-0.036 0.038v0.475c0 0.020 0.020 0.040 0.040 0.040h5.7c0.48 0 0.715 0.35 0.715 0.83s-0.23 0.83-0.712 0.83h-5.7c-0.020 0-0.036 0.020-0.036 0.040v0.48c0 0.020 0.016 0.034 0.037 0.034h5.7c0.63 0.007 0.71 0.62 0.71 0.93v0.060c0 0.485-0.23 0.833-0.71 0.833h-5.7c-0.020 0-0.036 0.015-0.036 0.034v0.477c0 0.020 0.015 0.037 0.036 0.037h6.050c0.973 0 1.446-0.645 1.446-1.38v-0.057c0-0.47-0.15-0.916-0.451-1.203z"/>
</svg>