<svg xmlns="http://www.w3.org/2000/svg" version="1.1" width="24" height="24" viewBox="0 0 24 24">
<path d="M21.147 3.043c-0.002-0.113-0.069-0.182-0.189-0.191-0.112-0.014-0.288-0.030-0.464-0.042l-0.046-0.003-0.162-0.010c-0.306-0.022-0.684-0.039-1.065-0.046l-0.020-0-0.217-0.005c-0.172-0.003-0.35-0.004-0.532-0.004l-0.189-0.001c-0.295 0-0.601 0.003-0.919 0.010l-0.106 0.003c-0.369 0.008-0.672 0.017-0.975 0.029l0.105-0.003-0.237 0.009c-0.335 0.013-0.676 0.029-1.027 0.049l-0.012 0.001c-0.357 0.021-0.724 0.045-1.095 0.071l-0.275 0.021c-0.304 0.023-0.609 0.048-0.92 0.076l-0.25 0.021c-0.38 0.035-0.766 0.074-1.156 0.115-0.080 0.009-0.161 0.019-0.242 0.027-0.319 0.035-0.641 0.073-0.965 0.113l-0.33 0.042c-0.403 0.051-0.806 0.105-1.212 0.164-0.057 0.008-0.109 0.024-0.157 0.046l0.003-0.001c-0.038 0.019-0.070 0.043-0.097 0.074l-0 0-0.003 0.002c-0.045 0.055-0.047 0.12 0.004 0.179 0.003 0.004 0.002 0.008 0.005 0.012l3.488 3.456-6.629 6.596c-0.069 0.067-0.068 0.165 0 0.251 0.856 1.093 1.44 1.793 2.143 2.492 0.699 0.703 1.398 1.286 2.493 2.143 0.036 0.030 0.081 0.049 0.132 0.051h0c0.047-0 0.089-0.020 0.119-0.051l0-0 6.597-6.629 3.455 3.488c0.025 0.028 0.061 0.046 0.101 0.047h0c0.096 0 0.187-0.118 0.212-0.292 0.746-5.141 0.882-10.051 0.634-12.31zM15.87 24l6.538-6.538-0.006-0.006c0.429-0.456 0.725-1.042 0.82-1.694l0.002-0.017c0.804-5.53 0.903-10.591 0.654-12.952-0.059-0.711-0.367-1.341-0.834-1.812l0 0c-0.472-0.472-1.102-0.786-1.804-0.854l-0.012-0.001c-0.77-0.084-1.752-0.126-2.91-0.126-2.999 0-6.667 0.284-10.063 0.777-0.752 0.107-1.406 0.467-1.885 0.989l-0.002 0.002-6.368 6.369v15.863zM17.398 17.293c-0.151 0-0.563 0.405-0.563 0.613 0 0 0 0 0 0 0 0.055-0.044 0.099-0.099 0.1h-0c-0.055-0.001-0.099-0.045-0.099-0.1 0 0 0 0 0 0v0c0-0.208-0.411-0.613-0.563-0.613-0.055-0.001-0.099-0.045-0.099-0.1 0 0 0 0 0 0v0c0-0.054 0.044-0.098 0.099-0.098 0.152 0 0.563-0.404 0.563-0.614 0-0.055 0.044-0.098 0.099-0.098 0.054 0 0.099 0.043 0.099 0.098 0 0.21 0.412 0.614 0.563 0.614 0.049 0.007 0.086 0.049 0.086 0.099s-0.037 0.092-0.085 0.099l-0.001 0zM5.4 7.045c0.197 0 0.735-0.528 0.735-0.801 0.001-0.071 0.057-0.128 0.128-0.129h0c0.071 0 0.128 0.058 0.128 0.129 0 0.272 0.538 0.801 0.735 0.801 0.071 0 0.128 0.057 0.128 0.128s-0.057 0.128-0.128 0.128v0c-0.197 0-0.735 0.528-0.735 0.801 0 0.071-0.057 0.128-0.128 0.128v0c-0.071 0-0.128-0.057-0.128-0.128v0c0-0.273-0.538-0.801-0.735-0.801-0.071 0-0.128-0.057-0.128-0.128s0.057-0.128 0.128-0.128v0zM1.41 10.305c0-0.065 0.057-0.098 0.119-0.118 0.69-0.228 1.269-0.8 1.403-1.554 0.011-0.064 0.053-0.118 0.118-0.118s0.107 0.054 0.119 0.118c0.133 0.754 0.711 1.326 1.401 1.554 0.062 0.020 0.118 0.053 0.118 0.118s-0.056 0.098-0.118 0.119c-0.69 0.227-1.269 0.799-1.403 1.553-0.011 0.064-0.053 0.119-0.119 0.119-0.065 0-0.106-0.054-0.118-0.119-0.134-0.754-0.713-1.326-1.403-1.553-0.061-0.022-0.117-0.054-0.117-0.119zM2.975 19.612c-0.113 0-0.42 0.302-0.42 0.459 0 0.040-0.034 0.073-0.074 0.073 0 0 0 0 0 0-0.041 0-0.073-0.033-0.074-0.073v-0c0-0.157-0.307-0.459-0.42-0.459 0 0 0 0 0 0-0.041 0-0.073-0.033-0.074-0.073v-0c0-0.039 0.034-0.073 0.074-0.073 0.113 0 0.42-0.302 0.42-0.457 0-0.042 0.033-0.073 0.074-0.073s0.074 0.031 0.074 0.073c0 0.155 0.307 0.457 0.42 0.457 0.040 0 0.073 0.034 0.073 0.073 0 0.040-0.033 0.073-0.073 0.073v0zM3.543 16.565c-0.14 0-0.521 0.375-0.521 0.568 0 0.003 0 0.006 0 0.010 0 0.051-0.041 0.092-0.092 0.092s-0.092-0.041-0.092-0.092c0-0.003 0-0.007 0.001-0.010l-0 0c0-0.193-0.381-0.568-0.521-0.568-0 0-0.001 0-0.001 0-0.050 0-0.090-0.040-0.090-0.090 0 0 0 0 0 0v0c0-0.051 0.041-0.092 0.091-0.092 0.14 0 0.521-0.375 0.521-0.568 0 0 0-0 0-0 0-0.050 0.040-0.090 0.090-0.090 0.001 0 0.001 0 0.002 0h-0c0 0 0.001 0 0.001 0 0.050 0 0.090 0.040 0.090 0.090 0 0 0 0 0 0v0c0 0.193 0.381 0.568 0.521 0.568 0.050 0 0.091 0.041 0.091 0.091s-0.041 0.091-0.091 0.091v0zM6.877 20.947c-0.203 0-0.758 0.546-0.758 0.827 0 0.073-0.060 0.133-0.132 0.133-0.073 0-0.133-0.060-0.133-0.133v0c0-0.281-0.555-0.827-0.758-0.827-0.073-0.001-0.132-0.060-0.133-0.133v-0c0-0.073 0.059-0.132 0.133-0.132 0.204 0 0.758-0.545 0.758-0.828 0-0.071 0.060-0.132 0.133-0.132s0.132 0.061 0.132 0.132c0 0.283 0.555 0.828 0.758 0.828 0.074 0 0.133 0.059 0.133 0.132s-0.060 0.133-0.133 0.133v0zM8.799 20.141c-1.086-0.851-1.869-1.498-2.653-2.287-0.789-0.784-1.436-1.566-2.287-2.654-0.626-0.8-0.566-1.897 0.144-2.607l0.001-0.001 0.002-0.001 5.358-5.331-2.22-2.2c-0.52-0.52-0.7-1.27-0.472-1.958 0.148-0.447 0.464-0.802 0.867-1.049 0.107-0.071 0.229-0.135 0.358-0.185l0.013-0.005c0.135-0.057 0.292-0.103 0.456-0.129l0.012-0.002c0.005 0 0.009-0.003 0.014-0.004 3.354-0.488 6.971-0.768 9.925-0.768h0.002c1.125 0 2.072 0.041 2.818 0.121 0.469 0.046 0.903 0.249 1.228 0.576 0.328 0.331 0.525 0.767 0.562 1.237 0.243 2.311 0.144 7.253-0.651 12.714-0.001 0.010-0.006 0.016-0.007 0.025-0.037 0.22-0.099 0.416-0.186 0.6l0.006-0.014c-0.006 0.014-0.010 0.028-0.018 0.042-0.333 0.699-1.001 1.163-1.771 1.163-0.51 0-0.992-0.2-1.358-0.567l-0.003-0.002-0.004-0.004-2.192-2.215-5.335 5.361c-0.352 0.354-0.838 0.573-1.377 0.573-0.001 0-0.001 0-0.002 0h0c-0.44 0-0.877-0.151-1.231-0.429zM11.375 22.231c-0.139 0-0.518 0.373-0.518 0.566 0 0 0 0 0 0 0 0.050-0.040 0.090-0.090 0.090-0 0-0.001 0-0.001 0h0c-0.050 0-0.090-0.040-0.090-0.090v0c0-0.193-0.379-0.566-0.519-0.566-0.050 0-0.090-0.040-0.090-0.090s0.040-0.090 0.090-0.090v0c0.139 0 0.519-0.373 0.519-0.566 0-0.050 0.040-0.090 0.090-0.090v0c0.050 0 0.091 0.041 0.091 0.090 0 0.193 0.379 0.566 0.518 0.566 0.050 0 0.091 0.039 0.091 0.090s-0.040 0.090-0.091 0.090zM13.49 19.794c0.248 0 0.922-0.662 0.922-1.003 0-0.088 0.072-0.161 0.161-0.161s0.161 0.073 0.161 0.161c0 0.341 0.674 1.003 0.921 1.003 0.089 0 0.161 0.073 0.161 0.161 0 0 0 0.001 0 0.001 0 0.088-0.072 0.16-0.16 0.16-0 0-0.001 0-0.001 0h0c-0.247 0-0.921 0.662-0.921 1.005 0 0 0 0 0 0 0 0.089-0.072 0.161-0.161 0.162h-0c-0.089-0.001-0.161-0.073-0.161-0.162 0 0 0 0 0 0v0c0-0.343-0.674-1.005-0.922-1.005-0.089 0-0.161-0.072-0.161-0.161s0.072-0.161 0.161-0.161v0z"/>
</svg>