<svg xmlns="http://www.w3.org/2000/svg" version="1.1" width="24" height="24" viewBox="0 0 24 24">
<path d="M16.34 0.24l-0.12 2.71c-0 0.002-0 0.005-0 0.008 0 0.099 0.081 0.18 0.18 0.18 0.042 0 0.080-0.014 0.111-0.038l-0 0 1.060-0.8 0.9 0.7c0.028 0.019 0.063 0.030 0.1 0.030 0.096 0 0.175-0.075 0.18-0.17l0-0-0.1-2.76 1.33-0.1c0.024-0.002 0.052-0.003 0.080-0.003 0.663 0 1.2 0.537 1.2 1.2 0 0.001 0 0.002 0 0.003v-0 21.6c0 0 0 0.001 0 0.002 0 0.663-0.537 1.2-1.2 1.2-0.021 0-0.042-0.001-0.063-0.002l0.003 0-16.1-0.72c-0.628-0.027-1.129-0.531-1.15-1.158l-0-0.002-0.75-19.8c-0.001-0.021-0.002-0.047-0.002-0.072 0-0.639 0.499-1.161 1.129-1.198l0.003-0 13.2-0.83zM13.27 9.3c0 0.47 3.16 0.24 3.59-0.080 0-3.2-1.72-4.89-4.86-4.89-3.15 0-4.9 1.72-4.9 4.29 0 4.45 6 4.53 6 6.96 0 0.7-0.32 1.1-1.050 1.1-0.96 0-1.35-0.49-1.3-2.16 0-0.36-3.65-0.48-3.77 0-0.27 4.030 2.23 5.2 5.1 5.2 2.79 0 4.97-1.49 4.97-4.18 0-4.77-6.1-4.64-6.1-7 0-0.97 0.72-1.1 1.13-1.1 0.45 0 1.25 0.070 1.19 1.86z"/>
</svg>