<svg xmlns="http://www.w3.org/2000/svg" version="1.1" width="24" height="24" viewBox="0 0 24 24">
<path d="M20.5 10.562v0.053l-0.004 0.050c-0.090 2.328-0.058 11.357-0.057 11.822 0.002 1.078-0.84 1.943-1.62 1.283l-7.076-5.53c-2.224 2.302-4.358 4.495-4.808 4.925-0.992 0.946-1.81-1.327-1.060-1.808 0.068-0.042 2.254-1.95 4.674-4.050l-5.24-4.095c-0.454-0.355-0.628-0.945-0.368-1.26 0.090-0.085 0.21-0.13 0.332-0.127 0.056 0.002 0.112 0.014 0.165 0.038 1.62 0.72 4.015 2.492 6.4 4.327 2.486-2.15 4.873-4.19 5.186-4.363 0.388-0.214 0.49 0.353 0.36 0.516-0.132 0.166-2.2 2.326-4.467 4.68 2.233 1.73 4.352 3.386 5.69 4.135l0.22-10.62c-0.174-0.207-5.406-7.163-5.973-7.748-0.905 0.782-5.645 6.114-5.884 6.344 1.082 0.108 5.676 0.382 8.57 0.683 0.73 0.070 1.216 0.606-0.35 0.592l-11.26-0.017c-0.176-0.006-0.333-0.11-0.398-0.267-0.066-0.157-0.028-0.336 0.096-0.456 0.060-0.058 8.153-8.923 8.832-9.487 0.154-0.127 0.317-0.188 0.487-0.183 0.23 0.008 0.416 0.144 0.492 0.227 0.084 0.077 4.35 5.94 6.432 8.8 0.498 0.678 0.624 1.137 0.628 1.502z"/>
</svg>