<svg xmlns="http://www.w3.org/2000/svg" version="1.1" width="24" height="24" viewBox="0 0 24 24">
<path d="M0 0v24h24v-24zM14.176 15.794c-0.644 0.584-1.41 0.87-2.31 0.87s-1.664-0.137-2.324-0.406c-0.646-0.27-0.976-0.525-0.976-0.78l-0.076 0.095c0-0.13 0.080-0.324 0.244-0.585 0.163-0.26 0.31-0.39 0.44-0.39 0.014 0 0.12 0.060 0.314 0.184 0.195 0.125 0.472 0.247 0.837 0.372 0.364 0.123 0.804 0.185 1.317 0.185 0.525 0 0.945-0.147 1.275-0.44s0.495-0.69 0.495-1.19-0.15-0.89-0.436-1.17c-0.285-0.28-0.87-0.544-1.74-0.79-0.87-0.25-1.5-0.564-1.89-0.946-0.39-0.386-0.586-0.968-0.586-1.748s0.3-1.435 0.9-1.962c0.6-0.54 1.38-0.795 2.34-0.795 0.675 0 1.26 0.074 1.785 0.254 0.524 0.165 0.78 0.36 0.78 0.555 0 0.164-0.075 0.39-0.226 0.644-0.15 0.27-0.285 0.39-0.39 0.39-0.017 0-0.090-0.045-0.257-0.12-0.435-0.24-0.93-0.36-1.484-0.36s-0.976 0.105-1.29 0.33c-0.3 0.225-0.45 0.525-0.45 0.885s0.12 0.644 0.344 0.854 0.615 0.39 1.17 0.57c1.23 0.375 2.055 0.78 2.49 1.23 0.436 0.45 0.66 1.126 0.66 2.025 0.002 0.9-0.312 1.65-0.956 2.239z"/>
</svg>