<svg xmlns="http://www.w3.org/2000/svg" version="1.1" width="24" height="24" viewBox="0 0 24 24">
<path d="M12.788 15.963l3.872-2.236v-4.47l-3.872 2.235zM13.158 16.177l3.502 2.023v-4.043zM16.449 8.463v-4.043l-3.502 2.020zM12.577 6.655l-3.873 2.236 3.873 2.236 3.872-2.236zM12.206 6.441l-3.502-2.021v4.043zM17.031 9.471v4.042l3.501-2.021zM12.366 15.963v-4.471l-3.872-2.236v4.471zM8.123 9.47l-3.503 2.022 3.502 2.021zM8.493 14.156v4.043l3.502-2.022zM20.007 0.134h-16.028c-2.189 0-3.979 1.768-3.979 3.93v15.832c0 2.161 1.79 3.93 3.979 3.93h10.976l-2.962-7.108-2.15 4.488h-5.863c-0.72 0-1.327-0.6-1.327-1.31v-15.832c0-0.71 0.608-1.31 1.327-1.31h16.028c0.719 0 1.327 0.6 1.327 1.31v15.832c0 0.71-0.608 1.31-1.327 1.31h-3.478l1.092 2.62h2.386c2.188 0 3.979-1.769 3.979-3.93v-15.832c0-2.162-1.79-3.93-3.98-3.93z"/>
</svg>