<svg xmlns="http://www.w3.org/2000/svg" version="1.1" width="24" height="24" viewBox="0 0 24 24">
<path d="M16.214 8.69l6.715-1.679c0.676 1.457 1.071 3.163 1.071 4.961v0c0 6.598-5.431 12.028-12.032 12.028-0.302 0-0.605-0.011-0.907-0.034l4.905-8.347c0.356-0.376 0.655-0.803 0.881-1.271 0.33-0.682 0.523-1.483 0.523-2.33 0-0.881-0.209-1.713-0.58-2.45l0.014 0.031c-0.178-0.346-0.374-0.645-0.597-0.919l0.007 0.009zM12.974 17.265l-2.121 6.682c-6.115-0.602-10.853-5.807-10.853-11.97 0-2.385 0.709-4.717 2.038-6.698l4.834 8.377c0.18 0.539 1.119 2.581 3.067 3.327 0.998 0.382 2.041 0.481 3.035 0.282zM11.973 7.62c-2.006 0.019-3.878 1.544-4.281 3.512-0.053 0.258-0.083 0.554-0.083 0.857 0 1.241 0.505 2.363 1.32 3.174l0 0c1.214 1.186 3.14 1.578 4.734 0.927 1.408-0.576 2.47-1.927 2.691-3.431 0.272-1.856-0.788-3.832-2.495-4.629-0.545-0.26-1.185-0.411-1.86-0.411-0.009 0-0.018 0-0.028 0h0.001zM7.046 9.962l-4.787-4.999c2.214-3.021 5.749-4.962 9.738-4.963h0c4.56 0 8.744 2.592 10.774 6.675h-10.213c-1.811-0.125-3.288 0.52-4.265 1.453-0.527 0.506-0.949 1.117-1.234 1.799l-0.013 0.035z"/>
</svg>