<svg xmlns="http://www.w3.org/2000/svg" version="1.1" width="24" height="24" viewBox="0 0 24 24">
<path d="M0 1.693v4.193h1.828c1.276 0 1.502 0.865 1.502 2.058l0.010 7.412c0 3.84 3.44 6.951 7.68 6.951h10.464c1.342 0 2.516-0.83 2.516-2.108v-11.493c0-3.84-3.44-6.95-7.683-6.95h-4.405v-0.013zM5.723 4.259h2.102v10.561c0 1.413 0.984 2.51 2.139 2.51l7.17 0.030c1.496 0 2.661-1.010 2.661-2.206l-0.012-5.607c0-0.008 0-0.018 0-0.028 0-0.348-0.148-0.662-0.386-0.881l-0.001-0.001c-0.224-0.237-0.54-0.384-0.891-0.384-0.009 0-0.019 0-0.028 0l0.001-0c-0.374 0-0.65 0.12-0.918 0.384-0.238 0.22-0.386 0.534-0.386 0.882 0 0.010 0 0.020 0 0.029l-0-0.001v4.798h-2.223v-4.797c0-0.364-0.124-0.648-0.389-0.91-0.221-0.237-0.535-0.384-0.884-0.384-0.012 0-0.023 0-0.035 0l0.002-0c-0.366 0-0.647 0.12-0.914 0.384-0.265 0.262-0.39 0.546-0.39 0.91v4.798h-2.223v-4.798c0-0.95 0.36-1.792 1.042-2.466 0.625-0.631 1.491-1.022 2.449-1.022 0.013 0 0.025 0 0.038 0l-0.002-0c0.937 0 1.752 0.345 2.413 0.97 0.62-0.6 1.465-0.97 2.398-0.97 0.008 0 0.016 0 0.024 0h-0.001c0.954 0 1.803 0.348 2.485 1.022 0.642 0.617 1.041 1.483 1.041 2.442 0 0.008-0 0.017-0 0.025v-0.001l0.009 5.991c-0.105 1.004-0.539 1.894-1.28 2.637h-0.002c-0.794 0.811-1.899 1.314-3.123 1.314-0.018 0-0.036-0-0.054-0l0.003 0h-7.985v-0.038c-0.976-0.103-1.846-0.519-2.57-1.217-0.845-0.825-1.281-1.846-1.281-3.010z"/>
</svg>