<svg xmlns="http://www.w3.org/2000/svg" version="1.1" width="24" height="24" viewBox="0 0 24 24">
<path d="M23.553 3.102h-8.040v1.488h2.37v2.354h-2.37v0.75h2.37v2.357h-2.37v0.771h2.37v2.229h-2.37v0.893h2.37v2.234h-2.37v0.893h2.37v2.247h-2.37v1.639h8.040c0.127-0.038 0.233-0.188 0.318-0.448 0.085-0.262 0.129-0.475 0.129-0.636v-16.499c0-0.128-0.044-0.205-0.129-0.232-0.085-0.026-0.191-0.040-0.318-0.040zM22.51 19.316h-3.857v-2.245h3.857v2.247zM22.51 16.178h-3.857v-2.235h3.857zM22.51 13.050h-3.857v-2.219h3.857v2.221zM22.51 10.050h-3.857v-2.354h3.857v2.355zM22.51 6.931h-3.857v-2.34h3.857v2.355zM0 2.731v18.601l14.16 2.449v-23.562l-14.16 2.52zM8.393 16.802c-0.054-0.146-0.308-0.766-0.758-1.863-0.449-1.096-0.72-1.734-0.799-1.916h-0.025l-1.519 3.615-2.030-0.137 2.408-4.5-2.205-4.5 2.070-0.109 1.368 3.521h0.027l1.545-3.681 2.139-0.135-2.547 4.87 2.625 4.968-2.299-0.135z"/>
</svg>