<svg xmlns="http://www.w3.org/2000/svg" version="1.1" width="24" height="24" viewBox="0 0 24 24">
<path d="M12 0c-6.617 0-12 5.383-12 12s5.383 12 12 12c6.616 0 12-5.383 12-12s-5.384-12-12-12zM12 1.144c5.995 0 10.856 4.86 10.856 10.856s-4.86 10.856-10.856 10.856-10.856-4.86-10.856-10.856 4.86-10.856 10.856-10.856zM8.37 5.868c-0.039-0.001-0.086-0.001-0.132-0.001-0.102 0-0.204 0.002-0.305 0.007l0.014-0.001c-0.983 0.056-1.573 0.517-1.735 1.472-0.115 0.665-0.096 1.348-0.143 2.017-0.013 0.35-0.050 0.697-0.115 1.038-0.134 0.609-0.397 0.798-1.016 0.83-0.097 0.012-0.18 0.027-0.262 0.045l0.018-0.003v1.463c1.126 0.055 1.278 0.452 1.37 1.629 0.033 0.429-0.013 0.858 0.015 1.287 0.018 0.406 0.073 0.808 0.156 1.2 0.259 1.075 1.307 1.435 2.575 1.218v-1.283c-0.203 0-0.383 0.005-0.558 0-0.43-0.013-0.591-0.12-0.632-0.535-0.056-0.535-0.042-1.080-0.075-1.62-0.064-1.001-0.175-1.988-1.153-2.625 0.503-0.37 0.868-0.812 0.983-1.398 0.083-0.41 0.134-0.821 0.166-1.237 0.028-0.415-0.023-0.84 0.014-1.25 0.060-0.665 0.102-0.937 0.9-0.91 0.12 0 0.235-0.017 0.369-0.027v-1.31c-0.16 0-0.31-0.004-0.454-0.006zM15.963 5.877c-0.028-0.001-0.062-0.001-0.095-0.001-0.254 0-0.502 0.022-0.743 0.065l0.026-0.004v1.274c0.245 0 0.434 0 0.623 0.005 0.328 0.004 0.577 0.13 0.61 0.494 0.032 0.332 0.031 0.669 0.064 1.006 0.065 0.669 0.101 1.347 0.217 2.007 0.102 0.544 0.475 0.95 0.941 1.283-0.817 0.549-1.057 1.333-1.098 2.215-0.023 0.604-0.037 1.213-0.069 1.822-0.028 0.554-0.222 0.734-0.78 0.748-0.157 0.004-0.31 0.018-0.484 0.028v1.305c0.327 0 0.627 0.019 0.927 0 0.932-0.055 1.495-0.507 1.68-1.412 0.078-0.498 0.124-1 0.138-1.504 0.032-0.461 0.028-0.927 0.074-1.384 0.069-0.715 0.397-1.010 1.112-1.057 0.074-0.009 0.142-0.025 0.206-0.048l-0.007 0.002v-1.463c-0.12-0.014-0.204-0.027-0.291-0.032-0.536-0.023-0.804-0.203-0.937-0.71-0.078-0.291-0.132-0.631-0.151-0.98l-0.001-0.013c-0.037-0.618-0.033-1.241-0.074-1.86-0.080-1.192-0.794-1.753-1.887-1.786zM9.073 11.157c-0 0-0.001 0-0.001 0-0.466 0-0.844 0.378-0.844 0.844 0 0.437 0.332 0.797 0.758 0.84l0.004 0h0.055c0.014 0.001 0.031 0.001 0.048 0.001 0.441 0 0.802-0.344 0.828-0.779l0-0.002v-0.046c0-0.004 0-0.008 0-0.013 0-0.467-0.378-0.845-0.845-0.845-0.001 0-0.003 0-0.004 0h0zM11.984 11.157c-0.008-0-0.017-0-0.026-0-0.437 0-0.792 0.346-0.807 0.779l-0 0.001c0 0.027 0 0.050 0.004 0.078 0 0.503 0.342 0.826 0.859 0.826 0.507 0 0.826-0.332 0.826-0.853-0.005-0.503-0.342-0.836-0.855-0.831zM14.947 11.157c-0.005-0-0.010-0-0.015-0-0.466 0-0.846 0.371-0.861 0.834l-0 0.001c0 0.47 0.378 0.849 0.849 0.849h0.009c0.425 0.074 0.853-0.337 0.881-0.83 0.023-0.457-0.392-0.854-0.863-0.854z"/>
</svg>