<svg xmlns="http://www.w3.org/2000/svg" version="1.1" width="24" height="24" viewBox="0 0 24 24">
<path d="M2.13 23.995c5.493-1.808 13.457-6.020 18.996-9.782 0.465-0.314 0.827-0.607 0.827-1.118 0-0.889-1.655-2.080-2.458-2.555-4.359 4.456-13.033 11.134-17.366 13.455zM7.225 20.21c3.388-2.304 8.31-6.638 9.975-8.996 0.393-0.554 0.683-0.876 0.683-1.456 0-0.952-1.128-1.65-1.94-2.135-1.946 4.51-6.316 10.125-8.718 12.587zM9.816 16.682c2.344-2.967 4.188-6.454 4.188-8.958 0-1.308-0.953-2.222-2.196-2.916 0.024 2.721-0.934 9.101-1.992 11.874zM10.312 13.82c0.438-2.847 0.18-6.285-0.379-8.442-0.304-1.174-1.38-2.5-2.376-2.913 1.305 3.643 2.426 8.832 2.755 11.355zM9.347 9.825c-1.026-2.728-3.584-8.415-7.347-9.825 2.45 2.66 6.083 7.935 7.347 9.825z"/>
</svg>