<svg xmlns="http://www.w3.org/2000/svg" version="1.1" width="24" height="24" viewBox="0 0 24 24">
<path d="M16.009 13.386c1.577 0 3.86-0.326 3.86-2.202 0.001-0.016 0.001-0.035 0.001-0.054 0-0.134-0.015-0.264-0.043-0.389l0.002 0.012-0.94-4.080c-0.216-0.898-0.406-1.305-1.982-2.093-1.223-0.625-3.888-1.658-4.676-1.658-0.733 0-0.947 0.946-1.822 0.946-0.842 0-1.467-0.706-2.255-0.706-0.757 0-1.25 0.515-1.63 1.576 0 0-1.060 2.99-1.197 3.424-0.018 0.064-0.029 0.137-0.029 0.213 0 0.011 0 0.022 0.001 0.033l-0-0.002c0 1.162 4.577 4.974 10.71 4.974zM20.11 11.946c0.218 1.032 0.218 1.14 0.218 1.277 0 1.765-1.984 2.745-4.593 2.745-5.895 0.004-11.060-3.451-11.060-5.734 0-0.001 0-0.003 0-0.004 0-0.333 0.070-0.649 0.196-0.936l-0.006 0.015c-2.119 0.106-4.865 0.485-4.865 2.908 0 3.969 9.405 8.861 16.851 8.861 5.71 0 7.149-2.582 7.149-4.62 0-1.605-1.387-3.425-3.887-4.512z"/>
</svg>