<svg xmlns="http://www.w3.org/2000/svg" version="1.1" width="24" height="24" viewBox="0 0 24 24">
<path d="M11.056 0.006c-0.056 0.006-0.236 0.027-0.398 0.041-2.308 0.242-4.581 1.219-6.434 2.771-0.502 0.444-0.961 0.903-1.39 1.388l-0.015 0.017c-1.535 1.833-2.432 3.89-2.762 6.325-0.074 0.54-0.074 2.364 0 2.904 0.331 2.435 1.228 4.492 2.762 6.325 0.444 0.502 0.903 0.961 1.388 1.39l0.017 0.015c1.833 1.535 3.89 2.432 6.325 2.762 0.54 0.074 2.364 0.074 2.904 0 2.435-0.331 4.492-1.228 6.325-2.762 0.502-0.444 0.961-0.903 1.39-1.388l0.015-0.017c1.535-1.833 2.432-3.89 2.762-6.325 0.074-0.54 0.074-2.364 0-2.904-0.331-2.435-1.228-4.492-2.762-6.325-0.444-0.502-0.903-0.961-1.388-1.39l-0.017-0.015c-1.827-1.529-3.905-2.438-6.307-2.76-0.26-0.035-0.637-0.050-1.337-0.056-0.132-0.002-0.287-0.004-0.443-0.004-0.223 0-0.446 0.003-0.668 0.008l0.033-0.001zM11.203 1.281c0 0.345 0.024 1.095 0.056 1.806 0.018 0.348 0.038 0.847 0.047 1.107 0.032 0.921 0.13 3.338 0.145 3.553l0.015 0.215-0.133-0.015c-0.056-0.003-0.108-0.014-0.156-0.033l0.003 0.001c-0.023-0.135-0.038-0.292-0.041-0.452l-0-0.003c-0.034-0.377-0.122-2.369-0.202-4.364l-0.043-1.359-0.018-0.655 0.083-0.012c0.044-0.006 0.118-0.015 0.165-0.018l0.080-0.003zM14.028 1.21c0.003 0.003 0.012 0.894 0.021 1.98 0.012 1.089 0.027 2.066 0.035 2.172 0.009 0.109 0.006 0.204-0.009 0.21-0.024 0.005-0.051 0.007-0.080 0.007s-0.056-0.003-0.082-0.008l0.003 0-0.136-0.012-0.021-0.859-0.032-1.172c-0.024-0.522-0.044-2.296-0.027-2.34 0.012-0.032 0.044-0.035 0.168-0.015 0.086 0.018 0.156 0.032 0.16 0.036zM7.201 2.199c0.018 0.027 0.156 1.653 0.328 3.781 0.056 0.723 0.112 1.384 0.121 1.467 0.015 0.151 0.012 0.156-0.083 0.215-0.034 0.023-0.073 0.043-0.114 0.058l-0.004 0.001c-0.009 0-0.027-0.077-0.035-0.171-0.041-0.384-0.201-2.237-0.313-3.577-0.065-0.788-0.124-1.493-0.133-1.57-0.015-0.13-0.012-0.142 0.065-0.183 0.094-0.050 0.148-0.059 0.168-0.021zM15.326 2.792c0.083 0.030 0.091 0.044 0.109 0.213 0.030 0.295 0.021 1.706-0.012 1.706-0.086 0-0.263-0.1-0.277-0.156-0.012-0.222-0.019-0.482-0.019-0.743 0-0.066 0-0.131 0.001-0.197l-0 0.010c0-0.959-0.012-0.903 0.198-0.833zM9.875 2.931c0 0.080 0.021 0.519 0.044 0.983l0.062 1.305c0.021 0.514 0.027 0.496-0.171 0.508-0.097 0.003-0.097 0.003-0.103-0.145-0.006-0.083-0.021-0.339-0.038-0.576-0.015-0.236-0.050-0.747-0.074-1.136s-0.053-0.776-0.062-0.859c-0.018-0.148-0.015-0.153 0.065-0.183 0.054-0.019 0.117-0.031 0.182-0.032l0.001-0c0.094-0.003 0.094-0.003 0.094 0.135zM18.062 3.335l0.1 0.041 0.021 0.395c0.009 0.215 0.015 0.682 0.009 1.033l-0.009 0.643-0.124-0.062-0.124-0.059-0.009-0.98c-0.006-0.54-0.003-0.998 0.003-1.018 0.012-0.044 0.012-0.044 0.133 0.007zM12.673 3.722c0.018 0.018 0.059 1.449 0.062 2.175l0.003 0.437-0.139-0.021c-0.056-0.005-0.107-0.012-0.156-0.022l0.008 0.001c-0.009-0.006-0.097-2.193-0.097-2.405v-0.218l0.151 0.018c0.062 0.006 0.119 0.018 0.173 0.037l-0.005-0.002zM19.47 3.931c0.035 0.041 0.041 0.688 0.050 4.253 0.009 4.094 0.009 4.2-0.044 4.2-0.039-0.003-0.074-0.017-0.104-0.038l0.001 0c-0.044-0.032-0.050-0.39-0.065-3.887-0.006-1.598-0.019-3.098-0.038-4.598l0.003 0.321-0.018-0.425 0.086 0.062c0.050 0.035 0.106 0.086 0.129 0.112zM16.823 4.537c0.015 0.012 0.030 0.18 0.032 0.372 0.015 0.652 0.018 4.651 0.003 4.663-0.006 0.006-0.059-0.009-0.118-0.032l-0.106-0.044v-5.020l0.083 0.018c0.044 0.012 0.092 0.030 0.106 0.043zM8.677 4.702c0.009 0.080 0.024 0.26 0.032 0.407l0.047 0.732c0.035 0.519 0.030 0.552-0.139 0.552-0.089 0-0.1-0.009-0.112-0.097-0.030-0.174-0.133-1.626-0.118-1.65 0.069-0.040 0.15-0.068 0.236-0.080l0.003-0c0.018-0.003 0.041 0.059 0.051 0.136zM3.795 5.454l0.145 1.455c0.050 0.487 0.092 0.9 0.092 0.918 0 0.035-0.227 0.148-0.251 0.124-0.071-0.451-0.181-1.393-0.277-2.339l-0.033-0.406c0-0.071 0.227-0.369 0.257-0.336 0.009 0.006 0.038 0.269 0.067 0.584zM15.367 5.764l0.086 0.050 0.003 0.638c0.003 0.348 0.009 0.738 0.009 0.865 0.006 0.266-0.027 0.31-0.186 0.254l-0.091-0.032v-0.254c0-0.142-0.009-0.552-0.021-0.915l-0.018-0.655h0.068c0.056 0.007 0.107 0.024 0.152 0.050l-0.002-0.001zM5.091 6.909l0.195 2.125 0.1 1.092-0.115 0.115-0.112 0.115-0.021-0.233c-0.012-0.13-0.071-0.732-0.133-1.34s-0.151-1.49-0.195-1.96l-0.083-0.85 0.115-0.106c0.103-0.097 0.115-0.1 0.136-0.047 0.012 0.030 0.062 0.519 0.113 1.089zM2.88 7.267c0.065 0.581 0.236 2.128 0.384 3.435s0.286 2.568 0.313 2.804c0.024 0.236 0.065 0.593 0.089 0.797 0.041 0.345 0.041 0.369-0.006 0.404-0.071 0.053-0.1 0.047-0.1-0.015 0-0.027-0.027-0.251-0.059-0.493-0.053-0.404-0.142-1.089-0.339-2.627-0.041-0.31-0.121-0.927-0.177-1.372 0.135 1.43 0.004 0.447-0.123-0.536l-0.246-2.336c-0.053-0.401-0.086-0.759-0.077-0.797 0.021-0.080 0.195-0.357 0.213-0.339 0.006 0.009 0.065 0.49 0.128 1.075zM1.977 8.539l0.183 1.44c0.056 0.437 0.127 0.983 0.159 1.21l0.056 0.413-0.062 0.053c-0.035 0.030-0.071 0.041-0.083 0.030s-0.035-0.13-0.053-0.26-0.127-0.888-0.245-1.682l-0.21-1.446 0.068-0.201c0.019-0.075 0.048-0.141 0.085-0.201l-0.002 0.003c0.012 0 0.056 0.289 0.104 0.641zM18.18 8.152c0.041 0.041 0.047 0.224 0.047 1.579v1.532h-0.083c-0.18 0-0.177 0.044-0.189-1.632l-0.009-1.526h0.094c0.050 0 0.115 0.021 0.14 0.047zM11.72 8.68c0.667 0.1 1.248 0.286 1.824 0.581 0.372 0.192 0.549 0.325 0.962 0.72 0.614 0.587 0.992 1.101 1.346 1.827 0.516 1.057 0.717 1.992 0.971 4.501 0.115 1.124 0.266 3.164 0.298 3.999 0.009 0.242 0.030 0.64 0.047 0.885 0.032 0.519 0.071 0.449-0.387 0.67-0.635 0.307-1.245 0.519-2.051 0.717-0.986 0.242-1.623 0.319-2.597 0.322l-0.708 0.003 0.006-0.339c0-0.186 0.018-0.62 0.035-0.959 0.089-1.644 0.071-3.719-0.044-4.87-0.065-0.661-0.192-1.464-0.263-1.641-0.015-0.038 0.053-0.071 0.345-0.171 0.534-0.186 0.998-0.419 1.068-0.534 0.127-0.218-0.1-0.531-0.39-0.531-0.050 0-0.201 0.053-0.339 0.115-0.661 0.304-1.986 0.661-2.751 0.741-0.191 0.017-0.413 0.026-0.637 0.026-0.453 0-0.896-0.039-1.328-0.113l0.046 0.007c-0.31-0.056-0.865-0.266-1.328-0.505-0.534-0.277-0.862-0.646-0.959-1.083-0.053-0.236-0.038-0.708 0.030-0.974 0.074-0.292 0.28-0.717 0.469-0.965 0.841-1.107 2.577-2.066 4.356-2.402 0.324-0.056 0.698-0.088 1.079-0.088 0.317 0 0.629 0.022 0.935 0.065l-0.035-0.004zM20.825 8.772c0.106 0.044 0.118 0.056 0.118 0.156 0.006 0.806-0.012 2.647-0.027 2.724-0.003 0.027-0.156 0.030-0.221 0.006-0.041-0.015-0.047-0.174-0.047-1.476 0-0.933 0.012-1.458 0.030-1.458 0.015 0 0.083 0.021 0.147 0.048zM22.114 10.392l0.106 0.044-0.021 2.444c-0.024 3.114-0.027 3.205-0.139 3.474-0.183 0.44-0.174 0.528-0.156-1.402 0.006-0.965 0.021-1.942 0.027-2.169s0.012-0.868 0.015-1.426c0-0.673 0.009-1.009 0.030-1.009 0.018 0 0.080 0.021 0.138 0.044zM4.365 11.127c0.018 0.239 0.012 0.263-0.074 0.452l-0.094 0.201-0.035-0.295c-0.056-0.472-0.056-0.493 0.056-0.564 0.050-0.035 0.103-0.059 0.112-0.053s0.027 0.124 0.035 0.259zM2.541 12.907c0.027 0.242 0.233 1.848 0.339 2.636 0.159 1.219 0.171 1.393 0.1 1.319-0.046-0.213-0.098-0.523-0.14-0.837l-0.008-0.075c-0.46-3.182-0.457-3.161-0.419-3.185 0.080-0.053 0.106-0.024 0.128 0.142zM4.666 14.258c0.018 0.074 0.103 0.874 0.103 0.971 0 0.083-0.106 0.159-0.153 0.112-0.015-0.015-0.053-0.266-0.083-0.555l-0.074-0.676-0.018-0.148 0.103 0.118c0.049 0.051 0.090 0.109 0.12 0.174l0.002 0.004zM7.048 15.371c0.032 0.030 0.053 0.148 0.080 0.466 0.044 0.576 0.050 0.531-0.071 0.531-0.124 0-0.121 0.009-0.162-0.511-0.041-0.528-0.041-0.522 0.038-0.522 0.038 0 0.089 0.018 0.115 0.036zM9.385 15.415c0.006 0.030 0.021 0.207 0.032 0.393 0.009 0.186 0.035 0.605 0.059 0.93 0.083 1.192 0.086 1.343 0.035 1.343-0.056 0-0.062-0.044-0.127-0.885-0.044-0.653-0.079-1.074-0.117-1.494l0.020 0.275c-0.027-0.322-0.044-0.59-0.035-0.596 0.032-0.035 0.118-0.009 0.133 0.034zM3.837 15.982c0.018 0.027 0.13 0.971 0.269 2.261 0.041 0.39 0.083 0.764 0.091 0.835l0.015 0.127-0.074-0.047c-0.047-0.027-0.077-0.076-0.077-0.133 0-0.004 0-0.008 0-0.012l-0 0.001c0-0.186-0.127-1.411-0.224-2.16-0.056-0.425-0.1-0.8-0.1-0.835 0-0.062 0.071-0.086 0.1-0.036zM20.869 17.216l-0.021 1.234-0.074 0.109c-0.168 0.248-0.159 0.295-0.151-1.086l0.006-1.266 0.109-0.112c0.037-0.042 0.080-0.078 0.128-0.108l0.002-0.001c0.009 0 0.009 0.555 0.001 1.23zM18.139 19.172c0.015 1.715 0.012 1.848-0.035 1.901-0.030 0.032-0.056 0.053-0.065 0.044-0.021-0.024-0.050-3.763-0.027-3.784 0.012-0.012 0.041-0.018 0.068-0.015 0.038 0.009 0.047 0.218 0.059 1.854zM8.5 17.998c0.021 0.183 0.094 1.060 0.124 1.473 0.018 0.277 0.018 0.286-0.047 0.307-0.035 0.012-0.077 0.009-0.089-0.006-0.021-0.021-0.086-0.676-0.165-1.685l-0.021-0.242h0.091c0.086 0 0.091 0.006 0.107 0.153zM6.18 19.031c0.021 0.021 0.035 0.094 0.035 0.168 0 0.077 0.035 0.475 0.074 0.888 0.112 1.13 0.121 1.284 0.071 1.254-0.077-0.044-0.145-0.112-0.13-0.13-0.001-0.117-0.012-0.23-0.032-0.34l0.002 0.012c-0.021-0.171-0.047-0.449-0.059-0.62s-0.038-0.484-0.062-0.694c-0.056-0.516-0.053-0.576 0.012-0.576 0.030 0 0.068 0.015 0.089 0.038zM7.576 21.017c0.009 0.065 0.027 0.307 0.038 0.537 0.021 0.443 0.012 0.475-0.109 0.384-0.035-0.027-0.059-0.139-0.094-0.475-0.062-0.608-0.065-0.584 0.050-0.573 0.086 0.009 0.097 0.021 0.115 0.127zM6.522 10.094c-0.307 0.133-0.331 0.549-0.041 0.697 0.21 0.106 0.422 0.056 0.531-0.127 0.039-0.060 0.063-0.133 0.063-0.212 0-0.216-0.175-0.392-0.392-0.392-0.058 0-0.113 0.013-0.163 0.035l0.002-0.001zM8.523 10.377c-0.128 0.081-0.212 0.223-0.212 0.384s0.084 0.302 0.21 0.382l0.002 0.001c0.28 0.168 0.643-0.053 0.643-0.39 0-0.325-0.372-0.543-0.643-0.377z"/>
</svg>