<svg xmlns="http://www.w3.org/2000/svg" version="1.1" width="24" height="24" viewBox="0 0 24 24">
<path d="M18.22 11.66c0.059 0.004 0.128 0.007 0.198 0.007 1.422 0 2.608-1.008 2.884-2.349l0.003-0.019c-0.349-0.533-0.944-0.881-1.62-0.881-0 0-0.001 0-0.001 0h0c-0.013-0-0.029-0.001-0.044-0.001-1.067 0-1.932 0.865-1.932 1.932 0 0.506 0.195 0.967 0.514 1.312l-0.001-0.001zM11.334 3.522l4.021-2.327-1.28-0.722-5.543 3.21 0.441 0.248 0.84 0.47zM15.87 0.98c0.068 0.022 0.12 0.074 0.142 0.139l0 0.002 1.863 5.695c0.008 0.021 0.012 0.046 0.012 0.071 0 0.079-0.042 0.148-0.105 0.186l-0.001 0.001c-1.128 0.672-1.871 1.886-1.871 3.273 0 0.355 0.049 0.698 0.14 1.024l-0.006-0.027c0.456 1.625 1.923 2.797 3.665 2.797 0.136 0 0.269-0.007 0.401-0.021l-0.016 0.001c0.102-0.008 0.2 0.055 0.231 0.152l1.922 5.852c0.007 0.020 0.011 0.044 0.011 0.068 0 0.079-0.041 0.149-0.104 0.189l-0.001 0.001-5.894 3.578c-0.028 0.016-0.060 0.027-0.095 0.029l-0.001 0c-0.010 0.002-0.022 0.003-0.034 0.003-0.045 0-0.086-0.013-0.121-0.036l0.001 0.001-2.074-1.348c-0.036-0.024-0.064-0.057-0.081-0.096l-0.001-0.001-4.046-9.672-6.165 3.657c-0.011 0.008-0.025 0.015-0.039 0.020l-0.001 0.001c-0.025 0.011-0.054 0.018-0.085 0.018-0.041 0-0.080-0.012-0.112-0.033l0.001 0.001-1.394-0.82c-0.066-0.038-0.11-0.108-0.11-0.188 0-0.036 0.009-0.070 0.024-0.099l-0.001 0.001 5.965-11.812c0.022-0.044 0.058-0.078 0.101-0.098l0.001-0.001 5.968-3.456c0.032-0.020 0.071-0.031 0.113-0.031 0.039 0 0.075 0.010 0.107 0.028l-0.001-0.001zM9.63 4.805l-1.45-0.817-5.77 11.422 1.047 0.617 4.972-6.761c0.040-0.056 0.104-0.092 0.177-0.092 0.010 0 0.019 0.001 0.028 0.002l-0.001-0c0.079 0.008 0.146 0.060 0.176 0.133l5.421 12.971 1.45 0.939-5.803-17.67zM19.684 12.723c-0 0-0.001 0-0.001 0-1.311 0-2.373-1.062-2.373-2.373s1.062-2.373 2.373-2.373c0.655 0 1.248 0.265 1.677 0.694l-0-0c0.429 0.429 0.694 1.021 0.694 1.676 0 0 0 0 0 0v-0c0 0.002 0 0.004 0 0.006 0 1.309-1.061 2.37-2.37 2.37 0 0 0 0 0 0v0z"/>
</svg>