<svg xmlns="http://www.w3.org/2000/svg" version="1.1" width="24" height="24" viewBox="0 0 24 24">
<path d="M6.396 0l-5.346 0.002v5.346h5.347zM12.336 2.697c-1.033 0-1.959 0.1-2.791 0.291v3.783c0.645-0.374 1.471-0.568 2.5-0.568 1.001 0 1.838 0.17 2.514 0.508 1.010 0.512 1.555 1.375 1.629 2.59h4.056c-0.073-2.147-0.874-3.783-2.394-4.912-1.522-1.127-3.36-1.692-5.514-1.692zM4.496 8.51c-0.010 0.16-0.023 0.322-0.023 0.488 0 1.982 0.679 3.438 2.040 4.371 0.806 0.558 2.281 1.072 4.43 1.547l2.186 0.482c1.28 0.274 2.215 0.589 2.805 0.946 0.59 0.365 0.884 0.882 0.884 1.549 0 1.142-0.603 1.922-1.806 2.341-0.635 0.22-1.458 0.33-2.475 0.33-1.697 0-2.896-0.417-3.596-1.248-0.382-0.457-0.638-1.147-0.767-2.070h-4.030c0 2.102 0.762 3.754 2.286 4.955 1.523 1.201 3.612 1.799 6.27 1.799 2.603 0 4.619-0.609 6.045-1.828s2.14-2.751 2.14-4.596c0-1.8-0.601-3.173-1.804-4.125-0.776-0.611-1.94-1.102-3.494-1.467l-3.543-0.836c-1.367-0.319-2.264-0.596-2.686-0.835-0.655-0.356-0.982-0.894-0.982-1.616 0-0.065 0.017-0.124 0.021-0.187zM21.92 21.844c-0.575 0.026-1.031 0.498-1.031 1.076s0.456 1.050 1.028 1.076l0.002 0c0.575-0.026 1.031-0.498 1.031-1.076s-0.456-1.050-1.028-1.076l-0.002-0zM21.906 22.021c0.002-0 0.005-0 0.007-0s0.005 0 0.007 0h-0c0.473 0.028 0.846 0.419 0.846 0.897s-0.373 0.868-0.844 0.896l-0.002 0c-0.476-0.024-0.854-0.417-0.854-0.897 0-0.475 0.369-0.865 0.837-0.896l0.003-0zM21.486 22.279v1.272h0.221v-0.49h0.248l0.256 0.49h0.234v-0.010l-0.285-0.531c0.071-0.028 0.13-0.074 0.173-0.132l0.001-0.001c0.038-0.056 0.060-0.124 0.060-0.198 0-0.005-0-0.010-0-0.015l0 0.001c0-0.001 0-0.002 0-0.003 0-0.059-0.012-0.115-0.034-0.166l0.001 0.003c-0.020-0.048-0.050-0.089-0.088-0.121l-0-0c-0.041-0.033-0.089-0.058-0.141-0.073l-0.003-0.001c-0.054-0.015-0.117-0.024-0.182-0.024-0.005 0-0.009 0-0.014 0h0.001zM21.707 22.457h0.227c0.001-0 0.003-0 0.004-0 0.037 0 0.072 0.006 0.105 0.017l-0.002-0.001c0.055 0.016 0.098 0.056 0.117 0.108l0 0.001c0.009 0.026 0.015 0.056 0.015 0.088s-0.005 0.062-0.016 0.090l0.001-0.002c-0.011 0.026-0.027 0.048-0.047 0.066l-0 0c-0.020 0.019-0.044 0.034-0.071 0.045l-0.001 0c-0.030 0.010-0.064 0.016-0.099 0.016-0.002 0-0.004-0-0.006-0h-0.227z"/>
</svg>