<svg xmlns="http://www.w3.org/2000/svg" version="1.1" width="24" height="24" viewBox="0 0 24 24">
<path d="M16.688 17.969c0.388-0.272 1.274 0.325 1.98 1.332s0.963 2.044 0.574 2.316c-0.388 0.272-1.275-0.325-1.98-1.332s-0.963-2.044-0.574-2.316zM7.404 17.969c-0.388-0.272-1.274 0.325-1.98 1.332s-0.963 2.044-0.574 2.316c0.388 0.272 1.275-0.325 1.98-1.332s0.963-2.044 0.574-2.316zM12.041 19.547c-0.474 0-0.858 0.997-0.858 2.227s0.384 2.227 0.858 2.227 0.858-0.997 0.858-2.227-0.384-2.227-0.858-2.227zM16.688 6.031c0.388 0.272 1.274-0.325 1.98-1.332s0.963-2.044 0.574-2.316c-0.388-0.272-1.275 0.325-1.98 1.332s-0.963 2.044-0.574 2.316zM7.404 6.031c-0.388 0.272-1.274-0.325-1.98-1.332s-0.963-2.044-0.574-2.316c0.388-0.272 1.275 0.325 1.98 1.332s0.963 2.044 0.574 2.316zM12.041 4.453c-0.474 0-0.858-0.997-0.858-2.227s0.384-2.227 0.858-2.227 0.858 0.997 0.858 2.227-0.384 2.227-0.858 2.227zM0.471 9.066h1.653v2.325h1.864v-2.325h1.653v6.245h-1.653v-2.479h-1.864v2.479h-1.653zM7.023 9.066h4.035v1.384h-2.383v0.98h2.037v1.384h-2.037v1.115h2.479v1.384h-4.131zM12.365 9.066h1.653v4.862h2.364v1.384h-4.016zM17.457 9.066h1.71l0.98 2.594 0.346 1.018h0.038l0.346-1.018 0.942-2.594h1.71v6.245h-1.537v-1.845c0-0.16 0.008-0.336 0.024-0.528s0.034-0.389 0.053-0.591 0.042-0.399 0.067-0.591c0.026-0.192 0.048-0.365 0.067-0.519h-0.038l-0.519 1.46-0.865 2.104h-0.615l-0.865-2.104-0.5-1.46h-0.038l0.067 0.519c0.025 0.192 0.048 0.389 0.067 0.591s0.037 0.399 0.053 0.591 0.024 0.368 0.024 0.528v1.845h-1.518z"/>
</svg>