<svg xmlns="http://www.w3.org/2000/svg" version="1.1" width="24" height="24" viewBox="0 0 24 24">
<path d="M12.51 13.214c0.046-0.8 0.438-1.506 1.030-2.006 0.589-0.492 1.353-0.79 2.188-0.79 0.009 0 0.017 0 0.026 0h-0.001c0.85 0 1.631 0.3 2.211 0.79 0.592 0.5 0.983 1.206 1.028 2.005 0.045 0.823-0.285 1.586-0.865 2.153-0.607 0.581-1.432 0.938-2.341 0.938-0.012 0-0.023-0-0.035-0l0.002 0c-0.010 0-0.022 0-0.034 0-0.909 0-1.734-0.357-2.344-0.939l0.001 0.001c-0.58-0.567-0.91-1.33-0.865-2.152zM7.35 14.831c0.006 0.314 0.106 0.922 0.256 1.398 0.345 1.071 0.89 1.992 1.598 2.762l-0.005-0.005c0.765 0.839 1.693 1.515 2.735 1.98l0.052 0.021c1.062 0.48 2.303 0.76 3.609 0.76 0.018 0 0.036-0 0.054-0l-0.003 0c0.005 0 0.011 0 0.018 0 1.318 0 2.569-0.284 3.696-0.795l-0.056 0.023c1.093-0.491 2.020-1.169 2.779-2.003l0.006-0.007c0.701-0.767 1.247-1.69 1.577-2.709l0.015-0.053c0.203-0.624 0.32-1.342 0.32-2.087 0-0.348-0.026-0.69-0.075-1.024l0.005 0.038c-0.152-1.046-0.51-1.984-1.033-2.808l0.017 0.029c-0.504-0.799-1.119-1.476-1.834-2.030l-0.018-0.013h0.002l-7.518-5.772c-0.492-0.378-1.319-0.376-1.86 0.002-0.547 0.382-0.609 1.015-0.123 1.415l-0.001 0.001 3.126 2.543-9.543 0.010c-0.788 0.001-1.545 0.518-1.695 1.172-0.154 0.665 0.38 1.217 1.2 1.22v0.002l4.83-0.010-8.654 6.642c-0.813 0.622-1.075 1.658-0.563 2.313 0.52 0.667 1.625 0.668 2.447 0.004l4.704-3.849c0 0-0.069 0.52-0.064 0.831zM19.44 16.572c-0.97 0.988-2.326 1.548-3.795 1.55-1.47 0.004-2.827-0.552-3.797-1.538-0.446-0.448-0.798-0.989-1.026-1.591l-0.010-0.031c-0.16-0.431-0.252-0.929-0.252-1.448 0-0.76 0.198-1.474 0.545-2.093l-0.011 0.022c0.303-0.539 0.688-0.993 1.144-1.364l0.009-0.007c0.942-0.768 2.141-1.183 3.396-1.185s2.455 0.41 3.398 1.175c0.48 0.391 0.87 0.854 1.152 1.367 0.279 0.492 0.465 1.072 0.521 1.689l0.001 0.016c0.010 0.109 0.016 0.236 0.016 0.364 0 0.519-0.093 1.016-0.264 1.476l0.010-0.029c-0.238 0.635-0.59 1.177-1.035 1.626l0-0z"/>
</svg>