<svg xmlns="http://www.w3.org/2000/svg" version="1.1" width="24" height="24" viewBox="0 0 24 24">
<path d="M0 0.3v23.4h24v-23.4zM1 1.3h22v21.4h-22zM6.784 13.55l-0.792 2.986c-0.017 0.083-0.050 0.113-0.148 0.113h-1.468c-0.1 0-0.116-0.035-0.1-0.15l2.84-9.933c0.050-0.18 0.082-0.325 0.098-0.82 0-0.066 0.033-0.1 0.083-0.1h2.096c0.066 0 0.1 0.018 0.116 0.1l3.183 10.77c0.016 0.082 0 0.13-0.083 0.13h-1.65c-0.082 0-0.13-0.030-0.147-0.096l-0.825-3.002zM9.59 11.926c-0.28-1.106-0.96-3.53-1.206-4.7h-0.016c-0.214 1.17-0.756 3.148-1.17 4.7zM14.95 12.95c0.017 1.353 0.66 2.26 2.178 2.26 0.594 0 1.103-0.078 1.63-0.31 0.067-0.032 0.117-0.015 0.117 0.067v1.254c0 0.1-0.033 0.15-0.1 0.2-0.527 0.264-1.184 0.38-2.010 0.38-2.64 0-3.63-1.947-3.63-4.125 0-2.36 1.222-4.29 3.367-4.29 2.178 0 2.937 1.833 2.937 3.317 0 0.48-0.035 0.876-0.085 1.057-0.017 0.082-0.050 0.11-0.132 0.127-0.198 0.033-0.792 0.066-1.667 0.066zM16.98 11.575c0.512 0 0.693 0 0.742-0.016 0-0.068 0.017-0.125 0.017-0.174 0-0.545-0.266-1.544-1.306-1.544-0.957 0-1.37 0.842-1.468 1.732z"/>
</svg>