<svg xmlns="http://www.w3.org/2000/svg" version="1.1" width="24" height="24" viewBox="0 0 24 24">
<path d="M23.561 11.989c-0.26-12.293-16.608-16.879-22.906-5.355 0.282 0.206 0.661 0.477 0.943 0.672-0.435 0.887-0.774 1.917-0.966 2.997l-0.010 0.071c-0.116 0.622-0.183 1.339-0.184 2.070v0.001c0 6.374 5.182 11.556 11.567 11.556s11.556-5.171 11.556-11.556zM3.29 14.048c-0.152 1.247-0.054 1.637-0.054 1.789l-0.282 0.098c-0.108-0.206-0.369-0.932-0.488-1.908-0.304-3.718 2.233-7.068 6.103-7.697 3.545-0.52 6.938 1.68 7.729 4.759l-0.282 0.098c-0.087-0.087-0.228-0.336-0.77-0.878-4.282-4.282-11.003-2.32-11.956 3.739zM14.293 16.13c-0.575 0.823-1.518 1.355-2.586 1.355-0.002 0-0.004 0-0.005 0h0c-0.001 0-0.003 0-0.004 0-1.74 0-3.151-1.411-3.151-3.151 0-0.001 0-0.003 0-0.004v0c0.004-1.66 1.287-3.020 2.916-3.143l0.011-0.001c1.019-0.043 1.973 0.51 2.417 1.398 0.172 0.336 0.272 0.733 0.272 1.154 0 0.698-0.277 1.332-0.728 1.796l0.001-0.001c0.293 0.206 0.575 0.401 0.857 0.597zM20.873 16.249c-1.669 3.783-5.106 5.767-8.77 5.713-7.035-0.347-9.084-8.466-4.38-11.393l0.206 0.206c-0.076 0.108-0.358 0.325-0.791 1.182-0.51 1.041-0.672 2.081-0.607 2.732 0.369 5.67 8.315 6.83 11.046 1.214 3.48-7.686-5.756-15.502-13.952-9.529l-0.184-0.184c2.157-3.382 6.374-4.889 10.396-3.881 6.147 1.55 9.453 7.957 7.036 13.94z"/>
</svg>