<svg xmlns="http://www.w3.org/2000/svg" version="1.1" width="24" height="24" viewBox="0 0 24 24">
<path d="M7.67 1.56c0.282-0.134 0.542-0.338 0.81-0.513 0.253-0.163 0.54-0.436 0.894-0.33 0.103 0.296-0.162 0.503-0.331 0.662-0.538 0.511-1.154 0.975-1.72 1.456-1.524 1.3-3.419 2.859-5.338 4.389l-0.485 0.374c-0.178 0.145-0.377 0.291-0.584 0.428l-0.028 0.017c-0.183 0.118-0.456 0.359-0.71 0.165 0.071-0.337 0.306-0.567 0.512-0.778 0.213-0.216 0.414-0.446 0.629-0.66-0.248-0.427-0.473-0.821-0.662-1.274-0.186-0.449-0.378-0.971-0.38-1.554-0.002-1.109 0.635-2.043 1.34-2.68 0.723-0.652 1.689-1.196 2.812-1.256 1.586-0.084 2.504 0.704 3.241 1.554zM12.682 19.635v0.198c-0.278 0.010-0.532-0.010-0.795-0.016v-0.198c0.277-0.008 0.535 0.006 0.795 0.016zM11.092 19.635v0.198c-0.282-0.012-0.52 0.021-0.792 0.018v-0.198c0.183-0.013 0.397-0.020 0.612-0.020 0.063 0 0.126 0.001 0.189 0.002l-0.009-0zM14.269 19.685c-0.007 0.067 0.013 0.158-0.017 0.199-0.251-0.020-0.518-0.024-0.778-0.033v-0.198c0.275 0.003 0.542 0.009 0.795 0.032zM9.506 19.685v0.199c-0.274 0.002-0.512 0.039-0.795 0.032v-0.197c0.28 0.001 0.516-0.036 0.795-0.034zM15.061 19.719c0.255 0.033 0.544 0.029 0.793 0.064 0.013 0.084-0.014 0.129-0.015 0.2-0.255-0.033-0.544-0.030-0.794-0.067 0.011-0.047 0.017-0.1 0.017-0.155 0-0.015-0-0.030-0.001-0.044l0 0.002zM7.919 19.784v0.2c-0.26 0.020-0.517 0.046-0.778 0.065-0.022-0.050-0.018-0.126-0.017-0.198 0.265-0.024 0.521-0.053 0.795-0.067zM16.649 19.851c0.269 0.023 0.537 0.048 0.793 0.082-0.020 0.058-0.004 0.148-0.032 0.199-0.25-0.036-0.518-0.053-0.778-0.083-0.010-0.083 0.017-0.128 0.017-0.198zM6.33 19.933c-0.006 0.080 0.030 0.113 0.017 0.199-0.259 0.022-0.568 0.082-0.793 0.082 0.012-0.077-0.020-0.114-0.018-0.182 0.252-0.045 0.529-0.066 0.794-0.099zM19.014 20.132c0.012 0.084-0.027 0.114-0.017 0.196-0.256-0.044-0.54-0.063-0.794-0.114 0.010-0.058 0.025-0.109 0.017-0.182 0.228 0.008 0.545 0.062 0.794 0.1zM4.726 20.132c0.060 0.022 0.033 0.133 0.050 0.196-0.259 0.040-0.517 0.080-0.777 0.117-0.020-0.059-0.032-0.126-0.034-0.196l-0-0.001c0.253-0.038 0.515-0.072 0.761-0.116zM20.586 20.365c0 0.003 0 0.006 0 0.009 0 0.073-0.012 0.143-0.035 0.208l0.001-0.004c-0.247-0.055-0.52-0.083-0.777-0.132 0.002-0.071 0.014-0.139 0.035-0.202l-0.001 0.005c0.263 0.032 0.503 0.090 0.777 0.116zM3.172 20.381c0.020 0.057 0.036 0.116 0.034 0.196-0.263 0.040-0.503 0.105-0.778 0.133-0.004-0.073-0.034-0.12-0.033-0.197 0.275-0.028 0.515-0.092 0.777-0.132zM21.38 20.513c0.255 0.052 0.508 0.109 0.778 0.148-0.004 0.072-0.034 0.119-0.034 0.197-0.28-0.021-0.495-0.11-0.778-0.133-0.018-0.041 0.016-0.15 0.034-0.212zM22.669 16.726c0.156 0.092 0.47 0.098 0.595 0.246 0.099 0.115 0.144 0.486 0.182 0.744 0.203 1.296 0.287 2.808 0.332 4.219 0.008 0.266 0.016 0.583 0.016 0.891 0 0.298 0.060 0.704 0 0.91-0.041 0.147-0.24 0.194-0.363 0.264 0-0.038 0-0.084 0-0.129 0-0.955-0.024-1.904-0.070-2.847l0.005 0.133c-0.124-0.101-0.444-0.047-0.464-0.166-0.044-0.252 0.267-0.090 0.447-0.065-0.045-1.272-0.177-2.46-0.33-3.623-0.147-0.074-0.336-0.105-0.498-0.164-0.252 0.259-0.636 0.939-1.223 0.81-0.22-0.047-0.363-0.342-0.464-0.545-0.11-0.214-0.201-0.462-0.261-0.722l-0.004-0.022c-4.88-0.936-11.589-1.016-16.502-0.050-0.153 0.655-0.43 2.053-1.34 1.52-0.368-0.234-0.649-0.574-0.805-0.977l-0.005-0.014c-0.123 0.038-0.306 0.084-0.493 0.123l-0.054 0.010c-0.192 1.084-0.288 2.268-0.346 3.489 0.166 0.010 0.416-0.122 0.595-0.1 0.004 0.066 0.028 0.114 0.033 0.18-0.166 0.106-0.437 0.105-0.645 0.166-0.044 0.744-0.069 1.615-0.069 2.492 0 0.17 0.001 0.34 0.003 0.51l-0-0.026c-0.080 0.022-0.273-0.122-0.347-0.213 0.064-2.301 0.179-4.553 0.363-6.732 0.28-0.087 0.568-0.17 0.844-0.264-0.040-0.383-0.117-0.827 0.050-1.090 0.14-0.224 0.531-0.352 0.81-0.432 0.99-0.28 1.979-0.050 2.63 0.413 0.14 0.102 0.247 0.239 0.396 0.299 0.025-0.090-0.094-0.15-0.149-0.199-0.567-0.511-1.498-0.958-2.612-0.761-0.348-1.090-0.79-2.142-0.794-3.538-0.005-1.553 0.562-2.899 1.205-3.953 0.66-1.078 1.541-1.954 2.498-2.645 1.855-1.337 4.174-2.137 6.679-2.137 0.496 0 0.985 0.031 1.465 0.092l-0.057-0.006c3.010 0.369 5.008 1.79 6.45 3.853 0.69 0.99 1.248 2.174 1.62 3.524 0.374 1.352 0.378 3.098-0.050 4.53-1.383-0.283-2.637 0.15-3.125 1.026-0.004 0.015-0.016 0.017-0.016 0.033 0.498-0.678 1.736-1.168 2.976-0.86 0.328 0.082 0.746 0.2 0.908 0.43 0.224 0.317 0.122 0.989-0.016 1.373zM16.22 9.382c0.055 0.383 0.227 0.783 0.445 0.944 0.376 0.27 0.602 0.001 0.63-0.38 0.035-0.504-0.174-1.1-0.431-1.324-0.105-0.090-0.299-0.145-0.412-0.115-0.256 0.065-0.283 0.528-0.232 0.875zM7.571 10.474c-0.033 0.556 0.16 1.277 0.529 1.472 0.43 0.227 0.633-0.095 0.661-0.495 0.045-0.626-0.273-1.714-0.86-1.605-0.25 0.047-0.313 0.339-0.33 0.628zM14.401 13.053c-0.266 0.060-0.633-0.058-0.926-0.117-0.162-0.038-0.47-0.096-0.781-0.147l-0.129-0.017c-0.567-0.088-1.344-0.211-1.9 0.1-0.198 0.11-0.444 0.351-0.465 0.662-0.027 0.46 0.342 0.791 0.612 0.993 0.323 0.237 0.663 0.399 1.092 0.527 0.917 0.278 2.293 0.353 3.075 0.017 0.735-0.316 1.706-1.062 1.72-2.050 0.010-0.59-0.272-1.119-0.859-1.042-0.65 0.085-0.882 0.951-1.439 1.074z"/>
</svg>