<svg xmlns="http://www.w3.org/2000/svg" version="1.1" width="24" height="24" viewBox="0 0 24 24">
<path d="M14.505 17.44c1.275-0.29 2.493-0.794 3.6-1.49 0.834-0.558 1.058-1.686 0.5-2.52-0.536-0.802-1.604-1.044-2.435-0.553-2.55 1.595-5.79 1.595-8.34 0-0.847-0.534-1.965-0.28-2.5 0.565 0 0.002 0 0.004-0.002 0.005-0.534 0.847-0.28 1.966 0.567 2.5l0.002 0.002c1.105 0.695 2.322 1.2 3.596 1.488l-3.465 3.465c-0.707 0.695-0.72 1.83-0.028 2.537l0.030 0.030c0.344 0.354 0.81 0.53 1.274 0.53 0.465 0 0.93-0.176 1.275-0.53l3.421-3.404 3.404 3.406c0.72 0.695 1.87 0.676 2.566-0.045 0.678-0.703 0.678-1.818 0-2.52zM12 12.388c3.42-0.004 6.19-2.774 6.195-6.193 0-3.415-2.78-6.195-6.195-6.195s-6.195 2.78-6.195 6.197c0.005 3.42 2.776 6.19 6.195 6.191zM12 3.631c1.416 0.002 2.563 1.15 2.564 2.565 0 1.416-1.148 2.563-2.564 2.565-1.415-0.002-2.562-1.148-2.565-2.564 0.002-1.417 1.15-2.564 2.565-2.566z"/>
</svg>