<svg xmlns="http://www.w3.org/2000/svg" version="1.1" width="24" height="24" viewBox="0 0 24 24">
<path d="M13.473 23.948c-0.311-0.053-0.639-0.2-0.82-0.365-0.122-0.126-0.198-0.298-0.198-0.487v-0c0-0.18 0.090-0.44 0.242-0.696 0.081-0.133 0.152-0.287 0.205-0.449l0.004-0.016c0.030-0.113 0.096-0.3 0.147-0.417l0.091-0.212 0.024-1.436c0.013-0.79 0.037-1.526 0.053-1.638 0.058-0.363 0.146-0.687 0.264-0.996l-0.011 0.034 0.084-0.209-0.123-0.073c-0.115-0.069-0.21-0.168-0.58-0.608-0.457-0.54-1.057-0.836-1.908-0.94-0.223-0.023-0.514-0.043-0.807-0.056l-0.033-0.001c-1.252-0.058-1.966-0.319-2.61-0.952-0.48-0.474-0.731-1.025-0.833-1.836-0.138-1.098-0.29-1.663-0.57-2.12-0.073-0.119-0.151-0.222-0.238-0.316l0.001 0.001-0.114-0.113-0.25 0.16c-0.139 0.088-0.329 0.203-0.423 0.255-0.347 0.192-0.639 0.381-0.919 0.587l0.023-0.016c-0.696 0.507-1.459 1.142-1.877 1.562-0.188 0.188-0.287 0.267-0.327 0.262-0.288-0.043-0.066-1.28 0.396-2.21 0.595-1.197 1.593-2.303 2.752-3.051 0.95-0.613 2.485-1.456 3.196-1.753 1.26-0.527 2.892-1.098 4.010-1.403 0.236-0.064 0.381-0.122 0.477-0.19 0.22-0.153 0.434-0.225 0.681-0.23 0.206-0.003 0.226-0.010 0.425-0.14 0.235-0.152 0.302-0.162 0.538-0.080l0.154 0.055 0.187-0.127 0.188-0.127 0.27 0.006c0.205 0.004 0.299-0.007 0.387-0.046 0.114-0.050 0.118-0.056 0.15-0.245 0.072-0.406 0.080-0.61 0.037-0.854-0.058-0.324-0.063-1.584-0.008-1.829 0.059-0.266 0.097-0.319 0.295-0.417 0.297-0.147 0.519-0.188 1.032-0.188 0.624 0 0.94 0.084 1.174 0.31 0.212 0.206 0.248 0.68 0.137 1.8-0.064 0.642-0.072 0.823-0.055 1.244 0.010 0.271 0.027 0.524 0.037 0.561 0.017 0.065 0.032 0.069 0.259 0.074 0.221 0.004 0.26 0.014 0.471 0.125 0.204 0.106 0.356 0.234 0.386 0.325 0.006 0.020 0.040 0.021 0.104 0.003 0.118-0.035 0.225 0.003 0.309 0.109 0.051 0.065 0.083 0.078 0.203 0.078 0.16 0 0.216 0.038 0.349 0.234 0.062 0.087 0.146 0.155 0.242 0.198l0.004 0.002c0.22 0.11 0.515 0.414 0.63 0.654 0.175 0.362 0.212 0.777 0.101 1.154-0.040 0.14-0.040 0.145 0.042 0.282 0.174 0.29 0.237 0.65 0.167 0.954l-0.041 0.18 0.118 0.117c0.583 0.583 0.497 1.531-0.215 2.38-0.076 0.090-0.165 0.232-0.198 0.318-0.14 0.363-0.294 0.618-0.499 0.828l-0.204 0.21h-0.214c-0.21 0-0.505-0.070-0.685-0.165-0.075-0.039-0.080-0.038-0.065 0.010 0.050 0.172 0.164 0.87 0.205 1.255 0.063 0.594 0.044 1.458-0.040 1.829-0.066 0.296-0.168 0.559-0.304 0.799l0.007-0.014c-0.076 0.126-0.083 0.155-0.066 0.304 0.024 0.217-0.027 0.576-0.115 0.813-0.104 0.277-0.143 0.407-0.166 0.546-0.020 0.122-0.020 0.123 0.066 0.123 0.115 0 0.175 0.068 0.175 0.199 0 0.060-0.050 0.374-0.112 0.7-0.171 0.908-0.182 1.013-0.184 1.895-0.003 0.909-0.004 0.902 0.204 1.037l0.464 0.302c0.367 0.248 0.788 0.469 1.233 0.641l0.043 0.015c0.653 0.258 0.743 0.324 0.743 0.544 0 0.095-0.019 0.133-0.1 0.211-0.252 0.243-0.744 0.297-1.737 0.192-0.463-0.047-1.003-0.074-1.548-0.075h-0.002c-1.365-0.020-1.567-0.067-1.745-0.408-0.102-0.195-0.084-0.45 0.059-0.868 0.052-0.142 0.108-0.329 0.155-0.52l0.008-0.040c0.093-0.455 0.030-0.993-0.188-1.604l-0.185-0.518c-0.186-0.528-0.286-1.494-0.176-1.712 0.020-0.040 0.054-0.050 0.146-0.044l0.119 0.010 0.096-0.204c0.075-0.158 0.158-0.264 0.38-0.488l0.285-0.286-0.014-0.182c-0.014-0.174-0.243-1.027-0.276-1.025-0.009 0-0.073 0.088-0.144 0.195-0.17 0.258-0.552 0.658-0.766 0.802-0.094 0.064-0.172 0.137-0.172 0.162-0.002 0.103-0.094 0.31-0.201 0.455-0.106 0.143-0.113 0.163-0.097 0.29 0.024 0.183-0.033 0.773-0.104 1.080-0.070 0.255-0.158 0.476-0.266 0.684l0.009-0.019c-0.27 0.56-0.472 1.058-0.525 1.29-0.034 0.195-0.058 0.426-0.068 0.662l-0 0.011c-0.013 0.264-0.040 0.524-0.060 0.577-0.026 0.075-0.027 0.132-0.002 0.246 0.018 0.082 0.030 0.266 0.027 0.41-0.004 0.2 0.012 0.33 0.070 0.564 0.1 0.397 0.122 0.647 0.073 0.796-0.030 0.092-0.064 0.129-0.166 0.18-0.237 0.12-0.899 0.185-1.259 0.123zM14.423 23.63c0.137-0.039 0.252-0.159 0.252-0.263 0-0.045-0.040-0.183-0.087-0.306-0.090-0.23-0.254-0.837-0.254-0.938 0-0.054 0.004-0.055 0.085-0.012l0.085 0.045-0.002-0.11c-0.011-0.109-0.034-0.209-0.067-0.304l0.003 0.009c-0.074-0.223-0.084-0.228-0.554-0.254l-0.322-0.017-0.115 0.113c-0.064 0.064-0.121 0.136-0.166 0.215l-0.003 0.005c-0.052 0.103-0.072 0.255-0.038 0.29 0.008 0.009 0.085 0 0.17-0.020 0.045-0.014 0.098-0.024 0.152-0.029l0.003-0c0 0.005-0.086 0.073-0.192 0.151-0.47 0.348-0.633 0.564-0.633 0.837 0 0.286 0.266 0.508 0.688 0.574 0.29 0.046 0.854 0.054 0.995 0.014zM20.777 23.165c0.117-0.142 0.103-0.285-0.046-0.45-0.084-0.086-0.18-0.159-0.286-0.217l-0.006-0.003c-0.13-0.069-0.238-0.133-0.341-0.203l0.013 0.008c-0.086-0.060-0.362-0.22-0.612-0.36-0.221-0.118-0.394-0.22-0.562-0.327l0.035 0.021-0.070-0.055v-1.075c0-1.060-0.002-1.073-0.058-1.058-0.273 0.075-0.726 0.109-1.302 0.098l-0.619-0.010 0.088 0.218c0.167 0.416 0.254 0.97 0.253 1.606 0 0.238-0.014 0.326-0.073 0.492-0.011 0.021-0.040 0.104-0.069 0.187l-0.018 0.062c-0.011 0.035 0.032 0.060 0.194 0.108 0.115 0.035 0.289 0.071 0.387 0.082l0.178 0.018-0.018 0.181c-0.020 0.205 0.003 0.418 0.054 0.486 0.029 0.038 0.149 0.052 0.69 0.078 0.412 0.020 0.858 0.062 1.209 0.114 0.305 0.045 0.633 0.084 0.73 0.085 0.162 0.003 0.18-0.003 0.249-0.086zM14.525 21.334c0.015-0.010 0.037-0.222 0.047-0.471 0.031-0.7 0.057-0.8 0.41-1.589 0.287-0.644 0.441-1.245 0.427-1.673l-0.008-0.254-0.107 0.106c-0.227 0.225-0.071-0.13 0.197-0.447 0.203-0.24 0.273-0.375 0.307-0.587 0.014-0.086 0.047-0.13 0.18-0.23 0.502-0.385 0.867-0.87 1.103-1.463 0.056-0.141 0.198-0.62 0.315-1.066 0.218-0.826 0.335-1.179 0.44-1.333 0.040-0.059 0.055-0.068 0.045-0.029-0.060 0.235-0.080 0.33-0.13 0.637-0.032 0.191-0.090 0.564-0.128 0.828-0.078 0.532-0.156 0.876-0.261 1.144l-0.070 0.178 0.189 0.485c0.193 0.497 0.283 0.855 0.302 1.205l0.010 0.192-0.154 0.032c-0.206 0.038-0.38 0.152-0.495 0.312l-0.002 0.002c-0.136 0.19-0.208 0.348-0.173 0.384 0.015 0.015 0.207 0.050 0.425 0.075 0.342 0.040 0.47 0.042 0.919 0.013 0.215-0.010 0.415-0.030 0.611-0.060l-0.032 0.004c0.042-0.015 0.083-0.101 0.154-0.323 0.162-0.51 0.193-0.693 0.174-1.050l-0.016-0.317 0.082-0.105c0.192-0.244 0.34-0.682 0.4-1.19 0.075-0.626-0.060-1.936-0.315-3.062-0.12-0.533-0.17-0.854-0.17-1.090v-0.207l-0.193 0.020c-0.687 0.076-1.518 0.055-2.028-0.050-0.276-0.056-0.976-0.26-1.13-0.329l-0.119-0.053-0.017 0.135c-0.011 0.088-0.025 0.165-0.043 0.24l0.003-0.014c-0.023 0.085-0.014 0.102 0.131 0.246 0.18 0.18 0.236 0.276 0.236 0.402 0 0.075-0.045 0.138-0.263 0.367-0.16 0.168-0.364 0.345-0.52 0.449l-0.256 0.172-0.106 0.376c-0.394 1.39-0.468 2.649-0.21 3.554l0.064 0.226-0.125 0.155c-0.47 0.592-0.746 1.041-0.788 1.29-0.008 0.050-0.048 0.215-0.088 0.367-0.1 0.386-0.178 0.953-0.212 1.566-0.032 0.642-0.069 1.175-0.116 1.705l0.012-0.166-0.017 0.152 0.195 0.060c0.108 0.033 0.273 0.073 0.367 0.087 0.174 0.028 0.499 0.023 0.547-0.008zM18.318 19.186c0.303-0.018 0.581-0.066 0.635-0.11 0.023-0.018 0.050-0.1 0.060-0.18l0.017-0.148-0.24 0.053c-0.161 0.033-0.358 0.061-0.559 0.077l-0.018 0.001c-0.125 0.006-0.271 0.009-0.418 0.009-0.34 0-0.675-0.018-1.006-0.053l0.041 0.004c-0.152-0.023-0.153-0.022-0.103 0.177 0.037 0.15 0.045 0.154 0.445 0.185 0.266 0.020 0.634 0.016 1.145-0.015zM18.063 18.506c0.396-0.033 0.894-0.118 0.99-0.17 0.031-0.017 0.061-0.074 0.072-0.139l0.036-0.208 0.018-0.099-0.096 0.020c-0.433 0.091-0.762 0.118-1.42 0.118-0.639 0-0.712-0.006-0.88-0.063-0.060-0.027-0.131-0.044-0.204-0.048l-0.002-0c-0.028 0.017-0.030 0.24-0.005 0.395 0.015 0.095 0.030 0.111 0.125 0.138 0.297 0.080 0.796 0.101 1.366 0.056zM10.814 14.983c1-0.286 2.308-1.137 3.377-2.197 0.35-0.348 0.39-0.397 0.437-0.55l0.064-0.199c0.007-0.016-0.056-0.045-0.138-0.065-0.216-0.052-0.377-0.174-0.379-0.288 0-0.066-0.040-0.132-0.15-0.255-0.187-0.208-0.233-0.298-0.253-0.497l-0.016-0.158-0.216-0.158c-0.124-0.090-0.564-0.332-1.028-0.565-0.433-0.212-0.774-0.399-1.105-0.598l0.066 0.037c-0.39-0.264-0.653-0.576-0.8-0.947-0.029-0.076-0.063-0.138-0.075-0.138-0.033 0-0.91 0.85-1.286 1.247-0.924 0.977-1.563 1.825-1.964 2.61-0.1 0.195-0.21 0.425-0.242 0.511l-0.060 0.157 0.073 0.26c0.040 0.143 0.13 0.373 0.2 0.51 0.246 0.484 0.541 0.777 1.024 1.015 0.52 0.257 0.98 0.346 1.75 0.337 0.416-0.005 0.535-0.016 0.721-0.069zM2.921 11.56c0.657-0.582 1.563-1.22 2.674-1.882 0.727-0.433 3.533-1.837 4.826-2.414 0.234-0.105 0.446-0.201 0.47-0.215 0.023-0.013 0.091-0.18 0.151-0.369 0.276-0.869 0.412-1.041 0.908-1.153 0.063-0.014 0.078-0.034 0.078-0.099 0-0.11 0.078-0.374 0.145-0.491 0.050-0.090 0.051-0.095 0.005-0.082-0.027 0.009-0.19 0.056-0.363 0.106-2.38 0.687-4.462 1.6-6.26 2.742-1.92 1.22-3.022 2.68-3.343 4.429l-0.024 0.13 0.232-0.231c0.127-0.127 0.353-0.339 0.501-0.471zM20.598 11.89c0.19-0.098 0.487-0.548 0.597-0.902 0.035-0.131 0.098-0.245 0.183-0.339l-0.001 0.001c0.292-0.32 0.531-0.905 0.532-1.304 0-0.62-0.349-0.859-0.863-0.592-0.064 0.033-0.121 0.055-0.127 0.048-0.029-0.029 0.117-0.17 0.29-0.28 0.233-0.15 0.277-0.24 0.277-0.566 0-0.271-0.069-0.493-0.225-0.733-0.070-0.105-0.098-0.177-0.087-0.218l0.072-0.264c0.096-0.347 0.061-0.744-0.088-0.997-0.227-0.385-0.506-0.573-0.894-0.602l-0.225-0.017 0.134 0.147c0.392 0.429 0.583 0.963 0.508 1.42-0.039 0.232-0.077 0.28-0.303 0.372l-0.13 0.053 0.015 0.179c0.026 0.295-0.024 0.508-0.212 0.905-0.093 0.198-0.164 0.376-0.157 0.395 0.025 0.067 0.28 0.195 0.483 0.244l0.2 0.048-0.125 0.040c-0.161 0.053-0.198 0.126-0.199 0.397 0 0.245 0.035 0.346 0.217 0.616 0.080 0.118 0.135 0.237 0.144 0.308 0.015 0.111 0.010 0.118-0.080 0.151-0.091 0.026-0.197 0.043-0.306 0.050l-0.004 0c-0.367 0.023-0.395 0.033-0.558 0.19-0.15 0.143-0.153 0.151-0.153 0.307 0 0.215 0.080 0.645 0.132 0.704 0.064 0.073 0.436 0.255 0.58 0.283 0.038 0.010 0.082 0.015 0.127 0.015 0.090 0 0.175-0.022 0.249-0.060l-0.003 0.001zM15.188 11.596c0.239-0.187 0.425-0.374 0.532-0.535 0.065-0.098 0.069-0.117 0.036-0.197-0.052-0.127-0.411-0.45-0.611-0.547-0.121-0.057-0.262-0.099-0.41-0.119l-0.008-0.001-0.246-0.034-0.154-0.192c-0.314-0.39-0.49-0.693-0.742-1.282-0.216-0.502-0.409-0.795-0.713-1.082-0.125-0.118-0.217-0.215-0.206-0.215s0.161 0.073 0.333 0.163c0.288 0.151 0.321 0.162 0.451 0.146 0.465-0.056 0.873-0.591 1.024-1.34 0.043-0.214 0.127-0.429 0.218-0.557 0.004-0.005 0.182 0.115 0.395 0.267 0.534 0.38 0.652 0.436 0.955 0.448 0.202 0.008 0.314-0.008 0.672-0.094 0.765-0.186 1.594-0.262 2.1-0.193 0.285 0.039 0.692 0.163 1 0.306 0.301 0.14 0.359 0.148 0.457 0.062 0.080-0.070 0.081-0.080 0.080-0.342-0.002-0.386-0.144-0.804-0.36-1.053-0.11-0.129-0.415-0.34-0.72-0.501-0.174-0.090-0.281-0.149-0.387-0.21l0.060 0.032c-0.142-0.083-0.309-0.073-0.752 0.044-0.515 0.135-0.652 0.133-1.243-0.018-0.499-0.128-0.532-0.13-1.022-0.053-0.261 0.041-0.918 0.017-1.138-0.041-0.14-0.038-0.248-0.074-0.354-0.114l0.029 0.010c-0.19-0.071-0.522-0.083-0.822-0.030-0.6 0.107-1.054 0.43-1.218 0.87-0.084 0.224-0.073 0.329 0.042 0.401 0.177 0.112 0.416 0.421 0.416 0.54 0 0.010-0.056-0.041-0.125-0.113-0.166-0.174-0.32-0.251-0.5-0.251-0.243 0.006-0.452 0.151-0.548 0.358l-0.002 0.004c-0.044 0.11-0.090 0.25-0.127 0.393l-0.006 0.027c-0.11 0.402-0.206 0.612-0.412 0.892-0.186 0.253-0.211 0.366-0.146 0.651 0.164 0.719 0.448 1.011 1.639 1.686 0.625 0.354 0.948 0.553 1.182 0.729 0.179 0.133 0.184 0.14 0.168 0.243-0.037 0.233 0.112 0.49 0.406 0.695 0.075 0.052 0.122 0.107 0.122 0.143 0 0.072 0.196 0.17 0.343 0.17 0.080 0 0.145-0.034 0.312-0.166zM20.003 10.282c0.454 0.013 0.479-0.019 0.235-0.301-0.254-0.295-0.323-0.532-0.23-0.794l0.037-0.102-0.159-0.078c-0.045-0.025-0.099-0.049-0.155-0.069l-0.008-0.003c-0.016 0.047-0.043 0.151-0.068 0.256l-0.011 0.054c-0.058 0.24-0.13 0.856-0.131 1.12 0 0.023 0.038 0.013 0.105-0.028 0.092-0.055 0.14-0.062 0.385-0.055zM18.485 10.257c0.273-0.015 0.556-0.036 0.63-0.046l0.134-0.018 0.017-0.452c0.023-0.64 0.115-1.018 0.393-1.622 0.198-0.43 0.281-0.807 0.24-1.086-0.018-0.122-0.025-0.13-0.188-0.201-0.269-0.11-0.583-0.198-0.91-0.25l-0.024-0.003c-0.31-0.045-1.214-0.019-1.555 0.045-0.14 0.026-0.397 0.080-0.57 0.121-0.426 0.1-0.652 0.087-0.976-0.055-0.32-0.141-0.524-0.268-0.717-0.448-0.151-0.141-0.165-0.148-0.206-0.101-0.030 0.035-0.047 0.14-0.057 0.368-0.014 0.347-0.066 0.53-0.22 0.777-0.032 0.046-0.061 0.099-0.084 0.154l-0.002 0.006c0 0.012 0.119 0.146 0.264 0.296 0.499 0.52 0.744 0.654 1.138 0.624 0.13-0.010 0.22-0.006 0.22 0.010 0 0.029-0.254 0.23-0.361 0.286-0.048 0.025-0.060 0.053-0.052 0.113l0.060 0.408c0.036 0.236 0.064 0.343 0.1 0.375 0.093 0.080 0.577 0.33 0.88 0.452 0.401 0.163 0.617 0.221 0.924 0.247 0.373 0.031 0.381 0.031 0.922 0zM15.255 9.83c0.008-0.015-0.022-0.24-0.070-0.502-0.063-0.356-0.098-0.485-0.137-0.518-0.030-0.024-0.173-0.128-0.319-0.231-0.199-0.147-0.374-0.296-0.539-0.454l0.002 0.002-0.271-0.264-0.142 0.075-0.154 0.083c0.015 0.067 0.037 0.125 0.066 0.18l-0.002-0.004c0.040 0.093 0.126 0.323 0.19 0.51 0.165 0.489 0.291 0.723 0.616 1.148l0.124 0.161 0.23 0.036c0.126 0.020 0.257 0.046 0.291 0.059 0.056 0.021 0.063 0.012 0.080-0.115 0.006-0.061 0.018-0.118 0.037-0.171l-0.002 0.005zM20.203 4.97c0.2-0.019 0.234-0.050 0.147-0.138-0.052-0.053-0.179-0.059-0.28-0.012-0.068 0.031-0.082 0.024-0.187-0.090-0.11-0.122-0.116-0.125-0.254-0.108-0.125 0.015-0.144 0.010-0.16-0.041-0.052-0.086-0.111-0.16-0.18-0.226l-0-0c-0.087-0.1-0.196-0.178-0.319-0.228l-0.006-0.002c-0.243-0.092-0.378-0.082-0.609 0.045-0.667 0.365-0.64 0.361-1.283 0.197-0.603-0.154-1.054-0.307-1.197-0.407-0.12-0.083-0.379-0.17-0.593-0.2-0.16-0.022-0.264 0.013-0.416 0.14l-0.080 0.066 0.072 0.128c0.102 0.181 0.092 0.191-0.062 0.060-0.163-0.14-0.357-0.234-0.485-0.235-0.089 0-0.355 0.115-0.387 0.168-0.009 0.014 0.073 0.033 0.181 0.043 0.115 0.010 0.271 0.048 0.376 0.093 0.272 0.116 0.414 0.154 0.664 0.18 0.273 0.026 0.771-0.005 0.828-0.053 0.029-0.025 0.115-0.029 0.296-0.015 0.238 0.018 0.337 0.040 0.903 0.193 0.328 0.090 0.558 0.083 0.949-0.026 0.18-0.050 0.406-0.1 0.501-0.11 0.16-0.017 0.192-0.010 0.44 0.103 0.4 0.18 0.61 0.296 0.728 0.4 0.117 0.1 0.13 0.103 0.413 0.075zM17.975 4.286l0.238-0.124-0.005-0.245c-0.005-0.188-0.012-0.36-0.024-0.532l0.002 0.037-0.017-0.251-0.238 0.184c-0.141 0.11-0.278 0.192-0.339 0.203-0.171 0.033-1.016 0-1.096-0.042-0.107-0.081-0.203-0.166-0.29-0.258l-0.001-0.001-0.22-0.22-0.003 0.13c0 0.070-0.011 0.192-0.024 0.268-0.022 0.138-0.020 0.142 0.13 0.333 0.084 0.107 0.152 0.202 0.152 0.212 0 0.076 1.128 0.426 1.382 0.43 0.081 0 0.184-0.036 0.353-0.124zM17.523 3.397c0.282-0.054 0.42-0.258 0.523-0.773 0.11-0.554 0.166-1.425 0.113-1.797-0.047-0.334-0.419-0.485-1.136-0.461-0.444 0.015-0.628 0.059-0.779 0.187-0.094 0.080-0.096 0.087-0.137 0.457-0.080 0.711 0.036 1.724 0.24 2.105 0.097 0.183 0.184 0.25 0.365 0.28 0.203 0.035 0.635 0.036 0.811 0.002z"/>
</svg>