<svg xmlns="http://www.w3.org/2000/svg" version="1.1" width="24" height="24" viewBox="0 0 24 24">
<path d="M0 0.3v23.4h24v-23.4zM1 1.3h22v21.4h-22zM6.659 13.8l-0.772 2.863c-0.017 0.081-0.049 0.137-0.145 0.137h-1.433c-0.097 0-0.113-0.032-0.097-0.145l2.769-9.641c0.062-0.231 0.097-0.496 0.097-0.77 0-0.017-0-0.033-0-0.050l0 0.003c0-0.065 0.032-0.097 0.080-0.097h2.045c0.064 0 0.097 0.016 0.113 0.097l3.107 10.474c0.016 0.081 0 0.129-0.081 0.129h-1.61c-0.071-0-0.131-0.051-0.144-0.119l-0-0.001-0.805-2.88zM9.38 12.2c-0.274-1.079-0.918-3.429-1.159-4.572h-0.016c-0.209 1.143-0.725 3.059-1.127 4.572zM19.4 15.225c0 0.112 0.016 0.45 0.048 0.998 0 0.064-0.006 0.096-0.070 0.112-0.886 0.389-1.917 0.629-3 0.66l-0.012 0c-1.465 0-2.866-0.563-2.866-2.817v-5.149c0-0.081 0.032-0.129 0.113-0.129h1.574c0.081 0 0.113 0.048 0.113 0.129v4.94c0 0.95 0.415 1.465 1.413 1.465 0.006 0 0.014 0 0.021 0 0.347 0 0.679-0.065 0.985-0.183l-0.019 0.006v-6.228c0-0.081 0.032-0.129 0.113-0.129h1.474c0.097 0 0.113 0.048 0.113 0.129z"/>
</svg>