<svg xmlns="http://www.w3.org/2000/svg" version="1.1" width="24" height="24" viewBox="0 0 24 24">
<path d="M16.434 8.072l-0.005-0.051-0.084 0.007 0.005 0.052zM16.996 9.424l0.002 0.028 0.058-0.005c0.001-0.030 0.007-0.058 0.019-0.083l-0.001 0.001-0.005-0.051c-0.025 0.002-0.050 0.039-0.073 0.11zM14.803 11.126c-0.004-0.048-0.153-0.235-0.448-0.564-0.005-0.060 0.096-0.15 0.304-0.27l0.594-0.518c0.133-0.169 0.211-0.442 0.235-0.823l-0.007-0.087c-0.024-0.263-0.214-0.475-0.575-0.637-0.213-0.144-0.597-0.224-1.152-0.238-0.46 0.039-1.058 0.203-1.797 0.492-0.196 0.141-0.422 0.286-0.656 0.419l-0.037 0.019 0.004 0.044c0.027-0.005 0.050-0.015 0.070-0.030l-0 0c0.030-0.003 0.047 0.010 0.050 0.040l0.044-0.024 0.020-0.002 0.003 0.020c0.002 0.023-0.158 0.15-0.482 0.375l0.025 0.046-0.021 0.002-0.054-0.020c0.002 0.017-0.021 0.027-0.066 0.030l0.002 0.020 0.052 0.064c-0.027-0.001-0.053-0.007-0.076-0.018l0.001 0c-0.088 0.013-0.165 0.057-0.22 0.12l-0 0 0.030-0.131c0.109-0.468 0.183-0.882 0.222-1.241l-0.005-0.023c-0.083-0.056-0.154-0.123-0.213-0.199l-0.002-0.002c0.001-0.014 0.002-0.031 0.002-0.048s-0.001-0.033-0.002-0.050l0 0.002-0.005-0.020-0.021 0.006c-0.235 0.352-0.687 0.953-1.357 1.803-0.51 0.605-0.774 0.941-0.79 1.009-0.208 0.215-0.307 0.345-0.297 0.39-0.055 0.035-0.078 0.070-0.070 0.11-0.015 0.003-0.026-0.002-0.030-0.018-0.087 0.141-0.227 0.242-0.392 0.276l-0.004 0.001-0.185 0.043c-0.025 0.005-0.037 0.023-0.035 0.053l0.005 0.023 0.069-0.016 0.005 0.020-0.157 0.060-0.277 0.064-0.146 0.010c-0.021 0.020 0.116-0.003 0.062 0.010l-0.181 0.043c-0.11 0.025-0.17 0.016-0.181-0.029l-0.022 0.005c0.004 0.020 0.005 0.034 0.002 0.047l-0.010-0.045-0.146 0.034c-0.010-0.068-0.208-0.313-0.59-0.736-0.008-0.082 0.127-0.201 0.403-0.356l0.779-0.685c0.174-0.224 0.277-0.583 0.311-1.077l-0.010-0.116c-0.030-0.349-0.283-0.63-0.758-0.846-0.281-0.19-0.786-0.292-1.515-0.308-0.605 0.051-1.395 0.267-2.366 0.642-0.259 0.189-0.557 0.379-0.866 0.553l-0.046 0.023 0.005 0.060c0.034-0.006 0.064-0.018 0.091-0.036l-0.001 0.001c0.040-0.004 0.061 0.014 0.065 0.050l0.060-0.034 0.030-0.002 0.002 0.029c0.002 0.028-0.21 0.193-0.638 0.496l0.034 0.053-0.030 0.002-0.066-0.023c0.002 0.018-0.029 0.030-0.090 0.035l0.003 0.032 0.071 0.079c-0.035-0.001-0.068-0.008-0.098-0.021l0.002 0.001c-0.139 0.013-0.274 0.112-0.407 0.3l0.034 0.054c0.115-0.107 0.183-0.16 0.202-0.162l0.007 0.087c-0.034 0.008-0.064 0.020-0.091 0.037l0.001-0.001 0.073 0.11c0.136-0.147 0.288-0.276 0.455-0.384l0.009-0.006c0.083 0.022 0.128 0.049 0.13 0.077l0.064-0.005c0.458-0.34 0.912-0.585 1.362-0.736l0.005 0.060c-0.084 0.125-0.14 0.189-0.17 0.192 0.003 0.043 0.017 0.080 0.044 0.112 0.007 0.077-0.198 0.592-0.612 1.546-0.94 2.216-1.73 3.855-2.373 4.915 0.002 0.022 0.015 0.050 0.038 0.086 0.158-0.038 0.258-0.077 0.3-0.114l0.034-0.004 0.005 0.060 0.059-0.005 0.060-0.033c0.002 0.017 0.022 0.026 0.063 0.023l0.005 0.060c0.005 0.059-0.029 0.148-0.1 0.27-0.064 0.073-0.133 0.226-0.206 0.46l0.002 0.028 0.059-0.006c0.256-0.286 0.45-0.567 0.583-0.84 0.747-0.22 1.316-0.435 1.71-0.646 0.397-0.034 0.7-0.139 0.906-0.312l-0.004-0.032-0.15 0.045-0.033 0.004-0.004-0.033c0.291-0.044 0.492-0.108 0.604-0.197 0.568-0.437 0.996-0.747 1.286-0.93 0.596-0.438 0.984-0.864 1.16-1.279l0.1-0.023c0.083-0.003 0.13-0.005 0.142-0.009-0.004-0.016 0.004-0.025 0.020-0.028 0.133-0.014 0.069 0.009 0.154-0.010l0.224-0.052c-0.014 0.003-0.020 0.010-0.016 0.024l0.034-0.020c-0.007 0-0.013-0.003-0.018-0.004l0.037-0.010-0.017 0.011c0.008 0.001 0.018 0.002 0.027 0.002 0.019 0 0.038-0.002 0.055-0.007l-0.002 0 0.016 0.066-1.019 1.62-0.226 0.283-0.11 0.37 0.021-0.006 0.11-0.046-0.035 0.144 0.010 0.043 0.031 0.037c-0.014 0.004-0.020 0.013-0.016 0.029l0.005 0.023 0.046-0.010c0.068-0.060 0.096-0.113 0.086-0.161 0.030 0.008 0.065 0.012 0.101 0.012 0.016 0 0.031-0.001 0.046-0.002l-0.002 0 0.005 0.024c-0.044 0.010-0.067 0.046-0.070 0.107l0.004 0.023 0.025-0.006c0.37-0.403 1.277-1.785 2.005-2.722-0.024-0.102 0.355-0.242 1.138-0.424l0.025-0.005c0.028 0.123-0.032 0.42-0.182 0.891-0.096 0.285-0.142 0.441-0.135 0.466-0.124 0.379-0.183 0.583-0.176 0.615l-0.277 0.91c-0.18 0.465-0.317 0.954-0.413 1.47 0.007-0.001 0.015-0.001 0.023-0.001 0.019 0 0.038 0.003 0.056 0.009l-0.001-0 0.039-0.034c0.004 0.016 0.014 0.021 0.030 0.018l-0.016-0.066 0.12-0.003c0.036-0.010 0.067-0.054 0.091-0.136-0.005-0.122 0.020-0.188 0.075-0.202 0.075-0.292 0.121-0.438 0.137-0.443 0.070-0.29 0.121-0.456 0.155-0.496 0.105-0.377 0.181-0.571 0.231-0.584l0.010 0.047-0.076 0.197c-0.133 0.592-0.268 1.060-0.405 1.403l0.039 0.17 0.025-0.004c0.33-0.712 0.807-2.12 1.428-4.226 0.015-0.183 0.116-0.339 0.263-0.429l0.002-0.001-0.036-0.038-0.005-0.020c0.071-0.015 0.121-0.044 0.15-0.083-0.004-0.016-0.066-0.039-0.187-0.071l0.31-1.327c0.034-0.036 0.072-0.067 0.116-0.091l0.002-0.001 0.005 0.067c-0.026 0.005-0.050 0.015-0.069 0.030l0-0 0.059 0.084c0.106-0.115 0.222-0.215 0.348-0.299 0.064 0.018 0.096 0.040 0.1 0.060l0.046-0.003c0.297-0.227 0.641-0.415 1.011-0.547l0.026-0.008 0.004 0.045c-0.062 0.094-0.105 0.142-0.128 0.144 0.003 0.032 0.013 0.061 0.029 0.086l-0-0.001c0.005 0.059-0.147 0.45-0.46 1.176-0.715 1.68-1.314 2.924-1.802 3.731 0.006 0.025 0.017 0.047 0.032 0.066l-0-0c0.12-0.029 0.196-0.059 0.226-0.087l0.021-0.002 0.004 0.044 0.050-0.003 0.045-0.023c0.002 0.012 0.017 0.017 0.048 0.016l0.004 0.048c0.004 0.042-0.022 0.11-0.077 0.202-0.051 0.055-0.105 0.171-0.162 0.347l0.002 0.023 0.047-0.003c0.171-0.185 0.318-0.396 0.435-0.624l0.007-0.016c0.568-0.168 1-0.33 1.299-0.49 0.304-0.026 0.533-0.105 0.69-0.236l-0.002-0.023-0.116 0.033-0.025 0.002-0.002-0.023c0.22-0.032 0.375-0.082 0.459-0.147 0.43-0.331 0.756-0.568 0.976-0.706 0.687-0.5 1.007-0.98 0.968-1.441zM14.685 11.156l0.016 0.18c-0.020 0.044-0.044 0.067-0.065 0.070l-0.027-0.307c0.050 0.018 0.075 0.036 0.076 0.057zM1.22 9.71l-0.030 0.001-0.005-0.055 0.123-0.010 0.002 0.028c-0.034 0.006-0.064 0.019-0.091 0.037l0.001-0.001zM0.62 15.705c-0.050-0.026-0.108-0.040-0.171-0.040-0.007 0-0.014 0-0.020 0.001l0.001-0-0.006-0.087c-0.004-0.033 0.016-0.056 0.058-0.065 0.040-0.004 0.062 0.025 0.066 0.081 0.103-0.126 0.16-0.19 0.17-0.192l0.067 0.027c-0.022 0.178-0.077 0.269-0.165 0.276zM7.025 9.005c-0.030 0.004-0.090-0.090-0.178-0.277l-0.005-0.055c0.057-0.006 0.116 0.087 0.178 0.277zM6.94 8.342l-0.025 0.059-0.87-0.363c0.58 0.020 0.879 0.12 0.895 0.304zM3.267 11.495l-0.123 0.010-0.005-0.054 0.123-0.011zM3.167 9.601l0.030-0.002 0.008 0.087c-0.029 0.002-0.066 0.045-0.112 0.127l-0.005-0.060c0.055-0.067 0.083-0.116 0.079-0.152zM2.91 10.209l0.010 0.116-0.030 0.002-0.010-0.116zM2.774 10.426l0.060-0.005c-0.006 0.096-0.033 0.148-0.080 0.151l-0.031 0.002c0.037-0.064 0.055-0.114 0.051-0.148zM2.674 10.729l0.033-0.004 0.002 0.028-0.055 0.093-0.059 0.005-0.002-0.028c0.059-0.006 0.086-0.036 0.081-0.094zM2.574 11.001l-0.018 0.146-0.030 0.001-0.013-0.144zM1.576 13.837c-0.040 0.2-0.082 0.3-0.126 0.304l-0.002-0.028c-0.011-0.098 0.032-0.19 0.128-0.276zM1.393 14.234l0.002 0.028c0.004 0.040-0.015 0.063-0.054 0.064l-0.002-0.028c-0.004-0.034 0.015-0.055 0.054-0.064zM1.339 15.057l0.093-0.009 0.004 0.032c-0.034 0.006-0.065 0.019-0.092 0.037l0.001-0.001-0.059 0.005c-0.004-0.030 0.016-0.053 0.053-0.064zM3.971 14.245c-0.519 0.256-0.825 0.43-0.916 0.52-0.562 0.196-0.84 0.317-0.835 0.365-0.5 0.198-0.83 0.343-0.987 0.434-0.059-0.001-0.115-0.016-0.164-0.043l0.002 0.001c-0.010-0.102 0.037-0.184 0.135-0.25 0.013-0.001 0.029-0.002 0.045-0.002 0.074 0 0.145 0.015 0.209 0.043l-0.003-0.001c0.138-0.064 0.3-0.119 0.468-0.156l0.016-0.003-0.005-0.060-0.185 0.016c0.023-0.032 0.201-0.116 0.536-0.25l0.092-0.010 0.002 0.029c-0.158 0.014-0.245 0.060-0.265 0.144 0.004 0.037 0.025 0.053 0.064 0.050 0.12-0.075 0.178-0.12 0.176-0.132 0.226-0.043 0.85-0.37 1.873-0.98l0.005 0.055c0.002 0.027-0.085 0.102-0.262 0.23zM2.403 14.76c0.151-0.012 0.285-0.078 0.384-0.178l0-0c0.043-0.003 0.066 0.013 0.067 0.050-0.072 0.007-0.213 0.068-0.417 0.185l-0.030 0.002zM4.933 12.817l-0.784 0.62c-0.583 0.383-0.896 0.575-0.94 0.578-0.929 0.51-1.507 0.776-1.731 0.795l-0.034 0.004c0.029-0.105 0.441-0.95 1.241-2.54 0.353-0.030 0.907-0.194 1.663-0.493l0.185-0.016c0.383-0.033 0.669 0.041 0.857 0.22l0.011 0.115c-0.142 0.409-0.299 0.647-0.468 0.717zM3.4 11.953l0.127-0.010 0.002 0.028-0.127 0.010zM5.174 11.653l0.092-0.010c0.085 0.041 0.13 0.077 0.133 0.109l0.002 0.028c-0.081 0.008-0.158-0.035-0.227-0.127zM5.424 10.224c-0.082 0.098-0.306 0.265-0.672 0.5-0.12 0.010-0.57 0.185-1.35 0.526-0.029-0.013-0.064-0.021-0.1-0.021-0.009 0-0.017 0-0.025 0.001l0.001-0-0.005-0.056c-0.010-0.112 0.040-0.253 0.15-0.423 0.061-0.32 0.127-0.504 0.2-0.548l0.65-1.46c-0.008-0.090 0.13-0.16 0.415-0.208l0.093-0.010 0.007 0.084c0.28-0.042 0.453-0.067 0.52-0.072 0.517-0.045 0.785 0.060 0.807 0.31l0.058-0.004-0.012-0.148 0.064-0.005c0.15 0.083 0.233 0.185 0.243 0.304 0.007 0.082-0.037 0.183-0.131 0.304-0.040 0.003-0.062-0.025-0.066-0.082l-0.064 0.005-0.014 0.178c-0.262 0.391-0.452 0.592-0.57 0.603-0.106 0.148-0.172 0.22-0.199 0.222zM5.823 11.247c-0.054-0.036-0.096-0.052-0.128-0.050l-0.007-0.087 0.058-0.005 0.13 0.076c0.005 0.041-0.012 0.062-0.053 0.066zM6.235 11.736c0.057 0.023 0.091 0.048 0.098 0.071l-0.028 0.007 0.002 0.002c-0.007 0.001-0.013 0.002-0.018 0.004l0-0-0.043 0.033zM6.275 11.981l-0.006-0.023 0.075-0.017 0.005 0.023zM6.454 12.182c0.076-0.012 0.114-0.017 0.256-0.050l0.005 0.024-0.27 0.062c0.003-0.010 0.006-0.022 0.009-0.034l0-0.002zM6.717 12.294c-0.114 0.011-0.089-0.003-0.27 0.038l-0.005-0.023 0.226-0.073 0.108-0.025 0.010 0.043c-0.047 0.010-0.012 0.010-0.069 0.040zM6.957 12.238c-0.026 0.007-0.048-0.006-0.060-0.036l0.070-0.016c0.030-0.007 0.049 0.005 0.056 0.036zM7.608 11.537l-0.005-0.023 0.112-0.027 0.010 0.043zM8.304 15.801c0.004-0.014 0.007-0.030 0.007-0.047 0-0.008-0.001-0.016-0.002-0.024l0 0.001 0.024-0.006c0.030-0.007 0.048 0.004 0.056 0.032l0.005 0.023zM8.791 11.72l-0.050-0.009c-0.056 0.025-0.124 0.048-0.193 0.066l-0.010 0.002-0.046 0.010c-0.027 0.007-0.048-0.003-0.059-0.032l0.326-0.074 0.107-0.050 0.035 0.040c-0.042 0.006-0.079 0.023-0.111 0.047l0.001-0zM9.041 11.64l-0.004-0.023c0.024-0.008 0.044-0.022 0.060-0.040l0-0 0.231-0.053 0.005 0.023c-0.122 0.030-0.22 0.060-0.292 0.093zM9.077 11.172c-0.025 0.009-0.046 0.023-0.064 0.040l0-0c-0.004-0.017-0.035-0.017-0.096-0.002-0.010-0.045 0.16-0.107 0.514-0.189l0.050-0.010 0.010 0.042c-0.248 0.073-0.387 0.114-0.414 0.119zM9.7 10.5c-0.025 0.283-0.125 0.443-0.3 0.484l-0.006-0.023-0.156 0.060-0.070 0.016c-0.013 0.004-0.029 0.006-0.045 0.006-0.018 0-0.036-0.003-0.053-0.008l0.001 0-0.014-0.062c-0.005-0.023 0.22-0.336 0.68-0.937l0.053 0.009c0.020 0.081-0.011 0.233-0.091 0.455zM10.8 9.557l-0.020 0.002-0.005-0.044 0.093-0.010 0.002 0.024c-0.027 0.007-0.050 0.017-0.072 0.029l0.002-0.001zM10.347 14.112c-0.038-0.020-0.083-0.032-0.132-0.032-0.004 0-0.007 0-0.011 0l0.001-0-0.005-0.068c-0.002-0.023 0.012-0.039 0.042-0.048 0.030-0.003 0.048 0.018 0.052 0.064 0.038-0.056 0.080-0.104 0.127-0.146l0.001-0.001 0.048 0.020c-0.018 0.135-0.059 0.206-0.123 0.211zM15.209 9.026c-0.023 0.001-0.067-0.070-0.137-0.214l-0.004-0.044c0.045-0.004 0.091 0.066 0.137 0.208zM15.145 8.517l-0.021 0.046-0.658-0.275c0.44 0.014 0.667 0.090 0.679 0.229zM12.355 10.913l-0.093 0.008-0.004-0.044 0.093-0.007zM12.278 9.473l0.025-0.001 0.005 0.068c-0.023 0.001-0.051 0.033-0.085 0.096l-0.004-0.045c0.040-0.051 0.060-0.090 0.059-0.118zM12.085 9.936l0.007 0.087-0.025 0.002-0.007-0.087zM11.98 10.102l0.046-0.004c-0.005 0.075-0.025 0.114-0.059 0.117l-0.025 0.002c0.021-0.033 0.035-0.072 0.038-0.114l0-0.001zM11.905 10.329l0.021-0.002 0.002 0.024-0.040 0.070-0.047 0.004-0.002-0.023c0.048-0.003 0.070-0.028 0.066-0.073zM11.83 10.536l-0.016 0.113-0.021 0.002-0.010-0.112zM11.070 12.693c-0.030 0.15-0.061 0.226-0.095 0.23l-0.002-0.020c-0.005-0.075 0.027-0.146 0.097-0.21zM10.93 12.993l0.002 0.020c0.004 0.032-0.010 0.050-0.042 0.051l-0.002-0.023c-0.002-0.023 0.012-0.039 0.042-0.048zM10.891 13.619l0.071-0.005 0.002 0.023c-0.026 0.005-0.050 0.014-0.071 0.028l0.001-0.001-0.045 0.003c-0.002-0.024 0.012-0.040 0.042-0.048zM12.888 13.002c-0.39 0.194-0.624 0.326-0.697 0.393-0.427 0.15-0.638 0.242-0.635 0.28-0.378 0.15-0.627 0.26-0.745 0.328-0.045-0.001-0.087-0.013-0.124-0.034l0.001 0.001c-0.007-0.077 0.029-0.139 0.104-0.185 0.011-0.001 0.025-0.002 0.038-0.002 0.055 0 0.107 0.011 0.155 0.031l-0.003-0.001c0.071-0.035 0.194-0.074 0.368-0.119l-0.004-0.044-0.146 0.010c0.018-0.025 0.155-0.089 0.41-0.192l0.070-0.005 0.002 0.020c-0.12 0.010-0.188 0.046-0.202 0.11 0.002 0.028 0.020 0.042 0.050 0.039 0.088-0.059 0.131-0.093 0.131-0.103 0.17-0.030 0.644-0.28 1.421-0.745l0.004 0.044c0.002 0.020-0.064 0.076-0.198 0.174zM11.697 13.393c0.115-0.009 0.218-0.058 0.295-0.133l-0 0c0.030-0.003 0.048 0.010 0.050 0.040-0.053 0.005-0.158 0.049-0.317 0.134l-0.025 0.002zM13.621 11.916l-0.592 0.476c-0.443 0.29-0.683 0.436-0.72 0.44-0.705 0.387-1.142 0.588-1.315 0.602l-0.025 0.002c0.022-0.080 0.337-0.722 0.945-1.928 0.265-0.023 0.685-0.149 1.26-0.377l0.145-0.012c0.29-0.025 0.507 0.032 0.649 0.169l0.007 0.087c-0.109 0.306-0.226 0.486-0.354 0.541zM12.458 11.261l0.093-0.009 0.002 0.023zM13.804 11.031l0.071-0.005c0.066 0.032 0.1 0.060 0.102 0.084l0.002 0.020c-0.062 0.005-0.121-0.027-0.175-0.099zM13.991 9.949c-0.062 0.074-0.231 0.202-0.507 0.38-0.092 0.010-0.434 0.14-1.024 0.397-0.023-0.009-0.050-0.014-0.078-0.014-0.005 0-0.011 0-0.016 0.001l0.001-0-0.004-0.044c-0.007-0.085 0.030-0.192 0.112-0.322 0.046-0.245 0.097-0.382 0.15-0.414l0.497-1.11c-0.005-0.066 0.1-0.12 0.313-0.16l0.071-0.005 0.005 0.067c0.21-0.034 0.341-0.053 0.395-0.059 0.391-0.033 0.596 0.045 0.612 0.237l0.046-0.004-0.010-0.106 0.047-0.004c0.114 0.062 0.174 0.137 0.181 0.226 0.005 0.064-0.026 0.142-0.094 0.233-0.030 0.004-0.048-0.018-0.051-0.064l-0.047 0.003-0.014 0.134c-0.197 0.3-0.341 0.455-0.432 0.462-0.080 0.109-0.13 0.164-0.152 0.166zM14.199 10.689l-0.005-0.068 0.046-0.004 0.1 0.060c0.002 0.030-0.013 0.045-0.043 0.049-0.042-0.027-0.074-0.040-0.098-0.037zM5.921 15.009l-0.047 0.010-0.039 0.034c0.007 0.028 0.025 0.039 0.055 0.032s0.043-0.025 0.031-0.076zM5.744 14.658l0.005 0.023c0.030-0.007 0.043-0.025 0.036-0.053l-0.005-0.023c-0.028 0.007-0.040 0.025-0.036 0.053zM6.996 11.679l0.054-0.012-0.010-0.047-0.054 0.013zM23.134 13.034c-0.54 0.121-0.608 0.1-0.722 0.109l0.004 0.044 0.050-0.003 0.026-0.002-0.007-0.006 0.060-0.023c0.534-0.058 0.597-0.037 0.589-0.119zM20.223 13.42l0.004 0.045h0.007zM19.888 12.248l-0.048-0.016c-0.024 0.053-0.044 0.115-0.056 0.18l-0.001 0.005 0.002 0.020c0.038-0.002 0.072-0.066 0.103-0.189zM23.244 13.025l0.004 0.045 0.078 0.014-0.004-0.044zM19.564 13.475l-0.12-0.014-0.022 0.046 0.002 0.023 0.72-0.060-0.003-0.044zM19.237 11.898l-0.002-0.023-0.024 0.002-0.045 0.028 0.025 0.043c0.034-0.004 0.050-0.020 0.046-0.050zM23.586 12.698l0.034-0.003c0.020-0.002 0.028-0.018 0.026-0.047l-0.020-0.042c-0.001 0-0.002-0-0.004-0-0.101 0-0.196 0.026-0.278 0.072l0.003-0.002-0.002-0.022-0.147 0.014c-0.004-0.045-0.016-0.068-0.036-0.066l-0.076 0.007c-0.090 0.007-0.132 0.004-0.176 0.038-0.002-0.017-0.007-0.024-0.016-0.024l-0.086 0.007-0.050 0.029c-0.002-0.016-0.007-0.023-0.016-0.023l-0.030 0.026-0.002-0.023-0.119-0.009-0.028 0.002 0.004 0.045 0.060 0.016 0.057-0.004c0.020 0.013 0.040 0.016 0.066 0.014l0.050-0.025 0.002 0.020c-0.28 0.070-0.278 0.057-0.47 0.089-0.021-0.014-0.037-0.021-0.048-0.020l-0.004 0.004c-0.021-0.002-0.034-0.016-0.036-0.040l0.1-0.012c0.007 0 0.012 0.008 0.068 0.018 0.080-0.039 0.083-0.055 0.126-0.058l-0.004-0.045c-0.274 0.053-0.164 0.018-0.507 0.048l-0.016 0.002-0.004-0.045c0.441-0.053 0.294-0.023 0.445-0.065 0.002 0.016 0.007 0.023 0.016 0.023 0.016-0.016 0.036-0.027 0.059-0.030l0.001-0 0.030-0.002c0.155-0.013 0.207 0.017 0.513-0.068l0.002 0.020 0.050-0.025 0.046-0.004c-0.004-0.044 0.064-0.051 0.087-0.053l-0.004-0.048c-0.537 0.108-0.678 0.078-0.827 0.12l-0.002-0.019c-0.14 0.025-0.146 0.014-0.182 0.016-0.018 0.006-0.033 0.016-0.044 0.029l-0 0c-0.002-0.016-0.007-0.023-0.018-0.023l-0.009 0.001-0.455 0.075c-0.002-0.012-0.007-0.020-0.018-0.018-0.237 0.050-0.173 0.059-0.49 0.087-0.022 0.004-0.042 0.013-0.058 0.025l0-0c-0.002-0.012-0.009-0.020-0.025-0.018l-0.194 0.016-0.13 0.033c-0.001-0.013-0.008-0.020-0.024-0.018-0.073 0.020-0.137 0.032-0.189 0.035h-0.004c-0.032 0.004 0.016-0.009-0.009-0.020l-0.039 0.024c-0.057 0.005-0.027-0.004-0.222-0.002-0.343 0.043-0.306 0.048-0.343 0.050l-0.129-0.009c0.002 0.012-0.005 0.021-0.020 0.021-0.145-0.020-0.22-0.042-0.221-0.070 0.020-0.138 0.053-0.209 0.1-0.212l0.026-0.002-0.022 0.046 0.025-0.002c0.047-0.025 0.068-0.048 0.066-0.070l-0.004-0.047-0.046 0.003-0.004-0.044c-0.001-0.006-0.001-0.014-0.001-0.021 0-0.025 0.006-0.048 0.016-0.069l-0 0.001 0.105-0.169 0.004 0.045 0.050-0.004-0.004-0.045-0.029-0.040c0.038-0.032 0.066-0.050 0.090-0.052l-0.003-0.023-0.067 0.005-0.005-0.067c0.135-0.281 0.199-0.445 0.195-0.491l0.048 0.020c0.030-0.003 0.045-0.020 0.043-0.052l-0.046 0.003-0.002-0.020c-0-0.005-0.001-0.010-0.001-0.015 0-0.028 0.007-0.055 0.019-0.078l-0 0.001c0.073-0.077 0.106-0.153 0.1-0.233 0.013-0.002 0.020 0.005 0.022 0.020 0.063-0.035 0.11-0.129 0.146-0.285 0.11-0.2 0.267-0.598 0.472-1.194 0.39-1.053 0.375-1.165 0.43-1.414l-0.046 0.004c0 0.004 0.001 0.010 0.001 0.015 0 0.027-0.007 0.053-0.019 0.076l0-0.001c-0.022-0.010-0.048-0.017-0.075-0.017h-0l-0.002-0.020c-0.007-0.090 0.030-0.199 0.116-0.327l0.021-0.002 0.040 0.153 0.045-0.003c-0.002-0.011 0.011-0.072 0.036-0.184-0.002-0.023-0.020-0.037-0.055-0.039l-0.045 0.029c-0.001-0.027-0.002-0.058-0.002-0.089 0-0.057 0.002-0.113 0.006-0.168l-0 0.007-0.023 0.003c-0.039-0.040-0.058-0.072-0.060-0.098l-0.255 0.025c-0.005-0.030-0.015-0.056-0.029-0.080l0.001 0.001c-0.002-0.023 0.055-0.046 0.172-0.069l0.052 0.020 0.048-0.029c0.002 0.016 0.010 0.023 0.029 0.022l0.048-0.029c0.002 0.016 0.010 0.023 0.028 0.021l0.023-0.001-0.004-0.052c-0.035 0.004-0.13 0.004-0.28-0.002l-0.047 0.032-0.002-0.028c-1.193 0.098-1.871 0.153-2.033 0.169-0.021 0.002-0.105 0-0.252-0.004 0.002 0.020-0.016 0.030-0.052 0.034l-0.052-0.023-0.174 0.044c-0.040 0.004-0.11 0.002-0.206-0.009-0.027 0.021-0.061 0.035-0.097 0.038l-0.001 0c-0.021 0.002 0.254-0.014 0.51-0.032-0.035 0.023-0.078 0.038-0.124 0.039h-0c-0.007 0.001-0.014 0.001-0.022 0.001-0.029 0-0.056-0.007-0.080-0.020l0.001 0c-0.103 0.033-0.23 0.064-0.36 0.087l-0.017 0.002-0.052-0.020-0.832 0.128c-0.025-0.012-0.055-0.019-0.086-0.019-0.009 0-0.018 0.001-0.027 0.002l0.001-0c-0.045 0.003-0.12 0.020-0.223 0.048l-0.402 0.167 0.030 0.050c0.031-0.006 0.059-0.017 0.083-0.033l-0.001 0.001 0.143 0.012-0.018 0.134c-0.132 0.058-0.208 0.145-0.23 0.256-0.197 0.087-0.295 0.149-0.295 0.186l0.002 0.023 0.030-0.001 0.054-0.029 0.062 0.075 0.009 0.103c0.004 0.032-0.329 0.731-0.994 2.097-0.576 1.316-0.879 2.036-0.907 2.166-0.198 0.055-0.311 0.135-0.345 0.242 0.004 0.034 0.062 0.057 0.176 0.066l0.005 0.051-0.052 0.086 0.010 0.103c0.004 0.053 0.149 0.094 0.431 0.122-0.002-0.017 0.007-0.028 0.027-0.030 0.005 0.064-0.012 0.189-0.053 0.374l0.030-0.002c0.117-0.16 0.173-0.27 0.167-0.33l0.025-0.003c0.028-0.002 0.059 0.030 0.094 0.1-0.035 0.014-0.16 0.297-0.373 0.85l0.030 0.050 0.030-0.002c0.262-0.662 0.425-1.028 0.493-1.097 0.343-0.030 0.937-0.091 1.78-0.182l0.054-0.032c0.002 0.018 0.012 0.027 0.032 0.025l0.055-0.005 0.053-0.032c0.002 0.018 0.012 0.027 0.032 0.025l0.638-0.055c0.17-0.015 0.25-0.066 0.242-0.153-0.002-0.023 0.098-0.050 0.299-0.079 0 0 0 0 0 0 0.031 0 0.061 0.006 0.089 0.017l-0.002-0.001c-0.002-0.016 0.1-0.032 0.302-0.050 0.005-0.106 0.040-0.163 0.1-0.168l-0.005-0.052c-0.073 0.008-0.139 0.024-0.202 0.047l0.006-0.002c-0.091-0.001-0.178-0.012-0.262-0.032l0.008 0.002c-0.024 0.015-0.051 0.025-0.081 0.031l-0.001 0-0.444 0.015-0.054 0.028c-0.002-0.016-0.012-0.023-0.032-0.021l-0.025 0.001-0.056 0.029c-0.002-0.016-0.048-0.029-0.141-0.041l-0.057 0.034-0.11 0.009-0.002-0.029c0.573-0.062 0.855-0.14 0.848-0.233 0.038-0.003 0.057 0.015 0.060 0.052l0.168-0.043-0.005-0.051-1.371 0.037c0.002 0.018-0.007 0.028-0.027 0.030l-0.167-0.014c-0.040 0.002-0.077 0.016-0.108 0.037l0.001-0-0.062-0.023c-0.173 0.014-0.3 0.036-0.386 0.062-0.047-0.003-0.103-0.005-0.158-0.005-0.082 0-0.163 0.004-0.243 0.012l0.010-0.001-0.308 0.026-0.142-0.016c-0.007-0.090 0.169-0.537 0.531-1.337 0.105-0.27 0.201-0.44 0.294-0.503 0.032 0.001 0.062 0.008 0.088 0.022l-0.001-0.001 0.219-0.075 0.112 0.018c0.188-0.016 0.407-0.070 0.658-0.162 0.013-0.002 0.028-0.003 0.044-0.003 0.035 0 0.069 0.006 0.1 0.017l-0.002-0.001 0.167-0.040 0.498-0.042c0.212-0.018 0.441-0.064 0.69-0.14l-0.005-0.052c-0.092 0.009-0.14-0.007-0.144-0.045-0.005-0.069-0.073-0.097-0.203-0.087l-0.005-0.051 0.137-0.040 0.36-0.030-0.005-0.051c-0.011 0-0.025 0-0.038 0-0.065 0-0.129-0.002-0.193-0.006l0.009 0-0.005-0.056 0.139-0.012c0.037-0.004 0.053-0.021 0.050-0.057-0.187 0.005-0.281-0.004-0.283-0.028-1.302 0.064-1.954 0.076-1.958 0.035-0.031 0.007-0.059 0.019-0.083 0.036l0.001-0-0.034-0.054c0.345-0.732 0.548-1.102 0.607-1.108-0.004 0.051-0.020 0.098-0.046 0.138l0.001-0.001 0.002 0.023 0.055-0.005c0.137-0.327 0.253-0.496 0.349-0.503 0.409-0.036-0.057-0.062 0.818-0.2 0.036 0.017 0.060 0.024 0.078 0.022 0.343-0.070 0.822-0.142 1.435-0.217l-0.004-0.052-0.327 0.030-0.004-0.050c0.037-0.003 0.071-0.017 0.098-0.038l-0 0 0.002 0.028c0.029-0.007 0.054-0.019 0.075-0.035l-0 0c0.057-0.006 0.1 0 0.13 0.016 0.076-0.022 0.169-0.042 0.264-0.054l0.009-0.001 0.205-0.020c0.050-0.032 0.073-0.060 0.071-0.087l-0.002-0.023c-0.016 0.001-0.035 0.002-0.055 0.002-0.044 0-0.088-0.004-0.13-0.013l0.004 0.001c-0.002-0.030 0.013-0.049 0.047-0.058l0.38-0.035 0.175-0.045c0.002 0.020 0.010 0.027 0.024 0.027 0.029-0.007 0.054-0.019 0.075-0.036l-0 0 0.029 0.004c-0.023 0.048-0.050 0.117-0.077 0.208l-0.050 0.004c-0.003-0.034-0.013-0.065-0.029-0.092l0.001 0.001-0.025 0.002c-0.462 1.287-0.669 1.887-1.096 2.875-0.078 0.253-0.144 0.393-0.2 0.424 0.002 0.028 0.020 0.042 0.050 0.039 0.001 0.014 0.002 0.030 0.002 0.047 0 0.119-0.033 0.23-0.091 0.324l0.002-0.003c-0.197 0.569-0.329 0.88-0.396 0.937l0.044 0.269c0.002 0.028-0.012 0.044-0.043 0.048l-0.047 0.003c-0.007-0.074-0.034-0.11-0.082-0.105l-0.025 0.002c-0.060 0.094-0.106 0.203-0.137 0.33l0.047-0.004c0.062-0.041 0.090-0.090 0.085-0.145l0.093-0.008 0.053 0.020c-0.043 0.067-0.062 0.12-0.059 0.161l0.025 0.043-0.060 0.142 0.002 0.023c0.003-0 0.007-0 0.011-0 0.061 0 0.117 0.019 0.164 0.051l-0.001-0.001c0.053-0.008 0.101-0.028 0.141-0.058l-0.001 0.001c0.054-0.005 0.253-0.007 0.596-0.007l0.173-0.059c0.21-0.002 0.243 0.004 0.425-0.012l0.074-0.007 0.040-0.027 0.002 0.023c0.19-0.016 0.202-0.004 0.352 0.014l0.002 0.023-0.105 0.010 0.004 0.044c0.032-0.002 0.060-0.014 0.083-0.032l-0 0c0.027-0.002 0.043 0.012 0.045 0.044-0.053 0.006-0.102 0.017-0.148 0.033l0.004-0.001-0.046-0.016c-0.073 0.020-0.057 0.025-0.107 0.029l-0.073-0.015c0.002 0.013-0.005 0.022-0.018 0.022 0.002 0.028 0.018 0.042 0.045 0.040l0.074-0.006 0.39-0.034 0.147-0.032c0.002 0.012 0.007 0.020 0.020 0.018l0.071-0.027 0.134-0.010c0.103-0.010 0.1-0.017 0.325-0.052-0.002-0.015 0.004-0.020 0.014-0.022l0.002 0.020c0.365-0.062 0.388-0.066 0.447-0.086l0.005 0.011c0.090-0.021 0.039-0.016 0.064-0.034 0.002 0.016 0.007 0.023 0.016 0.023l0.064-0.005-0.004-0.048-0.13-0.002-0.002-0.003-0.014 0.003h-0.018v0.004c-0.087 0.018-0.090 0.005-0.146 0.010l-0.326 0.018-0.002-0.023 0.182-0.025 0.066-0.005 0.037-0.027 0.002 0.024c0.256-0.022 0.347 0.042 1.531-0.21 0.064-0.006 0.059-0.059 0.1-0.17-0.003 0-0.006 0-0.009 0-0.019 0-0.037-0.005-0.053-0.014l0.001 0c-0.098 0.037-0.15 0.020-0.338 0.050-0.016 0.001-0.029-0.013-0.034-0.042l-0.002-0.020 0.181 0.006c0.034-0.003 0.1-0.009 0.198-0.064 0 0.016-0.036 0.025-0.010 0.023zM14.829 12.838l-0.084 0.008c-0.004-0.034 0.041-0.162 0.133-0.38l0.056-0.006c0.002 0.051-0.032 0.178-0.105 0.378zM14.93 12.433l-0.002-0.023c-0.002-0.028 0.016-0.048 0.055-0.057l0.002 0.023c0.002 0.034-0.016 0.054-0.055 0.057zM16.042 13.293l0.002 0.022-0.14 0.013-0.001-0.023zM15.874 13.278c0.002 0.028-0.040 0.060-0.133 0.092l-0.17-0.012-0.056 0.005-0.005-0.051zM16.998 8.104l-0.083 0.008-0.002-0.029c-0.002-0.028 0.014-0.048 0.050-0.057l0.030-0.002 0.057 0.023c0.002 0.034-0.015 0.054-0.052 0.057zM18.27 7.855l0.027-0.001 0.004 0.051-0.077 0.007c-0.002-0.028 0.013-0.048 0.046-0.057zM17.95 7.967l-0.126-0.014-0.002-0.023c0.165-0.014 0.22-0.032 0.321-0.060 0.002 0.020 0.020 0.026 0.052 0.023l0.004 0.051-0.050 0.006c-0.007 0.001-0.014 0.001-0.022 0.001-0.029 0-0.056-0.007-0.080-0.020l0.001 0c-0.028 0.019-0.061 0.031-0.097 0.035l-0.001 0zM18.108 8.428l-0.002-0.023 0.205-0.020 0.002 0.024zM18.327 8.25l-0.002-0.028 0.1-0.010 0.001 0.030zM18.35 7.902l-0.027 0.001 0.023-0.055 0.228-0.021 0.002 0.028c-0.085 0.010-0.162 0.027-0.236 0.050l0.010-0.003zM18.466 8.392l-0.004-0.051 0.1-0.009c0.033-0.004 0.050 0.013 0.052 0.048zM19.068 7.571l-0.128 0.035-0.023 0.002c-0.060 0.006-0.138 0.004-0.23-0.005 0.165-0.010 0.323-0.023 0.381-0.032zM18.932 8.14l0.002 0.023-0.177 0.016-0.002-0.023zM19.22 8.277c-0.002-0.021-0.036-0.036-0.105-0.043l-0.176 0.050-0.136 0.005c-0.030-0.021-0.046-0.035-0.048-0.046l0.157 0.009 0.352-0.057 0.18 0.007 0.002 0.029c-0.083 0.007-0.16 0.024-0.233 0.048l0.007-0.002zM21.032 7.809l0.040 0.002c0.059-0.059 0.13-0.107 0.208-0.14l0.004-0.002c-0.064 0.28-0.163 0.489-0.3 0.624l-0.1-0.060c0.051-0.115 0.102-0.256 0.143-0.401l0.005-0.023zM20.726 8.334l0.025-0.002c-0.034 0.064-0.064 0.098-0.089 0.1l-0.005-0.068c0.016 0 0.040-0.010 0.069-0.030zM20.529 8.805c0.048-0.192 0.094-0.3 0.137-0.329l0.002 0.023c-0.025 0.178-0.064 0.272-0.116 0.28l0.009 0.111c-0.043 0.061-0.062 0.107-0.060 0.143l-0.025 0.002-0.015-0.155c0.029-0.004 0.052-0.029 0.068-0.075zM20.452 9.061c-0.009 0.069-0.027 0.131-0.054 0.189l0.002-0.004-0.024 0.002-0.005-0.068c0.033-0.078 0.062-0.117 0.081-0.119zM19.017 13.226l-0.002-0.020 0.046-0.003 0.005 0.068c-0.025 0.002-0.043-0.013-0.049-0.045zM21.067 13.28c-0.002-0.016-0.009-0.023-0.024-0.022l-0.116 0.011-0.002-0.023h0.010l0.274-0.023 0.002 0.023c-0.080 0.003-0.128 0.016-0.144 0.034zM20.93 13.223c0.011 0.005 0.005 0.010 0 0.014-0.005-0.002-0.012-0.007 0-0.014zM20.945 12.903l-0.153 0.012-0.002-0.023 0.138-0.012 0.121-0.030c0.002 0.014 0.010 0.019 0.025 0.017 0.144-0.025 0.13-0.032 0.2-0.037 0.023-0.002 0.037 0.012 0.039 0.040zM21.48 12.856c-0.085-0.008-0.090-0.016-0.151-0.010l-0.002-0.020 0.137-0.012 0.002 0.020c-0.014 0.001 0.037 0.005 0.014 0.022zM21.49 12.832l-0.001-0.020 0.074-0.007 0.002 0.020zM21.656 12.817l-0.002-0.020c0.021-0.005 0.038-0.015 0.053-0.028l-0 0c0.038-0.003 0.057 0.022 0.061 0.050zM21.868 12.791l-0.002-0.024 0.090-0.007 0.002 0.023zM21.994 12.78c-0.002-0.027 0.009-0.043 0.032-0.046l0.030 0.039c-0.002-0.013 0.004-0.020 0.014-0.022l0.023 0.043zM20.651 13.36l-0.004-0.045-0.014 0.002zM23.776 12.55c0.014-0.008 0.021-0.017-0.013-0.023-0.016 0.018 0.018 0.024-0.017 0.025l0.002 0.016 0.020-0.014-0.020 0.016v0.002l-0.038 0.048 0.075-0.027h0.009zM23.906 12.652l-0.014 0.002 0.004 0.044 0.105-0.009c-0.002-0.028-0.072-0.037-0.095-0.037zM23.744 12.574l0.002-0.002v-0.002z"/>
</svg>