<svg xmlns="http://www.w3.org/2000/svg" version="1.1" width="24" height="24" viewBox="0 0 24 24">
<path d="M21.928 9.49v2.071h-1.503v1.503h1.503v-1.5h2.072v-2.074zM16.013 9.988v1.075h1.075v-1.075zM18.339 12.56c-0.146 0.002-0.28 0.056-0.383 0.145l0.001-0.001c-0.096 0.091-0.155 0.219-0.155 0.361 0 0.008 0 0.015 0.001 0.023l-0-0.001c-0 0.007-0.001 0.016-0.001 0.024 0 0.129 0.056 0.245 0.145 0.325l0 0c0.090 0.075 0.203 0.125 0.327 0.14l0.003 0 0.103 0.015 0.112 0.020c0.062 0.009 0.117 0.022 0.171 0.039l-0.008-0.002c0.039 0.017 0.073 0.039 0.102 0.065l-0-0c0.062 0.062 0.101 0.147 0.101 0.242 0 0.009-0 0.018-0.001 0.027l0-0.001c0 0.006 0 0.012 0 0.018 0 0.109-0.049 0.206-0.127 0.271l-0.001 0c-0.087 0.066-0.198 0.106-0.317 0.106-0.010 0-0.021-0-0.031-0.001l0.001 0c-0.005 0-0.012 0-0.018 0-0.096 0-0.188-0.018-0.272-0.052l0.005 0.002c-0.094-0.044-0.174-0.103-0.24-0.174l-0-0.001-0.098 0.102c0.074 0.081 0.164 0.146 0.265 0.191l0.005 0.002c0.094 0.038 0.203 0.060 0.318 0.060 0.009 0 0.018-0 0.027-0l-0.001 0c0.011 0.001 0.023 0.001 0.035 0.001 0.159 0 0.305-0.055 0.421-0.146l-0.001 0.001c0.107-0.094 0.175-0.231 0.175-0.384 0-0.002-0-0.004-0-0.007v0c-0-0.075-0.016-0.147-0.044-0.211l0.001 0.003c-0.028-0.064-0.069-0.117-0.119-0.159l-0.001-0.001c-0.037-0.032-0.080-0.059-0.127-0.079l-0.003-0.001c-0.058-0.022-0.126-0.039-0.196-0.047l-0.004-0-0.112-0.020-0.088-0.013c-0.058-0.011-0.109-0.027-0.157-0.047l0.005 0.002c-0.047-0.019-0.088-0.043-0.124-0.073l0.001 0.001c-0.059-0.059-0.096-0.14-0.096-0.229 0-0.007 0-0.014 0.001-0.022l-0 0.001c-0-0.005-0-0.010-0-0.015 0-0.107 0.044-0.203 0.115-0.272l0-0c0.077-0.066 0.177-0.106 0.287-0.106 0.009 0 0.018 0 0.027 0.001l-0.001-0c0.006-0 0.013-0 0.020-0 0.084 0 0.163 0.017 0.236 0.047l-0.004-0.002c0.075 0.035 0.139 0.080 0.195 0.132l-0-0 0.090-0.092c-0.129-0.13-0.308-0.21-0.506-0.21-0.009 0-0.017 0-0.025 0l0.001-0c-0.010-0.001-0.022-0.001-0.035-0.001-0.001 0-0.001 0-0.002 0h0zM0.675 12.565c-0.165 0.001-0.316 0.062-0.433 0.162l0.001-0.001c-0.108 0.099-0.175 0.241-0.175 0.399 0 0.007 0 0.015 0 0.022l-0-0.001c-0.001 0.009-0.001 0.019-0.001 0.029 0 0.133 0.050 0.255 0.133 0.346l-0-0c0.095 0.088 0.219 0.145 0.357 0.157l0.002 0 0.12 0.015 0.105 0.015c0.067 0.005 0.127 0.033 0.172 0.076l-0-0c0.031 0.039 0.050 0.089 0.050 0.144 0 0.004-0 0.008-0 0.012l0-0.001c0 0.16-0.11 0.237-0.327 0.237-0.004 0-0.008 0-0.013 0-0.085 0-0.167-0.014-0.244-0.039l0.006 0.002c-0.077-0.026-0.142-0.068-0.195-0.123l-0-0-0.233 0.24c0.080 0.085 0.179 0.152 0.29 0.193l0.005 0.002c0.108 0.037 0.233 0.058 0.362 0.058 0.006 0 0.013-0 0.019-0l-0.001 0c0.009 0 0.019 0.001 0.029 0.001 0.175 0 0.336-0.059 0.465-0.158l-0.002 0.001c0.119-0.098 0.193-0.245 0.193-0.409 0-0.008-0-0.015-0-0.023l0 0.001c0.001-0.011 0.001-0.024 0.001-0.038 0-0.142-0.055-0.271-0.145-0.368l0 0c-0.041-0.038-0.089-0.070-0.142-0.092l-0.003-0.001c-0.061-0.023-0.131-0.041-0.205-0.051l-0.005-0.001-0.107-0.015-0.113-0.015c-0.065-0.008-0.123-0.036-0.167-0.078l0 0c-0.035-0.034-0.057-0.082-0.058-0.135v-0c-0-0.002-0-0.004-0-0.006 0-0.066 0.029-0.126 0.075-0.166l0-0c0.052-0.043 0.119-0.069 0.193-0.069 0.007 0 0.014 0 0.021 0.001l-0.001-0c0.001 0 0.002 0 0.003 0 0.072 0 0.141 0.010 0.207 0.028l-0.005-0.001c0.068 0.021 0.126 0.057 0.172 0.105l0 0 0.228-0.232c-0.071-0.073-0.158-0.131-0.255-0.168l-0.005-0.002c-0.095-0.034-0.204-0.053-0.318-0.053-0.007 0-0.014 0-0.021 0l0.001-0c-0.011-0.001-0.024-0.001-0.037-0.001-0 0-0 0-0 0h0zM12.766 12.568c-0.086 0.001-0.168 0.019-0.242 0.052l0.004-0.002c-0.082 0.036-0.152 0.085-0.21 0.146l-0 0c-0.038 0.038-0.071 0.082-0.096 0.131l-0.001 0.003c-0.022 0.044-0.039 0.095-0.049 0.149l-0.001 0.004c-0.010 0.055-0.017 0.121-0.020 0.188l-0 0.003c-0.003 0.089-0.005 0.193-0.005 0.297s0.002 0.209 0.006 0.312l-0-0.015c0.002 0.069 0.009 0.134 0.021 0.198l-0.001-0.008c0.011 0.057 0.028 0.108 0.052 0.156l-0.002-0.004c0.026 0.052 0.058 0.097 0.097 0.135l0 0c0.058 0.060 0.128 0.109 0.206 0.143l0.004 0.002c0.074 0.032 0.16 0.050 0.251 0.050v0c0.003 0 0.006 0 0.009 0 0.088 0 0.171-0.018 0.246-0.052l-0.004 0.002c0.082-0.036 0.152-0.085 0.21-0.145l0-0c0.038-0.039 0.071-0.083 0.096-0.132l0.001-0.003c0.022-0.044 0.039-0.095 0.049-0.148l0.001-0.004c0.010-0.055 0.017-0.121 0.020-0.188l0-0.003c0.003-0.089 0.005-0.193 0.005-0.297s-0.002-0.209-0.006-0.312l0 0.015c-0.002-0.069-0.009-0.134-0.021-0.198l0.001 0.008c-0.011-0.058-0.028-0.109-0.052-0.157l0.002 0.004c-0.026-0.052-0.058-0.096-0.097-0.134l-0-0c-0.058-0.061-0.128-0.11-0.206-0.144l-0.004-0.002c-0.074-0.031-0.16-0.050-0.25-0.050h-0c-0.002-0-0.005-0-0.007-0s-0.005 0-0.007 0h0zM1.817 12.583v0.333h0.483v1.575h0.36v-1.575h0.482v-0.333zM3.695 12.583v1.908h1.218v-0.33h-0.855v-0.464h0.727v-0.333h-0.727v-0.448h0.855v-0.333zM5.993 12.583l-0.673 1.908h0.375l0.113-0.337h0.655l0.11 0.337h0.377l-0.675-1.908zM7.435 12.583v1.908h0.36v-1.11l0.355 0.722h0.245l0.352-0.722v1.11h0.36v-1.908h-0.354l-0.48 1.030-0.483-1.030zM9.633 12.583l0.46 1.908h0.144l0.437-1.66 0.435 1.66h0.143l0.46-1.908h-0.147l-0.39 1.658-0.43-1.658h-0.145l-0.43 1.658-0.39-1.658zM14.085 12.583v1.908h0.14v-0.882h0.508l0.44 0.882h0.162l-0.445-0.882c0.243-0.031 0.429-0.237 0.429-0.486 0-0.010-0-0.021-0.001-0.031l0 0.001c0-0.007 0.001-0.016 0.001-0.024 0-0.137-0.057-0.261-0.148-0.35l-0-0c-0.096-0.085-0.223-0.136-0.362-0.136-0.007 0-0.014 0-0.021 0l0.001-0zM16.015 12.583v1.908h0.14v-0.515l0.44-0.553 0.593 1.068v-0.002h0.167l-0.667-1.177 0.57-0.728h-0.168l-0.935 1.192v-1.192zM19.203 12.616v0.19h0.026v-0.128l0.045 0.093h0.024l0.042-0.093v0.128h0.028v-0.19h-0.028l-0.055 0.118-0.055-0.118zM19.038 12.618v0.025h0.052v0.163h0.028v-0.163h0.052v-0.025zM12.778 12.698c0 0 0.001 0 0.002 0 0.137 0 0.262 0.057 0.35 0.148l0 0c0.030 0.031 0.056 0.066 0.076 0.105l0.001 0.002c0.019 0.038 0.034 0.082 0.043 0.129l0 0.003c0.010 0.052 0.016 0.112 0.018 0.174l0 0.001c0.003 0.083 0.005 0.18 0.005 0.278s-0.002 0.195-0.006 0.292l0-0.014c-0.002 0.063-0.008 0.123-0.019 0.182l0.001-0.007c-0.009 0.050-0.024 0.094-0.044 0.135l0.001-0.003c-0.022 0.041-0.048 0.076-0.077 0.107l0-0c-0.089 0.091-0.213 0.147-0.35 0.147s-0.261-0.056-0.35-0.147l-0-0c-0.030-0.031-0.056-0.066-0.077-0.105l-0.001-0.002c-0.018-0.038-0.032-0.082-0.041-0.128l-0.001-0.004c-0.010-0.052-0.016-0.112-0.018-0.174l-0-0.001c-0.003-0.083-0.005-0.18-0.005-0.278s0.002-0.195 0.006-0.292l-0 0.014c0.002-0.063 0.008-0.123 0.019-0.182l-0.001 0.007c0.008-0.049 0.023-0.094 0.043-0.135l-0.001 0.003c0.022-0.041 0.048-0.076 0.078-0.107l-0 0c0.088-0.091 0.212-0.147 0.348-0.148h0zM14.785 12.713c0.002-0 0.004-0 0.006-0 0.104 0 0.2 0.037 0.275 0.099l-0.001-0.001c0.069 0.064 0.112 0.155 0.112 0.256 0 0.012-0.001 0.023-0.002 0.034l0-0.001c0.001 0.007 0.001 0.016 0.001 0.024 0 0.103-0.044 0.196-0.114 0.262l-0 0c-0.074 0.061-0.169 0.099-0.273 0.099-0.007 0-0.015-0-0.022-0.001l0.001 0h-0.543v-0.77h0.545c0.004-0 0.009-0.001 0.014-0.001l0.001-0zM6.142 13.146l0.228 0.692h-0.46z"/>
</svg>