<svg xmlns="http://www.w3.org/2000/svg" version="1.1" width="24" height="24" viewBox="0 0 24 24">
<path d="M16.719 14.759l-5.331 5.337c-1.368 1.365-3.297 1.83-5.047 1.397-0.327 1.424-1.604 2.49-3.13 2.49-1.773 0-3.211-1.436-3.211-3.211 0-1.518 1.055-2.789 2.469-3.123-0.446-1.76 0.016-3.705 1.396-5.080l0.179-0.18 2.37 2.37-0.184 0.181c-0.769 0.779-0.769 2.024 0 2.789 0.771 0.78 2.022 0.78 2.787 0l0.465-0.465 4.869-4.877zM17.643 21.411c-1.822 0.563-3.885 0.12-5.328-1.318l-0.18-0.185 2.365-2.369 0.18 0.184c0.771 0.768 2.018 0.768 2.787 0 0.765-0.765 0.769-2.010-0.004-2.781l-0.466-0.465-4.867-4.873 2.37-2.369 5.33 5.339c1.365 1.36 1.846 3.278 1.411 5.021 1.56 0.224 2.759 1.56 2.759 3.18 0 1.784-1.439 3.21-3.209 3.21-1.545 0-2.851-1.096-3.135-2.565zM6.975 9.461l5.34-5.335c1.425-1.426 3.457-1.875 5.265-1.336 0.212-1.561 1.555-2.775 3.179-2.775 1.772 0 3.211 1.437 3.211 3.209 0 1.631-1.216 2.978-2.79 3.186 0.519 1.799 0.068 3.816-1.35 5.234l-0.182 0.184-2.369-2.369 0.184-0.184c0.769-0.77 0.769-2.016 0-2.783-0.766-0.766-2.011-0.768-2.781 0.003l-0.462 0.461-4.875 4.871zM4.322 12.108l-0.461-0.462c-1.431-1.431-1.875-3.476-1.332-5.288-1.429-0.329-2.499-1.604-2.499-3.134 0-1.77 1.44-3.209 3.21-3.209 1.596 0 2.92 1.166 3.17 2.691 1.73-0.405 3.626 0.065 4.979 1.415l0.184 0.185-2.37 2.37-0.183-0.181c-0.77-0.765-2.016-0.765-2.785 0-0.771 0.781-0.77 2.025-0.005 2.79l0.465 0.466 4.875 4.874-2.367 2.37-4.881-4.875z"/>
</svg>