<svg xmlns="http://www.w3.org/2000/svg" version="1.1" width="24" height="24" viewBox="0 0 24 24">
<path d="M23.881 8.948c-0.773-4.085-4.859-4.593-4.859-4.593h-18.299c-0.604 0-0.679 0.798-0.679 0.798s-0.082 7.324-0.022 11.822c0.164 2.424 2.586 2.672 2.586 2.672s8.267-0.023 11.966-0.049c2.438-0.426 2.683-2.566 2.658-3.734 4.352 0.24 7.422-2.831 6.649-6.916zM12.819 12.459c-1.246 1.453-4.011 3.976-4.011 3.976s-0.121 0.119-0.31 0.023c-0.076-0.057-0.108-0.090-0.108-0.090-0.443-0.441-3.368-3.049-4.034-3.954-0.709-0.965-1.041-2.7-0.091-3.71 0.951-1.010 3.005-1.086 4.363 0.407 0 0 1.565-1.782 3.468-0.963 1.904 0.82 1.832 3.011 0.723 4.311zM18.992 12.937c-0.928 0.116-1.682 0.028-1.682 0.028v-5.681h1.77c0 0 1.971 0.551 1.971 2.638 0 1.913-0.985 2.667-2.059 3.015z"/>
</svg>