<svg xmlns="http://www.w3.org/2000/svg" version="1.1" width="24" height="24" viewBox="0 0 24 24">
<path d="M20.984 22.265c-0.33 0-0.654-0.088-0.943-0.256-0.9-0.52-1.21-1.67-0.69-2.57 1.91-3.3 0.77-7.54-2.54-9.448-1.050-0.604-2.23-0.92-3.45-0.92-0.33 0-0.66-0.090-0.942-0.258-0.9-0.517-1.217-1.668-0.69-2.566 0.33-0.575 0.947-0.93 1.622-0.935 1.864 0 3.713 0.49 5.336 1.427 2.46 1.426 4.22 3.728 4.957 6.48 0.735 2.75 0.36 5.62-1.066 8.1-0.33 0.57-0.96 0.93-1.622 0.93zM9.506 23.575c-3.81 0-7.355-2.046-9.256-5.338-0.518-0.894-0.207-2.044 0.69-2.56 0.873-0.504 2.068-0.176 2.565 0.686 1.232 2.135 3.528 3.457 5.995 3.457 1.202 0 2.397-0.32 3.448-0.926 1.037-0.616 1.908-1.487 2.524-2.54 0.166-0.285 0.392-0.525 0.69-0.69 0.857-0.51 2.060-0.18 2.555 0.676 0.332 0.57 0.332 1.293-0.015 1.878-0.932 1.622-2.284 2.96-3.906 3.907-1.623 0.932-3.47 1.428-5.335 1.428zM10.252 6.938c-1.117 1.034-1.816 2.512-1.816 4.155 0 1.030 0.278 1.993 0.76 2.827 0.272 0.466 0.422 0.99 0.422 1.563 0 1.247-0.736 2.33-1.79 2.825 1.46 0.45 3.080 0.315 4.51-0.512 0.9-0.525 1.593-1.247 2.073-2.072 0.27-0.467 0.67-0.872 1.16-1.144 1.080-0.63 2.39-0.524 3.35 0.136-0.33-1.487-1.26-2.84-2.69-3.65-0.88-0.51-1.86-0.752-2.82-0.752-0.54 0-1.080-0.15-1.56-0.42-1.080-0.63-1.652-1.803-1.547-2.975zM6.482 17.366c-0.664 0-1.286-0.36-1.623-0.94-0.94-1.62-1.43-3.465-1.43-5.334 0.001-5.882 4.781-10.668 10.671-10.668 1.030 0 1.872 0.842 1.872 1.88 0 1.035-0.842 1.876-1.88 1.876-3.812 0-6.91 3.102-6.91 6.912 0 1.21 0.318 2.404 0.926 3.455 0.165 0.28 0.25 0.606 0.25 0.938 0 1.036-0.84 1.878-1.88 1.878z"/>
</svg>