<svg xmlns="http://www.w3.org/2000/svg" version="1.1" width="24" height="24" viewBox="0 0 24 24">
<path d="M23.947 10.184v3.593c0 0.139-0.050 0.258-0.149 0.359-0.1 0.098-0.22 0.15-0.357 0.15h-0.779v-4.612h0.779c0.138 0 0.258 0.050 0.357 0.149 0.099 0.102 0.149 0.219 0.149 0.361zM23.44 14.818c0.138 0 0.258 0.050 0.357 0.149s0.149 0.22 0.149 0.357v3.607c0 0.14-0.050 0.258-0.149 0.36-0.1 0.097-0.22 0.146-0.357 0.146h-0.779v-4.621zM23.44 4.528c0.138 0 0.267 0.051 0.384 0.15 0.117 0.102 0.176 0.221 0.176 0.36v3.594c0 0.147-0.061 0.271-0.176 0.365-0.117 0.090-0.246 0.135-0.384 0.135h-1.289v11.084c0 0.135-0.053 0.24-0.157 0.331-0.105 0.075-0.224 0.12-0.364 0.12h-6.704v-2.265h5.207v-1.081h-5.207v-1.273h5.207v-1.021h-5.207v-1.305h5.207v-1.005h-5.207v-1.274h5.207v-1.006h-5.207v-1.305h5.207v-1.020h-5.207v-1.275h5.207v-1.065h-5.207v-2.533h6.887c0.016 0 0.075 0.044 0.169 0.135 0.095 0.094 0.152 0.209 0.17 0.344v0.811zM13.646 0.664v22.672l-13.646-2.356v-17.899l13.647-2.416zM9.753 7.384l-1.601 0.105v2.979c-0.018 1.745-0.018 2.753 0 3.021l-3.19-5.819-1.629 0.064v8.256l1.274 0.104v-6.092l3.44 6.265 1.705 0.104z"/>
</svg>