<svg xmlns="http://www.w3.org/2000/svg" version="1.1" width="24" height="24" viewBox="0 0 24 24">
<path d="M9.254 5.596h2.364c0.61 0 1.103 0.494 1.103 1.104v1.582c1.902-0.037 3.43-1.588 3.43-3.495 0-1.931-1.565-3.496-3.496-3.496s-3.496 1.565-3.496 3.496c0 0.287 0.035 0.566 0.1 0.833l-0.005-0.024zM20.302 8.284h0.002c0.001 0 0.001 0 0.002 0 1.328 0 2.404-1.076 2.404-2.404s-1.075-2.403-2.402-2.404h-0c-0.001 0-0.002 0-0.003 0-1.328 0-2.404 1.076-2.404 2.404 0 1.327 1.075 2.402 2.401 2.404h0zM12.218 17.317v-10.197c0-0.563-0.456-1.020-1.019-1.021h-10.199c-0.562 0.002-1.017 0.458-1.018 1.020v10.199c0.001 0.563 0.456 1.018 1.019 1.019h10.2c0.562-0.002 1.017-0.458 1.017-1.020 0 0 0 0 0 0v0zM8.726 9.827h-1.996v5.693h-1.27v-5.694h-1.986v-1.105h5.252zM23.013 9.596h-10.291v8.14c0 0.61-0.495 1.104-1.104 1.104h-4.218c0.923 2.285 3.122 3.867 5.692 3.867 0.812 0 1.587-0.158 2.295-0.445l-0.041 0.015c1.44-0.581 2.583-1.65 3.244-2.998l0.016-0.036c0.488 0.255 1.066 0.405 1.679 0.405 0.002 0 0.003 0 0.005 0h0.027c2.044 0 3.701-1.657 3.701-3.701v0-5.346c0-0.555-0.45-1.005-1.005-1.005z"/>
</svg>