<svg xmlns="http://www.w3.org/2000/svg" version="1.1" width="24" height="24" viewBox="0 0 24 24">
<path d="M21.95 19.062c-0.154 0-0.31-0.045-0.445-0.135-0.369-0.25-0.465-0.75-0.225-1.11 0.738-1.094 1.125-2.381 1.125-3.719s-0.387-2.625-1.125-3.721c-0.249-0.368-0.145-0.866 0.216-1.106 0.375-0.249 0.87-0.146 1.108 0.214 0.917 1.365 1.396 2.97 1.396 4.62 0 1.648-0.479 3.254-1.396 4.619-0.135 0.239-0.39 0.359-0.645 0.359zM19.66 17.768c-0.153 0-0.308-0.045-0.445-0.139-0.369-0.239-0.463-0.734-0.215-1.094 0.489-0.721 0.747-1.545 0.747-2.43 0-0.855-0.258-1.695-0.747-2.431-0.248-0.36-0.154-0.854 0.215-1.095s0.857-0.15 1.106 0.225c0.669 0.99 1.021 2.145 1.021 3.314 0 1.201-0.352 2.34-1.021 3.315-0.146 0.24-0.406 0.36-0.661 0.36zM15.93 10.615c-0.314-3.197-3.016-5.699-6.3-5.699-2.721 0-5.13 1.748-5.995 4.283-2.047 0.302-3.635 2.070-3.635 4.201 0 2.344 1.912 4.254 4.26 4.254h10.908c1.964 0 3.566-1.594 3.566-3.557 0-1.706-1.2-3.129-2.805-3.48zM15.168 16.061h-10.905c-1.466 0-2.669-1.191-2.669-2.658 0-1.465 1.193-2.658 2.669-2.658 0.71 0 1.381 0.285 1.886 0.781 0.3 0.314 0.811 0.314 1.125 0 0.3-0.301 0.3-0.811 0-1.125-0.555-0.542-1.231-0.931-1.965-1.111 0.75-1.665 2.43-2.774 4.305-2.774 2.609 0 4.74 2.129 4.74 4.738 0 0.512-0.075 1.006-0.24 1.486-0.135 0.42 0.090 0.869 0.51 1.020 0.074 0.030 0.165 0.045 0.24 0.045 0.33 0 0.645-0.211 0.75-0.54 0.105-0.315 0.18-0.63 0.225-0.96 0.734 0.285 1.26 1.005 1.26 1.83 0 1.096-0.885 1.979-1.965 1.979z"/>
</svg>