<svg xmlns="http://www.w3.org/2000/svg" version="1.1" width="24" height="24" viewBox="0 0 24 24">
<path d="M3.89 15.673l2.365-15.212c0.041-0.262 0.265-0.461 0.536-0.461 0.207 0 0.386 0.116 0.478 0.286l0.001 0.003 2.543 4.771zM20.685 19.364l-2.252-13.999c-0.045-0.259-0.267-0.453-0.535-0.453-0.149 0-0.284 0.060-0.383 0.158l0-0-14.2 14.294 7.857 4.428c0.228 0.131 0.502 0.208 0.793 0.208s0.565-0.077 0.801-0.212l-0.008 0.004zM14.3 7.148l-1.82-3.482c-0.093-0.174-0.273-0.29-0.48-0.29s-0.387 0.116-0.479 0.287l-0.001 0.003-7.99 14.318z"/>
</svg>