<svg xmlns="http://www.w3.org/2000/svg" version="1.1" width="24" height="24" viewBox="0 0 24 24">
<path d="M18.31 0l-0.35 0.010c-1.55 0.13-2.46 1.2-2.6 2.28-0.15 1.2 0.65 2.4 2.58 2.28 2.15-0.12 3.090-1.2 3.1-2.28 0.020-1.15-1-2.28-2.73-2.29zM7.21 0.34c-0.006-0-0.013-0-0.020-0-1.328 0-2.429 0.973-2.628 2.245l-0.002 0.015c-0.15 1.13 0.56 2.27 2.44 2.25 2.23-0.040 3.31-1.37 3.16-2.57-0.12-1-1.090-1.92-2.95-1.94zM19.56 9.050c-0.148 0.003-0.287 0.010-0.425 0.022l0.025-0.002c-5.28 0.54-5.54 0.6-15.26 0.82-4.1 0.010-3.28 14.11 5.48 14.11 8.2 0 18.12-15.15 10.18-14.95zM18.46 11.75c3.18-0.070-2.9 9.53-8.8 9.56-7.46 0-6.44-8.8-5.18-8.85 8.67-0.35 10.88-0.64 13.98-0.71z"/>
</svg>