<svg xmlns="http://www.w3.org/2000/svg" version="1.1" width="24" height="24" viewBox="0 0 24 24">
<path d="M21.605 0.021c-1.323 0.001-2.395 1.074-2.395 2.397 0 1.157 0.819 2.122 1.909 2.347l0.016 0.003c0.142 0.030 0.305 0.047 0.472 0.047 1.324 0 2.397-1.073 2.397-2.397s-1.073-2.397-2.397-2.397c-0.001 0-0.002 0-0.002 0h0zM12.021 2.416c-5.291 0-9.584 4.291-9.584 9.584 0 2.142 0.703 4.121 1.891 5.717l2.586-2.586c-0.554-0.891-0.883-1.972-0.883-3.13 0-3.308 2.682-5.99 5.99-5.99 1.158 0 2.238 0.328 3.154 0.897l-0.026-0.015 2.586-2.586c-1.57-1.181-3.552-1.891-5.7-1.891-0.005 0-0.010 0-0.016 0h0.001zM19.713 6.283l-2.586 2.587c0.556 0.892 0.885 1.974 0.885 3.133 0 3.308-2.681 5.989-5.989 5.989-1.159 0-2.241-0.329-3.157-0.899l0.025 0.015-2.586 2.584c1.571 1.182 3.555 1.893 5.705 1.893 0.004 0 0.008 0 0.012 0h-0.001c5.293 0 9.583-4.29 9.583-9.584 0-2.142-0.704-4.12-1.891-5.718zM2.396 19.187c-1.323 0.001-2.396 1.074-2.396 2.398 0 1.157 0.82 2.123 1.91 2.348l0.016 0.003c0.14 0.029 0.301 0.046 0.466 0.046 1.327 0 2.402-1.075 2.402-2.402 0-0.165-0.017-0.326-0.048-0.482l0.003 0.015c-0.228-1.106-1.194-1.926-2.352-1.926-0 0-0 0-0 0v0z"/>
</svg>