<svg xmlns="http://www.w3.org/2000/svg" version="1.1" width="24" height="24" viewBox="0 0 24 24">
<path d="M23.952 6.965c-0.005-0.002-0.009-0.006-0.014-0.006-0.009 0-0.016 0.006-0.023 0.009-15.128 1.523-22.239 8.102-23.915 9.72l0.223 0.35h2.644c6.872-6.908 16.156-9.201 21.065-9.956l0.006 0.002c0.004 0 0.006-0.004 0.010-0.004 0.029-0.006 0.052-0.028 0.052-0.059 0-0.029-0.021-0.049-0.048-0.056zM0.38 10.508l-0.16 0.302 3.245 2.366c0.496-0.298 1.155-0.656 1.827-0.99l0.185-0.083-2.177-1.595zM7.592 13.65c-0.536 0.395-1.084 0.818-1.674 1.313l2.852 2.078h2.957l0.123-0.273z"/>
</svg>