<svg xmlns="http://www.w3.org/2000/svg" version="1.1" width="24" height="24" viewBox="0 0 24 24">
<path d="M0 0.234l21.912 20.537c0 0 0.412 0.575-0.124 1.151-0.535 0.576-1.236 0.083-1.236 0.083zM6.508 2.292l17.010 15.638c0 0 0.413 0.576-0.123 1.152-0.534 0.576-1.235 0.083-1.235 0.083zM1.936 6.696l17.010 15.638c0 0 0.412 0.576-0.123 1.152s-1.235 0.082-1.235 0.082zM12.009 4.061l11.886 10.927c0 0 0.287 0.401-0.087 0.805s-0.863 0.058-0.863 0.058zM3.442 11.798l11.886 10.926c0 0 0.285 0.4-0.088 0.803-0.375 0.403-0.863 0.059-0.863 0.059zM17.629 6.613l5.426 4.955c0 0 0.142 0.188-0.044 0.377-0.185 0.188-0.428 0.027-0.428 0.027l-4.954-5.358zM6.178 17.231l5.425 4.956c0 0 0.144 0.188-0.042 0.377s-0.427 0.026-0.427 0.026z"/>
</svg>