<svg xmlns="http://www.w3.org/2000/svg" version="1.1" width="24" height="24" viewBox="0 0 24 24">
<path d="M7.435 12.25c-0.080 0.025-0.15 0.072-0.202 0.135-0.048 0.072-0.073 0.158-0.070 0.245 0 0.15 0.038 0.252 0.12 0.308 0.077 0.056 0.194 0.082 0.352 0.082 0.087 0 0.174-0.020 0.264-0.060 0.090-0.038 0.174-0.095 0.245-0.165v-0.66c-0.168 0.015-0.303 0.030-0.405 0.045-0.105 0.010-0.207 0.034-0.304 0.070zM12 0l-12 12 12 12 12-12zM12 19.357c-4.062-0.002-7.355-3.294-7.357-7.357 0.002-4.062 3.295-7.356 7.357-7.358 4.063 0.002 7.355 3.295 7.357 7.358-0.002 4.063-3.294 7.355-7.357 7.357zM12 5.377v0.002c-3.654 0-6.62 2.966-6.62 6.62s2.966 6.62 6.62 6.62 6.62-2.966 6.62-6.62c0-3.656-2.964-6.62-6.62-6.622zM9.138 13.623h-0.995v-0.336l-0.182 0.154c-0.142 0.108-0.304 0.188-0.477 0.233-0.082 0.020-0.202 0.035-0.352 0.035-0.262 0.007-0.515-0.097-0.698-0.285-0.187-0.19-0.277-0.426-0.277-0.716 0-0.238 0.046-0.427 0.14-0.574 0.1-0.15 0.24-0.27 0.405-0.348 0.205-0.090 0.423-0.152 0.646-0.18 0.25-0.033 0.516-0.060 0.803-0.078v-0.017c0-0.176-0.066-0.297-0.196-0.363-0.13-0.070-0.322-0.102-0.58-0.102-0.117 0-0.254 0.020-0.41 0.063-0.158 0.044-0.308 0.1-0.458 0.164h-0.087v-0.77c0.097-0.030 0.256-0.062 0.48-0.1 0.217-0.040 0.438-0.060 0.663-0.060 0.55 0 0.95 0.092 1.2 0.276 0.25 0.183 0.375 0.462 0.375 0.837zM12.358 13.456c-0.070 0.028-0.134 0.056-0.2 0.086-0.074 0.030-0.15 0.058-0.23 0.080-0.094 0.024-0.186 0.044-0.27 0.060-0.084 0.014-0.196 0.022-0.336 0.022-0.263 0-0.506-0.033-0.723-0.1-0.21-0.062-0.406-0.165-0.57-0.307s-0.292-0.32-0.373-0.52c-0.090-0.21-0.135-0.457-0.135-0.738-0.008-0.27 0.042-0.535 0.146-0.78 0.090-0.204 0.224-0.384 0.392-0.53 0.165-0.134 0.355-0.233 0.56-0.29 0.22-0.066 0.447-0.096 0.675-0.096 0.37 0 0.732 0.087 1.060 0.255v0.854h-0.127c-0.048-0.043-0.096-0.085-0.147-0.124-0.060-0.048-0.122-0.090-0.188-0.126-0.167-0.095-0.357-0.144-0.55-0.14-0.254 0-0.45 0.086-0.59 0.263-0.138 0.177-0.21 0.414-0.21 0.714 0 0.32 0.075 0.56 0.225 0.715 0.15 0.157 0.347 0.235 0.592 0.235 0.11 0 0.222-0.013 0.33-0.042 0.153-0.043 0.295-0.12 0.415-0.225 0.048-0.040 0.088-0.082 0.123-0.11h0.13zM16.691 13.629v-1.597c0-0.157 0-0.29-0.007-0.397-0.002-0.090-0.020-0.18-0.052-0.263-0.023-0.066-0.070-0.12-0.13-0.15-0.153-0.064-0.325-0.063-0.478 0.002-0.086 0.040-0.168 0.087-0.244 0.14v2.263h-0.993v-1.595c0-0.156-0.003-0.286-0.010-0.396-0.003-0.090-0.020-0.18-0.050-0.264-0.027-0.066-0.076-0.12-0.136-0.15-0.060-0.033-0.145-0.048-0.25-0.048-0.083 0-0.165 0.020-0.24 0.056-0.078 0.040-0.152 0.086-0.228 0.136v2.262h-0.995v-3.188h0.993v0.356c0.144-0.125 0.296-0.233 0.46-0.323 0.148-0.080 0.314-0.12 0.484-0.12 0.182-0.004 0.36 0.045 0.514 0.14 0.153 0.1 0.27 0.244 0.34 0.414 0.19-0.177 0.37-0.314 0.54-0.41s0.34-0.145 0.515-0.145c0.136-0.002 0.27 0.023 0.396 0.075 0.115 0.044 0.22 0.116 0.3 0.21 0.090 0.106 0.16 0.23 0.2 0.364 0.045 0.142 0.066 0.328 0.066 0.553v2.076z"/>
</svg>