<svg xmlns="http://www.w3.org/2000/svg" version="1.1" width="24" height="24" viewBox="0 0 24 24">
<path d="M3.94 9.72c0.17 0.27 0.24 0.54 0.24 0.89 0 1.11-0.95 2.55-1.72 3.57h-1.75l-0.71-4.22 1.54-0.15 0.37 3c0.35-0.56 0.78-1.45 0.78-2.060 0-0.33-0.060-0.56-0.15-0.75zM5.94 11.57c0.28 0 1-0.13 1-0.53 0-0.2-0.14-0.3-0.3-0.3-0.29 0-0.66 0.35-0.7 0.83zM5.91 12.37c0 0.5 0.27 0.7 0.64 0.7 0.4 0 0.77-0.1 1.27-0.35l-0.19 1.26c-0.35 0.17-0.89 0.28-1.42 0.28-1.33 0-1.81-0.8-1.81-1.82 0-1.31 0.78-2.7 2.38-2.7 0.88 0 1.38 0.49 1.38 1.18 0 1.1-1.43 1.45-2.25 1.45zM12.6 10.7c0 0.17-0.030 0.4-0.050 0.56l-0.46 2.92h-1.5l0.42-2.68 0.030-0.3c0-0.2-0.12-0.24-0.26-0.24-0.2 0-0.4 0.090-0.52 0.15l-0.48 3.070h-1.5l0.68-4.37h1.3l0.020 0.35c0.31-0.2 0.72-0.43 1.29-0.43 0.76 0 1.030 0.4 1.030 0.97zM17.050 10.21c0.43-0.3 0.83-0.48 1.4-0.48 0.76 0 1.030 0.4 1.030 0.98-0.004 0.198-0.022 0.388-0.053 0.573l0.003-0.023-0.46 2.92h-1.5l0.43-2.73 0.020-0.22c0-0.22-0.12-0.27-0.27-0.27-0.18 0-0.37 0.080-0.5 0.15l-0.48 3.070h-1.5l0.43-2.74 0.020-0.21c0-0.22-0.12-0.27-0.27-0.27-0.2 0-0.39 0.090-0.52 0.15l-0.47 3.060h-1.51l0.69-4.36h1.28l0.050 0.36c0.3-0.22 0.7-0.44 1.24-0.44 0.48 0 0.78 0.2 0.94 0.48zM22.46 11.48c0-0.35-0.090-0.6-0.35-0.6-0.6 0-0.72 1.050-0.72 1.58 0 0.41 0.11 0.66 0.38 0.66 0.56 0 0.69-1.1 0.69-1.64zM19.86 12.4c0-1.38 0.74-2.67 2.41-2.67 1.27 0 1.73 0.75 1.73 1.78 0 1.36-0.72 2.77-2.44 2.77-1.27 0-1.7-0.83-1.7-1.88z"/>
</svg>