<svg xmlns="http://www.w3.org/2000/svg" version="1.1" width="24" height="24" viewBox="0 0 24 24">
<path d="M12 0c-6.62 0-12 5.37-12 12 0 2.45 0.734 4.72 2 6.62-0.5-1.17-0.42-2.68 0.19-4.33l0.010-0.040 0.050-0.13 0.050-0.12 0.020-0.050c0.22-0.55 0.5-1.12 0.84-1.69 0.050-0.1 0.090-0.19 0.14-0.26h-1.44l0.35-0.79c1.19-0.33 3.17-0.99 5.060-2.82h1.050l-1.29 2.75h2.070l-0.38 0.82h-2.060c0 0-0.97 1.94-1.3 3.32-0.25 1.54 0 2.72 1.38 3.13 0.85 0.26 1.92 0.2 3.070-0.12 2.69-0.84 5.53-2.67 7.62-5.11 3.44-3.99 3.51-8.080 0.15-9.13-2.15-0.67-5.19 0.080-8 1.75 3.5-2.26 7.36-3.3 10.010-2.49 0.5 0.15 0.94 0.37 1.3 0.63-2.199-2.424-5.361-3.94-8.877-3.94-0.005 0-0.009 0-0.014 0h0.001zM22.17 5.63c0.83 2.18-0.2 5.44-2.97 8.66-4.16 4.84-10.73 7.76-14.7 6.54-0.48-0.151-0.899-0.362-1.274-0.629l0.014 0.009c2.188 2.335 5.292 3.79 8.735 3.79 0.009 0 0.018 0 0.027-0h-0.001c6.63 0 12-5.37 12-12 0-2.34-0.67-4.5-1.83-6.37z"/>
</svg>