<svg xmlns="http://www.w3.org/2000/svg" version="1.1" width="24" height="24" viewBox="0 0 24 24">
<path d="M12 0c-6.627 0-12 5.372-12 12 0 6.627 5.373 12 12 12 6.628 0 12-5.373 12-12 0-6.628-5.372-12-12-12zM10.42 4.916h3.167v5.268h0.657v-4.366c2.971 1.432 2.554 5.28 2.586 5.136h0.718v1.014h-11.096v-1.014h0.718c0 0-0.687-3.559 2.587-5.136v4.366h0.662zM6.452 12.918h3.18v0.546c0.004 1.306 1.062 2.364 2.368 2.369h0c1.307-0.004 2.365-1.062 2.369-2.369v-0.546h3.18v2.066h-1.292l-0.416 0.928 0.872 0.768-1.596 1.697-0.911-0.919-0.988 0.424v1.202h-2.436v-1.202l-0.987-0.424-0.912 0.919-1.595-1.697 0.871-0.768-0.415-0.928h-1.292z"/>
</svg>