<svg xmlns="http://www.w3.org/2000/svg" version="1.1" width="24" height="24" viewBox="0 0 24 24">
<path d="M3.84 0h16.32c2.121 0 3.84 1.719 3.84 3.84v0 16.32c0 2.121-1.719 3.84-3.84 3.84v0h-16.32c-2.121 0-3.84-1.719-3.84-3.84v0-16.32c0-2.121 1.719-3.84 3.84-3.84v0zM18.015 21.638l-0.004-0.001c1.396-0.035 2.515-1.175 2.515-2.576 0-1.328-1.004-2.421-2.295-2.562l-0.011-0.001-4.917-8.682c-0.719-1.292-2.108-1.236-2.609 0.598-0.43 1.736-0.319 3.372-0.444 5.348-0.001 0.013-0.010 0.024-0.023 0.027s-0.026-0.002-0.033-0.013l-4.39-8.751c0.358-0.281 0.568-0.711 0.569-1.167 0-0.806-0.653-1.459-1.459-1.459s-1.459 0.653-1.459 1.459c0 0.806 0.653 1.459 1.459 1.459v0c0.069 0 0.125-0.014 0.18-0.014 1.848 4.75 3.904 10.293 4.64 11.571 0.5 1.222 2.209 0.833 2.251-0.486l0.18-6.932c0-0.042 0.055-0.042 0.070-0.014l3.526 8.389c-0.198 0.356-0.315 0.782-0.315 1.234 0 1.42 1.15 2.571 2.569 2.573h0z"/>
</svg>