<svg xmlns="http://www.w3.org/2000/svg" version="1.1" width="24" height="24" viewBox="0 0 24 24">
<path d="M1.534 5.874c-2.123 3.050-1.86 7.017-0.237 10.256 0.037 0.079 0.078 0.154 0.118 0.229 0.023 0.052 0.049 0.1 0.077 0.149 0.013 0.028 0.031 0.057 0.047 0.083 0.026 0.052 0.054 0.102 0.081 0.152l0.157 0.265c0.029 0.049 0.057 0.097 0.090 0.146 0.055 0.094 0.12 0.187 0.177 0.281 0.026 0.039 0.050 0.078 0.079 0.117 0.111 0.174 0.213 0.319 0.321 0.459l-0.011-0.015c0.078 0.107 0.156 0.211 0.24 0.315 0.027 0.038 0.057 0.076 0.085 0.114l0.221 0.269c0.027 0.031 0.054 0.067 0.083 0.099 0.098 0.118 0.202 0.233 0.306 0.349 0 0.002 0.003 0.004 0.005 0.007 0.129 0.163 0.268 0.307 0.42 0.436l0.004 0.004c0.080 0.082 0.16 0.164 0.245 0.244l0.101 0.097c0.111 0.104 0.222 0.208 0.339 0.308 0.002 0 0.003 0.002 0.005 0.003l0.057 0.050c0.102 0.089 0.205 0.178 0.31 0.26l0.125 0.105c0.085 0.068 0.173 0.133 0.26 0.2l0.136 0.104c0.093 0.070 0.192 0.139 0.287 0.207 0.035 0.025 0.070 0.050 0.106 0.073l0.029 0.023 0.281 0.185 0.12 0.080c0.147 0.094 0.293 0.183 0.438 0.271 0.042 0.021 0.084 0.044 0.123 0.068 0.108 0.062 0.22 0.125 0.329 0.183 0.060 0.034 0.122 0.063 0.184 0.094 0.075 0.042 0.153 0.083 0.233 0.125 0.022 0.007 0.040 0.014 0.058 0.024l-0.002-0.001c0.033 0.015 0.064 0.031 0.096 0.047 0.12 0.060 0.245 0.117 0.375 0.174 0.024 0.010 0.050 0.020 0.076 0.034 0.144 0.063 0.288 0.123 0.437 0.182 0.034 0.010 0.070 0.027 0.105 0.040 0.135 0.051 0.274 0.103 0.411 0.152l0.050 0.018c0.153 0.052 0.304 0.102 0.459 0.15 0.036 0.010 0.073 0.023 0.111 0.033 0.159 0.048 0.313 0.105 0.473 0.136 10.26 1.87 13.242-6.169 13.242-6.169-2.505 3.262-6.95 4.122-11.16 3.165-0.156-0.036-0.312-0.086-0.469-0.132-0.286-0.083-0.475-0.144-0.662-0.21l0.095 0.029-0.062-0.024c-0.136-0.046-0.267-0.097-0.4-0.148-0.025-0.011-0.062-0.025-0.099-0.038l-0.011-0.003c-0.147-0.059-0.29-0.12-0.432-0.183-0.031-0.010-0.057-0.024-0.088-0.036-0.262-0.116-0.381-0.173-0.499-0.231l0.138 0.061c-0.037-0.016-0.070-0.033-0.106-0.052-0.094-0.044-0.188-0.094-0.28-0.142-0.086-0.041-0.147-0.073-0.207-0.106l0.020 0.010c-0.113-0.060-0.226-0.125-0.339-0.187-0.034-0.024-0.073-0.044-0.112-0.066-0.216-0.127-0.359-0.216-0.501-0.307l0.063 0.038c-0.048-0.030-0.087-0.056-0.124-0.083l0.006 0.004c-0.129-0.080-0.231-0.148-0.33-0.218l0.018 0.012c-0.035-0.023-0.067-0.048-0.103-0.073-0.128-0.088-0.224-0.158-0.318-0.229l0.024 0.017c-0.042-0.034-0.087-0.066-0.132-0.1-0.088-0.069-0.177-0.135-0.265-0.208l-0.118-0.094c-0.13-0.105-0.239-0.197-0.346-0.291l0.012 0.010c-0.011-0.011-0.023-0.021-0.036-0.029l-0.001-0.001-0.347-0.316-0.1-0.094c-0.082-0.083-0.166-0.163-0.25-0.245l-0.097-0.1c-0.104-0.103-0.204-0.208-0.303-0.316l-0.006-0.007-0.015-0.016c-0.106-0.116-0.209-0.234-0.313-0.354-0.027-0.031-0.052-0.064-0.080-0.097l-0.226-0.277c-0.079-0.098-0.19-0.244-0.3-0.392l-0.040-0.056c-2.335-3.188-3.18-7.588-1.311-11.197zM8.121 3.305c-1.539 2.209-1.452 5.163-0.254 7.499 0.222 0.438 0.447 0.808 0.696 1.16l-0.019-0.028c0.23 0.33 0.484 0.72 0.792 0.986 0.107 0.122 0.223 0.24 0.344 0.359l0.090 0.090c0.114 0.11 0.231 0.218 0.35 0.325l0.015 0.013c0.12 0.106 0.255 0.218 0.393 0.326l0.021 0.016c0.034 0.023 0.063 0.050 0.096 0.073 0.14 0.108 0.281 0.212 0.427 0.315l0.015 0.009c0.062 0.045 0.128 0.086 0.198 0.13 0.028 0.018 0.060 0.042 0.090 0.060 0.106 0.068 0.21 0.132 0.317 0.197 0.017 0.007 0.032 0.016 0.048 0.023 0.090 0.055 0.188 0.108 0.282 0.157 0.033 0.020 0.065 0.035 0.099 0.054 0.067 0.033 0.133 0.068 0.197 0.102l0.032 0.014c0.135 0.066 0.273 0.128 0.408 0.19 0.034 0.013 0.063 0.024 0.092 0.038 0.111 0.048 0.224 0.094 0.335 0.137 0.050 0.017 0.097 0.037 0.144 0.052 0.102 0.038 0.209 0.073 0.31 0.108l0.14 0.045c0.146 0.045 0.294 0.104 0.448 0.129 7.92 1.313 9.754-4.787 9.754-4.787-1.651 2.376-4.846 3.508-8.251 2.624-0.207-0.053-0.357-0.097-0.505-0.146l0.057 0.016c-0.048-0.013-0.090-0.028-0.136-0.042-0.104-0.036-0.211-0.071-0.312-0.109l-0.144-0.054c-0.112-0.045-0.226-0.087-0.335-0.135-0.034-0.015-0.065-0.025-0.091-0.040-0.14-0.063-0.281-0.125-0.417-0.192l-0.206-0.107-0.119-0.060c-0.092-0.048-0.177-0.098-0.265-0.15-0.025-0.012-0.045-0.023-0.065-0.036l0.003 0.001c-0.106-0.066-0.216-0.13-0.317-0.198-0.034-0.019-0.065-0.042-0.097-0.062l-0.208-0.136c-0.144-0.1-0.285-0.208-0.427-0.312-0.032-0.029-0.063-0.053-0.094-0.079-1.497-1.177-2.678-2.786-3.238-4.608-0.59-1.894-0.46-4.018 0.559-5.742zM13.66 1.384c-0.908 1.332-0.995 2.986-0.37 4.455 0.664 1.56 2.022 2.785 3.604 3.365 0.065 0.025 0.128 0.046 0.195 0.070l0.088 0.027c0.092 0.029 0.185 0.063 0.28 0.084 4.376 0.844 5.56-2.247 5.879-2.701-1.042 1.496-2.789 1.855-4.932 1.334-0.21-0.052-0.382-0.107-0.549-0.171l0.033 0.011c-0.253-0.089-0.457-0.175-0.655-0.271l0.038 0.017c-0.413-0.202-0.767-0.421-1.096-0.672l0.016 0.012c-1.92-1.454-3.109-4.23-1.857-6.491z"/>
</svg>