<svg xmlns="http://www.w3.org/2000/svg" version="1.1" width="24" height="24" viewBox="0 0 24 24">
<path d="M0 12v12h24v-24h-24zM13.195 5.813l1.167 3.515 2.255 0.005c1.238 0.005 2.916 0.019 3.727 0.037l1.472 0.028-2.968 2.152c-1.63 1.181-2.976 2.18-2.99 2.212-0.010 0.033 0.487 1.627 1.106 3.54 0.619 1.917 1.12 3.487 1.116 3.492-0.005 0.010-1.35-0.947-2.986-2.119-1.636-1.177-3-2.147-3.033-2.161-0.028-0.010-1.411 0.947-3.070 2.138-1.655 1.185-3.020 2.151-3.024 2.142-0.004-0.005 0.497-1.575 1.116-3.492 0.619-1.913 1.115-3.507 1.106-3.54-0.014-0.032-1.36-1.030-2.99-2.212l-2.969-2.152 1.472-0.028c0.811-0.018 2.49-0.032 3.727-0.037l2.254-0.005 1.168-3.515c1.451-4.783 1.85-5.952 2.252-7.118l-1.081 3.602c0.005 0 0.53 1.58 1.173 3.516z"/>
</svg>