<svg xmlns="http://www.w3.org/2000/svg" version="1.1" width="24" height="24" viewBox="0 0 24 24">
<path d="M9.956 0.097c-0.443 0.002-0.875 0.044-1.295 0.122l0.045-0.007c-4.309 0.788-7.341 4.518-7.599 6.974-0.125 1.205 0.525 2.108 0.883 2.506 0.969 1.076 2.9 1.898 4.141 2.58-1.795 1.53-2.618 2.277-3.429 3.128-1.214 1.274-2.067 2.676-2.070 3.68 0 0.323-0.053 1.355 0.368 2.17 0.158 0.306 0.608 1.327 1.964 2.092 0.867 0.49 2.102 0.67 3.31 0.497 3.742-0.534 8.753-3.707 12.328-6.662 2.279-1.884 3.945-3.709 4.426-4.607 0.388-0.725 0.431-2.026 0.206-2.843-0.64-2.318-5.84-7.067-10.091-8.978-0.917-0.412-1.988-0.652-3.114-0.652-0.025 0-0.051 0-0.076 0l0.004-0zM9.949 0.164c0.025-0 0.055-0 0.086-0 1.176 0 2.288 0.277 3.274 0.769l-0.043-0.019c3.433 1.687 9.233 6.43 9.661 8.814 0.53 2.948-9.852 10.929-16.167 12.174-2.45 0.481-4.539 0.613-5.492-1.975-0.826-2.243 0.776-3.884 3.135-6.040 0.98-0.895 1.76-1.564 2.935-2.556 0.065-0.068-5.66-2.042-5.842-4.308-0.189-2.329 3.499-6.628 8.22-6.85 0.078-0.004 0.155-0.007 0.233-0.008zM9.838 0.68c-0.181 0.003-0.355 0.014-0.527 0.033l0.025-0.002c-2.319 0.244-2.763 0.543-4.864 2.132-0.704 0.533-2 1.829-2.331 3.366-0.127 0.586 0.023 1.091 0.444 1.446 1.35 1.135 3.61 2.056 5.465 2.947 0.543 0.26 0.184 0.733-0.692 1.492-2.21 1.913-5.198 4.242-5.407 6.017-0.098 0.836 0.188 1.972 1.203 2.554 1.186 0.679 3.647 0.236 5.291-0.376 2.402-0.895 5.557-2.869 8.062-4.809 2.604-2.018 5.026-4.58 5.146-4.998 0.147-0.513 0.132-0.988-0.152-1.533-0.445-0.855-1.041-1.491-1.681-2.203-1.718-1.81-3.534-3.401-5.708-4.62-1.423-0.798-2.69-1.47-4.274-1.446zM10.904 4.274c0.542 0 1.167 0.171 1.838 0.496 1.675 0.81 3.395 2.937-0.015 4.161-0.927 0.333-3.869-0.818-3.779-2.388 0.089-1.558 0.847-2.27 1.956-2.269zM11.187 5.63c-0.315-0.002-0.571 0.078-0.689 0.26-0.552 0.855-0.3 1.461 0.211 1.848 0.19-0.454 2.138 0.042 2.13 0.468 0.020-0.010 0.040-0.020 0.055-0.032 1.69-1.272-0.468-2.536-1.707-2.544z"/>
</svg>