<svg xmlns="http://www.w3.org/2000/svg" version="1.1" width="24" height="24" viewBox="0 0 24 24">
<path d="M0 6.064v11.872h12.13l11.87-11.872zM3.264 8.272h0.005c0.863 0.001 1.915 0.245 2.676 0.633l-0.82 1.43c-0.835-0.404-1.255-0.442-1.73-0.467-0.708-0.038-1.064 0.215-1.069 0.488-0.007 0.332 0.669 0.633 1.305 0.838 0.964 0.306 2.19 0.715 2.377 1.9l1.762-4.657h2.046l2.064 5.576-0.007-5.575h2.37c2.257 0 3.318 0.764 3.318 2.519 0 1.575-1.090 2.514-2.936 2.514h-0.763l-0.010 2.094-3.588-0.003-0.25-0.908c-0.37 0.122-0.787 0.189-1.23 0.189-0.456 0-0.885-0.071-1.263-0.2l-0.358 0.919-2 0.006 0.090-0.462c-0.029 0.025-0.057 0.050-0.087 0.074-0.535 0.43-1.208 0.629-2.037 0.644l-0.213 0.002c-0.015 0-0.033 0-0.052 0-0.931 0-1.803-0.251-2.554-0.688l0.024 0.013 0.73-1.448c0.79 0.467 1.286 0.572 1.956 0.558 0.347-0.007 0.598-0.070 0.761-0.239 0.093-0.096 0.151-0.225 0.156-0.368l0-0.001c0.007-0.376-0.53-0.553-1.185-0.756-0.531-0.164-1.135-0.389-1.606-0.735-0.559-0.41-0.825-0.924-0.812-1.65 0.004-0.536 0.219-1.022 0.566-1.377l-0 0c0.519-0.537 1.357-0.863 2.363-0.863zM13.861 9.942v1.904h0.521c0.694 0 1.247-0.23 1.248-0.964 0-0.709-0.554-0.94-1.248-0.94zM8.774 10.709l-0.748 2.362c0.223 0.085 0.481 0.133 0.757 0.133 0.268 0 0.52-0.047 0.742-0.126z"/>
</svg>