<svg xmlns="http://www.w3.org/2000/svg" version="1.1" width="24" height="24" viewBox="0 0 24 24">
<path d="M2.648 11.678c-1.038-1.81-1.249-3.504-0.511-4.781 0.988-1.712 3.468-2.31 6.604-1.739 0.158 0.022 0.279 0.157 0.279 0.319 0 0.178-0.144 0.322-0.322 0.322-0.025 0-0.050-0.003-0.074-0.008l0.002 0c-2.9-0.528-5.111 0.005-5.932 1.428-0.605 1.047-0.423 2.509 0.512 4.14 0.033 0.050 0.053 0.111 0.053 0.177 0 0.178-0.144 0.322-0.322 0.322-0.126 0-0.235-0.072-0.288-0.178l-0.001-0.002zM17.568 5.609c1.835 0.024 3.156 0.596 3.751 1.626 0.82 1.419 0.18 3.595-1.718 5.837-0.056 0.058-0.090 0.136-0.090 0.223 0 0.178 0.144 0.322 0.322 0.322 0.105 0 0.199-0.050 0.257-0.128l0.001-0.001c2.054-2.426 2.771-4.866 1.785-6.575-0.726-1.257-2.26-1.92-4.299-1.947-0.007-0-0.014-0.001-0.022-0.001-0.178 0-0.322 0.144-0.322 0.322s0.144 0.322 0.322 0.322c0.005 0 0.009-0 0.014-0l-0.001 0zM15.714 20.848c-0.047-0.029-0.105-0.046-0.166-0.046-0.117 0-0.219 0.062-0.275 0.155l-0.001 0.001c-0.934 1.553-2.080 2.399-3.26 2.399-1.642 0-3.208-1.647-4.2-4.418-0.043-0.131-0.164-0.223-0.306-0.223-0.178 0-0.322 0.144-0.322 0.322 0 0.042 0.008 0.083 0.023 0.12l-0.001-0.002c1.073 2.998 2.83 4.844 4.804 4.844 1.44 0 2.773-0.982 3.813-2.71 0.029-0.047 0.046-0.105 0.046-0.166 0-0.116-0.062-0.218-0.154-0.275l-0.001-0.001zM23.070 18.254c-0.001 0.849-0.69 1.538-1.54 1.538-0.336 0-0.647-0.108-0.901-0.291l0.005 0.003c-2.455 1.445-7.146 0.71-11.56-1.84-1.88-1.085-3.527-2.392-4.795-3.785-0.057-0.058-0.093-0.138-0.093-0.226 0-0.178 0.144-0.322 0.322-0.322 0.099 0 0.187 0.045 0.246 0.115l0 0c1.222 1.343 2.817 2.609 4.64 3.661 4.167 2.406 8.553 3.12 10.797 1.906-0.127-0.219-0.202-0.482-0.202-0.762 0-0.851 0.689-1.54 1.54-1.54s1.54 0.689 1.54 1.54c0 0.001 0 0.002 0 0.004v-0zM4.008 18.254c0 0.001 0 0.002 0 0.003 0 0.851-0.689 1.54-1.54 1.54s-1.54-0.689-1.54-1.54c0-0.577 0.317-1.080 0.787-1.344l0.008-0.004c-0.233-2.877 2.79-6.734 7.36-9.372 1.898-1.096 3.874-1.874 5.731-2.271 0.014-0.002 0.029-0.003 0.045-0.003 0.178 0 0.322 0.144 0.322 0.322 0 0.146-0.097 0.269-0.23 0.309l-0.002 0.001c-1.79 0.384-3.703 1.137-5.545 2.2-4.304 2.485-7.148 6.067-7.048 8.627 0.038-0.003 0.075-0.006 0.113-0.006 0.85 0 1.54 0.69 1.539 1.539zM10.472 1.54c0.031-0.826 0.708-1.485 1.539-1.485s1.508 0.658 1.539 1.482l0 0.003c0 0.023-0.002 0.045-0.003 0.067 2.549 1.317 4.32 5.81 4.32 11.003 0 2.135-0.298 4.184-0.854 5.96-0.038 0.139-0.163 0.24-0.311 0.24-0.178 0-0.322-0.144-0.322-0.322 0-0.040 0.007-0.077 0.020-0.112l-0.001 0.002c0.536-1.712 0.825-3.697 0.825-5.768 0-4.89-1.626-9.095-3.847-10.363-0.261 0.499-0.775 0.833-1.367 0.833-0.849 0-1.538-0.689-1.538-1.538 0-0.001 0-0.002 0-0.002v0zM11.776 11.521c-0.506 0.112-0.879 0.557-0.879 1.089 0 0.615 0.499 1.114 1.114 1.114 0.083 0 0.164-0.009 0.242-0.026l-0.007 0.001c0.506-0.112 0.879-0.557 0.879-1.089 0-0.615-0.499-1.114-1.114-1.114-0.083 0-0.164 0.009-0.242 0.026l0.007-0.001z"/>
</svg>