<svg xmlns="http://www.w3.org/2000/svg" version="1.1" width="24" height="24" viewBox="0 0 24 24">
<path d="M0.080 9.27h1.92c0.44 0 0.95 0.4 1.19 0.63l3.36 3.69v-4.32h1.15v5.9h-2c-0.36-0.020-0.71-0.1-1.12-0.49l-3.36-3.7v4.18h-1.14zM23.92 15.2c-1.37 0.19-2.75 0.2-4.14 0.090-0.86-0.052-1.658-0.272-2.376-0.626l0.036 0.016c-0.92-0.48-1.22-1.54-1.2-2.5 0-0.88 0.27-1.83 1.070-2.35 0.486-0.288 1.058-0.487 1.67-0.558l0.020-0.002c1.62-0.28 3.25-0.22 4.84-0.040v0.84c-1.87-0.36-3.85-0.27-4.52 0.58-0.301 0.379-0.483 0.865-0.483 1.392 0 0.038 0.001 0.075 0.003 0.113l-0-0.005c0 0.8 0.28 2 1.92 2.24 1.070 0.15 2.13 0.030 3.16-0.15zM12.2 14.28c0.16 0 2.74 0.020 3.63 0v0.88c-1.79 0.070-3.5 0.1-5.3 0.030-1.53-0.060-1.8-0.82-1.82-1.55v-4.37h7.030v0.84h-4.54v1.5h4.15v0.82h-4.15l0.020 1.030c0.020 0.57 0.3 0.78 0.98 0.82z"/>
</svg>