<svg xmlns="http://www.w3.org/2000/svg" version="1.1" width="24" height="24" viewBox="0 0 24 24">
<path d="M11.997 0.011c-1.79 0.015-3.452 0.397-4.968 1.093l0.005-0.002c3.638 2.026 6.955 5.634 8.932 8.241 0.398 0.534 0.753 1.006 1.078 1.434l0.004-0.019c0.412-1.738-0.313-5.239-1.518-7.331-0.117-0.203-0.201-0.379-0.187-0.392l0.006 0.002 0.002-0.007c0.098 0.024 1.031 0.995 1.373 1.433 0.599 0.767 0.832 1.213 1.162 2.23 0.858 2.645 1.424 4.801 1.901 7.249 0.239 1.228 0.675 3.458 0.731 3.884 0.007 0.057-0.009 0.128-0.010 0.143-0.090-0.089-0.185-0.175-0.282-0.258l-0.008-0.006c-0.645-0.568-1.924-1.417-3.183-2.114-1.57-0.87-3.118-1.614-6.575-3.162-3.156-1.413-4.61-2.086-5.751-2.661l-1.024-0.51c0.12 0.301 0.249 0.624 0.399 1.005 0 0 1.933 1.080 2.174 1.408 0 0 2.322 4.367 3.353 6.955 0.767 1.949 1.634 4.264 2.155 4.904l0.060 0.069c-1.026-0.251-5.745-2.598-5.745-2.598-0.518-4.399-1.969-9.61-3.855-14.94-0.025-0.046-0.067-0.135-0.107-0.225l-0.018-0.046c0.001-0.015 0.141 0.121 0.311 0.303 1.901 2.037 5.956 3.887 10.263 4.682 0.841 0.152 1.81 0.239 2.799 0.239 0.258 0 0.515-0.006 0.771-0.018l-0.036 0.001c-0.307-0.392-0.64-0.821-1.009-1.302-3.418-4.455-6.774-6.326-9.78-7.469-0.079-0.028-0.154-0.061-0.231-0.088-2.077 1.438-3.653 3.47-4.493 5.849l-0.026 0.083c-0.425 1.176-0.67 2.534-0.67 3.949 0 0.024 0 0.047 0 0.071l-0-0.004 0.003-0.088c0.033 5.018 3.129 9.616 8.052 11.33 1.335 0.465 2.696 0.68 4.032 0.67l-0.088-0.003c5.018-0.033 9.616-3.129 11.33-8.052 0.465-1.335 0.68-2.696 0.67-4.032l-0.003 0.088c-0.033-5.018-3.129-9.616-8.052-11.33-1.176-0.425-2.534-0.67-3.949-0.67-0.029 0-0.059 0-0.088 0l0.004-0zM18.13 6.121l-0.002 0.007c-0.001 0 0 0 0 0l0.002-0.007c0.531 0.511 1.376 1.503 2.336 2.062 0.789 0.99 1.216 1.963 1.748 2.629-0.219-0.188-1.111-0.972-1.111-0.972s-1.378-1.305-2.141-2.153c-0.293-0.326-0.32-0.38-0.478-0.628-0.062-0.097-0.275-0.825-0.354-0.935h-0.001z"/>
</svg>