<svg xmlns="http://www.w3.org/2000/svg" version="1.1" width="24" height="24" viewBox="0 0 24 24">
<path d="M4.312 12.65c2.61-0.562 2.25-3.684 2.176-4.366-0.128-1.050-1.366-2.888-3.044-2.74-2.11 0.186-2.418 3.24-2.418 3.24-0.287 1.41 0.682 4.426 3.286 3.865zM9.157 7.409c1.44 0 2.604-1.66 2.604-3.71 0-2.040-1.16-3.7-2.6-3.7s-2.611 1.651-2.611 3.701 1.17 3.71 2.61 3.71zM15.367 7.655c1.93 0.26 3.162-1.8 3.412-3.36 0.25-1.55-1-3.36-2.36-3.67-1.37-0.316-3.060 1.874-3.23 3.3-0.18 1.75 0.25 3.49 2.17 3.737zM23 10.284c0-0.746-0.613-2.993-2.91-2.993-2.295 0-2.61 2.12-2.61 3.62 0 1.43 0.118 3.42 2.985 3.36 2.855-0.070 2.543-3.24 2.543-3.99zM20.1 16.82c0 0-2.985-2.31-4.726-4.8-2.36-3.677-5.715-2.18-6.834-0.316-1.12 1.883-2.86 3.062-3.105 3.377-0.25 0.31-3.6 2.12-2.854 5.42 0.75 3.3 3.36 3.24 3.36 3.24s1.92 0.19 4.16-0.31 4.16 0.12 4.16 0.12 5.207 1.75 6.648-1.61c1.424-3.37-0.81-5.11-0.81-5.11z"/>
</svg>