<svg xmlns="http://www.w3.org/2000/svg" version="1.1" width="24" height="24" viewBox="0 0 24 24">
<path d="M5.393 10.020l-0.48 1.959 0.99 0.001zM9.285 10.102v1.187c0.549-0.002 0.958 0.030 1.229-0.033 0.27-0.062 0.404-0.217 0.404-0.592 0-0.334-0.12-0.469-0.385-0.523-0.264-0.055-0.672-0.028-1.248-0.039zM14.611 10.023l-0.48 1.96h0.99zM11.996 0l-11.996 11.998 12.004 12.002 11.996-11.996zM5.393 8.896c0.366 0 0.606 0.117 0.775 0.295 0.169 0.18 0.267 0.421 0.35 0.67l1.070 3.211c0 0 0.134 0.276 0.144 0.567 0.010 0.29-0.104 0.599-0.6 0.666-0.355-0.054-0.536-0.156-0.657-0.35s-0.184-0.482-0.305-0.91h-1.525c-0.147 0.468-0.195 0.757-0.295 0.941s-0.254 0.263-0.616 0.317c-0.508-0.054-0.636-0.369-0.636-0.67s0.129-0.588 0.129-0.588l1.015-3.152c0.080-0.246 0.176-0.495 0.348-0.682s0.42-0.315 0.803-0.315zM14.584 8.898c0.366 0 0.607 0.117 0.775 0.295 0.17 0.18 0.267 0.421 0.35 0.67l1.072 3.211c0 0 0.135 0.276 0.145 0.567 0.010 0.29-0.104 0.599-0.6 0.666-0.356-0.054-0.536-0.156-0.658-0.35s-0.186-0.482-0.307-0.91h-1.525c-0.147 0.468-0.193 0.757-0.293 0.941s-0.256 0.263-0.617 0.317c-0.509-0.054-0.635-0.367-0.635-0.668s0.127-0.59 0.127-0.59l1.016-3.152c0.075-0.233 0.17-0.484 0.343-0.674s0.424-0.323 0.807-0.323zM17.93 8.9c0.308 0 0.483 0.114 0.58 0.291 0.097 0.178 0.117 0.418 0.117 0.672v3.207c0.215 0.005 1.23 0 1.23 0 0.29 0 0.53 0.020 0.694 0.106s0.252 0.239 0.244 0.504c-0.010 0.361-0.18 0.517-0.406 0.582s-0.509 0.039-0.744 0.039h-1.766c-0.375 0-0.536-0.165-0.604-0.436-0.067-0.27-0.040-0.645-0.040-1.062v-2.94c-0.014-0.254 0.020-0.496 0.126-0.674s0.288-0.289 0.569-0.289zM9.285 9.004h1.098c0.254 0 0.51-0.002 0.767 0.084 0.259 0.086 0.52 0.26 0.786 0.613 0.28 0.378 0.35 0.933 0.222 1.414s-0.456 0.889-0.972 0.969c0.187 0.348 0.804 1.283 0.804 1.283s0.066 0.11 0.078 0.266c0.012 0.155-0.030 0.357-0.25 0.539-0.388 0.147-0.633 0.106-0.78 0.030-0.149-0.078-0.2-0.192-0.2-0.192s-0.562-0.964-0.91-1.633h-0.643v1.338c0 0 0.010 0.154-0.064 0.305s-0.236 0.298-0.578 0.285c-0.327 0-0.488-0.155-0.567-0.309s-0.076-0.306-0.076-0.306v-3.829c0-0.334 0.006-0.549 0.17-0.68s0.486-0.177 1.115-0.177z"/>
</svg>