<svg xmlns="http://www.w3.org/2000/svg" version="1.1" width="24" height="24" viewBox="0 0 24 24">
<path d="M0 24v-24h24v24zM16.39 6.76l-0.23 0.030-0.22 0.040-0.21 0.060-0.4 0.14-0.19 0.090-0.18 0.1-0.17 0.11-0.17 0.12-0.16 0.13-0.15 0.14-0.14 0.15-0.13 0.16-0.13 0.17-0.11 0.17-0.11 0.19-0.1 0.19-0.090 0.21-0.080-0.22-0.1-0.21-0.1-0.2-0.12-0.19-0.13-0.17-0.14-0.16-0.15-0.15-0.15-0.14-0.17-0.13-0.17-0.11-0.19-0.11-0.18-0.090-0.2-0.080-0.2-0.070-0.2-0.060-0.21-0.050-0.22-0.040-0.44-0.040h-0.43l-0.21 0.020-0.2 0.020-0.2 0.030-0.19 0.050-0.18 0.050-0.18 0.060-0.18 0.070-0.16 0.080-0.17 0.080-0.3 0.2-0.14 0.11-0.14 0.12-0.13 0.13-0.12 0.13-0.12 0.14-0.11 0.15-0.1 0.16-0.090 0.16v-1.55h-4.35v2.22h1.37v5.86h-1.37v2.26h6.33v-2.26h-1.98v-3.81l0.010-0.21 0.030-0.2 0.030-0.19 0.040-0.18 0.050-0.18 0.060-0.16 0.070-0.16 0.080-0.14 0.090-0.14 0.11-0.12 0.11-0.11 0.12-0.1 0.14-0.090 0.15-0.080 0.15-0.060 0.17-0.050 0.19-0.040 0.19-0.020 0.21-0.010h0.17l0.16 0.020 0.16 0.030 0.14 0.040 0.14 0.050 0.13 0.060 0.12 0.070 0.11 0.090 0.1 0.1 0.1 0.11 0.080 0.12 0.080 0.14 0.12 0.32 0.050 0.19 0.040 0.19 0.030 0.21 0.030 0.23 0.010 0.25v6.090h4.3v-2.26h-1.37v-3.6l0.020-0.42 0.020-0.2 0.040-0.19 0.040-0.18 0.050-0.18 0.060-0.16 0.070-0.16 0.080-0.14 0.090-0.14 0.1-0.12 0.12-0.11 0.12-0.1 0.14-0.090 0.14-0.080 0.16-0.060 0.17-0.050 0.19-0.040 0.19-0.020 0.21-0.010h0.17l0.16 0.020 0.16 0.030 0.14 0.040 0.14 0.050 0.13 0.060 0.12 0.070 0.11 0.090 0.1 0.1 0.090 0.11 0.090 0.12 0.080 0.14 0.12 0.32 0.050 0.19 0.040 0.19 0.030 0.21 0.030 0.23 0.010 0.25v6.090h4.3v-2.26h-1.37v-4.72l-0.010-0.36-0.040-0.33-0.060-0.32-0.080-0.3-0.1-0.28-0.12-0.26-0.14-0.24-0.16-0.23-0.18-0.2-0.18-0.19-0.21-0.16-0.21-0.15-0.23-0.13-0.24-0.12-0.25-0.090-0.25-0.080-0.27-0.060-0.26-0.040-0.28-0.030h-0.52z"/>
</svg>