<svg xmlns="http://www.w3.org/2000/svg" version="1.1" width="24" height="24" viewBox="0 0 24 24">
<path d="M22.251 11.82c-0.003-1.439-0.98-2.649-2.306-3.005l-0.022-0.005 2.988-8.81h-14.807l2.996 8.838c-1.306 0.39-2.242 1.579-2.244 2.988v0c0 1.043 0.52 1.967 1.313 2.536-0.331 0.464-0.688 0.871-1.080 1.24l-0.004 0.004c-0.717 0.684-1.563 1.24-2.496 1.627l-0.054 0.020c-0.834-0.563-1.195-1.556-0.869-2.446 1.278-0.406 2.187-1.582 2.187-2.97 0-1.713-1.385-3.103-3.097-3.11h-0.001c-1.718 0.002-3.111 1.395-3.113 3.113v0c0 0.848 0.347 1.626 0.903 2.182-0.048 0.097-0.097 0.195-0.146 0.299-0.465 0.959-0.993 2.043-1.195 3.259-0.403 2.432 0.257 4.384 1.849 5.489 0.817 0.582 1.835 0.931 2.935 0.931 0.003 0 0.007 0 0.010 0h-0.001c1.827 0 3.682-0.917 5.475-1.807 1.279-0.632 2.599-1.292 3.898-1.612 0.48-0.118 0.98-0.187 1.508-0.264 1.070-0.153 2.175-0.312 3.168-0.89 1.129-0.655 1.935-1.76 2.178-3.063l0.004-0.028c0.174-0.994 0-1.994-0.444-2.87 0.298-0.48 0.465-1.042 0.465-1.646zM20.896 11.82c0 0.965-0.785 1.75-1.75 1.75-0.966-0.003-1.748-0.787-1.748-1.753 0-0.555 0.258-1.049 0.66-1.37l0.004-0.003 0.007-0.007c0.056-0.042 0.118-0.084 0.18-0.125 0 0 0.008 0 0.008-0.007 0.028-0.014 0.055-0.035 0.083-0.050 0.007 0 0.014-0.006 0.021-0.006 0.028-0.014 0.063-0.028 0.097-0.042s0.070-0.027 0.098-0.041c0.007 0 0.013-0.007 0.020-0.007 0.028-0.007 0.056-0.021 0.084-0.028 0.007 0 0.020-0.007 0.028-0.007 0.034-0.007 0.062-0.014 0.097-0.020h0.007l0.104-0.022c0.007 0 0.020 0 0.028-0.007 0.028 0 0.055-0.007 0.083-0.007h0.035c0.035 0 0.070-0.007 0.111-0.007h0.090c0.028 0 0.050 0 0.077 0.007h0.014c0.055 0.007 0.111 0.014 0.167 0.028 0.803 0.176 1.395 0.881 1.396 1.724v0zM10.043 1.39h10.93l-2.509 7.4c-0.104 0.020-0.208 0.055-0.312 0.090l-2.64-5.385-2.648 5.35c-0.104-0.034-0.216-0.055-0.327-0.076zM15.011 11.215c-0.136-0.665-0.469-1.236-0.936-1.666l-0.002-0.002 1.438-2.904 1.452 2.967c-0.43 0.43-0.743 0.98-0.868 1.605zM11.53 10.117c0.034-0.007 0.062-0.014 0.097-0.020h0.020c0.029-0.008 0.056-0.008 0.084-0.015h0.028c0.028 0 0.049-0.007 0.076-0.007h0.271c0.028 0 0.049 0.007 0.070 0.007 0.014 0 0.020 0 0.035 0.007 0.027 0.007 0.048 0.007 0.076 0.014 0.007 0 0.014 0 0.028 0.007l0.097 0.020h0.007c0.028 0.008 0.056 0.015 0.083 0.029 0.007 0 0.014 0.007 0.028 0.007 0.021 0.007 0.049 0.014 0.070 0.027 0.007 0 0.014 0.007 0.020 0.007 0.028 0.014 0.056 0.021 0.084 0.035h0.007c0.034 0.013 0.064 0.030 0.091 0.050l-0.001-0.001h0.007c0.028 0.014 0.056 0.034 0.084 0.048 0.007 0 0.007 0.007 0.013 0.007 0.028 0.014 0.050 0.035 0.077 0.049l0.007 0.007c0.083 0.062 0.16 0.132 0.236 0.201l0.007 0.007c0.297 0.313 0.48 0.736 0.48 1.203 0 0.002 0 0.004-0 0.007v-0c-0.033 0.942-0.804 1.693-1.751 1.693s-1.718-0.751-1.751-1.69l-0-0.003c0-0.001 0-0.003 0-0.005 0-0.812 0.556-1.495 1.308-1.687l0.012-0.003zM4.692 10.068c0.966 0 1.751 0.786 1.751 1.751s-0.785 1.751-1.75 1.751-1.752-0.785-1.752-1.75 0.786-1.752 1.751-1.752zM20.855 16.093c-0.168 0.92-0.726 1.683-1.493 2.125l-0.015 0.008c-0.758 0.438-1.689 0.577-2.669 0.716-0.653 0.084-1.21 0.186-1.757 0.314l0.117-0.023c-1.445 0.355-2.834 1.050-4.182 1.717-1.724 0.854-3.35 1.66-4.857 1.66-0.007 0-0.015 0-0.023 0-0.8 0-1.541-0.258-2.142-0.695l0.010 0.007c-1.529-1.056-1.453-3.036-1.272-4.12 0.167-1.015 0.632-1.966 1.077-2.877 0.028-0.055 0.049-0.104 0.077-0.16 0.152 0.056 0.312 0.098 0.479 0.126-0.264 1.473 0.486 2.994 1.946 3.745l0.264 0.139 0.284-0.104c1.216-0.431 2.342-1.133 3.336-2.071 0.541-0.505 1.017-1.068 1.423-1.681l0.022-0.035c0.16 0.027 0.32 0.034 0.48 0.034 1.438-0.003 2.646-0.98 3.003-2.305l0.005-0.022h1.167c0.359 1.349 1.57 2.327 3.009 2.327 0 0 0.001 0 0.001 0h-0c0.576 0 1.11-0.16 1.57-0.43 0.18 0.52 0.236 1.063 0.139 1.605z"/>
</svg>