<svg xmlns="http://www.w3.org/2000/svg" version="1.1" width="24" height="24" viewBox="0 0 24 24">
<path d="M16.247 10.326c0 0.643-0.521 1.164-1.164 1.164s-1.164-0.521-1.164-1.164v0c0-0.643 0.521-1.164 1.164-1.164s1.164 0.521 1.164 1.164v0zM9.959 10.326c0 0.643-0.521 1.164-1.164 1.164s-1.164-0.521-1.164-1.164v0c0-0.643 0.521-1.164 1.164-1.164s1.164 0.521 1.164 1.164v0zM9.819 23.846c-4.712-0.98-8.227-4.257-9.482-8.842-0.421-1.537-0.421-4.49 0-6.027 1.169-4.268 4.393-7.492 8.66-8.661 1.538-0.421 4.49-0.421 6.028 0 4.267 1.169 7.492 4.393 8.66 8.66 0.24 0.874 0.294 1.43 0.294 3.014s-0.054 2.14-0.293 3.014c-1.17 4.271-4.439 7.536-8.661 8.65-1.391 0.367-3.916 0.46-5.206 0.192zM16.459 14.531c-3.047-1.348-4.054-1.737-4.5-1.737s-1.433 0.38-4.38 1.684c-2.091 0.926-3.828 1.76-3.86 1.79h16.663zM6.586 14.17c1.621-0.729 3.060-1.387 3.196-1.464 0.258-0.145 0.337-0.090-5.285-3.682-0.56-0.358-1.023-0.698-1.025-0.65v7.19c5.985-2.48 7.009-2.948 8.032-3.418l-4.918 2.024zM20.664 11.976v-3.559c0-0.11-1.676 0.993-3.496 2.12-3 1.854-3.281 2.060-3.004 2.185 1.345 0.611 6.42 2.862 6.5 2.872zM12.495 12.086c0.545 0.125 0.643 0.104 1.226-0.263 0.349-0.22 0.655-0.419 0.681-0.442s-0.050-0.181-0.167-0.35c-0.118-0.168-0.215-0.5-0.215-0.739v-0.432l-0.569 0.21c-0.726 0.267-2.28 0.27-3 0.005l-0.556-0.205 0.013 0.452c0.007 0.26-0.088 0.563-0.225 0.715-0.232 0.256-0.22 0.276 0.45 0.726 0.64 0.432 0.725 0.455 1.23 0.327 0.172-0.045 0.37-0.071 0.574-0.071 0.198 0 0.39 0.025 0.574 0.071l-0.016-0.003zM8.265 9.436c-0.105-0.113-2.97-0.954-3.033-0.891-0.030 0.030 0.504 0.414 1.186 0.854l1.24 0.8 0.34-0.344c0.186-0.188 0.307-0.377 0.267-0.419zM18.025 9.063c0.473-0.306 0.8-0.555 0.728-0.555-0.155 0-2.877 0.804-3.027 0.894-0.057 0.034 0.033 0.229 0.2 0.433l0.304 0.37 0.47-0.293c0.257-0.162 0.854-0.544 1.325-0.849zM16.389 8.508c2.11-0.59 3.867-1.102 3.904-1.139h-16.703c0.187 0.187 7.779 2.195 8.323 2.202 0.41 0.005 2.014-0.376 4.476-1.063z"/>
</svg>