<svg xmlns="http://www.w3.org/2000/svg" version="1.1" width="24" height="24" viewBox="0 0 24 24">
<path d="M4.587 13.63l-0.27-0.012h-2.427l3.235-3.235-0.013-0.27c-0.011-0.435-0.36-0.784-0.794-0.795l-0.001-0-0.27-0.013h-4.043l0.014 0.27c0.034 0.438 0.353 0.77 0.794 0.795l0.27 0.013h2.428l-3.237 3.235 0.014 0.269c0.015 0.433 0.362 0.78 0.795 0.796l0.27 0.013h4.044l-0.014-0.27c-0.036-0.443-0.35-0.767-0.795-0.796zM7.824 9.305h-0.004c-1.488 0.001-2.693 1.207-2.693 2.695s1.207 2.695 2.695 2.695 2.695-1.207 2.695-2.695c0-1.488-1.205-2.694-2.693-2.695h-0zM8.965 13.144c-0.295 0.31-0.711 0.503-1.172 0.503-0.894 0-1.618-0.724-1.618-1.618 0-0.461 0.193-0.876 0.502-1.171l0.001-0.001c0.29-0.276 0.683-0.446 1.116-0.446 0.894 0 1.618 0.724 1.618 1.618 0 0.433-0.17 0.826-0.446 1.116l0.001-0.001zM21.837 9.306c-0.642 0-1.218 0.281-1.613 0.727l-0.002 0.002c-0.396-0.449-0.973-0.731-1.616-0.731-0.001 0-0.001 0-0.002 0h0c-0.001 0-0.002 0-0.003 0-0.45 0-0.867 0.138-1.212 0.375l0.007-0.005c-0.21-0.233-0.68-0.37-0.948-0.37v5.392l0.27-0.013c0.45-0.030 0.777-0.349 0.795-0.796l0.013-0.27v-1.887l0.014-0.27c0.010-0.202 0.040-0.382 0.132-0.54 0.19-0.324 0.536-0.538 0.933-0.538 0.199 0 0.385 0.054 0.545 0.148l-0.005-0.003c0.164 0.096 0.296 0.228 0.389 0.387l0.003 0.005c0.093 0.16 0.12 0.339 0.132 0.54l0.014 0.271v1.887l0.013 0.269c0.027 0.44 0.35 0.768 0.795 0.796l0.27 0.013v-2.965l0.012-0.27c0.010-0.2 0.040-0.384 0.134-0.543 0.299-0.514 0.959-0.69 1.473-0.39 0.164 0.096 0.296 0.229 0.389 0.388l0.003 0.005c0.092 0.16 0.12 0.343 0.131 0.54l0.014 0.27v1.887l0.013 0.269c0.028 0.443 0.35 0.77 0.796 0.796l0.27 0.013v-3.235c-0.002-1.19-0.967-2.154-2.157-2.154-0.001 0-0.001 0-0.002 0h0zM11.577 10.094c-0.517 0.492-0.839 1.186-0.839 1.955 0 1.489 1.207 2.696 2.696 2.696 0.768 0 1.461-0.321 1.952-0.837l0.001-0.001c0.46-0.483 0.743-1.137 0.743-1.858 0-1.489-1.207-2.696-2.696-2.696-0.72 0-1.374 0.282-1.858 0.742l0.001-0.001zM14.626 13.144c-0.294 0.302-0.705 0.489-1.159 0.489-0.894 0-1.618-0.724-1.618-1.618 0-0.454 0.187-0.865 0.489-1.159l0-0c0.291-0.284 0.69-0.459 1.129-0.459 0.894 0 1.618 0.724 1.618 1.618 0 0.439-0.175 0.838-0.459 1.129l0-0z"/>
</svg>