<svg xmlns="http://www.w3.org/2000/svg" version="1.1" width="24" height="24" viewBox="0 0 24 24">
<path d="M5.52 2.955c-0.001 0-0.002 0-0.003 0-1.945 0-3.521 1.576-3.521 3.521 0 0.001 0 0.003 0 0.004v-0 2.558c0 0.001 0 0.002 0 0.003 0 1.127-0.88 2.049-1.99 2.116l-0.006 0 0.030 0.562-0.030 0.561c1.116 0.067 1.996 0.989 1.996 2.116 0 0.002 0 0.003 0 0.005v-0 2.948c0 0.002 0 0.004 0 0.006 0 2.034 1.646 3.684 3.679 3.69h0.001v-1.123c-1.412-0.002-2.556-1.146-2.557-2.558v-2.963c0-0.001 0-0.001 0-0.002 0-1.11-0.558-2.089-1.409-2.673l-0.011-0.007c0.86-0.594 1.417-1.572 1.42-2.682v-2.557c0.006-1.324 1.077-2.396 2.4-2.402h0.438v-1.123zM18.058 2.955v1.123h0.437c1.318 0.002 2.386 1.071 2.386 2.39 0 0.004 0 0.008-0 0.012v-0.001 2.558c0.003 1.11 0.56 2.088 1.409 2.675l0.011 0.007c-0.862 0.591-1.42 1.57-1.42 2.68 0 0.001 0 0.001 0 0.002v-0 2.963c-0.001 1.412-1.145 2.556-2.557 2.558h-0v1.123c2.034-0.006 3.68-1.656 3.68-3.69 0-0.002 0-0.004 0-0.006v0-2.949c0-0.001 0-0.002 0-0.003 0-1.127 0.88-2.049 1.99-2.116l0.006-0-0.030-0.562 0.030-0.561c-1.116-0.067-1.996-0.989-1.996-2.116 0-0.001 0-0.003 0-0.004v0-2.56c0-0.002 0-0.004 0-0.006 0-1.94-1.57-3.513-3.509-3.518h-0zM6.253 7.478l3.478 3.259c0.599 0.544 1.399 0.877 2.277 0.877s1.677-0.333 2.279-0.88l-0.003 0.003 3.478-3.26h-1.669l-2.65 2.464c-0.378 0.349-0.886 0.562-1.443 0.562s-1.065-0.214-1.444-0.564l0.002 0.001-2.635-2.463zM11.859 12.362c-0.825 0.038-1.567 0.368-2.13 0.888l0.002-0.002-3.493 3.274h1.668l2.667-2.495c0.378-0.348 0.886-0.562 1.443-0.562s1.064 0.213 1.444 0.563l-0.001-0.001 2.65 2.495h1.67l-3.494-3.274c-0.597-0.551-1.397-0.889-2.277-0.889-0.052 0-0.104 0.001-0.155 0.004l0.007-0z"/>
</svg>