<svg xmlns="http://www.w3.org/2000/svg" version="1.1" width="24" height="24" viewBox="0 0 24 24">
<path d="M5.661 9.601v-4.298c-3.232 0.562-5.659 3.347-5.659 6.698 0 1.677 0.607 3.211 1.614 4.396l-0.008-0.010c2.378-1.152 4.041-3.755 4.053-6.786zM6.793 13.715c-0.423 1.752-1.687 3.249-3.262 4.244 0.938 0.524 2.058 0.833 3.251 0.833 0.004 0 0.007 0 0.011 0h-0.001c0.002 0 0.005 0 0.008 0 1.193 0 2.315-0.309 3.288-0.851l-0.034 0.018c-1.575-0.995-2.838-2.493-3.261-4.244zM11.977 7.613c-1.013-1.193-2.417-2.027-4.011-2.304l-0.041-0.006v4.265c0 3.044 1.666 5.662 4.051 6.817-0.999-1.172-1.607-2.704-1.607-4.378 0-0.003 0-0.006 0-0.009v0c0-0.003 0-0.008 0-0.012 0-1.673 0.608-3.204 1.616-4.384l-0.008 0.009zM11.977 7.613c1.003 1.183 1.655 2.714 1.655 4.387s-0.652 3.202-1.655 4.387v0c2.378-1.151 4.087-3.755 4.099-6.786v-4.298c-1.65 0.282-3.069 1.116-4.091 2.301l-0.007 0.009zM18.34 9.568c0 3.045 1.666 5.662 4.052 6.818 0.998-1.175 1.606-2.709 1.606-4.385 0-3.35-2.426-6.134-5.617-6.691l-0.041-0.006zM17.208 13.715c-0.423 1.752-1.687 3.249-3.262 4.244 0.938 0.524 2.058 0.833 3.251 0.833 0.004 0 0.007 0 0.011 0h-0.001c0.002 0 0.005 0 0.008 0 1.193 0 2.315-0.309 3.288-0.851l-0.035 0.018c-1.574-0.995-2.838-2.493-3.261-4.244z"/>
</svg>