<svg xmlns="http://www.w3.org/2000/svg" version="1.1" width="24" height="24" viewBox="0 0 24 24">
<path d="M1.163 13.954h-1.155v-3.89h1.997l2.292 2.904v-2.904h1.155v3.89h-1.957l-2.332-2.954v2.954zM10.977 12.751c0 0.54-0.097 0.727-0.257 0.906-0.244 0.266-0.6 0.346-1.288 0.346h-1.972c-0.686 0-1.043-0.080-1.288-0.346-0.16-0.179-0.256-0.365-0.256-0.906v-1.5c0-0.54 0.096-0.726 0.256-0.905 0.245-0.266 0.602-0.347 1.288-0.347h1.972c0.687 0 1.044 0.080 1.288 0.347 0.16 0.179 0.257 0.365 0.257 0.906v1.499zM9.384 13.018c0.264 0 0.356-0.016 0.42-0.073 0.059-0.053 0.085-0.121 0.085-0.35v-1.187c0-0.229-0.026-0.297-0.085-0.35-0.064-0.058-0.156-0.073-0.42-0.073h-1.875c-0.264 0-0.357 0.015-0.42 0.073-0.060 0.053-0.085 0.121-0.085 0.35v1.187c0 0.229 0.026 0.297 0.085 0.35 0.063 0.057 0.156 0.073 0.42 0.073h1.875zM12.655 10.064v3.89h-1.207v-3.89h1.207zM14.694 10.064h1.593l-2.15 1.82 2.425 2.070h-1.705l-2.202-2.029 2.039-1.86zM16.784 10.065h1.207v3.889h-1.207zM22.592 13.954l-0.357-0.678h-2.335l-0.353 0.678h-1.333l2.139-3.89h1.5l2.139 3.89h-1.4zM20.319 12.432h1.5l-0.75-1.409-0.75 1.409z"/>
</svg>