<svg xmlns="http://www.w3.org/2000/svg" version="1.1" width="24" height="24" viewBox="0 0 24 24">
<path d="M19.481 12.629c0.642-0.371 0.642-1.009 0-1.379l-4.769-2.754c-0.642-0.371-1.195-0.052-1.195 0.69v5.507c0 0.741 0.553 1.060 1.195 0.69zM12.001 2.727c5.121 0 9.273 4.152 9.273 9.273s-4.152 9.273-9.273 9.273-9.272-4.152-9.272-9.273 4.151-9.273 9.272-9.273zM12.001 0.002c-6.615 0-11.997 5.382-11.997 11.998s5.382 11.998 11.998 11.998 11.997-5.382 11.997-11.998-5.382-11.998-11.998-11.998z"/>
</svg>