<svg xmlns="http://www.w3.org/2000/svg" version="1.1" width="24" height="24" viewBox="0 0 24 24">
<path d="M0.87 18.257c-0.248 0.382-0.53 0.875-0.763 1.245-0.067 0.112-0.107 0.246-0.107 0.39 0 0.273 0.143 0.513 0.359 0.648l0.003 0.002 4.965 3.054c0.114 0.071 0.253 0.114 0.401 0.114 0.278 0 0.521-0.148 0.655-0.37l0.002-0.003c0.199-0.332 0.454-0.763 0.733-1.221 1.967-3.247 3.945-2.853 7.508-1.146l4.957 2.337c0.096 0.047 0.209 0.074 0.329 0.074 0.311 0 0.578-0.185 0.697-0.451l0.002-0.005 2.364-5.346c0.040-0.090 0.064-0.195 0.064-0.305 0-0.307-0.181-0.571-0.441-0.693l-0.005-0.002c-5.245-2.34-6.875-3.13-8.502-3.926l3.537 1.565c-6.717-3.247-12.404-3.032-16.758 4.040zM23.131 5.743c0.249-0.405 0.531-0.875 0.764-1.25 0.066-0.11 0.104-0.243 0.104-0.385 0-0.272-0.143-0.512-0.357-0.647l-0.003-0.002-4.964-3.055c-0.114-0.071-0.253-0.114-0.401-0.114-0.278 0-0.521 0.148-0.655 0.37l-0.002 0.003c-0.195 0.335-0.451 0.763-0.734 1.225-1.966 3.246-3.945 2.85-7.508 1.146l-4.938-2.341c-0.096-0.047-0.209-0.074-0.328-0.074-0.31 0-0.578 0.185-0.697 0.451l-0.002 0.005-2.364 5.346c-0.040 0.090-0.064 0.195-0.064 0.305 0 0.307 0.181 0.571 0.441 0.693l0.005 0.002c1.039 0.49 3.105 1.467 4.965 2.361 6.698 3.246 12.392 3.029 16.738-4.040z"/>
</svg>