<svg xmlns="http://www.w3.org/2000/svg" version="1.1" width="24" height="24" viewBox="0 0 24 24">
<path d="M11.998 18.267c-1.352-1.696-2.147-3.182-2.412-4.455-0.263-1.026-0.159-1.847 0.291-2.464 0.477-0.71 1.187-1.055 2.12-1.055s1.642 0.345 2.119 1.062c0.446 0.61 0.558 1.432 0.286 2.464-0.291 1.298-1.085 2.784-2.404 4.448zM21.595 19.407c-0.185 1.245-1.034 2.278-2.2 2.782-2.251 0.98-4.48-0.583-6.388-2.703 3.155-3.95 3.738-7.025 2.384-9.014-0.795-1.14-1.933-1.695-3.393-1.695-2.943 0-4.561 2.49-3.925 5.38 0.37 1.564 1.351 3.342 2.915 5.33-0.98 1.084-1.909 1.855-2.73 2.332-0.636 0.344-1.245 0.557-1.828 0.608-2.677 0.399-4.776-2.198-3.823-4.877 0.132-0.345 0.395-0.98 0.845-1.961l0.025-0.053c1.463-3.176 3.24-6.786 5.282-10.79l0.053-0.132 0.58-1.115c0.45-0.822 0.635-1.19 1.351-1.643 0.345-0.209 0.769-0.314 1.245-0.314 0.954 0 1.697 0.557 2.015 1.006 0.158 0.239 0.345 0.557 0.582 0.953l0.558 1.088 0.080 0.159c2.040 4.002 3.819 7.605 5.276 10.789l0.026 0.025 0.533 1.22 0.318 0.764c0.243 0.612 0.294 1.221 0.219 1.861zM22.814 17.018c-0.186-0.583-0.504-1.271-0.9-2.093v-0.030c-1.887-4.005-3.64-7.605-5.304-10.84l-0.111-0.162c-1.186-2.432-2.035-3.893-4.501-3.893-2.438 0-3.474 1.694-4.533 3.897l-0.081 0.16c-1.668 3.234-3.42 6.839-5.301 10.842v0.053l-0.558 1.219c-0.21 0.504-0.317 0.768-0.345 0.847-1.35 3.712 1.432 6.972 4.8 6.972 0.027 0 0.132 0 0.264-0.027h0.372c1.75-0.213 3.553-1.325 5.382-3.316 1.828 1.988 3.633 3.103 5.38 3.316h0.372c0.132 0.027 0.238 0.027 0.264 0.027 3.368 0.003 6.15-3.26 4.8-6.972z"/>
</svg>