<svg xmlns="http://www.w3.org/2000/svg" version="1.1" width="24" height="24" viewBox="0 0 24 24">
<path d="M17.381 18.056c-7.43 0.445-15.51 3.135-16.362 3.51l0.989-2.789c2.521-1.166 8.775-3.469 16.486-4.019-0.15 0.57-0.961 2.671-1.125 3.285zM20.030 10.547c0 0-0.363 0.765-0.709 1.814-2.954 0.18-7.635 1.154-9.915 1.98 1.186-1.080 8.686-8.61 8.686-8.61 2.893 1.979 5.908 4.424 5.908 4.424l-3.97 0.395zM2.48 10.877c1.647-0.75 6.265-2.146 10.685-3.181 0 0-8.497 7.845-10.859 10.275l1.95-5.28c-1.516 0.225-2.184 0.315-4.256 0.75l2.479-2.551zM13.080 2.445c0.734 0.359 3.45 2.205 4.419 2.888-3.096 0.074-9.135 1.409-11.652 2.25 2.065-1.568 5.903-4.53 7.233-5.148z"/>
</svg>