<svg xmlns="http://www.w3.org/2000/svg" version="1.1" width="24" height="24" viewBox="0 0 24 24">
<path d="M11.973 9.191h0.019c1.296 0.001 2.347 1.052 2.347 2.349 0 0.724-0.328 1.372-0.843 1.803l-0.004 0.003c-0.231 0.218-0.52 0.377-0.842 0.449l-0.012 0.002c-0.194 0.058-0.416 0.092-0.647 0.092h-0.019c-0.224 0-0.441-0.033-0.647-0.092-0.334-0.075-0.623-0.233-0.855-0.452l0.001 0.001c-0.52-0.432-0.849-1.080-0.849-1.803 0-0.001 0-0.002 0-0.003v0c0.002-1.297 1.054-2.348 2.351-2.349h0zM2.025 18.641c1.262 0.158 2.382-0.76 2.501-2.052 0.006-0.065 0.010-0.14 0.010-0.215 0-0.369-0.082-0.719-0.229-1.033l0.006 0.015c-1.768-3.879 6.955-3.968 5.481-0.307l-0.010 0.016c-0.697 1.115-0.319 2.563 0.839 3.232 0.426 0.248 0.898 0.35 1.359 0.33 0.461 0.020 0.933-0.082 1.359-0.33 1.158-0.67 1.536-2.117 0.839-3.232l-0.010-0.016c-1.474-3.661 7.25-3.572 5.48 0.307-0.14 0.298-0.222 0.648-0.222 1.016 0 0.076 0.004 0.152 0.010 0.226l-0.001-0.010c0.12 1.292 1.239 2.21 2.502 2.052 0.566-0.075 1.059-0.342 1.42-0.733l0.001-0.002c0 0 0.587-0.487 0.578-1.729-0.008-1.013-0.578-1.574-0.578-1.574-0.4-0.406-0.956-0.657-1.571-0.657-0.084 0-0.168 0.005-0.249 0.014l0.010-0.001c-1.619-0.036-1.859-1.304-1.402-3.694 0.168-0.424 0.241-0.878 0.226-1.332 0.002-0.038 0.002-0.083 0.002-0.129 0-1.421-0.869-2.638-2.105-3.15l-0.023-0.008c-0.039-0.017-0.078-0.030-0.118-0.046-0.033-0.014-0.078-0.030-0.123-0.043l-0.011-0.003c-0.325-0.113-0.699-0.179-1.089-0.179-1.223 0-2.296 0.645-2.897 1.613l-0.008 0.015c-0.815 0.895-1.184 1.438-2.022 1.438-0.797 0-1.208-0.543-2.022-1.438-0.608-0.984-1.681-1.631-2.906-1.631-0.439 0-0.859 0.083-1.245 0.235l0.023-0.008c-0.040 0.016-0.079 0.029-0.119 0.046-1.258 0.52-2.126 1.737-2.126 3.157 0 0.046 0.001 0.091 0.003 0.136l-0-0.007c-0.016 0.454 0.058 0.908 0.225 1.332 0.457 2.391 0.217 3.658-1.401 3.694-0.793-0.085-1.385 0.242-1.983 0.841-0.6 0.598-0.55 2.2 0 2.899 0.399 0.509 0.94 0.861 1.594 0.943z"/>
</svg>