<svg xmlns="http://www.w3.org/2000/svg" version="1.1" width="24" height="24" viewBox="0 0 24 24">
<path d="M21.039 0c-1.634 0-2.958 1.325-2.958 2.959 0 0.479 0.114 0.932 0.316 1.332l-0.008-0.017-6.447 6.447c-0.384-0.195-0.837-0.309-1.317-0.309-1.635 0-2.96 1.325-2.96 2.96s1.325 2.96 2.96 2.96c1.635 0 2.96-1.325 2.96-2.96 0-0.479-0.114-0.932-0.316-1.332l0.008 0.017 6.447-6.447c0.383 0.194 0.836 0.308 1.314 0.308 1.634 0 2.959-1.325 2.959-2.959s-1.325-2.959-2.958-2.959h-0zM10.628 2.745c-0.072 0-0.143 0.003-0.214 0.004s-0.143 0.002-0.215 0.005c-0.447 0.018-0.893 0.064-1.335 0.138l-0.030 0.005-0.185 0.033-0.105 0.020c-0.147 0.028-0.245 0.049-0.342 0.073l0.053-0.011-0.032 0.008c-0.967 0.229-1.817 0.555-2.607 0.978l0.057-0.028-0.155 0.089c-0.063 0.034-0.125 0.070-0.187 0.105-0.046 0.027-0.093 0.051-0.14 0.079h-0.001l-0.010 0.005-0.036 0.020v0.002l0.111 0.184 3.15 5.23c0.102-0.063 0.227-0.13 0.355-0.191l0.025-0.011c0.475-0.232 1.031-0.381 1.617-0.413l0.011-0c0.071-0.004 0.143-0.008 0.214-0.008zM11.056 2.755v6.333c0.325 0.034 0.647 0.103 0.96 0.209l4.66-4.66c-0.173-0.12-0.348-0.237-0.528-0.347l-0.026-0.015c-0.056-0.035-0.112-0.067-0.168-0.1l-0.098-0.056-0.099-0.055c0.009 0.002-0.047-0.028-0.103-0.059l-0.068-0.033-0.027-0.014c-0.394-0.212-0.864-0.42-1.351-0.594l-0.074-0.023c-0.69-0.241-1.403-0.41-2.128-0.505l-0.089-0.012-0.090-0.010c-0.025-0.004-0.084-0.011-0.142-0.017l-0.281-0.023c-0.065-0.006-0.154-0.011-0.242-0.015l-0.013-0c-0.031-0.003-0.062-0.003-0.093-0.004zM4.782 4.498c-0.51 0.333-0.954 0.683-1.366 1.067l0.006-0.005 4.479 4.479c0.049-0.040 0.098-0.078 0.149-0.116l-0.011-0.018zM3.112 5.858c-0.050 0.050-0.098 0.103-0.147 0.154l-0.149 0.155c-0.33 0.357-0.63 0.73-0.902 1.118l-0.039 0.056c-0.050 0.070-0.121 0.177-0.191 0.284l-0.025 0.042c-0.966 1.497-1.57 3.308-1.649 5.255l-0.001 0.021-0.006 0.215-0.003 0.214h6.317c0-0.072 0.007-0.143 0.010-0.214 0.005-0.072 0.006-0.144 0.013-0.215 0.081-0.822 0.399-1.625 0.952-2.3 0.045-0.055 0.096-0.106 0.144-0.16 0.048-0.052 0.093-0.107 0.144-0.158zM19.367 7.322l-4.663 4.663c0.106 0.312 0.175 0.634 0.21 0.959h6.332l-0.004-0.094c-0.009-0.187-0.021-0.345-0.035-0.502l0.003 0.046-0.005-0.052c-0.013-0.138-0.022-0.221-0.032-0.303l0.006 0.062v-0.009l-0.033-0.24v-0.009c-0.084-0.575-0.198-1.079-0.347-1.568l0.020 0.075-0.003-0.010c-0.053-0.188-0.077-0.264-0.101-0.34l0.031 0.112-0.010-0.030c-0.052-0.167-0.076-0.235-0.1-0.303l0.031 0.099-0.020-0.055c-0.059-0.176-0.11-0.31-0.167-0.442l0.014 0.037c-0.049-0.128-0.080-0.203-0.113-0.277l0.020 0.050c-0.063-0.154-0.084-0.202-0.105-0.249l0.042 0.105-0.037-0.081c-0.062-0.141-0.089-0.197-0.116-0.253l0.036 0.082-0.024-0.052-0.096-0.194-0.014-0.027c-0.066-0.132-0.103-0.201-0.141-0.27l0.029 0.058-0.004-0.008c-0.211-0.386-0.411-0.706-0.627-1.014l0.023 0.034zM14.937 13.372c0 0.071-0.006 0.142-0.010 0.214-0.003 0.072-0.005 0.143-0.012 0.214-0.089 0.883-0.434 1.673-0.958 2.308l0.006-0.007c-0.045 0.055-0.096 0.107-0.144 0.16s-0.093 0.108-0.144 0.159l4.467 4.467c0.051-0.051 0.099-0.104 0.148-0.155 0.050-0.052 0.1-0.103 0.148-0.155 0.331-0.358 0.633-0.733 0.905-1.122l0.032-0.046 0.098-0.144 0.085-0.13 0.040-0.063c0.965-1.496 1.568-3.306 1.646-5.251l0.001-0.021c0.003-0.071 0.004-0.143 0.006-0.214s0.004-0.143 0.004-0.214zM0.010 13.8l0.004 0.093 0.010 0.179 0.005 0.076 0.017 0.206 0.005 0.046c0.007 0.076 0.015 0.153 0.024 0.228l0.003 0.022c0.015 0.132 0.027 0.217 0.040 0.301l-0.007-0.053c0.072 0.505 0.182 1.005 0.327 1.497l0.002 0.006c0.022 0.077 0.047 0.154 0.071 0.23l0.004 0.014 0.005 0.014c0.083 0.257 0.135 0.403 0.189 0.548l-0.036-0.109 0.030 0.080 0.059 0.148c0.048 0.128 0.080 0.203 0.112 0.278l-0.019-0.050 0.062 0.14 0.038 0.084 0.078 0.169 0.027 0.054c0.1 0.209 0.175 0.354 0.253 0.497l-0.028-0.056 0.025 0.043 5.428-3.27c-0.2-0.412-0.34-0.891-0.393-1.395l-0.002-0.019h-0.025zM0.515 16.646l-0.206 0.058 0.002 0.005zM6.94 15.594l-5.415 3.262c0.083 0.139 0.17 0.273 0.259 0.406l0.008 0.014 0.004 0.005 0.008 0.014h0.001c0.007 0.012 0.014 0.022 0.022 0.032l0.001 0.002v0.001c0.118 0.174 0.216 0.31 0.317 0.444l-0.019-0.027 0.006 0.008c0.11 0.147 0.205 0.267 0.303 0.384l-0.013-0.016 0.033 0.040c0.043 0.052 0.086 0.103 0.13 0.153l0.057 0.065 0.112 0.127 0.064 0.069 0.029 0.031 0.083 0.090 0.035 0.035c0.049 0.051 0.098 0.103 0.149 0.153l4.466-4.466c-0.098-0.099-0.192-0.204-0.279-0.313l-0.006-0.008c-0.121-0.148-0.238-0.313-0.344-0.486l-0.011-0.019zM13.356 16.705c-0.050 0.040-0.1 0.079-0.15 0.116l0.011 0.018 3.257 5.407c0.151-0.099 0.3-0.2 0.446-0.307 0.315-0.232 0.62-0.484 0.914-0.756l-4.46-4.46zM7.899 16.708l-4.475 4.475c0.057 0.053 0.121 0.111 0.185 0.167l0.010 0.009c0.022 0.020 0.043 0.040 0.065 0.058l0.152 0.13c0.052 0.044 0.122 0.101 0.193 0.157l0.022 0.017 0.023 0.017 0.191 0.148 0.008 0.005c0.268 0.2 0.547 0.389 0.834 0.564l0.030 0.018 0.164 0.097 0.101 0.057c0.062 0.038 0.15 0.087 0.24 0.134l0.030 0.014c0.008 0.004 0.016 0.010 0.025 0.013 0.162 0.085 0.327 0.164 0.493 0.24l0.158-0.385 2.252-5.468c-0.266-0.143-0.496-0.298-0.709-0.473l0.008 0.006zM12.85 17.061c-0.061 0.037-0.124 0.070-0.187 0.104-0.591 0.324-1.295 0.514-2.043 0.514-0.438 0-0.86-0.065-1.258-0.186l0.031 0.008c-0.069-0.020-0.135-0.047-0.203-0.071s-0.136-0.044-0.202-0.072l-2.405 5.841 0.017 0.007c0.005 0.002 0.012 0.005 0.018 0.007l0.001 0 0.005 0.003c0.052 0.021 0.106 0.040 0.159 0.060 0.067 0.027 0.133 0.053 0.2 0.077l0.102 0.040c0.702 0.247 1.43 0.42 2.168 0.518l0.087 0.012 0.262 0.029c0.055 0.007 0.142 0.014 0.229 0.021l0.023 0.001c0.023 0.001 0.048 0.001 0.071 0.003l0.184 0.011 0.112 0.005c0.095 0.005 0.205 0.007 0.317 0.007 0.014 0 0.029-0 0.043-0h0.048c0.003 0 0.007 0 0.010 0 0.63 0 1.247-0.055 1.846-0.159l-0.064 0.009 0.185-0.034 0.105-0.020 0.109-0.023 0.18-0.040 0.032-0.008c0.967-0.229 1.817-0.555 2.607-0.978l-0.057 0.028c0.052-0.028 0.104-0.060 0.156-0.089 0.063-0.034 0.125-0.070 0.187-0.105 0.043-0.024 0.087-0.047 0.13-0.073h0.001l0.002-0.002 0.004-0.002 0.007-0.004 0.042-0.025-0.11-0.183-0.11-0.184zM16.112 22.475l-0.042 0.025zM16.062 22.504h-0.001z"/>
</svg>