<svg xmlns="http://www.w3.org/2000/svg" version="1.1" width="24" height="24" viewBox="0 0 24 24">
<path d="M12.040 22.547c-0 0-0.001 0-0.001 0-1.218 0-2.206-0.988-2.206-2.206 0-0.327 0.071-0.637 0.198-0.916l-0.006 0.014-2.699-1.8c-0.401 0.419-0.966 0.68-1.591 0.68-1.216 0-2.201-0.985-2.201-2.201s0.985-2.201 2.201-2.201c1.216 0 2.201 0.985 2.201 2.201 0 0.324-0.070 0.632-0.196 0.909l0.006-0.014 2.702 1.8c0.082-0.085 0.172-0.164 0.267-0.236l-4.33-8.659c-0.195 0.063-0.42 0.099-0.654 0.099-1.22 0-2.209-0.989-2.209-2.209s0.989-2.209 2.209-2.209c1.22 0 2.209 0.989 2.209 2.209 0 0.72-0.345 1.36-0.878 1.763l-0.006 0.004 4.33 8.659c0.077-0.024 0.156-0.044 0.235-0.059v-4.128c-1.027-0.202-1.79-1.095-1.79-2.166s0.764-1.964 1.776-2.164l0.014-0.002v-3.89c-1.026-0.203-1.788-1.096-1.788-2.166 0-1.218 0.988-2.206 2.206-2.206s2.206 0.988 2.206 2.206c0 1.099-0.804 2.011-1.856 2.178l-0.013 0.002v3.866c1.065 0.168 1.871 1.080 1.871 2.18s-0.805 2.011-1.858 2.178l-0.012 0.002v4.097c0.082 0.013 0.164 0.030 0.244 0.052l4.32-8.638c-0.535-0.406-0.877-1.043-0.877-1.759 0-1.216 0.986-2.202 2.202-2.202s2.202 0.986 2.202 2.202c0 1.216-0.986 2.202-2.202 2.202-0.233 0-0.457-0.036-0.668-0.103l0.016 0.004-4.309 8.617c0.1 0.070 0.194 0.148 0.28 0.233l2.616-1.776c-0.139-0.281-0.221-0.612-0.221-0.963 0-1.22 0.989-2.209 2.209-2.209s2.209 0.989 2.209 2.209c0 1.22-0.989 2.209-2.209 2.209-0.603 0-1.15-0.242-1.549-0.634l0 0-2.615 1.777c0.138 0.28 0.219 0.61 0.219 0.959 0 1.218-0.987 2.206-2.205 2.206h-0zM12 24c-6.627 0-12-5.372-12-12 0-3.314 1.343-6.314 3.515-8.485v0c4.686-4.686 12.284-4.686 16.97 0s4.687 12.284 0 16.97c-2.16 2.171-5.149 3.515-8.453 3.515-0.011 0-0.023-0-0.034-0h0.002zM12 0.755c-6.21 0-11.245 5.035-11.245 11.245 0 2.982 1.185 5.843 3.294 7.951 4.376 4.407 11.495 4.433 15.902 0.057s4.432-11.496 0.057-15.903c-2.029-2.068-4.854-3.35-7.977-3.35-0.011 0-0.022 0-0.032 0h0.002z"/>
</svg>