<svg xmlns="http://www.w3.org/2000/svg" version="1.1" width="24" height="24" viewBox="0 0 24 24">
<path d="M19.32 7.778h-0.003c-0.604-0.604-1.508-0.604-2.11 0l-9.493 9.495c-0.45 0.452-1.2 0.755-1.962 0.755-0.75 0-1.5-0.303-2.102-0.904-0.6-0.603-0.903-1.355-0.903-2.11 0-0.754 0.3-1.507 0.9-2.11l8.89-8.893c-1.206-1.205-3.015-1.205-4.222 0l-6.63 6.783c-2.263 2.262-2.263 6.030 0 8.44 2.26 2.264 6.028 2.264 8.44 0l9.345-9.344c0.453-0.605 0.453-1.507-0.15-2.112zM22.18 4.772v-0.010c-2.26-2.26-6.028-2.26-8.438 0l-9.19 9.347c-0.6 0.603-0.6 1.507 0 2.11 0.61 0.603 1.512 0.603 2.112 0l0.15-0.15 0.91-0.905 6.934-6.935 1.494-1.505c0.45-0.453 1.205-0.754 1.96-0.754s1.507 0.302 2.108 0.905c0.605 0.61 0.904 1.362 0.904 2.113 0 0.75-0.3 1.512-0.904 2.11l-8.893 8.89c1.207 1.212 3.014 1.212 4.22 0l6.786-6.776c2.262-2.413 2.262-6.027-0.153-8.44z"/>
</svg>