<svg xmlns="http://www.w3.org/2000/svg" version="1.1" width="24" height="24" viewBox="0 0 24 24">
<path d="M0 0v24h24v-24zM10.564 4.969c0.667-0.047 1.001 0.066 1.59 0.242l0.436 0.13 0.152 0.046 0.557 0.17c0.365 0.099 0.748 0.105 1.115 0.017 0.156-0.043 0.335-0.067 0.519-0.067 0.352 0 0.683 0.089 0.972 0.247l-0.011-0.005c0.409 0.233 0.684 0.648 0.737 1.115 0.048 0.413 0.288 0.78 0.648 0.989 0.537 0.293 1.096 0.538 1.672 0.736 0.407 0.156 0.815 0.331 1.219 0.488 0.2 0.077 0.377 0.203 0.514 0.37 0.111 0.133 0.183 0.302 0.197 0.487l0 0.003c0.025 0.359 0.068 0.722 0.086 1.084h-0.002c0.028 0.5-0.080 0.997-0.317 1.439-0.087 0.165-0.183 0.321-0.263 0.486-0.097 0.22-0.314 0.371-0.565 0.371-0.025 0-0.049-0.001-0.073-0.004l0.003 0c-0.005-0-0.012-0-0.018-0-0.098 0-0.189 0.034-0.26 0.091l0.001-0.001c-0.246 0.161-0.497 0.32-0.75 0.471-0.35 0.193-0.77 0.216-1.141 0.060-0.566-0.222-1.222-0.351-1.908-0.351-0 0-0 0-0 0v0c-0.019-0.001-0.042-0.001-0.065-0.001-0.658 0-1.245 0.301-1.632 0.772l-0.003 0.004c-0.16 0.22-0.29 0.476-0.375 0.751l-0.005 0.019c-0.223 0.55-0.414 3.838-0.414 4.676 0 0-3.161-0.615-6.13-3.653l0.774-2.030h-2.424l1.754-1.856h-3.014l1.752-1.858h-2.863l3.188-3.383c0.948-0.941 2.153-1.626 3.499-1.94l0.050-0.010c0.318-0.055 0.576-0.089 0.798-0.104z"/>
</svg>