<svg xmlns="http://www.w3.org/2000/svg" version="1.1" width="24" height="24" viewBox="0 0 24 24">
<path d="M3.67 6.14c0 0-1.85 1.77-1.95 3.64v0.35c0.080 1.51 1.22 2.4 1.22 2.4 1.83 1.79 6.26 4.040 7.3 4.55 0 0 0.060 0.030 0.1-0.010l0.020-0.040v-0.040c-2.84-6.19-6.69-10.85-6.69-10.85zM9.65 18.6c-0.020-0.080-0.1-0.080-0.1-0.080l-7.38 0.26c0.8 1.43 2.15 2.53 3.56 2.2 0.96-0.25 3.16-1.78 3.88-2.3 0.060-0.050 0.040-0.090 0.040-0.080zM9.73 17.82c-3.24-2.19-9.52-5.54-9.52-5.54-0.15 0.46-0.2 0.9-0.21 1.3v0.070c0 1.070 0.4 1.82 0.4 1.82 0.8 1.69 2.34 2.2 2.34 2.2 0.7 0.3 1.4 0.31 1.4 0.31 0.12 0.020 4.4 0 5.54 0 0.050 0 0.080-0.050 0.080-0.050v-0.060c0-0.030-0.030-0.050-0.030-0.050zM9.060 3.19c-1.438 0.376-2.495 1.63-2.57 3.142l-0 0.008v0.41c0.030 0.6 0.16 1.050 0.16 1.050 0.66 2.9 3.86 7.65 4.55 8.65 0.050 0.050 0.1 0.030 0.1 0.030 0.036-0.016 0.060-0.051 0.060-0.092 0-0.003-0-0.006-0-0.009l0 0c1.060-10.6-1.11-13.42-1.11-13.42-0.32 0.020-1.19 0.23-1.19 0.23zM17.36 5.46c0 0-0.49-1.8-2.44-2.28 0 0-0.57-0.14-1.17-0.22 0 0-2.18 2.81-1.12 13.43 0.010 0.070 0.060 0.080 0.060 0.080 0.070 0.030 0.1-0.030 0.1-0.030 0.72-1.030 3.9-5.76 4.55-8.64 0 0 0.36-1.4 0.020-2.34zM14.44 18.53c0 0-0.070 0-0.090 0.050 0 0-0.010 0.070 0.030 0.1 0.7 0.51 2.85 2 3.88 2.3 0 0 0.16 0.050 0.43 0.060h0.14c0.69-0.020 1.9-0.37 3-2.26zM22.27 10.12c0.14-2.060-1.94-3.97-1.94-3.98 0 0-3.85 4.66-6.67 10.8 0 0-0.030 0.080 0.020 0.13l0.040 0.010h0.060c1.060-0.53 5.46-2.77 7.28-4.54 0 0 1.15-0.93 1.21-2.42zM23.79 12.26c0 0-6.28 3.37-9.52 5.55 0 0-0.050 0.040-0.030 0.11 0 0 0.030 0.060 0.070 0.060 1.16 0 5.56 0 5.67-0.020 0 0 0.57-0.020 1.27-0.29 0 0 1.56-0.5 2.37-2.27 0 0 0.73-1.45 0.17-3.14z"/>
</svg>