<svg xmlns="http://www.w3.org/2000/svg" version="1.1" width="24" height="24" viewBox="0 0 24 24">
<path d="M23.59 3.47c-0.527-1.421-1.629-2.523-3.015-3.039l-0.035-0.011c-1.31-0.42-2.5-0.42-4.92-0.42h-7.26c-2.4 0-3.61 0-4.9 0.4-1.423 0.529-2.525 1.634-3.039 3.025l-0.011 0.035c-0.41 1.3-0.41 2.5-0.41 4.9v7.27c0 2.41 0 3.6 0.4 4.9 0.527 1.421 1.629 2.523 3.015 3.039l0.035 0.011c1.3 0.41 2.5 0.41 4.9 0.41h7.28c2.41 0 3.61 0 4.9-0.4 1.427-0.527 2.533-1.633 3.049-3.025l0.011-0.035c0.41-1.3 0.41-2.5 0.41-4.9v-7.25c0-2.41 0-3.61-0.41-4.91zM17.42 8.1l-0.93 0.93c-0.089 0.083-0.209 0.134-0.341 0.134-0.126 0-0.242-0.047-0.33-0.124l0.001 0c-0.863-0.732-1.989-1.178-3.22-1.18h-0c-0.97 0-1.94 0.32-1.94 1.21 0 0.9 1.040 1.2 2.24 1.65 2.1 0.7 3.84 1.58 3.84 3.64 0 2.24-1.74 3.78-4.58 3.95l-0.26 1.2c-0.048 0.224-0.244 0.39-0.48 0.39-0 0-0 0-0 0h-1.79l-0.090-0.010c-0.225-0.052-0.391-0.251-0.391-0.488 0-0.036 0.004-0.071 0.011-0.105l-0.001 0.003 0.28-1.27c-1.124-0.288-2.096-0.834-2.884-1.573l0.004 0.003v-0.010c-0.087-0.087-0.141-0.207-0.141-0.34s0.054-0.253 0.141-0.34l0-0 1-0.97c0.087-0.082 0.205-0.132 0.335-0.132s0.248 0.050 0.335 0.133l-0-0c0.91 0.86 2.13 1.34 3.39 1.32 1.3 0 2.17-0.55 2.17-1.42s-0.88-1.1-2.54-1.72c-1.76-0.63-3.43-1.52-3.43-3.6 0-2.42 2.010-3.6 4.39-3.71l0.25-1.23c0.048-0.219 0.24-0.38 0.47-0.38 0.004 0 0.007 0 0.011 0h1.779l0.1 0.010c0.26 0.060 0.43 0.31 0.37 0.57l-0.27 1.37c0.9 0.3 1.75 0.77 2.48 1.39l0.020 0.020c0.19 0.2 0.19 0.5 0 0.68z"/>
</svg>