<svg xmlns="http://www.w3.org/2000/svg" version="1.1" width="24" height="24" viewBox="0 0 24 24">
<path d="M12 0c-6.627 0-12 5.373-12 12v0c0.002 0.872 0.093 1.721 0.264 2.541l-0.014-0.081c0.99-0.282 2.128-0.449 3.304-0.46l0.006-0c0.010-0 0.022-0 0.033-0 1.854 0 3.613 0.405 5.194 1.132l-0.077-0.032 0.76-0.5c1.867-1.149 4.13-1.83 6.551-1.83 1.734 0 3.387 0.349 4.892 0.981l-0.083-0.031c0.065 0.031 0.109 0.095 0.11 0.17v0c0 0.002 0 0.003 0 0.005 0 0.050-0.023 0.095-0.060 0.125l-0 0c-0.019 0.007-0.042 0.011-0.065 0.011s-0.046-0.004-0.066-0.012l0.001 0h-0.25c-0.133-0.007-0.288-0.011-0.445-0.011s-0.312 0.004-0.467 0.012l0.022-0.001c-0.131-0.005-0.286-0.008-0.441-0.008-3.343 0-6.388 1.271-8.68 3.357l0.010-0.009c-0.419 0.407-0.803 0.844-1.15 1.311l-0.020 0.029-0.11 0.15c-0.018 0.007-0.038 0.012-0.060 0.012s-0.042-0.004-0.061-0.012l0.001 0c-0.018 0.007-0.038 0.011-0.060 0.011s-0.042-0.004-0.061-0.011l0.001 0c-2.080-1.779-4.802-2.861-7.777-2.861-0.184 0-0.367 0.004-0.549 0.012l0.026-0.001c1.697 4.701 6.12 8 11.314 8 6.627 0 12-5.373 12-12 0-6.625-5.369-11.996-11.993-12h-0zM21.39 7.18h-0.56c-0.312-0.049-0.671-0.076-1.037-0.076-2.040 0-3.878 0.862-5.17 2.242l-0.004 0.004c-0.060 0.060-0.12 0.070-0.18 0-1.212-1.282-2.897-2.106-4.775-2.189l-0.015-0.001c-0.2-0.019-0.433-0.030-0.669-0.030-0.471 0-0.931 0.044-1.378 0.127l0.046-0.007c-0.072 0-0.13-0.058-0.13-0.13v0c-0.006-0.015-0.009-0.032-0.009-0.050s0.003-0.035 0.010-0.051l-0 0.001c0.975-0.518 2.132-0.823 3.36-0.823 1.316 0 2.551 0.35 3.616 0.962l-0.035-0.019c1.047-0.611 2.306-0.972 3.648-0.972 1.146 0 2.23 0.263 3.196 0.731l-0.044-0.019 0.14 0.080c0.041 0.016 0.070 0.056 0.070 0.103 0 0.003-0 0.005-0 0.008l0-0c0.004 0.013 0.006 0.029 0.006 0.045s-0.002 0.032-0.007 0.046l0-0.001c-0.018 0.013-0.040 0.021-0.065 0.021-0.005 0-0.011-0-0.016-0.001l0.001 0z"/>
</svg>