<svg xmlns="http://www.w3.org/2000/svg" version="1.1" width="24" height="24" viewBox="0 0 24 24">
<path d="M4.102 21.033c2.109 1.848 4.875 2.967 7.898 2.967 3.026 0 5.789-1.119 7.902-2.967 1.877-1.912-4.316-8.709-7.902-11.417-3.582 2.708-9.779 9.505-7.898 11.417zM15.262 6.627c2.5 2.961 7.484 10.313 6.076 12.912 1.664-2.059 2.662-4.678 2.662-7.535 0-3.34-1.365-6.362-3.57-8.536 0 0-0.027-0.022-0.082-0.042-0.063-0.022-0.152-0.045-0.281-0.045-0.592 0-1.985 0.434-4.805 3.246zM3.654 3.426c-0.057 0.020-0.082 0.041-0.086 0.042-2.203 2.174-3.568 5.196-3.568 8.536 0 2.854 0.998 5.473 2.661 7.533-1.401-2.605 3.579-9.951 6.080-12.91-2.82-2.813-4.216-3.245-4.806-3.245-0.131 0-0.223 0.021-0.281 0.046zM12 3.551c0 0-2.945-1.723-5.245-1.805-0.903-0.033-1.454 0.295-1.521 0.339 2.145-1.439 4.425-2.085 6.75-2.085h0.016c2.334 0 4.605 0.646 6.766 2.085-0.068-0.046-0.615-0.372-1.52-0.339-2.3 0.082-5.246 1.799-5.246 1.799z"/>
</svg>