<svg xmlns="http://www.w3.org/2000/svg" version="1.1" width="24" height="24" viewBox="0 0 24 24">
<path d="M23.158 14.25h-15.337c0 0.578 0.086 1.103 0.262 1.575 0.188 0.465 0.431 0.881 0.743 1.245 0.31 0.364 0.675 0.675 1.102 0.938 0.413 0.262 0.863 0.48 1.343 0.648 0.476 0.173 0.975 0.3 1.48 0.383 0.474 0.079 1.021 0.124 1.577 0.124 0.613 0 1.212-0.055 1.795-0.159l-0.061 0.009c0.564-0.105 1.111-0.244 1.651-0.42 0.54-0.177 1.061-0.387 1.583-0.627 0.525-0.24 1.057-0.502 1.605-0.795v5.085c-0.612 0.3-1.212 0.552-1.812 0.769-0.6 0.21-1.2 0.394-1.81 0.54-0.612 0.15-1.23 0.263-1.865 0.33-0.587 0.067-1.267 0.105-1.957 0.105h-0c-0.9 0-1.77-0.105-2.606-0.311-0.894-0.221-1.679-0.527-2.41-0.92l0.055 0.027c-0.768-0.411-1.43-0.881-2.026-1.424l0.008 0.007c-1.204-1.092-2.106-2.496-2.579-4.085l-0.016-0.063c-0.226-0.766-0.356-1.647-0.356-2.557 0-0.019 0-0.037 0-0.056l-0 0.003c0-0.986 0.135-1.924 0.405-2.82 0.274-0.9 0.66-1.717 1.17-2.467 0.525-0.77 1.139-1.429 1.838-1.985l0.018-0.014c0.71-0.566 1.524-1.045 2.402-1.401l0.066-0.024c-0.492 0.492-0.886 1.082-1.151 1.739l-0.012 0.035c-0.256 0.598-0.445 1.293-0.532 2.018l-0.004 0.037h8.542c0-0.863-0.086-1.613-0.262-2.258s-0.458-1.181-0.851-1.605c-0.39-0.427-0.893-0.75-1.512-0.96-0.618-0.214-1.365-0.322-2.238-0.322-1.032 0-2.063 0.15-3.094 0.461-1.031 0.3-2.010 0.731-2.94 1.275-0.93 0.551-1.785 1.2-2.565 1.942-0.78 0.75-1.436 1.557-1.969 2.43 0.125-1.085 0.353-2.071 0.679-3.011l-0.030 0.098c0.311-0.926 0.723-1.789 1.219-2.589 0.515-0.814 1.090-1.519 1.737-2.149l0.003-0.003c0.663-0.645 1.398-1.2 2.212-1.65 0.814-0.449 1.676-0.813 2.614-1.058 0.896-0.215 1.926-0.339 2.984-0.34h0.001c0.615 0 1.226 0.056 1.837 0.165 0.612 0.113 1.208 0.263 1.79 0.458 1.154 0.397 2.185 0.952 3.093 1.657 0.888 0.694 1.645 1.502 2.263 2.412l0.024 0.037c0.62 0.926 1.088 1.95 1.41 3.063 0.323 1.114 0.488 2.273 0.488 3.477z"/>
</svg>