<svg xmlns="http://www.w3.org/2000/svg" version="1.1" width="24" height="24" viewBox="0 0 24 24">
<path d="M12.033 10.713c-0.691 0-1.263 0.564-1.263 1.255 0 0.69 0.572 1.262 1.263 1.262 0.695 0 1.258-0.563 1.258-1.259s-0.563-1.258-1.258-1.258v0zM12.033 11.51c0.258 0 0.457 0.2 0.457 0.458s-0.2 0.458-0.457 0.458c-0.259 0-0.458-0.2-0.458-0.458s0.199-0.458 0.458-0.458zM0.65 0.001c-0.073 0-0.106 0.012-0.35 0.040-0.247 0.029-0.327 0.323-0.27 0.632 0.055 0.31 0.072 0.205 0.196 0.384 0.124 0.18 4.228 4.144 6.352 6.216l-3.765 3.861c-1.25 1.282-1.91 3.251-2.296 5.433-0.387 2.181-0.487 4.594-0.517 6.783 0.003 0.319 0.242 0.581 0.551 0.62l0.003 0c0.018 0.001 0.038 0.002 0.059 0.002s0.041-0.001 0.062-0.002l-0.003 0c0.152-0.014 0.285-0.082 0.384-0.184l0-0h0.007l6.209-6.37c4.021 3.721 4.12 5.080 9.294 6.067 2.182 0.386 4.595 0.487 6.784 0.517 0.317-0 0.579-0.237 0.62-0.543l0-0.003 0.008-0.008c0-0.007 0-0.014 0-0.022 0-0.039-0.003-0.078-0.009-0.115l0.001 0.004c-0.016-0.145-0.081-0.273-0.177-0.37l0 0v-0.008l-6.378-6.208 3.632-3.727c0.046-0.043 0.089-0.088 0.133-0.133l0.007-0.008c1.25-1.281 1.918-3.244 2.304-5.426s0.479-4.595 0.509-6.783c-0.001-0.317-0.237-0.579-0.543-0.62l-0.003-0-0.008-0.010c-0.008-0-0.017-0.001-0.027-0.001-0.038 0-0.074 0.003-0.11 0.009l0.004-0.001c-0.145 0.016-0.273 0.081-0.369 0.178l-0 0h-0.007l-6.209 6.37-3.861-3.765c-1.281-1.249-3.25-1.917-5.433-2.302-2.254-0.249-4.517-0.475-6.784-0.508zM1.13 0.836c2.039 0.038 4.213 0.12 6.164 0.465 2.105 0.372 3.927 1.030 5.012 2.089h0.008l0.103 0.11c0.023 0.023 0.049 0.053 0.074 0.082 0.002 0.003 0.005 0.004 0.007 0.008l0.023 0.023c0 0.002-0.002 0.008 0 0.008 0.002 0.003 0.005 0.004 0.007 0.008 0.128 0.176 0.354 0.52 0.42 0.664 0.049 0.101 0.093 0.208 0.134 0.325 0.179 0.519 0.268 1.166 0.206 1.985v0.008c-0.014 0.181-0.038 0.37-0.066 0.569-0.014 0.095-0.033 0.2-0.052 0.31-0.053 0.286-0.101 0.503-0.156 0.717l0.016-0.075c-0.028 0.115-0.056 0.232-0.089 0.347v0.008c-0.13 0.468-0.3 0.976-0.51 1.52-0.052 0.138-0.103 0.272-0.161 0.414-0.046 0.111-0.099 0.225-0.148 0.34l-0.258 0.051c-0.875-1.655-1.831-2.8-2.688-3.455-0.432-0.33-0.837-0.54-1.225-0.627h-0.007c-0.387-0.084-0.8-0.027-1.070 0.251l0.038 0.075 0.32-0.239zM23.166 1.124c-0.038 2.040-0.12 4.218-0.465 6.17-0.372 2.105-1.031 3.928-2.090 5.013l-0.11 0.103c-0.030 0.026-0.062 0.059-0.096 0.088l-0.015 0.016h-0.007c-0.174 0.126-0.527 0.36-0.672 0.428-0.101 0.047-0.21 0.1-0.325 0.14h-0.007c-0.516 0.177-1.166 0.26-1.979 0.2-0.183-0.016-0.375-0.031-0.576-0.060l-0.302-0.052h-0.008c-0.287-0.053-0.504-0.102-0.718-0.156l0.076 0.016h-0.007c-0.117-0.030-0.234-0.065-0.347-0.096-0.63-0.174-1.136-0.345-1.63-0.54l0.109 0.038c-0.136-0.052-0.279-0.111-0.421-0.17-0.243-0.095-0.348-0.139-0.452-0.184l0.135 0.052c0.009-0.063-0.079 0.096 0 0 0-0.009 0.001-0.019 0.001-0.029 0-0.094-0.019-0.183-0.054-0.264l0.002 0.004c1.638-0.87 2.78-1.814 3.433-2.665 0.331-0.433 0.548-0.844 0.635-1.233 0.087-0.386 0.027-0.806-0.251-1.077l0.007 0.008 0.11 0.351zM13.9 4.947l2.562 2.496c0.038 0.038 0.078 0.11 0.030 0.332-0.022 0.095-0.146 0.264-0.207 0.391-0.082 0.166-0.116 0.3-0.274 0.502-0.546 0.7-1.616 1.566-3.137 2.377 0.046-0.107 0.090-0.213 0.133-0.317 0.060-0.147 0.115-0.294 0.17-0.436 0.218-0.568 0.4-1.103 0.538-1.602 0.080-0.268 0.165-0.626 0.233-0.99l0.011-0.073v-0.007c0.019-0.107 0.043-0.212 0.059-0.324 0.025-0.165 0.049-0.381 0.065-0.599l0.002-0.029c0.050-0.677-0.070-1.196-0.185-1.721zM7.774 7.51c1.592 0.72 2.634 2.424 3.277 3.617-0.108-0.047-0.217-0.089-0.324-0.133-0.147-0.060-0.294-0.115-0.436-0.17-0.402-0.167-0.932-0.351-1.473-0.508l-0.122-0.031h-0.006c-0.125-0.034-0.244-0.067-0.362-0.096-0.24-0.059-0.476-0.106-0.701-0.148-0.108-0.018-0.22-0.034-0.332-0.051v-0.010c-0.159-0.024-0.374-0.048-0.592-0.065l-0.036-0.002c-0.68-0.051-1.202 0.069-1.727 0.185l2.503-2.562c0.036-0.039 0.11-0.080 0.331-0.026zM6.607 10.713c0.18 0.012 0.368 0.038 0.569 0.067h0.007c0.096 0.015 0.194 0.034 0.303 0.052 0.205 0.038 0.418 0.085 0.642 0.14l0.177 0.044c0.057 0.015 0.113 0.027 0.17 0.044h0.007c0.47 0.13 0.974 0.299 1.521 0.51 0.137 0.053 0.28 0.104 0.42 0.162 0.12 0.049 0.24 0.103 0.363 0.155l0.014 0.266c-1.64 0.87-2.787 1.82-3.44 2.672-0.332 0.433-0.548 0.837-0.635 1.225v0.008c-0.087 0.387-0.027 0.8 0.251 1.070h-0.006l-0.188-0.335-5.94 6.071c0.040-2.037 0.114-4.208 0.458-6.156 0.372-2.105 1.031-3.928 2.090-5.012v-0.008c0.024-0.027 0.053-0.048 0.080-0.074l0.030-0.030c0.028-0.027 0.057-0.053 0.087-0.079l0.002-0.002h0.007c0.006-0.004 0.010-0.012 0.015-0.016 0.171-0.125 0.533-0.367 0.68-0.435 0.084-0.041 0.194-0.085 0.305-0.125l0.026-0.008c0.519-0.18 1.166-0.269 1.985-0.206zM11.76 10.913c-0.415 0.132-0.698 0.42-0.834 0.834l0.44-0.49zM12.306 10.943l0.18 0.323 0.146 0.095 0.405 0.313c-0.148-0.348-0.372-0.603-0.731-0.731zM12.018 11.46c0.312 0 0.554 0.242 0.554 0.553 0 0.002 0 0.005 0 0.007 0 0.302-0.245 0.547-0.547 0.547-0.002 0-0.005-0-0.007-0h0c-0.002 0-0.004 0-0.006 0-0.302 0-0.547-0.245-0.547-0.547 0-0.002 0-0.005 0-0.007v0c0-0.31 0.242-0.554 0.553-0.553zM10.97 12.323c0.14 0.363 0.381 0.61 0.746 0.746l-0.241-0.276-0.203-0.234zM13.030 12.361l-0.282 0.116-0.062 0.178-0.284 0.327c0.29-0.142 0.498-0.324 0.628-0.621zM12.956 12.871c0.106 0.045 0.213 0.096 0.318 0.14 0.147 0.060 0.292 0.115 0.435 0.17 0.566 0.217 1.098 0.394 1.595 0.53 0.128 0.039 0.253 0.067 0.369 0.097 0.24 0.059 0.476 0.114 0.701 0.155 0.107 0.019 0.22 0.034 0.332 0.051 0.216 0.030 0.426 0.058 0.628 0.074 0.68 0.052 1.202-0.068 1.727-0.184l-2.502 2.562c-0.037 0.038-0.115 0.074-0.325 0.030h-0.008c-0.216-0.050-0.531-0.204-0.893-0.487-0.7-0.547-1.567-1.618-2.377-3.138zM11.126 12.959l-0.134 0.317c-0.060 0.147-0.115 0.294-0.17 0.436-0.165 0.402-0.346 0.932-0.501 1.474l-0.030 0.12c-0.036 0.128-0.067 0.251-0.096 0.37-0.060 0.24-0.114 0.475-0.155 0.7-0.009 0.039-0.027 0.152-0.044 0.266l-0.008 0.067c-0.026 0.158-0.052 0.374-0.070 0.591l-0.003 0.037c-0.052 0.68 0.068 1.202 0.184 1.727l-2.532-2.474-0.015-0.023-0.015-0.008v-0.008c-0.040-0.040-0.078-0.101-0.030-0.317 0.002-0.004 0-0.002 0-0.008 0.050-0.216 0.206-0.532 0.488-0.893 0.546-0.7 1.613-1.567 3.131-2.374zM12.166 13.217c0.866 1.626 1.81 2.776 2.658 3.426 0.433 0.332 0.836 0.548 1.225 0.634h0.008c0.387 0.085 0.799 0.027 1.070-0.25l-0.035-0.071-0.304 0.27 6.090 5.942c-2.040-0.040-4.22-0.122-6.172-0.467-2.105-0.372-3.928-1.030-5.012-2.089h-0.008l-0.022-0.023-0.030-0.030c-0.008-0.008-0.013-0.019-0.022-0.030l-0.030-0.030c-0.023-0.027-0.053-0.057-0.080-0.089v-0.008c-0.003-0.004-0.012-0.010-0.015-0.015-0.145-0.195-0.289-0.417-0.42-0.647l-0.016-0.032c-0.041-0.085-0.086-0.195-0.126-0.308l-0.007-0.024c-0.18-0.519-0.269-1.166-0.206-1.986 0.013-0.18 0.037-0.368 0.066-0.568v-0.008c0.014-0.094 0.033-0.196 0.052-0.303 0.037-0.205 0.085-0.419 0.14-0.642v-0.008l0.044-0.17 0.045-0.17v-0.008c0.13-0.47 0.298-0.973 0.51-1.52 0.052-0.137 0.111-0.28 0.169-0.42 0.047-0.115 0.097-0.231 0.148-0.348z"/>
</svg>