<svg xmlns="http://www.w3.org/2000/svg" version="1.1" width="24" height="24" viewBox="0 0 24 24">
<path d="M13.314 1.59c-0.225 0.003-0.45 0.013-0.675 0.030-2.165 0.155-4.295 0.924-6.069 2.327-2.194 1.732-3.296 4.325-3.496 7.050h0.002c-0.093 1.22-0.23 2.15-0.469 2.63-0.238 0.479-0.42 0.638-1.24 0.639-1.097-0.007-1.767 1.346-1.101 2.216 1.248 1.657 2.902 2.705 4.72 3.364-0.020 0.11-0.032 0.237-0.033 0.366v0.001c0.001 1.213 0.984 2.197 2.198 2.197 0.001 0 0.001 0 0.002 0h-0c1.024-0.002 1.883-0.704 2.125-1.653l0.003-0.015c1.307 0.12 2.607 0.14 3.824 0.1 0.364-0.012 0.73-0.045 1.094-0.092 0.248 0.96 1.106 1.658 2.127 1.66h0c0.001 0 0.001 0 0.002 0 1.214 0 2.197-0.984 2.198-2.197v-0c-0-0.287-0.056-0.561-0.156-0.812l0.005 0.015c0.876-0.458 1.631-0.972 2.319-1.563l-0.016 0.014c2.094-1.807 3.511-4.399 3.302-7.404-0.112-1.723-0.761-3.298-1.748-4.608-2.143-2.86-5.53-4.309-8.918-4.265zM13.68 3.13c0.312 0.008 0.623 0.027 0.933 0.063 2.48 0.288 4.842 1.496 6.4 3.577v0.001c0.829 1.1 1.355 2.386 1.446 3.792v0.003c0.173 2.477-0.965 4.583-2.777 6.147-0.688 0.59-1.469 1.102-2.311 1.507l-0.064 0.028c-0.285-0.147-0.622-0.233-0.98-0.234h-0c-0.832 0.001-1.556 0.464-1.928 1.146l-0.006 0.012c-0.389 0.073-0.849 0.126-1.318 0.145l-0.020 0.001c-0.289 0.011-0.629 0.017-0.971 0.017-1.057 0-2.1-0.060-3.126-0.177l0.125 0.012c-0.378-0.693-1.101-1.155-1.932-1.156h-0c-0.51 0.001-0.979 0.175-1.352 0.467l0.005-0.004c-1.626-0.553-3.078-1.422-4.155-2.762 1.052-0.096 1.916-0.6 2.319-1.408 0.443-0.889 0.53-1.947 0.625-3.198v-0.002c0.175-2.391 1.11-4.536 2.92-5.964h0.002c1.77-1.402 3.978-2.061 6.164-2.013zM10.523 7.768c-0.688 0-1.252 0.579-1.252 1.298 0 0.72 0.564 1.297 1.252 1.297s1.252-0.577 1.252-1.297c0-0.711-0.563-1.298-1.252-1.298zM16.037 7.768c-0.688 0-1.25 0.579-1.25 1.298-0.008 0.72 0.554 1.297 1.25 1.297 0.688 0 1.252-0.577 1.252-1.297 0-0.711-0.564-1.298-1.252-1.298zM9.641 11.78c-0.244 0.004-0.459 0.129-0.586 0.317l-0.002 0.003c-0.078 0.111-0.125 0.248-0.125 0.397 0 0.051 0.005 0.1 0.016 0.148l-0.001-0.005c0.345 1.783 2.175 3.129 4.264 3.129h0.125c1.056-0.032 2.026-0.343 2.816-0.922 0.767-0.556 1.29-1.316 1.477-2.137 0.011-0.047 0.017-0.101 0.017-0.156 0-0.145-0.041-0.28-0.112-0.394l0.002 0.003c-0.097-0.161-0.255-0.277-0.44-0.319l-0.005-0.001c-0.051-0.013-0.11-0.021-0.17-0.021-0.34 0-0.624 0.237-0.696 0.555l-0.001 0.005c-0.22 0.93-1.299 1.9-2.934 1.94-1.572 0.046-2.738-0.986-2.926-1.956-0.065-0.336-0.357-0.586-0.707-0.586-0.004 0-0.007 0-0.011 0h0.001z"/>
</svg>