<svg xmlns="http://www.w3.org/2000/svg" version="1.1" width="24" height="24" viewBox="0 0 24 24">
<path d="M16.365 0c-0.003-0-0.007-0-0.011-0-0.241 0-0.449 0.143-0.543 0.348l-0.002 0.004c-0.028 0.066-0.044 0.142-0.044 0.222 0 0.161 0.066 0.308 0.172 0.413l0 0 4.985 4.996c0.109 0.106 0.258 0.172 0.422 0.172 0.076 0 0.15-0.014 0.217-0.040l-0.004 0.001c0.211-0.089 0.357-0.292 0.363-0.529l0-0.001v-5.009c-0.015-0.316-0.27-0.567-0.585-0.577l-0.001-0zM2.661 0c-0.322 0.005-0.582 0.267-0.582 0.59 0 0 0 0 0 0v0 22.82c0 0 0 0 0 0 0 0.323 0.26 0.585 0.582 0.59h18.67c0.326 0 0.59-0.264 0.59-0.59v0-14.694c0-0.002 0-0.004 0-0.006 0-0.162-0.065-0.308-0.17-0.414l0 0-8.077-8.114c-0.106-0.11-0.255-0.179-0.42-0.181h-0zM3.251 1.184h9.754l7.733 7.77v13.863h-17.487z"/>
</svg>