<svg xmlns="http://www.w3.org/2000/svg" version="1.1" width="24" height="24" viewBox="0 0 24 24">
<path d="M21.333 4.319c-4.773-3.933-11.88-3.687-16.36 0.738-1.398 1.375-2.264 3.286-2.264 5.4s0.866 4.025 2.263 5.399l0.001 0.001c3.018 2.982 7.912 2.982 10.931 0 0.599-0.589 0.97-1.408 0.97-2.314s-0.371-1.725-0.97-2.314l-0-0c-0.603-0.593-1.43-0.958-2.343-0.958s-1.74 0.366-2.343 0.959l0-0c-0.201 0.197-0.476 0.319-0.78 0.319s-0.58-0.122-0.781-0.319l0 0c-0.2-0.196-0.323-0.47-0.323-0.771s0.124-0.575 0.323-0.771l0-0c1.004-0.987 2.383-1.597 3.904-1.597s2.9 0.61 3.905 1.598l-0.001-0.001c0.998 0.982 1.617 2.347 1.617 3.857s-0.619 2.875-1.616 3.856l-0.001 0.001c-3.881 3.834-10.174 3.834-14.055 0-1.797-1.767-2.911-4.225-2.911-6.942 0-2.71 1.108-5.162 2.895-6.927l0.001-0.001c2.2-2.18 5.242-3.53 8.604-3.53 3.75 0 7.105 1.68 9.333 4.319zM20.619 20.455c-2.202 2.191-5.239 3.545-8.592 3.545-0.010 0-0.019 0-0.029-0h0.001c-0.009 0-0.019 0-0.029 0-3.723 0-7.055-1.67-9.289-4.302l-0.014-0.018c4.772 3.933 11.88 3.687 16.36-0.738 1.398-1.375 2.264-3.286 2.264-5.4s-0.866-4.025-2.263-5.399l-0.001-0.001c-3.018-2.982-7.912-2.982-10.931 0-0.599 0.589-0.97 1.408-0.97 2.314s0.371 1.725 0.97 2.314l0 0c0.603 0.593 1.43 0.958 2.343 0.958s1.74-0.366 2.343-0.959l-0 0c0.201-0.197 0.476-0.319 0.78-0.319s0.58 0.122 0.781 0.319l-0-0c0.2 0.196 0.323 0.47 0.323 0.771s-0.124 0.575-0.323 0.771l-0 0c-1.004 0.987-2.383 1.597-3.904 1.597s-2.9-0.61-3.905-1.598l0.001 0.001c-0.998-0.982-1.617-2.347-1.617-3.857s0.619-2.875 1.616-3.856l0.001-0.001c3.881-3.834 10.174-3.834 14.055 0 1.797 1.767 2.911 4.225 2.911 6.942 0 2.703-1.102 5.148-2.88 6.912l-0.001 0.001z"/>
</svg>