<svg xmlns="http://www.w3.org/2000/svg" version="1.1" width="24" height="24" viewBox="0 0 24 24">
<path d="M23.598 15.368c-0.71-0.76-2.164-1.197-4.224-1.197-1.1 0-2.375 0.11-3.76 0.37-0.782-0.77-1.562-1.67-2.307-2.72-0.53-0.74-0.993-1.52-1.42-2.29 0.813-2.54 1.206-4.61 1.206-6.1 0-1.672-0.603-3.416-2.34-3.416-0.533 0-1.066 0.325-1.35 0.8-0.783 1.408-0.43 4.493 0.917 7.54-0.503 1.52-1.035 2.973-1.7 4.605-0.578 1.376-1.244 2.794-1.923 4.096-3.904 1.584-6.43 3.434-6.667 4.884-0.104 0.547 0.074 1.050 0.457 1.45 0.133 0.11 0.636 0.545 1.48 0.545 2.59 0 5.32-4.28 6.707-6.86 1.065-0.36 2.13-0.687 3.193-1.015 1.168-0.323 2.34-0.583 3.405-0.765 2.735 2.504 5.146 2.9 6.358 2.9 1.492 0 2.024-0.617 2.203-1.122 0.28-0.65 0.070-1.37-0.252-1.74zM22.213 16.422c-0.104 0.544-0.638 0.906-1.386 0.906-0.21 0-0.39-0.037-0.603-0.072-1.36-0.325-2.633-1.016-3.903-2.106 1.25-0.214 2.31-0.25 2.98-0.25 0.74 0 1.38 0.032 1.81 0.144 0.49 0.106 1.27 0.435 1.095 1.38zM14.69 14.715c-0.92 0.19-1.914 0.414-2.944 0.693-0.816 0.223-1.666 0.474-2.52 0.77 0.463-0.902 0.854-1.774 1.208-2.603 0.428-1.020 0.78-2.070 1.135-3.046 0.35 0.61 0.74 1.23 1.13 1.78 0.64 0.87 1.31 1.7 1.98 2.42zM10.040 1.23c0.145-0.29 0.43-0.436 0.678-0.436 0.745 0 0.887 0.868 0.887 1.56 0 1.168-0.354 2.942-0.96 4.967-1.062-2.82-1.135-5.18-0.605-6.091zM6.138 18.127c-1.81 3.043-3.548 4.933-4.613 4.933-0.21 0-0.387-0.075-0.53-0.183-0.214-0.216-0.32-0.472-0.248-0.76 0.213-1.090 2.236-2.613 5.391-3.99z"/>
</svg>