<svg xmlns="http://www.w3.org/2000/svg" version="1.1" width="24" height="24" viewBox="0 0 24 24">
<path d="M22.957 18.26c0 1.775-1.357 3.131-3.13 3.131h-10.437c-5.321 0-8.348-2.817-8.348-7.826v-7.825c0-1.774 1.357-3.13 3.131-3.13h3.13c0.522 0 1.148 0.104 1.566 0.417 0.417-0.313 1.043-0.417 1.565-0.417h3.13c0.522 0 1.148 0.104 1.565 0.417 0.418-0.313 1.044-0.417 1.566-0.417h3.13c1.774 0 3.13 1.356 3.13 3.13zM19.827 1.565h-3.131c-0.522 0-1.044 0.105-1.566 0.313-0.462-0.195-1-0.31-1.564-0.313h-3.131c-0.522 0-1.044 0.105-1.565 0.313-0.463-0.195-1.001-0.31-1.565-0.313h-3.131c-2.303 0.007-4.168 1.872-4.174 4.174v7.827c0 5.53 3.548 8.87 9.391 8.87h10.435c2.303-0.007 4.168-1.873 4.174-4.175v-12.522c-0.007-2.303-1.872-4.167-4.173-4.174h-0.001zM9.391 18.26h10.435v-12.52h-3.13v10.434h-3.13v-10.435h-3.131v10.435h-1.045c-1.043 0-2.087-0.835-2.087-2.609v-7.825h-3.13v7.826c0 3.13 1.46 4.696 5.217 4.696z"/>
</svg>