<svg xmlns="http://www.w3.org/2000/svg" version="1.1" width="24" height="24" viewBox="0 0 24 24">
<path d="M5.2 0c-0.552 0-1 0.43-1 0.958v10.542h15.6v-10.542c0-0.529-0.448-0.958-1-0.958zM8.4 2.3h2.4c0.331 0 0.6 0.257 0.6 0.575-0.007 0.319-0.268 0.575-0.588 0.575-0.004 0-0.009-0-0.013-0h-2.399c-0.004 0-0.008 0-0.012 0-0.32 0-0.581-0.256-0.588-0.574l-0-0.001c0-0.318 0.269-0.575 0.6-0.575zM1.064 12c-0.588 0-1.064 0.448-1.064 1v10c0 0.552 0.476 1 1.064 1h7.736c-0.552 0-1-0.448-1-1v0-8h-3c-0.332 0-0.6-0.269-0.6-0.6s0.269-0.6 0.6-0.6h3v-1.799zM23 12h-14.701v11c0 0.552 0.477 1 1.064 1h13.637c0.552 0 1-0.448 1-1v0-10c0-0.552-0.448-1-1-1v0zM13.2 22.2h-3.6v-1.2h3.6zM15.6 20.4h-6v-1.2h6zM15 15h-2.4c-0.332 0-0.6-0.269-0.6-0.6s0.269-0.6 0.6-0.6h2.4c0.314 0.023 0.56 0.283 0.56 0.6s-0.246 0.578-0.558 0.6l-0.002 0z"/>
</svg>