<svg xmlns="http://www.w3.org/2000/svg" version="1.1" width="24" height="24" viewBox="0 0 24 24">
<path d="M17.020 0c-0.005-0-0.010-0-0.015-0-0.254 0-0.497 0.045-0.722 0.128l0.015-0.005-13.674 4.88c-0.82 0.298-1.396 1.072-1.396 1.979 0 0.254 0.045 0.497 0.128 0.722l-0.005-0.015 5.324 14.916c0.299 0.82 1.072 1.394 1.979 1.394 0.253 0 0.496-0.045 0.721-0.127l-0.015 0.005 7.746-2.765c0.792-0.307 1.345-0.534 1.464-0.608 0.543-0.314 0.962-0.817 1.964-2.334 0.904-1.362 1.859-3.323 2.097-4.28 0.24-0.97 0.239-1.48-0.502-3.675h0.001l-3.147-8.82c-0.297-0.815-1.061-1.388-1.961-1.396h-0.001zM16.936 0.414c0.72-0.031 1.4 0.403 1.657 1.12l3.147 8.82 0.008-0.003c0.271 0.763 0.497 1.415 0.526 1.54 0.102 0.433-0.282 1.147-0.737 1.35-0.2 0.1-0.71 0.293-1.142 0.429-1.397 0.464-2.050 0.879-2.458 1.548-0.363 0.591-0.315 1.18 0.16 2.377 0.462 1.142 0.533 1.864 0.225 2.4-0.113 0.188-0.301 0.322-1.354 0.733l-0.002-0.005-7.746 2.765c-0.17 0.064-0.367 0.1-0.572 0.1-0.728 0-1.348-0.463-1.581-1.111l-0.004-0.012-5.323-14.916c-0.064-0.17-0.1-0.367-0.1-0.572 0-0.728 0.463-1.348 1.111-1.581l0.012-0.004 13.674-4.88c0.165-0.060 0.334-0.092 0.5-0.099zM15.9 2.25l-0.708 0.515-0.495 0.37 0.113 0.314 0.074 0.205 0.523-0.316 0.4 1.112 0.403 1.123-0.359 0.129-0.337 0.12c0.045 0.145 0.216 0.642 0.238 0.664l2.166-0.779-0.238-0.663-0.687 0.248-0.334-0.93zM12.61 3.432l-0.709 0.515-0.494 0.37 0.113 0.314 0.073 0.205 0.524-0.316 0.4 1.112 0.403 1.123-0.697 0.25c0.046 0.144 0.216 0.64 0.238 0.663l2.167-0.778-0.238-0.663-0.244 0.087-0.443 0.16-0.334-0.93zM9.084 4.786c-0.001 0-0.003 0-0.004 0-0.294 0-0.569 0.083-0.803 0.227l0.007-0.004c-0.732 0.448-0.85 1.383-0.332 2.558 0.337 0.776 0.873 1.218 1.462 1.215 1.345-0.007 1.86-1.399 1.085-2.95-0.307-0.66-0.837-1.036-1.415-1.046zM8.893 5.458c0.168-0.009 0.357 0.085 0.539 0.279 0.145 0.155 0.347 0.51 0.437 0.787 0.35 0.998 0.164 1.688-0.414 1.546-0.601-0.14-1.245-2.070-0.835-2.485 0.069-0.073 0.165-0.121 0.272-0.127l0.001-0zM5.128 6.208c-0.001 0-0.003 0-0.004 0-0.294 0-0.569 0.083-0.803 0.227l0.007-0.004c-0.732 0.448-0.85 1.382-0.332 2.557 0.337 0.777 0.873 1.218 1.462 1.215 1.344-0.007 1.86-1.398 1.085-2.95-0.307-0.66-0.838-1.036-1.415-1.045zM4.936 6.88c0.168-0.010 0.358 0.085 0.54 0.278 0.145 0.155 0.347 0.51 0.437 0.787 0.35 0.999 0.164 1.689-0.415 1.547-0.6-0.141-1.243-2.072-0.834-2.485 0.069-0.073 0.164-0.12 0.271-0.127l0.001-0zM18.298 7.535c-0.001 0-0.002 0-0.004 0-0.294 0-0.569 0.083-0.803 0.227l0.007-0.004c-0.732 0.448-0.85 1.382-0.332 2.558 0.337 0.776 0.873 1.218 1.462 1.215 1.345-0.007 1.86-1.399 1.085-2.95-0.307-0.66-0.837-1.036-1.415-1.046zM18.107 8.207c0.168-0.009 0.357 0.085 0.539 0.278 0.145 0.155 0.347 0.51 0.437 0.787 0.35 0.999 0.164 1.689-0.414 1.547-0.601-0.141-1.244-2.072-0.835-2.485 0.069-0.073 0.165-0.121 0.272-0.127l0.001-0zM14.341 8.957c-0.002 0-0.004 0-0.006 0-0.294 0-0.568 0.083-0.801 0.226l0.007-0.004c-0.73 0.448-0.848 1.383-0.331 2.558 0.337 0.776 0.873 1.218 1.462 1.215 1.344-0.007 1.86-1.398 1.085-2.95-0.307-0.66-0.838-1.036-1.416-1.045zM14.151 9.628c0.167-0.009 0.357 0.085 0.539 0.279 0.145 0.155 0.347 0.51 0.437 0.787 0.35 0.998 0.164 1.688-0.415 1.547-0.6-0.142-1.244-2.072-0.835-2.485 0.069-0.074 0.166-0.122 0.273-0.128l0.001-0zM10.405 10.371c-0.001 0-0.002 0-0.004 0-0.294 0-0.569 0.083-0.803 0.227l0.007-0.004c-0.732 0.448-0.85 1.382-0.332 2.557 0.337 0.777 0.873 1.219 1.462 1.216 1.345-0.007 1.86-1.399 1.085-2.951-0.307-0.66-0.838-1.036-1.415-1.045zM10.213 11.043c0.169-0.010 0.358 0.085 0.54 0.278 0.145 0.155 0.347 0.51 0.437 0.787 0.35 0.999 0.164 1.689-0.414 1.547-0.601-0.141-1.244-2.072-0.835-2.485 0.069-0.073 0.164-0.12 0.271-0.127l0.001-0zM6.698 11.659l-0.708 0.515-0.495 0.369 0.113 0.314 0.074 0.206 0.524-0.316 0.399 1.112 0.403 1.122-0.359 0.13-0.337 0.12c0.045 0.145 0.216 0.641 0.238 0.663l2.166-0.778-0.238-0.663-0.244 0.088-0.443 0.159-0.334-0.93zM22.362 12.989c0.034 0 0.049 0.047 0.064 0.135 0.023 0.11-0.064 0.545-0.195 0.957-0.469 1.436-2.052 4.224-3.079 5.397l-0.408 0.47 0.051-0.667c0.030-0.567-0.016-0.812-0.377-1.71-0.496-1.263-0.533-1.73-0.158-2.31 0.341-0.514 1.028-0.907 2.448-1.371 0.72-0.238 1.175-0.463 1.385-0.664 0.132-0.145 0.207-0.22 0.253-0.235 0.004-0.001 0.009-0.002 0.014-0.002 0.001 0 0.001 0 0.002 0h-0zM15.933 14.466l-0.708 0.515-0.495 0.37 0.113 0.314 0.074 0.205 0.523-0.316 0.4 1.112 0.403 1.123-0.359 0.129-0.337 0.12c0.045 0.145 0.216 0.642 0.238 0.664l2.166-0.779-0.238-0.662-0.244 0.087-0.443 0.16-0.334-0.93zM12.354 15.796c-0.001 0-0.003 0-0.004 0-0.294 0-0.569 0.083-0.803 0.227l0.007-0.004c-0.731 0.448-0.849 1.382-0.332 2.558 0.337 0.776 0.873 1.218 1.462 1.215 1.345-0.007 1.86-1.399 1.086-2.95-0.307-0.66-0.838-1.036-1.416-1.046zM12.163 16.468c0.168-0.009 0.358 0.085 0.54 0.279 0.144 0.154 0.346 0.51 0.437 0.787 0.35 0.998 0.164 1.688-0.415 1.546-0.6-0.141-1.244-2.072-0.835-2.485 0.069-0.073 0.165-0.121 0.272-0.127l0.001-0zM8.648 17.084l-0.71 0.515-0.494 0.37 0.113 0.313 0.074 0.206 0.524-0.316 0.4 1.112 0.403 1.122-0.36 0.13-0.337 0.12c0.045 0.145 0.216 0.642 0.238 0.664l2.166-0.779-0.238-0.663-0.687 0.248-0.334-0.93z"/>
</svg>