<svg xmlns="http://www.w3.org/2000/svg" version="1.1" width="24" height="24" viewBox="0 0 24 24">
<path d="M3.167 7.566v8.749h1.023v-6.325c0.002-0.070 0.003-0.153 0.003-0.236 0-0.34-0.019-0.675-0.056-1.005l0.004 0.041h0.038c0.081 0.21 0.175 0.39 0.285 0.558l-0.007-0.011 4.497 6.977h1.257v-8.749h-1.022v6.153c-0.001 0.059-0.002 0.129-0.002 0.199 0 0.383 0.023 0.761 0.068 1.132l-0.004-0.045h-0.023c-0.054-0.106-0.173-0.3-0.355-0.585l-4.377-6.853zM12.482 7.566v8.749h4.65l0.005-0.96h-3.609v-3.033h3.158v-0.921h-3.158v-2.908h3.388v-0.926zM17.92 7.566v0.926h2.515v7.823h1.022v-7.823h2.544v-0.926zM0.653 15.067c-0.181 0.005-0.342 0.083-0.456 0.206l-0 0c-0.122 0.122-0.197 0.29-0.197 0.475 0 0.002 0 0.003 0 0.005v-0c-0 0.003-0 0.006-0 0.009 0 0.184 0.075 0.351 0.197 0.471l0 0c0.118 0.124 0.285 0.202 0.47 0.202 0.004 0 0.007-0 0.011-0h-0.001c0.001 0 0.003 0 0.004 0 0.187 0 0.355-0.077 0.476-0.201l0-0c0.124-0.12 0.202-0.288 0.202-0.474 0-0.002 0-0.004-0-0.007v0c0-0.001 0-0.001 0-0.002 0-0.187-0.077-0.356-0.201-0.478l-0-0c-0.12-0.127-0.29-0.206-0.478-0.206-0.001 0-0.001 0-0.002 0h0c-0.003-0-0.006-0-0.009-0-0.005 0-0.010 0-0.015 0l0.001-0z"/>
</svg>