<svg xmlns="http://www.w3.org/2000/svg" version="1.1" width="24" height="24" viewBox="0 0 24 24">
<path d="M19.848 7.848c-0.992 0-1.902 0.348-2.616 0.928-0.714-0.58-1.624-0.928-2.616-0.928s-1.902 0.348-2.616 0.928c-0.714-0.58-1.624-0.928-2.616-0.928s-1.902 0.348-2.616 0.928c-0.714-0.58-1.624-0.928-2.616-0.928-2.293 0-4.152 1.859-4.152 4.152s1.859 4.152 4.152 4.152c0.992 0 1.902-0.348 2.616-0.928 0.714 0.58 1.624 0.928 2.616 0.928s1.902-0.348 2.616-0.928c0.714 0.58 1.624 0.928 2.616 0.928s1.902-0.348 2.616-0.928c0.714 0.58 1.624 0.928 2.616 0.928 2.293 0 4.152-1.859 4.152-4.152s-1.859-4.152-4.152-4.152zM17.232 13.866c-0.376-0.526-0.598-1.17-0.598-1.866s0.222-1.34 0.598-1.866c0.376 0.526 0.598 1.17 0.598 1.866s-0.222 1.34-0.598 1.866zM12 13.866c-0.376-0.526-0.598-1.17-0.598-1.866s0.222-1.34 0.598-1.866c0.376 0.526 0.598 1.17 0.598 1.866s-0.222 1.34-0.598 1.866zM6.768 13.866c-0.376-0.526-0.598-1.17-0.598-1.866s0.222-1.34 0.598-1.866c0.376 0.526 0.598 1.17 0.598 1.866s-0.222 1.34-0.598 1.866zM0.938 12c0-1.775 1.439-3.214 3.214-3.214 0.736 0 1.414 0.248 1.956 0.665-0.548 0.703-0.876 1.588-0.876 2.549s0.328 1.846 0.876 2.549c-0.542 0.416-1.22 0.665-1.956 0.665-1.775 0-3.214-1.439-3.214-3.214zM7.428 14.549c0.548-0.703 0.876-1.588 0.876-2.549s-0.328-1.846-0.876-2.549c0.542-0.416 1.22-0.665 1.956-0.665s1.414 0.248 1.956 0.665c-0.549 0.704-0.876 1.588-0.876 2.549s0.328 1.846 0.876 2.549c-0.542 0.416-1.22 0.665-1.956 0.665s-1.414-0.248-1.956-0.665zM12.66 14.549c0.549-0.704 0.876-1.588 0.876-2.549s-0.328-1.846-0.876-2.55c0.542-0.416 1.22-0.665 1.956-0.665s1.414 0.248 1.956 0.665c-0.549 0.704-0.876 1.588-0.876 2.549s0.328 1.846 0.876 2.549c-0.542 0.416-1.22 0.665-1.956 0.665-0.736 0.001-1.414-0.247-1.956-0.664zM19.848 15.214c-0.736 0-1.414-0.248-1.956-0.665 0.548-0.704 0.876-1.588 0.876-2.549s-0.328-1.846-0.876-2.549c0.542-0.416 1.22-0.665 1.956-0.665 1.775 0 3.214 1.439 3.214 3.214s-1.439 3.214-3.214 3.214z"/>
</svg>