<svg xmlns="http://www.w3.org/2000/svg" version="1.1" width="24" height="24" viewBox="0 0 24 24">
<path d="M0.602 1.077c-0.334 0.007-0.602 0.28-0.602 0.615 0 0 0 0 0 0v0 20.615c0 0.34 0.275 0.615 0.615 0.615v0h8.309c0.34 0 0.615-0.275 0.615-0.615v0-1.744l0.647 1.94c0.084 0.246 0.313 0.42 0.583 0.42 0 0 0.001 0 0.001 0h6.77c0.272-0 0.503-0.177 0.584-0.423l0.001-0.004 0.035-0.107c0.042 0.303 0.299 0.533 0.61 0.533 0 0 0 0 0.001 0h4.615c0.34 0 0.615-0.275 0.615-0.615v-14.152c0-0 0-0 0-0 0-0.28-0.187-0.516-0.443-0.591l-0.004-0.001-4.307-1.233c-0.051-0.015-0.109-0.024-0.169-0.024-0.261 0-0.484 0.162-0.573 0.392l-0.001 0.004-1.887 4.906v-5.549c0-0 0-0.001 0-0.002 0-0.278-0.185-0.514-0.439-0.589l-0.004-0.001-3.385-0.98c-0.052-0.016-0.111-0.025-0.172-0.025-0.339 0-0.615 0.275-0.615 0.615v6.15l-2.809-7.48c-0.069-0.183-0.218-0.322-0.404-0.376l-0.004-0.001-8-2.27c-0.050-0.015-0.108-0.023-0.167-0.023-0.005 0-0.010 0-0.015 0l0.001-0zM1.23 2.507l6.918 1.962 3.891 10.363c0.090 0.235 0.314 0.399 0.576 0.399 0.34 0 0.615-0.275 0.615-0.615 0-0 0-0 0-0.001v0-8.72l2.155 0.624v8.402c-0 0.001-0 0.003-0 0.005 0 0.34 0.275 0.615 0.615 0.615 0.261 0 0.484-0.163 0.574-0.393l0.001-0.004 2.874-7.475 3.32 0.948v13.074h-3.384v-1.23h1.23c0 0 0 0 0 0 0.34 0 0.615-0.275 0.615-0.615 0-0 0-0.001 0-0.001v0-7.076c0-0 0-0 0-0 0-0.34-0.275-0.615-0.615-0.615-0.272 0-0.502 0.176-0.584 0.421l-0.001 0.004-2.94 9.112h-5.877l-4.475-13.426c-0.083-0.247-0.313-0.422-0.584-0.422-0.34 0-0.615 0.275-0.615 0.615 0 0.001 0 0.002 0 0.002v-0 11.076c0 0.001 0 0.002 0 0.003 0 0.34 0.275 0.615 0.615 0.615 0 0 0 0 0 0h2.156v1.537h-7.080zM6.77 12.254l2.224 6.674c-0.020-0.003-0.045-0.005-0.069-0.006l-0.001-0h-2.154zM20 16.682v2.549h-0.822z"/>
</svg>