<svg xmlns="http://www.w3.org/2000/svg" version="1.1" width="24" height="24" viewBox="0 0 24 24">
<path d="M13.298 1.825c0 0.976-0.81 1.785-1.786 1.785-0.972 0-1.784-0.81-1.784-1.785 0-0.973 0.813-1.785 1.784-1.785 0.976 0 1.786 0.813 1.786 1.785zM11.512 5.068c-1.052 0-1.863 0.81-1.863 1.866 0 1.053 0.81 1.865 1.865 1.865 1.053 0 1.865-0.811 1.865-1.865s-0.825-1.866-1.875-1.866zM11.512 10.097c-1.052 0-1.945 0.891-1.945 1.945s0.894 1.945 1.947 1.945 1.946-0.891 1.946-1.945-0.894-1.945-1.946-1.945zM11.512 15.204c-1.052 0-1.863 0.81-1.863 1.864s0.81 1.866 1.865 1.866c1.053 0 1.865-0.811 1.865-1.866 0-0.972-0.825-1.864-1.875-1.864zM11.512 20.395c-0.972 0-1.784 0.809-1.784 1.784 0 0.97 0.813 1.781 1.784 1.781 0.977 0 1.786-0.809 1.786-1.784 0-0.973-0.81-1.781-1.786-1.781zM16.46 4.823c-1.136 0-2.108 0.977-2.108 2.111s0.973 2.107 2.108 2.107 2.106-0.975 2.106-2.107c0-1.135-0.972-2.109-2.106-2.109zM16.46 9.853c-1.216 0-2.19 0.973-2.19 2.19s0.975 2.187 2.19 2.187 2.189-0.971 2.189-2.189c0-1.216-0.974-2.188-2.189-2.188zM16.46 14.961c-1.136 0-2.108 0.976-2.108 2.107 0 1.135 0.973 2.109 2.108 2.109s2.106-0.976 2.106-2.109-0.971-2.107-2.106-2.107zM21.566 9.608c-1.296 0-2.43 1.055-2.43 2.434 0 1.297 1.051 2.433 2.43 2.433 1.381 0 2.434-1.065 2.434-2.444-0.082-1.382-1.135-2.431-2.434-2.431zM6.486 5.312c-0.892 0-1.62 0.73-1.62 1.623 0 0.891 0.729 1.62 1.62 1.62 0.893 0 1.619-0.729 1.619-1.62 0-0.893-0.727-1.62-1.619-1.62zM6.486 10.339c-0.973 0-1.703 0.729-1.703 1.703 0 0.975 0.721 1.703 1.695 1.703s1.695-0.73 1.695-1.703c0-0.975-0.735-1.703-1.71-1.703zM6.486 15.446c-0.892 0-1.62 0.731-1.62 1.62 0 0.895 0.729 1.623 1.62 1.623 0.893 0 1.619-0.735 1.619-1.635s-0.727-1.62-1.619-1.62zM1.461 10.583c-0.813 0-1.461 0.646-1.461 1.459 0 0.81 0.648 1.459 1.46 1.459 0.81 0 1.459-0.648 1.459-1.459s-0.648-1.459-1.458-1.459z"/>
</svg>