<svg xmlns="http://www.w3.org/2000/svg" version="1.1" width="24" height="24" viewBox="0 0 24 24">
<path d="M21.7 5.307l-8.753-5.054c-0.271-0.159-0.597-0.253-0.945-0.253s-0.674 0.094-0.954 0.258l0.009-0.005-8.756 5.053c-0.569 0.333-0.945 0.942-0.945 1.638 0 0 0 0 0 0v0 10.109c0 0.675 0.36 1.3 0.945 1.637l8.756 5.056c0.271 0.159 0.597 0.253 0.945 0.253s0.674-0.094 0.954-0.258l-0.009 0.005 8.756-5.055c0.585-0.338 0.945-0.962 0.945-1.638v-10.108c0-0.675-0.36-1.3-0.947-1.638zM14.25 13.059l-3.804 3.804-1.351-1.351 3.804-3.805-3.804-3.805 1.351-1.35 5.155 5.155z"/>
</svg>