<svg xmlns="http://www.w3.org/2000/svg" version="1.1" width="24" height="24" viewBox="0 0 24 24">
<path d="M19.491 21.899c2.106 0 3.531-1.424 3.531-3.531v-14.837c0-2.106-1.424-3.531-3.531-3.531h-14.982c-2.106 0-3.531 1.424-3.531 3.531v20.469l1.809-2.101v-18.368c0.001-0.949 0.77-1.718 1.719-1.719h14.982c0.949 0.002 1.718 0.77 1.719 1.719v14.837c-0.001 0.949-0.77 1.718-1.719 1.719h-12.568l-1.81 1.812-0.011-0.014zM8.787 11.466h-1.697v5.698h1.697c3.793 0 3.793-5.698 0-5.698zM8.787 16.025h-0.551v-3.419h0.551c2.215 0 2.215 3.418 0 3.419zM8.456 10.389h1.139v-4.559h1.418v-1.131h-3.976v1.131h1.419zM14.063 7.201l-1.971-2.502h-0.366v5.785h1.156v-3.18l1.182 1.531 1.183-1.531-0.008 3.18h1.156v-5.785h-0.36zM15.983 14.315c0.358-0.247 0.51-0.689 0.526-1.124 0.023-1.004-0.606-1.729-1.617-1.729h-2.255v5.706h2.255c0.93-0.008 1.68-0.763 1.681-1.694v-0.028c0-0.466-0.231-0.878-0.585-1.127zM13.779 12.601h1.013c0.327 0 0.526 0.255 0.526 0.573 0.001 0.012 0.002 0.027 0.002 0.041 0 0.292-0.236 0.53-0.527 0.533h-1.013zM14.792 16.028h-1.013v-1.139h1.027c0.309 0 0.559 0.25 0.559 0.559v0.014c0 0.313-0.253 0.566-0.566 0.566v0z"/>
</svg>