<svg xmlns="http://www.w3.org/2000/svg" version="1.1" width="24" height="24" viewBox="0 0 24 24">
<path d="M12.096 0.1l-0.001 0.001c-0.003 0-0.006 0-0.010 0-6.377 0-11.547 5.17-11.547 11.547 0 0.004 0 0.007 0 0.011v-0.001c0 2.069 0.548 4.005 1.496 5.683l2.869-2.867c-0.34-0.834-0.538-1.802-0.54-2.815v-0.001c0-4.261 3.47-7.73 7.732-7.73 4.261 0 7.732 3.469 7.732 7.73 0 4.262-3.47 7.732-7.732 7.732-0.933-0.002-1.827-0.17-2.653-0.476l0.053 0.017-2.898 2.899c1.584 0.874 3.472 1.388 5.481 1.388 0.006 0 0.013 0 0.019-0h-0.001c2.316 0 4.468-0.686 6.275-1.856l2.393 2.392 3.236-3.242-2.349-2.349c1.252-1.815 2-4.062 2-6.484 0-0.007 0-0.015-0-0.022v0.001c0-6.29-5.007-11.398-11.258-11.558-0.080-0.003-0.18 0-0.297 0zM12.095 9.44c-1.226 0-2.215 0.991-2.215 2.217s0.99 2.216 2.215 2.216c1.224 0 2.217-0.992 2.217-2.217s-0.992-2.217-2.217-2.217v0zM7.854 12.808l-7.854 7.854 3.239 3.24 7.855-7.856z"/>
</svg>