<svg xmlns="http://www.w3.org/2000/svg" version="1.1" width="24" height="24" viewBox="0 0 24 24">
<path d="M0.086 13.761v-0.722c0.41 0.13 0.775 0.195 1.090 0.195 0.437 0 0.654-0.115 0.654-0.347 0-0.002 0-0.004 0-0.006 0-0.084-0.037-0.159-0.096-0.21l-0-0c-0.063-0.063-0.23-0.148-0.499-0.258-0.479-0.198-0.794-0.365-0.939-0.507-0.175-0.17-0.283-0.407-0.283-0.67 0-0.009 0-0.018 0-0.026l-0 0.001c0-0.36 0.139-0.637 0.414-0.825 0.27-0.188 0.626-0.28 1.062-0.28 0.24 0 0.589 0.043 1.045 0.133v0.692c-0.278-0.121-0.602-0.194-0.942-0.202l-0.003-0c-0.41 0-0.613 0.112-0.613 0.339 0 0.084 0.040 0.15 0.124 0.205 0.067 0.042 0.257 0.134 0.565 0.273 0.446 0.197 0.742 0.368 0.891 0.516 0.163 0.164 0.265 0.39 0.265 0.639 0 0.012-0 0.024-0.001 0.036l0-0.002c0 0.010 0.001 0.021 0.001 0.033 0 0.374-0.207 0.7-0.512 0.869l-0.005 0.003c-0.278 0.17-0.64 0.256-1.083 0.256-0.402-0-0.793-0.049-1.167-0.141l0.033 0.007zM3.396 10.169h1.018v3.65h-1.019zM5.349 13.819v-3.65h2.616v0.66h-1.633v0.826h1.422v0.602h-1.422v0.866h1.675v0.697zM8.674 13.819v-3.65h1.322l0.917 2.333 0.943-2.333h1.257v3.65h-0.969v-2.584l-1.070 2.622h-0.631l-1.050-2.622v2.585zM14.047 13.819v-3.65h2.615v0.66h-1.632v0.826h1.421v0.602h-1.421v0.866h1.676v0.697zM17.377 13.819v-3.65h1.18l1.255 2.445v-2.444h0.72v3.65h-1.152l-1.285-2.475v2.476zM21.255 13.761v-0.722c0.406 0.13 0.77 0.195 1.090 0.195 0.436 0 0.653-0.115 0.653-0.347 0-0.001 0-0.002 0-0.004 0-0.083-0.035-0.159-0.091-0.212l-0-0c-0.066-0.063-0.234-0.148-0.503-0.258-0.48-0.196-0.794-0.364-0.94-0.507-0.175-0.17-0.284-0.408-0.284-0.672 0-0.009 0-0.018 0-0.027l-0 0.001c0-0.359 0.138-0.634 0.413-0.822 0.272-0.188 0.626-0.28 1.061-0.28 0.249 0 0.566 0.038 0.956 0.116l0.090 0.017v0.692c-0.278-0.121-0.602-0.194-0.942-0.202l-0.003-0c-0.409 0-0.613 0.112-0.613 0.339 0 0.084 0.040 0.15 0.124 0.204 0.066 0.042 0.254 0.133 0.57 0.274 0.443 0.196 0.738 0.368 0.887 0.516 0.163 0.163 0.264 0.389 0.264 0.638 0 0.012-0 0.025-0.001 0.037l0-0.002c0 0.396-0.17 0.698-0.51 0.904-0.283 0.17-0.644 0.256-1.089 0.256-0.381 0-0.76-0.046-1.132-0.134z"/>
</svg>