<svg xmlns="http://www.w3.org/2000/svg" version="1.1" width="24" height="24" viewBox="0 0 24 24">
<path d="M7.207 0c-0.484 0-0.877 0.102-1.182 0.3-0.304 0.2-0.459 0.463-0.459 0.78v21.809c0 0.277 0.158 0.528 0.475 0.761 0.315 0.234 0.703 0.35 1.166 0.35 0.443 0 0.831-0.117 1.168-0.35 0.335-0.231 0.506-0.484 0.506-0.761v-21.807c0-0.319-0.162-0.577-0.489-0.781-0.327-0.198-0.721-0.3-1.184-0.3zM16.73 8.662c-0.484 0-0.872 0.098-1.168 0.301l-4.439 2.782c-0.199 0.186-0.284 0.469-0.247 0.855 0.034 0.383 0.211 0.747 0.524 1.091 0.315 0.346 0.666 0.563 1.068 0.655 0.396 0.090 0.697 0.041 0.896-0.143l1.755-1.095v9.782c0 0.277 0.152 0.528 0.461 0.761 0.301 0.234 0.687 0.35 1.15 0.35s0.863-0.117 1.198-0.35c0.337-0.233 0.506-0.484 0.506-0.761v-13.151c0-0.319-0.165-0.577-0.49-0.775-0.325-0.203-0.729-0.301-1.214-0.301z"/>
</svg>