<svg xmlns="http://www.w3.org/2000/svg" version="1.1" width="24" height="24" viewBox="0 0 24 24">
<path d="M11.652 0c-0.006-0-0.013-0-0.021-0-0.117 0-0.227 0.027-0.326 0.074l0.004-0.002-4.878 2.23c-0.261 0.121-0.439 0.381-0.439 0.683 0 0.415 0.336 0.751 0.751 0.751 0.113 0 0.22-0.025 0.317-0.070l-0.005 0.002 4.878-2.23c0.268-0.118 0.452-0.382 0.452-0.688 0-0.409-0.327-0.741-0.733-0.75l-0.001-0zM17.276 0.354c-0.005-0-0.010-0-0.016-0-0.118 0-0.23 0.027-0.33 0.076l0.004-0.002-10.507 4.878c-0.259 0.122-0.435 0.381-0.435 0.681 0 0.415 0.336 0.751 0.751 0.751 0.115 0 0.223-0.026 0.321-0.072l-0.005 0.002 10.506-4.878c0.266-0.119 0.447-0.382 0.447-0.686 0-0.41-0.328-0.743-0.736-0.75h-0.001zM17.276 3.356c-0.005-0-0.010-0-0.016-0-0.118 0-0.23 0.027-0.33 0.076l0.004-0.002-10.507 4.878c-0.259 0.122-0.435 0.381-0.435 0.681 0 0.415 0.336 0.751 0.751 0.751 0.115 0 0.223-0.026 0.321-0.072l-0.005 0.002 10.506-4.88c0.263-0.12 0.443-0.381 0.443-0.684 0-0.408-0.326-0.74-0.732-0.75l-0.001-0zM17.276 6.358c-0.005-0-0.010-0-0.016-0-0.118 0-0.23 0.027-0.33 0.076l0.004-0.002-10.507 4.878c-0.259 0.122-0.434 0.381-0.434 0.681 0 0.414 0.336 0.75 0.75 0.75 0.115 0 0.223-0.026 0.321-0.072l-0.005 0.002 10.506-4.878c0.264-0.12 0.445-0.381 0.445-0.685 0-0.409-0.327-0.741-0.734-0.75l-0.001-0zM17.285 9.36c-0.007-0-0.016-0-0.025-0-0.115 0-0.224 0.026-0.322 0.072l0.005-0.002-3.753 1.688c-0.263 0.12-0.442 0.381-0.442 0.684 0 0 0 0.001 0 0.001v-0 3.518c-0 0.002-0 0.005-0 0.008 0 0.014 0 0.028 0.001 0.041l-0-0.002h-1.503c0-0.007 0-0.015 0-0.024s-0-0.016-0-0.025l0 0.001v-2.58c0-0.003 0-0.007 0-0.011 0-0.414-0.336-0.75-0.75-0.75-0.004 0-0.008 0-0.012 0h0.001c-0.41 0.006-0.74 0.339-0.74 0.75 0 0.004 0 0.008 0 0.012v-0.001 2.58c0 0.017 0.001 0.033 0.002 0.050l-0-0.003h-0.94c-0.006-0-0.012-0-0.019-0-0.255 0-0.461 0.206-0.461 0.461 0 0.033 0.004 0.066 0.010 0.097l-0.001-0.003 0.19 1.14c0.062 0.313 0.331 0.547 0.655 0.556l0.001 0h2.28l-2.537 0.476c-0.176 0.033-0.307 0.186-0.307 0.369 0 0.207 0.168 0.375 0.375 0.375 0.025 0 0.050-0.002 0.073-0.007l-0.002 0 6.003-1.126c0.177-0.032 0.309-0.185 0.309-0.369 0-0.014-0.001-0.029-0.002-0.043l0 0.002c0.044-0.066 0.076-0.144 0.091-0.228l0.001-0.004 0.19-1.141c0.006-0.028 0.010-0.061 0.010-0.094 0-0.255-0.206-0.461-0.461-0.461-0.007 0-0.013 0-0.020 0l0.001-0h-0.94c0.001-0.014 0.002-0.030 0.002-0.047v-3.033l3.31-1.49c0.268-0.118 0.452-0.382 0.452-0.688 0-0.406-0.322-0.736-0.725-0.75l-0.001-0zM14.993 18.744c-0.023 0.001-0.044 0.003-0.065 0.007l0.002-0-6.004 1.126c-0.176 0.033-0.307 0.186-0.307 0.369 0 0.207 0.168 0.375 0.375 0.375 0.025 0 0.050-0.002 0.073-0.007l-0.002 0 6.003-1.125c0.18-0.029 0.316-0.184 0.316-0.37 0-0.207-0.168-0.375-0.375-0.375-0.006 0-0.011 0-0.017 0l0.001-0zM14.993 20.62c-0.023 0.001-0.045 0.004-0.065 0.008l0.002-0-6.004 1.125c-0.176 0.033-0.307 0.186-0.307 0.369 0 0.207 0.168 0.375 0.375 0.375 0.025 0 0.050-0.002 0.073-0.007l-0.002 0 6.003-1.125c0.18-0.029 0.316-0.184 0.316-0.37 0-0.207-0.168-0.375-0.375-0.375-0.006 0-0.011 0-0.017 0l0.001-0zM14.25 22.496c-0.023 0-0.045 0.002-0.066 0.006l0.002-0-4.471 0.751c-0.179 0.031-0.313 0.185-0.313 0.37 0 0.207 0.168 0.375 0.375 0.375 0.022 0 0.043-0.002 0.064-0.005l-0.002 0 4.472-0.75c0.187-0.023 0.331-0.181 0.331-0.372 0-0.207-0.168-0.375-0.375-0.375-0.006 0-0.012 0-0.017 0l0.001-0z"/>
</svg>