<svg xmlns="http://www.w3.org/2000/svg" version="1.1" width="24" height="24" viewBox="0 0 24 24">
<path d="M0 0.3v23.4h24v-23.4zM1 1.3h22v21.4h-22zM3.125 5.81c0-0.084 0.017-0.117 0.116-0.133 0.38-0.017 1.47-0.050 2.597-0.050 3.35 0 5.016 2.162 5.016 5.33 0 4.405-2.89 5.74-5.115 5.74-0.842 0-2.064-0.016-2.51-0.032-0.065 0-0.098-0.050-0.098-0.132zM4.925 15.080c0.28 0.018 0.528 0.034 0.842 0.034 1.848 0 3.217-1.304 3.234-4.108 0.020-2.74-1.4-3.795-3.163-3.795-0.347 0-0.627 0.020-0.907 0.038zM17.613 16.65c-0.116 0-0.148-0.045-0.165-0.143-0.495-2.755-0.907-4.703-1.090-6.056h-0.016c-0.214 1.226-0.61 3.257-1.27 6.078-0.033 0.1-0.066 0.127-0.148 0.127h-1.617c-0.116 0-0.148-0.016-0.18-0.115l-1.767-7.881c-0.016-0.067 0.018-0.133 0.117-0.133h1.617c0.066 0 0.116 0.023 0.132 0.090 0.627 3.546 0.89 5.384 0.99 6.11h0.066c0.116-0.858 0.462-2.646 1.204-6.078 0.033-0.1 0.033-0.124 0.132-0.124h1.7c0.082 0 0.098 0.040 0.115 0.123 0.578 3.25 0.957 5.3 1.056 6.126h0.050c0.16-1.056 0.38-2.48 1.084-6.144 0.017-0.066 0.033-0.106 0.116-0.106h1.52c0.066 0 0.116 0.033 0.083 0.116l-1.963 7.894c-0.015 0.083-0.030 0.116-0.146 0.116z"/>
</svg>