<svg xmlns="http://www.w3.org/2000/svg" version="1.1" width="24" height="24" viewBox="0 0 24 24">
<path d="M2.672 23.969c-0.352-0.089-0.534-0.234-1.471-1.168-1.116-1.113-1.187-1.222-1.183-1.802 0-0.645-0.196-0.414 3.368-3.986 3.6-3.608 3.415-3.451 4.064-3.449 0.302 0 0.378 0.016 0.62 0.14l0.277 0.14 1.744-1.744-0.218-0.343c-0.425-0.662-0.825-1.629-1.006-2.429-0.118-0.503-0.185-1.081-0.185-1.674 0-1.809 0.627-3.471 1.676-4.781l-0.012 0.015c2.49-3.12 6.959-3.812 10.26-1.588 1.812 1.218 2.99 3.099 3.328 5.314 0.070 0.467 0.070 1.579 0 2.074-0.238 1.739-1.036 3.258-2.204 4.401l-0.001 0.001c-0.547 0.567-1.19 1.037-1.903 1.384l-0.040 0.017c-0.959 0.483-1.775 0.71-2.881 0.803-1.573 0.131-3.32-0.305-4.656-1.163l-0.343-0.218-1.744 1.744 0.14 0.28c0.125 0.241 0.14 0.316 0.14 0.617 0.003 0.651 0.156 0.467-3.426 4.049-2.761 2.756-3.186 3.164-3.398 3.261-0.271 0.125-0.69 0.171-0.946 0.105zM17.485 13.95c2.040-0.39 3.71-1.7 4.586-3.472l0.017-0.038c1.391-2.899 0.455-6.306-2.227-8.108-0.638-0.43-1.529-0.794-2.367-0.962-0.581-0.117-1.809-0.104-2.414 0.025-0.933 0.198-1.756 0.568-2.472 1.078l0.020-0.014c-0.444 0.315-1.177 1.048-1.487 1.487-0.745 1.031-1.191 2.32-1.191 3.713 0 1.609 0.595 3.079 1.577 4.201l-0.006-0.007c0.98 1.123 2.334 1.899 3.865 2.132l0.035 0.004c0.509 0.078 1.542 0.058 2.063-0.039zM13.747 21.326c-1.309-0.354-2.041-0.576-2.769-0.809l0.573 0.158c-0.025-0.028 1.207-4.396 1.257-4.449 0.023-0.026 4.242 1.152 4.414 1.236 0.062 0.026-0.003 0.288-0.525 2.102 0.492-2.073 0.275-1.326 0.059-0.578l-0.694 2.814c-0.025 0.087-0.069 0.156-0.097 0.156-0.028-0.003-1.028-0.287-2.218-0.63zM16.659 21.85c0-0.053 1.227-4.333 1.246-4.347 0.047-0.034 4.324-1.23 4.341-1.211 0.019 0.019-1.199 4.337-1.23 4.36-0.020 0.019-4.126 1.191-4.259 1.218-0.054 0.011-0.098 0-0.098-0.020zM9.554 19.939c0.846-0.852 1.599-1.627 1.674-1.728 0.171-0.218 0.405-0.732 0.472-1.015 0.026-0.118 0.053-0.352 0.058-0.522l0.011-0.307 0.182-0.051c0.103-0.028 0.193-0.044 0.202-0.034 0.023 0.025-1.207 4.321-1.246 4.36-0.020 0.016-0.677 0.213-1.464 0.436l-1.425 0.405zM17.843 16.879c-0.021-0.051-0.041-0.113-0.057-0.178l-0.002-0.009-0.044-0.156 0.156-0.028c1.339-0.227 2.776-0.856 3.908-1.713 0.16-0.125 0.252-0.171 0.265-0.134 0.054 0.165 0.272 0.95 0.265 0.959-0.034 0.034-4.48 1.282-4.491 1.259zM2.76 15.579c-0.050-0.039-1.179-3.866-1.264-4.29-0.016-0.084 0.146-0.044 2.174 0.536 2.121 0.604 2.192 0.629 2.222 0.74 0.028 0.098 0.011 0.129-0.125 0.223-0.084 0.059-0.769 0.724-1.523 1.479-0.453 0.459-0.906 0.905-1.365 1.344l-0.025 0.023c-0.016 0-0.056-0.025-0.094-0.055zM3.581 11.201c-1.188-0.343-2.164-0.623-2.167-0.626-0.016-0.012 1.261-4.433 1.285-4.46 0.022-0.022 4.422 1.211 4.469 1.252 0.009 0.009-0.269 1.017-0.618 2.239-0.576 2.020-0.643 2.224-0.723 2.22-0.050-0.003-1.059-0.285-2.246-0.625zM6.54 11.739c0.012-0.031 0.212-0.723 0.444-1.534l0.42-1.476 0.056 0.321c0.093 0.556 0.265 1.188 0.464 1.741 0.106 0.296 0.187 0.539 0.181 0.545-0.008 0.006-0.332 0.101-0.719 0.212-0.389 0.109-0.741 0.21-0.786 0.224-0.058 0.016-0.075 0.006-0.060-0.033zM4.905 6.112c-1.187-0.339-2.167-0.635-2.18-0.654-0.040-0.062-1.246-4.321-1.23-4.338 0.026-0.025 4.31 1.204 4.351 1.246 0.047 0.051 1.28 4.379 1.246 4.376zM7.053 4.399l-0.519-1.806-0.078-0.28 1.693-0.483c0.934-0.265 1.724-0.495 1.76-0.508 0.034-0.016-0.083 0.14-0.26 0.336-0.896 0.984-1.573 2.183-1.944 3.511l-0.015 0.061c-0.049 0.153-0.095 0.342-0.128 0.535l-0.004 0.026c0 0.293-0.115-0.025-0.505-1.392z"/>
</svg>