<svg xmlns="http://www.w3.org/2000/svg" version="1.1" width="24" height="24" viewBox="0 0 24 24">
<path d="M2.471 10.533l1.771 1.688 5.598 5.141 2.4-2.291c0.21-0.297 0.194-0.705-0.046-0.985l-2.204-1.902 0.010-0.005-2.371-2.266c-0.279-0.314-0.27-0.78 0.021-1.079l6.39-6.076-2.894-2.758-8.671 8.238c-0.664 0.633-0.664 1.66 0 2.295zM21.527 13.47l-1.77-1.691-5.595-5.142-2.411 2.291c-0.221 0.3-0.207 0.705 0.045 0.985l2.205 1.891h-0.006l2.369 2.265c0.27 0.314 0.27 0.766-0.029 1.064l-6.391 6.075 2.911 2.792 8.67-8.238c0.664-0.633 0.666-1.659 0-2.295z"/>
</svg>