<svg xmlns="http://www.w3.org/2000/svg" version="1.1" width="24" height="24" viewBox="0 0 24 24">
<path d="M16.801 22.74l0.989 1.26c1.561-0.676 2.926-1.62 4.051-2.851l-0.946-1.318c-1.11 1.289-2.475 2.279-4.080 2.909zM12 22.199c-5.775 0-10.455-4.619-10.455-10.35 0-5.699 4.68-10.319 10.455-10.319s10.456 4.65 10.456 10.35c0 2.55-0.946 4.891-2.507 6.69l0.945 1.261c1.907-2.102 3.106-4.892 3.106-7.951 0-6.585-5.37-11.88-12-11.88s-12 5.311-12 11.85c0 6.57 5.37 11.88 12 11.88 1.71 0 3.33-0.346 4.801-0.99l-0.961-1.26c-1.2 0.45-2.49 0.719-3.84 0.719zM18 12.646c-2.25-1.86-5.34-2.101-7.801-3.556-0.75-0.479-0.148-1.395 0.602-1.425 2.699-0.45 5.369 0.63 7.889 1.5l0.151-2.655c-3.151-1.14-6.57-1.875-9.901-1.35-1.2 0.3-2.4 0.675-3.254 1.56-1.171 1.2-0.961 3.36 0.389 4.32 2.236 1.755 5.176 2.011 7.621 3.36 0.96 0.39 0.555 1.68-0.391 1.77-2.925 0.555-5.805-0.721-8.325-2.1-0.030 1.020-0.060 2.010-0.060 3 3.195 1.409 6.75 2.069 10.2 1.529 1.17-0.225 2.37-0.6 3.225-1.454 1.229-1.2 1.111-3.511-0.33-4.5z"/>
</svg>