<svg xmlns="http://www.w3.org/2000/svg" version="1.1" width="24" height="24" viewBox="0 0 24 24">
<path d="M6.905 17.353c-0.003 0-0.007 0-0.010 0-1.421 0-2.728-0.49-3.761-1.311l0.012 0.010c1.204-2.715 3.654-6.358 6.997-9.916 1.718 1.092 2.841 2.985 2.841 5.14 0 0.94-0.214 1.83-0.595 2.624l0.016-0.036c-1.060-0.49-2.050-1.105-2.888-1.88l1.831 3.438c-1.109 1.189-2.685 1.931-4.435 1.931-0.003 0-0.006 0-0.009 0h0zM0.83 11.278c0-0.001 0-0.001 0-0.002 0-3.355 2.72-6.075 6.075-6.075 0 0 0.001 0 0.001 0h-0c0.9 0 1.752 0.196 2.522 0.546-3.293 2.91-5.843 6.293-7.352 9.217-0.777-1.008-1.246-2.288-1.246-3.678 0-0.003 0-0.006 0-0.009v0zM13.17 14.19c0.405-0.849 0.642-1.846 0.642-2.898 0-0.005 0-0.010-0-0.015v0.001c0-2.4-1.225-4.515-3.085-5.753 1.125-1.157 2.293-2.249 3.511-3.283l0.072-0.059c-1.59 0.947-2.963 1.929-4.246 3.013l0.046-0.038c-0.928-0.495-2.030-0.786-3.199-0.786-3.815 0-6.907 3.092-6.907 6.907 0 1.725 0.632 3.302 1.678 4.512l-0.007-0.009c-1.324 2.863-1.554 5.161-0.388 5.937 1.248 0.832 3.962-0.677 5.59-3.134 0 0-2.518 2.273-3.902 1.751-0.851-0.322-0.854-1.624-0.152-3.492 1.125 0.836 2.541 1.338 4.074 1.338 0.004 0 0.007 0 0.011 0h-0.001c1.893 0 3.606-0.76 4.853-1.992l0.245 0.462c3.009-0.245 11.996-0.483 11.996-0.483 0-0.431-5.95-0.040-10.832-1.98z"/>
</svg>