<svg xmlns="http://www.w3.org/2000/svg" version="1.1" width="24" height="24" viewBox="0 0 24 24">
<path d="M19.724 20.272l0.023-0.045c0.019-0.033 0.037-0.072 0.051-0.112l0.002-0.005 0.002-0.005c0.046-0.12 0.072-0.258 0.072-0.403 0-0.072-0.007-0.143-0.019-0.211l0.001 0.007 0.001 0.007c-0.042-0.235-0.124-0.444-0.239-0.631l0.004 0.008 0.005 0.008-5.317-9.353-0.812-1.42-6.121 10.773c-0.097 0.175-0.168 0.378-0.203 0.594l-0.001 0.011-0.001 0.011c-0.013 0.067-0.020 0.144-0.020 0.222 0 0.177 0.037 0.346 0.103 0.499l-0.003-0.008-0.003-0.008c0.016 0.040 0.033 0.074 0.052 0.106l-0.002-0.004-0.002-0.004c0.16 0.275 0.5 0.602 1.25 0.602h9.898c0.157 0 0.925-0.032 1.279-0.638zM13.497 10.956l4.859 8.548h-9.716zM23.746 18.89l-7.016-12.36c-0.072-0.13-0.477-0.787-1.182-0.787-0.317 0-0.772 0.135-1.142 0.785l-0.907 1.59 0.807 1.42 1.25-2.212 6.941 12.18h-2.64c0.010 0.059 0.016 0.126 0.016 0.195 0 0.148-0.027 0.29-0.077 0.421l0.003-0.008 0.003-0.008c-0.017 0.049-0.036 0.090-0.059 0.13l0.002-0.004 0.002-0.004-0.023 0.045c-0.355 0.605-1.122 0.637-1.272 0.637h4.129c0.152 0 0.917-0.032 1.272-0.637 0.157-0.275 0.27-0.737-0.107-1.383zM7.304 20.307c-0.014-0.024-0.029-0.055-0.043-0.086l-0.002-0.006-0.002-0.006c-0.065-0.145-0.104-0.315-0.104-0.494 0-0.077 0.007-0.153 0.021-0.226l-0.001 0.008-0.001 0.007h-5.671l8.429-14.832 2.767 4.864 0.802-1.42-2.412-4.249c-0.067-0.122-0.475-0.777-1.177-0.777-0.317 0-0.772 0.137-1.142 0.787l-8.538 15.012c-0.072 0.13-0.425 0.812-0.075 1.417 0.16 0.275 0.5 0.602 1.25 0.602h7.151c-0.745 0-1.090-0.322-1.252-0.601z"/>
</svg>