<svg xmlns="http://www.w3.org/2000/svg" version="1.1" width="24" height="24" viewBox="0 0 24 24">
<path d="M12 0c-5.771 0-10.424 4.486-10.424 10.474 0 6.004 4.653 10.474 10.424 10.474 0.984 0 1.935-0.133 2.835-0.384l1.134 2.919c0.117 0.317 0.35 0.517 0.767 0.517h1.801c0.434 0 0.75-0.284 0.55-0.834l-1.468-3.819c2.885-1.818 4.803-5.037 4.803-8.889 0-5.971-4.653-10.457-10.424-10.457zM16.536 16.562l-1.318-3.419c-0.117-0.284-0.35-0.55-0.851-0.55h-1.718c-0.434 0-0.767 0.284-0.567 0.834l1.734 4.486c-0.567 0.15-1.184 0.217-1.818 0.217-4.22 0-7.222-3.319-7.222-7.655s3.002-7.655 7.222-7.655 7.222 3.319 7.222 7.655c0 2.535-1.017 4.703-2.685 6.088z"/>
</svg>