<svg xmlns="http://www.w3.org/2000/svg" version="1.1" width="24" height="24" viewBox="0 0 24 24">
<path d="M18.080 16.539c-0.356 0.105-0.64 0.144-1.012 0.144-3.048 0-7.524-10.652-7.524-14.197 0-1.305 0.31-1.74 0.745-2.114-3.729 0.436-8.207 1.805-9.638 3.545-0.31 0.436-0.497 1.12-0.497 1.99 0 5.535 5.906 18.093 10.074 18.093 1.928 0 5.178-3.168 7.852-7.46zM16.134 0c3.855 0 7.713 0.622 7.713 2.798 0 4.415-2.8 9.765-4.23 9.765-2.549 0-5.72-7.090-5.72-10.635 0-1.618 0.621-1.928 2.237-1.928z"/>
</svg>