<svg xmlns="http://www.w3.org/2000/svg" version="1.1" width="24" height="24" viewBox="0 0 24 24">
<path d="M12.007 0.48c-6.616 0.005-12.002 5.351-12.007 11.919v0.030l2.042 1.191 0.028-0.019c0.921-0.639 2.062-1.020 3.292-1.020 0.006 0 0.012 0 0.017 0h-0.001c0.371 0 0.734 0.034 1.086 0.1l-0.036-0.006c1.122 0.204 2.101 0.712 2.878 1.434l-0.004-0.003-0.004-0.003 0.35 0.326 0.198-0.434c0.192-0.42 0.414-0.814 0.66-1.173 0.099-0.144 0.208-0.29 0.332-0.446l0.205-0.257-0.252-0.211c-1.057-0.89-2.356-1.527-3.784-1.799l-0.052-0.008-0.052-0.008c-0.46-0.088-0.989-0.138-1.53-0.138-0.911 0-1.788 0.142-2.612 0.405l0.061-0.017 0.061-0.016c0.971-4.257 4.714-7.224 9.133-7.227 0.009-0 0.021-0 0.032-0 2.564 0 4.886 1.036 6.57 2.713l-0-0c1.212 1.196 2.093 2.724 2.496 4.437l0.012 0.062c-0.745-0.24-1.603-0.379-2.493-0.379-0.002 0-0.004 0-0.006 0h-0.154c-0.356 0.006-0.7 0.033-1.037 0.078l0.045-0.005-0.042 0.006c-0.175 0.022-0.308 0.043-0.44 0.068l0.050-0.008c-0.057 0.010-0.114 0.022-0.17 0.033-0.186 0.037-0.318 0.067-0.448 0.101l0.056-0.012-0.138 0.035c-0.228 0.060-0.389 0.109-0.548 0.163l0.065-0.019-0.029 0.010c-0.355 0.12-0.709 0.268-1.051 0.439l-0.027 0.014c-0.152 0.076-0.305 0.16-0.469 0.256l-0.036 0.022c-0.818 0.493-1.514 1.091-2.097 1.788l-0.011 0.013-0.011 0.013-0.075 0.092c-0.118 0.144-0.242 0.308-0.36 0.476l-0.018 0.027c-0.088 0.13-0.177 0.269-0.288 0.452l-0.060 0.104c-0.059 0.097-0.136 0.238-0.21 0.382l-0.024 0.050-0.016 0.029c-0.17 0.341-0.317 0.698-0.44 1.063l-0.017 0.053c-0.262 0.76-0.413 1.635-0.413 2.545 0 0.060 0.001 0.121 0.002 0.181l-0-0.009v-0.007l0.001 0.112c0.006 0.158 0.013 0.295 0.023 0.431l-0.002-0.037c0.015 0.186 0.030 0.328 0.048 0.469l-0.006-0.057 0.005 0.042 0.013 0.103c0.018 0.127 0.038 0.252 0.062 0.378 0.241 1.266 0.845 2.532 1.745 3.66l0.041 0.051 0.042-0.050c0.359-0.424 1.249-1.77 1.325-2.577l0.001-0.015-0.007-0.013c-0.403-0.751-0.64-1.643-0.64-2.59 0-0.002 0-0.004 0-0.005v-0.001c0-3.016 2.371-5.521 5.397-5.702l0.199-0.007c0.040-0.001 0.088-0.002 0.135-0.002 1.245 0 2.401 0.384 3.355 1.040l-0.020-0.013 0.028 0.019 2.041-1.187v-0.030c0-0.011 0-0.024 0-0.038 0-3.282-1.343-6.25-3.51-8.385l-0.001-0.001c-2.163-2.152-5.145-3.482-8.437-3.482-0.016 0-0.033 0-0.049 0h0.003z"/>
</svg>