<svg xmlns="http://www.w3.org/2000/svg" version="1.1" width="24" height="24" viewBox="0 0 24 24">
<path d="M6.912 0c-3.817 0.001-6.911 3.095-6.912 6.912v17.088h17.088c3.817 0 6.912-3.095 6.912-6.912v0-17.088h-4.992zM17.023 2.594c0.566 0 1.024 2.505 1.024 3.070 0 0.010 0 0.021 0 0.032 0 0.566-0.458 1.024-1.024 1.024s-1.024-0.458-1.024-1.024c0-0.011 0-0.022 0.001-0.034l-0 0.002c0-0.565 0.459-3.070 1.023-3.070zM14.41 5.498c0.69 0.19 2.082 3.77 3.637 2.215 1.448-1.448 2.049 7.164 2.049 7.164l-2.050-1.022c0 0 0.002-2.048-3.070-4.095-3.809-2.54-8.189-0.867-8.189 3.070 0 8.033 13.309 5.12 13.309 5.12s-0.002 2.046-2.050 2.046h-12.281c-2.047 0-2.050-2.047-2.050-2.047v-10.236c0-2.048 2.050-2.049 2.050-2.049h4.093c2.048 0 4.096 2.049 4.096 2.049 0-1.49 0.117-2.098 0.328-2.205 0.022-0.011 0.049-0.018 0.077-0.018 0.018 0 0.036 0.003 0.053 0.008l-0.001-0z"/>
</svg>