<svg xmlns="http://www.w3.org/2000/svg" version="1.1" width="24" height="24" viewBox="0 0 24 24">
<path d="M24 15.019c-0.051 0.542-0.773 0.975-2.165 1.29-1.392 0.32-3.138 0.479-5.24 0.479-0.621 0-1.216-0.008-1.785-0.026v3.283c0.569 0.033 1.164 0.053 1.785 0.053 2.094-0.020 3.84-0.205 5.234-0.563s2.12-0.808 2.171-1.351zM16.568 12.652c-0.603 0-1.199-0.016-1.784-0.051l0.026 3.345c0.57 0.016 1.163 0.030 1.785 0.030 2.1-0.015 3.848-0.195 5.239-0.555 1.392-0.346 2.115-0.795 2.165-1.335v-3.226c-0.051 0.543-0.776 0.978-2.178 1.305-1.399 0.33-3.15 0.495-5.254 0.495zM16.568 8.53c-0.603 0-1.199-0.019-1.784-0.053v3.335c0.585 0.034 1.182 0.053 1.784 0.053 2.101-0.019 3.855-0.203 5.254-0.555 1.401-0.354 2.127-0.803 2.178-1.346v-3.205c-0.051 0.544-0.776 0.976-2.178 1.294-1.399 0.317-3.15 0.479-5.254 0.479zM16.568 3.903c-0.603 0-1.199 0.025-1.784 0.077v3.697c0.585 0.034 1.182 0.050 1.784 0.050 2.101-0.015 3.855-0.199 5.254-0.548 1.402-0.348 2.127-0.8 2.178-1.351-0.051-0.542-0.776-0.995-2.178-1.356-1.399-0.36-3.15-0.54-5.254-0.556zM6.474 9.111c-0.032 0.197-0.171 0.824-0.412 1.875l-0.45 1.834 1.8 0.025-0.42-1.835c-0.256-1.069-0.421-1.709-0.451-1.89h-0.060zM0 3.153v17.759l13.545 2.338v-22.5zM8.284 16.387l-0.504-2.002-2.494-0.090-0.479 1.886-1.591-0.105 2.419-8.475 1.85-0.104 2.639 8.995-1.845-0.105z"/>
</svg>