<svg xmlns="http://www.w3.org/2000/svg" version="1.1" width="24" height="24" viewBox="0 0 24 24">
<path d="M14.346 18.205c2.428-0.967 4.112-3.297 4.112-6.021 0-3.568-2.891-6.461-6.458-6.464h-0c-0.001 0-0.003 0-0.005 0-3.569 0-6.462 2.893-6.462 6.462 0 2.727 1.689 5.059 4.077 6.008l0.044 0.015c0.080 0.035 0.173 0.055 0.271 0.055 0.377 0 0.683-0.302 0.69-0.678v-5.401c0-0.765 0.62-1.385 1.385-1.385s1.385 0.62 1.385 1.385v5.4c0.008 0.376 0.315 0.677 0.692 0.677 0.097 0 0.19-0.020 0.274-0.056l-0.005 0.002zM15.155 23.763c5.097-1.385 8.845-6.045 8.845-11.581 0-6.627-5.373-12-12-12s-12 5.373-12 12c0 5.536 3.748 10.196 8.845 11.581 0.011 0.004 0.028 0.008 0.044 0.012l0.005 0.001 0.059 0.016 0.001-0.002c0.084 0.018 0.179 0.028 0.278 0.028 0.765 0 1.385-0.62 1.385-1.385 0-0.638-0.431-1.175-1.018-1.336l-0.010-0.002c-3.961-1.097-6.821-4.67-6.821-8.911 0-5.098 4.133-9.231 9.231-9.231s9.231 4.133 9.231 9.231c0 4.239-2.858 7.811-6.752 8.894l-0.065 0.015c-0.597 0.163-1.028 0.7-1.028 1.338 0 0.765 0.62 1.385 1.385 1.385 0.098 0 0.194-0.010 0.287-0.030l-0.009 0.002 0.001 0.002 0.059-0.016z"/>
</svg>