<svg xmlns="http://www.w3.org/2000/svg" version="1.1" width="24" height="24" viewBox="0 0 24 24">
<path d="M22.521 11.922c-0.618 0.143-1.217 0.206-1.758 0.206-3.028 0-5.361-2.116-5.361-5.794 0-1.801 0.706-2.731 1.696-2.731 0.946 0 1.562 0.841 1.562 2.552 0 0.975-0.256 2.041-0.45 2.672 0 0 0.93 1.636 3.481 1.125 0.54-1.201 0.842-2.762 0.842-4.127 0-3.679-1.876-5.825-5.314-5.825-3.543-0.017-5.615 2.7-5.615 6.288 0 3.55 1.659 6.597 4.395 7.985-1.15 2.301-2.614 4.328-4.142 5.856-2.769-3.351-5.273-7.82-6.302-16.541h-4.088c1.889 14.526 7.517 19.149 9.004 20.035 0.84 0.504 1.566 0.48 2.336 0.049 1.215-0.688 4.848-4.315 6.859-8.563 0.84-0.003 1.861-0.1 2.867-0.328v-2.865z"/>
</svg>