<svg xmlns="http://www.w3.org/2000/svg" version="1.1" width="24" height="24" viewBox="0 0 24 24">
<path d="M20.32 16.315l-3.946-0.923-1.048-2.003 5.161-4.522c1.53 0.58 2.551 2.048 2.551 3.69 0 1.691-1.115 3.228-2.718 3.758zM17.353 20.981c-0.615 0-1.217-0.206-1.709-0.585l0.78-4.065 3.585 0.839c0.114 0.309 0.171 0.64 0.171 0.984 0 1.559-1.268 2.827-2.827 2.827zM14.724 20.397c-1.076 1.574-2.863 2.593-4.887 2.593-0.002 0-0.004 0-0.006 0h0c-3.265 0-5.922-2.656-5.922-5.921 0-0.401 0.039-0.797 0.116-1.179l5.151-4.655 5.256 2.396 1.164 2.223zM0.964 11.443c0-1.69 1.115-3.227 2.718-3.758l3.937 0.93 0.924 1.975-5.034 4.55c-1.528-0.582-2.546-2.051-2.546-3.697zM6.648 3.019c0 0 0.001 0 0.001 0 0.649 0 1.246 0.218 1.724 0.585l-0.007-0.005-0.786 4.079-3.588-0.847c-0.114-0.309-0.171-0.64-0.171-0.984 0-1.559 1.268-2.828 2.827-2.828zM9.301 3.606c1.104-1.608 2.921-2.567 4.869-2.567 3.256 0 5.905 2.649 5.905 5.905 0 0.398-0.037 0.779-0.114 1.161l-5.282 4.628-5.235-2.387-1.022-2.182zM23.963 12.569c0-2.005-1.243-3.758-3.114-4.44 0.079-0.386 0.125-0.831 0.125-1.286v0c0-3.727-3.033-6.76-6.761-6.76-2.178 0-4.203 1.044-5.476 2.804-0.599-0.469-1.363-0.752-2.193-0.752-0.001 0-0.002 0-0.004 0h0c-1.979 0-3.588 1.61-3.588 3.588 0 0.437 0.078 0.856 0.224 1.251-1.86 0.671-3.139 2.465-3.139 4.458 0 2.016 1.249 3.776 3.129 4.454-0.078 0.386-0.123 0.83-0.123 1.284v0.001c0 3.719 3.025 6.744 6.744 6.744 2.183 0 4.207-1.049 5.473-2.816 0.63 0.495 1.4 0.766 2.199 0.766 1.978 0 3.588-1.609 3.588-3.588 0-0.437-0.078-0.856-0.224-1.251 1.86-0.671 3.139-2.465 3.139-4.458z"/>
</svg>