<svg xmlns="http://www.w3.org/2000/svg" version="1.1" width="24" height="24" viewBox="0 0 24 24">
<path d="M4.92 17.562c-0.499 0.305-1.059 0.457-1.68 0.457-0.92-0.029-1.68-0.346-2.287-0.951-0.607-0.601-0.922-1.367-0.953-2.282 0.016-0.862 0.291-1.594 0.83-2.192 0.54-0.601 1.225-0.948 2.058-1.050-0.030-0.178-0.042-0.367-0.042-0.566 0.030-1.14 0.42-2.084 1.17-2.819 0.754-0.735 1.7-1.125 2.842-1.155 0.719 0 1.364 0.165 1.934 0.51 0.48-0.766 1.096-1.395 1.861-1.859 0.779-0.465 1.65-0.705 2.609-0.721 1.291 0.030 2.385 0.436 3.314 1.215 0.93 0.78 1.516 1.785 1.756 3.030h-0.285c-0.465 0-0.869 0.060-1.23 0.194-0.479-0.51-1.035-0.898-1.664-1.169-0.615-0.271-1.29-0.39-2.011-0.39-0.66 0-1.29 0.104-1.89 0.33-0.6 0.225-1.14 0.539-1.62 0.959-0.42 0.36-0.765 0.766-1.050 1.23s-0.48 0.96-0.585 1.485c-0.36 0.075-0.705 0.179-1.021 0.314-0.51 0.239-0.944 0.569-1.289 1.005-0.33 0.375-0.586 0.811-0.75 1.305-0.165 0.496-0.256 1.006-0.256 1.545 0 0.6 0.091 1.156 0.301 1.666zM21.768 13.815c1.576 0.391 2.318 1.32 2.225 2.781-0.092 1.463-0.943 2.287-2.555 2.471h-12.738c-2.104-0.277-3.138-1.365-3.102-3.263 0.034-1.905 1.104-2.954 3.21-3.135 0.275-2.040 1.316-3.3 3.12-3.78 1.806-0.494 3.342 0.061 4.612 1.681 0.436-0.36 0.986-0.511 1.65-0.466 0.668 0.045 1.234 0.181 1.697 0.436 0.6 0.314 1.080 0.765 1.396 1.336 0.313 0.568 0.479 1.215 0.479 1.919z"/>
</svg>