<svg xmlns="http://www.w3.org/2000/svg" version="1.1" width="24" height="24" viewBox="0 0 24 24">
<path d="M7.257 9.132l4.559-2.632c0.053-0.031 0.116-0.049 0.184-0.049s0.131 0.018 0.186 0.050l-0.002-0.001 4.559 2.632c0.111 0.065 0.184 0.184 0.184 0.319 0 0 0 0.001 0 0.001v-0 5.263c-0 0.135-0.073 0.254-0.182 0.318l-0.002 0.001-4.559 2.632c-0.053 0.031-0.116 0.049-0.184 0.049s-0.131-0.018-0.186-0.050l0.002 0.001-4.559-2.632c-0.111-0.065-0.184-0.184-0.184-0.319 0-0 0-0.001 0-0.001v0-5.262c0-0 0-0 0-0 0-0.136 0.073-0.255 0.182-0.319l0.002-0.001zM23.852 11.53l-5.446-9.475c-0.198-0.343-0.564-0.596-0.96-0.596h-10.891c-0.396 0-0.762 0.253-0.96 0.596l-5.446 9.454c-0.093 0.16-0.148 0.353-0.148 0.558s0.055 0.398 0.151 0.564l-0.003-0.005 5.447 9.398c0.197 0.342 0.563 0.517 0.959 0.517h10.893c0.395 0 0.76-0.17 0.959-0.512l5.446-9.413c0.093-0.155 0.148-0.343 0.148-0.543s-0.055-0.388-0.151-0.548l0.003 0.005zM19.343 16.086c-0.004 0.145-0.084 0.27-0.202 0.337l-0.002 0.001-6.939 4.002c-0.056 0.033-0.124 0.052-0.196 0.052s-0.14-0.019-0.198-0.053l0.002 0.001-6.943-4.002c-0.12-0.068-0.201-0.193-0.205-0.337l-0-0.001v-8.006c0-0.14 0.083-0.269 0.204-0.338l6.936-4.002c0.12-0.070 0.272-0.070 0.392 0l6.943 4.003c0.12 0.068 0.202 0.193 0.206 0.337l0 0.001z"/>
</svg>