<svg xmlns="http://www.w3.org/2000/svg" version="1.1" width="24" height="24" viewBox="0 0 24 24">
<path d="M0 16.144h4.667v0.668h-4.667zM0 14.862h4.667v0.67h-4.667zM1.33 13.583h2.003v0.671h-2.003zM1.33 12.305h2.003v0.67h-2.003zM1.33 11.025h2.003v0.671h-2.003zM1.33 9.744h2.003v0.671h-2.003zM0 8.466h4.667v0.67h-4.667zM0 7.187h4.667v0.67h-4.667zM5.332 15.532h7.177c0.12-0.206 0.212-0.433 0.267-0.67h-7.443zM11.95 12.305h-5.283v0.67h5.843c-0.154-0.259-0.34-0.48-0.557-0.667l-0.003-0.003zM6.666 11.025v0.671h5.285c0.223-0.188 0.41-0.414 0.559-0.671zM12.509 8.466h-7.177v0.67h7.443c-0.067-0.255-0.158-0.478-0.274-0.685l0.008 0.015zM10.303 7.187h-4.971v0.67h6.685c-0.448-0.415-1.050-0.67-1.712-0.67-0.001 0-0.001 0-0.002 0h0zM6.666 9.744h2v0.671h-2zM10.667 10.415h2.092c0.059-0.214 0.090-0.44 0.090-0.671h-2.182zM6.666 13.583h1.999v0.671h-2zM10.667 13.583v0.671h2.182c0-0.23-0.031-0.457-0.090-0.671zM5.332 16.807l4.97 0.007c0.667 0 1.268-0.257 1.717-0.67h-6.687zM13.334 16.144h3.332v0.668h-3.332zM13.334 14.862h3.332v0.67h-3.332zM14.665 13.583h2v0.671h-2zM14.665 12.305h2v0.67h-2zM17.594 8.466h-4.26v0.67h4.49zM17.152 7.187h-3.818v0.669h4.048zM20.665 16.144h3.335v0.668h-3.335zM20.665 14.862h3.335v0.67h-3.335zM20.665 13.583h2v0.671h-2zM20.665 12.305h2v0.67h-2zM20.665 11.696h2v-0.671h-3.811l-0.188 0.542-0.188-0.542h-3.813v0.671h2v-0.616l0.213 0.616h3.575l0.212-0.616zM22.666 9.744h-3.37l-0.23 0.671h3.6zM20.183 7.187l-0.231 0.669h4.048v-0.669zM18.666 16.807l0.23-0.663h-0.461zM18.224 15.532h0.884l0.238-0.67h-1.357zM17.775 14.254h1.782l0.235-0.671h-2.253zM17.327 12.975h2.679l0.229-0.67h-3.138zM14.665 10.415h3.602l-0.231-0.671h-3.371zM19.51 9.136h4.49v-0.67h-4.262z"/>
</svg>