<svg xmlns="http://www.w3.org/2000/svg" version="1.1" width="24" height="24" viewBox="0 0 24 24">
<path d="M20.472 10.081h-16.944c-0.877 0-1.589 0.711-1.589 1.589v10.59c0 0.877 0.711 1.589 1.589 1.589h16.944c0.877 0 1.589-0.711 1.589-1.589v-10.59c0-0.878-0.712-1.589-1.589-1.589zM12 22.525c-3.066 0-5.56-2.494-5.56-5.56s2.494-5.56 5.56-5.56 5.56 2.494 5.56 5.56-2.494 5.56-5.56 5.56zM12 12.411c-2.511 0-4.554 2.043-4.554 4.554s2.043 4.554 4.554 4.554 4.554-2.043 4.554-4.554-2.043-4.554-4.554-4.554zM12 20.274c-1.563 0-2.881-1.103-3.221-2.568h1.67c0.275 0.581 0.859 0.979 1.551 0.979 0.96 0 1.721-0.761 1.721-1.721s-0.761-1.721-1.721-1.721c-0.649 0-1.2 0.352-1.493 0.874h-1.702c0.378-1.412 1.669-2.462 3.195-2.462 1.818 0 3.309 1.491 3.309 3.309 0 1.819-1.491 3.31-3.309 3.31zM23.849 0.396c-0.001 0.001-0.002 0.002-0.002 0.003-0.002-0.002-0.004-0.003-0.006-0.005 0.001-0.001 0.002-0.003 0.004-0.004-0.116-0.137-0.279-0.231-0.519-0.238-0.202 0.005-0.391 0.097-0.512 0.259l-1.818 2.353c-0.164-0.058-0.339-0.095-0.523-0.095h-16.945c-0.184 0-0.358 0.038-0.523 0.095l-1.818-2.354c-0.121-0.162-0.31-0.253-0.512-0.259-0.24 0.006-0.403 0.1-0.519 0.238 0.001 0.001 0.002 0.003 0.004 0.004-0.003 0.002-0.005 0.004-0.007 0.006 0-0.001-0.001-0.002-0.002-0.003-0.066 0.078-0.297 0.426-0.012 0.824l1.909 2.471c-0.067 0.176-0.108 0.366-0.108 0.566v3.707c0 0.877 0.711 1.589 1.589 1.589h16.944c0.877 0 1.589-0.711 1.589-1.589v-3.707c0-0.2-0.041-0.39-0.109-0.566l1.909-2.471c0.284-0.398 0.053-0.746-0.013-0.824zM6.904 8.228c-0.987 0-1.787-0.8-1.787-1.787s0.8-1.787 1.787-1.787 1.787 0.8 1.787 1.787-0.8 1.787-1.787 1.787zM17.229 8.228c-0.987 0-1.787-0.8-1.787-1.787s0.8-1.787 1.787-1.787 1.787 0.8 1.787 1.787-0.8 1.787-1.787 1.787z"/>
</svg>