<svg xmlns="http://www.w3.org/2000/svg" version="1.1" width="24" height="24" viewBox="0 0 24 24">
<path d="M22.7 4.3c-1.5-1.5-3.8-1.5-5.3-0.1-0.1 0.1-0.1 0.2-0.1 0.3s0 0.2 0.1 0.3l0.5 0.5c0.1 0.1 0.3 0.1 0.5 0 0.4-0.3 0.8-0.4 1.3-0.4 1.2 0 2.2 1 2.2 2.2 0 0.6-0.2 1.1-0.6 1.5-3 3-7.1-5.4-16.2-1.1-0.6 0.3-0.9 1-0.6 1.6v0.1l1.5 2.7c0.3 0.6 1.1 0.8 1.7 0.5l0.7-0.4c0.8-0.5 1.5-1 2.2-1.6 0.1-0.1 0.4-0.1 0.5 0 0.2 0.1 0.2 0.3 0.1 0.5l-0.1 0.1c-0.7 0.6-1.5 1.2-2.3 1.7l-0.7 0.3c-0.3 0.2-0.6 0.3-1 0.3-0.7 0-1.4-0.4-1.7-1l-1.5-2.6c-2.8 2-4.6 5.9-3.6 10.8 0 0.2 0.2 0.3 0.4 0.3h1.7c0.2 0 0.3-0.1 0.4-0.3 0.2-1.4 1.4-2.3 2.8-2.1 1.1 0.1 2 1 2.1 2.1 0 0.2 0.2 0.3 0.4 0.3h1.6c0.2 0 0.3-0.1 0.4-0.3 0.2-1.4 1.4-2.3 2.8-2.1 1.1 0.1 2 1 2.1 2.1 0 0.2 0.2 0.3 0.4 0.3h1.6c0.2 0 0.4-0.2 0.4-0.4 0-2.3 0.7-4.9 2.4-6.2 5.9-4.6 4.3-8.5 2.9-9.9zM16.5 11.2l-1.2-0.6c0-0.4 0.3-0.7 0.7-0.7s0.7 0.3 0.7 0.7c0.1 0.3 0 0.5-0.2 0.6z"/>
</svg>