<svg xmlns="http://www.w3.org/2000/svg" version="1.1" width="24" height="24" viewBox="0 0 24 24">
<path d="M12 0c6.623 0 12 5.377 12 12s-5.377 12-12 12-12-5.377-12-12 5.377-12 12-12zM15.279 17.68c-0.766 0.441-1.029 1.422-0.586 2.189 0.441 0.765 1.422 1.028 2.188 0.584 0.766-0.441 1.029-1.422 0.585-2.189-0.441-0.765-1.421-1.028-2.187-0.584zM12 16.68c-0.705 0-1.373-0.157-1.971-0.435l-1.113 1.995c0.93 0.459 1.978 0.721 3.084 0.721 0.646 0 1.268-0.091 1.86-0.256 0.104-0.643 0.485-1.234 1.095-1.587 0.609-0.351 1.313-0.386 1.92-0.156 1.186-1.163 1.957-2.749 2.070-4.515l-2.285-0.033c-0.21 2.391-2.215 4.266-4.66 4.266zM7.32 12c0-1.583 0.787-2.981 1.99-3.83l-1.17-1.961c-1.404 0.93-2.445 2.369-2.881 4.035 0.506 0.404 0.83 1.034 0.83 1.74 0 0.704-0.324 1.319-0.83 1.739 0.436 1.665 1.477 3.104 2.881 4.034l1.17-1.965c-1.203-0.822-1.99-2.218-1.99-3.792zM3.84 10.398c-0.885 0-1.602 0.717-1.602 1.602s0.717 1.602 1.602 1.602 1.601-0.717 1.601-1.602-0.716-1.602-1.601-1.602zM12 7.32c2.445 0 4.45 1.875 4.66 4.265l2.285-0.034c-0.113-1.765-0.885-3.35-2.070-4.516-0.609 0.232-1.313 0.194-1.92-0.154-0.609-0.352-0.99-0.945-1.095-1.591-0.594-0.16-1.214-0.25-1.86-0.25-1.11 0-2.155 0.26-3.084 0.72l1.113 1.995c0.6-0.279 1.268-0.435 1.971-0.435zM15.279 6.319c0.765 0.442 1.746 0.181 2.189-0.585 0.441-0.765 0.181-1.746-0.588-2.19-0.765-0.44-1.746-0.179-2.189 0.589-0.441 0.764-0.18 1.744 0.588 2.186z"/>
</svg>