<svg xmlns="http://www.w3.org/2000/svg" version="1.1" width="24" height="24" viewBox="0 0 24 24">
<path d="M18.078 16.345c-0.209-0.261-8.709-11.13-9.005-11.496-0.279-0.366-0.209-0.47-0.157-0.523 0.105-0.122 0.261-0.105 0.871-0.105 0.366 0 3.989-0.017 4.372-0.017 0.784 0 0.906 0.070 0.993 0.087 0.087 0.035 0.296 0.209 0.453 0.383 0.087 0.105 7.699 9.214 7.768 9.301 0.087 0.105 0.209 0.279 0.314 0.435 0.087 0.157 0.105 0.366-0.035 0.453-0.087 0.052-4.302 1.794-4.424 1.829-0.122 0.052-0.348 0.139-0.523 0.105-0.087 0.001-0.348-0.121-0.627-0.452zM22.38 16.136l0.314 0.052c0 0 1.010 0.192 1.115 0.226 0.104 0.018 0.191 0.105 0.191 0.14 0 0.087-0.052 0.122-0.139 0.174-0.070 0.052-4.633 2.856-4.72 2.909s-0.192 0.105-0.435 0.139c-0.453 0.087-1.306-0.157-1.585-0.209-0.261-0.052-11.461-2.543-11.548-2.578-0.105-0.035-0.174-0.035-0.174-0.139-0.017-0.157 0.226-0.209 0.418-0.279s5.452-1.968 5.643-2.055c0.192-0.087 0.418-0.105 0.54-0.105s0.853 0.105 1.184 0.157 1.271 0.192 1.271 0.192l2.142 2.769c0.366 0.435 0.61 0.61 0.923 0.627 0.157 0.017 0.331-0.035 0.453-0.087 0.088-0.034 4.407-1.933 4.407-1.933zM10.153 9.343c0 0 1.846 2.369 1.864 2.386 0.017 0.035 0.035 0.070 0.070 0.087v0.035c-0.070 0.052-3.362 3.1-3.379 3.118l-3.466 1.271c0 0-0.105 0.035-0.157 0.070s-0.122 0.105-0.105 0.261c0 0.052 0.017 0.853 0.035 1.045-0.017 0.017 0 0-0.017 0.017 0 0-4.267 1.359-4.302 1.359-0.209 0.070-0.61 0.209-0.662 0.174-0.087-0.070 0.017-0.174 0.070-0.244 0.052-0.070 8.796-8.674 9.127-9.022 0.469-0.505 0.922-0.557 0.922-0.557z"/>
</svg>