<svg xmlns="http://www.w3.org/2000/svg" version="1.1" width="24" height="24" viewBox="0 0 24 24">
<path d="M7.2 2.869c-1.353 0.005-2.448 1.102-2.45 2.455v3.117l-3.674-0.913c-0.064-0.017-0.137-0.027-0.212-0.027-0.010 0-0.021 0-0.031 0.001l0.001-0c-0.464 0.017-0.834 0.397-0.834 0.863 0 0.020 0.001 0.039 0.002 0.058l-0-0.003c0.217 2.832 2.2 5.148 4.84 5.859l0.046 0.011c0.675 3.366 3.598 5.87 7.11 5.889h0.002c3.511-0.022 6.431-2.524 7.098-5.841l0.008-0.047c2.689-0.72 4.675-3.037 4.891-5.849l0.001-0.022c0.001-0.017 0.002-0.037 0.002-0.057 0-0.466-0.369-0.846-0.831-0.863l-0.002-0c-0.009-0-0.019-0-0.029-0-0.077 0-0.151 0.010-0.222 0.029l0.006-0.001-3.673 0.913v-3.117c-0.002-1.353-1.097-2.45-2.45-2.455h-0c-0.347 0.009-0.676 0.078-0.979 0.199l0.019-0.007c-1.87 0.797-3.114 1.188-3.831 1.2-0.717-0.012-1.962-0.403-3.832-1.2-0.289-0.115-0.623-0.185-0.973-0.192l-0.003-0zM15.335 4.277c0.005-0.001 0.012-0.001 0.018-0.001s0.013 0 0.019 0.001l-0.001-0c0.065 0.008 0.127 0.050 0.176 0.127 0.020 0.036 0.044 0.083 0.065 0.131l0.005 0.012c0.008 0.016 0.021 0.045 0.032 0.075l0.005 0.013c0.008 0.017 0.020 0.048 0.031 0.078l0.004 0.014c0.007 0.017 0.016 0.049 0.026 0.080l0.003 0.014c0.006 0.017 0.014 0.048 0.022 0.080l0.003 0.013c0.005 0.019 0.011 0.051 0.017 0.084l0.002 0.012c0.004 0.021 0.009 0.054 0.014 0.087l0.001 0.010c0.003 0.022 0.007 0.054 0.009 0.086l0 0.007c0.002 0.029 0.004 0.064 0.005 0.1l0 0.002c0.001 0.023 0.002 0.051 0.002 0.078s-0.001 0.055-0.002 0.082l0-0.004c0.001 0 0.002 0 0.003 0s0.002 0 0.004 0h-0l0.473-0.526c0.003-0.003 0.007-0.007 0.010-0.010l0-0c0.003-0.003 0.006-0.006 0.010-0.009l0-0c0.004-0.003 0.007-0.006 0.011-0.010l0.001-0c0.002-0.002 0.004-0.004 0.007-0.006l0-0c0.003-0.002 0.007-0.005 0.011-0.007l0.001-0.001c0.002-0.002 0.005-0.003 0.008-0.005l0.001-0.001c0.002-0.001 0.006-0.003 0.010-0.005l0.001-0.001c0.002-0.001 0.005-0.003 0.009-0.004l0.001-0.001c0.002-0.001 0.006-0.003 0.009-0.004l0.002-0.001c0.003-0.001 0.007-0.003 0.011-0.004l0.002-0.001c0.002-0.001 0.005-0.002 0.008-0.003l0.002-0c0.003-0.001 0.007-0.002 0.011-0.004l0.002-0c0.003-0.001 0.007-0.002 0.011-0.003l0.002-0c0.002-0 0.006-0.001 0.010-0.002l0.001-0c0.004-0.001 0.009-0.001 0.015-0.002l0.001-0c0.001-0 0.002-0 0.003-0s0.002 0 0.004 0h-0c0.003-0 0.006-0 0.010-0s0.007 0 0.011 0l-0-0c0.001 0 0.002-0 0.003-0s0.002 0 0.003 0h-0c0.007 0.001 0.013 0.001 0.018 0.002l-0.001-0c0.001-0 0.003-0 0.005-0s0.004 0 0.005 0h-0c0.005 0.001 0.009 0.002 0.013 0.003l-0.002-0c0.006 0.001 0.010 0.002 0.015 0.003l-0.002-0c0.006 0.002 0.010 0.003 0.015 0.005l-0.002-0.001c0.005 0.001 0.008 0.002 0.012 0.003l-0.002-0c0.005 0.002 0.009 0.004 0.012 0.006l-0.001-0.001c0.006 0.003 0.010 0.005 0.014 0.007l-0.001-0.001c0 0 0 0 0 0s0 0 0.001 0h-0c0.003 0.001 0.004 0.002 0.005 0.003l-0.001-0.001c0.007 0.004 0.012 0.007 0.017 0.011l-0.001-0.001c0.004 0.002 0.007 0.003 0.009 0.005l-0.001-0.001c0.005 0.003 0.009 0.006 0.013 0.009l-0.001-0.001c0.003 0.003 0.007 0.007 0.010 0.010l0 0c0.003 0.002 0.005 0.004 0.008 0.005l-0.001-0c0.004 0.004 0.007 0.007 0.011 0.011l0 0c0.002 0.002 0.004 0.005 0.007 0.008l0 0c0.002 0.002 0.004 0.004 0.006 0.007l0 0c0.003 0.004 0.006 0.008 0.009 0.013l0.001 0.001c0 0.001 0.001 0.002 0.002 0.004l0.001 0.001c0.003 0.004 0.006 0.010 0.009 0.016l0.001 0.001c0.016 0.029 0.036 0.068 0.055 0.109l0.005 0.012c0.009 0.017 0.022 0.046 0.035 0.075l0.005 0.013c0.008 0.018 0.020 0.049 0.031 0.080l0.004 0.014c0.006 0.015 0.017 0.045 0.026 0.074l0.004 0.014c0.006 0.018 0.015 0.051 0.022 0.084l0.003 0.013c0.005 0.018 0.012 0.050 0.019 0.081l0.002 0.013c0.004 0.021 0.010 0.054 0.015 0.088l0.001 0.010c0.006 0.034 0.011 0.079 0.015 0.125l0.001 0.007c0.078 0.044 0.14 0.083 0.201 0.125l-0.009-0.006c0.046 0.031 0.081 0.057 0.117 0.084l-0.007-0.005c0.044 0.032 0.080 0.059 0.115 0.087l-0.005-0.004c0.037 0.031 0.070 0.060 0.102 0.090l-0.002-0.002c0.036 0.032 0.069 0.063 0.101 0.095l-0-0c0.030 0.031 0.060 0.063 0.090 0.095l0.002 0.003c0.028 0.031 0.058 0.064 0.086 0.099l0.004 0.004c0.024 0.029 0.051 0.064 0.077 0.1l0.005 0.008c0.022 0.029 0.049 0.066 0.074 0.103l0.006 0.009c0.018 0.026 0.041 0.063 0.063 0.101l0.007 0.013c0.017 0.027 0.039 0.066 0.061 0.106l0.007 0.014c0.014 0.024 0.033 0.065 0.052 0.105l0.007 0.017c0.012 0.024 0.030 0.064 0.047 0.105l0.007 0.018c0.011 0.025 0.027 0.068 0.042 0.112l0.006 0.019c0.009 0.023 0.023 0.064 0.037 0.107l0.005 0.019c0.008 0.026 0.020 0.071 0.030 0.117l0.004 0.018c0.007 0.024 0.018 0.068 0.027 0.112l0.003 0.018c0.006 0.029 0.013 0.075 0.019 0.122l0.001 0.013c0.005 0.031 0.011 0.078 0.015 0.125l0.001 0.011c0.006 0.067 0.010 0.145 0.011 0.224v1.759c-0 0.084-0.004 0.166-0.012 0.248l0.001-0.011c-0.006 0.057-0.012 0.103-0.019 0.147l0.002-0.015c-0.007 0.060-0.014 0.106-0.022 0.151l0.002-0.016c-0.012 0.064-0.023 0.109-0.034 0.155l0.004-0.019c-0.014 0.061-0.025 0.104-0.038 0.146l0.005-0.019c-0.019 0.064-0.034 0.109-0.050 0.153l0.006-0.019c-0.020 0.060-0.035 0.101-0.051 0.141l0.006-0.018c-0.025 0.060-0.044 0.101-0.064 0.142l0.007-0.016c-0.025 0.057-0.045 0.096-0.065 0.135l0.007-0.015c-0.029 0.053-0.051 0.092-0.075 0.13l0.007-0.012c-0.029 0.052-0.052 0.089-0.076 0.127l0.006-0.011c-0.031 0.045-0.056 0.081-0.083 0.116l0.005-0.007c-0.032 0.044-0.060 0.080-0.088 0.115l0.004-0.005c-0.032 0.038-0.061 0.071-0.092 0.104l0.002-0.002c-0.031 0.035-0.060 0.067-0.091 0.098l0.001-0.001c-0.032 0.032-0.066 0.063-0.101 0.093l-0.003 0.003c-0.030 0.028-0.062 0.056-0.094 0.084l-0.004 0.003c-0.029 0.023-0.064 0.050-0.099 0.076l-0.008 0.005c-0.029 0.023-0.066 0.049-0.104 0.075l-0.009 0.006c-0.026 0.018-0.063 0.041-0.101 0.063l-0.013 0.007c-0.027 0.017-0.066 0.039-0.106 0.061l-0.014 0.007c-0.023 0.013-0.062 0.032-0.102 0.050l-0.017 0.007c-0.025 0.013-0.067 0.033-0.109 0.051l-0.018 0.007c-0.022 0.010-0.063 0.025-0.104 0.039l-0.019 0.006c-0.025 0.010-0.069 0.025-0.114 0.039l-0.019 0.005c-0.025 0.008-0.069 0.019-0.114 0.029l-0.018 0.004c-0.024 0.007-0.068 0.018-0.112 0.027l-0.018 0.003c-0.031 0.006-0.079 0.013-0.127 0.019l-0.013 0.001c-0.028 0.005-0.072 0.011-0.117 0.016l-0.012 0.001c-0.071 0.007-0.153 0.011-0.237 0.011h-0.21c-0.086-0-0.171-0.005-0.255-0.013l0.011 0.001c-0.058-0.006-0.104-0.012-0.149-0.019l0.015 0.002c-0.059-0.007-0.105-0.014-0.15-0.022l0.017 0.002c-0.064-0.013-0.11-0.024-0.155-0.036l0.019 0.004c-0.061-0.014-0.104-0.025-0.146-0.037l0.019 0.005c-0.063-0.020-0.107-0.035-0.15-0.051l0.019 0.006c-0.061-0.020-0.103-0.036-0.144-0.052l0.018 0.006c-0.059-0.025-0.1-0.043-0.14-0.063l0.016 0.007c-0.057-0.026-0.097-0.045-0.136-0.066l0.015 0.007c-0.053-0.029-0.092-0.051-0.13-0.075l0.012 0.007c-0.051-0.029-0.089-0.053-0.126-0.077l0.010 0.006c-0.044-0.031-0.079-0.057-0.113-0.083l0.006 0.005c-0.044-0.032-0.080-0.059-0.115-0.087l0.005 0.004c-0.038-0.032-0.071-0.061-0.104-0.092l0.002 0.002c-0.035-0.031-0.067-0.062-0.098-0.092l0 0c-0.031-0.032-0.062-0.065-0.091-0.099l-0.003-0.003c-0.028-0.030-0.057-0.063-0.085-0.096l-0.003-0.004c-0.023-0.029-0.050-0.065-0.075-0.101l-0.006-0.008c-0.022-0.029-0.049-0.065-0.074-0.101l-0.006-0.009c-0.017-0.026-0.039-0.063-0.061-0.102l-0.007-0.013c-0.003-0.003-0.012-0.019-0.021-0.035l-0.007-0.013v0.98c-0.001 0.027-0.002 0.052-0.004 0.077l0-0.004c-0.001 0.020-0.003 0.037-0.004 0.055l0-0.005c-0.003 0.024-0.006 0.042-0.009 0.060l0.001-0.006c0 0 0 0.001 0 0.001s0 0.001 0 0.001v-0c-0.004 0.021-0.007 0.035-0.010 0.049l0.001-0.007c-0.006 0.028-0.012 0.049-0.018 0.070l0.002-0.007c-0.005 0.019-0.008 0.030-0.012 0.041l0.002-0.007c-0.010 0.029-0.018 0.051-0.027 0.072l0.003-0.007c-0.006 0.017-0.010 0.028-0.015 0.038l0.003-0.007c-0.013 0.029-0.024 0.051-0.036 0.072l0.003-0.005c-0.009 0.017-0.014 0.028-0.021 0.039l0.003-0.005c-0.011 0.018-0.019 0.031-0.027 0.044l0.002-0.004c-0.013 0.020-0.023 0.035-0.034 0.050l0.002-0.003c-0.011 0.015-0.020 0.027-0.030 0.039l0.002-0.002c-0.013 0.016-0.024 0.030-0.035 0.043l0.001-0.001c-0.012 0.014-0.024 0.026-0.035 0.038l0-0c-0.012 0.012-0.024 0.024-0.036 0.035l-0.001 0.001c-0.012 0.011-0.025 0.022-0.038 0.033l-0.002 0.001c-0.011 0.009-0.023 0.019-0.036 0.029l-0.002 0.002c-0.012 0.009-0.026 0.020-0.041 0.030l-0.003 0.002c-0.010 0.007-0.023 0.016-0.037 0.024l-0.004 0.003c-0.010 0.006-0.025 0.015-0.041 0.023l-0.005 0.003c-0.009 0.006-0.024 0.014-0.039 0.021l-0.006 0.003c-0.009 0.004-0.024 0.011-0.040 0.018l-0.007 0.002c-0.010 0.005-0.026 0.011-0.043 0.018l-0.007 0.002c-0.008 0.003-0.024 0.009-0.040 0.014l-0.007 0.002c-0.009 0.003-0.025 0.008-0.042 0.012l-0.007 0.002c-0.010 0.003-0.028 0.007-0.045 0.011l-0.007 0.001c-0.010 0.002-0.027 0.006-0.044 0.008l-0.006 0.001c-0.012 0.002-0.030 0.004-0.048 0.006l-0.004 0c-0.012 0.001-0.029 0.003-0.046 0.004l-0.003 0c-0.008 0-0.017 0-0.027 0s-0.019-0-0.028-0l0.001 0c-0.008 0-0.017 0-0.026 0s-0.018-0-0.027-0l0.001 0c-0.020-0.001-0.037-0.003-0.055-0.004l0.005 0c-0.022-0.002-0.039-0.004-0.057-0.007l0.006 0.001c-0.024-0.004-0.041-0.007-0.059-0.011l0.007 0.001c-0.024-0.005-0.040-0.008-0.057-0.013l0.007 0.002c-0.024-0.006-0.041-0.011-0.057-0.016l0.007 0.002c-0.023-0.007-0.039-0.013-0.054-0.018l0.007 0.002c-0.024-0.009-0.040-0.015-0.057-0.023l0.007 0.003c-0.022-0.009-0.037-0.016-0.052-0.023l0.006 0.003c-0.021-0.010-0.036-0.018-0.051-0.027l0.005 0.003c-0.021-0.011-0.036-0.020-0.051-0.029l0.005 0.003c-0.017-0.011-0.030-0.020-0.043-0.029l0.003 0.002c-0.019-0.012-0.033-0.023-0.048-0.034l0.003 0.002c-0.015-0.012-0.027-0.022-0.039-0.032l0.001 0.001c-0.015-0.012-0.028-0.023-0.041-0.035l0.001 0.001c-0.012-0.012-0.024-0.024-0.036-0.036l-0-0c-0.011-0.012-0.023-0.024-0.034-0.037l-0.001-0.001c-0.011-0.012-0.022-0.026-0.033-0.040l-0.002-0.002c-0.008-0.010-0.017-0.022-0.026-0.034l-0.002-0.003c-0.009-0.012-0.019-0.027-0.030-0.043l-0.002-0.004c-0.004-0.005-0.010-0.015-0.015-0.025l-0.003-0.005c-0.014-0.023-0.029-0.051-0.043-0.081l-0.003-0.006c0.002 0.004 0.001 0.002-0-0l-0.003-0.006c-0.010-0.021-0.021-0.048-0.032-0.077l-0.002-0.007c0 0.002-0.001-0.003-0.003-0.008l-0.002-0.007c-0.006-0.017-0.014-0.041-0.020-0.066l-0.002-0.007c-0.001-0.003-0.004-0.014-0.007-0.025l-0.001-0.007c-0.003-0.013-0.007-0.034-0.010-0.054l-0.001-0.006c-0.002-0.008-0.004-0.023-0.006-0.037l-0.001-0.006c-0.001-0.007-0.002-0.019-0.003-0.031l-0-0.003c-0-0.002-0.001-0.009-0.002-0.016l-0-0.004c0-0 0-0.001 0-0.001s0-0.001 0-0.001v0c-0.002-0.020-0.003-0.044-0.003-0.067v-0.98c-0.016 0.029-0.024 0.044-0.033 0.059l0.007-0.013c-0.029 0.052-0.052 0.089-0.076 0.127l0.006-0.011c-0.030 0.045-0.056 0.079-0.082 0.114l0.005-0.007c-0.032 0.046-0.060 0.083-0.088 0.119l0.004-0.006c-0.031 0.036-0.059 0.068-0.087 0.099l0.002-0.002c-0.033 0.038-0.064 0.072-0.096 0.105l0.001-0.001c-0.031 0.030-0.064 0.060-0.097 0.089l-0.003 0.003c-0.031 0.029-0.063 0.058-0.096 0.087l-0.004 0.003c-0.030 0.024-0.066 0.051-0.102 0.078l-0.008 0.005c-0.028 0.022-0.063 0.048-0.099 0.073l-0.009 0.006c-0.026 0.018-0.064 0.041-0.101 0.063l-0.013 0.007c-0.027 0.017-0.066 0.040-0.106 0.062l-0.014 0.007c-0.024 0.013-0.063 0.033-0.103 0.051l-0.017 0.007c-0.024 0.013-0.065 0.031-0.106 0.049l-0.018 0.007c-0.024 0.010-0.067 0.026-0.11 0.041l-0.019 0.006c-0.023 0.010-0.066 0.025-0.109 0.039l-0.019 0.005c-0.023 0.007-0.066 0.018-0.109 0.028l-0.018 0.004c-0.027 0.008-0.073 0.019-0.119 0.029l-0.018 0.003c-0.027 0.006-0.072 0.013-0.116 0.018l-0.014 0.002c-0.031 0.005-0.078 0.011-0.126 0.016l-0.011 0.001c-0.073 0.007-0.158 0.012-0.244 0.012h-0.211c-0.084-0.001-0.167-0.005-0.248-0.013l0.011 0.001c-0.056-0.006-0.101-0.011-0.145-0.018l0.015 0.002c-0.061-0.007-0.109-0.014-0.156-0.022l0.016 0.002c-0.061-0.013-0.104-0.023-0.147-0.034l0.019 0.004c-0.063-0.014-0.108-0.025-0.152-0.038l0.019 0.005c-0.064-0.019-0.107-0.034-0.151-0.050l0.019 0.006c-0.060-0.020-0.101-0.035-0.141-0.051l0.018 0.006c-0.060-0.025-0.102-0.045-0.144-0.065l0.016 0.007c-0.057-0.025-0.096-0.044-0.135-0.064l0.015 0.007c-0.053-0.029-0.092-0.052-0.13-0.076l0.012 0.007c-0.050-0.029-0.087-0.052-0.123-0.075l0.010 0.006c-0.047-0.032-0.084-0.058-0.12-0.085l0.007 0.005c-0.042-0.031-0.077-0.058-0.111-0.086l0.005 0.004c-0.037-0.031-0.069-0.059-0.101-0.089l0.002 0.002c-0.037-0.033-0.071-0.064-0.103-0.096l0 0c-0.030-0.030-0.059-0.062-0.088-0.094l-0.002-0.003c-0.029-0.031-0.058-0.064-0.087-0.098l-0.003-0.004c-0.024-0.030-0.052-0.066-0.079-0.102l-0.005-0.008c-0.022-0.028-0.047-0.064-0.072-0.1l-0.006-0.009c-0.018-0.027-0.042-0.065-0.064-0.103l-0.007-0.013c-0.017-0.026-0.039-0.065-0.061-0.104l-0.007-0.014c-0.013-0.024-0.033-0.063-0.051-0.103l-0.007-0.017c-0.013-0.025-0.032-0.066-0.049-0.108l-0.007-0.018c-0.010-0.022-0.025-0.063-0.039-0.105l-0.006-0.019c-0.010-0.025-0.026-0.069-0.040-0.114l-0.005-0.019c-0.007-0.023-0.018-0.066-0.028-0.109l-0.004-0.018c-0.008-0.027-0.018-0.072-0.027-0.119l-0.003-0.017c-0.006-0.029-0.013-0.075-0.019-0.122l-0.001-0.013c-0.005-0.029-0.011-0.075-0.016-0.12l-0.001-0.012c-0.007-0.071-0.011-0.153-0.012-0.237v-1.758c0.001-0.081 0.005-0.16 0.013-0.238l-0.001 0.011c0.005-0.058 0.011-0.104 0.018-0.15l-0.002 0.015c0.007-0.059 0.014-0.104 0.022-0.149l-0.003 0.017c0.012-0.064 0.023-0.109 0.034-0.155l-0.004 0.019c0.015-0.063 0.027-0.106 0.040-0.149l-0.005 0.019c0.018-0.063 0.033-0.106 0.048-0.148l-0.006 0.019c0.021-0.062 0.037-0.104 0.054-0.146l-0.007 0.018c0.024-0.060 0.043-0.101 0.063-0.142l-0.007 0.016c0.025-0.056 0.045-0.095 0.065-0.134l-0.007 0.015c0.029-0.055 0.053-0.095 0.077-0.135l-0.007 0.012c0.029-0.049 0.052-0.085 0.075-0.121l-0.006 0.010c0.032-0.047 0.058-0.084 0.086-0.121l-0.005 0.007c0.031-0.043 0.057-0.078 0.084-0.111l-0.004 0.005c0.032-0.038 0.062-0.072 0.093-0.105l-0.002 0.002c0.032-0.036 0.062-0.069 0.093-0.101l-0 0c0.030-0.030 0.062-0.059 0.094-0.088l0.003-0.002c0.032-0.030 0.066-0.060 0.102-0.090l0.004-0.003c0.028-0.023 0.062-0.049 0.097-0.075l0.007-0.005c0.029-0.022 0.066-0.048 0.104-0.074l0.010-0.006c0.052-0.036 0.114-0.075 0.179-0.112l0.013-0.007c0.005-0.053 0.010-0.099 0.017-0.144l-0.001 0.011c0.006-0.042 0.011-0.074 0.017-0.106l-0.002 0.012c0.009-0.045 0.016-0.077 0.024-0.109l-0.003 0.013c0.011-0.045 0.019-0.076 0.029-0.107l-0.004 0.014c0.013-0.045 0.023-0.077 0.034-0.108l-0.004 0.014c0.015-0.044 0.027-0.074 0.039-0.104l-0.005 0.013c0.018-0.042 0.031-0.072 0.045-0.101l-0.005 0.012c0.023-0.052 0.042-0.090 0.063-0.128l-0.005 0.010c0.004-0.007 0.007-0.013 0.011-0.019l-0.001 0.001c0.002-0.002 0.003-0.004 0.004-0.005l-0 0c0.004-0.005 0.007-0.009 0.010-0.013l-0 0c0.002-0.003 0.004-0.005 0.006-0.007l-0 0c0.003-0.003 0.005-0.006 0.007-0.008l-0 0c0.003-0.004 0.007-0.008 0.010-0.011l-0 0c0.002-0.002 0.004-0.004 0.007-0.006l0-0c0.003-0.003 0.007-0.006 0.010-0.009l0.001-0c0.003-0.002 0.007-0.005 0.011-0.007l0.001-0.001c0.002-0.001 0.004-0.003 0.007-0.004l0.001-0.001c0.004-0.003 0.009-0.006 0.015-0.008l0.001-0.001c0.001-0 0.003-0.001 0.005-0.002l0.001-0.001c0.003-0.001 0.007-0.003 0.011-0.005l0.002-0.001c0.002-0.001 0.006-0.003 0.009-0.004l0.002-0.001c0.002-0.001 0.005-0.002 0.008-0.003l0.002-0c0.003-0.001 0.007-0.002 0.011-0.004l0.002-0c0.003-0.001 0.007-0.002 0.011-0.003l0.002-0c0.002-0 0.006-0.001 0.010-0.002l0.001-0c0.002-0 0.006-0.001 0.009-0.001l0.001-0c0.004-0.001 0.010-0.001 0.016-0.002l0.001-0c0.001 0 0.002-0 0.003-0s0.002 0 0.003 0h-0c0.003-0 0.006-0 0.009-0s0.007 0 0.010 0l-0-0c0.001-0 0.002-0 0.003-0s0.002 0 0.004 0h-0c0.007 0.001 0.012 0.002 0.018 0.003l-0.002-0c0.005 0.001 0.008 0.002 0.012 0.002l-0.002-0c0.006 0.001 0.011 0.002 0.016 0.003l-0.002-0c0.006 0.002 0.010 0.003 0.014 0.005l-0.002-0.001c0.005 0.001 0.009 0.002 0.013 0.003l-0.002-0c0.006 0.002 0.010 0.004 0.015 0.006l-0.002-0.001c0.005 0.002 0.008 0.004 0.011 0.006l-0.001-0.001c0.005 0.002 0.008 0.004 0.011 0.006l-0.001-0.001c0.006 0.003 0.009 0.005 0.013 0.007l-0.001-0.001c0.004 0.003 0.007 0.004 0.010 0.007l-0.001-0.001c0.005 0.003 0.009 0.006 0.013 0.009l-0.001-0.001c0.003 0.002 0.005 0.004 0.008 0.005l-0.001-0c0.005 0.004 0.008 0.007 0.012 0.010l-0-0c0.003 0.003 0.007 0.007 0.010 0.010l0 0c0.003 0.003 0.007 0.007 0.010 0.010l0 0v-0.005l0.471 0.523c0.001 0 0.003 0 0.005 0s0.004 0 0.005 0h-0c-0.001-0.027-0.002-0.058-0.002-0.090 0-0.023 0-0.046 0.001-0.068l-0 0.003c0.001-0.039 0.003-0.075 0.007-0.11l-0.001 0.007c0.003-0.039 0.006-0.071 0.010-0.103l-0.001 0.010c0.006-0.043 0.011-0.076 0.017-0.109l-0.002 0.012c0.008-0.045 0.015-0.077 0.023-0.108l-0.003 0.013c0.010-0.045 0.018-0.077 0.027-0.108l-0.003 0.014c0.013-0.045 0.023-0.077 0.034-0.108l-0.004 0.014c0.015-0.044 0.026-0.075 0.039-0.105l-0.005 0.013c0.016-0.042 0.028-0.071 0.041-0.099l-0.005 0.012c0.027-0.060 0.050-0.107 0.075-0.152l-0.005 0.010c0.085-0.135 0.214-0.163 0.32-0.083 0.015 0.011 0.030 0.025 0.044 0.040l1.78 1.94v-0.002c0.030 0.030 0.060 0.060 0.090 0.088l0.002 0.001c0.022 0.021 0.045 0.042 0.068 0.062l0.003 0.002c0.021 0.018 0.046 0.037 0.071 0.056l0.005 0.004c0.021 0.016 0.046 0.035 0.072 0.053l0.006 0.004c0.019 0.013 0.045 0.029 0.071 0.045l0.009 0.005c0.019 0.013 0.047 0.029 0.075 0.045l0.009 0.005c0.017 0.010 0.045 0.024 0.074 0.038l0.011 0.005c0.017 0.009 0.046 0.022 0.075 0.035l0.012 0.005c0.017 0.008 0.048 0.020 0.079 0.032l0.013 0.004c0.016 0.007 0.045 0.017 0.075 0.026l0.014 0.004c0.018 0.006 0.050 0.015 0.082 0.023l0.013 0.003c0.017 0.005 0.047 0.013 0.078 0.020l0.013 0.002c0.020 0.004 0.053 0.010 0.087 0.015l0.010 0.001c0.021 0.004 0.053 0.008 0.085 0.012l0.009 0.001c0.026 0.002 0.059 0.005 0.092 0.006l0.004 0c0.028 0.002 0.062 0.003 0.095 0.003h0.001c0.035-0 0.069-0.001 0.102-0.003l-0.005 0c0.037-0.001 0.070-0.004 0.103-0.007l-0.007 0.001c0.041-0.005 0.073-0.009 0.105-0.015l-0.011 0.002c0.044-0.006 0.077-0.012 0.109-0.018l-0.012 0.002c0.043-0.009 0.074-0.017 0.104-0.025l-0.014 0.003c0.046-0.010 0.078-0.019 0.11-0.028l-0.014 0.003c0.043-0.014 0.073-0.024 0.102-0.035l-0.013 0.004c0.044-0.016 0.075-0.028 0.105-0.041l-0.013 0.005c0.041-0.018 0.070-0.031 0.098-0.045l-0.011 0.005c0.040-0.019 0.068-0.033 0.095-0.048l-0.010 0.005c0.037-0.021 0.065-0.037 0.092-0.055l-0.008 0.005c0.035-0.021 0.061-0.037 0.087-0.054l-0.007 0.004c0.032-0.022 0.057-0.041 0.082-0.061l-0.004 0.003c0.030-0.022 0.054-0.042 0.078-0.062l-0.003 0.003c0.027-0.023 0.050-0.044 0.073-0.065l-0.001 0.001c0.033-0.029 0.062-0.058 0.091-0.088l0 0 1.78-1.94c0.013-0.015 0.028-0.028 0.043-0.039l0.001-0.001c0.030-0.023 0.067-0.039 0.107-0.043l0.001-0zM15.355 4.445c-0.813 0.742-1.419 1.714-2.325 2.358-0.932 0.557-2.21 0.194-2.823-0.67-0.512-0.56-1.007-1.17-1.563-1.667-0.324 0.258-0.164 0.745-0.332 1.078-0.208 0.206-0.42-0.181-0.526-0.316-0.084-0.17-0.317-0.283-0.386-0.048-0.163 0.278-0.040 0.74-0.416 0.857-0.919 0.59-1.277 1.757-1.149 2.792-0.030 0.982-0.066 2.116 0.698 2.859 1.106 1.18 3.29 1.048 4.174-0.32 0.058-0.14 0.145-0.301 0.261-0.42v-0.42c0-0.001 0-0.002 0-0.003s0-0.002 0-0.003v0l-0.35-0.059c-0.024-0.005-0.042-0.026-0.042-0.051 0-0.002 0-0.005 0-0.007l-0 0c0.124-0.681 0.711-1.191 1.418-1.194h0c0.002 0 0.004-0 0.006-0 0.71 0 1.3 0.511 1.423 1.185l0.001 0.009c0 0.002 0 0.004 0 0.007 0 0.026-0.019 0.047-0.043 0.051l-0 0-0.35 0.060c0 0 0 0 0 0s0 0 0 0.001v-0 0.38l0.007 0.001c0.584 1.534 2.728 2.067 4.017 1.128 0.686-0.495 1.128-1.292 1.128-2.192 0-0.121-0.008-0.24-0.023-0.357l0.001 0.014c0.014-1.033 0.13-2.231-0.653-3.042-0.216-0.27-0.604-0.399-0.762-0.697-0.055-0.25-0.041-0.588-0.286-0.736-0.31 0.129-0.381 0.556-0.728 0.634-0.2-0.38-0.055-0.897-0.377-1.212zM8.422 6.468c1.101 0.001 1.994 0.894 1.994 1.995v0 1.2c-0.008 0.336-0.098 0.649-0.25 0.923l0.005-0.010c-0.090-0.047-0.359-0.158-0.63-0.264l-0.185-0.064c0.012-0.012 0.023-0.024 0.034-0.036l0.001-0.001c0.005-0.005 0.010-0.011 0.015-0.017l0.001-0.001c0.016-0.017 0.031-0.036 0.046-0.056l0.002-0.002c0.002-0.003 0.006-0.008 0.010-0.014l0.002-0.003c0.012-0.016 0.025-0.036 0.038-0.056l0.002-0.004c0.002-0.003 0.007-0.010 0.011-0.016l0.002-0.004c0.009-0.015 0.020-0.036 0.030-0.056l0.002-0.006c0.001-0.002 0.005-0.009 0.009-0.016l0.002-0.006c0.006-0.013 0.014-0.033 0.022-0.053l0.002-0.007c0.002-0.004 0.006-0.014 0.010-0.024l0.002-0.007c0.004-0.012 0.010-0.032 0.015-0.051l0.002-0.007c0.002-0.004 0.005-0.015 0.008-0.026l0.001-0.007c0.003-0.012 0.006-0.030 0.009-0.049l0.001-0.005c0.002-0.009 0.004-0.023 0.006-0.038l0.001-0.005c0.003-0.023 0.006-0.051 0.007-0.080l0-0.002v-1.033c-0-0.029-0.002-0.056-0.004-0.084l0 0.004c-0.002-0.020-0.003-0.036-0.006-0.052l0.001 0.005c-0.003-0.021-0.005-0.037-0.008-0.053l0.001 0.006c-0.004-0.022-0.008-0.038-0.011-0.054l0.001 0.007c-0.005-0.022-0.009-0.037-0.014-0.052l0.002 0.007c-0.007-0.023-0.012-0.038-0.018-0.054l0.002 0.007c-0.007-0.021-0.012-0.035-0.017-0.048l0.002 0.006c-0.009-0.022-0.015-0.038-0.022-0.053l0.002 0.006c-0.009-0.019-0.016-0.032-0.023-0.045l0.002 0.005c-0.010-0.019-0.019-0.032-0.027-0.046l0.002 0.004c-0.010-0.018-0.018-0.031-0.026-0.044l0.002 0.004c-0.011-0.015-0.019-0.026-0.029-0.038l0.002 0.002c-0.011-0.016-0.021-0.028-0.031-0.041l0.001 0.002c-0.011-0.013-0.021-0.024-0.031-0.035l0.001 0.001c-0.011-0.013-0.022-0.025-0.033-0.036l0 0c-0.011-0.010-0.022-0.021-0.034-0.031l-0.001-0.001c-0.011-0.010-0.022-0.020-0.034-0.030l-0.001-0.001c-0.010-0.008-0.023-0.018-0.035-0.027l-0.003-0.002c-0.010-0.008-0.023-0.017-0.036-0.026l-0.003-0.002c-0.009-0.006-0.022-0.015-0.036-0.023l-0.004-0.002c-0.009-0.006-0.022-0.013-0.035-0.021l-0.005-0.002c-0.008-0.005-0.023-0.011-0.037-0.018l-0.006-0.002c-0.009-0.005-0.024-0.011-0.040-0.018l-0.006-0.002c-0.008-0.004-0.022-0.009-0.036-0.015l-0.007-0.002c-0.008-0.003-0.022-0.008-0.036-0.012l-0.007-0.002c-0.010-0.003-0.026-0.007-0.043-0.011l-0.006-0.001c-0.009-0.002-0.024-0.006-0.040-0.009l-0.006-0.001c-0.009-0.002-0.024-0.005-0.040-0.007l-0.005-0.001c-0.011-0.002-0.027-0.004-0.044-0.006l-0.004-0c-0.024-0.002-0.051-0.004-0.080-0.004h-0c-0.023 0.001-0.043 0.002-0.064 0.004l0.004-0c-0.021 0.002-0.038 0.003-0.055 0.006l0.005-0.001c-0.020 0.003-0.034 0.005-0.049 0.008l0.006-0.001c-0.023 0.004-0.040 0.007-0.057 0.011l0.006-0.001c-0.022 0.005-0.037 0.009-0.052 0.014l0.007-0.002c-0.023 0.006-0.038 0.011-0.054 0.016l0.007-0.002c-0.022 0.008-0.037 0.014-0.052 0.020l0.006-0.002c-0.025 0.009-0.043 0.017-0.061 0.025l0.006-0.002c0.014 0.013 0.027 0.026 0.040 0.040l0 0c0.007 0.007 0.014 0.015 0.021 0.023l0.001 0.001c0.005 0.006 0.011 0.012 0.016 0.019l0.001 0.001c0.005 0.007 0.011 0.015 0.017 0.023l0.001 0.002c0.005 0.006 0.010 0.015 0.016 0.023l0.001 0.003c0.003 0.005 0.007 0.012 0.011 0.020l0.002 0.003c0.004 0.006 0.009 0.016 0.014 0.025l0.002 0.003c0.002 0.005 0.006 0.013 0.010 0.022l0.001 0.004c0.003 0.006 0.007 0.016 0.012 0.026l0.001 0.004c0.002 0.004 0.004 0.012 0.007 0.021l0.001 0.004c0.002 0.006 0.006 0.016 0.009 0.027l0.001 0.004c0.002 0.006 0.004 0.016 0.006 0.026l0.001 0.004c0.002 0.006 0.004 0.015 0.005 0.025l0.001 0.004c0.001 0.009 0.003 0.022 0.004 0.035l0 0.002c0.001 0.004 0.001 0.012 0.002 0.019l0 0.002c0 0.006 0 0.013 0 0.021s-0 0.014-0 0.022l0-0.001c0 0.003 0 0.006 0 0.010s-0 0.007-0 0.011v-0.001c-0 0.012-0.001 0.022-0.002 0.032l0-0.002c-0.001 0.013-0.002 0.023-0.003 0.034l0-0.003c-0.002 0.012-0.003 0.020-0.005 0.028l0.001-0.004c-0.003 0.015-0.005 0.027-0.008 0.038l0.001-0.004c-0.003 0.014-0.006 0.023-0.009 0.032l0.001-0.004c-0.004 0.014-0.008 0.024-0.011 0.034l0.001-0.004c-0.005 0.014-0.009 0.024-0.014 0.034l0.002-0.004c-0.005 0.012-0.008 0.020-0.012 0.028l0.002-0.004c-0.007 0.013-0.012 0.023-0.018 0.033l0.002-0.003c-0.006 0.011-0.010 0.019-0.015 0.027l0.002-0.003c-0.008 0.012-0.014 0.022-0.021 0.032l0.001-0.002c-0.005 0.008-0.009 0.014-0.013 0.020l0.001-0.002c-0.009 0.012-0.018 0.023-0.027 0.033l0.001-0.001c-0.005 0.006-0.009 0.011-0.013 0.016l0-0.001c-0.007 0.007-0.013 0.013-0.020 0.020l-0 0c-0.008 0.008-0.016 0.016-0.024 0.024l-0 0c-0.005 0.004-0.012 0.009-0.018 0.014l-0.002 0.001c-0.007 0.007-0.015 0.013-0.024 0.020l-0.001 0.001c-0.007 0.005-0.016 0.011-0.025 0.017l-0.002 0.001c-0.006 0.004-0.013 0.009-0.021 0.014l-0.003 0.002c-0.004 0.003-0.012 0.007-0.020 0.010l-0.003 0.002c-0.007 0.004-0.017 0.009-0.027 0.014l-0.003 0.002c-0.007 0.003-0.018 0.008-0.030 0.012l-0.004 0.001c-0.003 0.001-0.009 0.004-0.016 0.007l-0.004 0.001c-0.008 0.003-0.021 0.007-0.034 0.010l-0.004 0.001c-0.002 0.001-0.009 0.003-0.016 0.005l-0.004 0.001c-0.008 0.002-0.019 0.004-0.031 0.006l-0.003 0c-0.005 0.001-0.014 0.003-0.022 0.004l-0.004 0.001c-0.011 0.001-0.025 0.002-0.039 0.003l-0.001 0c-0.003 0-0.009 0.001-0.016 0.002l-0.002 0c-0.005 0-0.011 0-0.018 0s-0.012-0-0.018-0l0.001 0c-0.004 0-0.009 0-0.014 0s-0.010-0-0.015-0l0.001 0c-0.014-0.002-0.024-0.004-0.035-0.006l0.004 0.001c-0.011-0.001-0.020-0.002-0.029-0.003l0.003 0c-0.023-0.004-0.042-0.008-0.060-0.013l0.004 0.001v0.859c0.001 0.019 0.003 0.036 0.004 0.052l-0-0.004c0.002 0.025 0.004 0.046 0.008 0.067l-0.001-0.005c-0.333-0.106-0.782-0.221-1.239-0.315l-0.098-0.017v-0.908c-0-0.003-0-0.006-0-0.010 0-1.097 0.89-1.987 1.987-1.987 0.002 0 0.005 0 0.007 0h-0zM15.578 6.468c0 0 0.001 0 0.001 0 1.102 0 1.995 0.893 1.995 1.995v0 0.909c-0.425 0.085-0.87 0.195-1.336 0.333 0.003-0.017 0.005-0.040 0.007-0.063l0-0.003c0.001-0.011 0.003-0.027 0.004-0.043l0-0.003v-1.033c-0-0.029-0.002-0.057-0.004-0.085l0 0.004c-0.002-0.020-0.004-0.036-0.007-0.051l0.001 0.005c-0.003-0.021-0.005-0.037-0.008-0.053l0.001 0.006c-0.004-0.022-0.008-0.037-0.011-0.053l0.001 0.007c-0.005-0.023-0.009-0.039-0.014-0.055l0.002 0.007c-0.006-0.020-0.011-0.034-0.016-0.048l0.002 0.007c-0.008-0.023-0.014-0.039-0.020-0.054l0.002 0.006c-0.008-0.021-0.015-0.035-0.021-0.049l0.002 0.006c-0.009-0.020-0.015-0.034-0.023-0.047l0.002 0.005c-0.010-0.018-0.018-0.031-0.026-0.044l0.002 0.004c-0.010-0.019-0.019-0.032-0.027-0.046l0.002 0.004c-0.011-0.016-0.020-0.029-0.030-0.041l0.002 0.002c-0.011-0.014-0.020-0.026-0.029-0.038l0.001 0.002c-0.011-0.014-0.022-0.026-0.033-0.038l0.001 0.001c-0.011-0.013-0.022-0.024-0.032-0.035l0 0c-0.011-0.011-0.023-0.022-0.035-0.032l-0.001-0.001c-0.010-0.010-0.021-0.019-0.032-0.029l-0.001-0.001c-0.011-0.009-0.024-0.019-0.037-0.028l-0.003-0.002c-0.009-0.007-0.021-0.016-0.034-0.024l-0.003-0.002c-0.010-0.007-0.024-0.015-0.038-0.024l-0.004-0.002c-0.009-0.006-0.022-0.013-0.035-0.021l-0.005-0.002c-0.008-0.005-0.022-0.011-0.036-0.018l-0.006-0.002c-0.009-0.005-0.024-0.011-0.040-0.018l-0.006-0.002c-0.007-0.003-0.020-0.009-0.033-0.014l-0.007-0.002c-0.009-0.003-0.025-0.009-0.041-0.013l-0.007-0.002c-0.009-0.003-0.024-0.007-0.040-0.011l-0.006-0.001c-0.009-0.003-0.025-0.006-0.041-0.009l-0.006-0.001c-0.010-0.002-0.026-0.004-0.042-0.007l-0.005-0c-0.010-0.002-0.025-0.004-0.041-0.006l-0.004-0c-0.024-0.002-0.052-0.004-0.081-0.004h-0c-0.022 0.001-0.042 0.002-0.061 0.004l0.004-0c-0.019 0.001-0.034 0.003-0.049 0.004l0.004-0c-0.023 0.003-0.040 0.006-0.058 0.009l0.006-0.001c-0.021 0.003-0.035 0.006-0.050 0.009l0.006-0.001c-0.022 0.005-0.038 0.009-0.053 0.014l0.007-0.002c-0.023 0.006-0.038 0.011-0.054 0.016l0.007-0.002c-0.021 0.007-0.035 0.013-0.049 0.018l0.006-0.002c-0.022 0.008-0.036 0.014-0.051 0.020l0.006-0.002c-0.021 0.010-0.035 0.017-0.050 0.026l0.005-0.003c-0.022 0.010-0.038 0.018-0.053 0.027l0.005-0.003c0.014 0.014 0.027 0.029 0.039 0.044l0.001 0.001c0.011 0.014 0.021 0.030 0.031 0.047l0.002 0.003c0.009 0.014 0.019 0.031 0.028 0.049l0.002 0.003c0.007 0.014 0.015 0.032 0.023 0.051l0.001 0.004c0.006 0.014 0.012 0.033 0.017 0.053l0.001 0.004c0.001 0.004 0.003 0.013 0.004 0.021l0.001 0.004c0.002 0.007 0.004 0.019 0.006 0.030l0.001 0.004c0.002 0.011 0.004 0.025 0.005 0.040l0 0.002c0 0.003 0.001 0.009 0.002 0.014l0 0.003c0 0 0 0 0 0s0 0 0 0.001v-0c0 0.009 0.001 0.019 0.001 0.030s-0 0.021-0.001 0.031l0-0.001c-0.001 0.022-0.003 0.043-0.005 0.063l0-0.003c-0.002 0.011-0.003 0.018-0.005 0.026l0.001-0.004c-0.003 0.016-0.005 0.028-0.008 0.040l0.001-0.004c-0.006 0.024-0.012 0.043-0.018 0.061l0.001-0.004c0 0 0 0 0 0s0 0 0 0.001v-0c-0.008 0.023-0.016 0.041-0.025 0.059l0.002-0.004c-0.010 0.021-0.019 0.039-0.030 0.056l0.002-0.003c-0.012 0.020-0.023 0.036-0.034 0.052l0.001-0.002c-0.013 0.017-0.026 0.032-0.039 0.046l0-0c-0.013 0.015-0.027 0.029-0.042 0.042l-0 0c-0.014 0.013-0.029 0.025-0.044 0.037l-0.002 0.001c-0.014 0.010-0.030 0.021-0.047 0.031l-0.003 0.002c-0 0-0 0-0 0s-0 0-0.001 0h0c-0.014 0.008-0.031 0.017-0.049 0.025l-0.004 0.002c-0.014 0.007-0.032 0.015-0.051 0.022l-0.004 0.001c-0.015 0.005-0.034 0.011-0.054 0.015l-0.004 0.001c-0.007 0.002-0.018 0.004-0.029 0.006l-0.003 0c-0.025 0.005-0.055 0.009-0.086 0.010l-0.001 0c-0.009 0-0.019 0.001-0.030 0.001s-0.021-0-0.031-0.001l0.001 0v0.838c0.001 0.031 0.004 0.060 0.008 0.089l-0.001-0.005c0.003 0.020 0.005 0.034 0.008 0.048l-0.001-0.006c0.004 0.024 0.007 0.042 0.011 0.060l-0.001-0.006c0.005 0.017 0.008 0.028 0.012 0.039l-0.002-0.007c0.006 0.027 0.012 0.047 0.018 0.067l-0.002-0.007c0.006 0.016 0.009 0.026 0.013 0.035l-0.002-0.006c0.010 0.027 0.018 0.046 0.027 0.066l-0.002-0.006c0.006 0.013 0.009 0.021 0.012 0.028l-0.002-0.006c0.013 0.027 0.024 0.047 0.036 0.067l-0.002-0.004c0.006 0.010 0.010 0.016 0.013 0.022l-0.002-0.004c0.015 0.025 0.029 0.046 0.043 0.066l-0.002-0.003c0.005 0.006 0.008 0.009 0.011 0.013l-0.001-0.001c0.018 0.024 0.035 0.044 0.053 0.064l-0.001-0.001c0.003 0.003 0.005 0.005 0.008 0.008l0 0c0.014 0.017 0.029 0.032 0.043 0.046v0c-0.268 0.103-0.54 0.213-0.815 0.33-0.148-0.264-0.239-0.579-0.247-0.914l-0-0.002v-1.2c-0-0.003-0-0.006-0-0.009 0-1.097 0.889-1.986 1.986-1.986 0.002 0 0.005 0 0.007 0h-0zM12.035 9.32c-0.038 0-0.077 0-0.115 0.003-0.599 0.042-1.088 0.469-1.222 1.033l-0.002 0.009 1.301 0.198 0.688-0.108 0.603-0.138c-0.13-0.565-0.68-0.983-1.253-0.997zM12.895 10.504c-0.084-0.005-0.009 0.142-0.024 0.214 0.010 0.453 0.025 0.912-0.024 1.362-0.143 0.554-0.892 0.836-1.35 0.477-0.337-0.235-0.425-0.684-0.371-1.068-0.001-0.32-0.020-0.641 0.014-0.96-0.161-0.086-0.060 0.106-0.086 0.194 0.010 0.609-0.049 1.226 0.045 1.829 0.186 0.598 1.027 0.855 1.5 0.43 0.31-0.25 0.399-0.685 0.35-1.067-0.004-0.466 0.012-0.933-0.009-1.399-0.013-0.006-0.028-0.010-0.044-0.012l-0.001-0zM12.751 10.55c-0.025 0.003-0.047 0.007-0.069 0.014l0.003-0.001c-0.026 0.010-0.063 0.022-0.101 0.033l-0.011 0.003-0.030 0.008c-0.019 0.006-0.048 0.013-0.077 0.019l-0.008 0.001-0.028 0.006c-0.080 0.016-0.173 0.027-0.267 0.030l-0.003 0-0.035 0.002c-0.022 0.001-0.048 0.001-0.074 0.001s-0.052-0-0.078-0.001l0.004 0h-0.016c-0.065-0.003-0.124-0.007-0.183-0.014l0.012 0.001c-0.006 0-0.012 0-0.017-0.002-0.124-0.014-0.219-0.027-0.314-0.043l0.035 0.005-0.072-0.010-0.182-0.033c-0.022 0.066-0.035 0.142-0.035 0.221 0 0.001 0 0.001 0 0.002v-0 1.087c0.005 0.415 0.358 0.751 0.795 0.755h0c0 0 0 0 0 0 0.439 0 0.794-0.338 0.794-0.754 0-0 0-0.001 0-0.001v0-1.089c-0.001-0.086-0.016-0.169-0.045-0.245l0.002 0.005zM12.791 11.917c-0.002 0.016-0.004 0.028-0.006 0.040l0.001-0.005c0.001-0.007 0.003-0.019 0.005-0.031l0-0.004zM12.778 11.999c-0.003 0.015-0.006 0.025-0.008 0.036l0.001-0.006c0.001-0.005 0.004-0.015 0.006-0.025l0.001-0.005zM12.758 12.074c-0.005 0.016-0.008 0.026-0.012 0.036l0.002-0.006c0.002-0.004 0.005-0.014 0.008-0.024l0.002-0.006zM12.73 12.153c-0.005 0.012-0.009 0.020-0.012 0.027l0.002-0.005c0.001-0.002 0.005-0.010 0.008-0.017l0.002-0.005zM12.695 12.224c-0.006 0.010-0.010 0.017-0.014 0.023l0.002-0.003c0.002-0.003 0.006-0.010 0.010-0.016l0.002-0.004zM12.651 12.294c-0.005 0.007-0.008 0.012-0.012 0.016l0.002-0.002c0.002-0.002 0.005-0.007 0.008-0.011l0.002-0.003zM12.601 12.358c-0.003 0.003-0.007 0.007-0.010 0.010l-0 0c0.003-0.003 0.007-0.007 0.010-0.010l0-0zM12.548 12.414c-0.002 0.002-0.004 0.004-0.006 0.006l-0 0c0.002-0.002 0.004-0.004 0.006-0.006l0-0zM9.482 15.034c0.002-0 0.005-0 0.007-0s0.005 0 0.007 0l-0-0h1.823c0.002-0 0.004-0 0.006-0 0.077 0 0.14 0.063 0.14 0.14 0 0.015-0.002 0.029-0.006 0.042l0-0.001c-0.14 0.42-0.573 0.709-1.056 0.712-0.008 0-0.018 0-0.028 0-0.465 0-0.863-0.293-1.017-0.705l-0.002-0.008c-0.006-0.015-0.009-0.031-0.009-0.049 0-0.073 0.059-0.132 0.132-0.132 0.001 0 0.002 0 0.004 0h-0zM12.685 15.034c0.001-0 0.002-0 0.003-0s0.002 0 0.003 0h1.824c0.002-0 0.004-0 0.006-0 0.077 0 0.14 0.063 0.14 0.14 0 0.014-0.002 0.027-0.006 0.040l0-0.001c-0.14 0.418-0.572 0.71-1.060 0.71-0.008 0-0.017 0-0.026 0-0.464 0-0.86-0.291-1.015-0.701l-0.002-0.007c-0.003-0.011-0.005-0.024-0.005-0.037 0-0.078 0.062-0.141 0.139-0.144h0zM11.085 16.582c0.001-0 0.002-0 0.003-0s0.002 0 0.003 0h1.824c0.002-0 0.004-0 0.005-0 0.077 0 0.14 0.063 0.14 0.14 0 0.015-0.002 0.030-0.007 0.043l0-0.001c-0.135 0.423-0.568 0.711-1.056 0.711-0.008 0-0.018 0-0.027 0-0.465 0-0.862-0.293-1.016-0.704l-0.002-0.007c-0.004-0.013-0.006-0.027-0.006-0.042 0-0.077 0.063-0.14 0.14-0.14 0 0 0 0 0 0h-0zM4.45 18.236c-0.261 0.007-0.495 0.12-0.659 0.298l-0.001 0.001v-0.002c-0.156 0.168-0.252 0.394-0.252 0.642 0 0.269 0.112 0.511 0.292 0.683l1.088 1.020c0.165 0.148 0.385 0.239 0.626 0.239 0.518 0 0.938-0.42 0.938-0.938 0-0.261-0.107-0.498-0.279-0.668l-0-0-1.088-1.019c-0.167-0.159-0.393-0.256-0.642-0.256-0.008 0-0.016 0-0.025 0l0.001-0zM19.565 18.236c-0.011-0-0.023-0.001-0.036-0.001-0.249 0-0.475 0.098-0.642 0.257l0-0-1.089 1.019c-0.182 0.172-0.296 0.415-0.296 0.684 0 0.518 0.42 0.938 0.938 0.938 0.249 0 0.475-0.097 0.643-0.255l-0 0 1.087-1.019c0.181-0.172 0.293-0.415 0.293-0.684 0-0.248-0.096-0.473-0.252-0.642l0.001 0.001c-0.162-0.176-0.391-0.288-0.645-0.299l-0.002-0z"/>
</svg>