<svg xmlns="http://www.w3.org/2000/svg" version="1.1" width="24" height="24" viewBox="0 0 24 24">
<path d="M3.386 12.032v-12h17.204v24h-17.204zM16.556 18.102c0.138-0.014 0.265-0.052 0.379-0.11l-0.006 0.003c0.432-0.213 0.68-0.672 0.877-1.626 0.076-0.372 1.195-6.168 1.209-6.263 0.026-0.186-0.008-0.382-0.084-0.476-0.025-0.025-0.053-0.047-0.085-0.063l-0.002-0.001-0.060-0.031h-0.291c-0.253 0-0.298 0-0.348 0.020-0.113 0.039-0.207 0.156-0.255 0.316-0.011 0.038-0.168 0.881-0.348 1.873l-0.328 1.802-0.046-0.21c-0.56-2.547-0.764-3.452-0.794-3.532-0.021-0.063-0.057-0.117-0.103-0.16l-0-0c-0.105-0.107-0.117-0.11-0.567-0.11-0.411 0-0.422 0-0.5 0.074-0.086 0.079-0.122 0.216-0.111 0.42 0.006 0.115 0.045 0.27 0.688 2.784 0.663 2.587 0.751 2.943 0.787 3.177 0.046 0.3-0.050 0.713-0.208 0.893-0.032 0.037-0.037 0.039-0.084 0.032-0.028 0-0.12-0.027-0.204-0.051-0.268-0.078-0.362-0.072-0.462 0.028-0.096 0.096-0.137 0.248-0.138 0.51 0 0.256 0.028 0.34 0.159 0.473s0.324 0.208 0.595 0.23c0.164 0.012 0.22 0.012 0.33-0.002zM14.66 16.39c0.077-0.039 0.135-0.107 0.159-0.19l0.001-0.002c0.020-0.058 0.022-0.098 0.022-0.356 0-0.255-0.003-0.299-0.021-0.354-0.040-0.121-0.136-0.196-0.278-0.217-0.041-0.010-0.2-0.010-0.355-0.010-0.365-0.001-0.378-0.010-0.446-0.184-0.068-0.18-0.096-0.326-0.113-0.602-0.008-0.446-0.013-0.973-0.013-1.501 0-0.154 0-0.309 0.001-0.463l-0 0.024v-1.765h0.35c0.454 0 0.507-0.010 0.602-0.113 0.054-0.066 0.091-0.148 0.102-0.238l0-0.002c0.007-0.080 0.011-0.173 0.011-0.267s-0.004-0.187-0.012-0.279l0.001 0.012c-0.026-0.16-0.099-0.271-0.211-0.322-0.057-0.025-0.065-0.026-0.45-0.030h-0.392l-0.003-1.22c-0.003-1.090-0.005-1.227-0.021-1.278-0.028-0.11-0.102-0.198-0.199-0.246l-0.002-0.001c-0.052-0.024-0.072-0.025-0.32-0.029-0.27 0-0.356 0-0.429 0.038-0.087 0.042-0.148 0.133-0.185 0.278-0.014 0.054-0.032 0.346-0.076 1.262l-0.060 1.194c0 0-0.080 0-0.18 0.010-0.206 0.010-0.263 0.022-0.327 0.086-0.092 0.092-0.12 0.19-0.127 0.455-0.010 0.334 0.020 0.487 0.115 0.588 0.075 0.081 0.134 0.1 0.345 0.106l0.173 0.010v1.785c0 1.7 0.006 2.019 0.034 2.274 0.041 0.37 0.13 0.709 0.241 0.928 0.194 0.38 0.544 0.617 0.988 0.668h1.005zM7.213 16.39c0.098-0.053 0.16-0.154 0.2-0.332 0.016-0.077 0.018-0.401 0.018-4.518 0-4.184-0.001-4.44-0.020-4.51-0.050-0.194-0.19-0.29-0.378-0.26-0.035 0.010-0.344 0.084-0.686 0.175-0.343 0.090-0.684 0.18-0.758 0.198-0.17 0.043-0.214 0.062-0.281 0.126-0.105 0.098-0.122 0.185-0.122 0.606 0 0.416 0.016 0.5 0.12 0.604 0.094 0.095 0.189 0.1 0.456 0.030 0.103-0.026 0.193-0.048 0.2-0.048 0.010 0 0.014 0.784 0.017 3.763 0.003 3.436 0.005 3.77 0.021 3.84 0.048 0.202 0.113 0.296 0.236 0.34 0.034 0.013 0.133 0.016 0.487 0.014 0.435 0 0.445 0 0.49-0.028zM10.416 16.39c0.092-0.046 0.152-0.135 0.197-0.29l0.024-0.084 0.003-4.435c0.002-3.194 0-4.456-0.010-4.509-0.033-0.2-0.145-0.308-0.322-0.308-0.066 0-0.198 0.030-0.857 0.204-0.56 0.147-0.799 0.214-0.849 0.239-0.078 0.038-0.138 0.103-0.169 0.182l-0.001 0.002c-0.024 0.060-0.024 0.071-0.024 0.479 0 0.415 0 0.417 0.026 0.483 0.020 0.047 0.048 0.087 0.083 0.12l0 0c0.1 0.1 0.172 0.105 0.456 0.034 0.031-0.010 0.101-0.027 0.171-0.043l0.037-0.007c0.008 0 0.012 1.202 0.014 3.791l0.003 3.79 0.026 0.086c0.024 0.091 0.071 0.169 0.135 0.23l0 0c0.078 0.062 0.085 0.063 0.57 0.060 0.414 0 0.447 0 0.487-0.024z"/>
</svg>