<svg xmlns="http://www.w3.org/2000/svg" version="1.1" width="24" height="24" viewBox="0 0 24 24">
<path d="M15.629 9.619c1.421 1.429 2.58 3.766 1.917 5.152-1.778 3.715-15.040 10.226-16.169 9.1-1.125-1.125 5.391-14.395 9.104-16.174 1.388-0.66 3.724 0.51 5.152 1.92l-0.005 0.014zM22.657 8.053c-0.231-0.855-0.821-1.717-1.7-1.82-1.61-0.186-4.151 2.663-3.971 3.339 0.181 0.69 3.766 1.875 5.1 0.915 0.691-0.494 0.781-1.56 0.556-2.414zM17.666 0.158c1.198 0.324 2.407 1.148 2.551 2.382 0.261 2.259-3.732 5.819-4.68 5.564-0.948-0.251-2.618-5.284-1.269-7.162 0.695-0.972 2.201-1.106 3.399-0.788v0.004z"/>
</svg>