<svg xmlns="http://www.w3.org/2000/svg" version="1.1" width="24" height="24" viewBox="0 0 24 24">
<path d="M22.406 10.9c-0.858-1.084-2.006-1.903-3.327-2.344l-0.050-0.014v-0.085c0-4.035-3.156-7.324-7.047-7.324-3.893 0-7.050 3.282-7.050 7.325v0.1c-2.851 0.934-4.932 3.71-4.932 6.984 0 4.035 3.159 7.325 7.050 7.325 1.944-0.005 3.698-0.811 4.95-2.106l0.002-0.002c1.252 1.298 3.005 2.105 4.946 2.108h0.001c3.884 0 7.051-3.282 7.051-7.325-0.001-1.757-0.601-3.374-1.606-4.659l0.013 0.017zM16.95 21.014c-2.903 0-5.267-2.456-5.267-5.474 0-0.004 0-0.009 0-0.014 0-0.496-0.396-0.899-0.889-0.91l-0.001-0c-0.494 0.008-0.892 0.41-0.892 0.906 0 0.007 0 0.013 0 0.020l-0-0.001c0 1.368 0.367 2.651 0.994 3.748-0.947 1.063-2.318 1.73-3.844 1.733h-0.001c-2.904 0-5.27-2.457-5.27-5.474s2.366-5.473 5.27-5.473c0.63 0 1.241 0.117 1.827 0.335 0.007 0 0.013 0.007 0.020 0.007 0.203 0.071 0.489 0.21 0.578 0.287 0.152 0.139 0.355 0.224 0.578 0.224 0.271 0 0.513-0.126 0.67-0.322l0.001-0.002c0.134-0.162 0.215-0.371 0.215-0.599 0-0.278-0.12-0.527-0.311-0.7l-0.001-0.001c-0.39-0.342-0.995-0.575-1.144-0.63-0.717-0.28-1.548-0.443-2.417-0.443-0.003 0-0.006 0-0.009 0h0c-0.113 0-0.225 0-0.338 0.007 0.12-2.916 2.433-5.247 5.27-5.247 2.903 0 5.267 2.456 5.267 5.474 0 0.005 0 0.011 0 0.017 0 1.81-0.864 3.419-2.201 4.436l-0.014 0.010c-0.227 0.175-0.372 0.447-0.372 0.753 0 0.198 0.061 0.381 0.164 0.533l-0.002-0.003c0.171 0.25 0.45 0.39 0.727 0.39 0.195 0 0.374-0.065 0.518-0.174l-0.002 0.002c1.305-0.986 2.263-2.369 2.697-3.968l0.012-0.052c2.035 0.785 3.449 2.829 3.449 5.139-0.007 3.010-2.371 5.466-5.283 5.466z"/>
</svg>