<svg xmlns="http://www.w3.org/2000/svg" version="1.1" width="24" height="24" viewBox="0 0 24 24">
<path d="M24 8.182l-0.018-0.087-0.017-0.050c-0.010-0.024-0.018-0.050-0.030-0.075-0.003-0.018-0.015-0.034-0.020-0.050l-0.035-0.067-0.030-0.050-0.044-0.060-0.046-0.045-0.060-0.045-0.046-0.030-0.060-0.044-0.044-0.040-0.015-0.020-10.955-7.329c-0.347-0.232-0.796-0.232-1.142 0l-11.104 7.412-0.038 0.040-0.050 0.056-0.037 0.045-0.050 0.060c-0.020 0.017-0.030 0.030-0.030 0.046l-0.050 0.060-0.020 0.060c-0.020 0.010-0.020 0.040-0.030 0.070l-0.010 0.050c-0.019 0.031-0.019 0.061-0.019 0.091v7.497c0 0.044 0.003 0.090 0.010 0.135l0.010 0.046c0.005 0.030 0.010 0.060 0.020 0.086l0.015 0.050c0.010 0.027 0.016 0.053 0.027 0.075l0.022 0.050c0 0.010 0.015 0.040 0.030 0.060l0.030 0.040c0.015 0.010 0.030 0.040 0.045 0.060l0.030 0.040 0.040 0.040c0.010 0.013 0.010 0.030 0.030 0.030l0.060 0.042 0.040 0.030 0.010 0.014 10.97 7.33c0.164 0.12 0.375 0.163 0.57 0.163s0.39-0.060 0.57-0.18l11.158-7.406 0.052-0.058 0.033-0.045 0.040-0.060 0.030-0.050 0.030-0.070 0.016-0.052 0.030-0.077 0.015-0.045 0.030-0.080v-7.5c0-0.050 0-0.095-0.016-0.14l-0.014-0.045 0.044 0.003zM12.010 14.462l-3.65-2.44 3.65-2.442 3.65 2.44zM10.976 7.788l-4.473 2.99-3.613-2.416 8.086-5.39zM4.646 12.021l-2.582 1.73v-3.451zM6.503 13.271l4.473 2.99v4.82l-8.086-5.391 3.618-2.417zM13.040 16.261l4.474-2.98 3.613 2.42-8.087 5.39zM19.37 12.031l2.583-1.72v3.456zM17.515 10.791l-4.473-2.991v-4.83l8.085 5.39-3.612 2.415z"/>
</svg>