<svg xmlns="http://www.w3.org/2000/svg" version="1.1" width="24" height="24" viewBox="0 0 24 24">
<path d="M11.988 0c-0.002 0.001-0.003 0.002-0.005 0.002l0-0c-0.009 0.001-0.016 0.003-0.024 0.006l0.001-0c-0.002 0.001-0.003 0.002-0.005 0.002l0-0c-0.002 0.001-0.003 0.002-0.005 0.002l0-0-0.013 0.008-10.297 5.938c-0.003 0.001-0.006 0.003-0.008 0.004l0-0-0.004 0.002c-0.001 0.001-0.001 0.001-0.002 0.002l-0 0c-0.002 0.001-0.003 0.002-0.004 0.002l0-0c-0.001 0.001-0.001 0.001-0.002 0.002l-0 0c-0.002 0.001-0.003 0.002-0.004 0.002l0-0c-0.001 0.001-0.003 0.003-0.004 0.004l-0 0c-0.001 0.001-0.002 0.002-0.003 0.004l-0 0c-0.002 0.001-0.003 0.002-0.004 0.002l0-0c-0 0.001-0.001 0.002-0.002 0.003l-0 0.001c-0.001 0.001-0.003 0.003-0.004 0.004l-0 0c-0 0.001-0.001 0.002-0.002 0.003l-0 0.001c-0 0.001-0.001 0.002-0.002 0.003l-0 0.001c-0.001 0.001-0.003 0.003-0.004 0.004l-0 0c-0 0.001-0.001 0.002-0.002 0.003l-0 0.001c-0 0.001-0.001 0.002-0.002 0.003l-0 0.001c-0 0.001-0 0.001-0 0.002s0 0.001 0 0.002v-0c-0.001 0.001-0.001 0.003-0.002 0.005l-0 0.001c-0 0.001-0.001 0.002-0.002 0.003l-0 0.001c-0 0.001-0 0.001-0 0.002s0 0.001 0 0.002v-0c-0.001 0.001-0.001 0.003-0.002 0.005l-0 0.001c-0 0.001-0 0.001-0 0.002s0 0.001 0 0.002v-0c-0 0.001-0 0.001-0 0.002s0 0.001 0 0.002v-0c-0 0.001-0 0.002-0 0.003s0 0.002 0 0.003v-0c-0 0.002-0 0.005-0 0.007s0 0.005 0 0.007l-0-0v11.876c-0 0.002-0 0.003-0 0.005s0 0.004 0 0.005v-0 0.004c-0 0.001-0 0.002-0 0.003s0 0.002 0 0.003v-0c-0 0.001-0 0.001-0 0.002s0 0.001 0 0.002v-0c-0 0.001-0 0.001-0 0.002s0 0.001 0 0.002v-0c0.001 0.002 0.002 0.003 0.002 0.005l-0-0c-0 0.001-0 0.002-0 0.003s0 0.002 0 0.003v-0c0.001 0.002 0.002 0.003 0.002 0.005l-0-0c0.001 0.003 0.001 0.005 0.002 0.007l-0-0.001c0.001 0.003 0.003 0.006 0.004 0.008l-0-0c0.001 0.002 0.002 0.003 0.002 0.005l-0-0c0.001 0.002 0.002 0.003 0.002 0.005l-0-0c0.001 0.002 0.002 0.003 0.002 0.005l-0-0c0.001 0.001 0.003 0.003 0.004 0.004l0 0c0.001 0.002 0.002 0.003 0.002 0.005l-0-0c0.001 0.001 0.003 0.003 0.004 0.004l0 0c0.001 0.001 0.001 0.001 0.002 0.002l0 0c0.001 0.002 0.002 0.003 0.003 0.004l-0-0c0.001 0 0.002 0.001 0.003 0.002l0.001 0c0.001 0.001 0.003 0.003 0.004 0.004l0 0c0.001 0 0.002 0.001 0.003 0.002l0.001 0c0.001 0 0.002 0.001 0.003 0.002l0.001 0c0.003 0.002 0.007 0.004 0.011 0.006l0.001 0 10.304 5.942c0.001 0.001 0.001 0.001 0.002 0.002l0 0 0.004 0.002c0.004 0.003 0.009 0.005 0.013 0.008l0.001 0c0 0 0.001 0 0.002 0s0.001 0 0.002-0h-0c0.001 0 0.002 0.001 0.003 0.002l0.001 0c0.001 0 0.002 0.001 0.003 0.002l0.001 0c0.001 0 0.002 0 0.003 0s0.002-0 0.003-0h-0c0.001 0 0.001 0 0.002 0s0.001 0 0.002-0h-0c0.001 0.001 0.003 0.001 0.005 0.002l0.001 0c0.001 0 0.001 0 0.002 0s0.001 0 0.002-0h-0c0.006-0 0.012-0.001 0.018-0.002l-0.001 0c0.004-0.001 0.007-0.001 0.011-0.002l-0.001 0c0.005-0.002 0.010-0.004 0.014-0.006l-0 0c0.003-0.001 0.006-0.003 0.008-0.004l-0 0 0.006-0.004c0.002-0.001 0.004-0.003 0.006-0.004l-0 0 10.29-5.934c0.006-0.002 0.011-0.005 0.016-0.008l-0 0 0.004-0.002c0.002-0.001 0.004-0.002 0.006-0.002l-0.001 0c0.001-0.001 0.001-0.001 0.002-0.002l0-0c0.001-0.001 0.003-0.003 0.004-0.004l0-0c0.002-0.001 0.003-0.002 0.005-0.002l-0 0c0.001-0.001 0.003-0.003 0.004-0.004l0-0c0.001-0.001 0.003-0.003 0.004-0.004l0-0c0.001-0.001 0.001-0.001 0.002-0.002l0-0c0.001-0.001 0.003-0.003 0.004-0.004l0-0c0-0.001 0.001-0.002 0.002-0.003l0-0.001c0-0.001 0.001-0.002 0.002-0.003l0-0.001c0.001-0.001 0.003-0.003 0.004-0.004l0-0c0-0.001 0.001-0.002 0.002-0.003l0-0.001c0.001-0.001 0.001-0.003 0.002-0.005l0-0.001c0-0.001 0-0.001 0-0.002s0-0.001-0-0.002v0c0-0.001 0.001-0.002 0.002-0.003l0-0.001c0-0.001 0.001-0.002 0.002-0.003l0-0.001c0-0.001 0-0.002 0-0.003s-0-0.002-0-0.003v0c0-0.001 0.001-0.002 0.002-0.003l0-0.001c0-0.001 0-0.001 0-0.002s0-0.001-0-0.002v0c0-0.001 0-0.002 0-0.003s-0-0.002-0-0.003v0c0-0.001 0-0.001 0-0.002s0-0.001-0-0.002v0-0.006c0-0.001 0-0.003 0-0.004s-0-0.003-0-0.004v0-11.878c0-0.002 0-0.004 0-0.006s-0-0.004-0-0.006l0 0c0-0.001 0-0.002 0-0.003s-0-0.002-0-0.003v0c0-0.001 0-0.001 0-0.002s0-0.001-0-0.002v0c0-0.001 0-0.002 0-0.003s-0-0.002-0-0.003v0c-0.001-0.002-0.002-0.003-0.002-0.005l0 0c0-0.001 0-0.001 0-0.002s0-0.001-0-0.002v0c-0.001-0.002-0.002-0.003-0.002-0.005l0 0c0-0 0-0.001 0-0.001s0-0.001 0-0.001v0c-0.001-0.002-0.002-0.003-0.002-0.005l0 0c-0.001-0.003-0.003-0.006-0.004-0.008l0 0c-0.001-0.001-0.001-0.001-0.002-0.002l-0-0c-0.001-0.003-0.001-0.006-0.002-0.009l0 0.001c-0.001-0.001-0.001-0.001-0.002-0.002l-0-0c-0.001-0.001-0.003-0.003-0.004-0.004l-0-0c-0.001-0.002-0.002-0.003-0.002-0.005l0 0c-0.001-0.001-0.003-0.003-0.004-0.004l-0-0c-0.001-0.002-0.002-0.003-0.002-0.005l0 0c-0.001-0-0.002-0.001-0.003-0.002l-0.001-0c-0.001-0.001-0.003-0.003-0.004-0.004l-0-0c-0.001-0-0.002-0.001-0.003-0.002l-0.001-0c-0.001-0-0.002-0.001-0.003-0.002l-0-0c-0.005-0.004-0.010-0.007-0.015-0.010l-0.001-0-10.298-5.938c-0.002-0.001-0.004-0.003-0.006-0.004l-0-0-0.003-0.002c-0.002-0.001-0.005-0.003-0.007-0.004l-0.001-0c-0.001-0-0.002-0.001-0.003-0.002l-0.001-0c-0.003-0.001-0.006-0.003-0.009-0.004l-0.001-0c-0.001-0-0.001-0-0.002-0s-0.001 0-0.002 0h0c-0.001-0-0.002-0.001-0.003-0.002l-0.001-0c-0.001-0-0.003-0.001-0.004-0.002l-0.001-0c-0.001-0-0.001-0-0.002-0s-0.001 0-0.002 0h0c-0.001-0-0.002-0-0.003-0s-0.002 0-0.003 0h0c-0.001-0-0.001-0-0.002-0s-0.001 0-0.002 0h0c-0.001-0-0.001-0-0.002-0s-0.001 0-0.002 0h0c-0.001-0-0.003-0-0.005-0s-0.003 0-0.005 0h0zM11.906 0.256v4.388l-6.231 3.618-3.812-2.216zM12.093 0.256l10.043 5.79-3.812 2.216-6.23-3.618zM12 4.804l6.139 3.565-6.14 3.519-6.138-3.519zM1.77 6.208l3.813 2.216v7.146l-3.813 2.217zM22.23 6.208v11.579l-3.814-2.216v-7.147zM5.769 8.53l6.137 3.519v7.084l-6.137-3.563zM18.231 8.53v7.040l-6.138 3.563v-7.083zM5.675 15.73l6.23 3.62v4.388l-10.044-5.79zM18.325 15.73l3.813 2.218-10.045 5.79v-4.388l3.117-1.81z"/>
</svg>