<svg xmlns="http://www.w3.org/2000/svg" version="1.1" width="24" height="24" viewBox="0 0 24 24">
<path d="M11.146 0h3.924v18.165c-2.013 0.382-3.491 0.535-5.096 0.535-4.791 0-7.288-2.166-7.288-6.32 0-4.001 2.65-6.6 6.753-6.6 0.637 0 1.121 0.051 1.707 0.204zM11.146 9.143c-0.372-0.13-0.8-0.205-1.246-0.205-0.028 0-0.055 0-0.083 0.001l0.004-0c-1.988 0-3.134 1.223-3.134 3.364 0 2.090 1.096 3.236 3.109 3.236 0.433 0 0.79-0.025 1.35-0.102zM21.314 6.060v9.097c0 3.134-0.229 4.638-0.917 5.937-0.637 1.249-1.478 2.039-3.211 2.905l-3.644-1.733c1.733-0.815 2.574-1.529 3.109-2.625 0.561-1.121 0.739-2.421 0.739-5.835v-7.747zM17.39 0.021h3.924v4.026h-3.924z"/>
</svg>