<svg xmlns="http://www.w3.org/2000/svg" version="1.1" width="24" height="24" viewBox="0 0 24 24">
<path d="M15.6 11.28v1.44c0 0.265-0.215 0.48-0.48 0.48v0h-6.24c-0.265 0-0.48-0.215-0.48-0.48v0-1.44c0-0.265 0.215-0.48 0.48-0.48v0h6.24c0.265 0 0.48 0.215 0.48 0.48v0zM12 15.6c-0.663 0-1.2 0.537-1.2 1.2s0.537 1.2 1.2 1.2v0c0.663 0 1.2-0.537 1.2-1.2s-0.537-1.2-1.2-1.2v0zM15.12 7.2h-6.24c-0.265 0-0.48 0.215-0.48 0.48v0 1.44c0 0.265 0.215 0.48 0.48 0.48h6.24c0.265 0 0.48-0.215 0.48-0.48v0-1.44c0-0.265-0.215-0.48-0.48-0.48v0zM23.16 3.996l-1.716 14.736-9.468 5.268-9.456-5.268-1.68-14.736 11.136-3.996zM16.8 6.24c0-0.795-0.645-1.44-1.44-1.44v0h-6.72c-0.795 0-1.44 0.645-1.44 1.44v0 11.52c0 0.795 0.645 1.44 1.44 1.44h6.72c0.795 0 1.44-0.645 1.44-1.44v0z"/>
</svg>