<svg xmlns="http://www.w3.org/2000/svg" version="1.1" width="24" height="24" viewBox="0 0 24 24">
<path d="M12.725 0c-1.611 0-3.175 0.317-4.647 0.943-1.475 0.637-2.734 1.505-3.792 2.572l-0.001 0.001c-2.16 2.167-3.495 5.158-3.495 8.46 0 0.009 0 0.017 0 0.026v-0.001c-0 0.007-0 0.015-0 0.023 0 3.303 1.336 6.293 3.496 8.461l-0-0c1.059 1.068 2.318 1.936 3.716 2.543l0.077 0.030c1.472 0.626 3.042 0.943 4.652 0.943 0.867 0 1.718-0.094 2.565-0.28v-2.534c-0.769 0.224-1.652 0.353-2.565 0.353h-0c-0.006 0-0.012 0-0.019 0-2.617 0-4.985-1.069-6.69-2.794l-0.001-0.001c-1.718-1.719-2.781-4.094-2.781-6.717 0-0.010 0-0.019 0-0.029v0.001c-0-0.009-0-0.020-0-0.031 0-2.621 1.062-4.994 2.778-6.713l-0 0c1.705-1.726 4.071-2.795 6.688-2.795 0.007 0 0.014 0 0.021 0h-0.001c4.439 0 8.037 3.618 8.037 8.082 0 1.647-0.49 3.181-1.332 4.459l-2.090-5.166c-0.306-0.755-0.67-1.895-2.059-1.895-1.387 0-1.75 1.14-2.054 1.895l-1.922 4.771-2.578-6.544h-2.71l3.213 7.95c0.326 0.807 0.68 1.897 2.077 1.897 1.395 0 1.747-1.090 2.072-1.896l1.904-4.727 1.914 4.727c0.387 0.973 0.797 1.894 2.070 1.894 0.903 0 1.475-0.583 1.788-0.959 1.345-1.751 2.156-3.975 2.156-6.388 0-0.006 0-0.013-0-0.019v0.001c-0.001-5.823-4.695-10.543-10.486-10.543z"/>
</svg>