<svg xmlns="http://www.w3.org/2000/svg" version="1.1" width="24" height="24" viewBox="0 0 24 24">
<path d="M12.005 0.040l-7.030 7.030c-1.8 1.783-2.915 4.255-2.915 6.987s1.115 5.205 2.914 6.987l0.001 0.001c1.783 1.8 4.255 2.915 6.988 2.915s5.205-1.115 6.987-2.914l0.001-0.001c3.97-3.887 3.972-10.171 0.084-13.976l-1.738 1.737c2.895 2.895 2.895 7.608 0 10.503-2.894 2.894-7.608 2.894-10.503 0-2.894-2.895-2.894-7.609 0-10.503l4.632-4.631 0.58-0.663zM15.561 3.926c-0.731 0-1.323 0.592-1.323 1.323v0c0 0.731 0.592 1.323 1.323 1.323v0c0.731 0 1.323-0.592 1.323-1.323v0c0-0.731-0.592-1.323-1.323-1.323v0z"/>
</svg>