<svg xmlns="http://www.w3.org/2000/svg" version="1.1" width="24" height="24" viewBox="0 0 24 24">
<path d="M5.537 0.763c-1.167 0.7-2.21 1.582-3.080 2.61l1.333 1.463c0.972-1.206 2.183-2.178 3.565-2.854l0.062-0.027zM18.565 0.848l-1.991 1.12c1.511 0.737 2.771 1.776 3.744 3.045l0.018 0.025 1.18-1.654c-0.84-0.987-1.813-1.828-2.899-2.506l-0.052-0.030zM12.001 1.6c-0.003 0-0.006 0-0.010 0-1.496 0-2.913 0.335-4.181 0.935l0.060-0.025 0.59 1.011c1.036-0.481 2.248-0.762 3.527-0.762 0.005 0 0.010 0 0.015 0h-0.001c1.261 0 2.457 0.274 3.534 0.76l0.59-1.012c-1.208-0.573-2.625-0.907-4.12-0.907-0.001 0-0.003 0-0.004 0h0zM11.4 3.535l-0.55 6.626h0.003l-0.002 0.040c0.003 0.111 0.013 0.216 0.033 0.318 0.010 0.112 0.043 0.227 0.097 0.342 0.114 0.289 0.298 0.505 0.516 0.607 0.050 0.040 0.105 0.075 0.158 0.111 0.016 0.009 0.026 0.016 0.037 0.022l-0.004-0.002v0.004l6.68 3.596 0.348-0.476-6.058-4.6c-0.007 0-0.010-0.005-0.014-0.008l-0.644-6.58zM12.823 3.587c0.19 0.234 0.361 0.523 0.502 0.855 3.155 0.604 5.54 3.325 5.54 6.596 0 0.877-0.176 1.712-0.484 2.48 0.197 0.221 0.37 0.471 0.51 0.74l0.010 0.020c0.476-0.943 0.754-2.056 0.754-3.234 0-0.002 0-0.004 0-0.006v0c0-3.868-2.99-7.050-6.832-7.451zM10.539 3.682c-3.527 0.667-6.19 3.708-6.19 7.356 0 2.584 1.335 4.863 3.367 6.21 0.111-0.319 0.211-0.564 0.32-0.805l-0.025 0.062c-1.74-1.219-2.874-3.214-2.874-5.467 0-3.054 2.082-5.632 4.932-6.45 0.128-0.351 0.289-0.656 0.47-0.906zM19.689 5.357l-0.801 0.893c0.969 1.319 1.551 2.975 1.551 4.767 0 0.004 0 0.007 0 0.011v-0.001c0 2.916-1.542 5.481-3.872 6.952 0.104 0.388 0.188 0.792 0.251 1.209 2.87-1.632 4.802-4.677 4.802-8.16 0-0.007 0-0.015 0-0.023 0-2.137-0.727-4.104-1.946-5.668l0.015 0.021zM4.309 5.364c-1.204 1.546-1.93 3.516-1.93 5.655 0 0.003 0 0.007 0 0.010v-0.001c0 3.507 1.954 6.567 4.858 8.19 0.063-0.418 0.144-0.822 0.248-1.206-2.36-1.468-3.923-4.045-3.923-6.984 0-1.777 0.573-3.422 1.549-4.772zM13.623 5.407c0.044 0.203 0.080 0.416 0.107 0.64 1.448 0.486 2.594 1.534 3.199 2.878l0.014 0.034 0.577-0.148c-0.72-1.661-2.128-2.908-3.855-3.394l-0.042-0.010zM9.807 5.594c-1.5 0.59-2.676 1.727-3.304 3.16l-0.015 0.038 0.58 0.148c0.541-1.195 1.472-2.134 2.629-2.669l0.033-0.014c0.017-0.227 0.040-0.45 0.077-0.663zM6.733 9.672l-0.62 0.63 0.315 0.614 1.727 0.618 0.942-0.618-0.312-0.923zM17.348 9.672l-2.048 0.321-0.315 0.923 0.942 0.618 1.73-0.618 0.315-0.614zM6.1 11.869c0.245 1.582 1.096 2.928 2.304 3.82l0.016 0.011c0.1-0.17 0.204-0.335 0.315-0.493-1.059-0.797-1.802-1.965-2.034-3.309l-0.004-0.031zM17.306 11.869c-0.030 0.18-0.071 0.355-0.118 0.529 0.174 0.138 0.338 0.272 0.493 0.41 0.097-0.302 0.174-0.617 0.22-0.94zM1.627 12.086l-1.627 2.072c0.966 3.661 3.638 6.65 7.132 8.111-0.032-0.291-0.050-0.628-0.050-0.97 0-0.021 0-0.043 0-0.064l-0 0.003c0-0.375 0.017-0.747 0.050-1.111-3.024-1.563-5.166-4.544-5.505-8.041zM22.334 12.141c-0.352 3.45-2.464 6.394-5.441 7.957 0.033 0.374 0.050 0.755 0.053 1.136 0 0.377-0.017 0.71-0.050 1.005 3.506-1.488 6.175-4.522 7.104-8.223zM15.79 14.758c-0.149 0.145-0.307 0.283-0.474 0.411l-0.012 0.009c0.11 0.158 0.218 0.322 0.318 0.493 0.265-0.2 0.513-0.42 0.74-0.66-0.261-0.105-0.45-0.19-0.635-0.281l0.063 0.028zM17.292 15.317c-0.368 0.435-0.778 0.815-1.23 1.142l-0.020 0.014c0.106 0.236 0.207 0.485 0.294 0.741 0.723-0.492 1.337-1.079 1.843-1.752l0.014-0.020c-0.322-0.003-0.632-0.049-0.926-0.131l0.025 0.006zM14.304 15.947l-2.303 0.913-2.307-0.91-0.587 1.435 2.448 0.946c-0.134 0.46-0.568 0.798-1.080 0.798-0.034 0-0.070-0.004-0.104-0.007l-0.5 0.686c0.188 0.063 0.39 0.096 0.6 0.096 0.621 0 1.17-0.289 1.52-0.738 0.355 0.452 0.902 0.739 1.516 0.739 0.239 0 0.469-0.044 0.68-0.124l-0.013 0.004-0.49-0.67c-0.054 0.009-0.116 0.014-0.18 0.014-0.512 0-0.944-0.343-1.078-0.812l-0.002-0.008 2.47-0.926zM15.46 20.722c-1.090 0.377-2.256 0.58-3.476 0.58-1.17 0-2.29-0.186-3.34-0.534 0.231 0.88 0.59 1.654 1.050 2.262 0.743 0.134 1.509 0.207 2.294 0.207 0.835 0 1.65-0.082 2.437-0.236 0.453-0.61 0.807-1.39 1.035-2.279z"/>
</svg>