<svg xmlns="http://www.w3.org/2000/svg" version="1.1" width="24" height="24" viewBox="0 0 24 24">
<path d="M12 0.365c-6.615 0-12 5.332-12 11.895 0 4.36 2.358 8.154 5.896 10.205l0.77-5.076c-1.137-1.24-1.836-2.897-1.846-4.717v-0.002c0-3.897 3.18-7.076 7.13-7.076 3.948 0 7.126 3.179 7.126 7.076 0 1.847-0.717 3.488-1.846 4.77l0.77 5.078c3.59-2.051 6-5.899 6-10.258 0-6.563-5.385-11.895-12-11.895zM11.95 8.521c-0.003 0-0.006-0-0.010-0-2.091 0-3.786 1.695-3.786 3.786 0 0.003 0 0.006 0 0.010v-0c-0 0.008-0 0.017-0 0.027 0 1.606 1.013 2.976 2.435 3.505l0.026 0.008-1.485 7.794h5.64l-1.435-7.795c1.385-0.564 2.41-1.898 2.41-3.539 0-0.003 0-0.006 0-0.009 0-2.091-1.695-3.786-3.786-3.786-0.003 0-0.006 0-0.009 0h0z"/>
</svg>