<svg xmlns="http://www.w3.org/2000/svg" version="1.1" width="24" height="24" viewBox="0 0 24 24">
<path d="M4.145 23.996c0.12-0.463 0.23-0.9 0.343-1.338 0.692-2.713 1.322-5.44 1.82-8.197 0.245-1.35 0.446-2.71 0.633-4.074 0.142-1.028 0.217-2.064 0.198-3.105-0.010-0.557-0.034-1.116-0.193-1.655-0.070-0.24-0.174-0.473-0.3-0.686-0.165-0.273-0.43-0.378-0.75-0.368-0.883 0.026-1.633 0.363-2.272 0.96-0.727 0.68-1.202 1.527-1.553 2.445-0.166 0.435-0.284 0.887-0.422 1.33-0.020 0.066-0.026 0.123-0.115 0.122-0.494-0.006-0.989-0.005-1.484-0.006-0.013 0-0.024-0.008-0.036-0.010 0-0.193-0.020-0.385 0.003-0.572 0.346-2.853 1.57-5.267 3.668-7.226 0.785-0.734 1.715-1.243 2.777-1.474 1.555-0.338 2.796 0.258 3.534 1.68 0.375 0.72 0.578 1.496 0.71 2.293 0.21 1.287 0.218 2.586 0.175 3.885-0.014 0.42-0.040 0.84-0.062 1.26-0.002 0.054 0 0.108 0 0.176 0.057 0.003 0.105 0.008 0.154 0.008 0.905 0 1.81-0.002 2.717 0.005 0.124 0 0.16-0.047 0.18-0.16 0.575-3.113 1.367-6.17 2.39-9.166 0.024-0.074 0.050-0.124 0.147-0.124 1.12 0.004 2.24 0.004 3.362 0.004 0.017 0 0.035 0.004 0.070 0.008l-0.193 0.753c-0.756 2.936-1.436 5.886-1.986 8.864-0.288 1.546-0.533 3.1-0.69 4.664-0.086 0.875-0.14 1.752-0.113 2.63 0.016 0.53 0.054 1.062 0.22 1.57 0.064 0.202 0.16 0.4 0.273 0.58 0.167 0.26 0.426 0.366 0.74 0.356 1.16-0.033 2.042-0.59 2.746-1.47 0.707-0.88 1.133-1.9 1.434-2.98 0.028-0.1 0.060-0.202 0.076-0.306 0.014-0.082 0.054-0.104 0.13-0.104 0.467 0.002 0.933 0.004 1.4 0 0.102-0.002 0.12 0.043 0.117 0.13-0.014 0.804-0.157 1.583-0.39 2.347-0.59 1.928-1.557 3.635-2.992 5.060-0.813 0.81-1.762 1.407-2.88 1.706-0.677 0.183-1.355 0.212-2.025-0.028-0.76-0.27-1.276-0.816-1.66-1.504-0.402-0.725-0.613-1.512-0.75-2.322-0.24-1.406-0.24-2.824-0.172-4.242 0.042-0.89 0.127-1.777 0.193-2.666 0.014-0.19 0.016-0.19-0.174-0.19-0.855 0-1.71 0.002-2.566-0.002-0.104 0-0.153 0.024-0.17 0.137-0.27 1.813-0.637 3.608-1.074 5.387-0.453 1.842-0.974 3.664-1.587 5.46-0.044 0.127-0.104 0.16-0.233 0.16-1.065-0.006-2.13-0.004-3.197-0.004z"/>
</svg>