<svg xmlns="http://www.w3.org/2000/svg" version="1.1" width="24" height="24" viewBox="0 0 24 24">
<path d="M12.008 9.597c0.022-0 0.049-0 0.075-0 3.105 0 5.623 2.517 5.623 5.623s-2.517 5.623-5.623 5.623c-0.026 0-0.053-0-0.079-0.001l0.004 0c-3.073-0.042-5.548-2.543-5.548-5.622s2.475-5.58 5.544-5.622l0.004-0zM0.154 8.717l3.020 3.574c0.118 0.14 0.293 0.228 0.49 0.228 0.163 0 0.311-0.061 0.424-0.161l-0.001 0.001c4.885-4.379 10.97-4.379 15.84 0 0.113 0.1 0.262 0.161 0.425 0.161 0.197 0 0.373-0.088 0.49-0.228l0.001-0.001 3.006-3.574c0.094-0.111 0.151-0.257 0.151-0.415 0-0.196-0.087-0.372-0.225-0.49l-0.001-0.001c-7.1-6.204-16.462-6.204-23.555 0-0.134 0.12-0.219 0.293-0.219 0.486 0 0.16 0.058 0.307 0.154 0.421l-0.001-0.001z"/>
</svg>