<svg xmlns="http://www.w3.org/2000/svg" version="1.1" width="24" height="24" viewBox="0 0 24 24">
<path d="M3.412 1.32c-1.178 0-1.584 0.122-2.031 0.366-0.435 0.233-0.782 0.58-1.010 1.001l-0.006 0.013c-0.243 0.448-0.365 0.853-0.365 2.071v9.137c0 1.178 0.122 1.585 0.365 2.031 0.244 0.447 0.57 0.772 1.016 1.016 0.406 0.244 0.813 0.365 2.031 0.365h2.72l1.138-1.34h-4.264c-0.325 0.041-0.69-0.001-1.016-0.164-0.203-0.080-0.366-0.283-0.488-0.486-0.122-0.325-0.203-0.65-0.162-1.016v-9.908c-0.040-0.325 0-0.69 0.162-1.015 0.081-0.203 0.285-0.365 0.488-0.487 0.325-0.122 0.65-0.204 1.016-0.164h17.867c0.325-0.040 0.69 0.002 1.016 0.164 0.203 0.082 0.364 0.284 0.486 0.487 0.122 0.324 0.203 0.65 0.162 1.015v9.95c0.040 0.324 0 0.69-0.162 1.015-0.081 0.203-0.283 0.365-0.486 0.486-0.325 0.122-0.65 0.203-1.016 0.163h-4.264l1.137 1.341 2.803-0.040c1.218 0 1.623-0.122 2.070-0.366 0.435-0.234 0.782-0.581 1.010-1.003l0.006-0.013c0.243-0.406 0.365-0.813 0.365-2.030v-9.139c0-1.218-0.122-1.623-0.365-2.070-0.234-0.434-0.581-0.781-1.003-1.009l-0.013-0.006c-0.447-0.244-0.852-0.366-2.070-0.366zM11.863 13.518c-0.15 0.006-0.282 0.078-0.369 0.186l-0.001 0.001-7.106 8.162c-0.076 0.083-0.123 0.193-0.123 0.315 0 0.004 0 0.008 0 0.011v-0.001c-0 0.005-0 0.011-0 0.017 0 0.26 0.21 0.47 0.47 0.47 0.006 0 0.013-0 0.019-0l-0.001 0h14.293c0.122 0 0.245-0.040 0.326-0.121 0.203-0.163 0.204-0.489 0.041-0.692l-7.148-8.202c-0.104-0.091-0.241-0.147-0.391-0.147-0.003 0-0.007 0-0.010 0h0.001z"/>
</svg>