<svg xmlns="http://www.w3.org/2000/svg" version="1.1" width="24" height="24" viewBox="0 0 24 24">
<path d="M10.617 11.473l4.686 3.695-3.102-7.662zM12 0c-6.629 0-12 5.371-12 12s5.371 12 12 12 12-5.371 12-12-5.371-12-12-12zM17.797 17.305c-0.011 0.471-0.403 0.842-0.875 0.83-0.236 0-0.416-0.090-0.664-0.293l-6.19-5-2.079 5.203h-1.798l5.247-12.605c0.124-0.314 0.427-0.52 0.764-0.506 0.326-0.014 0.63 0.189 0.742 0.506l4.774 11.494c0.045 0.111 0.080 0.234 0.080 0.348-0.001 0.009-0.001 0.009-0.001 0.023z"/>
</svg>