<svg xmlns="http://www.w3.org/2000/svg" version="1.1" width="24" height="24" viewBox="0 0 24 24">
<path d="M23.055 7.328c-0.604-1.428-1.47-2.714-2.569-3.813-1.104-1.101-2.386-1.964-3.814-2.571-1.483-0.629-3.053-0.944-4.672-0.944s-3.19 0.318-4.672 0.945c-1.428 0.604-2.711 1.47-3.813 2.57-1.101 1.1-1.964 2.385-2.572 3.813-0.628 1.482-0.943 3.052-0.943 4.672 0 1.619 0.318 3.189 0.945 4.671 0.604 1.429 1.47 2.714 2.569 3.814 1.103 1.1 2.386 1.964 3.813 2.57 1.483 0.631 3.053 0.945 4.673 0.945 1.619 0 3.189-0.314 4.671-0.944 1.429-0.601 2.711-1.471 3.814-2.564 1.1-1.095 1.964-2.386 2.57-3.811 0.63-1.47 0.944-3.045 0.944-4.665 0-1.619-0.314-3.18-0.944-4.664zM12 22.335c-5.707 0-10.335-4.628-10.335-10.335s4.628-10.335 10.335-10.335 10.335 4.628 10.335 10.335-4.628 10.335-10.335 10.335zM15.242 4.121h-6.485c-0.922 0-1.7 0.324-2.333 0.975-0.635 0.644-0.953 1.425-0.953 2.334v10.182c0 0.449 0.135 0.81 0.4 1.095 0.267 0.269 0.615 0.42 1.051 0.42 0.445 0 0.805-0.135 1.079-0.405 0.272-0.271 0.409-0.63 0.409-1.080v-10.562h2.141v10.529c0 0.445 0.131 0.806 0.391 1.080 0.259 0.273 0.611 0.411 1.059 0.411 0.446 0 0.799-0.138 1.059-0.411 0.26-0.274 0.39-0.635 0.39-1.080v-10.529h2.142v10.529c0 0.445 0.135 0.806 0.408 1.080 0.275 0.273 0.635 0.411 1.080 0.411 0.435 0 0.783-0.141 1.050-0.423 0.268-0.28 0.401-0.638 0.401-1.069v-10.182c0-0.91-0.318-1.688-0.953-2.336-0.633-0.648-1.41-0.975-2.334-0.975z"/>
</svg>