<svg xmlns="http://www.w3.org/2000/svg" version="1.1" width="24" height="24" viewBox="0 0 24 24">
<path d="M15.826 15.069c0.562 0 1.017 0.456 1.017 1.018s-0.456 1.018-1.018 1.018c-0 0-0 0-0.001 0h0c-0.562-0-1.017-0.456-1.017-1.018s0.456-1.018 1.018-1.018c0 0 0 0 0.001 0h-0zM21.327 1.11c0 0 0 0 0 0 0.562 0 1.018 0.456 1.018 1.018s-0.455 1.018-1.017 1.018h-0c-0 0-0 0-0 0-0.562 0-1.018-0.456-1.018-1.018s0.455-1.018 1.017-1.018h0zM3.322 3.107h16.116c0.362 0.689 1.072 1.15 1.89 1.151h0c1.174 0 2.129-0.955 2.129-2.13-0.002-1.175-0.955-2.127-2.13-2.128h-0c-0.89 0-1.654 0.55-1.97 1.329h-16.036c-1.557 0-2.778 1.181-2.778 2.69v17.156c0 1.531 1.273 2.825 2.779 2.825h17.155c1.51 0 2.738-1.267 2.738-2.825v-10.177c0-1.532-1.228-2.78-2.738-2.78h-10.177c-1.553 0-2.866 1.274-2.866 2.78v3.198c0 1.484 1.286 2.691 2.866 2.691h3.554c0.325 0.785 1.085 1.328 1.972 1.329h0c1.174 0 2.129-0.956 2.129-2.13s-0.955-2.129-2.13-2.129c-0.818 0.001-1.528 0.463-1.883 1.14l-0.006 0.012h-3.636c-0.523 0-1.088-0.349-1.088-0.913v-3.198c0-0.524 0.519-1 1.088-1h10.177c0.538 0 0.96 0.439 0.96 1v10.177c0 0.567-0.44 1.047-0.96 1.047h-17.155c-0.533 0-1-0.49-1-1.047v-17.155c0-0.52 0.43-0.912 1-0.912z"/>
</svg>