<svg xmlns="http://www.w3.org/2000/svg" version="1.1" width="24" height="24" viewBox="0 0 24 24">
<path d="M22.6 5.5c-0.897-1.705-2.221-3.080-3.832-4.015l-0.048-0.025c-1.571-0.894-3.452-1.422-5.456-1.422-0.065 0-0.129 0.001-0.194 0.002l0.010-0h-12.9l6.91 4h5.99c1.94 0 3.41 0.62 4.42 1.88 1 1.25 1.5 3.080 1.5 5.51v1.27c-0.010 2.34-0.53 4.14-1.55 5.4s-2.5 1.89-4.42 1.89h-6.17l-6.86 3.96h13.13c2.090 0 3.97-0.49 5.63-1.44s2.95-2.3 3.87-4.020 1.37-3.7 1.37-5.93v-1.1c0-2.22-0.47-4.2-1.4-5.96zM0.13 3.96v16.1l13.94-8.060z"/>
</svg>