<svg xmlns="http://www.w3.org/2000/svg" version="1.1" width="24" height="24" viewBox="0 0 24 24">
<path d="M18.090 14.696c-1.512 0.664-2.726 1.885-3.381 3.399l4.27 0.883-0.886-4.282zM2.475 8.317l-2.475-2.467c1.125-2.613 3.216-4.71 5.823-5.85h0.006l2.469 2.463c1.368-0.591 2.876-0.921 4.463-0.921 6.206 0 11.239 5.027 11.239 11.229s-5.033 11.229-11.239 11.229c-6.21 0-11.241-5.024-11.241-11.229 0-1.591 0.355-3.081 0.952-4.451l9.143 9.114c1.125-2.613 3.218-4.71 5.823-5.85l-9.143-9.12c-2.606 1.14-4.695 3.24-5.823 5.85z"/>
</svg>