<svg xmlns="http://www.w3.org/2000/svg" version="1.1" width="24" height="24" viewBox="0 0 24 24">
<path d="M12.178 0.002c-0.052-0.001-0.113-0.001-0.174-0.001-3.315 0-6.316 1.344-8.488 3.516l-0 0c-2.171 2.172-3.514 5.172-3.514 8.485s1.343 6.313 3.514 8.485l-0-0c2.172 2.171 5.172 3.514 8.485 3.514s6.313-1.343 8.485-3.514l-0 0c2.171-2.172 3.514-5.172 3.514-8.485s-1.343-6.313-3.514-8.485l0 0c-2.131-2.131-5.059-3.465-8.299-3.515l-0.009-0zM7.77 5.995c0.562 0.128 1.050 0.217 1.663 0.217 0.921 0 1.863-0.217 2.786-0.217 1.79 0 3.45 0.814 3.45 2.8 0 1.54-0.921 2.517-2.35 2.93l2.788 4.107h1.301v1.010h-1.986l-3.293-4.934h-1.757v3.924h1.718v1.010h-4.32v-1.010h1.483v-8.698l-1.483-0.183zM12.236 7.007c-0.596 0-1.213 0.053-1.864 0.127v3.798l0.941 0.020c2.298 0.034 3.183-0.85 3.183-2.026 0-1.376-0.997-1.919-2.26-1.919z"/>
</svg>