<svg xmlns="http://www.w3.org/2000/svg" version="1.1" width="24" height="24" viewBox="0 0 24 24">
<path d="M16.934 8.519c0.118 0.060 0.218 0.137 0.302 0.229l0.001 0.001 2.349-1.045-2.192-2.171-0.491 2.954zM12.060 6.546c0.109 0.163 0.184 0.358 0.208 0.568l0.001 0.006 3.497 1.482c0.101-0.078 0.219-0.138 0.348-0.175l0.007-0.002 0.574-3.55-2.13-2.234-2.505 3.852zM23.993 12.037l-3.748-3.748-2.548 1.044 6.264 2.662c0 0 0.053 0.042 0.032 0.042zM23.366 12.643l-6.013-2.569c-0.166 0.219-0.413 0.369-0.695 0.406l-0.005 0.001-0.647 3.957c0.186 0.188 0.302 0.446 0.303 0.731v0l3.633 0.762 3.33-3.31v-0.062zM15.4 9.25l-3.268-1.39c-0.217 0.329-0.586 0.544-1.005 0.544-0.014 0-0.028-0-0.041-0.001l0.002 0h-0.199l-2.704 4.177 7.225-3.132v0.010c-0.003-0.025-0.004-0.054-0.004-0.084s0.001-0.058 0.004-0.087l-0 0.004c0.001-0.003 0.001-0.006 0.001-0.009 0-0.012-0.004-0.023-0.011-0.032l0 0zM19.367 16.558l-3.195-0.658c-0.119 0.151-0.274 0.269-0.453 0.341l-0.007 0.003-0.761 4.72 4.437-4.396c0 0-0.010 0.020-0.021 0.020zM14.898 16.234c-0.304-0.127-0.532-0.386-0.614-0.703l-0.002-0.007-5.95-1.222-0.084 0.136 5.398 7.81 0.323-0.324 0.919-5.67c0 0 0.031 0.022 0.010 0.011zM8.457 13.582l5.878 1.211c0.17-0.293 0.471-0.493 0.82-0.522l0.004-0 0.637-3.894-0.135-0.115-7.308 3.132c0.034 0.052 0.068 0.114 0.099 0.177l0.005 0.011zM5.993 14.563l-0.125-0.125-2.537 1.044 1.232 1.222 1.399-2.172zM7.663 14.96c-0.165 0.078-0.359 0.124-0.563 0.125h-0c-0.002 0-0.004 0-0.006 0-0.159 0-0.312-0.027-0.454-0.076l0.010 0.003-1.544 2.245 6.765 6.702 1.19-1.18zM6.713 12.319c0.047-0.005 0.102-0.007 0.157-0.007s0.11 0.003 0.164 0.008l-0.007-0.001c0.052-0.007 0.111-0.011 0.172-0.011s0.12 0.004 0.179 0.012l-0.007-0.001 2.735-4.25c-0.206-0.213-0.333-0.504-0.334-0.824v-0c-0.005-0.041-0.007-0.088-0.007-0.135s0.003-0.095 0.008-0.141l-0.001 0.006-3.32-1.535-2.672 2.6zM7.016 4.917l3.237 1.378c0.213-0.176 0.488-0.283 0.789-0.283 0.016 0 0.032 0 0.048 0.001l-0.002-0c0.142 0.001 0.279 0.024 0.407 0.066l-0.010-0.003 2.526-3.947-2.088-2.088-4.907 4.813c0 0-0.010 0.052 0 0.063zM5.806 13.081c0.069-0.127 0.149-0.237 0.241-0.335l-0.001 0.001-2.768-4.134-3.278 3.184zM5.544 13.781l-5.011-1.046 2.203 2.235 2.777-1.18z"/>
</svg>