<svg xmlns="http://www.w3.org/2000/svg" version="1.1" width="24" height="24" viewBox="0 0 24 24">
<path d="M23.193 7.879c0-5.206-3.411-6.732-3.411-6.732-1.72-0.79-4.674-1.122-7.741-1.147h-0.076c-3.068 0.025-6.020 0.357-7.74 1.147 0 0-3.411 1.526-3.411 6.732 0 1.192-0.023 2.618 0.015 4.129 0.124 5.092 0.934 10.109 5.641 11.355 2.17 0.574 4.034 0.695 5.535 0.612 2.722-0.15 4.25-0.972 4.25-0.972l-0.090-1.975c0 0-1.945 0.613-4.129 0.539-2.165-0.074-4.449-0.233-4.799-2.891-0.031-0.218-0.048-0.47-0.048-0.725 0-0.007 0-0.014 0-0.021v0.001c0 0 2.125 0.52 4.817 0.643 1.646 0.075 3.19-0.097 4.758-0.283 3.007-0.359 5.625-2.212 5.954-3.905 0.517-2.665 0.475-6.507 0.475-6.507zM19.169 14.588h-2.497v-6.119c0-1.29-0.543-1.944-1.628-1.944-1.2 0-1.802 0.776-1.802 2.312v3.349h-2.483v-3.35c0-1.536-0.602-2.312-1.802-2.312-1.085 0-1.628 0.655-1.628 1.944v6.119h-2.497v-6.303c0-1.289 0.328-2.313 0.987-3.070 0.68-0.758 1.569-1.146 2.674-1.146 1.278 0 2.246 0.491 2.886 1.474l0.621 1.043 0.622-1.043c0.64-0.983 1.608-1.474 2.886-1.474 1.104 0 1.994 0.388 2.674 1.146 0.658 0.757 0.986 1.781 0.986 3.070z"/>
</svg>