<svg xmlns="http://www.w3.org/2000/svg" version="1.1" width="24" height="24" viewBox="0 0 24 24">
<path d="M14.36 2.675c-0.959 0.12-1.901 0.366-2.783 0.759l-2.188-1.812 0.433 2.835c-0.758 0.567-1.41 1.25-1.935 2.038l-2.905-0.495 1.951 2.352c-0.31 0.817-0.502 1.677-0.589 2.548l-2.97 1.1 2.952 1.099c0.083 0.883 0.258 1.763 0.565 2.597l-1.894 2.283 2.819-0.426c0.541 0.811 1.229 1.518 2.025 2.080l-0.47 2.751 2.247-1.806c0.864 0.333 1.78 0.523 2.705 0.597l1.049 2.825 1.059-2.846c1.418-0.144 2.841-0.46 4.103-1.144-0.229-1.019-0.468-2.035-0.692-3.055-2.042 1.044-4.605 1.442-6.736 0.403-1.763-0.896-2.773-2.842-2.911-4.785-0.152-2.15 0.502-4.51 2.314-5.801 1.724-1.192 4.024-1.208 5.964-0.586 0.428 0.149 0.836 0.353 1.224 0.603 0.306-1.052 0.616-2.104 0.93-3.154-1.32-0.674-2.811-0.98-4.291-1.044l-0.964-2.591z"/>
</svg>