<svg xmlns="http://www.w3.org/2000/svg" version="1.1" width="24" height="24" viewBox="0 0 24 24">
<path d="M20.21 24c-1.148-0.007-2.477-0.334-3.89-0.915-2.823-1.163-6.040-3.372-9.036-6.367s-5.209-6.213-6.371-9.038c-1.163-2.823-1.296-5.32 0.075-6.691 1.37-1.369 3.867-1.237 6.691-0.074 0.306 0.125 0.617 0.265 0.932 0.415-0.331 0.113-0.658 0.24-0.974 0.383l-0.141-0.058c-2.664-1.097-4.798-1.136-5.889-0.046-1.090 1.091-1.050 3.221 0.046 5.885 1.097 2.663 3.235 5.793 6.147 8.704 2.91 2.911 6.044 5.050 8.708 6.147s4.79 1.136 5.88 0.045c1.091-1.090 1.056-3.22-0.041-5.884-0.108-0.263-0.23-0.531-0.358-0.803 0.134-0.317 0.25-0.642 0.354-0.973 0.282 0.54 0.53 1.070 0.744 1.589 1.163 2.823 1.292 5.32-0.079 6.691-0.685 0.685-1.651 0.997-2.798 0.99zM3.79 24c-1.148 0.008-2.117-0.305-2.802-0.99-1.37-1.37-1.238-3.868-0.075-6.691 0.235-0.572 0.517-1.16 0.836-1.76 0.098 0.333 0.212 0.66 0.34 0.978-0.109 0.21-0.255 0.529-0.392 0.853l-0.044 0.116c-1.097 2.663-1.132 4.794-0.042 5.884s3.221 1.051 5.885-0.045c0.922-0.38 3.021-1.69 4.026-2.308 0.216 0.162 0.433 0.32 0.649 0.474-1.157 0.733-3.415 2.13-4.492 2.574-1.412 0.581-2.74 0.907-3.889 0.915zM13.543 19.542c-0.214-0.14-0.429-0.282-0.645-0.433 1.21-0.942 2.287-1.895 3.302-2.91l0.001-0.001c2.912-2.911 5.050-6.040 6.147-8.704s1.132-4.794 0.042-5.885c-1.091-1.090-3.217-1.055-5.88 0.042l-0.072 0.029c-0.252-0.116-0.579-0.245-0.914-0.357l-0.076-0.022c0.295-0.14 0.587-0.272 0.874-0.39 2.824-1.163 5.321-1.292 6.691 0.078s1.238 3.864 0.075 6.688c-1.162 2.823-3.376 6.046-6.37 9.040-0.979 0.982-2.014 1.906-3.1 2.769l-0.074 0.056zM15.493 20.698c-0.325-0.17-1.798-1.073-2.135-1.273 1.002-0.806 2.423-1.97 3.396-2.944 1.718-1.718 3.981-4.787 5.162-6.555-0.008 0.111-0.093 2.49-0.105 2.6-0.401 3.763-2.879 6.86-6.251 8.149l-0.067 0.023zM8.565 20.664c-3.407-1.308-6.043-4.71-6.287-8.198-0.010-0.151-0.060-0.399-0.054-0.984 0.007-0.602 0.056-1.423 0.159-1.283 1.036 1.42 3.976 5.455 5.352 6.83 0.973 0.973 1.927 1.624 2.929 2.43-0.167 0.122-0.853 0.522-1.543 0.914l-0.556 0.291zM11.995 18.456c-1.266-0.967-2.389-1.953-3.442-3.009l-0.001-0.001c-2.54-2.54-4.462-5.254-5.568-7.582 1.45-3.597 4.973-6.138 9.087-6.138 4.051 0 7.53 2.465 9.020 5.976-1.093 2.363-3.045 5.145-5.643 7.743-1.056 1.058-2.183 2.044-3.372 2.952l-0.081 0.059z"/>
</svg>