<svg xmlns="http://www.w3.org/2000/svg" version="1.1" width="24" height="24" viewBox="0 0 24 24">
<path d="M18.070 0h-12.14c-3.273 0.006-5.924 2.657-5.93 5.929v12.141c0.006 3.273 2.657 5.924 5.929 5.93h12.141c3.273-0.006 5.924-2.657 5.93-5.929v-12.141c-0.006-3.273-2.657-5.924-5.929-5.93h-0.001zM10.71 15.4h-1.9l-1.61 3.88c-0.077 0.184-0.255 0.311-0.463 0.311-0.071 0-0.139-0.015-0.2-0.042l0.003 0.001c-0.184-0.080-0.311-0.26-0.311-0.47 0-0.072 0.015-0.141 0.042-0.204l-0.001 0.003 1.45-3.48h-2.87c-0 0-0 0-0 0-0.276 0-0.5-0.224-0.5-0.5 0-0.004 0-0.007 0-0.011v0.001c0.011-0.278 0.239-0.5 0.52-0.5 0 0 0 0 0 0h5.86c0.272 0.005 0.49 0.227 0.49 0.5 0 0.007-0 0.014-0 0.021l0-0.001c0 0 0 0 0 0 0 0.271-0.219 0.49-0.49 0.49-0.007 0-0.014-0-0.021-0l0.001 0zM18.63 19.57c-0.055 0.022-0.118 0.035-0.185 0.035-0.215 0-0.399-0.133-0.474-0.321l-0.001-0.003-5.35-13-2.39 5.72h1.57c0.272 0.005 0.49 0.227 0.49 0.5 0 0.007-0 0.014-0 0.021l0-0.001c0 0 0 0 0 0 0 0.271-0.219 0.49-0.49 0.49-0.007 0-0.014-0-0.021-0l0.001 0h-5.86c-0 0-0 0-0 0-0.276 0-0.5-0.224-0.5-0.5 0-0.004 0-0.007 0-0.011v0.001c0.011-0.278 0.239-0.5 0.52-0.5 0 0 0 0 0 0h3.2l3-7.27c0.073-0.181 0.246-0.308 0.45-0.31h0c0.001 0 0.003-0 0.004-0 0.211 0 0.393 0.126 0.474 0.307l0.001 0.003 5.84 14.17c0.025 0.058 0.040 0.126 0.040 0.197 0 0.213-0.131 0.396-0.316 0.472l-0.003 0.001z"/>
</svg>