<svg xmlns="http://www.w3.org/2000/svg" version="1.1" width="24" height="24" viewBox="0 0 24 24">
<path d="M14.335 12.432c-0.552 0.149-0.615 0.18-1.164 0.337-0.589-0.337-1.107-0.526-1.595-0.463 0.057-0.306 0.151-0.525 0.245-0.8 1.036-0.151 1.805 0.4 2.514 0.926zM19.643 19.633c-0.563 0.564-1.187 1.066-1.863 1.495l-0.044 0.026h-0.006l-3.702-4.614 3.070 0.336c0 0 1.471 0.151 1.807 0 0.308-0.117 1.963-2.449 1.963-2.449s-4.759-3.009-6.384-4.666c0.188-2.794-0.213-6.509-0.213-6.479-1.193 1.195-1.35 1.383-2.544 2.489-0.52-1.688-0.769-2.269-1.289-3.958-1.568 1.289-2.763 3.464-3.62 6.016-0.178 0.197-0.358 0.41-0.531 0.63l-0.020 0.026c-0.112 0.157-0.23 0.313-0.344 0.475-0.231 0.326-0.45 0.675-0.663 1.032-0.15 0.257-0.299 0.52-0.438 0.788-0.063 0.112-0.125 0.231-0.188 0.35-0.913 1.788-1.676 3.789-2.339 5.604-0.688-1.383-1.091-3.011-1.091-4.734v-0c0-2.863 1.138-5.614 3.164-7.64s4.769-3.159 7.632-3.159c0.003 0 0.007 0 0.011 0 2.98 0 5.678 1.207 7.632 3.158l-0-0c1.95 1.958 3.155 4.658 3.156 7.64v0c-0 2.98-1.205 5.678-3.155 7.634l0-0zM12 6.691c0.832-0.801 0.951-0.92 1.751-1.689 0.063 1.532 0.031 2.333-0.063 4.203-0.463-0.458-1.381-1.044-1.381-1.044s-0.181-1.070-0.307-1.47zM15.834 22.155c-6.616 2.393-11.398-2.014-12.417-3.552 0.006-0.014 0.006-0.027 0.006-0.039 0.92-3.889 2.058-8.535 3.884-9.91 0.955-1.656 1.231-4.114 2.943-5.402 0.432 1.288 1.107 3.958 1.57 5.246 2.025 2.026 5.087 4.546 7.146 5.59 0.212 0.12 0.489 0.981 0.489 0.981l-0.825 1.038-8.835-0.887c-0.2-0.020-0.394-0.028-0.594-0.028-0.569 0-1.15 0.073-1.833 0.18 0.432-1.071 1.35-1.936 1.35-1.936s-0.855-0.519-1.505-0.605c0.187-0.432 0.681-0.989 0.799-1.138-0.243 0.087-2.025 0.888-2.207 1.563 0.857 0.214 1.469 0.487 1.469 0.487s-0.949 0.957-1.131 2.612c0 0 2.82-0.431 4.939-0.153 0.063 0.030 0.094 0.030 0.125 0.030l1.102 0.031 3.536 5.886c-0.002 0.004-0.006 0.006-0.010 0.006-0 0-0 0-0.001-0h0zM20.486 3.515c-2.173-2.17-5.172-3.513-8.486-3.515h-0c-3.182 0-6.232 1.27-8.484 3.515-2.244 2.251-3.514 5.302-3.514 8.485s1.27 6.235 3.513 8.478c2.169 2.177 5.17 3.523 8.485 3.523s6.316-1.347 8.485-3.523l0-0c2.251-2.243 3.512-5.296 3.512-8.478s-1.261-6.234-3.512-8.485z"/>
</svg>