<svg xmlns="http://www.w3.org/2000/svg" version="1.1" width="24" height="24" viewBox="0 0 24 24">
<path d="M23.996 3.178c-0.337 0.131-0.84 0.325-1.452 0.559-1.158 0.443-1.746 0.668-2.193 0.82-0.46 0.156-0.965 0.307-1.976 0.61-0.683 0.204-1.254 0.371-1.659 0.488-0.023 0.656 0 1.633-0.219 2.726-0.405 2.027-1.078 3.471-1.512 4.324-1.122 2.208-2.427 3.613-2.91 4.107-0.042-0.044-0.084-0.088-0.126-0.134-0.53-0.572-1.802-2.027-2.861-4.262-0.79-1.667-1.113-3.033-1.204-3.438-0.267-1.192-0.32-2.216-0.32-3.088 0-0.056-0.027-0.097-0.076-0.112-0.541-0.167-1.324-0.389-2.165-0.64-0.953-0.284-1.645-0.558-2.556-0.9-0.37-0.139-1.057-0.41-1.663-0.644-0.562-0.219-1.019-0.416-1.073-0.416-0.004 0-0.011 0-0.017 0.009-0.008 0.011-0.014 0.031-0.014 0.057 0.007 0.445 0.060 1.021 0.192 1.774 0.461 2.627 2.016 5.296 3.27 6.933 0 0 2.788 3.776 6.846 6.108 0.058 0.033 0.134 0.078 0.227 0.132-0.007 0.006-0.015 0.011-0.021 0.016-1.288 0.987-2.401 1.483-2.684 1.605-0.661 0.287-1.24 0.466-1.664 0.579v0.305c0.827-0.102 1.519-0.242 2.040-0.365 0.514-0.122 1.989-0.495 3.8-1.341 0.001-0.001 0.004-0.002 0.006-0.003 0.102 0.050 0.207 0.102 0.315 0.153 1.145 0.544 2.678 1.22 4.555 1.536 0.46 0.077 0.852 0.124 1.13 0.146 0.042 0.003 0.079-0.026 0.086-0.068 0.010-0.059 0.015-0.115 0.003-0.163-0.006-0.025-0.024-0.045-0.047-0.055-0.379-0.157-0.901-0.3-1.487-0.539-0.701-0.286-1.681-0.8-2.736-1.596-0.048-0.036-0.143-0.109-0.275-0.215 3.48-1.992 5.992-4.941 5.992-4.941 1.301-1.527 3.331-4.217 4.073-7.346 0.262-1.105 0.404-2.056 0.375-2.721z"/>
</svg>