<svg xmlns="http://www.w3.org/2000/svg" version="1.1" width="24" height="24" viewBox="0 0 24 24">
<path d="M2.759 24l0.664-0.144c0.207-0.044 0.412-0.085 0.619-0.126 0.318-0.062 0.637-0.123 0.955-0.182 0.24-0.046 0.48-0.085 0.721-0.129l0.055-0.015c0.25-0.044 0.498-0.090 0.747-0.12l1.214-0.179v-23.106h-0.042c-0.63 0.004-1.256 0.016-1.884 0.036-0.689 0.018-1.394 0.060-2.084 0.105-0.299 0.021-0.6 0.046-0.899 0.070h-0.045v23.784zM8.911 0.015v22.942c0.861-0.1 1.72-0.182 2.582-0.246 2.121-0.161 4.248-0.211 6.373-0.151 1.128 0.034 2.253 0.099 3.374 0.192v-21.249c-1.004-0.229-2.012-0.432-3.028-0.607-1.968-0.342-3.955-0.581-5.947-0.731-1.114-0.081-2.233-0.132-3.352-0.149zM19.674 14.812l-0.046-0.004-0.561-0.061c-1.399-0.146-2.805-0.242-4.207-0.291-1.407-0.045-2.815-0.030-4.223 0.016h-0.044c-0.045 0-0.091 0-0.135-0.016-0.101-0.030-0.195-0.074-0.267-0.149-0.127-0.136-0.186-0.315-0.156-0.495 0.008-0.061 0.029-0.105 0.054-0.166 0.027-0.044 0.063-0.104 0.104-0.134 0.043-0.045 0.090-0.075 0.143-0.104 0.061-0.030 0.121-0.046 0.18-0.061h0.090c0.195 0 0.391-0.016 0.57-0.016 1.395-0.029 2.773-0.029 4.169 0.030 1.439 0.060 2.864 0.165 4.288 0.33l0.151 0.015c0.044 0.016 0.089 0.016 0.135 0.030 0.105 0.046 0.194 0.105 0.255 0.181 0.044 0.044 0.074 0.104 0.105 0.164 0.029 0.061 0.044 0.12 0.044 0.18 0.015 0.165-0.044 0.33-0.164 0.45-0.046 0.046-0.091 0.075-0.135 0.105-0.047 0.030-0.105 0.044-0.166 0.060-0.030 0.016-0.045 0.016-0.089 0.016h-0.047zM19.709 12.101c-0.044 0-0.044 0-0.090-0.006l-0.555-0.071c-1.395-0.179-2.804-0.3-4.198-0.359-1.395-0.075-2.805-0.090-4.214-0.060l-0.046-0.016c-0.045-0.015-0.090-0.015-0.135-0.029-0.090-0.030-0.194-0.090-0.254-0.166-0.030-0.045-0.076-0.104-0.090-0.148-0.075-0.166-0.075-0.361 0.014-0.525 0.031-0.061 0.061-0.105 0.105-0.15s0.090-0.090 0.15-0.104c0.061-0.030 0.119-0.060 0.18-0.060l0.090-0.016 0.585-0.015c1.396-0.016 2.774 0.015 4.153 0.090 1.439 0.075 2.865 0.21 4.289 0.39l0.149 0.016 0.091 0.014c0.105 0.031 0.194 0.075 0.27 0.166 0.12 0.119 0.18 0.284 0.165 0.449 0 0.061-0.016 0.121-0.045 0.165-0.029 0.060-0.061 0.104-0.090 0.15-0.030 0.044-0.074 0.075-0.136 0.12-0.044 0.029-0.104 0.045-0.164 0.061l-0.091 0.014h-0.042zM19.709 9.39c-0.044 0-0.044 0-0.090-0.006l-0.555-0.080c-1.395-0.19-2.789-0.334-4.198-0.428-1.395-0.092-2.805-0.135-4.214-0.129h-0.046l-0.090-0.016c-0.059-0.016-0.104-0.036-0.164-0.068-0.15-0.092-0.256-0.254-0.285-0.438 0-0.061 0-0.12 0.016-0.18 0.014-0.061 0.029-0.117 0.059-0.17 0.031-0.054 0.076-0.102 0.121-0.144 0.074-0.075 0.18-0.126 0.285-0.15 0.045-0.011 0.089-0.015 0.135-0.015h0.569c1.439 0.009 2.879 0.064 4.304 0.172 1.395 0.105 2.774 0.26 4.153 0.457l0.15 0.021c0.046 0.007 0.061 0.007 0.090 0.019 0.060 0.020 0.12 0.046 0.165 0.080 0.061 0.033 0.104 0.075 0.135 0.123s0.061 0.101 0.090 0.158c0.062 0.156 0.045 0.334-0.029 0.479-0.029 0.055-0.061 0.105-0.105 0.146-0.075 0.074-0.164 0.127-0.27 0.15-0.029 0.012-0.046 0.012-0.091 0.014l-0.044 0.005zM19.709 6.678c-0.044 0-0.044 0-0.090-0.007l-0.555-0.090c-1.395-0.225-2.789-0.391-4.198-0.496-1.395-0.119-2.805-0.179-4.214-0.209h-0.046l-0.105-0.014c-0.061-0.015-0.115-0.045-0.165-0.074-0.053-0.031-0.099-0.076-0.14-0.121-0.036-0.045-0.068-0.104-0.094-0.149-0.020-0.060-0.037-0.12-0.044-0.181-0.016-0.18 0.053-0.371 0.181-0.494 0.074-0.075 0.176-0.125 0.279-0.15 0.045-0.015 0.090-0.015 0.135-0.015 0.189 0 0.38 0.005 0.57 0.008 1.437 0.034 2.871 0.113 4.304 0.246 1.387 0.119 2.77 0.3 4.145 0.524l0.135 0.016c0.040 0 0.052 0 0.090 0.014 0.062 0.016 0.112 0.046 0.165 0.076 0.046 0.029 0.090 0.074 0.125 0.119 0.091 0.135 0.135 0.301 0.105 0.465-0.015 0.061-0.031 0.105-0.061 0.166-0.030 0.045-0.074 0.104-0.12 0.135-0.074 0.074-0.165 0.119-0.271 0.149h-0.135zM4.039 6.169c-0.090 0-0.181-0.021-0.271-0.063-0.194-0.095-0.314-0.293-0.329-0.505 0-0.057 0.015-0.111 0.030-0.165 0.014-0.068 0.045-0.133 0.090-0.19 0.045-0.065 0.104-0.12 0.164-0.162 0.077-0.050 0.167-0.076 0.241-0.092l0.48-0.044c0.659-0.058 1.305-0.105 1.949-0.144h0.060c0.105 0.004 0.195 0.024 0.271 0.071 0.194 0.103 0.314 0.305 0.314 0.519 0 0.055-0.015 0.109-0.029 0.161-0.016 0.067-0.045 0.132-0.091 0.189-0.044 0.075-0.104 0.12-0.165 0.165-0.074 0.045-0.15 0.074-0.24 0.090-0.104 0.015-0.209 0.015-0.314 0.030-0.136 0.015-0.286 0.015-0.436 0.031l-1.168 0.088-0.285 0.031c-0.061 0.015-0.122 0.015-0.196 0.015zM19.694 3.968l-0.091-0.010-0.554-0.1c-1.395-0.234-2.805-0.425-4.214-0.564-1.395-0.138-2.804-0.225-4.214-0.271h-0.045l-0.090-0.018c-0.061-0.015-0.105-0.038-0.165-0.071-0.045-0.030-0.091-0.072-0.135-0.121-0.12-0.138-0.165-0.33-0.12-0.506 0.016-0.061 0.045-0.12 0.074-0.18 0.031-0.061 0.076-0.105 0.121-0.15 0.074-0.076 0.18-0.121 0.285-0.15 0.045-0.015 0.089-0.015 0.135-0.015l0.584 0.015c1.395 0.061 2.774 0.15 4.154 0.301 1.439 0.148 2.864 0.359 4.288 0.6l0.15 0.014c0.046 0 0.061 0 0.090 0.016 0.060 0.015 0.12 0.045 0.165 0.074 0.135 0.105 0.225 0.256 0.239 0.421 0.016 0.060 0 0.12-0.015 0.181 0 0.059-0.029 0.119-0.059 0.164-0.031 0.045-0.062 0.090-0.105 0.135-0.076 0.076-0.181 0.12-0.286 0.135l-0.086 0.014h-0.046zM4.022 3.199c-0.086 0-0.171-0.019-0.25-0.056-0.070-0.033-0.134-0.079-0.187-0.137-0.045-0.053-0.086-0.112-0.111-0.181-0.020-0.049-0.034-0.101-0.039-0.156-0.022-0.214 0.078-0.427 0.255-0.546 0.078-0.054 0.167-0.086 0.26-0.099 0.158-0.014 0.314-0.014 0.473-0.029 0.65-0.045 1.301-0.075 1.949-0.105h0.048c0.091 0.016 0.181 0.030 0.256 0.075 0.179 0.105 0.3 0.315 0.3 0.524 0 0.061-0.016 0.121-0.030 0.166-0.030 0.074-0.060 0.135-0.104 0.195-0.047 0.060-0.107 0.12-0.182 0.15-0.075 0.045-0.165 0.075-0.255 0.075-0.104 0.014-0.21 0.014-0.33 0.014l-0.449 0.031c-0.405 0.029-0.795 0.045-1.186 0.074l-0.3 0.016c-0.075 0.015-0.134 0.015-0.194 0.015z"/>
</svg>