<svg xmlns="http://www.w3.org/2000/svg" version="1.1" width="24" height="24" viewBox="0 0 24 24">
<path d="M5.3 17.63h6.35c0.5 0 0.89-0.4 0.89-0.9s-0.4-0.89-0.9-0.89h-6.34c-0.5 0-0.89 0.4-0.89 0.89 0 0.5 0.4 0.9 0.89 0.9zM16.58 13.77c0-0.5-0.4-0.9-0.9-0.9h-9.14c-0.5 0-0.89 0.4-0.89 0.9s0.4 0.9 0.9 0.9h9.15c0.5 0 0.9-0.4 0.88-0.9zM18.44 10.8c-0.016-0.483-0.406-0.869-0.889-0.88l-0.001-0h-11.020c-0.5 0-0.89 0.39-0.89 0.89s0.4 0.89 0.9 0.89h11.010c0.5 0 0.89-0.4 0.89-0.9zM5.64 7.82c0 0.5 0.4 0.89 0.9 0.89h9.5c0.49 0 0.88-0.4 0.88-0.9 0-0.49-0.4-0.88-0.89-0.88h-9.5c-0.5 0-0.89 0.39-0.89 0.89zM7.92 3.96h-2.62c-0.5 0-0.89 0.4-0.89 0.9s0.4 0.89 0.9 0.89h2.64c0.5 0 0.9-0.4 0.9-0.9-0.022-0.496-0.43-0.89-0.929-0.89-0 0-0.001 0-0.001 0h0zM22.87 20.8c0-0.003 0-0.007 0-0.010 0-0.514-0.416-0.93-0.93-0.93-0.004 0-0.007 0-0.011 0h-17.229c-0.95 0-1.73-0.8-1.73-1.74v-14.55c0-0.95 0.78-1.73 1.73-1.73h14.55c0.95 0 1.74 0.76 1.74 1.73v11.8c0 0.5 0.42 0.92 0.9 0.92 0.51 0 0.93-0.42 0.93-0.92v-11.8c0-1.97-1.6-3.57-3.57-3.57h-14.55c-1.972 0-3.57 1.598-3.57 3.57v0 14.55c0 1.97 1.6 3.57 3.57 3.57h15.7l2.47 2.31z"/>
</svg>