<svg xmlns="http://www.w3.org/2000/svg" version="1.1" width="24" height="24" viewBox="0 0 24 24">
<path d="M4.633 21.429c2.005 1.569 4.562 2.516 7.341 2.516 0.001 0 0.002 0 0.003 0h-0c3.026 0 5.785-1.123 7.89-2.968 0.026-0.022 0.014-0.037-0.011-0.022-0.945 0.63-3.638 2.008-7.879 2.008-3.685 0-6.014-0.822-7.329-1.556-0.025-0.013-0.034 0.006-0.015 0.022zM12.79 22.041c2.948 0 6.187-0.804 8.124-2.394 0.53-0.434 1.035-1.010 1.487-1.785 0.26-0.446 0.515-0.976 0.722-1.497 0.010-0.025-0.006-0.038-0.025-0.010-1.802 2.652-7.018 4.305-12.404 4.305-3.807 0-7.904-1.217-9.508-3.542-0.016-0.021-0.031-0.012-0.022 0.012 1.494 3.176 6.027 4.91 11.626 4.91zM9.57 16.773c-6.13 0-9.020-2.855-9.545-4.804-0.006-0.028-0.025-0.022-0.025 0.004 0 0.655 0.066 1.502 0.179 2.064 0.053 0.273 0.276 0.702 0.602 1.045 1.485 1.547 5.186 3.715 11.595 3.715 8.732 0 10.729-2.909 11.136-3.866 0.292-0.684 0.443-1.92 0.443-2.958 0-0.252-0.006-0.452-0.016-0.65 0-0.032-0.018-0.034-0.025-0.003-0.436 2.34-7.897 5.453-14.344 5.453zM1.155 6.836c-0.352 0.697-0.74 1.874-0.857 2.482-0.050 0.26-0.029 0.386 0.063 0.58 0.734 1.56 4.45 4.054 13.12 4.054 5.289 0 9.397-1.3 10.063-3.67 0.122-0.437 0.129-0.898-0.029-1.519-0.176-0.694-0.505-1.503-0.784-2.071-0.010-0.019-0.025-0.016-0.022 0.006 0.103 3.11-8.569 5.114-12.945 5.114-4.74 0-8.694-1.888-8.694-4.273 0-0.229 0.048-0.458 0.107-0.696 0.006-0.022-0.013-0.026-0.022-0.007zM19.887 3.018c0.050 0.079 0.076 0.163 0.076 0.276 0 1.33-4.072 3.684-10.553 3.684-4.762 0-5.653-1.767-5.653-2.89 0-0.402 0.154-0.813 0.493-1.23 0.018-0.025 0.003-0.034-0.019-0.016-0.621 0.529-1.174 1.102-1.666 1.726l-0.019 0.025c-0.239 0.301-0.387 0.568-0.387 0.728 0 2.328 5.838 4.016 11.297 4.016 5.816 0 8.412-1.899 8.412-3.567 0-0.596-0.232-0.945-0.826-1.62-0.386-0.439-0.75-0.796-1.136-1.148-0.019-0.015-0.032-0.003-0.019 0.016zM18.104 1.688c-1.74-1.060-3.844-1.688-6.094-1.688-0.012 0-0.023 0-0.034 0h0.002c-2.262 0-4.41 0.633-6.211 1.738-0.54 0.332-0.845 0.599-0.845 0.942 0 1.010 2.36 2.095 6.548 2.095 4.143 0 7.357-1.19 7.357-2.334 0-0.273-0.239-0.464-0.722-0.753z"/>
</svg>