<svg xmlns="http://www.w3.org/2000/svg" version="1.1" width="24" height="24" viewBox="0 0 24 24">
<path d="M24 12c0 6.6-5.4 12-12 12s-12-5.4-12-12 5.4-12 12-12 12 5.4 12 12zM12 1.8c-5.7 0-10.2 4.5-10.2 10.2s4.5 10.2 10.2 10.2 10.2-4.5 10.2-10.2-4.5-10.2-10.2-10.2zM17.6 7.2l-0.2 0.2c0.1-0.1 0.3-0.2 0.4-0.2zM17.8 7.2h0.5v-1.9h-5.5v1.9h0.9c0.2 0 0.3 0.1 0.3 0.3 0 0.1 0 0.2-0.1 0.2l-3.8 3.8h-0.1c-0.1 0-0.2-0.1-0.2-0.2v-3.4c0-0.4 0.3-0.7 0.7-0.7h0.8v-1.9h-5.9v1.9h0.7c0.4 0 0.7 0.3 0.7 0.7v8.4c0 0.4-0.3 0.7-0.7 0.7h-0.7v2h5.9v-2h-0.8c-0.4 0-0.7-0.3-0.7-0.7v-1.4c0-0.1 0-0.2 0.1-0.3l1.5-1.5c0 0 0.1-0.1 0.2-0.1s0.2 0 0.2 0.1l2.1 3.3v0.2c0 0.2-0.1 0.3-0.3 0.3h-0.9v2h6.3v-2h-0.7c-0.2 0-0.4-0.1-0.5-0.3v-0.1l-3.7-5.5c0-0.1-0.1-0.1-0.1-0.2s0-0.2 0.1-0.2l3.2-3.2c0.2-0.2 0.3-0.2 0.5-0.2z"/>
</svg>