<svg xmlns="http://www.w3.org/2000/svg" version="1.1" width="24" height="24" viewBox="0 0 24 24">
<path d="M12.001 4.8c-3.2 0-5.2 1.6-6 4.8 1.2-1.6 2.6-2.2 4.2-1.8 0.913 0.228 1.565 0.89 2.288 1.624 1.177 1.194 2.538 2.576 5.512 2.576 3.2 0 5.2-1.6 6-4.8-1.2 1.6-2.6 2.2-4.2 1.8-0.913-0.228-1.565-0.89-2.288-1.624-1.176-1.194-2.537-2.576-5.512-2.576zM6.001 12c-3.2 0-5.2 1.6-6 4.8 1.2-1.6 2.6-2.2 4.2-1.8 0.913 0.228 1.565 0.89 2.288 1.624 1.177 1.194 2.538 2.576 5.512 2.576 3.2 0 5.2-1.6 6-4.8-1.2 1.6-2.6 2.2-4.2 1.8-0.913-0.228-1.565-0.89-2.288-1.624-1.176-1.194-2.537-2.576-5.512-2.576z"/>
</svg>