<svg xmlns="http://www.w3.org/2000/svg" version="1.1" width="24" height="24" viewBox="0 0 24 24">
<path d="M20.070 9.29v-0.020c0.010-0.040 0.14-0.95-0.080-2.24-0.009-0.062-0.052-0.111-0.109-0.13l-0.001-0-0.35-0.1c-0.080-2.71-1.2-4-1.23-4.030 1 1.6 0.99 3.51 0.97 3.96l-2.17-0.63h-0.040c-0.006-0.001-0.013-0.001-0.020-0.001s-0.014 0-0.021 0.001l0.001-0h-0.030l-0.010 0.010-0.030 0.020-0.010 0.010-0.15 0.14c0.004-0.101 0.006-0.219 0.006-0.337 0-1.51-0.372-2.933-1.030-4.182l0.024 0.049c0.030 0.060 0.8 2.33 0.53 4.87-0.076 0.065-0.161 0.13-0.248 0.192l-0.012 0.008c-0.041 0.030-0.068 0.077-0.070 0.13l-0 0c-0.027 0.569-0.172 1.098-0.41 1.572l0.010-0.022c-0.8-0.058-1.734-0.091-2.675-0.091s-1.875 0.033-2.799 0.098l0.124-0.007-0.010-0.040c-0.216-0.438-0.353-0.95-0.38-1.491l-0-0.009c0-0.060-0.020-0.1-0.070-0.14-0.104-0.071-0.192-0.136-0.277-0.206l0.007 0.006c-0.26-2.54 0.51-4.81 0.53-4.87-0.628 1.196-0.997 2.614-0.997 4.117 0 0.124 0.003 0.248 0.007 0.37l-0.001-0.018-0.15-0.14-0.010-0.010-0.030-0.020-0.030-0.010h-0.080l-2.18 0.62c-0.003-0.082-0.005-0.178-0.005-0.275 0-1.355 0.362-2.626 0.994-3.721l-0.019 0.036c-0.030 0.040-1.15 1.32-1.23 4.030l-0.35 0.1c-0.058 0.019-0.101 0.068-0.11 0.129l-0 0.001c-0.22 1.3-0.1 2.2-0.090 2.24v0.020l-0.080 0.020c-0.368 0.111-0.686 0.247-0.986 0.413l0.026-0.013c0.16-0.060 0.32-0.1 0.5-0.15 0.736-0.18 1.608-0.315 2.499-0.377l0.051-0.003 1.020-0.080c1.38-0.080 2.75-0.1 4.13-0.1 0.065-0 0.143-0 0.22-0 1.738 0 3.461 0.065 5.167 0.194l-0.227-0.014c0.972 0.088 1.842 0.222 2.694 0.406l-0.144-0.026c0.17 0.040 0.33 0.090 0.5 0.15-0.277-0.154-0.598-0.29-0.935-0.391l-0.035-0.009zM8.76 8.7c-1.039 0.131-1.948 0.306-2.836 0.534l0.156-0.034c-0.020-0.15-0.1-0.94 0.070-2.020l2.46-0.7c-0.007 0.119-0.011 0.258-0.011 0.398 0 0.648 0.084 1.276 0.242 1.873l-0.011-0.051zM9.13 8.66v-0.080c-0.131-0.505-0.205-1.086-0.205-1.684 0-0.097 0.002-0.194 0.006-0.29l-0 0.014c0.16 0.15 0.38 0.34 0.6 0.5 0.020 0.22 0.080 0.87 0.37 1.47zM16.71 8.58v0.080c-0.136-0.017-0.401-0.042-0.667-0.063l-0.103-0.007c0.3-0.6 0.35-1.25 0.37-1.48 0.22-0.15 0.44-0.34 0.6-0.5 0.020 0.44 0 1.23-0.2 1.97zM19.76 9.2c-0.763-0.221-1.67-0.397-2.6-0.494l-0.070-0.006h-0.090l0.020-0.030c0.136-0.523 0.214-1.123 0.214-1.742 0-0.158-0.005-0.314-0.015-0.469l0.001 0.021 2.46 0.7c0.070 0.399 0.11 0.859 0.11 1.328 0 0.244-0.011 0.485-0.032 0.723l0.002-0.031zM16.8 15.24c0.7-0.020 1.070-0.23 1.42-0.060 0-0.020-0.11-0.35-0.6-0.29 0.049-0.113 0.077-0.246 0.077-0.384 0-0.041-0.002-0.081-0.007-0.121l0 0.005c-0.070-0.81-0.53-1.45-1.050-1.44-0.51 0.020-0.84 0.7-0.82 1.5 0.030 0.81 0.47 0.8 0.98 0.79zM16.6 13.47c0.146 0 0.265 0.119 0.265 0.265s-0.119 0.265-0.265 0.265v0c-0.146 0-0.265-0.119-0.265-0.265s0.119-0.265 0.265-0.265v0zM8.76 15.38h0.32c0.52 0 0.94 0.040 0.94-0.77-0.010-0.8-0.37-1.46-0.88-1.46-0.52 0-1.020 0.67-0.99 1.48 0.010 0.21 0.040 0.36 0.1 0.47-0.46 0.12-0.58 0.4-0.59 0.41 0.28-0.15 0.6-0.13 1.1-0.13zM9.21 13.66c0.001-0 0.003-0 0.005-0 0.146 0 0.265 0.119 0.265 0.265 0 0.145-0.116 0.262-0.26 0.265h-0c-0.001 0-0.003 0-0.005 0-0.146 0-0.265-0.119-0.265-0.265 0-0.145 0.116-0.262 0.26-0.265h0zM23.94 8.46c-0.014-0.112-0.028-0.201-0.044-0.288l0.004 0.028-0.060-0.27-0.020-0.060-0.050-0.040c-0.253-0.196-0.538-0.373-0.842-0.518l-0.028-0.012c-0.25-0.11-0.5-0.22-0.76-0.31-0.716-2.014-1.947-3.696-3.537-4.942l-0.023-0.018c-1.551-1.201-3.523-1.925-5.665-1.925s-4.114 0.724-5.686 1.94l0.021-0.016c-1.609 1.269-2.836 2.954-3.527 4.894l-0.023 0.076-0.75 0.31c-0.3 0.15-0.6 0.31-0.88 0.53l-0.050 0.040-0.020 0.060c-0.045 0.152-0.080 0.332-0.099 0.517l-0.001 0.013c-0.039 0.259-0.061 0.558-0.061 0.862 0 0.249 0.015 0.495 0.044 0.737l-0.003-0.029c0.082 0.661 0.247 1.262 0.487 1.824l-0.017-0.044 0.060 0.13 0.040 0.060 0.040 0.070 0.030 0.050 0.060 0.030c0.030 0.017 0.083 0.044 0.136 0.070l0.024 0.010 0.16 0.070 0.080 0.040c-0.7 0.65-1.47 1.5-2.14 2.55l-0.84 1.31 1.18-1.030c0.020-0.020 1-0.87 2.66-1.84l0.020 0.19c-0.1 0.050-0.63 0.32-0.78 0.45-0.26 0.21-0.27 0.54-0.2 1.16 0.030 0.31 0.15 0.92 0.31 1.48 0.28 0.97 0.48 1.14 0.65 1.18 0.080 0.020 0.19 0.030 0.3 0.030 0.32 0 0.72-0.070 0.99-0.14 0.3 0.96 0.75 1.83 1.28 2.6-0.030 0-0.050 0-0.080 0.020l-1.82-0.85-0.8-0.35 0.47 0.73c0.040 0.050 0.84 1.3 1.5 2.15 0.655 0.971 1.751 1.6 2.994 1.6 0.020 0 0.040-0 0.059-0l-0.003 0c0.2 0 0.4 0 0.6-0.030l1.1-0.13c0.78 0.302 1.682 0.477 2.625 0.477 1.474 0 2.848-0.427 4.005-1.165l-0.030 0.018c0.66-0.15 1.4-0.33 1.76-0.43l0.2-0.050c0.51-0.12 1.36-0.32 1.81-1.22l1.2-2.33 0.36-0.65-0.68 0.3c-0.040 0.010-0.9 0.39-1.34 0.62-0.020 0-0.030 0.020-0.050 0.030 0.36-0.74 0.54-1.33 0.6-1.56 0.26 0.060 0.63 0.050 0.9 0.050 0.13 0 0.27-0.020 0.36-0.040 0.17-0.050 0.31-0.17 0.57-1.16 0.15-0.58 0.26-1.21 0.28-1.53 0.060-0.64 0.040-0.97-0.21-1.19-0.13-0.1-0.5-0.3-0.7-0.4l0.010-0.070 0.15 0.030 0.18-0.65c0.122-0.059 0.29-0.13 0.462-0.194l0.048-0.016 0.16-0.070 0.22-0.11 0.030-0.050 0.050-0.070 0.030-0.060 0.060-0.13c0.107-0.213 0.203-0.462 0.273-0.721l0.007-0.029c0.15-0.509 0.236-1.093 0.236-1.698 0-0.318-0.024-0.631-0.070-0.936l0.004 0.034zM3.68 11.27c0.106-0.030 0.393-0.089 0.682-0.144l0.168-0.026c-0.26 0.17-0.5 0.36-0.75 0.55zM9.58 10.99c-0.36 0.25-0.76 0.57-1.15 0.96-0.87 0.090-1.73 0.2-2.59 0.34 1.1-0.51 2.37-0.98 3.74-1.3zM7.97 12.45c-0.13 0.15-0.24 0.3-0.36 0.47l-0.68 0.97 1-0.66c0 0 0.64-0.43 1.67-0.93 1.025-0.081 2.219-0.128 3.424-0.128 0.294 0 0.587 0.003 0.88 0.008l-0.044-0.001c-0.2 0.16-0.41 0.32-0.63 0.45l-0.73 0.44c-0.46 0.060-0.86 0.17-0.88 0.18-0.015 0.001-0.028 0.004-0.041 0.010l0.001-0c-0.034 0.023-0.059 0.058-0.070 0.099l-0 0.001-0.75 2.45-3.98 0.89-1.26-0.88-0.36-2.96c0.71-0.13 1.66-0.28 2.81-0.41zM13.37 13.050c0.070-0.010 1.45-0.18 3.080-0.74 1.82 0.14 3.3 0.36 4.31 0.54l-0.36 2.52-1.26 0.88-3.98-0.45-0.74-2.44c-0.016-0.053-0.057-0.094-0.109-0.11l-0.001-0c-0.030-0.010-0.52-0.15-1.040-0.2zM15.29 10.71c-0.23 0.3-0.55 0.67-0.94 1.030-0.38-0.011-0.828-0.018-1.277-0.018-0.813 0-1.622 0.021-2.425 0.062l0.113-0.005c1.353-0.582 2.923-1.014 4.563-1.221l0.087-0.009zM3.97 17.36c-0.2-0.2-0.56-1.55-0.64-2.27-0.060-0.58-0.020-0.71 0.040-0.76 0.070-0.060 0.33-0.2 0.55-0.33l0.3 2.46c0 0.040 0.030 0.090 0.070 0.11l0.62 0.44 0.080 0.25c-0.26 0.070-0.78 0.15-1.020 0.1zM14.010 22.020l-0.38 0.050h-0.27l0.23-0.51zM13.3 23.52c-0.102 0.006-0.222 0.010-0.342 0.010-0.583 0-1.147-0.084-1.68-0.24l0.042 0.011 0.14-0.020c0.060 0 1.23-0.16 1.76-0.94h0.18l0.25-0.010c0.2-0.020 0.39-0.050 0.58-0.090l0.060 0.060c0.4 0.4 0.9 0.62 1.43 0.66-0.77 0.31-1.6 0.5-2.42 0.56zM20.59 17.14c-0.23 0.75-0.5 1.4-0.81 2h-0.22c-0.24 0-0.48-0.020-0.75-0.040l-1.43-0.15-1.46-1.16-0.060-0.050c-0.109-0.111-0.261-0.18-0.429-0.18-0.007 0-0.015 0-0.022 0l0.001-0c-0.2 0-0.51 0.080-1.26 0.3 0.39-0.29 0.4-0.66 0.4-0.66s-0.56 0.51-1.44 0.62c-0.89 0.12-1.58-0.42-1.58-0.42 0.030 0.090 0.070 0.3 0.27 0.48-0.233-0.029-0.502-0.046-0.775-0.046-0.097 0-0.193 0.002-0.288 0.006l0.014-0c-0.54 0.030-1.3 0.86-1.85 1.69l-2.040 0.62c-0.9-1.23-1.34-2.5-1.38-2.63l-0.050-0.15 0.23 0.16 0.56 0.4 0.2 0.13c0.020 0.020 0.050 0.030 0.090 0.030h0.040l5.2-1.17c0.070 0 0.11-0.050 0.13-0.1l0.74-2.46c0.102-0.015 0.22-0.024 0.34-0.024s0.238 0.009 0.353 0.025l-0.013-0.002 0.76 2.53c0.020 0.060 0.080 0.1 0.15 0.11l5.24 0.6c0.040 0 0.080 0 0.12-0.030l0.49-0.34 0.45-0.32 0.17-0.12zM19.43 17.26l-5.080-0.58-0.76-2.51c-0.018-0.061-0.067-0.107-0.129-0.12l-0.001-0c-0.148-0.027-0.32-0.045-0.496-0.050l-0.004-0c-0.14 0-0.3 0.020-0.5 0.050-0.059 0.016-0.104 0.061-0.12 0.119l-0 0.001-0.75 2.45-5.040 1.12-2-1.4-0.4-3.18 0.26-0.15 0.42-0.080 0.37 3c0 0.050 0.030 0.1 0.070 0.12l1.38 0.96c0.020 0.020 0.060 0.030 0.090 0.030h0.040l4.15-0.92 0.040-0.020c0.039-0.021 0.068-0.056 0.080-0.099l0-0.001 0.75-2.46c0.2-0.050 0.7-0.17 1.16-0.17 0.45 0 0.96 0.12 1.17 0.17l0.74 2.46c0.020 0.070 0.080 0.11 0.14 0.12l4.15 0.47c0.040 0 0.080 0 0.12-0.030l1.37-0.96c0.036-0.026 0.062-0.064 0.070-0.109l0-0.001 0.37-2.58 0.69 0.15-0.41 2.84zM22.5 13.96c0.060 0.050 0.1 0.18 0.050 0.79-0.068 0.828-0.271 1.592-0.588 2.294l0.018-0.044c-0.21 0.040-0.66 0-0.93-0.070l0.1-0.47 0.47-0.33c0.037-0.025 0.063-0.064 0.070-0.109l0-0.001 0.34-2.34zM21.93 12.63c-0.73-0.16-2.33-0.48-4.52-0.7 0.72-0.3 1.45-0.68 2.1-1.15 1.3 0.18 2.26 0.38 2.78 0.5zM23.46 9.97c-0.086 0.609-0.237 1.159-0.447 1.677l0.017-0.047-0.070 0.14-0.070 0.040-0.15 0.060-0.15 0.070 0.26-0.97c-0.356-0.097-0.893-0.216-1.435-0.316l-0.155-0.024 0.1-0.020c0.329-0.085 0.615-0.194 0.884-0.331l-0.024 0.011c0.093-0.051 0.172-0.115 0.239-0.189l0.001-0.001c-0.96 0.32-2.96 0.17-4.73 0-1.444-0.17-3.135-0.274-4.848-0.29l-0.022-0c-1.64 0-3.26 0.12-4.88 0.28-1.77 0.19-3.76 0.33-4.73 0.010 0.070 0.080 0.16 0.14 0.25 0.19l0.27 0.14c0.226 0.092 0.494 0.172 0.772 0.225l0.028 0.005c-0.87 0.16-1.38 0.3-1.44 0.31l0.27 1.020-0.020 0.020-0.43-0.2-0.070-0.040-0.070-0.14c-0.217-0.476-0.369-1.028-0.428-1.608l-0.002-0.022c-0.036-0.269-0.056-0.581-0.056-0.897 0-0.343 0.024-0.681 0.071-1.011l-0.004 0.038c0.22-0.18 0.46-0.34 0.71-0.5 0.611-0.341 1.34-0.678 2.094-0.962l0.116-0.038 0.47-0.16c-0.606 0.097-1.138 0.229-1.652 0.401l0.072-0.021c1.329-3.627 4.715-6.185 8.71-6.27l0.010-0c3.8 0 7.27 2.47 8.72 6.27-0.427-0.141-0.955-0.272-1.496-0.369l-0.074-0.011c0.768 0.271 1.366 0.518 1.951 0.788l-0.141-0.059c0.29 0.13 0.58 0.28 0.85 0.44 0.26 0.14 0.5 0.3 0.72 0.49l0.030 0.17 0.020 0.24c0.013 0.16 0.020 0.346 0.020 0.534 0 0.327-0.022 0.648-0.064 0.963l0.004-0.037zM11.86 4.42h-1.44v-2.040h5.1v2.040h-1.45v-0.6h-0.33v2.76h0.5v1.54h-2.54v-1.54h0.5v-2.76h-0.33z"/>
</svg>