<svg xmlns="http://www.w3.org/2000/svg" version="1.1" width="24" height="24" viewBox="0 0 24 24">
<path d="M19.536 9.15c-1.373 0-2.133 1.014-2.294 2.116h4.608c-0.125-1.050-0.867-2.115-2.314-2.115zM17.276 12.768c0.235 1.156 1.193 1.97 2.532 1.97 0.725 0 1.77-0.27 2.384-0.914l1.175 1.35c-1.064 1.11-2.653 1.426-3.74 1.426-2.64 0-4.697-1.906-4.697-4.606 0-2.535 1.894-4.62 4.57-4.62 2.585 0 4.5 1.98 4.5 4.604v0.766h-6.723zM10.789 16.598v-5.69c0-0.976-0.435-1.536-1.338-1.536-0.814 0-1.355 0.585-1.717 1.007v6.24h-2.35v-5.7c0-0.976-0.415-1.532-1.318-1.532-0.813 0-1.375 0.586-1.717 1.006v6.24h-2.349v-9.125h2.35v1.15c0.4-0.464 1.302-1.26 2.71-1.26 1.247 0 2.096 0.525 2.477 1.59 0.524-0.762 1.5-1.59 2.91-1.59 1.7 0 2.69 1.010 2.69 2.962v6.24h-2.353z"/>
</svg>