<svg xmlns="http://www.w3.org/2000/svg" version="1.1" width="24" height="24" viewBox="0 0 24 24">
<path d="M23.978 10.702c-0.133-3.828-1.139-6.909-3.408-8.592s-5.68-2.267-9.966-2.063c-1.946 0.094-3.702 0.347-5.127 0.917-1.47 0.59-2.606 1.421-3.437 2.578-1.671 2.325-2.188 5.835-2.005 9.88 0.174 3.84 1.169 6.878 3.465 8.535 2.284 1.647 5.996 2.17 9.909 2.005 3.798-0.16 6.883-1.167 8.535-3.466 1.649-2.295 2.175-5.683 2.034-9.794zM6.602 14.77h-0.495v-1.063h0.495c0.946 0 1.636-0.732 1.636-1.636 0-0.903-0.732-1.636-1.636-1.636h-1.599c-0.058 0-0.108 0.039-0.124 0.092l-0 0.001v5.802h-1.030v-5.802c0-0.638 0.517-1.155 1.155-1.155h1.599c1.49 0 2.725 1.208 2.725 2.698s-1.153 2.699-2.726 2.699zM15.304 14.771h-1.044v-2.78c-0.021-0.784-0.853-1.565-1.739-1.565-0.996 0-1.729 0.85-1.729 1.646 0 1.126 0.794 1.641 1.729 1.641h0.368v1.058h-0.368c-1.538-0.001-2.785-0.985-2.785-2.699 0-1.398 1.247-2.699 2.785-2.699 1.389 0 2.739 1.165 2.783 2.618zM16.628 9.55l1.361 2.788-0.592 1.203-1.949-3.99zM17.889 16.521h-1.181l3.426-6.971h1.181z"/>
</svg>