<svg xmlns="http://www.w3.org/2000/svg" version="1.1" width="24" height="24" viewBox="0 0 24 24">
<path d="M12.002 0c-6.617 0-12 5.382-12 11.998 0 6.618 5.384 12.002 12 12.002s11.998-5.384 11.998-12.002c0-6.616-5.381-11.998-11.998-11.998zM12.002 2.43c5.284 0 9.568 4.284 9.568 9.568v0c0 5.286-4.283 9.572-9.568 9.572s-9.57-4.286-9.57-9.572c0-5.285 4.285-9.568 9.57-9.568zM11.867 3.74l-3.045 1.76 2.68 4.64c0.425-0.113 0.888-0.080 1.31 0.118l1.41-2.442zM16.037 5.996l-2.68 4.643c0.325 0.324 0.52 0.749 0.557 1.195h2.816l2.356-4.076zM4.781 7.984v3.55h0.002v-0.030h5.36c0.121-0.449 0.39-0.823 0.75-1.076l0.006-0.004-1.409-2.44zM7.268 12.166l-2.356 4.074 3.049 1.762 2.682-4.645c-0.309-0.309-0.514-0.723-0.556-1.183l-0.001-0.008zM13.858 12.496c-0.121 0.449-0.39 0.822-0.75 1.074l-0.006 0.004 1.41 2.442h4.707v-3.52zM11.188 13.74l-1.41 2.442 2.353 4.076 3.049-1.76-2.68-4.64c-0.425 0.114-0.89 0.080-1.312-0.118z"/>
</svg>