<svg xmlns="http://www.w3.org/2000/svg" version="1.1" width="24" height="24" viewBox="0 0 24 24">
<path d="M23.644 5.43c0.009 0.032 0.014 0.065 0.014 0.099v5.15c0 0.135-0.073 0.26-0.189 0.326l-4.323 2.49v4.934c0 0.135-0.072 0.258-0.188 0.326l-9.027 5.195c-0.021 0.012-0.043 0.020-0.066 0.027-0.008 0.002-0.016 0.008-0.024 0.010-0.063 0.018-0.13 0.018-0.192 0-0.011-0.002-0.020-0.008-0.029-0.012-0.021-0.008-0.043-0.014-0.063-0.025l-9.023-5.195c-0.117-0.068-0.189-0.191-0.189-0.326v-15.455c0-0.033 0.005-0.066 0.014-0.098 0.003-0.012 0.010-0.021 0.014-0.032 0.006-0.020 0.014-0.040 0.023-0.058 0.004-0.013 0.015-0.022 0.023-0.033 0.012-0.016 0.021-0.031 0.033-0.045 0.012-0.010 0.025-0.018 0.037-0.027 0.014-0.012 0.027-0.024 0.041-0.034h0.001l4.513-2.597c0.115-0.067 0.259-0.067 0.375 0l4.514 2.597c0.015 0.010 0.027 0.021 0.041 0.033 0.012 0.009 0.025 0.018 0.037 0.027 0.013 0.014 0.021 0.029 0.033 0.045 0.008 0.011 0.020 0.021 0.025 0.033 0.011 0.019 0.017 0.038 0.024 0.058 0.003 0.011 0.011 0.021 0.013 0.032 0.010 0.031 0.014 0.064 0.014 0.098v9.652l3.76-2.164v-4.934c0-0.033 0.005-0.066 0.014-0.098 0.003-0.011 0.009-0.021 0.013-0.032 0.007-0.020 0.014-0.039 0.024-0.059 0.007-0.012 0.018-0.021 0.025-0.033 0.012-0.015 0.021-0.030 0.033-0.043 0.012-0.012 0.025-0.020 0.037-0.028 0.014-0.011 0.026-0.023 0.041-0.032h0.001l4.513-2.598c0.116-0.067 0.259-0.067 0.375 0l4.513 2.598c0.016 0.010 0.027 0.021 0.042 0.031 0.012 0.010 0.025 0.018 0.036 0.028 0.013 0.014 0.022 0.029 0.034 0.044 0.008 0.012 0.019 0.021 0.024 0.033 0.011 0.020 0.018 0.039 0.024 0.059 0.006 0.011 0.012 0.022 0.015 0.033zM22.904 10.462v-4.283l-3.76 2.164v4.283zM18.393 18.212v-4.287l-8.273 4.723v4.326zM1.095 3.624v14.588l8.273 4.762v-4.326l-4.326-2.448c-0.014-0.010-0.025-0.021-0.040-0.031-0.011-0.010-0.024-0.018-0.035-0.027l-0.001-0.002c-0.013-0.012-0.021-0.025-0.031-0.039-0.010-0.012-0.021-0.023-0.028-0.037h-0.002c-0.008-0.014-0.013-0.031-0.020-0.047s-0.014-0.027-0.018-0.043c-0.004-0.018-0.006-0.037-0.008-0.057-0.002-0.014-0.006-0.027-0.006-0.041v-10.087l-2.18-1.257zM5.231 0.81l-3.76 2.164 3.76 2.164 3.758-2.164zM7.187 14.315l2.182-1.256v-9.435l-3.762 2.165v9.435zM18.769 3.364l-3.76 2.164 3.76 2.163 3.759-2.164zM18.393 8.343l-3.761-2.164v4.283l3.761 2.164zM9.743 17.997l8.27-4.72-3.757-2.163-8.265 4.759z"/>
</svg>