<svg xmlns="http://www.w3.org/2000/svg" version="1.1" width="24" height="24" viewBox="0 0 24 24">
<path d="M7.83 3.866h-1.045c-0.001 0-0.003 0-0.005 0-1.61 0-2.915 1.305-2.915 2.915 0 0.002 0 0.004 0 0.005v-0 8.553c0.899 0.538 1.96 0.909 3.093 1.040l0.037 0.003c-0.125-0.243-0.202-0.529-0.21-0.832l-0-0.003v-6.884c-0.104-0.104-0.104-2.607 1.045-4.797zM20.24 7.829v-1.043c0-0.001 0-0.003 0-0.005 0-1.61-1.305-2.915-2.915-2.915-0.002 0-0.004 0-0.005 0h-8.448c-0.538 0.899-0.908 1.959-1.039 3.092l-0.003 0.037c0.21-0.209 0.522-0.209 0.835-0.209h6.78c0.104 0 2.607 0 4.795 1.043zM16.173 20.241h1.043c0.001 0 0.003 0 0.005 0 1.61 0 2.915-1.305 2.915-2.915 0-0.002 0-0.004 0-0.005v0-8.45c-0.899-0.538-1.96-0.909-3.093-1.040l-0.037-0.003c0.21 0.209 0.21 0.521 0.21 0.834v6.78c0 0.104 0 2.607-1.043 4.799zM3.761 16.173v1.043c0 0.001 0 0.003 0 0.005 0 1.61 1.305 2.915 2.915 2.915 0.002 0 0.004 0 0.005 0h8.448c0.538-0.899 0.908-1.959 1.040-3.092l0.003-0.037c-0.208 0.209-0.521 0.209-0.834 0.209h-6.778c-0.104 0-2.607 0-4.799-1.043zM13.253 0.007h-7.51c-3.129 0-5.736 2.607-5.736 5.736 0 0 0.209 5.528 2.399 8.135 0.104 0.209 0.313 0.313 0.521 0.522v-7.718c0-0.003-0-0.006-0-0.010 0-2.126 1.724-3.85 3.85-3.85 0.004 0 0.007 0 0.011 0h1.667c0.313-0.417 0.626-0.73 0.939-1.042 0.939-0.73 2.399-1.356 3.859-1.773zM23.996 13.253v-7.51c0-3.129-2.607-5.736-5.736-5.736 0 0-5.528 0.208-8.136 2.398-0.223 0.12-0.401 0.299-0.518 0.515l-0.003 0.007h7.718c0.003 0 0.006 0 0.009 0 2.126 0 3.85 1.724 3.85 3.85 0 0.003 0 0.006 0 0.009v-0 1.669c0.417 0.313 0.73 0.626 1.043 0.939 0.73 0.938 1.356 2.398 1.773 3.859zM10.75 23.995h7.51c3.128 0 5.736-2.607 5.736-5.736 0 0-0.209-5.528-2.399-8.135-0.104-0.209-0.313-0.313-0.521-0.522v7.718c0 0.003 0 0.006 0 0.010 0 2.126-1.724 3.85-3.85 3.85-0.004 0-0.007 0-0.011-0h-1.667c-0.313 0.417-0.626 0.73-0.939 1.042-0.939 0.73-2.399 1.356-3.859 1.773zM0.007 10.75v7.509c0 3.129 2.607 5.736 5.736 5.736 0 0 5.528-0.208 8.136-2.398 0.208-0.105 0.313-0.313 0.521-0.522h-7.614c-0.003 0-0.006 0-0.009 0-2.126 0-3.85-1.724-3.85-3.85 0-0.003 0-0.006 0-0.009v0-1.669c-0.417-0.313-0.73-0.626-1.043-0.939-0.834-0.938-1.46-2.398-1.877-3.858z"/>
</svg>