<svg xmlns="http://www.w3.org/2000/svg" version="1.1" width="24" height="24" viewBox="0 0 24 24">
<path d="M23.93 2.94c-3.585-1.316-7.724-2.077-12.042-2.077-3.636 0-7.145 0.54-10.453 1.544l0.255-0.066c-0.983 0.243-1.7 1.117-1.7 2.158 0 0.211 0.029 0.414 0.084 0.607l-0.004-0.016c0.4 1.6 0.98 3.44 1.68 5.11 0.010 0.040 0.030 0.020 0.030-0.020-0.1-0.78 0.5-1.77 1.68-2.13 2.495-0.821 5.367-1.295 8.349-1.295 3.239 0 6.347 0.559 9.234 1.585l-0.193-0.060c0.86 0.3 1.82-0.17 2.1-1.060 0.7-2.25 0.98-3.78 1.050-4.16 0.010-0.070-0.050-0.1-0.070-0.12zM6.65 7.89c-0.86 0.18-2.050 0.46-2.94 0.76-1.78 0.61-1.7 2.78-0.75 3.47 0.070-0.4 0.5-0.95 0.98-1.13 1.78-0.7 3.69-1.12 5.62-1.29-0.98-0.4-1.94-0.97-2.9-1.81zM20.83 12.23c-2.635-1.267-5.728-2.007-8.995-2.007-2.679 0-5.241 0.498-7.6 1.406l0.145-0.049c-0.85 0.32-1.38 1.35-0.85 2.33 1.023 1.836 2.066 3.405 3.215 4.887l-0.065-0.087c-0.17-0.58 0.13-1.66 1.27-2.010 3.15-0.97 6.46-0.56 8.66 0.33 0.62 0.25 1.5 0.1 1.99-0.64 0.744-1.119 1.506-2.435 2.189-3.797l0.101-0.223c0.030-0.060 0-0.11-0.060-0.14zM15.72 20c-0.96-0.491-1.784-1.092-2.501-1.801l0.001 0.001c-0.34-0.34-0.84-0.83-1.37-1.41-1.2 0-2.37 0.12-3.62 0.52-1.16 0.36-1.27 1.7-0.76 2.4 0.86 1.070 1.46 1.65 2.42 2.64 0.494 0.486 1.172 0.785 1.92 0.785 0.738 0 1.408-0.292 1.901-0.766l-0.001 0.001c0.75-0.75 1.21-1.25 2.060-2.21 0.050-0.050 0.030-0.14-0.050-0.16z"/>
</svg>