<svg xmlns="http://www.w3.org/2000/svg" version="1.1" width="24" height="24" viewBox="0 0 24 24">
<path d="M0 23.291h19.601v-2.978h-16.621v-16.624h16.626v10.911h-1.422l2.908 2.909 2.908-2.91h-1.417v-13.89h-22.583zM16.148 13.356c-0.191-0.406-0.432-0.739-0.72-0.997-0.287-0.258-0.599-0.454-0.933-0.583-0.337-0.132-0.641-0.217-0.916-0.254 0.251-0.034 0.496-0.134 0.735-0.296 0.241-0.161 0.455-0.364 0.647-0.609 0.192-0.247 0.345-0.535 0.458-0.863 0.115-0.33 0.171-0.686 0.171-1.069 0-0.648-0.126-1.186-0.377-1.617-0.252-0.432-0.597-0.775-1.033-1.033s-0.948-0.44-1.536-0.547c-0.586-0.108-1.21-0.162-1.868-0.162-0.754 0-1.382 0.018-1.887 0.054-0.502 0.037-0.945 0.083-1.329 0.145v12.933c0.684 0.083 1.293 0.141 1.834 0.171 0.539 0.030 1.082 0.044 1.634 0.044 0.718 0 1.404-0.054 2.057-0.162 0.652-0.107 1.227-0.304 1.723-0.592 0.499-0.288 0.893-0.68 1.187-1.177s0.441-1.135 0.441-1.914c0-0.575-0.096-1.065-0.288-1.472zM10.165 7.321c0.91-0.111 1.873-0.054 2.301 0.304 0.38 0.317 0.607 0.599 0.607 1.42 0 0.751-0.357 1.195-0.608 1.356s-0.59 0.368-1.403 0.368-0.897 0-0.897 0zM13.194 16.001c-0.449 0.39-1.114 0.552-1.816 0.552-0.79 0-1.213-0.072-1.213-0.072v-3.737h1.132c0.711 0 1.438 0.126 1.832 0.464 0.509 0.437 0.611 0.895 0.611 1.505 0.001 0.609-0.212 0.998-0.546 1.288z"/>
</svg>