<svg xmlns="http://www.w3.org/2000/svg" version="1.1" width="24" height="24" viewBox="0 0 24 24">
<path d="M23.495 6.205c-0.29-1.015-1.073-1.798-2.067-2.083l-0.021-0.005c-1.87-0.501-9.396-0.501-9.396-0.501s-7.507-0.010-9.396 0.501c-1.015 0.29-1.798 1.073-2.083 2.067l-0.005 0.021c-0.332 1.71-0.522 3.677-0.522 5.689 0 0.041 0 0.082 0 0.122l-0-0.006c-0 0.028-0 0.061-0 0.095 0 2.011 0.19 3.978 0.553 5.884l-0.031-0.195c0.29 1.015 1.073 1.798 2.067 2.083l0.021 0.005c1.868 0.502 9.396 0.502 9.396 0.502s7.506 0 9.396-0.502c1.015-0.29 1.798-1.073 2.083-2.067l0.005-0.021c0.319-1.675 0.501-3.602 0.501-5.571 0-0.074-0-0.149-0.001-0.223l0 0.011c0.001-0.069 0.001-0.151 0.001-0.233 0-1.97-0.182-3.897-0.531-5.766l0.030 0.193zM9.609 15.601v-7.193l6.264 3.602z"/>
</svg>