<svg xmlns="http://www.w3.org/2000/svg" version="1.1" width="24" height="24" viewBox="0 0 24 24">
<path d="M2.534 9.287c0 6.173 5.026 14.713 9.466 14.713 4.18 0 9.466-8.539 9.466-14.713 0.001-6.174-4.238-9.287-9.466-9.287s-9.466 3.113-9.466 9.287zM14.46 13.852c0.841-0.842 2.004-1.363 3.289-1.363 0.343 0 0.677 0.037 0.999 0.108l-0.031-0.006c0.065 0.291 0.102 0.624 0.102 0.967 0 1.285-0.521 2.448-1.364 3.289l-0 0c-0.842 0.843-2.005 1.364-3.289 1.364-0.343 0-0.677-0.037-0.998-0.107l0.031 0.006c-0.065-0.291-0.102-0.625-0.102-0.968 0-1.285 0.521-2.448 1.364-3.289l0-0zM5.283 12.591c0.291-0.065 0.626-0.102 0.969-0.102 1.285 0 2.447 0.521 3.289 1.363l0 0c0.842 0.841 1.363 2.004 1.363 3.289 0 0.343-0.037 0.677-0.108 0.999l0.006-0.031c-0.291 0.065-0.625 0.102-0.968 0.102-1.285 0-2.448-0.521-3.289-1.364l-0-0c-0.842-0.841-1.364-2.005-1.364-3.289 0-0.342 0.037-0.676 0.107-0.997l-0.006 0.031z"/>
</svg>