<svg xmlns="http://www.w3.org/2000/svg" version="1.1" width="24" height="24" viewBox="0 0 24 24">
<path d="M23.484 4h-8.542v3.186c0.515-0.39 1.132-0.588 1.855-0.588v3.098h3.074c-0.015 0.869-0.315 1.602-0.901 2.193-0.584 0.592-1.318 0.896-2.188 0.916-0.675-0.020-1.29-0.223-1.829-0.615v2.129h6.719v1.045h-6.721v1.293h6.715v1.032h-6.719v2.34h8.543c0.346 0 0.51-0.182 0.51-0.537v-14.982c0-0.342-0.164-0.51-0.51-0.51zM17.28 9.186v-3.124c0.87 0.020 1.6 0.322 2.188 0.91 0.586 0.588 0.891 1.326 0.906 2.214zM8.256 9.238c-0.053-0.201-0.14-0.357-0.263-0.472-0.12-0.112-0.282-0.194-0.483-0.246-0.225-0.061-0.457-0.090-0.69-0.090l-0.72 0.014v2.999h0.026c0.261 0.016 0.535 0.016 0.825 0 0.285-0.015 0.555-0.090 0.809-0.225 0.313-0.225 0.5-0.525 0.561-0.914 0.060-0.391 0.039-0.766-0.064-1.111zM0 3.059v17.946l13.688 2.365v-22.74zM10.213 11.146c-0.375 0.869-0.935 1.425-1.684 1.665-0.749 0.239-1.558 0.332-2.429 0.279v3.422l-1.801-0.209v-9.402l2.859-0.149c0.53-0.033 1.054 0.025 1.566 0.18 0.515 0.152 0.922 0.459 1.223 0.922 0.3 0.461 0.469 0.996 0.51 1.605 0.037 0.609-0.043 1.172-0.244 1.687z"/>
</svg>