<svg xmlns="http://www.w3.org/2000/svg" version="1.1" width="24" height="24" viewBox="0 0 24 24">
<path d="M20.496 9.026c-2.183-0.93-5.116-1.53-8.25-1.695-0.5-0.030-0.987-0.040-1.45-0.040 2.318-2.83 4.802-4.73 6.437-4.79 0.322-0.013 0.595 0.055 0.813 0.196 0.706 0.458 0.905 1.768 0.545 3.59-0.040 0.25 0.12 0.493 0.36 0.54 0.25 0.050 0.49-0.11 0.54-0.36 0.45-2.28 0.12-3.846-0.94-4.538-0.38-0.248-0.84-0.365-1.35-0.346-2.050 0.077-4.94 2.3-7.59 5.72-1.154 0.035-2.24 0.13-3.232 0.287-0.646-2.897-0.39-4.977 0.594-5.477 0.138-0.073 0.285-0.11 0.457-0.124 0.697-0.054 1.66 0.395 2.71 1.27 0.194 0.16 0.486 0.14 0.646-0.060 0.163-0.195 0.134-0.48-0.060-0.645-1.26-1.044-2.422-1.554-3.372-1.484-0.286 0.025-0.556 0.098-0.803 0.22-1.19 0.607-1.67 2.327-1.37 4.838 0.070 0.52 0.16 1.062 0.29 1.62-3.281 0.656-5.371 1.97-5.461 3.624-0.060 1.17 0.865 2.284 2.68 3.222 0.224 0.115 0.502 0.030 0.62-0.2 0.114-0.224 0.030-0.5-0.2-0.616-1.45-0.746-2.23-1.588-2.183-2.358 0.050-1.080 1.772-2.19 4.76-2.78 0.27 0.994 0.62 2.032 1.050 3.090-1.018 1.888-1.756 3.747-2.137 5.4-0.56 2.465-0.26 4.22 0.86 4.948 0.36 0.234 0.78 0.35 1.247 0.35 0.935 0 2.067-0.46 3.347-1.372 0.21-0.15 0.256-0.435 0.11-0.64s-0.433-0.256-0.64-0.106c-1.544 1.103-2.844 1.472-3.562 1.003-0.76-0.495-0.926-1.943-0.46-3.976 0.32-1.386 0.907-2.93 1.708-4.52 0.2 0.438 0.41 0.876 0.63 1.313 1.425 2.796 3.17 5.227 4.91 6.845 1.386 1.29 2.674 1.963 3.735 1.963 0.35 0 0.68-0.075 0.976-0.223 1.145-0.585 1.64-2.21 1.398-4.575-0.224-2.213-1.060-4.91-2.354-7.6-0.11-0.227-0.384-0.323-0.61-0.216-0.23 0.11-0.33 0.385-0.22 0.612 2.69 5.602 2.88 10.19 1.37 10.96-1.59 0.813-5.424-2.355-8.39-8.18-0.34-0.655-0.637-1.3-0.9-1.93 0.34-0.608 0.7-1.22 1.095-1.83 0.395-0.604 0.806-1.188 1.224-1.745h0.394c0.54 0 1.126 0.010 1.734 0.048 6.53 0.343 10.975 2.56 10.884 4.334-0.040 0.765-0.924 1.538-2.425 2.12-0.234 0.096-0.352 0.36-0.26 0.596 0.070 0.18 0.24 0.292 0.426 0.292 0.058 0 0.114-0.010 0.167-0.030 1.905-0.74 2.95-1.756 3.010-2.93 0.070-1.33-1.17-2.61-3.5-3.6zM8.080 9.45c-0.27 0.415-0.52 0.827-0.764 1.244-0.292-0.768-0.532-1.51-0.723-2.215 0.713-0.11 1.485-0.19 2.31-0.24-0.28 0.39-0.554 0.794-0.82 1.21zM12.005 10.625c-0.759 0-1.375 0.616-1.375 1.375s0.616 1.375 1.375 1.375v0c0.759 0 1.375-0.616 1.375-1.375s-0.616-1.375-1.375-1.375v0z"/>
</svg>