<svg xmlns="http://www.w3.org/2000/svg" version="1.1" width="24" height="24" viewBox="0 0 24 24">
<path d="M7.070 10.8v3.877h-1.233v-4.873l2.547 0.002c1.080 0 1.449 0.764 1.449 1.456v3.415h-1.23v-3.408c0-0.291-0.149-0.469-0.513-0.469zM15.459 10.742c-0.422 0-0.748 0.216-0.885 0.51-0.077 0.167-0.117 0.347-0.118 0.53h1.898c-0.023-0.53-0.263-1.040-0.895-1.040zM14.456 12.622c0 0.629 0.393 1.095 1.094 1.095 0.544 0 0.815-0.15 1.131-0.466l0.762 0.729c-0.487 0.481-1.001 0.773-1.902 0.773-1.18 0-2.31-0.643-2.31-2.52 0-1.605 0.985-2.512 2.281-2.512 1.315 0 2.075 1.063 2.075 2.455v0.443h-3.131zM12.188 14.669c-1.004 0-1.432-0.699-1.432-1.391v-4.8h1.232v1.327h0.928v0.996h-0.929v2.4c0 0.284 0.135 0.44 0.429 0.44h0.5v1.027zM4.739 9.131h-1.242v-1.18h1.242zM4.742 14.726c-0.93-0.088-1.246-0.651-1.246-1.305v-3.615h1.244v4.924zM19.547 14.622c-0.929-0.090-1.243-0.652-1.243-1.303v-5.535h1.243v6.84zM23.894 8.584c-1.125-5.493-11.792-5.841-18.664-1.657v0.462c6.865-3.528 16.604-3.508 17.491 1.55 0.296 1.675-0.646 3.418-2.329 4.422v1.311c2.025-0.742 4.105-3.147 3.502-6.088zM11.398 18.194c-4.742 0.438-9.686-0.251-10.377-3.957-0.337-1.827 0.497-3.765 1.598-4.967v-0.643c-1.987 1.743-3.065 3.95-2.444 6.557 0.792 3.345 5.035 5.239 11.509 4.609 2.563-0.249 5.916-1.074 8.247-2.354v-1.816c-2.116 1.261-5.617 2.302-8.533 2.571zM20.984 8.15c0-0.060-0.037-0.079-0.116-0.079h-0.077v0.17l0.077 0.002c0.079 0 0.116-0.025 0.116-0.084zM21.104 8.573h-0.091c-0.009 0-0.018-0.004-0.021-0.012l-0.125-0.213c-0.003-0.005-0.013-0.010-0.019-0.010h-0.056v0.212c0 0.012-0.009 0.025-0.023 0.025h-0.082c-0.011 0-0.021-0.014-0.021-0.025v-0.533c0-0.029 0.012-0.045 0.038-0.048 0.050-0.005 0.101-0.006 0.152-0.006 0.152 0 0.246 0.046 0.246 0.188v0.010c0 0.090-0.046 0.135-0.114 0.158l0.13 0.219c0 0.006 0.005 0.012 0.005 0.018 0.002 0.007-0.004 0.017-0.019 0.017v0.002zM20.886 7.864c-0.226 0-0.408 0.184-0.408 0.41 0.001 0.227 0.186 0.409 0.411 0.408 0.225 0 0.406-0.182 0.409-0.406-0.002-0.226-0.185-0.411-0.412-0.412zM20.886 8.771c-0.273 0-0.495-0.222-0.495-0.495s0.222-0.495 0.494-0.495h0.001c0.271 0 0.495 0.224 0.495 0.495 0 0.274-0.224 0.495-0.495 0.495z"/>
</svg>