<svg xmlns="http://www.w3.org/2000/svg" version="1.1" width="24" height="24" viewBox="0 0 24 24">
<path d="M12.902 1.906c-0.023-0-0.050-0-0.077-0-3.139 0-5.943 1.437-7.789 3.69l-0.014 0.018c-0.082 0.098-0.175 0.214-0.265 0.332l-0.018 0.025 0.004-0.003c0.232-0.196 0.473-0.345 0.717-0.445l0.058-0.023c0.299-0.112 0.602-0.147 0.9-0.088 1.44 0.289 2.19 2.609 1.675 5.183s-2.1 4.427-3.54 4.139c-1.010-0.202-1.678-1.405-1.812-2.992v-0.005 0.052c-0.003 0.132-0.003 0.266 0 0.4v0.073l0.002 0.059c0.005 0.149 0.013 0.296 0.024 0.443 0.005 0.067 0.012 0.134 0.019 0.2 0.122 1.273 0.463 2.44 0.987 3.502l-0.026-0.059c0.060 0.126 0.030 0.276-0.078 0.363l-0.277 0.226c-0.203 0.167-0.331 0.419-0.331 0.7 0 0.096 0.015 0.189 0.043 0.276l-0.002-0.006c0 0.006 0.003 0.010 0.006 0.017 0.018 0.055 0.038 0.102 0.061 0.147l-0.003-0.005 0.050-0.039 0.23-0.174c0.043-0.033 0.098-0.053 0.158-0.053 0.144 0 0.261 0.117 0.261 0.261 0 0.085-0.040 0.16-0.103 0.208l-0.001 0-0.282 0.214 1.177 1.448c0.168 0.204 0.421 0.333 0.704 0.333 0.217 0 0.417-0.076 0.573-0.203l-0.002 0.001 0.258-0.21c0.051-0.041 0.116-0.066 0.187-0.066s0.136 0.025 0.188 0.066l-0.001-0c1.7 1.361 3.882 2.185 6.256 2.185 0.095 0 0.19-0.001 0.285-0.004l-0.014 0c2.095-0.053 4.020-0.74 5.602-1.876l-0.030 0.021c0.048-0.035 0.109-0.057 0.175-0.057 0.079 0 0.152 0.031 0.205 0.082l-0-0 0.163 0.156c0.162 0.154 0.382 0.248 0.624 0.248 0.21 0 0.403-0.071 0.557-0.191l-0.002 0.002-0.004-0.004-0.21-0.197c-0.046-0.047-0.075-0.112-0.075-0.183 0-0.145 0.117-0.262 0.262-0.262 0.065 0 0.125 0.024 0.171 0.064l-0-0 0.225 0.21 1.26-1.326c0.154-0.163 0.248-0.382 0.248-0.624 0-0.258-0.108-0.492-0.281-0.657l-0.263-0.25c-0.057-0.054-0.092-0.13-0.092-0.215 0-0.053 0.014-0.103 0.039-0.147l-0.001 0.001c0.795-1.407 1.264-3.089 1.264-4.881 0-0.633-0.058-1.252-0.17-1.852l0.010 0.062c0.301-0.278 0.853-0.824 1.069-1.292 0.231-0.502 0.29-1.020-0.323-0.792-0.476 0.177-0.842 0.291-1.286 0.19-1.417-3.593-4.847-6.193-8.851-6.4-0.14-0.008-0.305-0.013-0.472-0.014h-0.003zM2.265 6.247c-0.668 0.013-1.205 0.558-1.205 1.228 0 0.195 0.045 0.38 0.126 0.543l-0.003-0.007c-0.659 0.026-1.182 0.567-1.182 1.229 0 0.679 0.551 1.23 1.23 1.23 0.265 0 0.51-0.084 0.71-0.226l-0.004 0.003c0.177-0.124 0.306-0.289 0.395-0.47 0.186 0.342 0.46 0.627 0.778 0.823-0.001 0.042-0.002 0.092-0.002 0.142 0 0.161 0.007 0.321 0.020 0.479l-0.001-0.021c0.102 1.228 0.62 2.16 1.401 2.316 1.114 0.223 2.34-1.21 2.738-3.2 0.399-1.99-0.181-3.784-1.295-4.007-0.434-0.087-0.885 0.080-1.298 0.432-0.45 0.383-0.854 0.988-1.14 1.73-0.010-0.002-0.020-0.003-0.030-0.007-0.14-0.040-0.215-0.131-0.312-0.152 0.203-0.219 0.327-0.512 0.327-0.835 0-0.679-0.551-1.23-1.23-1.23-0.008 0-0.016 0-0.024 0l0.001-0zM5.127 7.491c0.054 0 0.107 0.004 0.16 0.015 0.726 0.143 1.104 1.312 0.844 2.608-0.259 1.298-1.058 2.23-1.783 2.085-0.493-0.098-0.824-0.67-0.905-1.433 0.181 0.070 0.37 0.113 0.56 0.122 0.527 0.024 0.871-0.154 1.14-0.513 0.346-0.465 0.084-1.753-0.374-1.92-0.356-0.13-0.567 0.027-0.884 0.050 0.16-0.298 0.351-0.544 0.557-0.72 0.219-0.185 0.453-0.292 0.685-0.294z"/>
</svg>