<svg xmlns="http://www.w3.org/2000/svg" version="1.1" width="24" height="24" viewBox="0 0 24 24">
<path d="M20.852 6.489c0.488-0.389 0.611-1.088 0.268-1.621-0.301-0.47-0.868-0.662-1.378-0.516l-0.14 0.075c-0.813 0.447-6.306 4.289-5.688 4.723 0.617 0.43 4.363-1.258 6.923-2.664zM20.837 18.043c-2.574-1.405-6.321-3.092-6.938-2.664-0.617 0.434 4.86 4.277 5.673 4.723l0.137 0.075c0.512 0.15 1.067-0.044 1.368-0.515 0.347-0.534 0.211-1.233-0.271-1.62zM23.063 11.002c-0.061-0.015-0.105-0.015-0.166-0.015-0.932 0-7.584 0.722-7.253 1.4 0.331 0.662 4.424 0.993 7.344 0.993 0.603-0.106 1.053-0.663 1.009-1.294-0.046-0.557-0.437-1.008-0.965-1.113zM5.426 16.766c-0.752 2.151-1.459 3.16-3.084 3.16-0.151 0-0.708-0.029-0.738-0.046-0.527-0.029-1.008 0.317-1.144 0.844-0.165 0.588 0.181 1.203 0.783 1.385 0.421 0.074 0.873 0.091 1.264 0.091 2.98 0 3.973-1.717 4.951-4.229l5.869-14.538c0.211-0.662-0.165-1.354-0.813-1.565-0.646-0.21-1.324 0.136-1.565 0.752l-4.093 10.835h-0.061l-4.302-10.909c-0.271-0.602-0.993-0.903-1.64-0.662-0.663 0.241-1.009 0.978-0.786 1.64l5.427 13.244z"/>
</svg>