<svg xmlns="http://www.w3.org/2000/svg" version="1.1" width="24" height="24" viewBox="0 0 24 24">
<path d="M12 0c-6.623 0-12 5.377-12 12s5.377 12 12 12 12-5.377 12-12-5.377-12-12-12zM12 0.75c2.871 0 5.482 1.082 7.469 2.85h-14.939c1.972-1.769 4.591-2.85 7.463-2.85 0.002 0 0.005 0 0.007 0h-0zM4.814 4.35h14.372l-7.186 14.373zM3.6 4.53v14.94c-1.769-1.972-2.85-4.591-2.85-7.463 0-0.002 0-0.005 0-0.007v0c0-2.87 1.082-5.481 2.85-7.47zM20.4 4.53c1.769 1.972 2.85 4.591 2.85 7.463 0 0.002 0 0.005 0 0.007v-0c0 2.871-1.082 5.482-2.85 7.469zM4.35 5.1l7.275 14.55h-7.275zM19.65 5.1v14.55h-7.275zM4.533 20.4h14.936c-1.972 1.769-4.591 2.85-7.463 2.85-0.002 0-0.004 0-0.006 0h0c-0.001 0-0.002 0-0.004 0-2.872 0-5.492-1.081-7.474-2.859l0.010 0.009z"/>
</svg>