<svg xmlns="http://www.w3.org/2000/svg" version="1.1" width="24" height="24" viewBox="0 0 24 24">
<path d="M4.928 1.825c-1.090 0.553-1.090 0.64-0.070 1.78 5.655 6.295 7.004 7.782 7.107 7.782 0.139 0.017 7.971-8.542 8.058-8.801 0.034-0.070-0.208-0.312-0.519-0.536-0.415-0.312-0.864-0.433-1.712-0.467-1.59-0.104-2.144 0.242-4.115 2.455-0.899 1.003-1.66 1.833-1.66 1.833-0.017 0-0.76-0.813-1.642-1.798s-1.902-1.973-2.248-2.163c-0.796-0.45-2.421-0.484-3.199-0.085zM1.297 4.367c-0.847 0.328-1.297 0.64-1.297 0.881 0 0.121 1.331 1.678 2.94 3.459 1.625 1.78 2.939 3.268 2.939 3.302 0 0.035-1.331 1.522-2.94 3.303-1.625 1.798-2.922 3.371-2.904 3.51 0.086 0.467 1.504 1.055 2.541 1.055 1.678-0.018 2.058-0.312 5.603-4.202 1.78-1.954 3.233-3.614 3.233-3.666 0-0.069-1.435-1.694-3.199-3.63-2.3-2.508-3.423-3.632-3.96-3.874-0.812-0.398-2.126-0.467-2.956-0.138zM19.764 4.487c-0.502 0.26-1.764 1.505-3.943 3.891-1.763 1.937-3.199 3.562-3.199 3.631 0 0.070 1.453 1.712 3.234 3.666 3.544 3.89 3.925 4.184 5.602 4.202 1.038 0 2.455-0.588 2.542-1.055 0.017-0.156-1.28-1.712-2.905-3.493-1.608-1.78-2.94-3.285-2.94-3.32s1.332-1.539 2.94-3.32c1.625-1.779 2.922-3.337 2.905-3.475-0.087-0.45-1.366-0.968-2.473-1.038-0.795-0.034-1.21 0.035-1.763 0.311zM7.954 16.973c-2.144 2.369-3.908 4.374-3.943 4.46-0.034 0.070 0.208 0.312 0.52 0.537 0.414 0.311 0.864 0.432 1.711 0.467 1.574 0.103 2.161-0.26 4.15-2.508 0.864-0.968 1.608-1.78 1.625-1.78s0.761 0.812 1.643 1.798c2.023 2.248 2.559 2.576 4.132 2.49 0.848-0.035 1.297-0.156 1.712-0.467 0.311-0.225 0.553-0.467 0.519-0.536-0.087-0.26-7.92-8.819-8.058-8.801-0.069 0-1.867 1.954-4.011 4.34z"/>
</svg>