<svg xmlns="http://www.w3.org/2000/svg" version="1.1" width="24" height="24" viewBox="0 0 24 24">
<path d="M21.984 16.348c0.056-0.112 0.056-0.224 0.112-0.336 1.346-5.272-1.851-11.44-7.347-14.693 2.412 3.253 3.365 7.122 2.524 10.599-0.056 0.28-0.168 0.617-0.28 0.897-0.178-0.099-0.325-0.191-0.466-0.291l0.016 0.011c0 0-5.439-3.365-11.27-9.253-0.169-0.168 3.14 4.71 6.841 8.58-1.738-1.010-6.673-4.542-9.758-7.403 0.337 0.617 0.842 1.234 1.346 1.851 2.58 3.309 5.945 7.346 9.983 10.43-2.86 1.74-6.842 1.851-10.88 0-1.010-0.448-1.85-1.009-2.804-1.682 1.682 2.636 4.318 5.048 7.459 6.337 3.757 1.627 7.57 1.515 10.318 0h0.057c0.112-0.056 0.224-0.112 0.336-0.224 1.346-0.673 3.982-1.402 5.44 1.402 0.392 0.785 1.121-2.86-1.627-6.225z"/>
</svg>