<svg xmlns="http://www.w3.org/2000/svg" version="1.1" width="24" height="24" viewBox="0 0 24 24">
<path d="M24 18.185v2.274h-4.89v-2.274zM0 18.079h11.505v2.274h-11.505v-2.279zM12.89 18.079h4.89v2.274h-4.89v-2.279zM19.111 14.472h4.889v2.274h-4.89zM0 14.367h11.505v2.274h-11.505zM12.89 14.367h4.89v2.274h-4.89zM19.111 11.021h4.889v2.273h-4.89zM0 10.916h11.505v2.271h-11.505zM12.89 10.916h4.89v2.271h-4.89zM19.11 7.307h4.89v2.279h-4.89zM0 7.206h11.505v2.274h-11.505v-2.279zM12.89 7.206h4.89v2.274h-4.89v-2.279zM19.111 3.65h4.889v2.276h-4.89v-2.28zM0 3.541h11.505v2.274h-11.505zM12.89 3.541h4.89v2.274h-4.89z"/>
</svg>