<svg xmlns="http://www.w3.org/2000/svg" version="1.1" width="24" height="24" viewBox="0 0 24 24">
<path d="M16.262 13.293c-0.935 0-1.772 0.414-2.346 1.066l-1.47-1.041c0.156-0.43 0.246-0.891 0.246-1.374 0-0.475-0.086-0.928-0.237-1.352l1.467-1.030c0.574 0.649 1.409 1.060 2.341 1.060 1.725 0 3.129-1.403 3.129-3.129s-1.404-3.129-3.129-3.129-3.129 1.403-3.129 3.129c0 0.309 0.047 0.607 0.13 0.889l-1.468 1.030c-0.613-0.759-1.496-1.291-2.502-1.453v-1.769c1.417-0.298 2.485-1.557 2.485-3.061 0-1.726-1.404-3.129-3.129-3.129s-3.128 1.403-3.128 3.129c0 1.484 1.040 2.728 2.429 3.047v1.792c-1.895 0.333-3.341 1.987-3.341 3.976 0 1.999 1.46 3.659 3.37 3.981v1.892c-1.403 0.308-2.457 1.56-2.457 3.054-0.001 1.726 1.402 3.129 3.127 3.129s3.129-1.403 3.129-3.129c0-1.495-1.054-2.746-2.457-3.054v-1.892c0.966-0.163 1.84-0.671 2.46-1.431l1.48 1.048c-0.082 0.279-0.128 0.574-0.128 0.88 0 1.725 1.404 3.129 3.129 3.129s3.129-1.403 3.129-3.129-1.405-3.129-3.13-3.129zM16.262 5.977c0.837 0 1.517 0.681 1.517 1.517s-0.68 1.517-1.517 1.517c-0.836 0-1.517-0.681-1.517-1.517s0.681-1.517 1.517-1.517zM7.133 3.129c0-0.836 0.68-1.517 1.517-1.517s1.517 0.681 1.517 1.517-0.68 1.517-1.517 1.517-1.517-0.681-1.517-1.517zM10.167 20.871c0 0.836-0.68 1.517-1.517 1.517s-1.517-0.681-1.517-1.517 0.68-1.517 1.517-1.517 1.517 0.681 1.517 1.517zM8.65 14.060c-1.167 0-2.116-0.949-2.116-2.116s0.949-2.116 2.116-2.116 2.116 0.949 2.116 2.116-0.949 2.116-2.116 2.116zM16.262 17.939c-0.837 0-1.517-0.681-1.517-1.517s0.68-1.517 1.517-1.517 1.517 0.681 1.517 1.517-0.68 1.517-1.517 1.517z"/>
</svg>