<svg xmlns="http://www.w3.org/2000/svg" version="1.1" width="24" height="24" viewBox="0 0 24 24">
<path d="M23.642 5.602l-0.931 1.858c0 0-0.4-0.738-0.795-1.076-0.377-0.322-0.864-0.62-1.48-0.556-0.597 0.062-1.27 0.587-1.722 1.46-0.513 0.994-0.688 2.001-0.692 3.112-0.005 1.556 0.57 2.618 0.57 2.618s-0.132-0.494-0.11-1.33c0.014-0.52 0.017-1.089 0.41-2.261 0.33-0.98 1.084-1.775 1.75-1.912 0.517-0.107 0.847-0.030 1.356 0.329 0.603 0.425 0.966 1.193 0.966 1.193l0.946-1.81zM0 5.674l3.77 12.723h0.156l2.356-7.886 2.357 7.886h0.157l3.228-10.895 0.152-0.258h2.655l-2.2 3.802v0.754h0.629c0.806 0 1.398 0.246 1.775 0.738 0.324 0.42 0.487 1.011 0.487 1.776 0 0.691-0.152 1.283-0.455 1.775-0.304 0.492-0.676 0.738-1.116 0.738-0.419 0-0.783-0.138-1.092-0.416-0.308-0.277-0.557-0.657-0.746-1.139l-1.288 0.534c0.261 0.796 0.665 1.427 1.21 1.893 0.544 0.466 1.183 0.699 1.916 0.699 0.974 0 1.767-0.393 2.38-1.178s0.919-1.754 0.919-2.906c0-0.932-0.21-1.743-0.628-2.435-0.42-0.69-1.037-1.167-1.854-1.43l2.326-4.006v-0.77h-6.177l-2.277 7.746-2.278-7.745h-1.65l0.754 2.529-1.54 5.215-2.276-7.744zM17.44 14.554c0 0 0.233 0.755 0.379 1.076 0.084 0.185 0.342 0.75 0.708 1.24 0.341 0.46 1.004 1.248 2.011 1.426s1.7-0.274 1.871-0.384c0.172-0.11 0.533-0.412 0.761-0.657 0.239-0.255 0.465-0.58 0.59-0.775 0.091-0.143 0.24-0.432 0.24-0.432l-0.241-1.255c0 0-0.418 0.748-0.678 1.036-0.261 0.288-0.727 0.794-1.302 1.048-0.576 0.253-0.877 0.302-1.446 0.247s-1.097-0.383-1.282-0.52c-0.185-0.138-0.658-0.542-0.925-0.92-0.268-0.376-0.686-1.13-0.686-1.13z"/>
</svg>