<svg xmlns="http://www.w3.org/2000/svg" version="1.1" width="24" height="24" viewBox="0 0 24 24">
<path d="M17.67 21.633c-2.206 0-3.995-1.789-3.995-3.995s1.789-3.995 3.995-3.995v0c2.206 0 3.995 1.789 3.995 3.995s-1.789 3.995-3.995 3.995v0zM9.701 12.476c-1.379 0-2.497-1.118-2.497-2.497s1.118-2.497 2.497-2.497v0c1.379 0 2.497 1.118 2.497 2.497s-1.118 2.497-2.497 2.497v0zM17.846 4.681h-6.667c-3.399 0.001-6.153 2.756-6.154 6.155v6.667c0 3.399 2.755 6.154 6.154 6.154v0h6.667c3.399 0 6.154-2.755 6.154-6.154v0-6.667c0-3.399-2.755-6.154-6.154-6.155h-0zM3.995 2.339c0 1.103-0.895 1.998-1.998 1.998s-1.998-0.895-1.998-1.998v0c0-1.103 0.895-1.998 1.998-1.998s1.998 0.895 1.998 1.998v0z"/>
</svg>