<svg xmlns="http://www.w3.org/2000/svg" version="1.1" width="24" height="24" viewBox="0 0 24 24">
<path d="M16.465 9.954c0.735-2 1.31-3.65 1.723-4.954 0.41-1.3 0.618-2.1 0.618-2.4 0-0.315-0.070-0.564-0.21-0.738-0.135-0.174-0.324-0.264-0.567-0.264-0.31 0-0.63 0.255-0.94 0.765-0.32 0.51-0.67 1.334-1.060 2.467l-1.65 4.76 2.070 0.362zM14.272 14.389c-0.474-0.030-0.923-0.080-1.344-0.15-0.42-0.080-0.83-0.19-1.216-0.33 0.177 0.35 0.335 0.7 0.472 1.050s0.25 0.69 0.34 1.040c0.26-0.33 0.54-0.63 0.83-0.9 0.292-0.27 0.6-0.51 0.918-0.71zM12.41 9.389l-1.78-5.14c-0.464-1.31-0.82-2.16-1.075-2.57-0.25-0.4-0.525-0.6-0.822-0.6-0.23 0-0.417 0.080-0.56 0.26-0.144 0.18-0.214 0.41-0.214 0.7 0 0.5 0.19 1.38 0.57 2.64 0.38 1.25 0.96 2.89 1.73 4.93 0.060-0.12 0.16-0.21 0.28-0.26s0.28-0.080 0.49-0.080c0.060 0 0.19 0.010 0.39 0.010 0.19 0.020 0.52 0.040 0.97 0.090zM10.792 17.349c0.188 0 0.36-0.090 0.51-0.26 0.15-0.18 0.234-0.36 0.234-0.55 0-0.21-0.15-0.7-0.452-1.46-0.3-0.76-0.68-1.51-1.13-2.25-0.33-0.55-0.655-0.97-0.97-1.25-0.324-0.28-0.625-0.42-0.91-0.42-0.23 0-0.484 0.14-0.767 0.44-0.28 0.29-0.42 0.56-0.42 0.81 0 0.26 0.14 0.66 0.413 1.18 0.275 0.53 0.645 1.090 1.104 1.68 0.485 0.65 0.94 1.15 1.37 1.51 0.428 0.36 0.77 0.54 1.020 0.54h-0.002zM5.847 16.949c0.156 0.19 0.37 0.46 0.646 0.82 0.723 1 1.395 1.5 2.010 1.5 0.21 0 0.397-0.070 0.563-0.2 0.164-0.14 0.247-0.27 0.247-0.42 0-0.17-0.11-0.44-0.33-0.83-0.222-0.39-0.524-0.82-0.907-1.3-0.44-0.56-0.805-0.97-1.098-1.23-0.288-0.26-0.525-0.39-0.697-0.39-0.38 0-0.74 0.21-1.060 0.62-0.32 0.4-0.48 0.9-0.48 1.46 0 0.45 0.12 0.95 0.35 1.51 0.23 0.55 0.55 1.11 0.98 1.67 0.65 0.87 1.46 1.53 2.42 2 0.96 0.46 2.030 0.69 3.19 0.69 2.14 0 3.94-0.8 5.38-2.4 1.45-1.6 2.17-3.6 2.17-6.010 0-0.74-0.050-1.33-0.16-1.76s-0.29-0.75-0.54-0.95c-0.45-0.38-1.33-0.71-2.63-1.010s-2.66-0.45-4.080-0.45c-0.39 0-0.68 0.070-0.84 0.2s-0.24 0.36-0.24 0.673c0 0.75 0.42 1.29 1.26 1.626 0.84 0.34 2.19 0.51 4.060 0.51h0.676c0.15 0 0.28 0.060 0.37 0.174 0.090 0.11 0.15 0.28 0.18 0.52-0.19 0.17-0.57 0.37-1.154 0.6-0.59 0.22-1.030 0.45-1.34 0.665-0.66 0.484-1.19 1.060-1.59 1.724-0.4 0.66-0.6 1.29-0.6 1.883 0 0.36 0.086 0.8 0.258 1.31 0.17 0.51 0.26 0.823 0.26 0.95v0.11l-0.030 0.15c-0.48-0.030-0.86-0.313-1.14-0.85-0.287-0.53-0.42-1.24-0.42-2.13v-0.15c-0.090 0.075-0.176 0.135-0.26 0.165-0.086 0.034-0.178 0.050-0.27 0.050-0.1 0-0.198-0.006-0.29-0.020-0.090-0.016-0.18-0.040-0.29-0.075 0.030 0.12 0.057 0.24 0.076 0.353 0.010 0.12 0.020 0.21 0.020 0.27 0 0.406-0.16 0.76-0.48 1.050-0.32 0.287-0.7 0.43-1.14 0.43-0.69 0-1.397-0.34-2.11-1.010-0.715-0.674-1.070-1.34-1.070-1.985 0-0.12 0.015-0.23 0.040-0.323s0.075-0.17 0.14-0.24zM17.654 10.219c0.985 0.18 1.685 0.6 2.090 1.25 0.41 0.64 0.61 1.66 0.61 3.060 0 2.77-0.828 5.030-2.492 6.79-1.667 1.76-3.797 2.65-6.387 2.65-1.023 0-2.016-0.19-2.976-0.56-0.97-0.37-1.79-0.89-2.49-1.54-0.79-0.73-1.39-1.49-1.78-2.3-0.4-0.81-0.6-1.64-0.6-2.48 0-0.95 0.2-1.68 0.6-2.19 0.4-0.52 1.050-0.87 1.93-1.060-0.17-0.39-0.29-0.71-0.36-0.98-0.080-0.27-0.12-0.47-0.12-0.61 0-0.5 0.26-1.010 0.78-1.52 0.52-0.52 1.010-0.78 1.47-0.78 0.19 0 0.4 0.030 0.62 0.11 0.22 0.070 0.47 0.19 0.75 0.35-0.81-2.35-1.43-4.2-1.81-5.5-0.39-1.31-0.58-2.2-0.58-2.7 0-0.68 0.17-1.23 0.52-1.63 0.36-0.4 0.84-0.6 1.44-0.6 1.030 0 2.34 2.31 3.93 6.923 0.28 0.79 0.48 1.4 0.63 1.83l0.51-1.453c1.59-4.55 2.95-6.83 4.1-6.83 0.56 0 1.010 0.19 1.34 0.57 0.33 0.383 0.5 0.887 0.5 1.523 0 0.48-0.19 1.36-0.56 2.65-0.367 1.28-0.92 2.96-1.67 5.040z"/>
</svg>