<svg xmlns="http://www.w3.org/2000/svg" version="1.1" width="24" height="24" viewBox="0 0 24 24">
<path d="M11.27 15.58h-9.66c-0.343-1.056-0.54-2.27-0.54-3.531 0-0.017 0-0.035 0-0.052v0.003c0-1.25 0.18-2.45 0.54-3.58h15.86c0.003 0 0.006-0 0.010-0 1.972 0 3.57 1.598 3.57 3.57 0 0.004 0 0.007-0 0.011v-0.001c0 0.006 0 0.013 0 0.020 0 1.963-1.588 3.554-3.55 3.56h-0.001zM10.82 16.78h-8.77c0.955 2.154 2.462 3.915 4.345 5.152l0.045 0.028c1.836 1.234 4.096 1.97 6.528 1.97 0.011 0 0.023-0 0.034-0h-0.002c4.15 0 7.78-2.12 9.93-5.3-1.101-1.141-2.642-1.852-4.349-1.86h-0.001zM18.58 7.23c1.7 0 3.25-0.72 4.35-1.85-2.178-3.213-5.811-5.296-9.932-5.296-4.863 0-9.049 2.903-10.918 7.071l-0.030 0.076h8.74z"/>
</svg>