<svg xmlns="http://www.w3.org/2000/svg" version="1.1" width="24" height="24" viewBox="0 0 24 24">
<path d="M8.66 1.23c-0.424 0.004-0.924 0.156-1.13 0.236-1.69 0.678-2.78 3.090-2.2 5.52-0.32-0.139-0.614-0.257-0.676-0.28-0.408-0.163-0.895-0.305-1.397-0.403l-0.053-0.009c-0.849-0.156-1.8-0.189-2.53 0.471-0.693 0.63-0.963 1.87-0.271 2.6 0.749 0.783 2.3 0.637 3.27 0.548 0.101-0.010 0.557-0.040 1-0.106-0.074 0.452-0.116 0.972-0.116 1.503 0 0.031 0 0.061 0 0.092l-0-0.005c-3.73 1.32-3.43 10.1 5.090 11.2 10.8 1.39 11.6-6.81 9.070-9.14 0.091-0.518 0.144-0.999 0.165-1.45 0.433 0.202 0.933 0.386 1.040 0.426 0.903 0.353 2.34 0.917 3.29 0.462 0.874-0.42 0.985-1.56 0.51-2.29-0.497-0.768-1.42-1.010-2.27-1.12-0.34-0.044-0.733-0.069-1.131-0.069-0.133 0-0.266 0.003-0.397 0.008l0.019-0.001c-0.050 0.002-0.252 0.012-0.497 0.030 1.33-1.83 1.4-4.19 0.319-5.48-0.25-0.298-1.22-1.23-1.65-0.743-0.279 0.392 0.226 1.16 0.186 1.74-0.092 0.901-0.855 1.62-1.36 2.010-0.717-0.57-1.36-0.745-1.36-0.745l-0.322-0.062c-0.644-0.5-1.53-0.563-1.53-0.563 0.363-0.44 1.56-0.1 1.56-0.1-1.060-1.060-2.31-0.328-2.31-0.328 0-0.517-0.381-0.831-0.381-0.831-0.398 0.306-0.415 0.714-0.415 0.714-1.010-1.060-2.12-0.794-2.12-0.794s0.98 0.31 1.17 1.080c-0.152-0.031-0.327-0.049-0.507-0.049-0.009 0-0.018 0-0.028 0h0.001l-0.346-0.066c-0.201-0.021-0.435-0.033-0.672-0.033-0.402 0-0.796 0.035-1.179 0.101l0.041-0.006c-0.245-0.593-0.51-1.5-0.191-2.28 0.237-0.527 1.040-0.966 0.983-1.44-0.063-0.277-0.346-0.363-0.675-0.349zM10.69 4.44c0.612 0.065 1.19 0.512 1.6 0.993 0.004-0.298 0.045-0.625 0.269-0.843 0.227 0.189 0.265 0.57 0.25 0.867 0.528-0.343 1.23-0.48 1.82-0.203-0.465-0.063-0.989 0.058-1.24 0.498 0.768 0.044 1.63 0.26 2.1 0.92-0.692-0.385-1.64-0.876-2.42-0.365 0.541 0.139 1.13 0.49 1.17 1.11-0.443-0.606-1.115-1.021-1.886-1.119l-0.014-0.001c-0.69 0.027-1.42 0.342-1.84 0.904-0.106 0.174-0.188 0.353-0.174 0.010-0.044-0.673 0.737-0.908 1.26-0.997-0.612-0.3-1.31-0.514-1.99-0.375 0.511-0.414 1.22-0.43 1.83-0.28-0.077-0.473-0.349-0.871-0.729-1.115l-0.006-0.004zM2.26 6.92c0.187 0.002 0.369 0.021 0.544 0.057l-0.018-0.003c0.284 0.050 0.876 0.21 1.13 0.497 0.25 0.287 0.974 1.36-0.751 1.62-0.563 0.060-1.46 0.159-1.89-0.298-0.394-0.422-0.229-1.16 0.175-1.54 0.265-0.248 0.529-0.328 0.81-0.333zM8.030 7.92c0.009-0 0.020-0 0.031-0 0.082 0 0.163 0.007 0.242 0.022l-0.008-0.001c2.65 0.432 1.14 4.81 1.14 4.81l-0.294-0.203c0.204-0.483 0.428-1.25 0.416-2.010-0.017-1.070-0.63-1.94-1.37-1.92-0.74 0.010-1.33 0.892-1.31 1.97 0.004 0.279 0.046 0.785 0.121 1.050-0.005-0.015-0.005-0.133-0.010-0.15l-0.678-0.213c0 0 0.013-3.32 1.721-3.354zM15.64 9.13c0.156 0.001 0.322 0.022 0.498 0.063 1.94 0.46 0.663 3.57 0.663 3.57l-0.607 0.1v0.003c-0.655 0.103-1.39 0.213-2.13 0.35-0.023-0.028 0.019 0.030 0 0l-0.865 0.143c0 0 0.105-4.25 2.441-4.229zM14.060 13.28l2.21-0.315c0.117-0.167 0.182-0.442 0.225-0.665 0.203-1.050 0.158-2.030-0.53-2.3-0.099-0.040-0.213-0.064-0.333-0.066h-0.001c-0.617-0.012-1.29 0.54-1.63 1.38-0.205 0.518-0.391 1.63-0.258 2 0.050 0.14 0.511 0.119 0.418 0.016zM8.27 9.57c0.226 0 0.409 0.183 0.409 0.409s-0.183 0.409-0.409 0.409v0c-0.226 0-0.409-0.183-0.409-0.409s0.183-0.409 0.409-0.409v0zM21.37 10.12c0.167 0.002 0.32 0.015 0.427 0.030 0.492 0.066 0.904 0.159 1.19 0.617 0.274 0.437 0.213 1.11-0.289 1.36-0.543 0.269-1.37-0.070-1.89-0.281-1.57-0.71-0.56-1.42-0.237-1.59 0.202-0.11 0.517-0.137 0.799-0.136zM15.45 10.765c0.004-0 0.008-0 0.013-0 0.226 0 0.409 0.183 0.409 0.409 0 0.221-0.176 0.402-0.396 0.409l-0.001 0c-0.004 0-0.008 0-0.013 0-0.226 0-0.409-0.183-0.409-0.409 0-0.221 0.176-0.402 0.396-0.409l0.001-0zM5.6 11.506c1.45-0.014 2.64 0.949 3.88 1.56 1.7 0.91 3.72 0.797 5.53 0.348 1.1-0.334 2.49-0.539 3.43 0.234 1.26 1.25 1.41 3.21 0.84 4.79-0.697 2.040-2.7 3.33-4.74 3.75-2.55 0.45-5.29 0.36-7.7-0.663-2.75-1.060-4.7-4.090-4.21-7.060 0.146-1.47 1.41-2.92 2.97-2.959zM7.37 13.256c-0.059 0.001-0.115 0.010-0.168 0.026l0.004-0.001c-0.418 0.125-0.507 0.674-0.198 1.23 0.309 0.552 0.898 0.9 1.32 0.773 0.418-0.125 0.507-0.674 0.198-1.23-0.27-0.484-0.755-0.809-1.156-0.798zM4.82 14.201c-0.013-0.001-0.029-0.001-0.045-0.001-0.213 0-0.41 0.065-0.573 0.177l0.003-0.002c-0.535 0.384-0.549 1.42 0.074 2.29 0.623 0.868 1.65 1.24 2.18 0.857 0.535-0.384 0.534-1.54-0.088-2.41-0.428-0.597-1.040-0.903-1.552-0.911zM15.52 14.373c-0.222 0-0.431 0.053-0.616 0.148l0.008-0.004c-0.571 0.272-0.956 0.837-0.858 1.26 0.098 0.425 0.64 0.549 1.21 0.278 0.572-0.272 0.955-0.837 0.858-1.26-0.061-0.266-0.296-0.414-0.602-0.422zM4.72 14.513c0.633-0.020 1.18 0.411 1.5 0.931 0.3 0.534 0.566 1.41-0.004 1.85-0.878 0.205-1.66-0.574-1.96-1.33-0.244-0.474-0.208-1.41 0.464-1.451zM17.62 15.993c-0.016-0.001-0.034-0.001-0.052-0.001s-0.036 0-0.055 0.001l0.003-0c-0.47 0.022-1.030 0.29-1.51 0.764-0.756 0.755-0.991 1.75-0.525 2.21 0.465 0.466 1.46 0.23 2.21-0.524 0.756-0.756 0.991-1.75 0.525-2.21-0.155-0.148-0.365-0.239-0.596-0.24h-0zM17.634 16.302c0.174 0.010 0.35 0.091 0.44 0.243 0.233 0.785-0.355 1.58-0.985 1.99-0.423 0.305-1.21 0.618-1.51 0.012-0.090-1.11 0.915-2.12 1.98-2.25 0.027 0 0.053 0.002 0.078 0.005l-0.003-0zM7.334 17.752c-0.044 0.002-0.082 0.026-0.103 0.061l-0 0.001c-0.010 0.014-0.19 0.312-0.548 0.309-0.001-0-0.002-0-0.003-0-0.069 0-0.125 0.056-0.125 0.125 0 0.001 0 0.003 0 0.004v-0c0.001 0.065 0.053 0.12 0.116 0.129l0.018 0.001c0.003 0 0.006 0 0.010 0 0.11 0 0.215-0.021 0.312-0.059l-0.006 0.002c0.216 0.431 1.1 1.9 3.28 2.25 2.21 0.353 3.87-0.74 4.3-1.050 0.096 0.073 0.209 0.127 0.333 0.156l0.006 0.001 0.017 0.003c0.004 0 0.008 0.001 0.012 0.001 0.061 0 0.112-0.043 0.126-0.1l0-0.001c0.002-0.008 0.003-0.017 0.003-0.026 0-0.063-0.044-0.116-0.104-0.129l-0.001-0c-0.35-0.078-0.474-0.411-0.48-0.427-0.019-0.052-0.069-0.089-0.127-0.089-0.014 0-0.027 0.002-0.040 0.006l0.001-0c-0.052 0.017-0.088 0.064-0.088 0.12 0 0.015 0.003 0.030 0.008 0.044l-0-0.001c0.003 0.010 0.045 0.126 0.146 0.256-0.436 0.3-2.020 1.26-4.090 0.968-1.93-0.272-2.83-1.69-3.060-2.11 0.138-0.111 0.209-0.23 0.215-0.238 0.011-0.018 0.017-0.041 0.017-0.064 0-0.049-0.027-0.091-0.066-0.113l-0.001-0c-0.021-0.017-0.048-0.027-0.077-0.029l-0-0z"/>
</svg>