<svg xmlns="http://www.w3.org/2000/svg" version="1.1" width="24" height="24" viewBox="0 0 24 24">
<path d="M20.55 14.65c-0.846-0.486-1.805-0.632-2.752-0.666-0.79-0.023-1.974-0.541-1.974-1.985 0-1.072 0.868-1.94 1.985-1.985 0.947-0.034 1.906-0.18 2.752-0.666 1.509-0.884 2.507-2.498 2.507-4.345 0-0.921-0.248-1.784-0.681-2.525l0.013 0.024c-0.89-1.506-2.506-2.501-4.354-2.501-0.926 0-1.794 0.25-2.54 0.686l0.024-0.013c-1.507 0.878-2.504 2.487-2.504 4.328 0 0.005 0 0.010 0 0.015v-0.001c0 0.97 0.35 1.861 0.79 2.696 0.372 0.699 0.553 1.996-0.71 2.73-0.948 0.54-2.132 0.202-2.719-0.745-0.496-0.801-1.094-1.545-1.94-2.030-2.402-1.388-5.47-0.564-6.847 1.827-0.42 0.718-0.667 1.58-0.667 2.5 0 1.847 0.998 3.461 2.484 4.332l0.024 0.013c0.719 0.42 1.582 0.668 2.504 0.668s1.785-0.248 2.528-0.681l-0.024 0.013c0.846-0.485 1.444-1.23 1.94-2.030 0.406-0.654 1.433-1.489 2.718-0.744 0.948 0.541 1.241 1.737 0.711 2.73-0.44 0.823-0.79 1.725-0.79 2.695 0.001 2.765 2.242 5.007 5.007 5.009h0c2.765-0.002 5.006-2.243 5.008-5.008v-0c0-0.008 0-0.017 0-0.027 0-1.835-0.992-3.438-2.469-4.302l-0.024-0.013z"/>
</svg>