<svg xmlns="http://www.w3.org/2000/svg" version="1.1" width="24" height="24" viewBox="0 0 24 24">
<path d="M0 0v24h24v-24zM19.938 5.686l-1.287 1.234c-0.091 0.069-0.148 0.178-0.148 0.299 0 0.022 0.002 0.044 0.006 0.065l-0-0.002v9.067c-0.003 0.019-0.005 0.040-0.005 0.062 0 0.122 0.058 0.23 0.147 0.298l0.001 0.001 1.257 1.234v0.271h-6.322v-0.27l1.302-1.265c0.128-0.128 0.128-0.165 0.128-0.36v-7.33l-3.62 9.195h-0.49l-4.216-9.195v6.163c-0.005 0.034-0.008 0.074-0.008 0.114 0 0.231 0.092 0.44 0.241 0.593l-0-0 1.694 2.054v0.271h-4.802v-0.27l1.695-2.055c0.142-0.147 0.23-0.348 0.23-0.569 0-0.049-0.004-0.096-0.012-0.143l0.001 0.005v-7.126c0.002-0.019 0.003-0.041 0.003-0.063 0-0.184-0.079-0.349-0.206-0.463l-0.001-0-1.506-1.814v-0.27h4.674l3.613 7.923 3.176-7.924h4.456z"/>
</svg>