<svg xmlns="http://www.w3.org/2000/svg" version="1.1" width="24" height="24" viewBox="0 0 24 24">
<path d="M12 0c-6.63 0-12 5.37-12 12 0 6.090 4.53 11.11 10.4 11.9v-2.4c0-0.007 0-0.016 0-0.024 0-0.696-0.447-1.287-1.069-1.503l-0.011-0.003c-3.355-1.156-5.722-4.286-5.722-7.969 0-0.071 0.001-0.141 0.003-0.211l-0 0.010c0.095-4.549 3.805-8.201 8.368-8.201 0.043 0 0.085 0 0.128 0.001l-0.006-0c4.603 0.048 8.316 3.79 8.316 8.4 0 0.109-0.002 0.218-0.006 0.326l0-0.016-0.010 0.070c-0.009 0.156-0.020 0.287-0.033 0.417l0.003-0.037c0 0.070-0.010 0.14-0.020 0.2 0 0.080-0.010 0.16-0.020 0.23l-0.020 0.1c-1.030 6.78-9.85 10.58-9.9 10.61 0.52 0.070 1.060 0.1 1.6 0.1 6.63 0 12-5.37 12-12s-5.37-12-12-12z"/>
</svg>