<svg xmlns="http://www.w3.org/2000/svg" version="1.1" width="24" height="24" viewBox="0 0 24 24">
<path d="M12 0c-6.627 0-12 5.373-12 12s5.373 12 12 12c6.627 0 12-5.373 12-12v0c0-6.627-5.373-12-12-12v0zM11.588 1.377c0.128-0.005 0.277-0.009 0.428-0.009 5.875 0 10.639 4.758 10.648 10.631v0.001c0 0.005 0 0.010 0 0.016 0 5.881-4.767 10.648-10.648 10.648-0.006 0-0.011 0-0.017-0h0.001c-5.87-0.014-10.623-4.776-10.623-10.648 0-5.727 4.521-10.398 10.189-10.638l0.022-0.001zM12 1.9c-0.081 0.002-0.149 0.056-0.172 0.13l-0 0.001-0.883 2.526c-0.002 0.015-0.003 0.031-0.003 0.048s0.001 0.034 0.003 0.050l-0-0.002c0 0 0 0.001 0 0.001 0 0.103 0.052 0.195 0.132 0.249l0.001 0.001c0.242 0.169 0.398 0.447 0.398 0.761 0 0.281-0.125 0.533-0.323 0.703l-0.001 0.001c-0.503 0.433-0.82 1.070-0.82 1.781 0 0.003 0 0.006 0 0.009v-0 0.903l-4.467-2.564-0.547 0.953 4.987 2.877v0.692l-0.602 0.347-4.978-2.88-0.551 0.954 4.428 2.559-0.782 0.45c-0.584 0.346-1.001 0.923-1.125 1.602l-0.002 0.014c-0.084 0.434-0.461 0.758-0.914 0.758-0.145 0-0.282-0.033-0.404-0.092l0.006 0.002c-0.040-0.022-0.088-0.035-0.138-0.035s-0.098 0.013-0.14 0.036l0.002-0.001c-0.030 0.017-0.056 0.038-0.079 0.063l-0 0-1.742 2.037c-0.027 0.032-0.043 0.074-0.043 0.12 0 0.104 0.084 0.188 0.188 0.188 0.011 0 0.022-0.001 0.032-0.003l-0.001 0 2.633-0.493c0.034-0.008 0.064-0.020 0.092-0.036l-0.002 0.001c0.085-0.049 0.144-0.136 0.152-0.237l0-0.001c0.048-0.471 0.442-0.835 0.921-0.835 0.111 0 0.218 0.020 0.317 0.056l-0.006-0.002c0.232 0.084 0.499 0.133 0.777 0.133 0.433 0 0.839-0.118 1.188-0.323l-0.011 0.006 0.78-0.451v5.104h1.098v-5.756l0.598-0.344 0.598 0.344v5.756h1.1v-5.123l0.78 0.45c0.337 0.199 0.743 0.317 1.177 0.317 0.279 0 0.546-0.049 0.794-0.138l-0.016 0.005c0.093-0.034 0.2-0.054 0.312-0.054 0.48 0 0.874 0.365 0.921 0.832l0 0.004c0.005 0.103 0.063 0.191 0.148 0.237l0.001 0.001c0.026 0.015 0.056 0.027 0.088 0.034l0.002 0.001 2.634 0.492c0.013 0.003 0.027 0.005 0.042 0.005 0.102 0 0.184-0.082 0.184-0.184 0-0.049-0.019-0.093-0.050-0.126l0 0 0.004 0.020-1.744-2.037c-0.022-0.024-0.047-0.045-0.073-0.062l-0.002-0.001c-0.041-0.022-0.089-0.035-0.14-0.035s-0.099 0.013-0.142 0.035l0.002-0.001c-0.117 0.056-0.254 0.089-0.398 0.089-0.171 0-0.332-0.046-0.47-0.126l0.005 0.002c-0.225-0.138-0.385-0.363-0.433-0.627l-0.001-0.006c-0.134-0.691-0.554-1.265-1.129-1.603l-0.011-0.006-0.782-0.45 4.436-2.558-0.549-0.955-4.98 2.873-0.602-0.347v-0.692l4.985-2.877-0.547-0.953-4.439 2.564v-0.904c0-0.007 0-0.014 0-0.022 0-0.704-0.31-1.335-0.8-1.764l-0.003-0.002c-0.199-0.17-0.325-0.422-0.325-0.702 0-0.316 0.159-0.594 0.401-0.761l0.003-0.002c0.078-0.057 0.128-0.147 0.128-0.25v-0c0.003-0.015 0.004-0.031 0.004-0.048s-0.002-0.034-0.005-0.050l0 0.002-0.924-2.527c-0.024-0.076-0.094-0.13-0.176-0.13-0.001 0-0.003 0-0.004 0h0zM12.021 7.412c0.322 0.010 0.58 0.274 0.58 0.598 0 0 0 0 0 0v-0 1.69l-0.597 0.347-0.598-0.348v-1.689c0-0 0-0 0-0 0-0.33 0.268-0.598 0.598-0.598 0.006 0 0.012 0 0.018 0l-0.001-0zM12.004 11.23l0.687 0.391v0.781l-0.687 0.391-0.688-0.39v-0.782zM14.303 12.633l1.46 0.847c0.182 0.105 0.302 0.298 0.302 0.52 0 0.109-0.029 0.212-0.081 0.3l0.002-0.003v0.004c-0.106 0.18-0.299 0.299-0.52 0.299-0.11 0-0.214-0.030-0.303-0.082l0.003 0.002-1.465-0.844v-0.696zM9.707 12.637l0.602 0.347v0.692l-1.465 0.844c-0.086 0.050-0.189 0.080-0.299 0.080-0.33 0-0.598-0.268-0.598-0.598 0-0.22 0.119-0.413 0.296-0.516l0.003-0.002z"/>
</svg>