<svg xmlns="http://www.w3.org/2000/svg" version="1.1" width="24" height="24" viewBox="0 0 24 24">
<path d="M12 0c-6.627 0-12 5.372-12 12 0 6.627 5.373 12 12 12s12-5.373 12-12c0-6.628-5.373-12-12-12zM12 22.46c-1.885 0-3.414-1.26-3.414-2.814h6.828c0 1.553-1.528 2.813-3.414 2.814zM17.64 18.715h-11.28v-2.046h11.28zM17.6 15.617h-11.209c-0.037-0.043-0.075-0.086-0.111-0.13-1.155-1.401-1.427-2.133-1.69-2.879-0.005-0.025 1.4 0.287 2.395 0.511 0 0 0.513 0.119 1.262 0.255-0.72-0.843-1.147-1.915-1.147-3.010 0-2.406 1.845-4.508 1.18-6.207 0.648 0.053 1.34 1.367 1.387 3.422 0.689-0.951 0.977-2.69 0.977-3.755 0-1.103 0.727-2.385 1.454-2.429-0.648 1.069 0.168 1.984 0.894 4.256 0.272 0.854 0.237 2.29 0.447 3.201 0.070-1.892 0.395-4.652 1.595-5.605-0.529 1.2 0.079 2.702 0.494 3.424 0.671 1.164 1.078 2.047 1.078 3.716-0.004 1.147-0.423 2.195-1.115 3.002l0.005-0.006c0.792-0.149 1.34-0.283 1.34-0.283l2.573-0.502c0 0-0.374 1.538-1.809 3.019z"/>
</svg>