<svg xmlns="http://www.w3.org/2000/svg" version="1.1" width="24" height="24" viewBox="0 0 24 24">
<path d="M14.979 8.248l5.438-5.514 1.557 1.577-5.438 5.514zM12.776 13.883c-0.535-0.001-1.018-0.222-1.364-0.577l-0-0c-0.348-0.357-0.562-0.846-0.562-1.385 0-0 0-0 0-0v0c0-1.082 0.862-1.96 1.925-1.96 1.064 0 1.928 0.878 1.928 1.96 0 0.516-0.201 1.012-0.563 1.385-0.347 0.355-0.829 0.576-1.364 0.577h-0zM21.998 19.578l-1.556 1.579-5.438-5.515 1.558-1.577zM12.834 20.403c1.117-0 2.182-0.226 3.15-0.635l-0.053 0.020 2.656 2.695c-1.652 0.954-3.634 1.517-5.747 1.517-0.002 0-0.004 0-0.007 0h0c-6.536 0-11.834-5.373-11.834-12s5.299-12 11.834-12c2.068 0 4.012 0.54 5.703 1.486l-2.611 2.65c-0.914-0.387-1.977-0.612-3.092-0.613h-0c-4.577 0-8.287 3.78-8.287 8.44s3.71 8.44 8.287 8.44z"/>
</svg>