<svg xmlns="http://www.w3.org/2000/svg" version="1.1" width="24" height="24" viewBox="0 0 24 24">
<path d="M23.15 2.587l-4.94-2.377c-0.189-0.093-0.412-0.148-0.648-0.148-0.413 0-0.786 0.167-1.057 0.438v0l-9.46 8.63-4.12-3.128c-0.166-0.127-0.376-0.203-0.604-0.203-0.259 0-0.495 0.099-0.673 0.261l-1.321 1.201c-0.201 0.184-0.327 0.447-0.327 0.74s0.126 0.555 0.326 0.738l0.001 0.001 3.573 3.26-3.573 3.26c-0.201 0.184-0.326 0.447-0.326 0.739s0.126 0.556 0.327 0.739l0.001 0.001 1.323 1.201c0.177 0.161 0.413 0.26 0.672 0.26 0.228 0 0.438-0.076 0.606-0.205l-0.002 0.002 4.12-3.128 9.46 8.63c0.27 0.271 0.644 0.438 1.056 0.438 0.236 0 0.459-0.055 0.657-0.152l-0.009 0.004 4.942-2.377c0.506-0.248 0.848-0.76 0.848-1.351 0-0 0-0.001 0-0.001v0-16.121c0-0 0-0 0-0 0-0.592-0.343-1.104-0.841-1.348l-0.009-0.004zM18.004 17.448l-7.178-5.448 7.178-5.448z"/>
</svg>