<svg xmlns="http://www.w3.org/2000/svg" version="1.1" width="24" height="24" viewBox="0 0 24 24">
<path d="M12.008 4.866c-2.914 0-5.377 0.679-6.995 2.11-0.050-0.088-0.085-0.163-0.141-0.253-0.17-0.273-0.328-0.583-0.828-0.89-0.29-0.187-0.631-0.323-0.998-0.385l-0.016-0.002c-0.072-0.009-0.155-0.013-0.24-0.013-0.081 0-0.161 0.005-0.24 0.013l0.010-0.001 0.099-0.013c-0.91 0-1.442 0.546-1.788 1.016-0.344 0.47-0.566 0.999-0.71 1.577-0.285 1.155-0.289 2.651 0.81 3.767 0.575 0.588 1.251 0.863 1.863 1.027 0.118 0.032 0.223 0.040 0.336 0.063 0.399 1.892 1.58 3.492 3.158 4.381v0.001h0.002c0.929 0.522 1.81 0.761 2.472 1.014 0.924 0.357 1.9 0.751 3.036 0.85l0.060 0.006h0.15c1.306 0 2.296-0.527 3.152-0.855 0.655-0.25 1.54-0.482 2.477-1.008 0.454-0.258 0.846-0.55 1.199-0.883l-0.003 0.003c0.96-0.904 1.654-2.080 1.958-3.405l0.009-0.045c0.867-0.145 1.62-0.558 2.189-1.149l0.001-0.001c1.098-1.115 1.094-2.611 0.809-3.766-0.144-0.578-0.366-1.106-0.71-1.577-0.345-0.47-0.879-1.016-1.788-1.016l0.1 0.013c-0.068-0.008-0.147-0.012-0.227-0.012-0.086 0-0.171 0.005-0.255 0.015l0.010-0.001c-0.381 0.064-0.721 0.199-1.021 0.391l0.011-0.006c-0.499 0.307-0.658 0.616-0.827 0.888-0.055 0.089-0.090 0.163-0.139 0.249-1.617-1.426-4.076-2.103-6.985-2.103zM12.031 6.236c3.557 0 6.013 1.065 7.057 2.97 0.63-0.243 1.093-1.89 1.612-2.209 0.42-0.26 0.665-0.195 0.665-0.195 0.95 0 1.93 2.797 0.712 4.032-0.644 0.657-1.83 0.842-2.422 0.795-0.045 1.906-1.155 3.626-2.624 4.45-0.748 0.42-1.552 0.64-2.296 0.924-0.921 0.352-1.786 0.763-2.662 0.763h-0.092c-0.872-0.076-1.74-0.407-2.662-0.763-0.744-0.285-1.548-0.51-2.296-0.93-1.46-0.824-2.571-2.54-2.616-4.445-0.587 0.050-1.788-0.132-2.436-0.794-1.217-1.235-0.238-4.032 0.712-4.032 0 0 0.246-0.064 0.666 0.195 0.521 0.321 0.987 1.984 1.62 2.214 1.044-1.911 3.501-2.975 7.062-2.975zM8.155 8.566c-0.016-0-0.036-0-0.055-0-1.686 0-3.053 1.367-3.053 3.053s1.367 3.053 3.053 3.053c0.019 0 0.039-0 0.058-0.001l-0.003 0c1.662-0.031 2.998-1.386 2.998-3.053s-1.336-3.021-2.995-3.052l-0.003-0zM15.906 8.566c-1.686 0-3.053 1.367-3.053 3.053s1.367 3.052 3.053 3.052v0c1.686 0 3.053-1.367 3.053-3.053s-1.367-3.053-3.053-3.053v0zM8.591 10.28c0.733 0.021 1.32 0.62 1.32 1.356s-0.587 1.336-1.318 1.356l-0.002 0c-0.749-0-1.356-0.607-1.356-1.356 0-0.12 0.016-0.237 0.045-0.347l-0.002 0.009c0.087 0.21 0.291 0.355 0.528 0.355 0.315 0 0.57-0.255 0.57-0.57 0-0 0-0.001 0-0.001v0c0-0 0-0 0-0 0-0.307-0.242-0.557-0.546-0.57l-0.001-0c0.212-0.146 0.475-0.233 0.758-0.233 0.001 0 0.003 0 0.004 0h-0zM15.479 10.28c0.733 0.021 1.32 0.62 1.32 1.356s-0.587 1.336-1.318 1.356l-0.002 0c-0 0-0.001 0-0.001 0-0.749 0-1.356-0.607-1.356-1.356 0-0.12 0.016-0.237 0.045-0.347l-0.002 0.009c0.087 0.21 0.291 0.354 0.528 0.354 0.315 0 0.57-0.255 0.57-0.57 0-0.306-0.242-0.556-0.544-0.569l-0.001-0c0.213-0.147 0.476-0.234 0.76-0.234 0.001 0 0.002 0 0.002 0h-0zM11.52 14.93c-0.239 0.020-0.377 0.146-0.377 0.476 0 0.21 0.138 0.365 0.378 0.365 0.079-0 0.142-0.064 0.142-0.143 0-0.067-0.046-0.123-0.108-0.139l-0.001-0c-0.022-0.005-0.13-0.044-0.13-0.136s0-0.125 0.183-0.15c0.078-0.012 0.116-0.105 0.092-0.18s-0.094-0.1-0.179-0.093zM12.543 14.93c-0.085-0.006-0.156 0.018-0.18 0.093s0.015 0.168 0.093 0.18c0.182 0.025 0.182 0.057 0.182 0.15 0 0.092-0.107 0.131-0.13 0.136-0.063 0.016-0.109 0.072-0.109 0.139 0 0.079 0.064 0.143 0.142 0.143h0c0.24 0 0.379-0.155 0.379-0.365 0-0.33-0.139-0.456-0.377-0.476z"/>
</svg>