<svg xmlns="http://www.w3.org/2000/svg" version="1.1" width="24" height="24" viewBox="0 0 24 24">
<path d="M3.538 0c-1.372 0-1.878 0.506-1.878 1.878v16.565c0 0.155 0.007 0.299 0.019 0.431 0.034 0.302 0.037 0.593 0.317 0.922 0.026 0.038 0.31 0.246 0.31 0.246 0.151 0.076 0.257 0.128 0.43 0.2l8.334 3.492c0.431 0.197 0.613 0.276 0.926 0.265h0.004c0.317 0.011 0.499-0.068 0.93-0.265l8.333-3.492c0.174-0.072 0.276-0.124 0.431-0.2 0 0 0.284-0.212 0.31-0.246 0.28-0.329 0.283-0.62 0.317-0.922 0.012-0.132 0.020-0.276 0.020-0.43v-16.567c-0.001-1.371-0.508-1.877-1.88-1.877zM16.894 3.11h0.68c1.134 0 1.686 0.552 1.686 1.697v1.879h-1.372v-1.803c0-0.367-0.17-0.537-0.525-0.537h-0.234c-0.367 0-0.537 0.17-0.537 0.537v5.813c0 0.366 0.17 0.536 0.537 0.536h0.26c0.352 0 0.522-0.17 0.522-0.536v-2.080h1.376v2.144c0 1.145-0.564 1.708-1.701 1.708h-0.692c-1.141 0-1.7-0.567-1.7-1.708v-5.941c0-1.142 0.559-1.709 1.7-1.709zM4.706 3.186h3.114v1.277h-1.716v2.604h1.652v1.274h-1.652v2.774h1.739v1.274h-3.137zM8.523 3.186h2.196c1.137 0 1.7 0.567 1.7 1.712v2.445c0 1.145-0.563 1.709-1.7 1.709h-0.794v3.337h-1.402zM13.051 3.186h1.398v9.203h-1.398zM9.921 4.426v3.39h0.579c0.351 0 0.521-0.17 0.521-0.54v-2.31c0-0.37-0.17-0.54-0.521-0.54zM6.066 14.58h0.208l0.046 0.007h0.075l0.038 0.012h0.038l0.038 0.011 0.037 0.008 0.034 0.007 0.034 0.008 0.034 0.007 0.038 0.012 0.030 0.007 0.030 0.012 0.038 0.011 0.030 0.015 0.039 0.015 0.034 0.015 0.030 0.020 0.038 0.014 0.026 0.020 0.038 0.018 0.030 0.020 0.034 0.018 0.030 0.023 0.030 0.019 0.030 0.022 0.031 0.023 0.030 0.026 0.030 0.023-0.022 0.030-0.027 0.027-0.022 0.030-0.027 0.030-0.022 0.027-0.023 0.026-0.027 0.030-0.022 0.030-0.023 0.027-0.026 0.030-0.023 0.030-0.027 0.030-0.022 0.027-0.023 0.030-0.026 0.030-0.023 0.031-0.026 0.026-0.023 0.030-0.030-0.022-0.030-0.026-0.030-0.020-0.035-0.022-0.026-0.019-0.034-0.019-0.030-0.019-0.035-0.019-0.060-0.030-0.030-0.011-0.034-0.012-0.038-0.010-0.030-0.008-0.076-0.016-0.038-0.003h-0.041l-0.046-0.008h-0.075l-0.038 0.004h-0.038l-0.038 0.011-0.034 0.008-0.034 0.011-0.037 0.011-0.030 0.015-0.038 0.016-0.057 0.038-0.030 0.018-0.027 0.023-0.026 0.023-0.027 0.022-0.022 0.027-0.030 0.026-0.038 0.057-0.023 0.030-0.015 0.034-0.020 0.030-0.018 0.034-0.011 0.034-0.016 0.034-0.010 0.038-0.005 0.038-0.011 0.034-0.008 0.042v0.037l-0.007 0.038v0.090l0.004 0.039 0.003 0.034 0.004 0.037 0.008 0.038 0.011 0.030 0.004 0.038 0.011 0.030 0.012 0.030 0.015 0.039 0.019 0.037 0.015 0.030 0.019 0.030 0.022 0.031 0.023 0.030 0.019 0.027 0.030 0.026 0.023 0.027 0.026 0.022 0.060 0.046 0.031 0.019 0.030 0.018 0.034 0.016 0.038 0.015 0.030 0.015 0.038 0.011 0.038 0.012 0.038 0.007 0.037 0.008 0.038 0.004 0.046 0.003h0.124l0.046-0.007h0.037l0.038-0.012 0.038-0.007 0.038-0.012 0.034-0.007 0.034-0.015 0.030-0.015 0.038-0.016 0.023-0.015 0.030-0.019v-0.347h-0.552v-0.56h1.247v1.248l-0.026 0.022-0.030 0.023-0.027 0.019-0.030 0.023-0.030 0.018-0.030 0.023-0.030 0.019-0.031 0.019-0.038 0.019-0.034 0.019-0.030 0.019-0.038 0.015-0.030 0.019-0.114 0.045-0.034 0.015-0.034 0.011-0.034 0.012-0.037 0.011-0.034 0.011-0.038 0.012-0.034 0.007-0.076 0.016-0.038 0.007-0.037 0.004-0.076 0.008-0.045 0.003-0.038 0.004-0.042 0.004h-0.196l-0.042-0.008h-0.038l-0.037-0.007h-0.038l-0.038-0.012-0.038-0.007-0.038-0.008-0.037-0.007-0.030-0.012-0.038-0.007-0.038-0.012-0.034-0.015-0.034-0.011-0.038-0.015-0.034-0.015-0.038-0.015-0.030-0.016-0.038-0.018-0.026-0.020-0.038-0.018-0.027-0.020-0.030-0.018-0.060-0.046-0.034-0.022-0.023-0.023-0.030-0.023-0.027-0.026-0.026-0.023-0.027-0.026-0.022-0.027-0.027-0.026-0.022-0.030-0.023-0.027-0.019-0.030-0.023-0.030-0.019-0.030-0.018-0.030-0.020-0.035-0.018-0.030-0.030-0.068-0.016-0.034-0.015-0.034-0.011-0.030-0.015-0.034-0.008-0.034-0.011-0.034-0.008-0.038-0.011-0.034-0.008-0.038-0.003-0.034-0.008-0.038-0.004-0.034-0.003-0.038-0.004-0.037-0.004-0.038v-0.208l0.008-0.038v-0.041l0.010-0.038v-0.038l0.012-0.038 0.012-0.037 0.007-0.038 0.011-0.034 0.012-0.038 0.011-0.034 0.015-0.038 0.015-0.034 0.016-0.034 0.030-0.068 0.019-0.034 0.019-0.030 0.018-0.030 0.020-0.030 0.018-0.030 0.023-0.031 0.023-0.030 0.022-0.030 0.027-0.027 0.022-0.026 0.023-0.027 0.030-0.026 0.023-0.027 0.030-0.023 0.027-0.026 0.030-0.023 0.030-0.022 0.030-0.020 0.030-0.022 0.030-0.019 0.031-0.019 0.034-0.019 0.038-0.019 0.030-0.018 0.038-0.016 0.034-0.015 0.038-0.019 0.030-0.010 0.038-0.012 0.034-0.015 0.034-0.008 0.034-0.011 0.038-0.008 0.034-0.011 0.037-0.008h0.038l0.038-0.011h0.038l0.038-0.008h0.037zM18.055 14.587h0.207l0.046 0.008h0.075l0.038 0.011h0.045l0.038 0.012 0.034 0.007 0.038 0.008 0.038 0.007 0.034 0.008 0.038 0.011 0.037 0.012 0.030 0.007 0.038 0.015 0.038 0.012 0.030 0.015 0.076 0.030 0.034 0.020 0.027 0.014 0.037 0.020 0.034 0.018 0.030 0.019 0.035 0.023 0.030 0.018 0.060 0.046 0.030 0.022-0.022 0.030-0.019 0.031-0.023 0.030-0.022 0.030-0.023 0.034-0.019 0.030-0.023 0.030-0.022 0.031-0.020 0.030-0.022 0.030-0.023 0.030-0.022 0.031-0.020 0.034-0.022 0.030-0.026 0.030-0.020 0.030-0.022 0.031-0.030-0.023-0.034-0.019-0.030-0.018-0.030-0.023-0.035-0.015-0.030-0.020-0.038-0.014-0.026-0.015-0.038-0.016-0.030-0.015-0.030-0.011-0.034-0.015-0.038-0.011-0.038-0.012-0.038-0.011-0.041-0.008-0.038-0.007-0.038-0.008-0.038-0.004-0.037-0.004-0.034-0.003h-0.084l-0.041 0.007-0.038 0.008-0.038 0.007-0.030 0.016-0.026 0.015-0.034 0.030-0.023 0.034-0.015 0.034v0.094l0.019 0.042 0.015 0.023 0.026 0.026 0.038 0.020 0.030 0.018 0.076 0.030 0.049 0.015 0.030 0.008 0.030 0.011 0.038 0.008 0.030 0.011 0.038 0.008 0.042 0.011 0.041 0.011 0.042 0.012 0.042 0.007 0.037 0.012 0.042 0.011 0.038 0.008 0.037 0.011 0.038 0.011 0.038 0.012 0.038 0.011 0.034 0.011 0.038 0.012 0.037 0.015 0.038 0.019 0.038 0.015 0.076 0.038 0.030 0.019 0.030 0.018 0.034 0.023 0.027 0.020 0.034 0.026 0.083 0.083 0.019 0.030 0.026 0.038 0.019 0.026 0.015 0.038 0.019 0.026 0.011 0.038 0.012 0.030 0.007 0.038 0.008 0.038 0.007 0.038 0.004 0.038 0.004 0.037v0.095l-0.004 0.041-0.004 0.038-0.003 0.042-0.008 0.038-0.011 0.037-0.008 0.038-0.011 0.038-0.015 0.034-0.015 0.030-0.016 0.034-0.018 0.030-0.023 0.030-0.020 0.030-0.018 0.031-0.026 0.027-0.023 0.026-0.027 0.023-0.030 0.026-0.026 0.023-0.030 0.023-0.030 0.018-0.031 0.023-0.068 0.034-0.038 0.020-0.038 0.014-0.037 0.015-0.038 0.012-0.038 0.011-0.030 0.011-0.076 0.016-0.030 0.007-0.038 0.008h-0.038l-0.037 0.007h-0.038l-0.038 0.008h-0.28l-0.037-0.004-0.038-0.004-0.042-0.003-0.038-0.008-0.037-0.004-0.038-0.007-0.038-0.008-0.042-0.011-0.037-0.008-0.038-0.011-0.038-0.008-0.038-0.011-0.037-0.012-0.038-0.015-0.034-0.011-0.038-0.011-0.038-0.016-0.030-0.015-0.038-0.015-0.030-0.019-0.038-0.015-0.034-0.019-0.026-0.019-0.038-0.019-0.027-0.018-0.034-0.020-0.030-0.022-0.030-0.023-0.030-0.022-0.030-0.023-0.027-0.023-0.030-0.026 0.022-0.030 0.027-0.027 0.023-0.030 0.026-0.030 0.023-0.027 0.022-0.030 0.027-0.030 0.023-0.027 0.026-0.030 0.023-0.026 0.026-0.030 0.023-0.030 0.022-0.027 0.027-0.030 0.023-0.030 0.026-0.027 0.027-0.030 0.026 0.022 0.038 0.023 0.026 0.023 0.038 0.022 0.030 0.020 0.034 0.022 0.030 0.019 0.035 0.015 0.030 0.019 0.034 0.015 0.038 0.015 0.030 0.015 0.038 0.011 0.030 0.016 0.038 0.010 0.037 0.012 0.038 0.012 0.038 0.007 0.038 0.008 0.038 0.007h0.041l0.038 0.012h0.208l0.038-0.008 0.037-0.008 0.030-0.007 0.030-0.011 0.027-0.016 0.034-0.022 0.020-0.027 0.018-0.030 0.011-0.038v-0.087l-0.015-0.037-0.022-0.030-0.023-0.023-0.034-0.023-0.027-0.015-0.037-0.015-0.038-0.015-0.045-0.020-0.027-0.007-0.030-0.008-0.038-0.010-0.030-0.008-0.038-0.012-0.038-0.007-0.041-0.012-0.038-0.007-0.042-0.012-0.037-0.007-0.038-0.012-0.038-0.007-0.038-0.012-0.038-0.010-0.037-0.008-0.034-0.012-0.034-0.011-0.034-0.012-0.038-0.015-0.042-0.015-0.038-0.015-0.037-0.015-0.076-0.038-0.026-0.019-0.038-0.019-0.027-0.022-0.034-0.020-0.022-0.022-0.027-0.026-0.030-0.027-0.023-0.026-0.022-0.027-0.020-0.026-0.018-0.030-0.020-0.034-0.014-0.027-0.012-0.030-0.011-0.034-0.011-0.030-0.008-0.038-0.007-0.034v-0.038l-0.008-0.038v-0.162l0.008-0.076 0.007-0.030 0.008-0.038 0.011-0.030 0.008-0.038 0.015-0.030 0.015-0.038 0.034-0.068 0.019-0.030 0.026-0.030 0.020-0.030 0.030-0.030 0.026-0.027 0.023-0.030 0.034-0.027 0.022-0.019 0.034-0.023 0.030-0.022 0.030-0.020 0.038-0.018 0.030-0.015 0.039-0.019 0.030-0.015 0.038-0.012 0.037-0.015 0.038-0.011 0.027-0.008 0.037-0.007 0.030-0.008 0.038-0.007 0.038-0.008 0.076-0.008 0.038-0.003zM8.818 14.614h0.707l0.045 0.102 0.011 0.038 0.030 0.068 0.016 0.034 0.015 0.034 0.011 0.034 0.019 0.037 0.015 0.034 0.015 0.035 0.008 0.034 0.015 0.034 0.019 0.034 0.015 0.037 0.015 0.034 0.011 0.034 0.015 0.034 0.020 0.034 0.010 0.034 0.016 0.038 0.011 0.038 0.015 0.030 0.020 0.038 0.014 0.030 0.015 0.038 0.012 0.038 0.011 0.030 0.034 0.068 0.015 0.038 0.011 0.030 0.016 0.038 0.019 0.038 0.015 0.034 0.022 0.068 0.015 0.034 0.020 0.034 0.014 0.037 0.016 0.035 0.010 0.034 0.016 0.034 0.030 0.068 0.015 0.037 0.012 0.034 0.015 0.034 0.019 0.034 0.030 0.068 0.008 0.038 0.015 0.034 0.019 0.034 0.015 0.034 0.011 0.034 0.015 0.034 0.015 0.038 0.020 0.038 0.010 0.030 0.016 0.038 0.011 0.030 0.015 0.038 0.034 0.068 0.011 0.038 0.016 0.030 0.011 0.038 0.019 0.030 0.015 0.038 0.011 0.038 0.015 0.030 0.016 0.038 0.018 0.030 0.016 0.038 0.010 0.037 0.012 0.030 0.015 0.038 0.020 0.030h-0.783l-0.020-0.033-0.010-0.034-0.016-0.034-0.015-0.038-0.011-0.034-0.030-0.068-0.012-0.034-0.030-0.068-0.011-0.034-0.015-0.038-0.015-0.034-0.012-0.034-0.015-0.034h-1.085l-0.015 0.038-0.011 0.030-0.015 0.038-0.019 0.037-0.008 0.030-0.015 0.039-0.015 0.030-0.011 0.038-0.015 0.030-0.015 0.038-0.012 0.030-0.015 0.038-0.015 0.037-0.015 0.030-0.011 0.038h-0.775l0.015-0.037 0.030-0.068 0.012-0.038 0.010-0.034 0.020-0.034 0.030-0.068 0.011-0.034 0.015-0.038 0.020-0.034 0.014-0.034 0.012-0.034 0.011-0.034 0.015-0.034 0.020-0.038 0.014-0.034 0.015-0.034 0.012-0.034 0.030-0.068 0.030-0.076 0.012-0.030 0.015-0.038 0.019-0.030 0.015-0.038 0.011-0.037 0.011-0.030 0.015-0.038 0.020-0.030 0.014-0.038 0.016-0.030 0.010-0.038 0.016-0.038 0.019-0.030 0.011-0.038 0.015-0.030 0.012-0.038 0.015-0.038 0.019-0.030 0.015-0.038 0.011-0.030 0.015-0.038 0.012-0.030 0.019-0.038 0.015-0.038 0.015-0.034 0.011-0.034 0.015-0.034 0.020-0.034 0.014-0.034 0.008-0.038 0.030-0.068 0.019-0.034 0.015-0.034 0.011-0.034 0.016-0.038 0.015-0.037 0.015-0.030 0.015-0.038 0.011-0.030 0.030-0.076 0.020-0.030 0.014-0.038 0.012-0.030 0.011-0.038 0.015-0.030 0.020-0.038 0.014-0.038 0.012-0.030 0.015-0.038 0.034-0.068 0.011-0.038 0.011-0.030 0.016-0.038zM11.010 14.633h0.775l0.022 0.030 0.020 0.034 0.022 0.030 0.019 0.034 0.019 0.030 0.019 0.034 0.018 0.030 0.023 0.035 0.038 0.060 0.019 0.034 0.019 0.030 0.026 0.034 0.015 0.030 0.020 0.035 0.022 0.030 0.023 0.030 0.015 0.034 0.022 0.030 0.020 0.034 0.014 0.030 0.027 0.035 0.019 0.030 0.019 0.034 0.019 0.030 0.018 0.030 0.023 0.034 0.019 0.030 0.019 0.035 0.019 0.030 0.019 0.034 0.022 0.030 0.020 0.034 0.018 0.030 0.023-0.030 0.015-0.038 0.023-0.026 0.022-0.038 0.020-0.026 0.014-0.038 0.027-0.027 0.019-0.037 0.015-0.027 0.023-0.030 0.022-0.038 0.020-0.026 0.018-0.038 0.019-0.027 0.023-0.037 0.018-0.027 0.020-0.038 0.018-0.026 0.020-0.030 0.022-0.038 0.019-0.027 0.019-0.037 0.022-0.027 0.020-0.038 0.018-0.026 0.023-0.030 0.019-0.038 0.022-0.027 0.020-0.037 0.018-0.027 0.020-0.038 0.022-0.026 0.019-0.038 0.019-0.026h0.782v2.789h-0.734v-1.64l-0.018 0.026-0.023 0.038-0.019 0.026-0.023 0.030-0.019 0.038-0.022 0.027-0.020 0.030-0.022 0.038-0.019 0.026-0.019 0.030-0.026 0.030-0.019 0.039-0.023 0.026-0.019 0.030-0.018 0.038-0.023 0.026-0.019 0.030-0.023 0.038-0.019 0.027-0.022 0.030-0.020 0.038-0.018 0.026-0.023 0.030-0.019 0.038-0.022 0.027-0.023 0.030-0.019 0.030-0.019 0.038-0.023 0.027-0.022 0.030-0.015 0.038-0.027 0.026-0.019 0.030-0.022 0.038-0.020 0.027h-0.014l-0.023-0.034-0.019-0.030-0.023-0.035-0.019-0.030-0.022-0.034-0.020-0.030-0.022-0.034-0.019-0.030-0.022-0.034-0.020-0.030-0.026-0.035-0.015-0.030-0.023-0.034-0.022-0.030-0.020-0.034-0.022-0.030-0.019-0.038-0.022-0.030-0.020-0.034-0.022-0.030-0.019-0.035-0.023-0.030-0.018-0.034-0.023-0.030-0.019-0.034-0.023-0.030-0.019-0.034-0.022-0.030-0.020-0.035-0.022-0.030-0.019-0.034-0.026-0.030-0.015-0.034-0.023-0.030v1.644h-0.725v-2.76zM14.48 14.633h2.199v0.63h-1.47v0.447h1.322v0.593h-1.321v0.48h1.489v0.631h-2.215zM9.162 15.487l-0.015 0.038-0.012 0.030-0.015 0.038-0.015 0.037-0.011 0.034-0.015 0.034-0.016 0.038-0.015 0.038-0.011 0.030-0.015 0.038-0.015 0.030-0.012 0.038-0.015 0.038-0.015 0.030-0.011 0.038-0.015 0.030-0.015 0.038-0.016 0.038-0.010 0.030-0.016 0.038-0.015 0.038-0.011 0.030-0.016 0.038h0.643l-0.015-0.038-0.012-0.034-0.015-0.038-0.015-0.034-0.011-0.034-0.015-0.034-0.015-0.038-0.012-0.034-0.030-0.068-0.011-0.034-0.015-0.038-0.012-0.034-0.030-0.068-0.011-0.034-0.015-0.037-0.015-0.038-0.012-0.030-0.030-0.076-0.011-0.034zM8.012 20.71h8.013l-4.090 1.35z"/>
</svg>