<svg xmlns="http://www.w3.org/2000/svg" version="1.1" width="24" height="24" viewBox="0 0 24 24">
<path d="M12.988 12.36l-2.813-2.634v4.429h0.837v-2.455l2.813 2.633v-4.428h-0.837zM6.464 9.665c-0.010-0-0.022-0-0.034-0-1.27 0-2.3 1.030-2.3 2.3 0 0.012 0 0.025 0 0.037l-0-0.002c0 1.257 1.077 2.334 2.334 2.334 0.010 0 0.022 0 0.034 0 1.27 0 2.3-1.030 2.3-2.3 0-0.012-0-0.024-0-0.036l0 0.002c0-0.010 0-0.022 0-0.034 0-1.27-1.030-2.3-2.3-2.3-0.012 0-0.024 0-0.036 0l0.002-0zM6.464 13.496c-0.004 0-0.009 0-0.014 0-0.818 0-1.482-0.664-1.482-1.482 0-0.005 0-0.010 0-0.015v0.001c0-0.838 0.658-1.496 1.496-1.496s1.496 0.658 1.496 1.496-0.658 1.496-1.496 1.496zM2.694 12c-0.24-0.18-0.54-0.3-0.958-0.419-0.838-0.24-0.838-0.479-0.838-0.598 0-0.24 0.299-0.48 0.718-0.48 0.36 0 0.658 0.18 0.778 0.24l0.060 0.060 0.658-0.479-0.060-0.060c0 0-0.538-0.598-1.436-0.598-0.419 0-0.838 0.12-1.137 0.359-0.3 0.24-0.479 0.598-0.479 0.958s0.18 0.718 0.479 0.957c0.24 0.18 0.538 0.3 0.957 0.42 0.838 0.239 0.838 0.478 0.838 0.598 0 0.239-0.299 0.478-0.718 0.478-0.359 0-0.658-0.18-0.778-0.239l-0.060-0.060-0.658 0.479 0.060 0.060c0 0 0.538 0.598 1.436 0.598 0.42 0 0.838-0.12 1.137-0.359 0.3-0.24 0.48-0.598 0.48-0.957 0-0.36-0.18-0.659-0.48-0.958zM17.536 9.666c-0.010-0-0.022-0-0.034-0-1.27 0-2.3 1.030-2.3 2.3 0 0.012 0 0.024 0 0.036l-0-0.002c0.002 1.288 1.046 2.332 2.334 2.334h0c0.010 0 0.022 0 0.034 0 1.27 0 2.3-1.030 2.3-2.3 0-0.012-0-0.024-0-0.036l0 0.002c-0.002-1.288-1.046-2.332-2.334-2.334h-0zM17.536 13.496c-0.004 0-0.009 0-0.014 0-0.818 0-1.482-0.664-1.482-1.482 0-0.005 0-0.010 0-0.015v0.001c0-0.838 0.658-1.496 1.496-1.496s1.496 0.658 1.496 1.496-0.718 1.496-1.496 1.496zM21.306 11.94c0.24 0.18 0.54 0.3 0.958 0.42 0.838 0.239 0.838 0.478 0.838 0.598 0 0.239-0.299 0.478-0.718 0.478-0.36 0-0.658-0.18-0.778-0.239h-0.060l-0.658 0.479 0.060 0.060c0 0 0.538 0.598 1.436 0.598 0.419 0 0.838-0.12 1.137-0.359s0.479-0.598 0.479-0.958-0.18-0.718-0.479-0.957c-0.24-0.18-0.538-0.3-0.957-0.42-0.838-0.239-0.838-0.478-0.838-0.598 0-0.239 0.299-0.478 0.718-0.478 0.359 0 0.658 0.18 0.778 0.239l0.060 0.060 0.658-0.479-0.060-0.060c0 0-0.538-0.598-1.436-0.598-0.42 0-0.838 0.12-1.137 0.359-0.3 0.24-0.48 0.598-0.48 0.957-0.059 0.36 0.12 0.659 0.48 0.898z"/>
</svg>