<svg xmlns="http://www.w3.org/2000/svg" version="1.1" width="24" height="24" viewBox="0 0 24 24">
<path d="M21.794 15.002c0.075-0.057 0.181-0.007 0.194 0.083 0.006 0.057 0.012 0.114 0.012 0.171 0 1.586-3.331 3.744-10 3.744s-10-2.158-10-3.737c0-0.057 0.006-0.115 0.013-0.166 0.007-0.061 0.058-0.107 0.119-0.107 0.028 0 0.054 0.010 0.074 0.025l-0-0c1.656 1.19 4.919 2.209 9.794 2.209 4.881 0 8.144-1.019 9.794-2.222zM12 14.168c-5.406 0-8.988-1.229-10.738-2.649-0.021-0.018-0.048-0.028-0.078-0.028-0.047 0-0.088 0.027-0.109 0.067l-0 0.001c-0.094 0.178-0.137 0.369-0.137 0.56 0 1.75 3.687 4.087 11.062 4.087s11.063-2.33 11.063-4.087c0-0.198-0.044-0.382-0.138-0.56-0.020-0.040-0.062-0.068-0.109-0.068-0.030 0-0.058 0.011-0.079 0.029l0-0c-1.75 1.42-5.33 2.649-10.737 2.649zM24 8.438c0 2.018-4 4.711-12 4.711s-12-2.693-12-4.711 4-3.438 12-3.438 12 1.42 12 3.438zM20.5 8.12c0-1.013-2.831-1.592-8.5-1.592s-8.5 0.58-8.5 1.592 2.831 2.483 8.5 2.483 8.5-1.471 8.5-2.483z"/>
</svg>