<svg xmlns="http://www.w3.org/2000/svg" version="1.1" width="24" height="24" viewBox="0 0 24 24">
<path d="M12 0c-0.001 0-0.002 0-0.003 0-6.627 0-12 5.373-12 12s5.373 12 12 12c2.471 0 4.768-0.747 6.676-2.027l-0.043 0.027 1.98 1.97h3.14l0.25-0.25v-3.15l-2-1.98c1.248-1.853 1.995-4.134 2-6.589v-0.001c0-6.627-5.373-12-12-12v0zM12 4.2c4.305 0.003 7.794 3.494 7.794 7.8 0 1.288-0.312 2.503-0.865 3.574l0.020-0.044-5.25-5.26c-0.435-0.435-1.036-0.704-1.7-0.704-1.328 0-2.404 1.076-2.404 2.404 0 0.664 0.269 1.265 0.704 1.7v0l5.27 5.26c-1.037 0.548-2.266 0.87-3.57 0.87v0c-4.308 0-7.8-3.492-7.8-7.8s3.492-7.8 7.8-7.8v0z"/>
</svg>