<svg xmlns="http://www.w3.org/2000/svg" version="1.1" width="24" height="24" viewBox="0 0 24 24">
<path d="M8.154 15.096c0.048 0.346 0.14 0.562 0.278 0.693 0.144 0.13 0.34 0.18 0.596 0.21 0.304-0.030 0.51-0.1 0.65-0.3 0.083-0.13 0.14-0.33 0.166-0.61l0.098-1.16v-0.020l-0.020-0.18-0.030-0.17-0.030-0.175-0.032-0.165-0.030-0.174-0.030-0.165-0.030-0.164-0.030-0.17-0.028-0.16-0.060-0.3v-0.138l-0.030-0.136-0.030-0.133-0.015-0.126-0.030-0.116-0.030-0.1-0.030-0.17-0.047-0.167-0.090-0.36-0.013-0.197-0.052-0.203-0.045-0.21-0.053-0.21-0.030-0.21-0.043-0.215-0.030-0.213-0.017-0.242-0.015-0.21-0.010-0.228v-0.402l0.020-0.21 0.035-0.21 0.046-0.21 0.060-0.2 0.090-0.194 0.106-0.186 0.040-0.074c-0.2-0.046-0.44-0.076-0.69-0.076-0.11 0-0.2 0-0.3 0.016-2.33 0.2-1.38 2.836-0.98 4.283 0.28 1 0.6 3.34 0.72 4.060zM8.434 6.432c0.090 0.030 0.178 0.045 0.283 0.045 0.48 0 0.79-0.255 0.96-0.645 0.112-0.27 0.162-0.602 0.153-0.945-0.014-0.3-0.074-0.572-0.164-0.81-0.195-0.467-0.54-0.782-1.066-0.782-0.074 0-0.135 0-0.18 0.016-0.675 0.11-0.976 0.78-0.945 1.61 0.015 0.78 0.314 1.43 0.93 1.58zM9.678 10.275c0.084 0.36 0.168 0.69 0.237 0.975 0.285 1.156 0.562 3.843 0.665 4.668 0.098 0.826 0.39 0.99 0.97 1.050 0.576-0.044 0.867-0.224 0.965-1.034s0.38-3.498 0.657-4.653c0.068-0.28 0.16-0.61 0.24-0.96 0.258-1.050 0.466-2.29 0-3.1-0.296-0.51-0.865-0.84-1.86-0.84-1.007 0-1.583 0.33-1.872 0.86-0.465 0.81-0.256 2.060 0 3.11zM11.536 5.995h0.015c0.9 0 1.33-0.823 1.33-1.83s-0.42-1.846-1.32-1.846h-0.010c-0.91 0-1.33 0.84-1.33 1.86s0.42 1.84 1.337 1.84zM14.363 6.747c-0.27 0-0.51 0.030-0.705 0.075l0.045 0.075 0.105 0.194 0.075 0.2 0.060 0.21 0.045 0.21 0.030 0.21 0.015 0.23v0.44l-0.015 0.23v0.167l-0.030 0.217-0.030 0.213-0.044 0.213-0.046 0.21-0.044 0.21-0.045 0.206-0.050 0.2-0.050 0.197-0.060 0.195-0.050 0.18-0.030 0.18-0.050 0.168-0.018 0.090-0.030 0.12-0.030 0.137-0.026 0.134-0.015 0.132-0.030 0.12v0.030l-0.060 0.3-0.020 0.163-0.030 0.168-0.020 0.165-0.030 0.165-0.020 0.18-0.013 0.165-0.028 0.36-0.017 0.18v0.014c0.045 0.496 0.075 0.93 0.090 1.17 0.030 0.287 0.075 0.48 0.166 0.616 0.14 0.2 0.35 0.27 0.66 0.3 0.26-0.030 0.45-0.070 0.6-0.22 0.15-0.12 0.23-0.343 0.29-0.69 0.12-0.703 0.44-3.050 0.71-4.053 0.4-1.45 1.35-4.083-0.98-4.284-0.105-0.014-0.195-0.014-0.3-0.014l0.012-0.050zM14.379 6.477c0.090 0 0.18-0.014 0.27-0.030 0.6-0.15 0.9-0.794 0.93-1.56 0.030-0.81-0.27-1.5-0.95-1.592-0.060-0.016-0.12-0.016-0.18-0.016-0.54 0-0.89 0.33-1.070 0.79-0.090 0.24-0.15 0.52-0.15 0.82-0.020 0.36 0.030 0.69 0.15 0.96 0.16 0.4 0.48 0.66 0.96 0.66zM17.169 7.677c4.29 0.062 6.8 2.702 3.96 6.305-1.32 1.667-3.53 3.317-6.49 4.368l-0.42 0.15c-0.29 0.090-0.56 0.18-0.83 0.256-0.65 0.18-1.26 0.345-1.86 0.465-0.65 0.14-1.28 0.23-1.88 0.3-0.44 0.050-0.86 0.080-1.25 0.080-2.747 0.080-4.818-0.67-5.49-2.28-0.81-1.92 0.823-4.59 4.11-6.63-2.43 0.97-6.84 3.29-7.036 6.57v0.42c0.016 0.35 0.074 0.68 0.195 1.040 0.707 2.22 4.010 3.27 8.21 2.9 0.407-0.030 0.827-0.073 1.25-0.14 0.605-0.082 1.23-0.21 1.86-0.36 0.605-0.13 1.23-0.31 1.865-0.51l0.42-0.13c0.285-0.090 0.557-0.18 0.826-0.285 3.646-1.32 6.35-3.075 7.926-5.102 0.9-1.152 1.365-2.232 1.455-3.18v-0.733c-0.26-2.413-3.060-3.824-6.877-3.435l0.044-0.045z"/>
</svg>