<svg xmlns="http://www.w3.org/2000/svg" version="1.1" width="24" height="24" viewBox="0 0 24 24">
<path d="M12.095 2.9c0 0-0.92 0.778-1.857 1.55-0.964-0.032-2.856 0.199-3.88 0.598-0.946-0.64-1.776-1.348-1.776-1.348s-0.709 1.305-1.154 2.070c-0.662 0.377-1.325 0.8-1.917 1.36-0.687-0.29-1.485-0.648-1.511-0.659 0.911 1.966 1.524 3.935 3.19 5.119 2.654-4.483 14.983-4.070 17.691-0.025 1.75-0.977 2.43-3.078 3.119-5.018-0.075 0.026-1.012 0.362-1.619 0.61-0.363-0.423-1.217-1.072-1.702-1.385-0.62-1.226-0.996-1.92-1.381-2.61l0.25 0.488c0 0-0.794 0.632-1.715 1.322-1.243-0.246-2.747-0.544-4.012-0.47-0.626-0.557-1.188-1.080-1.739-1.614l0.013 0.012zM0.942 10.65l2.189 5.671c3.801 5.366 13.508 5.739 17.74 0.104 1.001-2.415 2.352-5.808 2.352-5.808-1.086 1.721-2.852 2.909-3.94 3.549-0.774 0.453-2.558 0.727-2.558 0.727l-4.684-2.597-4.71 2.545c0 0-1.761-0.303-2.558-0.701-1.608-0.919-2.69-2.004-3.831-3.49z"/>
</svg>