<svg xmlns="http://www.w3.org/2000/svg" version="1.1" width="24" height="24" viewBox="0 0 24 24">
<path d="M0.045 18.020c0.072-0.116 0.187-0.124 0.348-0.022 3.636 2.11 7.594 3.166 11.87 3.166 2.852 0 5.668-0.533 8.447-1.595l0.315-0.14c0.138-0.060 0.234-0.1 0.293-0.13 0.226-0.088 0.39-0.046 0.525 0.13 0.12 0.174 0.090 0.336-0.12 0.48-0.256 0.19-0.6 0.41-1.006 0.654-1.244 0.743-2.64 1.316-4.185 1.726-1.53 0.406-3.045 0.61-4.516 0.61-2.265 0-4.41-0.396-6.435-1.187-2.020-0.794-3.82-1.91-5.43-3.35-0.1-0.074-0.15-0.15-0.15-0.22 0-0.047 0.020-0.090 0.044-0.122zM6.61 11.802c0-1.005 0.247-1.863 0.743-2.577 0.495-0.71 1.17-1.25 2.040-1.615 0.796-0.335 1.756-0.575 2.912-0.72 0.39-0.046 1.033-0.103 1.92-0.174v-0.37c0-0.93-0.105-1.558-0.3-1.875-0.302-0.43-0.78-0.65-1.44-0.65h-0.182c-0.48 0.046-0.896 0.196-1.246 0.46-0.35 0.27-0.575 0.63-0.675 1.096-0.060 0.3-0.206 0.465-0.435 0.51l-2.52-0.315c-0.248-0.060-0.372-0.18-0.372-0.39 0-0.046 0.007-0.090 0.022-0.15 0.247-1.29 0.855-2.25 1.82-2.88 0.976-0.616 2.1-0.975 3.39-1.050h0.54c1.65 0 2.957 0.434 3.888 1.29 0.135 0.15 0.27 0.3 0.405 0.48 0.12 0.165 0.224 0.314 0.283 0.45 0.075 0.134 0.15 0.33 0.195 0.57 0.060 0.254 0.105 0.42 0.135 0.51 0.030 0.104 0.062 0.3 0.076 0.615 0.010 0.313 0.020 0.493 0.020 0.553v5.28c0 0.376 0.060 0.72 0.165 1.036 0.105 0.313 0.21 0.54 0.315 0.674l0.51 0.674c0.090 0.136 0.136 0.256 0.136 0.36 0 0.12-0.060 0.226-0.18 0.314-1.2 1.050-1.86 1.62-1.963 1.71-0.165 0.135-0.375 0.15-0.63 0.045-0.195-0.166-0.375-0.332-0.526-0.496l-0.31-0.347c-0.060-0.074-0.166-0.21-0.317-0.42l-0.3-0.435c-0.81 0.886-1.603 1.44-2.4 1.665-0.494 0.15-1.093 0.227-1.83 0.227-1.11 0-2.040-0.343-2.76-1.034s-1.080-1.665-1.080-2.94zM10.363 11.364c0 0.566 0.14 1.020 0.425 1.364 0.285 0.34 0.675 0.512 1.155 0.512 0.045 0 0.106-0.007 0.195-0.020 0.090-0.016 0.134-0.023 0.166-0.023 0.614-0.16 1.080-0.553 1.424-1.178 0.165-0.28 0.285-0.58 0.36-0.91 0.090-0.32 0.12-0.59 0.135-0.8 0.015-0.195 0.015-0.54 0.015-1.005v-0.54c-0.84 0-1.484 0.060-1.92 0.18-1.275 0.36-1.92 1.17-1.92 2.43zM19.525 18.391c0.030-0.060 0.075-0.11 0.132-0.17 0.362-0.243 0.714-0.41 1.050-0.5 0.55-0.133 1.090-0.222 1.612-0.24 0.14-0.012 0.28 0 0.41 0.030 0.65 0.060 1.050 0.168 1.172 0.33 0.063 0.090 0.090 0.228 0.090 0.39v0.15c0 0.51-0.14 1.11-0.415 1.8-0.278 0.69-0.664 1.248-1.156 1.68-0.073 0.060-0.14 0.090-0.197 0.090-0.030 0-0.060 0-0.090-0.012-0.090-0.044-0.107-0.12-0.064-0.24 0.54-1.26 0.806-2.143 0.806-2.64 0-0.15-0.030-0.27-0.087-0.344-0.145-0.166-0.55-0.257-1.224-0.257-0.243 0-0.533 0.016-0.87 0.046-0.363 0.045-0.7 0.090-1 0.135-0.090 0-0.148-0.014-0.18-0.044-0.030-0.030-0.036-0.047-0.020-0.077 0-0.017 0.006-0.030 0.020-0.063z"/>
</svg>