<svg xmlns="http://www.w3.org/2000/svg" version="1.1" width="24" height="24" viewBox="0 0 24 24">
<path d="M12.305 13.18v-2.387c0-0.487 0.227-0.835 0.712-0.835h2.99c0.017 0 0.035-0.018 0.035-0.036v-0.475c0-0.004 0-0.008-0.003-0.012h-3.66c-0.792 0.1-1.18 0.653-1.18 1.358v2.386c0 0.483-0.233 0.832-0.71 0.832h-3.154c-0.018 0-0.036 0.012-0.036 0.036v0.475c0 0.020 0.010 0.035 0.023 0.040h3.584c0.933-0.025 1.393-0.62 1.399-1.382zM0.025 14.565h1.050c0.013-0.005 0.025-0.020 0.025-0.040v-1.52c0-0.488 0.275-0.824 0.676-0.824h4.324c0.974 0 1.446-0.6 1.446-1.384 0-0.706-0.387-1.258-1.18-1.358h-6.36c0 0.003-0.006 0.005-0.006 0.010v0.475c0 0.024 0.013 0.036 0.037 0.036h5.698c0.484 0 0.712 0.35 0.712 0.834s-0.227 0.836-0.712 0.836h-4.508c-0.7 0-1.226 0.592-1.226 1.373v1.52c0 0.020 0.010 0.036 0.024 0.042zM16.025 14.015h5.74c0.017 0 0.030 0.012 0.030 0.024v0.483c0 0.024 0.017 0.036 0.035 0.036h1.035c0.018 0 0.036-0.010 0.036-0.036v-0.475c0-0.018 0.020-0.036 0.040-0.036h1.028c0.024 0 0.036-0.018 0.036-0.036v-0.484c0-0.018-0.010-0.036-0.035-0.036h-1.030c-0.020 0-0.037-0.017-0.037-0.035v-3.462c0-0.283-0.104-0.463-0.28-0.523h-0.3c-0.093 0.024-0.195 0.067-0.303 0.132l-6.182 3.817c-0.24 0.15-0.323 0.318-0.263 0.445 0.048 0.104 0.185 0.182 0.45 0.186zM16.921 13.378l4.79-2.963c0.030-0.024 0.090-0.018 0.090 0.048v2.963c0 0.018-0.015 0.036-0.033 0.036h-4.818c-0.040 0-0.060-0.012-0.065-0.024-0.006-0.024 0.005-0.042 0.036-0.060z"/>
</svg>