<svg xmlns="http://www.w3.org/2000/svg" version="1.1" width="24" height="24" viewBox="0 0 24 24">
<path d="M18.545 0.545h-13.090l-5.455 8.728 2.182 14.182h3.886l-0.273-3.273h1.909l0.273 3.273h8.045l0.273-3.273h1.909l-0.273 3.273h3.886l2.183-14.182zM18.545 18h-13.090l-1.091-8.727 2.182-4.364h3.506l-0.234 1.636h4.364l-0.234-1.636h3.506l2.182 4.364zM15.545 11.045c0.301 0 0.545 0.908 0.545 2.029s-0.244 2.029-0.545 2.029-0.545-0.908-0.545-2.029c0-1.12 0.244-2.029 0.545-2.029zM8.659 11.215c0.301 0 0.545 0.908 0.545 2.029s-0.244 2.029-0.545 2.029-0.545-0.908-0.545-2.029 0.244-2.029 0.545-2.029z"/>
</svg>