<svg xmlns="http://www.w3.org/2000/svg" version="1.1" width="24" height="24" viewBox="0 0 24 24">
<path d="M12 24c-6.627 0-12-5.373-12-12s5.373-12 12-12 12 5.373 12 12-5.373 12-12 12zM12 23.25c6.213 0 11.25-5.037 11.25-11.25s-5.037-11.25-11.25-11.25-11.25 5.037-11.25 11.25 5.037 11.25 11.25 11.25zM12 2c0.138 0 0.25 0.112 0.25 0.25v0 1c0 0.138-0.112 0.25-0.25 0.25s-0.25-0.112-0.25-0.25v0-1c0-0.138 0.112-0.25 0.25-0.25v0zM12 20.5c0.138 0 0.25 0.112 0.25 0.25v0 1c0 0.138-0.112 0.25-0.25 0.25s-0.25-0.112-0.25-0.25v0-1c0-0.138 0.112-0.25 0.25-0.25v0zM19.071 4.929c0.045 0.045 0.073 0.108 0.073 0.177s-0.028 0.131-0.073 0.177v0l-0.707 0.708c-0.045 0.045-0.108 0.073-0.177 0.073-0.138 0-0.25-0.112-0.25-0.25 0-0.069 0.028-0.132 0.073-0.177v0l0.708-0.707c0.045-0.045 0.108-0.073 0.177-0.073s0.131 0.028 0.177 0.073v0zM5.99 18.010c0.045 0.045 0.073 0.108 0.073 0.177s-0.028 0.132-0.073 0.177v0l-0.708 0.707c-0.046 0.051-0.112 0.083-0.186 0.083-0.138 0-0.25-0.112-0.25-0.25 0-0.074 0.032-0.14 0.083-0.186l0-0 0.707-0.708c0.045-0.045 0.108-0.073 0.177-0.073s0.132 0.028 0.177 0.073v0zM4.929 4.93c0.045-0.045 0.108-0.073 0.177-0.073s0.131 0.028 0.177 0.073v0l0.708 0.707c0.045 0.045 0.073 0.108 0.073 0.177 0 0.138-0.112 0.25-0.25 0.25-0.069 0-0.132-0.028-0.177-0.073v0l-0.707-0.708c-0.045-0.045-0.073-0.108-0.073-0.177s0.028-0.131 0.073-0.177v0zM18.010 18.010c0.045-0.045 0.108-0.073 0.177-0.073s0.132 0.028 0.177 0.073v0l0.707 0.708c0.051 0.046 0.083 0.112 0.083 0.186 0 0.138-0.112 0.25-0.25 0.25-0.074 0-0.14-0.032-0.186-0.083l-0-0-0.708-0.707c-0.045-0.045-0.073-0.108-0.073-0.177s0.028-0.132 0.073-0.177v0zM2 12c0-0.138 0.112-0.25 0.25-0.25v0h1c0.138 0 0.25 0.112 0.25 0.25s-0.112 0.25-0.25 0.25v0h-1c-0.138 0-0.25-0.112-0.25-0.25v0zM20.5 12c0-0.138 0.112-0.25 0.25-0.25v0h1c0.138 0 0.25 0.112 0.25 0.25s-0.112 0.25-0.25 0.25v0h-1c-0.138 0-0.25-0.112-0.25-0.25v0zM15.907 2.795c0.091 0.039 0.153 0.127 0.153 0.23 0 0.035-0.007 0.069-0.020 0.099l0.001-0.002-0.391 0.92c-0.037 0.095-0.128 0.161-0.234 0.161-0.138 0-0.25-0.112-0.25-0.25 0-0.039 0.009-0.075 0.024-0.108l-0.001 0.002 0.39-0.92c0.039-0.091 0.127-0.153 0.23-0.153 0.035 0 0.069 0.007 0.099 0.020l-0.002-0.001zM8.68 19.825c0.090 0.039 0.152 0.127 0.152 0.23 0 0.035-0.007 0.068-0.020 0.099l0.001-0.002-0.39 0.92c-0.041 0.086-0.127 0.144-0.226 0.144-0.138 0-0.25-0.112-0.25-0.25 0-0.032 0.006-0.062 0.017-0.090l-0.001 0.002 0.39-0.92c0.039-0.090 0.127-0.152 0.23-0.152 0.035 0 0.069 0.007 0.1 0.021l-0.002-0.001zM21.272 8.253c0.011 0.028 0.018 0.060 0.018 0.093 0 0.104-0.064 0.194-0.154 0.231l-0.002 0.001-0.927 0.375c-0.028 0.012-0.060 0.018-0.094 0.018-0.138 0-0.25-0.112-0.25-0.25 0-0.104 0.064-0.194 0.155-0.231l0.002-0.001 0.927-0.374c0.028-0.012 0.060-0.018 0.094-0.018 0.104 0 0.194 0.064 0.231 0.155l0.001 0.002zM4.119 15.183c0.012 0.028 0.018 0.060 0.018 0.094 0 0.104-0.064 0.194-0.155 0.231l-0.002 0.001-0.927 0.374c-0.030 0.014-0.065 0.022-0.102 0.022-0.138 0-0.25-0.112-0.25-0.25 0-0.107 0.067-0.199 0.162-0.234l0.002-0.001 0.927-0.375c0.028-0.012 0.060-0.018 0.094-0.018 0.104 0 0.194 0.064 0.231 0.155l0.001 0.002zM8.254 2.728c0.028-0.011 0.060-0.018 0.093-0.018 0.104 0 0.194 0.064 0.231 0.154l0.001 0.002 0.375 0.927c0.012 0.028 0.018 0.060 0.018 0.094 0 0.138-0.112 0.25-0.25 0.25-0.104 0-0.194-0.064-0.231-0.155l-0.001-0.002-0.374-0.927c-0.012-0.028-0.018-0.060-0.018-0.094 0-0.104 0.064-0.194 0.155-0.231l0.002-0.001zM15.184 19.881c0.028-0.012 0.060-0.018 0.094-0.018 0.104 0 0.194 0.064 0.231 0.155l0.001 0.002 0.374 0.927c0.014 0.030 0.022 0.065 0.022 0.102 0 0.138-0.112 0.25-0.25 0.25-0.107 0-0.199-0.067-0.234-0.162l-0.001-0.002-0.375-0.927c-0.012-0.028-0.018-0.060-0.018-0.094 0-0.104 0.064-0.194 0.155-0.231l0.002-0.001zM2.795 8.093c0.039-0.091 0.127-0.153 0.23-0.153 0.035 0 0.069 0.007 0.099 0.020l-0.002-0.001 0.92 0.391c0.086 0.041 0.144 0.127 0.144 0.226 0 0.138-0.112 0.25-0.25 0.25-0.032 0-0.062-0.006-0.090-0.017l0.002 0.001-0.92-0.39c-0.091-0.039-0.153-0.127-0.153-0.23 0-0.035 0.007-0.069 0.020-0.099l-0.001 0.002zM19.825 15.321c0.039-0.090 0.127-0.152 0.23-0.152 0.035 0 0.068 0.007 0.099 0.020l-0.002-0.001 0.92 0.39c0.095 0.037 0.161 0.128 0.161 0.234 0 0.138-0.112 0.25-0.25 0.25-0.039 0-0.075-0.009-0.108-0.024l0.002 0.001-0.92-0.39c-0.090-0.039-0.152-0.127-0.152-0.23 0-0.035 0.007-0.069 0.021-0.1l-0.001 0.002zM12.879 12.879l-1.759-1.759-4.141 5.9zM19.071 4.929l-5.834 8.308-8.308 5.834 5.834-8.308z"/>
</svg>