<svg xmlns="http://www.w3.org/2000/svg" version="1.1" width="24" height="24" viewBox="0 0 24 24">
<path d="M2.968 11.583h1.274v-3.82c0-0.001 0-0.002 0-0.003 0-4.286 3.474-7.76 7.76-7.76 0.001 0 0.002 0 0.003 0h-0c0.001 0 0.001 0 0.002 0 4.286 0 7.76 3.474 7.76 7.76 0 0.001 0 0.002 0 0.003v-0 3.783c-0.018 0.010-0.037 0.028-0.056 0.037l-0.010 0.010-0.008 0.009h-0.010l-0.019 0.019h-0.028l-0.018 0.018h-0.020l-0.018 0.010h-0.010l-0.009 0.010-0.009 0.009h-0.010l-0.009 0.009-0.009 0.010-0.010 0.009-0.009 0.009-0.028 0.019-0.019 0.010-0.028 0.018-0.018 0.010-0.020 0.009-0.027 0.018-0.019 0.010-0.010 0.009-0.027 0.019-0.020 0.010-0.046 0.027-0.019 0.010-0.038 0.019h-0.008l-0.057 0.027h-0.019c-0.018 0.010-0.037 0.020-0.065 0.038h-0.010l-0.009 0.010-0.028 0.018-0.018 0.010-0.029 0.018-0.018 0.010h-0.010l-0.028 0.018-0.018 0.010-0.020 0.009c-0.018 0.010-0.046 0.019-0.065 0.028l-0.018 0.010-0.020 0.009-0.037 0.018-0.037 0.020-0.047 0.018-0.047 0.019-0.019 0.009-0.037 0.019-0.019 0.010c-1.545 0.739-4.017 1.516-8.708 1.853-3.362 0.244-5.403 1.723-6.724 3.502zM7.81 11.583h8.371v-3.82c0-0.001 0-0.001 0-0.002 0-2.311-1.873-4.184-4.184-4.184-0.001 0-0.001 0-0.002 0h0c-0 0-0.001 0-0.001 0-2.311 0-4.184 1.873-4.184 4.184 0 0.001 0 0.001 0 0.002v-0zM21.032 13.044v10.956h-15.46c1.704-0.946 2.968-0.852 5.075-0.787 2.865 0.094 6.030-1.105 7.585-2.696 1.554-1.592-0.14-0.375-1.901 0.074-1.76 0.45-5.17 0.497-7.454-0.103 7.173 0.094 9.973-2.219 11.555-4.307 1.583-2.079-0.683-0.365-2.153 0.356s-4.036 1.227-6.864 0.852c4.27-0.010 7.52-2.144 9.617-4.345z"/>
</svg>