<svg xmlns="http://www.w3.org/2000/svg" version="1.1" width="24" height="24" viewBox="0 0 24 24">
<path d="M19.995 7.995c0-4.395-3.599-7.995-7.995-7.995s-7.995 3.6-7.995 7.995c0 2.55 1.2 4.89 3.194 6.405v7.979h1.621v1.621h6.359v-1.62h1.621v-7.98c2.011-1.5 3.195-3.87 3.195-6.405zM8.805 20.774v-1.575h6.391v1.575zM8.805 17.58v-1.575h6.391v1.575zM15.555 13.319l-0.359 0.24v0.841h-6.391v-0.84l-0.345-0.24c-1.8-1.199-2.85-3.18-2.85-5.324 0-3.525 2.85-6.391 6.39-6.391s6.39 2.851 6.39 6.391c0 2.145-1.050 4.14-2.85 5.324z"/>
</svg>