<svg xmlns="http://www.w3.org/2000/svg" version="1.1" width="24" height="24" viewBox="0 0 24 24">
<path d="M19.75 0.3h-15.5c-2.35 0-4.25 1.9-4.25 4.25v14.9c0 2.35 1.9 4.25 4.25 4.25h15.5c2.35 0 4.25-1.9 4.25-4.25v-14.9c0-2.35-1.9-4.25-4.25-4.25zM22.99 19.060c0 0.005 0 0.011 0 0.017 0 2-1.62 3.621-3.62 3.623h-14.74c-2 0-3.63-1.63-3.63-3.64v-14.12c0-2.010 1.63-3.64 3.63-3.64h14.73c2.005 0 3.63 1.625 3.63 3.63v0zM6.65 16.63c-0.12 0-0.15-0.050-0.15-0.15v-10.75c0-0.080 0.030-0.13 0.12-0.13h1.58c0.080 0 0.1 0.030 0.1 0.12v9.26h4.12c0.080 0 0.11 0.030 0.090 0.12l-0.25 1.42c-0.020 0.080-0.070 0.12-0.15 0.12h-5.46zM14.15 10.15c0-0.12 0-0.41-0.050-0.97 0-0.080 0.020-0.1 0.080-0.13 0.61-0.25 2.060-0.69 3.68-0.69 0.080 0 0.12 0.020 0.12 0.1v1.44c0 0.080-0.030 0.1-0.12 0.1-0.63-0.030-1.56 0.050-1.91 0.2v6.31c0 0.080-0.030 0.12-0.12 0.12h-1.57c-0.080 0-0.12-0.030-0.12-0.12v-6.36z"/>
</svg>