<svg xmlns="http://www.w3.org/2000/svg" version="1.1" width="24" height="24" viewBox="0 0 24 24">
<path d="M11.998 24c-0.321 0-0.641-0.084-0.922-0.247l-2.936-1.737c-0.438-0.245-0.224-0.332-0.080-0.383 0.585-0.203 0.703-0.25 1.328-0.604 0.065-0.037 0.151-0.023 0.218 0.017l2.256 1.339c0.082 0.045 0.197 0.045 0.272 0l8.795-5.076c0.082-0.047 0.134-0.141 0.134-0.238v-10.15c0-0.099-0.053-0.192-0.137-0.242l-8.791-5.072c-0.081-0.047-0.189-0.047-0.271 0l-8.789 5.073c-0.085 0.049-0.139 0.145-0.139 0.241v10.15c0 0.097 0.054 0.189 0.139 0.235l2.409 1.392c1.307 0.654 2.108-0.116 2.108-0.89v-10.021c0-0.142 0.114-0.253 0.256-0.253h1.115c0.139 0 0.255 0.112 0.255 0.253v10.021c0 1.745-0.95 2.745-2.604 2.745-0.508 0-0.909 0-2.026-0.551l-2.308-1.327c-0.57-0.329-0.922-0.945-0.922-1.604v-10.15c0-0.659 0.353-1.275 0.922-1.603l8.795-5.082c0.557-0.315 1.296-0.315 1.848 0l8.794 5.082c0.57 0.329 0.924 0.944 0.924 1.603v10.15c0 0.659-0.354 1.273-0.924 1.604l-8.794 5.078c-0.28 0.163-0.599 0.247-0.925 0.247zM19.099 13.993c0-1.9-1.284-2.406-3.987-2.763-2.731-0.361-3.009-0.548-3.009-1.187 0-0.528 0.235-1.233 2.258-1.233 1.807 0 2.473 0.389 2.747 1.607 0.024 0.115 0.129 0.199 0.247 0.199h1.141c0.071 0 0.138-0.031 0.186-0.081 0.048-0.054 0.074-0.123 0.067-0.196-0.177-2.098-1.571-3.076-4.388-3.076-2.508 0-4.004 1.058-4.004 2.833 0 1.925 1.488 2.457 3.895 2.695 2.88 0.282 3.103 0.703 3.103 1.269 0 0.983-0.789 1.402-2.642 1.402-2.327 0-2.839-0.584-3.011-1.742-0.020-0.124-0.126-0.215-0.253-0.215h-1.137c-0.141 0-0.254 0.112-0.254 0.253 0 1.482 0.806 3.248 4.655 3.248 2.788 0.001 4.386-1.096 4.386-3.013z"/>
</svg>