<svg xmlns="http://www.w3.org/2000/svg" version="1.1" width="24" height="24" viewBox="0 0 24 24">
<path d="M10.812 0c-0.425 0.013-0.845 0.215-1.196 0.605-0.186 0.21-0.349 0.447-0.484 0.702l-0.009 0.020c-0.355 0.667-0.425 1.415-0.556 2.143 0.272-2.031 0.018-0.645-0.23 0.743l-0.496 3.344c-0.027 0.16-0.096 0.227-0.244 0.273-1.767 0.556-3.537 1.11-5.297 1.684-0.387 0.125-0.773 0.289-1.114 0.506-1.042 0.665-1.196 1.753-0.415 2.71 0.346 0.422 0.79 0.715 1.284 0.936 1.1 0.49 2.202 0.976 3.3 1.47 0.019 0.010 0.036 0.013 0.053 0.019h-0.004l1.306 0.535c0 0.023 0.002 0.045 0 0.073-0.2 2.030-0.39 4.063-0.58 6.095-0.040 0.419-0.012 0.831 0.134 1.23 0.317 0.87 1.065 1.148 1.881 0.701 0.372-0.204 0.666-0.497 0.937-0.818 1.372-1.623 2.746-3.244 4.113-4.872 0.111-0.133 0.205-0.15 0.363-0.098 0.349 0.117 0.697 0.231 1.045 0.347h0.001c0.020 0.012 0.045 0.020 0.073 0.030l0.142 0.042c1.248 0.416 2.68 0.775 3.929 1.19 0.4 0.132 0.622 0.164 1.045 0.098 0.311-0.048 0.592-0.062 0.828-0.236 0.602-0.33 0.995-0.957 0.988-1.682-0.005-0.427-0.154-0.813-0.35-1.186-0.82-1.556-1.637-3.113-2.461-4.666-0.078-0.148-0.076-0.243 0.037-0.375 1.381-1.615 2.756-3.236 4.133-4.855 0.272-0.32 0.513-0.658 0.653-1.058 0.308-0.878-0.090-1.57-1-1.741-0.14-0.025-0.301-0.039-0.466-0.039-0.274 0-0.539 0.040-0.789 0.113l0.020-0.005c-1.974 0.521-3.947 1.041-5.918 1.57-0.175 0.047-0.26 0.015-0.355-0.144-1.682-2.91-2.483-4.221-3.292-5.527l0.871 1.509c-0.194-0.321-0.409-0.599-0.653-0.85l0.001 0.001c-0.371-0.37-0.802-0.549-1.228-0.537zM10.984 3.703c0.079 0.054 0.143 0.125 0.187 0.208l0.002 0.003c0.87 1.446 1.742 2.89 2.609 4.338 0.070 0.118 0.135 0.16 0.277 0.121 1.525-0.41 3.052-0.813 4.579-1.217 0.367-0.098 0.735-0.193 1.103-0.289-0.015 0.078-0.050 0.146-0.1 0.2l0-0c-1.259 1.48-2.516 2.962-3.779 4.438-0.11 0.13-0.12 0.22-0.040 0.37 0.937 1.803 1.768 3.309 2.498 4.76l-3.696-1.019c-0.538-0.18-1.077-0.358-1.615-0.539-0.163-0.055-0.25-0.030-0.36 0.1-1.248 1.488-2.504 2.97-3.759 4.454-0.046 0.059-0.107 0.105-0.177 0.131l-0.003 0.001c0.035-0.378 0.068-0.757 0.104-1.136 0.149-1.572 0.297-3.144 0.451-4.716-0.030-0.318 0.117-0.405-0.322-0.545-1.493-0.593-3.346-1.321-4.816-1.905 0.066-0.061 0.147-0.107 0.236-0.133l0.004-0.001c1.797-0.57 3.595-1.14 5.394-1.705 0.127-0.040 0.199-0.092 0.211-0.233 0.013-0.148 0.050-0.294 0.076-0.441 0.241-1.363 0.483-2.726 0.726-4.088 0.068-0.386 0.14-0.771 0.21-1.157z"/>
</svg>