<svg xmlns="http://www.w3.org/2000/svg" version="1.1" width="24" height="24" viewBox="0 0 24 24">
<path d="M20.863 14.479c-1.48 0.421-2.489 1.287-2.489 2.716v4.081c0 3.048-2.907 2.714-6.517 2.714h-0.555c-0.225 0-0.359-0.084-0.359-0.28v-1.398c0-0.194 0.12-0.279 0.345-0.279h0.45c2.16 0 3.675 0.475 3.675-1.26v-3.917c0-1.199 0.84-2.88 2.521-3.493 0.119-0.031 0.135-0.085 0.135-0.141s-0.030-0.139-0.135-0.195c-1.53-0.7-2.521-1.844-2.521-3.217v-4.425c0-1.707-1.5-3.412-3.659-3.412h-0.451c-0.225 0-0.33-0.084-0.33-0.279v-1.393c0-0.195 0.15-0.281 0.375-0.281h0.556c3.6 0 6.54 2.572 6.54 5.62v3.72c0 1.409 1.004 2.22 2.52 2.744 0.556 0.165 0.869 0.196 0.869 0.646v1.17c0.030 0.256-0.239 0.375-0.914 0.57zM8.092 23.97h-5.59c-0.225 0-0.336-0.056-0.336-0.252v-23.439c0-0.164 0.104-0.279 0.33-0.279h5.534c0.226 0 0.36 0.084 0.36 0.279v1.455c0 0.195-0.121 0.252-0.346 0.252h-2.472c-0.305 0-0.42 0.111-0.42 0.307v19.41c0 0.196 0.115 0.27 0.367 0.27h2.517c0.226 0 0.363 0.076 0.363 0.255v1.484c0.029 0.166-0.084 0.255-0.308 0.255zM12.967 10.936h-1.485c-0.362 0-0.642-0.281-0.642-0.59v-1.343c0-0.335 0.307-0.585 0.642-0.585h1.485c0.359 0 0.642 0.277 0.642 0.585v1.343c0 0.336-0.31 0.588-0.645 0.588z"/>
</svg>