<svg xmlns="http://www.w3.org/2000/svg" version="1.1" width="24" height="24" viewBox="0 0 24 24">
<path d="M12 0c-6.627 0-12 5.373-12 12v0c0 6.627 5.373 12 12 12v0c6.627 0 12-5.373 12-12v0c0-6.627-5.373-12-12-12v0zM9.426 7.12c0.715 0.004 1.397 0.144 2.022 0.393l-0.037-0.013v1.181c-0.63-0.356-1.383-0.566-2.186-0.566-0.023 0-0.045 0-0.068 0l0.003-0c-0.034-0.001-0.074-0.002-0.114-0.002-0.99 0-1.882 0.418-2.509 1.087l-0.002 0.002c-0.632 0.718-1.017 1.665-1.017 2.702 0 0.072 0.002 0.143 0.005 0.213l-0-0.010c-0.003 0.061-0.005 0.131-0.005 0.203 0 0.978 0.36 1.872 0.954 2.556l-0.004-0.005c0.589 0.632 1.426 1.026 2.355 1.026 0.045 0 0.089-0.001 0.133-0.003l-0.006 0c0.034 0.001 0.075 0.001 0.116 0.001 0.865 0 1.676-0.236 2.37-0.647l-0.022 0.012-0.004 1.080c-0.708 0.352-1.543 0.559-2.425 0.559-0.070 0-0.14-0.001-0.21-0.004l0.010 0c-0.055 0.003-0.119 0.004-0.184 0.004-1.196 0-2.276-0.499-3.042-1.299l-0.001-0.002c-0.755-0.843-1.217-1.963-1.217-3.191 0-0.077 0.002-0.153 0.005-0.228l-0 0.011c-0.003-0.065-0.005-0.14-0.005-0.217 0-1.336 0.521-2.549 1.372-3.449l-0.002 0.002c0.842-0.861 2.015-1.395 3.313-1.395 0.056 0 0.113 0.001 0.169 0.003l-0.008-0c0.030-0.001 0.072-0.003 0.114-0.004l0.006-0c0.032-0.001 0.069-0.001 0.106-0.001 0.005 0 0.011 0 0.016 0h-0.001zM15.289 7.275h0.836l-0.555 2.652h1.661l0.567-2.652h0.81l-0.555 2.652 1.732-0.004-0.15 0.697h-1.725l-0.412 1.98h1.852l-0.176 0.698h-1.816l-0.58 2.625h-0.83l0.567-2.625h-1.65l-0.555 2.625h-0.81l0.555-2.625h-1.74l0.131-0.698h1.748l0.401-1.976h-1.826l0.138-0.697h1.826zM15.431 10.62l-0.431 1.98h1.673l0.423-1.98z"/>
</svg>