<svg xmlns="http://www.w3.org/2000/svg" version="1.1" width="24" height="24" viewBox="0 0 24 24">
<path d="M12 11.997c-0.728 0-1.316-0.59-1.316-1.317s0.588-1.317 1.316-1.317 1.316 0.589 1.316 1.316-0.588 1.318-1.316 1.318zM14.916 11.976c0-2.828-1.109-5.397-2.916-7.298-1.807 1.9-2.916 4.47-2.916 7.298 0 1.297 0.234 2.535 0.66 3.683-0.618 0.9-1.074 2.16-1.275 3.616 0.639-0.767 1.422-1.306 2.292-1.591 0.363 0.555 0.78 1.096 1.239 1.574 0.461-0.494 0.876-1.020 1.239-1.59 0.87 0.271 1.653 0.826 2.29 1.576-0.199-1.456-0.655-2.716-1.275-3.615 0.427-1.155 0.66-2.385 0.66-3.69zM12 22c-5.523 0-10-4.477-10-10s4.477-10 10-10 10 4.477 10 10-4.477 10-10 10zM12 0c-6.627 0-12 5.373-12 12s5.373 12 12 12 12-5.373 12-12-5.373-12-12-12z"/>
</svg>