<svg xmlns="http://www.w3.org/2000/svg" version="1.1" width="24" height="24" viewBox="0 0 24 24">
<path d="M10.949 0.314c0.296-0.197 0.66-0.314 1.051-0.314s0.755 0.117 1.058 0.318l-0.007-0.004 9.333 6.118c0.541 0.354 0.866 0.957 0.866 1.604v7.928c0 0.647-0.326 1.25-0.866 1.604l-9.333 6.118c-0.296 0.197-0.66 0.314-1.051 0.314s-0.755-0.117-1.058-0.318l0.007 0.004-9.333-6.118c-0.525-0.347-0.866-0.935-0.866-1.603 0-0 0-0.001 0-0.001v0-7.928c0-0.647 0.326-1.25 0.866-1.604zM12.75 7.5v0.75h-6c-0.414 0-0.75 0.336-0.75 0.75v0 3h-0.5c-0.138 0-0.25 0.112-0.25 0.25v0 2.5c0 0.138 0.112 0.25 0.25 0.25h0.5v1.5c0 0.415 0.336 0.75 0.75 0.75h10.5c0.414 0 0.75-0.336 0.75-0.75v0-1.5h0.5c0.138 0 0.25-0.112 0.25-0.25v0-2.5c0-0.138-0.112-0.25-0.25-0.25v0h-0.5v-3c0-0.414-0.336-0.75-0.75-0.75v0h-3.75v-2.75c0-0.138-0.112-0.25-0.25-0.25v0h-1.75c-0.138 0-0.25 0.112-0.25 0.25v0 1.75c0 0.138 0.112 0.25 0.25 0.25zM16.036 12.589l-1.572 1.572c-0.055 0.055-0.13 0.088-0.214 0.088s-0.159-0.034-0.214-0.088v0l-0.947-0.947c-0.055-0.055-0.088-0.13-0.088-0.214s0.034-0.159 0.088-0.214v0l0.322-0.322c0.055-0.055 0.13-0.088 0.214-0.088s0.159 0.034 0.214 0.088v0l0.41 0.411 1.037-1.036c0.055-0.055 0.13-0.088 0.214-0.088s0.159 0.034 0.214 0.088v0l0.322 0.322c0.055 0.055 0.088 0.13 0.088 0.214s-0.034 0.159-0.088 0.214v0zM9.464 14.16v0.001c-0.055 0.055-0.13 0.088-0.214 0.088s-0.159-0.034-0.214-0.088v0l-0.948-0.947c-0.055-0.055-0.089-0.13-0.089-0.214s0.034-0.159 0.089-0.214v0l0.323-0.322c0.055-0.054 0.13-0.088 0.213-0.088s0.159 0.034 0.214 0.088l-0-0 0.412 0.411 1.036-1.037c0.055-0.054 0.13-0.088 0.213-0.088s0.159 0.034 0.214 0.088l-0-0 0.323 0.322c0.055 0.055 0.088 0.13 0.088 0.214s-0.034 0.159-0.088 0.214v0z"/>
</svg>