<svg xmlns="http://www.w3.org/2000/svg" version="1.1" width="24" height="24" viewBox="0 0 24 24">
<path d="M15.826 0c-0.149 0-0.289 0.043-0.407 0.116l0.003-0.002c-0.376 0.222-1.002 0.851-1.748 1.763l-0.156 0.192c-0.198 0.246-0.403 0.512-0.614 0.793-0.635 0.838-1.3 1.807-1.92 2.806l-0.096 0.165-0.066 0.108c-0.508 0.806-1.076 1.815-1.602 2.848l-0.107 0.233c-0.346 0.672-0.717 1.515-1.042 2.38l-0.058 0.177c-0.091 0.251-0.174 0.493-0.25 0.726-0.062 0.199-0.122 0.398-0.178 0.596-0.133 0.467-0.248 0.934-0.342 1.398l0.001 0.002-0.013 0.061c-0.101 0.476-0.184 1.055-0.23 1.644l-0.003 0.048-0.005 0.059c-0.28-0.449-1.029-0.886-1.028-0.882 0.537 0.778 0.944 1.55 1.004 2.308-0.287 0.059-0.681-0.026-1.136-0.194 0.474 0.436 0.83 0.556 0.969 0.588-0.436 0.027-0.889 0.327-1.346 0.671 0.668-0.273 1.208-0.38 1.595-0.293-0.382 0.952-1.010 2.843-1.596 4.754l-0.247 0.934c0.174-0.051 0.309-0.182 0.363-0.35l0.001-0.004c0.11-0.369 0.837-2.786 1.977-5.964l0.098-0.273 0.028-0.076c0.12-0.333 0.245-0.673 0.374-1.020l0.089-0.237 0.002-0.005-0.604-1.193 0.604 1.192c0.119-0.317 0.24-0.638 0.365-0.963l0.052-0.136 0.053-0.137 0.041-0.104-0.041 0.105-0.053 0.136-0.052 0.136c-0.125 0.325-0.246 0.646-0.365 0.963l0.106 0.208 0.094-0.010 0.010-0.028c0.153-0.417 0.304-0.824 0.454-1.22l0.005-0.014c0.083-0.3-0.072 0.108-0.224 0.518l-0.234 0.716-0.010 0.028-0.067 0.183c-0.118 0.325-0.237 0.655-0.356 0.993l-0.005 0.015-0.051 0.143c-0.080 0.228-0.15 0.433-0.309 0.899 0.263 0.12 0.474 0.436 0.674 0.794-0.021-0.393-0.196-0.741-0.465-0.988l-0.001-0.001c1.296 0.058 2.413-0.269 2.991-1.217 0.052-0.085 0.099-0.173 0.141-0.268-0.262 0.333-0.588 0.474-1.2 0.439 0.902-0.404 1.354-0.791 1.754-1.433 0.084-0.132 0.177-0.296 0.263-0.465l0.018-0.038c-0.789 0.81-1.702 1.040-2.665 0.865h-0.002l-0.041-0.007c0.863-0.107 2.010-0.752 2.752-1.548 0.342-0.367 0.652-0.8 0.939-1.306 0.214-0.377 0.414-0.795 0.605-1.258 0.167-0.404 0.327-0.842 0.482-1.317-0.235 0.123-0.507 0.214-0.795 0.259l-0.015 0.002c-0.016 0.004-0.063 0.012-0.111 0.019l-0.027 0.003 0.002-0.001 0.003-0.001c0.045-0.007 0.089-0.013 0.133-0.021s0.090-0.016 0.134-0.026l-0.133 0.024-0.132 0.023c0.802-0.31 1.308-0.907 1.676-1.637-0.277 0.191-0.6 0.337-0.948 0.42l-0.020 0.004c-0.036 0.009-0.094 0.019-0.153 0.029l-0.018 0.002-0.043 0.006 0.001-0.001 0.009-0.001 0.032-0.005c0.070-0.011 0.123-0.021 0.176-0.033l-0.019 0.004 0.014-0.003-0.016 0.003-0.194 0.033c0.278-0.117 0.513-0.247 0.717-0.401 0.152-0.119 0.287-0.247 0.408-0.387l0.003-0.004c0.080-0.095 0.155-0.198 0.225-0.31l0.064-0.104 0.077-0.152c0.114-0.221 0.238-0.501 0.347-0.789l0.021-0.062 0.031-0.088c0.028-0.085 0.052-0.161 0.070-0.227 0.027-0.099 0.044-0.178 0.053-0.236-0.028 0.022-0.058 0.043-0.090 0.062l-0.003 0.002c-0.243 0.145-0.66 0.277-0.996 0.339l-0.099 0.011-0.001 0.001-2.267 0.249-0.012 0.024-0.077 0.158-0.235 0.488c0.079-0.166 0.157-0.329 0.235-0.488l0.077-0.158c0.004-0.009 0.009-0.017 0.012-0.026l-0.084 0.009-0.067-0.132c0.014-0.056-0.112 0.195-0.236 0.446l-0.142 0.317-0.204 0.424c-0.192 0.355-0.559 1.146-0.911 1.945l-0.181 0.461c-0.118 0.197-0.482 1.055-0.834 1.92l-0.247 0.683 0.086-0.216c0.567-1.457 0.902-2.244 1.246-3.026l-0.251 0.639c0.536-1.267 0.903-2.059 1.282-2.843l-0.19 0.436 0.204-0.424c0.118-0.244 0.237-0.485 0.358-0.724l0.020-0.038c0.191-0.378 0.384-0.75 0.579-1.116 0.208-0.39 0.42-0.771 0.633-1.141 0.3-0.528 0.523-0.893 0.752-1.254l-0.080 0.135 0.040-0.064c0.224-0.354 0.45-0.695 0.677-1.021 0.491-0.708 0.991-1.328 1.531-1.909l-0.009 0.010-0.058 0.062c-0.16 0.176-0.644 0.741-1.375 1.863 0.704-0.035 1.785-0.179 2.667-0.33 0.262-1.47-0.257-2.142-0.257-2.142s-0.444-0.719-1.036-0.726zM14.178 7.507c0.66-0.304 0.956-0.579 1.242-0.976 0.076-0.11 0.153-0.224 0.229-0.343 0.233-0.363 0.461-0.764 0.665-1.162 0.197-0.384 0.371-0.765 0.504-1.109 0.065-0.156 0.133-0.355 0.19-0.559l0.010-0.041c0.041-0.157 0.074-0.307 0.099-0.449-0.883 0.15-1.964 0.295-2.668 0.329-0.168 0.248-0.398 0.615-0.621 0.986l-0.075 0.136c-0.204 0.345-0.422 0.723-0.65 1.137-0.285 0.488-0.683 1.242-1.062 2.006l-0.131 0.293zM17.806 2.198v0.066h0.156v0.439h0.072v-0.439h0.157v-0.066zM18.269 2.198v0.506h0.066v-0.401l0.172 0.348h0.046l0.172-0.348v0.401h0.066v-0.506h-0.087l-0.174 0.353-0.175-0.353zM14.261 7.499l-0.102 0.016 0.001-0.001zM14.171 7.511l-0.005 0.002zM11.431 8.753l-0.106 0.227-0.133 0.287c-0.118 0.204-0.428 0.891-0.727 1.582l-0.194 0.503c-0.113 0.194-0.45 1.001-0.775 1.814l-0.224 0.632c-0.148 0.378-0.298 0.765-0.449 1.163l-0.005 0.014c0.904-2.454 1.704-4.338 2.575-6.182l-0.201 0.473 0.133-0.287z"/>
</svg>