<svg xmlns="http://www.w3.org/2000/svg" version="1.1" width="24" height="24" viewBox="0 0 24 24">
<path d="M0 0v24h24v-24zM1 1.026h22v21.948h-22zM7.165 7.983h-2.771c-0.082 0-0.115-0.033-0.099-0.132l0.198-1.385c0.016-0.083 0.049-0.116 0.132-0.116h6.926c0.099 0 0.132 0.033 0.149 0.132l0.132 1.369c0.016 0.099-0.033 0.132-0.116 0.132h-2.754v9.235c0 0.083-0.033 0.132-0.132 0.132h-1.534c-0.098 0-0.131-0.033-0.131-0.132zM14.718 12.749l2.523-3.414c0.066-0.082 0.082-0.115 0.165-0.115h1.682c0.099 0 0.132 0.066 0.066 0.148-0.396 0.511-2.21 2.754-2.804 3.48-0.008 0.014-0.012 0.031-0.012 0.049s0.004 0.035 0.012 0.050l-0-0.001 3.2 4.271c0.033 0.066 0.016 0.132-0.083 0.132h-1.946c-0.099 0-0.132-0.033-0.165-0.099-0.584-0.765-1.451-1.962-2.301-3.173l-0.337-0.505v3.662c0 0.082-0.017 0.115-0.116 0.115h-1.55c-0.116 0-0.132-0.033-0.132-0.132v-10.769c0-0.049 0.016-0.099 0.115-0.099h1.567c0.066 0 0.116 0.033 0.116 0.116z"/>
</svg>