<svg xmlns="http://www.w3.org/2000/svg" version="1.1" width="24" height="24" viewBox="0 0 24 24">
<path d="M0.652 0.76c-0.001 0-0.002 0-0.003 0-0.202 0-0.382 0.096-0.496 0.245l-0.001 0.001c-0.352 0.448-0.035 0.898 0.362 1.262 0.206 0.189 1.77 1.794 3.428 3.527 0.537-0.747 1.134-1.398 1.8-1.971l0.015-0.012c-2.090-1.297-4.063-2.546-4.296-2.712-0.26-0.186-0.544-0.338-0.809-0.34zM5.757 3.812c1.848 1.148 3.786 2.332 4.693 2.84 1.469 0.821 3.758 2.684 4.092 4.434 0.535 0.466 2.182 1.916 2.596 2.413 0.698-0.211 1.518 0.133 2.060 1.12 0.866 1.583 0.227 3.747-1.968 4.988-0.092 0.089-0.188 0.177-0.288 0.26l-0.008 0.007 0.296-0.267c1.14-1.468-0.714-2.44-1.175-3.864-0.071-0.2-0.113-0.432-0.113-0.672 0-0.038 0.001-0.075 0.003-0.113l-0 0.005c-0.533-0.282-2.11-1.452-2.795-1.965-1.801 0.16-4.207-1.773-5.35-3.080-0.7-0.802-2.32-2.517-3.858-4.123-1.277 1.777-2.043 3.995-2.046 6.392v0.001c0 6.104 4.948 11.052 11.052 11.052s11.052-4.948 11.052-11.052c0-6.104-4.948-11.052-11.052-11.052v0c-2.64 0.004-5.19 0.954-7.191 2.676zM14.467 11.364c-0.515 0.126-0.968 0.831-1.118 1.306-0.038 0.115-0.040 0.303 0.066 0.342 0.802 0.592 1.556 1.168 2.4 1.7 0.162-0.393 0.746-0.963 1.096-1.2zM2.937 13.003c0.812 1.898 5.798 7.17 12.060 2.695-0 0.011-0 0.024-0 0.037 0 0.243 0.042 0.476 0.119 0.693l-0.004-0.014c0.46 1.42 2.36 2.427 1.238 3.89-2.135 1.364-5 1.201-6.989 0.528-3.558-1.204-5.914-4.332-6.423-7.828zM16.719 13.703c-0.025 0.017-0.046 0.033-0.066 0.050l0.001-0.001c-0.004 0.003-0.008 0.008-0.011 0.008 0.003-0.003 0.007-0.008 0.010-0.008 0.024-0.015 0.044-0.034 0.066-0.049z"/>
</svg>