<svg xmlns="http://www.w3.org/2000/svg" version="1.1" width="24" height="24" viewBox="0 0 24 24">
<path d="M2.305 19.065c0.226 0.010 0.454 0.040 0.667 0.12v-0.003l0.032 0.012 2.81-2.74 0.102 0.137c0.146 0.2 0.3 0.38 0.464 0.56l0.060 0.068c0.043 0.043 0.077 0.086 0.12 0.13l0.326 0.325 0.077 0.070 0.070 0.060c1.305 1.107 2.937 1.734 4.655 1.777 1.417 0.034 2.8-0.326 4.010-1.040l0.216 0.224c0.25 0.266 0.507 0.533 0.756 0.8-1.495 0.96-3.23 1.442-5.017 1.4-2.010-0.053-3.926-0.774-5.463-2.063l0.010-0.016-1.803 1.777c0.067 0.21 0.093 0.43 0.096 0.65 0 1.242-1.006 2.248-2.247 2.248s-2.246-1.009-2.246-2.251c0-1.24 1.005-2.246 2.246-2.246zM19.48 7.477c0.885 1.452 1.323 3.127 1.28 4.828-0.050 2.080-0.833 4.063-2.208 5.618l0.010 0.010 1.107 1.176c0.446-0.060 0.892 0.094 1.202 0.42 0.524 0.558 0.507 1.435-0.052 1.967-0.558 0.524-1.435 0.507-1.967-0.052-0.31-0.326-0.438-0.782-0.352-1.22-0.514-0.55-1.425-1.52-1.95-2.070l-0.11-0.12 0.128-0.103c0.335-0.266 0.644-0.558 0.928-0.885 1.177-1.323 1.838-3.006 1.88-4.776 0.035-1.34-0.283-2.653-0.927-3.813zM3.828 2.226c0.395-0.006 0.765 0.15 1.040 0.432 0.31 0.326 0.44 0.782 0.353 1.22l2.129 2.232-0.128 0.104c-0.335 0.266-0.644 0.558-0.928 0.885-1.177 1.322-1.838 3.005-1.89 4.775-0.034 1.34 0.283 2.654 0.928 3.822l-1.022 0.996c-0.893-1.46-1.34-3.135-1.288-4.853 0.044-2.068 0.85-4.066 2.204-5.622l-1.173-1.223c-0.447 0.060-0.893-0.095-1.203-0.42-0.524-0.56-0.507-1.436 0.052-1.968 0.217-0.204 0.497-0.335 0.794-0.37 0.044-0.006 0.090-0.007 0.132-0.010zM21.753 0.442c1.24 0 2.247 1.006 2.247 2.248s-1.006 2.246-2.247 2.246c-0.24 0.003-0.474-0.040-0.7-0.112l-0.002 0.002-0.033-0.012-3.050 2.895-0.102-0.138c-0.163-0.215-0.344-0.43-0.533-0.627l-0.034-0.043-0.266-0.266-0.12-0.103-0.077-0.070-0.060-0.050-0.077-0.070c-1.297-1.090-2.92-1.71-4.62-1.752-1.418-0.033-2.8 0.32-4.004 1.040l-0.98-1.022c1.496-0.962 3.23-1.443 5.017-1.4 2.010 0.052 3.927 0.773 5.464 2.070h0.017l2.020-1.917c-0.070-0.216-0.1-0.443-0.103-0.67 0-1.242 1.006-2.248 2.243-2.249zM11.96 5.458c0.254 0 0.507 0.020 0.76 0.050 3.624 0.455 6.192 3.762 5.746 7.387-0.455 3.625-3.762 6.193-7.387 5.747-3.626-0.455-6.194-3.762-5.748-7.387 0.432-3.363 3.258-5.785 6.629-5.797zM11.86 8.298c-1.466 0.116-2.528 1.226-2.566 2.7 0.027 1.053 0.565 1.94 1.505 2.425l-0.512 2.4h3.423l-0.51-2.4c0.935-0.507 1.49-1.346 1.505-2.423-0.020-1.522-1.198-2.668-2.706-2.706zM11.912 8.282h-0.010z"/>
</svg>