<svg xmlns="http://www.w3.org/2000/svg" version="1.1" width="24" height="24" viewBox="0 0 24 24">
<path d="M21.23 4.156c-1.442-1.168-3.299-1.875-5.321-1.875-0.194 0-0.386 0.006-0.576 0.019l0.026-0.001c-3.766 0.243-6.324 2.662-7.364 6.481-1.28-1.224-1.892-3.238-2.093-5.54-1.020 0.215-1.658 0.702-2.233 1.237 0.445 2.316 1.802 4.015 3.264 5.158-2.559 0.317-5.99 2.442-6.771 4.904-0.507 1.598 0.258 3.415 1.283 4.52 1.237 1.333 3.75 1.998 6.355 1.754 0.037 0.362-0.104 0.536-0.058 0.907 4.067-0.306 7.174-1.646 10.040-3.894 1.119-0.877 2.659-2.037 3.756-3.227 1.101-1.192 2.296-2.578 2.443-4.52 0.21-2.79-1.236-4.694-2.751-5.923zM19.796 15.094c-1.035 1.001-2.241 1.797-3.351 2.675-1.249-1.987-2.583-3.984-3.887-5.917 0.017 2.63 0.006 5.432 0.040 7.957-0.78 0.381-1.789 0.558-2.744 0.763-1.935-2.917-3.968-5.99-5.961-8.908 0.693-0.447 1.627-0.785 2.478-1.075 1.419 2.050 2.729 4.253 4.171 6.333 0.019-3.113-0.009-6.673-0.061-9.919 0.617-0.139 1.128-0.288 1.626-0.465l-0.099 0.031c1.813 2.721 3.553 5.628 5.464 8.359-0.020-1.752-0.032-3.821-0.032-5.893 0-1.363 0.005-2.724 0.015-4.084l-0.001 0.209c0.858-0.282 1.803-0.535 2.669-0.809 0.020 3.499-0.338 7.128-0.327 10.743z"/>
</svg>