<svg xmlns="http://www.w3.org/2000/svg" version="1.1" width="24" height="24" viewBox="0 0 24 24">
<path d="M21.354 18.708c1.46 0 2.646 1.185 2.646 2.646 0 1.46-1.186 2.646-2.646 2.646s-2.646-1.186-2.646-2.646c0-1.458 1.185-2.646 2.646-2.646zM12 9.354c1.46 0 2.646 1.186 2.646 2.646s-1.186 2.646-2.646 2.646-2.646-1.186-2.646-2.646 1.186-2.646 2.646-2.646zM21.354 9.354c1.46 0 2.646 1.186 2.646 2.646s-1.186 2.646-2.646 2.646-2.646-1.186-2.646-2.646 1.185-2.646 2.646-2.646zM12 0c1.46 0 2.646 1.185 2.646 2.646 0 1.46-1.186 2.646-2.646 2.646s-2.646-1.186-2.646-2.646 1.186-2.646 2.646-2.646zM2.646 0c1.46 0 2.646 1.185 2.646 2.646 0 1.46-1.186 2.646-2.646 2.646s-2.646-1.186-2.646-2.646 1.186-2.646 2.646-2.646zM21.354 0c1.46 0 2.646 1.185 2.646 2.646 0 1.46-1.186 2.646-2.646 2.646s-2.646-1.186-2.646-2.646 1.185-2.646 2.646-2.646z"/>
</svg>