<svg xmlns="http://www.w3.org/2000/svg" version="1.1" width="24" height="24" viewBox="0 0 24 24">
<path d="M4.82 17.275c-0.684 0-1.304-0.56-1.304-1.24s0.56-1.243 1.305-1.243c0.748 0 1.31 0.56 1.31 1.242s-0.622 1.24-1.311 1.241zM20.832 10.512c-0.135-0.992-0.75-1.8-1.56-2.42l-0.315-0.25-0.254 0.31c-0.494 0.56-0.69 1.553-0.63 2.295 0.060 0.562 0.24 1.12 0.554 1.554-0.254 0.13-0.568 0.25-0.81 0.377-0.57 0.187-1.124 0.25-1.68 0.25h-16.040l-0.060 0.37c-0.12 1.182 0.060 2.42 0.562 3.54l0.244 0.435v0.060c1.5 2.483 4.17 3.6 7.078 3.6 5.594 0 10.182-2.42 12.357-7.633 1.425 0.062 2.864-0.31 3.54-1.676l0.18-0.31-0.3-0.187c-0.81-0.494-1.92-0.56-2.85-0.31zM12.824 9.52h-2.428v2.42h2.43v-2.422zM12.824 6.477h-2.428v2.42h2.43v-2.417zM12.824 3.373h-2.428v2.42h2.43v-2.42zM15.794 9.52h-2.414v2.42h2.42v-2.422zM6.796 9.52h-2.413v2.42h2.422v-2.422zM9.826 9.52h-2.4v2.42h2.414v-2.422zM3.796 9.52h-2.396v2.42h2.428v-2.422zM9.826 6.477h-2.4v2.42h2.414v-2.417zM6.781 6.477h-2.394v2.42h2.413v-2.417z"/>
</svg>