<svg xmlns="http://www.w3.org/2000/svg" version="1.1" width="24" height="24" viewBox="0 0 24 24">
<path d="M23.69 12.436l-0.406 0.24-2.31 1.355v0.558l-1.087 0.667v1.11l-1.087 0.664v2.857l4.89-2.872v-4.044zM23.147 13.396v3.298l-3.803 2.234v-1.583l1.087-0.666v-1.11l1.086-0.666v-0.551zM19.377 5.542l-1.128 0.792v4.746l1.143 0.657 1.030-0.603v-4.982zM19.403 6.196l0.475 0.278v4.339l-0.49 0.286-0.597-0.344v-4.13zM6.215 0l-4.24 2.491v4.539l3.043 1.788v2.205l0.134 0.080 1.061 0.637 1.196-0.717v-2.207l2.662-1.565v-4.924zM6.212 0.643l3.316 2v4.287l-3.315 1.948-3.693-2.17v-3.896zM6.866 9.135v1.57l-0.653 0.39-0.651-0.39v-1.57l0.651 0.383zM15.813 11.209l-7.88 4.54v1.434l0.869 0.5v1.107l3.208 1.881 6.79-4.102v-1.166l1.087-0.666v-1.15zM15.811 11.847l3.533 2.061v0.515l-1.086 0.665v1.164l-6.251 3.777-2.66-1.56v-1.11l-0.87-0.5v-0.785zM12.831 2.817c-0.002-0-0.005-0-0.008-0-0.050 0-0.097 0.014-0.136 0.039l0.001-0.001-2.616 1.543v0.64l2.753-1.624 3.529 2.067-4.317 2.533c-0.082 0.050-0.136 0.139-0.136 0.24s0.054 0.19 0.134 0.239l0.001 0.001 3.23 1.92-7.058 4.069-7.067-4.175 3.202-1.89-0.544-0.32-3.337 1.97c-0.082 0.050-0.136 0.139-0.136 0.24s0.054 0.19 0.135 0.239l0.001 0.001 7.608 4.494c0.083 0.049 0.185 0.050 0.27 0l7.606-4.382c0.084-0.049 0.139-0.139 0.139-0.242 0-0.101-0.054-0.19-0.135-0.239l-0.001-0.001-3.235-1.922 4.32-2.535c0.082-0.050 0.136-0.139 0.136-0.24s-0.054-0.19-0.135-0.239l-0.001-0.001-4.074-2.388c-0.037-0.020-0.081-0.033-0.128-0.036l-0.001-0zM17.171 5.485c-0 0.101-0.054 0.188-0.135 0.236l-0.001 0.001-0.407 0.24v0.468l-3.515 2.062 0.542 0.322 3.38-1.983c0.082-0.050 0.136-0.138 0.136-0.24 0-0 0-0 0-0v0zM3.043 13.655v1.1l-1.086-0.665v3.978l6.412 3.82v-1.752l-0.924-0.555v-1.111l-1.141-0.666v-2.218zM3.587 14.618l2.173 1.286v2.22l1.141 0.667v1.109l0.925 0.554v0.467l-5.326-3.171v-2.681l1.087 0.666v-0.49zM11.88 3.33l-1.809 1.065v0.003zM3.79 8.095l-3.481 2.052v6.979l11.681 6.874 11.681-7.042v-6.7l-3.25-1.909v0.64l2.707 1.59v6.062l-11.141 6.716-11.137-6.552v-6.027l-0.389-0.23c-0.082-0.050-0.136-0.139-0.136-0.24s0.054-0.19 0.135-0.239l0.001-0.001zM23.69 12.435l-0.406 0.24-2.31 1.356v0.558l-1.087 0.666v1.11l-1.087 0.665v2.857l4.89-2.872v-4.044zM23.147 13.395v3.3l-3.803 2.233v-1.584l1.086-0.665v-1.11l1.087-0.666v-0.551zM19.377 5.542l-1.129 0.792v4.746l0.14 0.080 1.003 0.577 1.031-0.603v-4.982zM19.402 6.196l0.476 0.278v4.338l-0.49 0.287-0.597-0.344v-4.13zM6.216 0l-4.24 2.491v4.539l0.136 0.080 2.908 1.707v2.205l0.134 0.080 1.060 0.637 1.197-0.717v-2.207l2.662-1.564v-4.924zM6.213 0.643l3.316 2v4.287l-3.315 1.948-3.694-2.17v-3.896zM6.867 9.135v1.57l-0.653 0.39-0.651-0.39v-1.57l0.651 0.383zM15.814 11.209l-7.88 4.54v1.434l0.869 0.5v1.107l3.208 1.881 6.79-4.102v-1.166l1.087-0.666v-1.15zM15.812 11.847l3.533 2.061v0.515l-1.087 0.665v1.164l-6.25 3.777-2.661-1.56v-1.11l-0.87-0.5v-0.786zM12.832 2.817c-0.002-0-0.005-0-0.008-0-0.050 0-0.097 0.014-0.136 0.039l0.001-0.001-2.616 1.543v0.64l2.753-1.624 3.529 2.067-4.318 2.533c-0.082 0.050-0.136 0.139-0.136 0.24s0.054 0.19 0.135 0.239l0.001 0.001 3.23 1.92-7.059 4.068-7.067-4.174 3.203-1.89-0.544-0.32-3.337 1.97c-0.082 0.050-0.136 0.139-0.136 0.24s0.054 0.19 0.135 0.239l0.001 0.001 7.607 4.492c0.084 0.050 0.186 0.050 0.27 0.001l7.607-4.382c0.084-0.049 0.139-0.139 0.139-0.242 0-0.101-0.054-0.19-0.135-0.239l-0.001-0.001-3.235-1.922 4.32-2.535c0.082-0.050 0.137-0.139 0.137-0.24s-0.054-0.191-0.135-0.24l-0.001-0.001-4.075-2.385c-0.037-0.021-0.081-0.034-0.127-0.037l-0.001-0zM17.172 5.485c-0 0.1-0.054 0.188-0.135 0.235l-0.001 0.001-0.407 0.24v0.47l-3.515 2.061 0.542 0.322 3.38-1.983c0.082-0.050 0.136-0.138 0.136-0.24 0-0 0-0 0-0v0zM17.172 6.453v0.137c0 0.1-0.052 0.191-0.136 0.24l-0.156 0.092 1.37 0.8v-0.64zM20.424 8.35v0.64l2.725 1.59v0.512l-1.984 1.195-1.764 1.030-3.316-1.949v-0.95c0-0.098-0.050-0.19-0.135-0.24l-2.295-1.363-0.543 0.319 2.43 1.444v0.95c0 0.1 0.052 0.192 0.137 0.242l3.586 2.107c0.083 0.050 0.186 0.050 0.27 0.001l1.901-1.11h0.004l1.709-1.030v0.902l0.001 0.026c0.002 0.020 0.007 0.038 0.011 0.054 0.003 0.007 0.007 0.020 0.011 0.027 0.005 0.007 0.007 0.015 0.012 0.026l0.014 0.023c0.023 0.030 0.048 0.055 0.079 0.075l0.022 0.015 0.026 0.011c0.008 0.004 0.016 0.006 0.026 0.007l0 0c0.021 0.006 0.044 0.009 0.069 0.009 0.033 0 0.064-0.006 0.093-0.017l-0.002 0.001 0.026-0.011c0.015-0.007 0.034-0.019 0.047-0.027 0.007-0.007 0.015-0.010 0.022-0.019 0.007-0.007 0.011-0.015 0.018-0.018l0.019-0.023c0.004-0.007 0.011-0.015 0.015-0.023 0.010-0.014 0.018-0.031 0.022-0.049l0-0.001c0.003-0.008 0.004-0.020 0.007-0.027l0.004-0.027c0.001-0.007 0.001-0.014 0.001-0.022 0-0.001 0-0.003-0-0.004v0-2.222c0-0.1-0.051-0.192-0.136-0.242zM3.044 13.655v1.1l-1.086-0.665v3.978l6.412 3.819v-1.751l-0.925-0.555v-1.112l-1.14-0.666v-2.218zM3.588 14.618l2.173 1.286v2.22l1.14 0.667v1.107l0.925 0.555v0.467l-5.325-3.17v-2.681l1.087 0.666v-0.49zM11.88 3.33l-1.808 1.065v0.003zM3.792 8.095l-3.484 2.052v6.978l11.684 6.875 11.681-7.043v-6.699l-3.25-1.909v0.64l2.707 1.59v6.062l-11.141 6.716-11.137-6.552v-6.028l-0.389-0.23c-0.082-0.050-0.136-0.139-0.136-0.24s0.054-0.19 0.135-0.239l0.001-0.001z"/>
</svg>