<svg xmlns="http://www.w3.org/2000/svg" version="1.1" width="24" height="24" viewBox="0 0 24 24">
<path d="M21.4 17.7c-2 2.6-1 4.8-0.3 5.9 0.3 0.4-0.1 0.4-0.3 0.4-1.693-0.316-3.11-1.306-3.986-2.676l-0.014-0.024c-0.2-0.1-0.3-0.2-0.5-0.1-1.4 0.4-2.8 0.7-4.3 0.6-6.6 0-12-4.8-12-10.8s5.4-11 12-11 12 4.9 12 11c0 2.5-1 4.8-2.6 6.7zM12 14l3.2 2.2c0.058 0.035 0.129 0.056 0.204 0.056 0.221 0 0.4-0.179 0.4-0.4 0-0.020-0.001-0.039-0.004-0.058l0 0.002-1.2-3.8 3.1-2.4c0.042-0.062 0.068-0.14 0.068-0.223 0-0.173-0.11-0.321-0.265-0.377l-0.003-0.001h-3.9l-1.3-3.8c-0.074-0.083-0.181-0.135-0.3-0.135s-0.226 0.052-0.3 0.135l-0 0-1.3 3.8h-4c-0.156 0.057-0.265 0.204-0.265 0.376 0 0.133 0.064 0.25 0.164 0.323l0.001 0.001 3 2.4-1 3.7c-0 0.004-0 0.008-0 0.013 0 0.221 0.179 0.4 0.4 0.4 0.036 0 0.070-0.005 0.103-0.013l-0.003 0.001z"/>
</svg>