<svg xmlns="http://www.w3.org/2000/svg" version="1.1" width="24" height="24" viewBox="0 0 24 24">
<path d="M12.002 0c0.023-0 0.050-0 0.077-0 3.307 0 5.988 2.681 5.988 5.988s-2.681 5.988-5.988 5.988c-0.027 0-0.054-0-0.081-0.001l0.004 0c-3.274-0.044-5.911-2.708-5.911-5.988s2.637-5.944 5.907-5.987l0.004-0zM21.725 13.026h-0.030l-4.527-2.242c-0.086-0.043-0.187-0.068-0.295-0.068-0.247 0-0.463 0.134-0.58 0.333l-0.002 0.003c-1.209 2.003-2.637 3.721-4.285 5.198l-0.021 0.019c-1.66-1.492-3.082-3.204-4.23-5.1l-0.056-0.1c-0.118-0.203-0.334-0.337-0.582-0.337-0.107 0-0.208 0.025-0.298 0.070l0.004-0.002-4.535 2.226h-0.030c-0.2 0.119-0.331 0.333-0.331 0.579 0 0.119 0.031 0.23 0.085 0.327l-0.002-0.003c1.318 2.256 2.825 4.204 4.551 5.934l-0.001-0.001-0.002 0.001c0.024 0.025 0.050 0.048 0.075 0.072 0.335 0.335 0.676 0.664 1.027 0.981 0.081 0.074 0.165 0.144 0.247 0.217 0.315 0.278 0.632 0.555 0.96 0.82 0.144 0.117 0.295 0.227 0.441 0.341 0.277 0.216 0.552 0.434 0.837 0.639 0.44 0.318 0.888 0.625 1.346 0.917 0.146 0.095 0.325 0.151 0.517 0.151 0.181 0 0.35-0.050 0.494-0.136l-0.004 0.002c0.487-0.312 0.962-0.64 1.428-0.98 0.068-0.050 0.132-0.103 0.2-0.153 0.358-0.266 0.713-0.537 1.060-0.82 0.234-0.19 0.46-0.39 0.688-0.588 0.17-0.147 0.34-0.291 0.506-0.442 0.295-0.268 0.58-0.545 0.864-0.825 0.061-0.060 0.127-0.118 0.188-0.179l-0.004-0.002c1.731-1.733 3.244-3.686 4.491-5.813l0.074-0.136c0.049-0.091 0.078-0.199 0.078-0.314 0-0.252-0.139-0.471-0.344-0.586l-0.003-0.002z"/>
</svg>