<svg xmlns="http://www.w3.org/2000/svg" version="1.1" width="24" height="24" viewBox="0 0 24 24">
<path d="M24 11.986h-0.027l-4.318-4.318 4.303-4.414v-1.793l-0.649-0.648h-8.198l-0.66 0.605v1.045l-2.436-2.436v-0.027l-0.015 0.014-0.014-0.014v0.027l-1.29 1.291-0.538-0.539h-8.123l-0.638 0.692v1.885l0.616 0.616h0.72v5.31l-2.706 2.705h-0.027l0.014 0.013-0.014 0.014h0.027l2.706 2.706v6.467l0.907 0.523h2.322l1.857-1.904 4.166 4.166v0.028l0.015-0.014 0.014 0.014v-0.028l2.51-2.509h0.485c0.111 0 0.211-0.070 0.25-0.179l0.146-0.426c0.028-0.084 0.012-0.172-0.037-0.239l1.462-1.462-0.612 1.962c-0.043 0.141 0.036 0.289 0.177 0.332 0.025 0.008 0.052 0.012 0.078 0.012h1.824c0.106-0.001 0.201-0.064 0.243-0.163l0.165-0.394c0.025-0.065 0.024-0.138-0.004-0.203-0.027-0.065-0.080-0.116-0.146-0.142-0.029-0.012-0.062-0.019-0.097-0.020h-0.075l0.84-2.644h1.232l-1.016 3.221c-0.043 0.141 0.036 0.289 0.176 0.332 0.025 0.008 0.052 0.012 0.079 0.012h2.002c0.11 0 0.207-0.066 0.248-0.17l0.164-0.428c0.051-0.138-0.021-0.29-0.158-0.341-0.029-0.011-0.060-0.017-0.091-0.017h-0.145l1.131-3.673c0.027-0.082 0.012-0.173-0.039-0.24l-0.375-0.504-0.003-0.005c-0.051-0.064-0.127-0.102-0.209-0.102h-1.436c-0.071 0-0.141 0.030-0.19 0.081l-0.4 0.439h-0.624l-0.042-0.046 4.445-4.445h0.028l-0.014-0.011zM9.838 21.139l1.579-4.509h-0.501l0.297-0.304h1.659l-1.563 4.555h0.623l-0.079 0.258zM13.533 13.623l0.15 0.151-0.269 0.922-0.225 0.226h-0.969l-0.181-0.181 0.311-0.871 0.288-0.247zM5.59 20.829h-1.713l-0.262-0.15v-17.588h-1.236l-0.1-0.1v-1.176l0.143-0.154h7.371l0.213 0.214v1.108l-0.142 0.173h-1.079v8.688l8.807-8.688h-2.086l-0.175-0.188v-1.163l0.121-0.111h7.49l0.132 0.133v1.070l-10.095 10.353h-0.373c-0.015-0.001-0.028 0-0.042 0.001l-0.020 0.003c-0.045 0.010-0.086 0.030-0.119 0.060l-0.343 0.295-0.004 0.003c-0.033 0.031-0.059 0.069-0.073 0.111l-0.296 0.83zM20.358 16.877l0.474-0.519h1.334l0.309 0.415-1.265 4.107h0.493l-0.080 0.209h-1.783l1.124-3.564h-2.015l-1.077 3.391h0.424l-0.073 0.174h-1.605l1.107-3.548h-2.096l-1.062 3.339h0.436l-0.072 0.209h-1.661l1.514-4.46h-0.586l0.091-0.271h1.65l0.519 0.537h0.906l0.491-0.554h1.061l0.489 0.535z"/>
</svg>