<svg xmlns="http://www.w3.org/2000/svg" version="1.1" width="24" height="24" viewBox="0 0 24 24">
<path d="M6.763 10.036c0 0.296 0.032 0.535 0.088 0.71 0.064 0.176 0.144 0.368 0.256 0.576 0.040 0.063 0.056 0.127 0.056 0.183 0 0.080-0.048 0.16-0.152 0.24l-0.503 0.335c-0.058 0.042-0.13 0.069-0.207 0.072l-0.001 0c-0.080 0-0.16-0.040-0.239-0.112-0.104-0.111-0.198-0.234-0.281-0.365l-0.006-0.010c-0.073-0.122-0.156-0.276-0.232-0.434l-0.016-0.037c-0.622 0.734-1.405 1.101-2.347 1.101-0.67 0-1.205-0.191-1.596-0.574s-0.59-0.894-0.59-1.533c0-0.678 0.239-1.23 0.726-1.644 0.487-0.415 1.133-0.623 1.955-0.623 0.272 0 0.551 0.024 0.846 0.064s0.6 0.104 0.918 0.176v-0.583c0-0.607-0.127-1.030-0.375-1.277-0.255-0.248-0.686-0.367-1.3-0.367-0.28 0-0.568 0.031-0.863 0.103s-0.583 0.16-0.862 0.272c-0.075 0.035-0.168 0.070-0.264 0.1l-0.016 0.004c-0.038 0.013-0.081 0.021-0.126 0.023l-0.001 0c-0.112 0-0.168-0.080-0.168-0.247v-0.391c0-0.128 0.016-0.224 0.056-0.28 0.060-0.071 0.135-0.128 0.22-0.165l0.004-0.001c0.279-0.144 0.614-0.264 1.005-0.36 0.36-0.096 0.774-0.151 1.2-0.151 0.016 0 0.032 0 0.048 0l-0.002-0c0.95 0 1.644 0.216 2.091 0.647 0.439 0.43 0.662 1.085 0.662 1.963zM3.523 11.25c0.263 0 0.534-0.048 0.822-0.144 0.287-0.096 0.543-0.271 0.758-0.51 0.128-0.152 0.224-0.32 0.272-0.512 0.047-0.191 0.080-0.423 0.080-0.694v-0.335c-0.198-0.051-0.447-0.099-0.701-0.132l-0.034-0.004c-0.225-0.030-0.485-0.048-0.75-0.048h-0c-0.535 0-0.926 0.104-1.19 0.32-0.263 0.215-0.39 0.518-0.39 0.917 0 0.375 0.095 0.655 0.295 0.846 0.191 0.2 0.47 0.296 0.838 0.296zM9.933 12.112c-0.144 0-0.24-0.024-0.304-0.080-0.064-0.048-0.12-0.16-0.168-0.311l-1.875-6.171c-0.034-0.093-0.059-0.201-0.071-0.314l-0.001-0.006c0-0.128 0.064-0.2 0.191-0.2h0.783c0.151 0 0.255 0.025 0.31 0.080 0.065 0.048 0.113 0.16 0.16 0.312l1.342 5.284 1.245-5.284c0.040-0.16 0.088-0.264 0.151-0.312 0.082-0.051 0.181-0.081 0.287-0.081 0.012 0 0.023 0 0.035 0.001l-0.002-0h0.638c0.152 0 0.256 0.025 0.32 0.080 0.063 0.048 0.12 0.16 0.151 0.312l1.261 5.348 1.381-5.348c0.048-0.16 0.104-0.264 0.16-0.312 0.079-0.051 0.175-0.081 0.279-0.081 0.011 0 0.023 0 0.034 0.001l-0.002-0h0.743c0.127 0 0.2 0.065 0.2 0.2 0 0.040-0.009 0.080-0.017 0.128-0.014 0.076-0.034 0.143-0.059 0.208l0.003-0.008-1.923 6.17c-0.048 0.16-0.104 0.263-0.168 0.311-0.078 0.051-0.173 0.081-0.275 0.081-0.010 0-0.019-0-0.029-0.001l0.001 0h-0.687c-0.151 0-0.255-0.024-0.32-0.080-0.063-0.056-0.119-0.16-0.15-0.32l-1.238-5.148-1.23 5.14c-0.040 0.16-0.087 0.264-0.15 0.32-0.065 0.056-0.177 0.080-0.32 0.080zM20.189 12.327c-0.415 0-0.83-0.048-1.229-0.143-0.399-0.096-0.71-0.2-0.918-0.32-0.128-0.071-0.215-0.151-0.247-0.223-0.030-0.066-0.047-0.143-0.048-0.224v-0.407c0-0.167 0.064-0.247 0.183-0.247 0.048 0 0.096 0.008 0.144 0.024s0.12 0.048 0.2 0.080c0.271 0.12 0.566 0.215 0.878 0.279 0.319 0.064 0.63 0.096 0.95 0.096 0.502 0 0.894-0.088 1.165-0.264 0.251-0.153 0.415-0.425 0.415-0.736 0-0.008-0-0.015-0-0.023l0 0.001c0-0.007 0-0.014 0-0.022 0-0.208-0.082-0.398-0.216-0.537l0 0c-0.144-0.151-0.416-0.287-0.807-0.415l-1.157-0.36c-0.583-0.183-1.014-0.454-1.277-0.813-0.248-0.316-0.398-0.719-0.4-1.158v-0c0-0.335 0.073-0.63 0.216-0.886 0.144-0.255 0.335-0.479 0.575-0.654 0.24-0.184 0.51-0.32 0.83-0.415s0.655-0.136 1.006-0.136c0.175 0 0.359 0.008 0.535 0.032 0.183 0.024 0.35 0.056 0.518 0.088 0.16 0.040 0.312 0.080 0.455 0.127 0.144 0.048 0.256 0.096 0.336 0.144 0.096 0.049 0.176 0.117 0.239 0.198l0.001 0.002c0.045 0.067 0.072 0.149 0.072 0.238 0 0.009-0 0.018-0.001 0.026l0-0.001v0.375c0 0.168-0.064 0.256-0.184 0.256-0.113-0.013-0.215-0.047-0.307-0.098l0.004 0.002c-0.434-0.197-0.942-0.311-1.476-0.311-0.020 0-0.040 0-0.059 0l0.003-0c-0.455 0-0.815 0.071-1.062 0.223s-0.375 0.383-0.375 0.71c0 0.224 0.080 0.416 0.24 0.567 0.159 0.152 0.454 0.304 0.877 0.44l1.134 0.358c0.574 0.184 0.99 0.44 1.237 0.767s0.367 0.702 0.367 1.117c0 0.343-0.072 0.655-0.207 0.926-0.144 0.272-0.336 0.511-0.583 0.703-0.248 0.2-0.543 0.343-0.886 0.447-0.36 0.111-0.734 0.167-1.142 0.167zM21.698 16.207c-2.626 1.94-6.442 2.969-9.722 2.969-4.598 0-8.74-1.7-11.87-4.526-0.247-0.223-0.024-0.527 0.272-0.351 3.384 1.963 7.559 3.153 11.877 3.153 2.914 0 6.114-0.607 9.060-1.852 0.439-0.2 0.814 0.287 0.383 0.607zM22.792 14.961c-0.336-0.43-2.22-0.207-3.074-0.103-0.255 0.032-0.295-0.192-0.063-0.36 1.5-1.053 3.967-0.75 4.254-0.399 0.287 0.36-0.080 2.826-1.485 4.007-0.215 0.184-0.423 0.088-0.327-0.151 0.32-0.79 1.030-2.57 0.695-2.994z"/>
</svg>