<svg xmlns="http://www.w3.org/2000/svg" version="1.1" width="24" height="24" viewBox="0 0 24 24">
<path d="M17.51 6.535c-0.002 0.003-0.247 0.256-0.387 0.408-0.366 0.397-0.92 0.975-1.312 1.12h-0.004c-0.052-0.018-0.103-0.035-0.159-0.050l0.704-1.425-0.008 0.012c-0.022 0.043-0.719 1.415-1.666 1.218l-0.002 0.002c-0.014-0.003-0.026 0.002-0.040-0.002 0.455-0.58 0.63-1.113 0.63-1.113s-0.756 1.213-1.69 0.885c-0.023-0.007-0.041-0.024-0.049-0.046l-0-0.001c-0.003-0.012-0.005-0.026-0.005-0.040s0.002-0.028 0.006-0.041l-0 0.001c0.010-0.041 0.040-0.092 0.067-0.14 0.095-0.176 0.256-0.368 0.256-0.368s-0.156 0.152-0.366 0.295l-0.002 0.002c-0.157 0.107-0.345 0.208-0.52 0.236-0.025 0.004-0.054 0.007-0.084 0.007s-0.058-0.002-0.087-0.007l0.003 0c-0.214-0.037-0.208-0.25-0.149-0.455v-0.002c0.060-0.204 0.174-0.4 0.174-0.4s-0.19 0.298-0.398 0.588c-0.16 0.223-0.311 0.396-0.416 0.474l-0.12 0.004c-0.063-0.176 0.1-0.756 0.1-0.76-0.108 0.171-0.211 0.317-0.322 0.456l0.008-0.010c-0.099 0.128-0.21 0.239-0.336 0.333l-0.004 0.003h-0.027c-0.082 0.007-0.16 0.020-0.239 0.031-0.034-0.032-0.057-0.075-0.064-0.124l-0-0.001c-0.042-0.268 0.123-0.756 0.125-0.762-0.002 0.006-0.090 0.26-0.21 0.502v0.004c-0.032 0.067-0.070 0.12-0.107 0.178-0.086 0.136-0.176 0.244-0.261 0.219-0.127-0.038-0.202-0.202-0.246-0.356s-0.057-0.299-0.057-0.299-0.031 0.251-0.117 0.485c-0.033 0.102-0.083 0.19-0.146 0.266l0.001-0.001c-0.024 0.027-0.057 0.036-0.086 0.055-0.989 0.178-1.867 0.443-2.699 0.795l0.082-0.031c-0.223 0.082-0.446 0.158-0.674 0.256-0.75 0.32-1.529 0.726-2.343 1.248-0.962 0.627-1.798 1.267-2.582 1.964l0.022-0.019c-0.448 0.393-0.906 0.82-1.376 1.29 3.558-1.917 4.97-4.743 11.633-4.995 5.044-0.191 7.4 2.137 8.178 2.17 1.956 0.083 3.257-1.4 3.672-1.946 0.112-0.142 0.179-0.237 0.183-0.244-0.010 0.011-0.328 0.373-0.781 0.721l-0.006 0.004c-0.46 0.351-1.050 0.68-1.576 0.6h-0.002c-0.068-0.010-0.138-0.007-0.203-0.032 0.743-0.434 1.236-1.19 1.482-1.595 0.076-0.125 0.233-0.36 0.233-0.36s-1.746 1.788-3.047 1.668l-0.002 0.002c-0.051-0.005-0.105 0.007-0.155-0.004 0.567-0.446 0.985-1.044 1.278-1.55v-0.003h0.002c0.317-0.548 0.482-0.985 0.484-0.992-0.005 0.008-0.326 0.498-0.766 1.037l-0.010 0.010c-0.44 0.54-0.998 1.121-1.464 1.299-0.070 0.026-0.14 0.066-0.205 0.072 1.085-0.959 1.539-2.322 1.539-2.322s-1.097 1.595-2.026 1.889c-0.056 0.017-0.114 0.047-0.17 0.054 0.568-0.512 0.869-0.92 1.057-1.24v-0.002c0.238-0.404 0.281-0.65 0.281-0.65l-0.004 0.004c-0.102 0.132-0.191 0.24-0.282 0.347l0.011-0.013-0.016 0.017c-0.255 0.3-0.645 0.733-1.045 1.078l-0.005 0.004c-0.095 0.082-0.199 0.163-0.307 0.239l-0.013 0.009c-0.030 0.021-0.060 0.046-0.089 0.065-0.078 0.049-0.168 0.096-0.262 0.134l-0.011 0.004c-0.022 0.010-0.044 0.022-0.065 0.030-0.068-0.045-0.132-0.092-0.205-0.135-0.046 0.060-0.096 0.117-0.142 0.176h-0.002c-0.020-0.006-0.044-0.006-0.063-0.016 0.858-0.934 1.44-2.119 1.44-2.119l-0.004 0.004c-0.008 0.010-1.193 1.61-1.73 1.71-0.070-0.035-0.14-0.070-0.215-0.103 0.006-0.060 0.022-0.115 0.045-0.165l-0.001 0.003c0.122-0.284 0.465-0.717 0.465-0.717s-0.093 0.070-0.123 0.096c-0.090 0.078-0.189 0.156-0.291 0.229l-0.013 0.009c-0.056 0.040-0.114 0.072-0.172 0.108-0.064 0.040-0.127 0.076-0.188 0.105-0.076 0.043-0.165 0.074-0.26 0.086l-0.003 0c-0.043 0-0.082-0.005-0.11-0.027 0.453-0.277 1.228-1.628 1.233-1.637zM12.72 8.701c-0.106-0.003-0.232-0.004-0.357-0.004-0.195 0-0.39 0.004-0.583 0.011l0.028-0.001c-0.286 0.010-0.55 0.033-0.817 0.053l-0.002 0.002c-0.28 0.123-0.547 0.268-0.783 0.459 0.022 0.050 0.035 0.107 0.035 0.168v0c-0.001 0.069-0.018 0.135-0.048 0.192l0.001-0.002 0.885 0.642 0.022-0.014-0.36-1.264 0.623 1.114c0.020-0.008 0.042-0.014 0.063-0.020l-0.020-1.236 0.397 1.162 0.476-1.149 0.018 1.268c0.004 0.002 0.007 0.006 0.012 0.008l0.712-1.006-0.363 1.219 0.008 0.010 1.041-0.692-0.758 1.050v0.007l0.95-0.34c0.013-0.017 0.030-0.030 0.042-0.047-0.054-0.067-0.086-0.152-0.086-0.246 0-0.218 0.176-0.394 0.394-0.394 0.031 0 0.061 0.004 0.090 0.010l-0.003-0.001c0.119-0.245 0.209-0.504 0.268-0.77-0.554-0.102-1.203-0.17-1.865-0.19l-0.019-0zM10.213 8.834l-0.020 0.002c-0.308 0.036-0.606 0.078-0.892 0.125s-0.562 0.1-0.824 0.16l-0.014 0.002c0.115 0.388 0.294 0.756 0.531 1.080 0.108-0.239 0.244-0.461 0.402-0.662-0.017-0.045-0.027-0.097-0.027-0.151 0-0.241 0.195-0.436 0.436-0.436 0.058 0 0.113 0.011 0.163 0.032l-0.003-0.001c0.077-0.058 0.166-0.099 0.248-0.15zM14.673 8.926c-0.019 0.302-0.077 0.583-0.17 0.848l0.007-0.022c0.079 0.072 0.128 0.176 0.128 0.291 0 0.218-0.176 0.394-0.394 0.394-0.022 0-0.044-0.002-0.065-0.005l0.002 0c-0.16 0.239-0.341 0.446-0.547 0.627l-0.003 0.003 0.661 0.034-0.994 0.236c-0.026 0.018-0.046 0.042-0.072 0.059 0.592 0.095 1.114 0.34 1.542 0.695l-0.005-0.004c0.32-0.574 0.504-1.235 0.504-1.94 0-0.535-0.237-0.928-0.595-1.216zM8.355 9.152c-0.296 0.070-0.58 0.147-0.85 0.23-0.133 0.216-0.212 0.478-0.212 0.758 0 0.001 0 0.001 0 0.002v-0c0 1.622 0.968 3.016 2.357 3.64l0.002-0.012c-0.227-0.226-0.42-0.487-0.572-0.773l-0.008-0.017c-0.024 0.004-0.052 0.006-0.080 0.006-0.316 0-0.572-0.256-0.572-0.572 0-0.223 0.127-0.416 0.313-0.51l0.003-0.002c-0.015-0.116-0.024-0.25-0.024-0.386 0-0.359 0.060-0.704 0.169-1.026l-0.007 0.022c-0.265-0.385-0.45-0.846-0.518-1.344l-0.002-0.016zM15.986 9.178c0.14 0.41 0.225 0.842 0.225 1.293 0 2.44-2.203 4.418-4.92 4.418s-4.92-1.979-4.92-4.418c0-0.236 0.023-0.468 0.063-0.694-0.777 0.327-1.45 0.706-2.075 1.112-0.214 0.388-0.318 0.793-0.283 1.2 0.085 0.985 0.951 1.807 2.274 2.364l-0.256-0.068c-2.29-0.646-4.107 0.503-6.094-0.494 0.46 0.364 0.984 0.717 2.498 0.722 0.513 0.002 2.158-0.080 2.461 0.186s-1.021 1.514-1.021 1.514 2.24-1.897 2.458-1.25c0.137 0.402-0.642 1.476-0.642 1.476s0.783-1.060 1.363-1.287c0.4-0.156 0.735-0.136 1.022 0.266 0.19 0.265-0.909 1.552-0.909 1.552s1.476-1.439 1.74-1.363c0.266 0.076 0 1.363 0 1.363s0.545-1.306 0.835-1.402c0.397-0.133-0.909 3.030-0.909 3.030s1.595-2.925 1.893-2.991c0.51-0.114 0.852 2.043 0.852 2.043s-0.249-1.885 0.020-2.006c1.694-0.767 0.718 3.256 0.718 3.256s1.109-2.73 0.428-3.336c1.798 1.192 1.578 3.336 1.578 3.336s0.472-1.020-0.854-3.53c0.72-0.037 1.8 1.864 1.8 1.864s-1.173-2.081-0.378-2.12c1.58-0.074 1.74 2.765 1.74 2.765s0.474-0.398-0.795-3.18c0.808-0.518 2.764 2.574 2.764 2.574s-1.804-3.017-1.514-3.219 1.35 0.96 1.35 0.96-0.808-1.11-0.594-1.223c0.215-0.114 2.362 2.207 2.362 2.207s-1.895-2.271-1.567-2.55c0.328-0.277 1.717 0.784 1.717 0.784s-2.134-1.4-1.717-1.617c0.58-0.301 2.235 0.72 2.235 0.72s-0.996-0.82-0.832-1.020c0.164-0.203 2.119 1.286 2.119 1.286s-1.728-1.364-1.817-1.705c-0.088-0.34 1.362 0.115 1.362 0.115s-1.602-0.744-1.627-0.959c-0.026-0.214 1.060 0.239 1.060 0.239s-1.49-1.224-1.855-0.227c-0.084 0.159-0.187 0.3-0.283 0.45 0.093-0.27 0.135-0.543 0.11-0.82-0.012-0.106-0.030-0.201-0.055-0.293l0.003 0.013c-0.683-0.367-1.701-0.933-3.133-1.336zM10.156 9.633c-0.078 0.116-0.208 0.192-0.356 0.192-0.054 0-0.107-0.010-0.155-0.029l0.003 0.001c-0.054 0.073-0.1 0.152-0.148 0.23l1.277 0.471c0.011-0.014 0.020-0.030 0.032-0.043zM9.498 10.029c-0.094 0.155-0.18 0.316-0.244 0.489 0.12 0.128 0.26 0.235 0.396 0.343l0.922-0.029 0.002-0.004zM13.684 10.57l-0.606 0.463 0.053 0.002c0.201-0.132 0.383-0.29 0.553-0.465zM9.15 10.861c-0.002 0.012-0.007 0.023-0.010 0.035-0.043 0.187-0.068 0.401-0.068 0.621 0 0.119 0.007 0.236 0.021 0.351l-0.001-0.014c0.235 0.048 0.415 0.236 0.451 0.471l0 0.003 0.937-0.601c-0.085-0.030-0.17-0.060-0.251-0.096l-1.051-0.076 0.638-0.139c-0.254-0.16-0.472-0.344-0.664-0.553l-0.002-0.002zM9.943 11.072c0.138 0.086 0.28 0.16 0.43 0.223l0.115-0.024c0-0.019 0.005-0.037 0.006-0.056zM13.063 11.752l0.916 0.9-1.198-0.466 0.703 1.078-1.072-0.832-0.012 0.006 0.346 1.279-0.596-1.135-0.097 1.33-0.403-1.326-0.47 1.262 0.113-1.36-0.016-0.007-0.812 1.152 0.297-1.11c-0.34 0.326-0.609 0.723-0.785 1.168l-0.008 0.022c0.095 0.102 0.196 0.198 0.302 0.289 0.303 0.082 0.65 0.13 1.008 0.13 1.395 0 2.623-0.717 3.334-1.803l0.009-0.015c-0.358-0.252-0.781-0.439-1.238-0.535l-0.022-0.004zM10.627 11.975l-1.078 0.39c0.001 0.018 0.010 0.033 0.010 0.051 0 0 0 0 0 0.001 0 0.166-0.071 0.315-0.184 0.419l-0 0c0.102 0.217 0.228 0.423 0.375 0.615 0.091-0.243 0.199-0.452 0.327-0.647l-0.007 0.012-0.295 0.239zM14.26 14.765c-0.186 0.049-0.37 0.097-0.56 0.137 0.192-0.040 0.374-0.090 0.56-0.137zM13.172 15c-0.114 0.020-0.225 0.046-0.34 0.063-0.202 0.029-0.391 0.042-0.586 0.062 0.315-0.033 0.624-0.074 0.926-0.125zM11.822 15.17c-0.11 0.008-0.215 0.007-0.324 0.012 0.11-0.007 0.214-0.003 0.324-0.012z"/>
</svg>