<svg xmlns="http://www.w3.org/2000/svg" version="1.1" width="24" height="24" viewBox="0 0 24 24">
<path d="M12 0c-3.481 0-7.574 0.828-11.069 2.628l-0.545 0.279v0.616c0 3.711 0.071 13.613 11.101 20.169l0.513 0.308 0.513-0.308c11.030-6.556 11.1-16.458 11.1-20.17v-0.608l-0.538-0.282c-3.453-1.807-7.594-2.632-11.075-2.632zM12 2.012c2.978 0 6.584 0.763 9.576 2.197-0.008 3.888-0.418 11.543-9.576 17.33-9.158-5.787-9.569-13.442-9.576-17.33 3.036-1.439 6.598-2.197 9.576-2.197zM17.035 7.577c-0.26 0.008-0.484 0.173-0.61 0.299l-5.38 5.58-2.012-2.413c-0.955-1.106-2.262-0.251-2.564-0.050l4.677 5.43 6.385-8.648c-0.126-0.123-0.298-0.198-0.488-0.198-0.003 0-0.006 0-0.009 0h0z"/>
</svg>