<svg xmlns="http://www.w3.org/2000/svg" version="1.1" width="24" height="24" viewBox="0 0 24 24">
<path d="M12.815 5.139l2.179 7.509c0.107 0.381 0.22 0.793 0.339 1.236 0.12 0.443 0.229 0.85 0.327 1.223h0.025c0.054-0.372 0.145-0.772 0.273-1.204 0.129-0.429 0.246-0.821 0.353-1.176l1.050-3.442c0.079-0.248 0.15-0.472 0.213-0.671 0.062-0.199 0.126-0.382 0.192-0.551 0.068-0.167 0.131-0.327 0.194-0.478 0.062-0.151 0.132-0.301 0.213-0.451v-0.028l-1.569 0.105v-2.072h5.169v1.741c-0.364 0-0.682 0.119-0.956 0.358-0.275 0.239-0.512 0.524-0.711 0.85-0.201 0.328-0.364 0.657-0.493 0.984-0.129 0.328-0.224 0.581-0.286 0.758l-3.096 8.997h-2.884l-1.874-5.807c-0.053-0.142-0.12-0.345-0.199-0.606s-0.161-0.545-0.247-0.85c-0.083-0.307-0.173-0.623-0.265-0.95-0.092-0.328-0.179-0.638-0.259-0.931h-0.026c-0.053 0.381-0.14 0.809-0.26 1.283-0.119 0.474-0.243 0.937-0.372 1.388-0.128 0.451-0.248 0.859-0.358 1.223s-0.194 0.62-0.246 0.771l-1.501 4.479h-2.7l-3.295-9.435c-0.125-0.346-0.222-0.625-0.293-0.837-0.071-0.213-0.131-0.398-0.179-0.553-0.050-0.154-0.087-0.293-0.113-0.418-0.027-0.125-0.059-0.265-0.094-0.425l-1.063 0.053v-2.073h6.526v1.741c-0.382 0.027-0.65 0.141-0.806 0.345-0.155 0.204-0.231 0.466-0.231 0.784-0.009 0.151 0.001 0.311 0.032 0.478 0.032 0.169 0.074 0.342 0.128 0.519l0.916 3.322c0.107 0.399 0.21 0.818 0.312 1.256 0.101 0.438 0.184 0.884 0.247 1.336h0.026c0.044-0.195 0.088-0.394 0.134-0.598 0.044-0.204 0.092-0.424 0.145-0.658 0.054-0.235 0.116-0.492 0.186-0.771 0.072-0.278 0.155-0.587 0.254-0.922l1.993-6.832c-0.001 0 2.95 0 2.95 0zM24.003 16.628c0 1.233-1 2.233-2.233 2.233s-2.231-1-2.231-2.233 0.998-2.233 2.231-2.233 2.233 1 2.233 2.233z"/>
</svg>