<svg xmlns="http://www.w3.org/2000/svg" version="1.1" width="24" height="24" viewBox="0 0 24 24">
<path d="M4.64 7.47c2.1 0.53 4.78 0.8 8.010 0.8 3.3 0 5.92-0.27 8.010-0.8 2.23-0.52 3.3-1.22 3.3-1.88 0-0.47-0.48-0.93-1.35-1.28 0.2 0.13 0.35 0.35 0.35 0.59 0 0.67-1.010 1.22-3.040 1.68-1.88 0.41-4.28 0.7-7.2 0.7-2.82 0-5.33-0.29-7.14-0.68-1.95-0.48-2.97-1-2.97-1.68 0-0.28 0.13-0.52 0.52-0.8-1.22 0.47-1.88 0.87-1.88 1.47 0.070 0.68 1.16 1.36 3.39 1.88zM9.33 5.31c2.27-0.2 2.93-1.66 5.59-1.9 1.31-0.1 2.14 0.16 2.23 0.62 0.080 0.43-0.57 0.72-1.36 0.78-1.090 0.11-1.54-0.28-1.63-0.65-0.81 0.090-0.94 0.43-0.9 0.67 0.090 0.46 1.070 0.92 2.75 0.76 1.9-0.15 2.54-0.9 2.38-1.65-0.2-0.98-1.66-1.8-4.28-1.55-3.36 0.3-3.34 1.86-5.63 2.050-0.94 0.090-1.46-0.13-1.55-0.5-0.060-0.37 0.4-0.55 0.94-0.59 0.5-0.050 1.11 0.040 1.4 0.2 0.21-0.11 0.28-0.22 0.26-0.35-0.1-0.35-0.79-0.5-1.66-0.44-1.7 0.15-1.7 0.91-1.64 1.25 0.17 0.87 1.48 1.45 3.1 1.3zM20.75 9.15c-2.1 0.49-4.78 0.81-8.010 0.81-3.3 0-5.99-0.34-8.080-0.8-1.88-0.48-2.88-1.010-3.23-1.56 0.18 1.23 0.49 2.42 0.89 3.55-0.48 0.3-0.91 0.67-1.3 1.17-0.639 0.774-1.026 1.775-1.026 2.867 0 0.082 0.002 0.163 0.006 0.244l-0-0.011c0.077 1.072 0.614 2.006 1.411 2.614l0.009 0.006c0.87 0.68 1.81 0.88 2.88 0.68 0.41-0.070 0.87-0.28 1.29-0.42-0.88 0-1.62-0.28-2.36-0.87-0.794-0.556-1.344-1.413-1.488-2.401l-0.002-0.019c-0.2-0.94 0-1.81 0.53-2.58 0.12-0.15 0.25-0.28 0.39-0.4 0.3 0.73 0.62 1.45 0.98 2.12 0.81 1.23 1.62 2.3 2.43 3.46 0.35 0.68 0.58 1.35 0.74 2.020 0.536 0.734 1.308 1.269 2.203 1.494l0.027 0.006c1.15 0.4 2.35 0.58 3.58 0.51h0.13c0.133 0.006 0.289 0.010 0.446 0.010 1.161 0 2.276-0.194 3.316-0.551l-0.072 0.021c0.885-0.264 1.624-0.787 2.153-1.48l0.007-0.010h0.070c0.13-0.67 0.35-1.34 0.67-2.020 0.8-1.17 1.62-2.23 2.42-3.46 1.043-1.89 1.824-4.088 2.222-6.416l0.018-0.124c-0.43 0.6-1.44 1.13-3.25 1.54z"/>
</svg>