<svg xmlns="http://www.w3.org/2000/svg" version="1.1" width="24" height="24" viewBox="0 0 24 24">
<path d="M12 24c-6.615 0-12-5.385-12-12s5.385-12 12-12 12 5.385 12 12-5.385 12-12 12zM22.12 13.642c-0.35-0.11-3.17-0.953-6.384-0.438 1.34 3.684 1.887 6.684 1.992 7.308 2.3-1.555 3.936-4.020 4.392-6.87zM16.005 21.45c-0.153-0.9-0.75-4.032-2.19-7.77l-0.066 0.020c-5.79 2.015-7.86 6.025-8.040 6.4 1.73 1.358 3.92 2.166 6.29 2.166 1.42 0 2.77-0.29 4.006-0.816zM4.385 18.87c0.232-0.4 3.045-5.055 8.332-6.765 0.135-0.045 0.27-0.084 0.405-0.12-0.26-0.585-0.54-1.167-0.832-1.74-5.12 1.53-10.084 1.465-10.534 1.455l-0.004 0.312c0 2.633 0.998 5.037 2.633 6.858zM1.965 9.915c0.46 0.008 4.683 0.026 9.477-1.248-1.698-3.018-3.53-5.558-3.8-5.928-2.868 1.35-5.010 3.99-5.677 7.176zM9.6 2.052c0.282 0.38 2.145 2.914 3.822 6 3.645-1.365 5.19-3.44 5.373-3.702-1.81-1.61-4.19-2.586-6.795-2.586-0.825 0-1.63 0.1-2.4 0.288zM19.935 5.535c-0.218 0.29-1.935 2.493-5.724 4.040 0.24 0.49 0.47 0.985 0.68 1.486 0.080 0.18 0.15 0.36 0.22 0.53 3.41-0.43 6.8 0.26 7.14 0.33-0.020-2.42-0.88-4.64-2.316-6.386z"/>
</svg>