<svg xmlns="http://www.w3.org/2000/svg" version="1.1" width="24" height="24" viewBox="0 0 24 24">
<path d="M0.202 8.668c-0.122 0.088-0.201 0.23-0.202 0.39v0.006c0 0.064 0.014 0.128 0.040 0.19l2.298 5.204c0.102 0.23 0.364 0.343 0.602 0.259 1.504-0.536 6.713-2.233 10.083-1.318 0 0-3.381 0.196-6.438 2.593-0.112 0.089-0.183 0.225-0.183 0.377 0 0.070 0.015 0.137 0.042 0.197l-0.001-0.003 1.029 2.326 0.396 0.929c0.094 0.22 0.395 0.247 0.528 0.047 0.713-1.074 1.916-1.611 3.072-2.080 1.055-0.444 2.29-0.809 3.573-1.035l0.106-0.015c0.807-0.144 1.737-0.227 2.685-0.227 0.487 0 0.97 0.022 1.446 0.064l-0.061-0.004c0.013 0.001 0.029 0.002 0.044 0.002 0.214 0 0.396-0.14 0.458-0.334l0.001-0.003 1.038-3.317c0.014-0.043 0.022-0.092 0.022-0.143 0-0.159-0.077-0.3-0.196-0.387l-0.001-0.001c-1.158-0.838-5.741-3.654-13.802-2.523 0 0 6.878-3.951 15.61 0.39 0.062 0.032 0.136 0.050 0.214 0.050 0.215 0 0.396-0.141 0.458-0.335l0.001-0.003 0.915-2.925c0.013-0.041 0.021-0.088 0.022-0.137v-0.014c-0.003-0.175-0.099-0.327-0.241-0.409l-0.002-0.001c-1.097-0.62-4.807-2.478-9.911-2.478-3.912 0-8.643 1.090-13.644 4.668z"/>
</svg>