<svg xmlns="http://www.w3.org/2000/svg" version="1.1" width="24" height="24" viewBox="0 0 24 24">
<path d="M8.548 1.156l-1.716 1.716v1.682h1.716zM8.548 4.554v0.035h-1.716v-0.035h-3.446l-3.386 3.29v3.577h2.826v-2.481c0-0.525 0.429-0.954 0.954-0.954h16.476c0.525 0 0.954 0.43 0.954 0.954v2.48h2.754v-3.576l-3.386-3.29h-3.278v0.035h-1.717v-0.035zM15.583 4.554h1.717v-1.682l-1.717-1.716zM8.679 1.188v1.652h6.773v-1.652zM20.15 8.258c-0.001 0-0.002 0-0.003 0-0.045 0-0.090 0.004-0.134 0.011l0.005-0.001-0.543 0.002c-5.216 0.014-10.432-0.008-15.648 0.010-0.435-0.063-0.794 0.436-0.716 0.883v2.264h17.812c-0.016-0.888 0.045-1.782-0.034-2.666-0.104-0.342-0.427-0.502-0.739-0.503zM4.728 8.892c0.381 0 0.689 0.313 0.689 0.698v0c-0.001 0.385-0.309 0.697-0.689 0.697 0 0 0 0 0 0v0c-0.38-0.001-0.687-0.312-0.688-0.697v-0c0 0 0 0 0 0 0-0.385 0.308-0.697 0.688-0.698h0zM6.862 8.892c0.381 0 0.689 0.313 0.689 0.698v0c-0.001 0.385-0.309 0.697-0.689 0.697 0 0 0 0 0 0v0c-0.38-0.001-0.687-0.312-0.688-0.697v-0c0 0 0 0 0 0 0-0.385 0.308-0.697 0.688-0.698h0zM0.036 11.645v9.156c0 1.050 0.858 1.908 1.907 1.908h0.883v-11.064zM21.21 11.645v11.064h0.882c1.050 0 1.908-0.858 1.908-1.908v-9.156zM4.057 13.133v6.85h6.137v-6.85zM17.3 13.154v3.777l-1.708 0.977-1.708-0.977v-3.758c-1.359 0.66-2.28 2.030-2.28 3.615s0.92 2.955 2.256 3.605l0.024 0.010v2.441h3.457v-2.442c1.359-0.66 2.278-2.030 2.278-3.614 0-1.6-0.938-2.982-2.295-3.623l-0.024-0.010zM4.057 21.414v1.43h7.925v-1.43z"/>
</svg>