<svg xmlns="http://www.w3.org/2000/svg" version="1.1" width="24" height="24" viewBox="0 0 24 24">
<path d="M0.975 2.61v18.782h11.411c6.89 0 10.64-3.21 10.64-9.415 0-6.377-4.064-9.367-10.64-9.367zM12.386 1.635c10.105 0 11.614 6.48 11.614 10.342 0 6.7-4.124 10.39-11.614 10.39h-12.386v-20.732zM2.506 13.357h3.653v6.503h-3.653zM6.602 10.082c0 1.254-1.016 2.27-2.27 2.27s-2.27-1.016-2.27-2.27v0c0-1.254 1.016-2.27 2.27-2.27s2.27 1.016 2.27 2.27v0zM7.998 9.025v2.12h0.65c0.45 0 0.867-0.13 0.867-1.077 0-0.924-0.463-1.043-0.867-1.043zM18.848 7.971h1.053v3.174h1.56c-0.428-5.758-4.958-7.002-9.074-7.002h-4.388v3.83h0.65c1.183 0 1.92 0.803 1.92 2.095 0 1.333-0.719 2.129-1.92 2.129h-0.65v7.665h4.388c6.692 0 9.021-3.107 9.103-7.665h-2.64zM15.918 10.329h0.76l-0.348-1.195h-0.063zM14.275 12.199l1.274-4.228h1.497l1.274 4.227h-1.095l-0.239-0.818h-1.376l-0.24 0.818zM13.77 11.145v1.052h-2.603v-4.224h2.519v1.052h-1.467v0.49h1.387v1.050h-1.386v0.58z"/>
</svg>