<svg xmlns="http://www.w3.org/2000/svg" version="1.1" width="24" height="24" viewBox="0 0 24 24">
<path d="M7.362 6.029c-3.317 2.003-5.539 5.529-5.693 9.584l-0.001 0.022c0.004 4.619 3.749 8.362 8.368 8.362 4.622 0 8.368-3.746 8.368-8.368 0-3.548-2.208-6.58-5.324-7.797l-0.057-0.020c-0.856-0.356-1.851-0.562-2.893-0.562-0.027 0-0.054 0-0.081 0l0.004-0c-1.801 1.228-3.233 2.872-4.178 4.797l-0.032 0.073c1.015-1.205 2.525-1.965 4.212-1.965 3.035 0 5.496 2.461 5.496 5.496s-2.461 5.496-5.496 5.496c-0.007 0-0.013 0-0.020-0h0.001c-0.003 0-0.006 0-0.010 0-1.671 0-3.168-0.746-4.176-1.923l-0.006-0.007c-1.047-1.163-1.687-2.711-1.687-4.408 0-0.408 0.037-0.808 0.108-1.196l-0.006 0.040c1.073-6.42 8.764-10.117 14.458-11.553-2.943 1.426-5.43 2.881-7.793 4.504l0.201-0.13c6.883 2.657 7.989-3.136 11.207-5.728-3.202-1.254-14.953-1.716-14.97 5.282z"/>
</svg>