<svg xmlns="http://www.w3.org/2000/svg" version="1.1" width="24" height="24" viewBox="0 0 24 24">
<path d="M12.19 2.38c-0.064-0.002-0.14-0.003-0.217-0.003-4.29 0-7.904 2.89-9.002 6.83l-0.016 0.066c0.053-0.020-0.055 0.013 0 0-3.875 2.551-3.922 8.11-0.247 10.941l0.006-0.007-0.007 0.030c1.112 0.846 2.52 1.356 4.047 1.356 0.011 0 0.021-0 0.032-0h5.171l0.030 0.030h5.192c6.687 0.053 9.376-8.605 3.835-12.35-0.504-1.82-1.49-3.366-2.812-4.544l-0.009-0.008-0.043 0.043 0.006-0.050c-1.586-1.404-3.669-2.28-5.956-2.334l-0.011-0zM11.832 6.526c1.244-0.040 2.518 0.368 3.486 1.15 1.142 0.958 1.863 2.385 1.863 3.981 0 0.034-0 0.068-0.001 0.102l0-0.005v0.518c3.53-0.070 3.53 5.262 0 5.193h-5.193l-0.008 0.009v-0.040h-5.194c-0.387 0-0.754-0.085-1.083-0.237l0.016 0.007h0.001c-0.907-0.418-1.526-1.32-1.526-2.366 0-1.434 1.163-2.597 2.597-2.597 1.046 0 1.948 0.618 2.359 1.51l0.007 0.016 3.013-3.012c-0.986-1.276-2.396-2.182-4.016-2.508l-0.043-0.007c0.018-0.010 0.040-0.026 0.054-0.023 0.915-1.002 2.212-1.643 3.66-1.691l0.008-0z"/>
</svg>