<svg xmlns="http://www.w3.org/2000/svg" version="1.1" width="24" height="24" viewBox="0 0 24 24">
<path d="M0.76 12.2l-0.080-0.040c-0.18-0.1-0.32-0.25-0.42-0.44-0.14-0.26-0.2-0.5-0.2-0.75l0.020-0.13c0-0.2 0.050-0.38 0.14-0.55l0.080-0.15c0.040-0.080 0.1-0.15 0.15-0.22 0.060-0.070 0.070-0.16 0.050-0.24l-0.050-0.16c-0.060-0.2-0.1-0.4-0.1-0.6l-0.030-0.12c0-0.22 0.060-0.44 0.2-0.6l0.1-0.13c0.070-0.1 0.18-0.16 0.3-0.2 0.1-0.030 0.17-0.13 0.18-0.25l0.020-0.34c0-0.27 0.13-0.52 0.33-0.7l0.24-0.18c0.050-0.050 0.1-0.1 0.14-0.18 0.050-0.060 0.060-0.14 0.050-0.2-0.020-0.1 0-0.13 0.050-0.14 0.16 0.060 0.26 0.040 0.33-0.040l0.13-0.17 0.36-0.4c0.1-0.1 0.14-0.28 0.080-0.42l-0.12-0.26c-0.020-0.060 0-0.13 0.050-0.15 0.13 0 0.22 0.050 0.26 0.13l0.040 0.070c0.060 0.12 0.2 0.18 0.3 0.13 0.22-0.080 0.4-0.1 0.57-0.1h0.32c0.22 0 0.4-0.15 0.44-0.38 0.040-0.28 0.14-0.5 0.28-0.65 0.15-0.17 0.32-0.3 0.52-0.4 0.26-0.14 0.42-0.34 0.47-0.6 0.070-0.32 0.24-0.55 0.47-0.7l0.76-0.43 0.22-0.13c0.13-0.080 0.25-0.18 0.35-0.3l0.2-0.24c0.1-0.1 0.2-0.17 0.32-0.2 0.1-0.030 0.24-0.050 0.36-0.040l0.4 0.030c0.2 0 0.36 0.050 0.52 0.12l0.1 0.050c0.1 0.040 0.2 0.020 0.25-0.050l0.090-0.050 0.43-0.45c0.1-0.1 0.22-0.14 0.35-0.12s0.26 0.070 0.38 0.13c0.18 0.1 0.33 0.14 0.5 0.14h0.1c0.22 0 0.44 0.030 0.66 0.080l0.15 0.040c0.15 0.040 0.3-0.020 0.4-0.14 0.030-0.050 0.1-0.060 0.14-0.020 0.030 0.020 0.040 0.040 0.050 0.070 0.020 0.2 0.14 0.35 0.3 0.4l0.16 0.050c0.17 0.050 0.32 0.16 0.42 0.3 0.1 0.15 0.22 0.3 0.36 0.4l0.1 0.1c0.1 0.1 0.24 0.14 0.38 0.13h0.59c0.24 0 0.47 0.040 0.7 0.14 0.22 0.1 0.45 0.12 0.66 0.040 0.22-0.070 0.45-0.1 0.68-0.070l0.43 0.070c0.2 0.020 0.4 0.12 0.52 0.27l0.050 0.050c0.1 0.1 0.2 0.23 0.3 0.37 0.060 0.13 0.2 0.2 0.34 0.2h0.62c0.15 0 0.3 0.030 0.42 0.1 0.13 0.1 0.24 0.2 0.34 0.3l0.1 0.13c0.12 0.14 0.18 0.33 0.17 0.53 0 0.16 0.12 0.3 0.28 0.3l0.2 0.020c0.14 0 0.26 0.1 0.33 0.23l0.1 0.2 0.26 0.58c0.040 0.1 0.050 0.2 0.040 0.28 0 0.1 0.030 0.18 0.1 0.22l0.1 0.070c0.13 0.1 0.2 0.25 0.18 0.42l-0.070 0.47-0.020 0.2c-0.020 0.1 0.030 0.23 0.12 0.3 0.15 0.1 0.22 0.23 0.23 0.38v0.2c0 0.1-0.020 0.22-0.1 0.3-0.060 0.080-0.1 0.18-0.1 0.3l0.030 0.23c0 0.16 0.1 0.3 0.2 0.4 0.14 0.1 0.22 0.26 0.24 0.42 0.040 0.25 0.050 0.45 0.050 0.65v0.23c0 0.080 0 0.16 0.030 0.24 0.020 0.070 0.070 0.14 0.13 0.18l0.2 0.15c0.2 0.13 0.34 0.3 0.42 0.53 0.1 0.22 0.13 0.45 0.13 0.68v0.080c0 0.18-0.020 0.37-0.080 0.54-0.050 0.18-0.040 0.35 0.030 0.5 0.080 0.14 0.13 0.3 0.15 0.47 0.040 0.2 0.020 0.4-0.050 0.56l-0.020 0.070c-0.050 0.12-0.13 0.23-0.23 0.32-0.1 0.1-0.2 0.16-0.26 0.23-0.060 0.060-0.1 0.16-0.070 0.25l0.030 0.14c0.050 0.2 0.050 0.4 0 0.58v0.080c-0.040 0.15-0.1 0.28-0.16 0.4-0.070 0.13-0.17 0.23-0.3 0.3l-0.15 0.1c-0.070 0.040-0.12 0.13-0.12 0.22 0 0.1-0.040 0.2-0.1 0.26l-0.15 0.2c-0.1 0.13-0.23 0.24-0.37 0.3-0.14 0.1-0.26 0.2-0.35 0.3-0.1 0.12-0.18 0.26-0.22 0.4-0.040 0.18-0.18 0.28-0.33 0.28h-0.54c-0.14 0-0.27 0.1-0.33 0.22-0.070 0.16-0.14 0.27-0.23 0.37-0.1 0.1-0.16 0.22-0.2 0.36-0.020 0.12-0.12 0.2-0.22 0.16-0.13-0.060-0.26 0-0.32 0.1-0.12 0.2-0.24 0.35-0.37 0.48l-0.070 0.060c-0.13 0.1-0.3 0.18-0.45 0.18-0.18 0-0.27 0.080-0.3 0.2-0.030 0.1-0.050 0.23-0.060 0.34-0.020 0.12-0.060 0.23-0.1 0.33l-0.050 0.060c-0.1 0.15-0.18 0.3-0.28 0.43l-0.040 0.060c-0.13 0.17-0.3 0.3-0.5 0.35-0.24 0.080-0.45 0.1-0.66 0.1h-0.14c-0.1 0-0.2 0.060-0.27 0.16l-0.060 0.1-0.060 0.12-0.13 0.22c-0.1 0.18-0.25 0.3-0.45 0.36-0.2 0.050-0.43 0.070-0.64 0.060l-0.16-0.020c-0.14 0-0.27-0.040-0.4-0.1-0.1-0.040-0.24 0-0.3 0.1-0.1 0.14-0.22 0.22-0.35 0.26l-0.3 0.1c-0.2 0.050-0.42 0.050-0.63 0l-0.16-0.050c-0.1 0-0.2-0.050-0.28-0.1-0.1-0.050-0.2-0.070-0.3-0.060l-0.13 0.020c-0.2 0.020-0.38 0-0.56-0.050l-0.27-0.060c-0.12-0.040-0.23-0.12-0.3-0.23-0.050-0.1-0.16-0.18-0.3-0.2h-0.32c-0.2-0.030-0.38-0.1-0.5-0.25l-0.4-0.38-0.14-0.12-0.22-0.16-0.13-0.1c-0.15-0.1-0.33-0.18-0.52-0.2l-0.6-0.1c-0.060 0-0.1-0.020-0.16-0.030l-0.23-0.050c-0.1-0.020-0.2-0.1-0.27-0.2-0.060-0.1-0.17-0.14-0.27-0.1-0.2 0.080-0.36 0.1-0.52 0.13h-0.14c-0.26 0.020-0.5-0.020-0.74-0.13-0.24-0.1-0.4-0.25-0.55-0.44-0.12-0.17-0.3-0.3-0.52-0.34l-0.28-0.060c-0.2-0.040-0.4-0.12-0.58-0.24-0.2-0.14-0.3-0.27-0.38-0.43-0.080-0.15-0.13-0.32-0.14-0.5v-0.080c-0.020-0.2-0.16-0.38-0.35-0.43-0.23-0.070-0.4-0.17-0.55-0.3-0.14-0.13-0.22-0.32-0.22-0.52l0.020-0.44c0-0.17-0.050-0.32-0.17-0.43-0.12-0.12-0.2-0.27-0.2-0.43l-0.030-0.36c-0.020-0.26-0.070-0.52-0.13-0.78-0.060-0.23 0.030-0.46 0.22-0.57l0.070-0.050c0.1-0.070 0.14-0.2 0.080-0.32l-0.080-0.1c-0.1-0.1-0.2-0.17-0.3-0.2-0.080-0.020-0.1-0.1-0.1-0.15l0.1-0.12c0.060-0.070 0.050-0.18 0-0.24-0.080-0.080-0.12-0.18-0.13-0.28l-0.020-0.7c0-0.14 0.020-0.28 0.060-0.42 0.040-0.12 0-0.26-0.12-0.31zM10.66 10.88c0.070-0.070 0.060-0.2 0-0.25-0.1-0.080-0.17-0.17-0.23-0.27l-0.1-0.16c-0.070-0.13-0.16-0.24-0.26-0.34l-0.020-0.020c-0.1-0.080-0.17-0.18-0.23-0.3-0.050-0.1-0.050-0.2 0-0.3l0.060-0.1c0.060-0.1 0.1-0.24 0.1-0.36v-0.040c0-0.1-0.040-0.2-0.1-0.3-0.040-0.080-0.080-0.18-0.1-0.28v-0.060c-0.030-0.12 0-0.25 0.080-0.35 0.080-0.13 0.14-0.25 0.17-0.4v-0.020c0.040-0.1 0.020-0.23-0.040-0.33s-0.080-0.2-0.040-0.32l0.070-0.2c0.060-0.18 0.15-0.34 0.27-0.48l0.14-0.15 0.1-0.12 0.060-0.060c0.060-0.060 0.070-0.16 0.020-0.24-0.050-0.1-0.080-0.2-0.060-0.3l0.020-0.14c0.030-0.2 0.1-0.4 0.23-0.56l0.040-0.040c0.15-0.2 0.34-0.33 0.56-0.4l0.27-0.1c0.12-0.040 0.2-0.17 0.2-0.3 0-0.16 0.050-0.3 0.14-0.43l0.050-0.050c0.1-0.17 0.22-0.34 0.3-0.52l0.070-0.13c0.020-0.030 0.030-0.070 0.030-0.1 0-0.17-0.1-0.32-0.26-0.33l-0.44-0.030c-0.25-0.020-0.5 0-0.74 0l-0.85 0.1c-0.13 0-0.23 0.1-0.24 0.24 0 0.14-0.1 0.26-0.22 0.3l-0.36 0.1-0.1 0.030-0.3 0.1c-0.22 0.070-0.4 0.23-0.5 0.45l-0.080 0.13c-0.1 0.22-0.27 0.4-0.48 0.53-0.2 0.13-0.3 0.34-0.32 0.58v0.1c-0.020 0.2-0.080 0.4-0.2 0.54l-0.050 0.080c-0.080 0.1-0.1 0.23-0.050 0.34 0.050 0.12 0.080 0.25 0.070 0.38v0.53c0 0.14-0.1 0.26-0.2 0.3-0.14 0.050-0.23 0.16-0.27 0.3l-0.050 0.2c-0.040 0.2 0.030 0.4 0.2 0.52 0.16 0.12 0.26 0.3 0.3 0.52v0.18c0.030 0.2 0.14 0.4 0.32 0.5 0.18 0.12 0.32 0.3 0.4 0.5l0.050 0.16c0.080 0.22 0.26 0.35 0.46 0.37h0.060c0.18 0 0.34 0.1 0.44 0.26s0.26 0.27 0.44 0.3l0.28 0.080c0.17 0.050 0.33 0.14 0.46 0.27l0.020 0.020c0.1 0.080 0.26 0.070 0.35-0.040zM11.8 9.96c0.1 0.060 0.2 0.030 0.24-0.060l0.030-0.050c0.070-0.14 0.16-0.28 0.26-0.4l0.2-0.3c0.030 0 0.040-0.020 0.050-0.040l0.24-0.32c0.1-0.1 0.22-0.17 0.36-0.17 0.13 0 0.24-0.070 0.3-0.2 0.040-0.14 0.1-0.27 0.22-0.38l0.050-0.060c0.1-0.1 0.2-0.15 0.3-0.2 0.13-0.020 0.25-0.040 0.37-0.040h0.3c0.12 0 0.22-0.050 0.28-0.15s0.15-0.17 0.25-0.22l0.1-0.040c0.16-0.070 0.34-0.12 0.52-0.14l0.2-0.020c0.12 0 0.25 0 0.37 0.070 0.1 0.070 0.23 0.060 0.33-0.020l0.070-0.040c0.15-0.1 0.32-0.18 0.5-0.2h0.020c0.2-0.040 0.38-0.040 0.58-0.030h0.1c0.2 0.030 0.37 0.1 0.5 0.25l0.030 0.040c0.1 0.1 0.26 0.18 0.4 0.18h0.17c0.050 0 0.1-0.020 0.13-0.070 0.030-0.030 0.080-0.060 0.13-0.060h0.1c0.14 0 0.27 0.040 0.4 0.080l0.17 0.070c0.16 0.050 0.33 0.1 0.5 0.12h0.12c0.080 0 0.13-0.050 0.13-0.12 0-0.1-0.020-0.2-0.070-0.28l-0.070-0.16c-0.080-0.13-0.14-0.27-0.2-0.4l-0.020-0.050c-0.050-0.1-0.050-0.2 0-0.3v-0.050c0.020-0.080-0.020-0.17-0.1-0.2h-0.080c-0.16-0.050-0.3-0.14-0.4-0.27l-0.1-0.1c-0.1-0.1-0.16-0.25-0.2-0.4-0.050-0.13-0.16-0.23-0.3-0.23h-0.42c-0.15-0.020-0.28-0.1-0.37-0.22l-0.040-0.050c-0.070-0.1-0.13-0.22-0.17-0.34-0.050-0.1-0.16-0.16-0.26-0.13l-0.12 0.040c-0.2 0.070-0.4 0.1-0.6 0.080l-0.16-0.020c-0.17 0-0.33-0.070-0.46-0.17l-0.1-0.070c-0.080-0.060-0.16-0.1-0.25-0.14-0.1-0.040-0.18-0.020-0.24 0.050l-0.050 0.060c-0.1 0.1-0.24 0.18-0.38 0.2l-0.54 0.030c-0.1 0-0.2 0.050-0.27 0.12-0.080 0.070-0.17 0.12-0.27 0.14h-0.020c-0.1 0-0.2 0.070-0.3 0.14v0.020c-0.1 0.1-0.23 0.15-0.36 0.15l-0.040 0.020c-0.12 0-0.24 0-0.36 0.030h-0.12c-0.17 0.030-0.3 0.17-0.34 0.35l-0.040 0.23c-0.030 0.16-0.1 0.3-0.2 0.43-0.1 0.12-0.22 0.2-0.37 0.2h-0.17c-0.1 0.020-0.2 0.13-0.18 0.25 0.020 0.17 0 0.32-0.030 0.47l-0.040 0.17c-0.040 0.15-0.14 0.27-0.27 0.32l-0.060 0.030h-0.020c-0.060 0.040-0.1 0.13-0.050 0.2 0.060 0.1 0.080 0.2 0.070 0.3l-0.030 0.32c0 0.12-0.050 0.23-0.1 0.33-0.060 0.1-0.060 0.2-0.020 0.3l0.1 0.22c0.050 0.1 0.060 0.2 0.030 0.32-0.030 0.1-0.050 0.2-0.040 0.3 0 0.1 0.060 0.2 0.14 0.24l0.020 0.020zM19.7 17.19c0.1 0.1 0.25 0.14 0.37 0.060l0.2-0.13c0.1-0.070 0.18-0.17 0.22-0.3v-0.020l0.1-0.3 0.060-0.1 0.040-0.1 0.040-0.070c0.040-0.080 0.1-0.14 0.2-0.17l0.040-0.020c0.080-0.020 0.13-0.1 0.13-0.18 0-0.1 0.050-0.18 0.1-0.25l0.080-0.070 0.2-0.26v-0.020c0.060-0.080 0.1-0.17 0.12-0.27s0-0.2-0.040-0.3l-0.020-0.040c-0.040-0.1-0.060-0.17-0.070-0.26l-0.030-0.28-0.030-0.3c0-0.1 0.040-0.2 0.1-0.3 0.070-0.080 0.12-0.18 0.16-0.28v-0.040l0.020-0.020c0.020-0.1-0.030-0.2-0.12-0.2-0.1-0.050-0.2-0.13-0.23-0.25l-0.030-0.060c-0.050-0.18-0.080-0.36-0.080-0.54l0.020-0.5v-0.030c0-0.17-0.14-0.3-0.3-0.3h-0.020c-0.2 0-0.36-0.060-0.5-0.2l-0.080-0.1-0.2-0.23-0.26-0.3c-0.1-0.14-0.2-0.26-0.33-0.38-0.1-0.1-0.25-0.2-0.4-0.22l-0.2-0.030c-0.1-0.020-0.23-0.070-0.34-0.14-0.080-0.060-0.2-0.040-0.28 0.040l-0.13 0.14-0.060 0.040c-0.070 0.020-0.14-0.020-0.17-0.1-0.040-0.12-0.040-0.26 0.020-0.38v-0.060c0-0.070-0.060-0.12-0.12-0.1h-0.16c-0.18 0-0.36-0.020-0.53-0.1l-0.1-0.040c-0.1-0.050-0.22-0.080-0.33-0.080-0.1 0-0.2 0.020-0.3 0.080l-0.040 0.030c-0.12 0.080-0.26 0.12-0.4 0.13h-0.33c-0.15 0-0.3 0.050-0.4 0.13-0.13 0.080-0.27 0.13-0.42 0.16l-0.27 0.040c-0.12 0.030-0.25 0.080-0.36 0.17-0.1 0.1-0.24 0.16-0.37 0.2l-0.050 0.020c-0.16 0.050-0.3 0.15-0.4 0.3l-0.12 0.12c-0.070 0.1-0.070 0.22 0 0.32 0.060 0.1 0.18 0.13 0.3 0.1l0.15-0.060c0.080-0.030 0.17 0 0.24 0.040 0.060 0.050 0.15 0.080 0.24 0.070l0.25-0.030c0.14 0 0.28 0 0.42 0.040 0.15 0.050 0.28 0.1 0.4 0.2s0.25 0.14 0.4 0.16 0.3 0.050 0.44 0.1l0.1 0.020c0.1 0.030 0.18 0.1 0.24 0.2 0.050 0.080 0.1 0.2 0.1 0.3v0.030c0 0.12 0.1 0.2 0.2 0.2h0.060c0.16 0 0.33 0.020 0.5 0.070l0.070 0.030c0.1 0.040 0.2 0.1 0.27 0.2 0.080 0.1 0.13 0.2 0.16 0.3l0.030 0.14c0.030 0.15 0.040 0.3 0.040 0.46v0.050c0 0.1 0.070 0.2 0.18 0.24 0.1 0.020 0.22 0.060 0.33 0.12l0.050 0.020c0.13 0.080 0.26 0.18 0.36 0.3l0.050 0.070c0.13 0.15 0.2 0.34 0.2 0.53v0.070c0 0.15-0.030 0.3-0.080 0.44-0.040 0.12 0 0.26 0.13 0.3l0.070 0.050c0.15 0.060 0.28 0.17 0.38 0.3 0.1 0.15 0.14 0.32 0.14 0.5v0.3c-0.020 0.1-0.050 0.18-0.1 0.25s-0.050 0.17 0 0.24zM13.3 12.070h-0.020c-0.040 0-0.060 0.050-0.050 0.1l0.040 0.2c0.040 0.16 0.060 0.32 0.080 0.48s0.1 0.3 0.22 0.4h0.040c0.15 0.12 0.24 0.3 0.25 0.48v0.5c-0.020 0.1 0 0.2 0.060 0.28l0.050 0.050c0.1 0.12 0.14 0.26 0.15 0.4l0.030 0.55c0 0.13-0.080 0.24-0.2 0.26l-0.1 0.020c-0.070 0-0.1 0.080-0.1 0.15 0 0.080 0.030 0.17 0.060 0.25v0.020c0.030 0.1 0.040 0.2 0.030 0.3l-0.040 0.27c-0.040 0.2-0.1 0.38-0.2 0.56l-0.070 0.12c-0.050 0.1-0.12 0.16-0.2 0.2-0.1 0.040-0.17 0.12-0.2 0.22l-0.080 0.36c-0.050 0.2-0.14 0.4-0.26 0.6h-0.020c-0.12 0.16-0.27 0.3-0.45 0.4l-0.12 0.080-0.3 0.15c-0.1 0.040-0.16 0.13-0.18 0.24l-0.050 0.33c-0.030 0.2-0.1 0.37-0.24 0.5l-0.13 0.15-0.15 0.15-0.15 0.16c-0.12 0.14-0.3 0.2-0.5 0.17l-0.36-0.070-0.33-0.040h-0.090c-0.040 0.040-0.050 0.1-0.020 0.16 0.070 0.12 0.18 0.2 0.3 0.2l0.22 0.040c0.1 0 0.22 0.050 0.32 0.1 0.1 0.070 0.2 0.12 0.32 0.15h0.020c0.13 0.050 0.27 0.060 0.4 0.050l0.15-0.020c0.17-0.020 0.33 0 0.47 0.060l0.12 0.040c0.050 0.020 0.13 0 0.18-0.050 0.060-0.060 0.12-0.1 0.2-0.13l0.080-0.020c0.13-0.040 0.26-0.060 0.4-0.060h0.080c0.12 0 0.23 0.020 0.33 0.080l0.040 0.020c0.070 0.030 0.15 0 0.2-0.060 0.030-0.070 0.1-0.14 0.17-0.2l0.25-0.17 0.24-0.15c0.1-0.070 0.24-0.1 0.36-0.1l0.36-0.030c0.14-0.020 0.26-0.12 0.3-0.26 0.040-0.15 0.1-0.3 0.2-0.43s0.2-0.24 0.3-0.34c0.13-0.1 0.26-0.15 0.4-0.16h0.080c0.16-0.030 0.28-0.18 0.27-0.34v-0.67c0.020-0.1 0.060-0.23 0.12-0.33l0.2-0.3 0.080-0.1c0.060-0.050 0.1-0.12 0.17-0.2l0.1-0.13c0.060-0.1 0.060-0.23-0.020-0.32-0.1-0.1-0.15-0.24-0.17-0.38v-0.040c-0.020-0.16-0.020-0.33 0.030-0.5v-0.050c0.050-0.13 0.12-0.26 0.2-0.38 0.080-0.1 0.070-0.24-0.030-0.32l-0.17-0.15c-0.14-0.12-0.22-0.3-0.24-0.48l-0.020-0.2c0-0.060 0-0.13-0.020-0.2l-0.020-0.15c-0.020-0.17-0.12-0.3-0.26-0.4l-0.070-0.020c-0.1-0.060-0.2-0.15-0.28-0.27-0.080-0.1-0.12-0.24-0.15-0.38l-0.030-0.17c0-0.060-0.040-0.1-0.1-0.13l-0.48-0.15c-0.1-0.020-0.2-0.1-0.27-0.17h-0.020c-0.060-0.080-0.16-0.080-0.22-0.020l-0.1 0.1c-0.020 0.030-0.040 0.040-0.070 0.030-0.060 0-0.1-0.050-0.080-0.1 0.020-0.16-0.040-0.32-0.17-0.42l-0.13-0.1-0.3-0.2c-0.080-0.030-0.2 0-0.24 0.1l-0.040 0.060c0 0.020-0.030 0.030-0.040 0.040-0.040 0-0.1 0-0.1-0.050l-0.030-0.050c-0.030-0.060-0.1-0.1-0.16-0.12zM12.1 13.070l-0.050-0.050c-0.050-0.040-0.1-0.030-0.15 0.020-0.070 0.12-0.13 0.25-0.16 0.38v0.020c-0.030 0.13-0.15 0.22-0.27 0.2h-0.12c-0.14 0-0.25 0.12-0.25 0.26 0 0.18-0.060 0.36-0.17 0.5l-0.060 0.060c-0.1 0.13-0.25 0.22-0.4 0.27l-0.080 0.020c-0.1 0.030-0.18 0.1-0.2 0.22 0 0.1-0.060 0.2-0.14 0.28l-0.1 0.080c-0.12 0.13-0.3 0.2-0.48 0.22l-0.5 0.050c-0.16 0-0.3 0.1-0.4 0.25s-0.25 0.25-0.4 0.27l-0.22 0.020c-0.16 0.020-0.33 0.020-0.5-0.020l-0.1-0.020-0.27-0.070c-0.1-0.030-0.18 0-0.24 0.070l-0.1 0.13c-0.13 0.15-0.32 0.22-0.5 0.2l-0.65-0.080c-0.1 0-0.18-0.050-0.27-0.1-0.1-0.060-0.17-0.13-0.24-0.2l-0.25-0.3c-0.030-0.020-0.080-0.030-0.13-0.020l-0.14 0.060-0.56 0.14c-0.1 0.030-0.23 0-0.33-0.060-0.1-0.080-0.22-0.1-0.34-0.1h-0.13c-0.12 0.030-0.2 0.16-0.16 0.28l0.040 0.2c0.030 0.1 0.020 0.22-0.030 0.32s-0.040 0.2 0.030 0.3l0.060 0.080c0.080 0.12 0.2 0.22 0.3 0.32s0.2 0.2 0.28 0.33l0.15 0.27c0.080 0.14 0.2 0.22 0.36 0.22 0.15 0 0.3 0.050 0.42 0.15l0.3 0.28c0.080 0.070 0.2 0.080 0.28 0.020l0.050-0.020c0.060 0 0.1 0.040 0.1 0.1v0.050c0 0.13 0.1 0.25 0.23 0.3l0.45 0.1c0.16 0.050 0.32 0.1 0.47 0.2h0.080c0.080 0 0.15-0.070 0.14-0.16v-0.35c0-0.1 0.040-0.2 0.12-0.24l0.050-0.020c0.050 0.020 0.1 0.060 0.080 0.1v0.17c0 0.13 0.040 0.25 0.13 0.34 0.1 0.1 0.23 0.12 0.34 0.080 0.12-0.050 0.24-0.060 0.37-0.050l0.37 0.020c0.18 0.020 0.35 0 0.5-0.070 0.18-0.060 0.33-0.14 0.47-0.25l0.060-0.040 0.3-0.27c0.1-0.1 0.23-0.15 0.35-0.15h0.4c0.2-0.020 0.38-0.2 0.4-0.4l0.040-0.2c0-0.13 0.060-0.25 0.15-0.35 0.1-0.1 0.2-0.16 0.3-0.2l0.12-0.050c0.17-0.070 0.3-0.22 0.36-0.4l0.060-0.24c0.050-0.2 0.15-0.4 0.3-0.53l0.020-0.020c0.12-0.1 0.14-0.3 0.060-0.44l-0.030-0.070c-0.070-0.1-0.080-0.25-0.030-0.38 0.050-0.14 0.1-0.26 0.18-0.38l0.1-0.14c0.040-0.080 0.040-0.2-0.020-0.27-0.060-0.080-0.1-0.18-0.1-0.28l-0.020-0.14v-0.34c0.020-0.1 0-0.23-0.030-0.33l-0.040-0.12zM10.67 12.31v-0.030c0-0.1-0.060-0.16-0.14-0.16h-0.26c-0.1 0.020-0.2 0.020-0.28 0h-0.45c-0.23 0-0.45-0.040-0.67-0.1l-0.24-0.060-0.2-0.060-0.45-0.15c-0.24-0.070-0.42-0.23-0.53-0.45l-0.050-0.1c-0.070-0.15-0.22-0.23-0.37-0.2-0.17 0-0.34 0-0.5-0.080l-0.12-0.050c-0.23-0.1-0.4-0.3-0.4-0.57l-0.040-0.27c-0.030-0.14-0.12-0.27-0.24-0.32-0.14-0.060-0.27-0.14-0.4-0.23l-0.050-0.030c-0.15-0.12-0.28-0.28-0.35-0.47l-0.020-0.060c-0.050-0.16-0.060-0.33-0.020-0.5l0.020-0.060c0.040-0.13 0.050-0.26 0.050-0.4 0-0.12-0.050-0.24-0.14-0.33l-0.14-0.13c-0.16-0.13-0.26-0.32-0.27-0.53-0.020-0.22-0.020-0.43 0.020-0.64v-0.060c0-0.12-0.1-0.2-0.2-0.2h-0.030c-0.13 0-0.24 0.080-0.3 0.2-0.050 0.14-0.13 0.25-0.22 0.36l-0.040 0.050-0.3 0.3c-0.1 0.1-0.16 0.25-0.18 0.4s-0.060 0.3-0.12 0.44l-0.020 0.050c-0.050 0.12-0.13 0.23-0.23 0.3-0.1 0.080-0.17 0.2-0.17 0.32l-0.020 0.46c0 0.2-0.030 0.4-0.1 0.6l-0.020 0.080c-0.050 0.13 0 0.27 0.12 0.33l0.42 0.18 0.040 0.020c0.030 0 0.040 0.020 0.050 0.050 0.030 0.040 0 0.1-0.030 0.1l-0.1 0.050c-0.060 0.020-0.1 0.080-0.12 0.15l-0.020 0.1v0.020l-0.1 0.56c-0.020 0.080-0.020 0.17-0.020 0.26 0 0.080 0.050 0.15 0.12 0.18l0.22 0.1c0.1 0.060 0.22 0.13 0.3 0.2l0.1 0.080c0.030 0.040 0.080 0.080 0.12 0.1l0.040 0.040c0.070 0.060 0.12 0.14 0.14 0.23l0.1 0.45c0 0.12 0.1 0.22 0.2 0.25l0.16 0.050c0 0 0.030 0 0.050 0.020l0.2 0.060c0.16 0.050 0.3 0.14 0.42 0.26 0.12 0.1 0.24 0.23 0.34 0.37l0.040 0.040c0.080 0.1 0.2 0.15 0.32 0.12s0.25-0.040 0.38-0.040h0.15c0.1 0 0.23 0.030 0.34 0.1 0.1 0.060 0.23 0.1 0.35 0.15h0.030c0.12 0.050 0.25 0.030 0.35-0.040 0.1-0.080 0.23-0.12 0.36-0.12l0.47 0.030c0.1 0 0.2-0.020 0.25-0.1h0.020l0.17-0.16 0.050-0.050c0.080-0.1 0.2-0.14 0.32-0.15h0.45c0.12 0 0.23-0.1 0.28-0.2s0.15-0.18 0.27-0.2l0.2-0.040c0.080 0 0.15-0.070 0.18-0.16 0.030-0.1 0.080-0.18 0.15-0.24l0.16-0.16c0.1-0.1 0.15-0.2 0.15-0.31z"/>
</svg>