<svg xmlns="http://www.w3.org/2000/svg" version="1.1" width="24" height="24" viewBox="0 0 24 24">
<path d="M21.6 0h-19.2c-1.323 0.006-2.394 1.077-2.4 2.399v19.201c0.006 1.323 1.077 2.394 2.399 2.4h19.201c1.323-0.006 2.394-1.077 2.4-2.399v-19.201c-0.006-1.323-1.077-2.394-2.399-2.4h-0.001zM7.045 14.465c0.257 0.12 0.558 0.19 0.875 0.19 0.848 0 1.579-0.5 1.915-1.222l0.005-0.013h1.66c-0.407 1.628-1.857 2.815-3.585 2.815-2.038 0-3.69-1.652-3.69-3.69s1.652-3.69 3.69-3.69c1.727 0 3.177 1.187 3.579 2.79l0.005 0.025h-1.66c-0.341-0.735-1.072-1.235-1.92-1.235-1.165 0-2.11 0.945-2.11 2.11 0 0.848 0.5 1.579 1.222 1.915l0.013 0.005zM18.39 15.31c-0.301 0.26-0.652 0.473-1.036 0.622l-0.024 0.008c-0.395 0.158-0.853 0.249-1.332 0.249-0.768 0-1.481-0.235-2.071-0.638l0.013 0.008v0.38h-1.51v-10.57h1.5v4.11c0.508-0.347 1.123-0.575 1.787-0.629l0.013-0.001h0.27c0.002 0 0.004 0 0.006 0 2.027 0 3.67 1.643 3.67 3.67 0 1.114-0.497 2.113-1.281 2.786l-0.005 0.004zM18.167 12.544c0 0.014 0 0.030 0 0.046 0 1.162-0.942 2.104-2.104 2.104s-2.104-0.942-2.104-2.104c0-0.016 0-0.032 0.001-0.048l-0 0.002c0.026-1.142 0.958-2.058 2.103-2.058s2.078 0.916 2.103 2.056l0 0.002z"/>
</svg>