<svg xmlns="http://www.w3.org/2000/svg" version="1.1" width="24" height="24" viewBox="0 0 24 24">
<path d="M20.982 7.246c-0.94-0.941-2.073-1.689-3.334-2.179l-0.066-0.023c0.721-2.12 3.277-2.892 3.277-2.892-2.724-1.329-5.926-2.106-9.31-2.106-1.143 0-2.266 0.089-3.361 0.26l0.122-0.016c-2.365 0.479-4.382 1.724-5.829 3.462l-0.013 0.016c-1.394 1.597-2.243 3.701-2.243 6.003 0 2.792 1.25 5.292 3.222 6.971l0.013 0.011c0.598 0.512 1.934 1.308 1.958 1.349-0.876 2.226-3.678 2.835-3.678 2.835 2.499 1.463 5.431 2.493 8.558 2.904l0.118 0.013c0.691 0.093 1.491 0.146 2.302 0.146 0.658 0 1.307-0.035 1.947-0.103l-0.080 0.007c2.503-0.303 4.697-1.439 6.338-3.118l0.002-0.002c1.761-1.73 2.852-4.136 2.852-6.797 0-2.633-1.068-5.016-2.795-6.74l-0-0zM19.278 19.304c-1.358 1.289-3.13 2.154-5.096 2.377l-0.041 0.004c-0.511 0.057-1.104 0.090-1.705 0.090-0.652 0-1.295-0.038-1.927-0.113l0.077 0.007c-1.574-0.222-2.996-0.625-4.33-1.196l0.11 0.042c0.631-0.59 1.139-1.304 1.484-2.104l0.016-0.041c0.070-0.177 0.111-0.382 0.111-0.596 0-0.259-0.060-0.504-0.166-0.722l0.004 0.010c-0.443-0.892-0.702-1.942-0.702-3.053 0-1.97 0.815-3.751 2.126-5.022l0.002-0.002c1.305-1.265 3.087-2.045 5.050-2.045 1.992 0 3.797 0.803 5.109 2.102l-0.001-0.001c1.261 1.313 2.037 3.1 2.037 5.068 0 2.030-0.826 3.867-2.16 5.193l-0 0z"/>
</svg>