<svg xmlns="http://www.w3.org/2000/svg" version="1.1" width="24" height="24" viewBox="0 0 24 24">
<path d="M19 4.035h1.4c0.331 0 0.6 0.269 0.6 0.6v14.73c0 0.331-0.269 0.6-0.6 0.6h-1.4zM22 6.026h1.4c0.331 0 0.6 0.269 0.6 0.6v10.747c0 0.331-0.269 0.6-0.6 0.6h-1.4zM0.6 2.044h16.8c0.331 0 0.6 0.269 0.6 0.6v18.712c0 0.331-0.269 0.6-0.6 0.6h-16.8c-0.331 0-0.6-0.269-0.6-0.6v-18.712c0-0.331 0.269-0.6 0.6-0.6zM4.2 5.23c-0.11 0-0.2 0.090-0.2 0.2v7.35c0 0.045 0.015 0.089 0.044 0.125 0.069 0.086 0.195 0.101 0.281 0.032l9.228-7.35c0.048-0.038 0.075-0.096 0.075-0.156 0-0.11-0.090-0.2-0.2-0.2zM4 17.185c0 0.040 0.012 0.080 0.035 0.113 0.062 0.091 0.187 0.114 0.278 0.052l7.576-5.184c0.054-0.037 0.087-0.099 0.087-0.165 0-0.11-0.090-0.2-0.2-0.2h-4.886c-0.045 0-0.088 0.015-0.123 0.042l-2.69 2.102c-0.049 0.038-0.077 0.096-0.077 0.158zM4.086 18.342c-0.054 0.037-0.086 0.099-0.086 0.164v0.087c0 0.106 0.086 0.192 0.192 0.192h2.808c0.11 0 0.2-0.090 0.2-0.2v-2.022c0-0.041-0.012-0.081-0.036-0.114-0.063-0.091-0.188-0.113-0.278-0.050z"/>
</svg>