<svg xmlns="http://www.w3.org/2000/svg" version="1.1" width="24" height="24" viewBox="0 0 24 24">
<path d="M20 4.8c0.4-0.2 0.6-0.4 0.9-0.4 0.5 0 0.8 0.3 0.9 0.5 0.2 0.3 0.9 0.5 1.2 0.5 0.2 0 0.5-0.7 0.7-1.3s0.2-1.3 0.1-1.4-0.9-0.3-1.1-0.3c-0.1 0.1-0.3 0.2-0.7 0.2s-0.8-0.3-1.1-0.6c-0.5-0.5-1.1-0.7-1.7-0.9s-1.3-0.2-1.9-0.2c-0.9-0.1-1.9-0.1-2.8 0.2-0.4 0.1-0.7 0.2-1.1 0.4-0.1 0.1-0.4 0.2-0.5 0.2-0.1 0.1-0.1 0.2 0 0.2s0.5-0.1 0.5-0.1-0.5 0.2-0.5 0.4c0 0.1 0.1 0.1 0.1 0.1s0.3-0.1 0.5-0.1c0.4 0 1-0.2 1.5-0.2 0.6 0 1.2 0.2 1.8 0.8 0.9 1.1 0.8 2.5 0.8 2.8-0.2 2.1-4.9 14.9-5.1 15.8s-0.2 1.4 0.9 1.7 1.5 0 1.7-0.4c0.1-0.7 3.1-16.5 4.9-17.9zM16.1 3.8l-16.1 2.5 2.6 16.7 8.6-1.4c-0.1-0.7 2.2-6.7 2.6-7.8l-4.4 0.7 0.6-1.8 3.1-0.5 0.8 1c0 0 0.2-0.5 0.2-0.7l-4.3-5.3c-0.2-0.3-0.2-0.7 0.1-0.9l0.2-0.2c0.3-0.2 0.7-0.2 0.9 0.1l3.8 4.4c0.8-2.4 1.5-4.5 1.5-5.2 0.1-0.2 0.1-0.9-0.2-1.6zM4.1 13.7l2.7-0.5-0.7 1.8-1.8 0.3zM9.9 8.6l0.3 0.1c0.4 0.1 0.5 0.5 0.4 0.9l-3 8-1.8 2.4 0.2-3 3-8c0.1-0.4 0.5-0.5 0.9-0.4zM20.7 5.8c-0.4 0.4-0.9 1.7-1.9 5.5h0.1l0.3 1.6-0.8 0.1c-0.1 0.5-0.2 1-0.4 1.6 1.7 0.9 0.8 3.1 0.7 3.1s-0.1 0-0.1-0.1 0.1-0.4-0.2-0.5c-0.2-0.1-0.6-0.2-0.9-0.4-0.3 1.2-0.6 2.6-0.9 4.1l6.3-1-2.1-14.1z"/>
</svg>