<svg xmlns="http://www.w3.org/2000/svg" version="1.1" width="24" height="24" viewBox="0 0 24 24">
<path d="M16.633 16.504c0.869-0.075 1.543-0.84 1.499-1.754-0.046-0.914-0.795-1.648-1.708-1.648h-0.061c-0.943 0.031-1.678 0.824-1.648 1.769 0.030 0.479 0.226 0.869 0.494 1.153-1.048 2.038-2.621 3.536-5.004 4.795-1.603 0.838-3.296 1.154-4.944 0.929-1.378-0.194-2.456-0.81-3.116-1.798-0.988-1.499-1.078-3.116-0.255-4.734 0.601-1.169 1.499-2.023 2.099-2.443-0.15-0.389-0.33-1.048-0.42-1.542-4.436 3.177-3.985 7.521-2.637 9.574 1.004 1.498 3.057 2.456 5.304 2.456 0.599 0 1.229-0.044 1.843-0.194 3.896-0.749 6.847-3.086 8.54-6.532zM21.981 12.758c-2.321-2.727-5.738-4.225-9.634-4.225h-0.51c-0.253-0.554-0.837-0.899-1.497-0.899h-0.045c-0.943 0-1.678 0.81-1.647 1.753 0.030 0.898 0.794 1.648 1.708 1.648h0.074c0.675-0.030 1.259-0.45 1.498-1.049h0.555c2.309 0 4.495 0.674 6.488 1.992 1.527 1.004 2.622 2.322 3.236 3.896 0.538 1.288 0.509 2.547-0.045 3.597-0.854 1.647-2.293 2.517-4.195 2.517-1.199 0-2.367-0.375-2.967-0.644-0.359 0.298-0.959 0.793-1.394 1.093 1.318 0.598 2.652 0.943 3.94 0.943 2.922 0 5.093-1.647 5.918-3.236 0.898-1.798 0.824-4.824-1.469-7.416zM6.49 17.042c0.029 0.899 0.793 1.648 1.708 1.648h0.060c0.959-0.030 1.693-0.823 1.648-1.768 0-0.899-0.779-1.647-1.693-1.647h-0.061c-0.060 0-0.149 0-0.225 0.029-1.243-2.098-1.768-4.346-1.572-6.771 0.119-1.828 0.719-3.417 1.797-4.735 0.899-1.124 2.592-1.679 3.746-1.708 3.236-0.061 4.585 3.971 4.689 5.574l1.498 0.449c-0.345-4.914-3.4-7.492-6.322-7.492-2.742 0-5.273 1.993-6.293 4.915-1.393 3.896-0.479 7.641 1.229 10.638-0.149 0.195-0.239 0.539-0.209 0.868z"/>
</svg>