<svg xmlns="http://www.w3.org/2000/svg" version="1.1" width="24" height="24" viewBox="0 0 24 24">
<path d="M20.788 3.832c-0.101-0.105-0.197-0.213-0.301-0.317-0.103-0.103-0.211-0.202-0.32-0.302-2.122-1.99-4.986-3.213-8.134-3.213-0.012 0-0.023 0-0.035 0h0.002c-0.010-0-0.021-0-0.032-0-3.304 0-6.294 1.343-8.453 3.514l-0 0c-4.576 4.576-4.674 11.956-0.301 16.654 0.099 0.108 0.197 0.214 0.3 0.32 0.104 0.103 0.21 0.2 0.317 0.3 2.125 1.99 4.99 3.212 8.14 3.212 0.011 0 0.021-0 0.032-0h-0.002c3.206 0 6.22-1.247 8.487-3.512 4.576-4.576 4.673-11.956 0.301-16.656zM4.133 4.133c2.003-2.013 4.775-3.259 7.839-3.259 0.010 0 0.020 0 0.030 0h-0.002c2.825 0 5.49 1.048 7.55 2.958l-1.001 1.002c-1.711-1.576-4.005-2.542-6.525-2.542-0.008 0-0.017 0-0.025 0h0.001c-0.008-0-0.017-0-0.026-0-2.673 0-5.092 1.087-6.838 2.844l-0 0c-1.756 1.747-2.843 4.165-2.843 6.838 0 0.009 0 0.019 0 0.028v-0.001c0 2.448 0.9 4.753 2.542 6.549l-1.003 1.001c-4.032-4.359-3.932-11.183 0.302-15.417zM17.931 5.451v0.002l-1.015 1.014c-1.295-1.165-3.017-1.878-4.906-1.878-0.004 0-0.007 0-0.011 0h0.001c-0.006-0-0.013-0-0.021-0-2.040 0-3.885 0.83-5.218 2.171l-0 0c-1.342 1.334-2.172 3.181-2.172 5.221 0 0.007 0 0.013 0 0.020v-0.001c0 0.003 0 0.007 0 0.011 0 1.887 0.712 3.608 1.883 4.909l-0.006-0.007-1.014 1.016c-1.417-1.552-2.285-3.627-2.285-5.904 0-0.009 0-0.018 0-0.026v0.001c-0-0.007-0-0.016-0-0.024 0-2.431 0.989-4.632 2.588-6.22l0-0c1.589-1.599 3.79-2.588 6.221-2.588 0.008 0 0.017 0 0.025 0h-0.001c2.213 0 4.301 0.809 5.931 2.284zM18.537 12c0 1.745-0.681 3.387-1.916 4.622s-2.875 1.916-4.621 1.916c-0.001 0-0.003 0-0.005 0-1.648 0-3.153-0.615-4.298-1.627l0.007 0.006-0.001-0.004c-0.11-0.094-0.22-0.188-0.324-0.291-0.098-0.101-0.193-0.207-0.285-0.317l-0.008-0.009c-1.006-1.135-1.62-2.637-1.62-4.282 0-0.005 0-0.010 0-0.014v0.001c0-1.746 0.679-3.387 1.914-4.621 1.175-1.182 2.803-1.914 4.601-1.914 0.007 0 0.013 0 0.020 0h-0.001c1.599 0 3.105 0.576 4.295 1.62 0.111 0.096 0.224 0.19 0.326 0.295 0.104 0.104 0.2 0.214 0.295 0.324 1.006 1.137 1.621 2.641 1.621 4.288 0 0.003 0 0.006 0 0.008v-0zM7.084 17.534h0.001c1.295 1.166 3.018 1.879 4.908 1.879 0.003 0 0.005 0 0.008 0h-0c0.006 0 0.013 0 0.021 0 2.040 0 3.886-0.831 5.218-2.174l0-0c1.342-1.333 2.173-3.179 2.173-5.219 0-0.007 0-0.014-0-0.021v0.001c0-0.002 0-0.004 0-0.006 0-1.89-0.712-3.613-1.882-4.917l0.006 0.007 1.013-1.012c1.417 1.553 2.285 3.629 2.285 5.907 0 0.007 0 0.015-0 0.022v-0.001c0 0.008 0 0.017 0 0.026 0 2.431-0.99 4.631-2.589 6.219l-0 0c-1.588 1.599-3.788 2.588-6.218 2.588-0.009 0-0.019-0-0.028-0h0.001c-0.006 0-0.014 0-0.021 0-2.279 0-4.355-0.868-5.916-2.291l0.007 0.006zM19.867 19.867c-2.001 2.013-4.772 3.258-7.833 3.258-0.012 0-0.024-0-0.035-0h0.002c-0.009 0-0.020 0-0.030 0-2.909 0-5.555-1.125-7.527-2.963l0.007 0.006 1.004-1.001c1.711 1.576 4.004 2.542 6.523 2.542 0.009 0 0.018-0 0.027-0h-0.001c0.008 0 0.017 0 0.026 0 2.673 0 5.092-1.088 6.838-2.846l0.001-0.001c1.756-1.747 2.843-4.165 2.843-6.837 0-0.009-0-0.018-0-0.028v0.001c0-0.007 0-0.016 0-0.024 0-2.52-0.967-4.813-2.549-6.531l0.006 0.007 1.001-1.002c4.031 4.359 3.935 11.182-0.301 15.417z"/>
</svg>