<svg xmlns="http://www.w3.org/2000/svg" version="1.1" width="24" height="24" viewBox="0 0 24 24">
<path d="M0.959 5.523c-0.54 0-0.959 0.42-0.959 0.899v7.549c0.054 2.493 2.088 4.494 4.589 4.494 0.008 0 0.017-0 0.025-0h-0.001c1.774-0.002 3.319-0.984 4.123-2.433l0.012-0.024c0.779 1.438 2.337 2.457 4.074 2.457 2.577 0 4.674-2.037 4.674-4.613 0.060-2.457-2.037-4.495-4.613-4.495-1.738 0-3.295 0.959-4.074 2.397-0.78-1.438-2.338-2.397-4.135-2.397-1.079 0-2.038 0.36-2.817 0.899v-3.834c-0.011-0.491-0.407-0.887-0.897-0.899l-0.001-0zM17.602 9.26c-0.048-0.009-0.103-0.014-0.16-0.014-0.204 0-0.393 0.064-0.547 0.173l0.003-0.002c-0.36 0.3-0.479 0.899-0.18 1.318l2.397 3.116-2.396 3.115c-0.3 0.42-0.24 0.96 0.18 1.26 0.419 0.3 1.016 0.298 1.316-0.122l2.039-2.636 2.096 2.697c0.3 0.36 0.899 0.419 1.318 0.12 0.36-0.3 0.42-0.84 0.121-1.259l-2.338-3.115 2.338-3.057c0.3-0.419 0.298-1.018-0.121-1.318-0.48-0.3-1.019-0.24-1.318 0.18l-2.096 2.576-2.040-2.695c-0.149-0.18-0.373-0.3-0.612-0.338zM4.613 11.154c1.558 0 2.817 1.26 2.817 2.758 0 1.558-1.259 2.756-2.817 2.756s-2.816-1.198-2.816-2.756c0-1.498 1.258-2.758 2.816-2.758zM12.883 11.154c1.558 0 2.816 1.26 2.816 2.758-0.060 1.558-1.318 2.756-2.816 2.756-1.558 0-2.817-1.198-2.817-2.756 0-1.498 1.259-2.758 2.817-2.758z"/>
</svg>