<svg xmlns="http://www.w3.org/2000/svg" version="1.1" width="24" height="24" viewBox="0 0 24 24">
<path d="M0.484 10.003c-0.483 0-0.484 0.238-0.484 0.533v3.329h0.786c0.165 0.003 0.24-0.057 0.243-0.207v-1.556h1.444c0.034 0 0.055-0.018 0.055-0.052v-0.39h-1.498v-0.98c0-0.173 0.086-0.255 0.258-0.255h1.272c0.037 0 0.049-0.024 0.049-0.050v-0.372zM8.481 10.003c-0.111 0-0.197 0.052-0.197 0.21v2.654c0 0.377-0.143 0.632-0.573 0.693-0.29 0.041-0.678 0.030-0.847 0.024v0.324c0 0.030 0.014 0.052 0.049 0.060 0.025 0.006 0.208 0.029 0.62 0.029 0.722 0 1.054-0.156 1.245-0.292 0.365-0.263 0.495-0.575 0.495-1.192v-2.51zM3.351 10.003c-0.148 0-0.194 0.070-0.194 0.199v2.658c0 0.538 0.26 0.866 0.814 1.033 0.463 0.14 1.21 0.137 1.701 0.003 0.37-0.1 0.787-0.373 0.787-1.037v-2.856h-0.77c-0.172 0-0.219 0.073-0.219 0.196v2.748c0 0.294-0.063 0.443-0.229 0.536-0.242 0.135-0.645 0.133-0.883-0.004-0.177-0.103-0.213-0.28-0.213-0.533v-2.943zM12.659 10.003c-0.483 0-0.483 0.239-0.483 0.533v0.995c0 0.020-0.010 0.029-0.018 0.038l-0.677 0.533h0.695v1.763h0.786c0.164 0.003 0.24-0.057 0.242-0.207v-1.556h1.444c0.034 0 0.055-0.018 0.055-0.052v-0.39h-1.499v-0.98c0-0.173 0.087-0.255 0.258-0.255h1.274c0.036 0 0.050-0.024 0.050-0.050v-0.372zM16.36 10.003h-0.768c-0.175 0-0.222 0.082-0.222 0.203v3.66h0.783c0.138 0 0.207-0.042 0.207-0.204zM18.282 10.003h-0.76c-0.173-0.003-0.229 0.066-0.229 0.213v3.108c0 0.258 0.076 0.541 0.591 0.541h1.668c0.044 0 0.065-0.027 0.065-0.066v-0.351h-1.030c-0.205-0.010-0.305-0.115-0.305-0.318zM24 10.003h-1.144c-0.195 0-0.306 0.092-0.35 0.266l-0.63 2.663h-0.018l-0.65-2.928h-0.89c-0.172 0-0.226 0.088-0.226 0.224v3.637h0.376c0.060 0 0.086-0.030 0.086-0.092v-3.049h0.059l0.804 3.141h0.527c0.199 0 0.273-0.081 0.322-0.278l0.722-2.863h0.058v3.141h0.703c0.172 0 0.251-0.067 0.251-0.237zM10.392 10.004c-0.173 0-0.22 0.084-0.22 0.205v1.87l0.93-0.73c0.036-0.028 0.056-0.050 0.058-0.11v-1.235zM10.172 12.102v1.763h0.781c0.138 0 0.208-0.040 0.208-0.203v-1.56z"/>
</svg>