<svg xmlns="http://www.w3.org/2000/svg" version="1.1" width="24" height="24" viewBox="0 0 24 24">
<path d="M24 12.46c0 5.302-4.298 9.6-9.6 9.6s-9.6-4.298-9.6-9.6v0h1.070c0 4.711 3.819 8.53 8.53 8.53s8.53-3.819 8.53-8.53c0-4.711-3.819-8.53-8.53-8.53v0-1.070c5.302 0 9.6 4.298 9.6 9.6v0zM14.4 9.26c-1.767 0-3.2 1.433-3.2 3.2s1.433 3.2 3.2 3.2c1.767 0 3.2-1.433 3.2-3.2v0c0-1.767-1.433-3.2-3.2-3.2v0zM12.4 9.26l-0.6-6.67-2.46 1.92-1.46-1.44c-0.814-0.707-1.884-1.138-3.055-1.138-0.955 0-1.843 0.287-2.582 0.778l0.017-0.011-2.020 1.3c-0.144 0.099-0.237 0.262-0.237 0.447 0 0.109 0.032 0.21 0.088 0.295l-0.001-0.002c0.099 0.144 0.262 0.237 0.447 0.237 0.109 0 0.21-0.032 0.295-0.088l-0.002 0.001 2-1.31c0.562-0.373 1.252-0.595 1.994-0.595 0.873 0 1.675 0.308 2.302 0.82l-0.007-0.005 1.37 1.38-2.29 1.82z"/>
</svg>