<svg xmlns="http://www.w3.org/2000/svg" version="1.1" width="24" height="24" viewBox="0 0 24 24">
<path d="M12 0.863c-6.66 0-12 5.388-12 12.117 0 0.996 0.038 1.374 0.246 2.33l3.662 2.71 0.57 4.515h6.102l0.326 0.227c0.377 0.262 0.705 0.375 1.082 0.375 0.352 0 0.732-0.101 1.024-0.313l0.39-0.289h6.094l0.563-4.515 3.695-2.71c0.208-0.956 0.246-1.334 0.246-2.33 0-6.728-5.339-12.117-12-12.117zM12.996 3.121c0.9 0 1.778 0.224 2.512 0.649l-2.465 12.548 3.42-12.062c1.059 0.36 1.863 0.941 2.508 1.814l0.025 0.034-4.902 10.615 5.572-9.713 0.033 0.030c0.758 0.708 1.247 1.567 1.492 2.648l-6.195 7.666 6.436-6.5 0.010 0.021c0.253 0.563 0.417 1.36 0.417 1.996 0 0.509-0.024 0.712-0.164 1.25l-3.554 2.602-0.467 3.71h-4.475l-0.517 0.395c-0.199 0.158-0.482 0.266-0.682 0.266-0.199 0-0.483-0.108-0.682-0.266l-0.517-0.394h-4.479l-0.445-3.61-3.627-2.666c-0.11-0.436-0.16-0.83-0.16-1.261 0-0.72 0.159-1.49 0.426-2.053l0.013-0.024 6.45 6.551-6.229-7.746c0.25-1.063 0.874-2.090 1.64-2.713l5.542 9.776-4.953-10.584c0.555-0.814 1.45-1.455 2.546-1.827l3.424 12.069-2.594-12.526 0.055-0.030c0.814-0.45 1.598-0.657 2.457-0.657 0.195 0 0.286 0.004 0.528 0.030l0.587 13.050 0.46-13.059c0.224-0.025 0.309-0.029 0.554-0.029z"/>
</svg>