<svg xmlns="http://www.w3.org/2000/svg" version="1.1" width="24" height="24" viewBox="0 0 24 24">
<path d="M2.32 0c-1.281 0.001-2.319 1.039-2.32 2.32v19.36c0.001 1.281 1.039 2.319 2.32 2.32h19.36c1.281 0 2.32-1.039 2.32-2.32v0-19.36c0-1.281-1.039-2.32-2.32-2.32v0zM11.528 3.98l-2.27 9.405c-0.038 0.159-0.064 0.343-0.073 0.533l-0 0.006c-0.001 0.014-0.001 0.031-0.001 0.048 0 0.14 0.034 0.272 0.094 0.389l-0.002-0.005c0.076 0.134 0.191 0.239 0.33 0.3l0.004 0.002c0.157 0.077 0.378 0.126 0.661 0.147l-0.49 2.008c-0.772 0-1.38-0.1-1.82-0.3-0.441-0.203-0.757-0.477-0.947-0.826-0.176-0.325-0.279-0.711-0.279-1.121 0-0.028 0-0.055 0.001-0.083l-0 0.004c0.005-0.452 0.068-0.933 0.188-1.445l2.074-8.67zM15.428 7.868c0.61 0 1.135 0.092 1.576 0.277 0.44 0.185 0.802 0.438 1.085 0.76 0.283 0.32 0.493 0.696 0.629 1.126s0.204 0.89 0.204 1.379v0.001c0 0.794-0.13 1.52-0.392 2.179-0.261 0.662-0.628 1.229-1.088 1.708l0.002-0.002c-0.46 0.473-1.014 0.852-1.633 1.106l-0.032 0.012c-0.648 0.267-1.353 0.4-2.114 0.4-0.37 0-0.74-0.033-1.11-0.098l-0.735 2.956h-2.417l2.71-11.298c0.435-0.13 0.934-0.248 1.494-0.351 0.529-0.099 1.137-0.155 1.759-0.155 0.022 0 0.044 0 0.065 0l-0.003-0zM15.118 9.909c-0.008-0-0.018-0-0.028-0-0.337 0-0.666 0.036-0.983 0.104l0.031-0.006-1.143 4.752c0.185 0.044 0.413 0.065 0.685 0.065 0.425 0 0.812-0.079 1.16-0.237 0.352-0.159 0.648-0.383 0.887-0.658l0.003-0.003c0.244-0.283 0.435-0.623 0.571-1.020 0.13-0.378 0.204-0.814 0.204-1.267 0-0.017-0-0.034-0-0.051l0 0.003c0-0.468-0.104-0.865-0.31-1.192-0.207-0.326-0.566-0.49-1.077-0.49z"/>
</svg>