<svg xmlns="http://www.w3.org/2000/svg" version="1.1" width="24" height="24" viewBox="0 0 24 24">
<path d="M15 12.004c0 0.893-0.165 1.746-0.461 2.535-0.787 0.297-1.643 0.461-2.535 0.461h-0.009c-0.893 0-1.745-0.165-2.534-0.461-0.297-0.789-0.461-1.643-0.461-2.535v-0.009c0-0.893 0.164-1.745 0.461-2.534 0.789-0.297 1.642-0.461 2.534-0.461h0.009c0.893 0 1.748 0.164 2.535 0.462 0.297 0.788 0.461 1.641 0.461 2.535zM23.835 10h-7.005l4.948-4.952c-0.39-0.548-0.82-1.060-1.295-1.533-0.473-0.474-0.985-0.907-1.53-1.296l-4.954 4.949v-7.003c-0.649-0.104-1.313-0.165-1.995-0.165h-0.010c-0.68 0-1.346 0.061-1.995 0.165v7.005l-4.95-4.949c-0.549 0.386-1.060 0.821-1.534 1.294s-0.908 0.987-1.296 1.533l4.949 4.952h-7.003c0 0-0.165 1.316-0.165 1.995v0.009c0 0.68 0.061 1.348 0.165 1.995h7.005l-4.949 4.952c0.777 1.096 1.733 2.051 2.827 2.83l4.952-4.95v7.004c0.648 0.105 1.313 0.165 1.991 0.165h0.017c0.679 0 1.344-0.060 1.991-0.165v-7.004l4.952 4.95c0.548-0.375 1.060-0.812 1.529-1.29h0.005c0.473-0.465 0.906-0.976 1.296-1.531l-4.95-4.949h7.004c0.105-0.645 0.165-1.304 0.165-1.98v-0.031c0-0.678-0.060-1.343-0.165-1.99z"/>
</svg>