<svg xmlns="http://www.w3.org/2000/svg" version="1.1" width="24" height="24" viewBox="0 0 24 24">
<path d="M12 17.9c1.5 0 2.7-1.2 2.7-2.7h-5.4c0 1.5 1.2 2.7 2.7 2.7zM6 12c-0.9 0-1.6 0.7-1.6 1.6h3.3c0-0.9-0.8-1.6-1.7-1.6zM12 4.1c0.6 0 1-0.5 1-1 0-0.6-0.5-1-1-1-0.6 0-1 0.5-1 1 0 0.6 0.4 1 1 1zM23.5 13.4c-0.3-1.9-0.7-3.8-1-5-0.4-1.5-1.6-2.6-3.2-2.7-1.5-0.1-4-0.2-7.4-0.2-3.3 0-5.8 0.1-7.4 0.2-1.4 0.1-2.7 1.2-3 2.7-0.3 1.3-0.7 3.2-1 5-0.2 1.3-0.3 2.8-0.5 4.5-0.1 0.9 0.2 1.9 0.9 2.6 0.6 0.7 1.5 1.1 2.4 1.2 2.1 0.1 5.3 0.2 8.7 0.2s6.6-0.1 8.7-0.2c0.9 0 1.8-0.5 2.4-1.2s0.9-1.6 0.9-2.6c-0.1-1.7-0.3-3.2-0.5-4.5zM21.9 19.3c-0.3 0.4-0.8 0.6-1.3 0.6-2.1 0.1-5.2 0.2-8.6 0.2s-6.5-0.1-8.6-0.2c-0.5 0-1-0.2-1.3-0.6s-0.5-0.8-0.5-1.3c0.1-1.6 0.2-3.1 0.4-4.3 0.3-1.8 0.7-3.7 1-4.9 0.2-0.8 0.9-1.4 1.7-1.4 1.5-0.2 4-0.3 7.3-0.3s5.8 0.1 7.3 0.2c0.8 0 1.5 0.6 1.7 1.4 0.3 1.2 0.7 3.1 1 4.9 0.2 1.2 0.3 2.7 0.4 4.3 0 0.6-0.2 1-0.5 1.4zM18 12c-0.9 0-1.6 0.7-1.6 1.6h3.3c-0.1-0.9-0.8-1.6-1.7-1.6z"/>
</svg>