<svg xmlns="http://www.w3.org/2000/svg" version="1.1" width="24" height="24" viewBox="0 0 24 24">
<path d="M6.832 6c0-0.161 0.008-0.322 0.023-0.479 0.019-0.207 0.070-0.401 0.112-0.599l-0.694-1.377h-6.273l2.182 3.818h1.527l2.097 3.98c0.355-1.084 0.949-2.007 1.724-2.742l0.003-0.003c-0.441-0.741-0.701-1.633-0.701-2.587 0-0.004 0-0.008 0-0.012v0.001zM10.365 19.663l1.635 2.974 1.637-2.975c-0.535 0.138-1.079 0.234-1.637 0.234s-1.101-0.096-1.635-0.233zM17.728 3.545l-0.717 1.258c0.056 0.238 0.112 0.476 0.134 0.726 0.014 0.144 0.022 0.311 0.022 0.479 0 0.954-0.26 1.848-0.712 2.615l0.013-0.024c0.777 0.739 1.371 1.662 1.714 2.7l0.013 0.046 2.097-3.981h1.527l2.181-3.819zM17.846 12.007c-0.319-1.344-1.055-2.483-2.062-3.301l-0.011-0.009c0.539-0.748 0.862-1.683 0.862-2.694 0-2.561-2.075-4.637-4.635-4.64h-0c-0.001 0-0.001 0-0.002 0-2.56 0-4.635 2.075-4.635 4.635 0 0.001 0 0.001 0 0.002v-0c0 0.002 0 0.004 0 0.005 0 1.010 0.324 1.945 0.874 2.705l-0.009-0.014c-1.364 1.107-2.228 2.783-2.228 4.66 0 0.002 0 0.004 0 0.006v-0c0.001 2.528 1.563 4.691 3.774 5.578l0.040 0.014c0.647 0.259 1.398 0.41 2.184 0.41 0.789 0 1.542-0.152 2.232-0.427l-0.041 0.014c2.251-0.901 3.812-3.064 3.812-5.591 0-0.48-0.056-0.947-0.163-1.395l0.008 0.041zM12 4.227c1.129 0 2.046 0.917 2.046 2.045 0 1.13-0.916 2.046-2.046 2.046s-2.046-0.916-2.046-2.046v0c0-1.128 0.918-2.045 2.046-2.045zM12 15.683c-1.245-0.046-2.237-1.067-2.237-2.319s0.992-2.272 2.232-2.318l0.004-0c1.282 0 2.318 1.037 2.318 2.318s-1.036 2.319-2.318 2.319z"/>
</svg>