<svg xmlns="http://www.w3.org/2000/svg" version="1.1" width="24" height="24" viewBox="0 0 24 24">
<path d="M16.509 16.845c0.147-0.507 0.091-0.971-0.155-1.315-0.225-0.316-0.605-0.499-1.062-0.52l-8.659-0.112c-0.001 0-0.002 0-0.002 0-0.055 0-0.103-0.028-0.131-0.071l-0-0.001c-0.028-0.042-0.035-0.099-0.021-0.155 0.028-0.084 0.112-0.148 0.204-0.156l8.736-0.112c1.035-0.049 2.16-0.887 2.554-1.914l0.499-1.301c0.021-0.056 0.029-0.113 0.015-0.168-0.563-2.546-2.835-4.445-5.55-4.445-2.504 0-4.628 1.618-5.388 3.861-0.493-0.366-1.119-0.563-1.794-0.499-1.203 0.119-2.166 1.083-2.286 2.286-0.028 0.31-0.007 0.613 0.063 0.894-1.963 0.056-3.531 1.66-3.531 3.637 0 0.175 0.014 0.351 0.035 0.527 0.014 0.083 0.084 0.147 0.169 0.147h15.981c0.091 0 0.176-0.064 0.203-0.155zM19.266 11.281c-0.077 0-0.161 0-0.238 0.011-0.057 0-0.105 0.042-0.127 0.098l-0.338 1.174c-0.147 0.507-0.092 0.971 0.154 1.316 0.226 0.316 0.606 0.498 1.062 0.519l1.844 0.113c0.056 0 0.105 0.026 0.133 0.070s0.035 0.107 0.021 0.156c-0.028 0.084-0.113 0.148-0.204 0.155l-1.921 0.112c-1.041 0.049-2.158 0.887-2.553 1.914l-0.141 0.358c-0.028 0.071 0.021 0.142 0.099 0.142h6.598c0.077 0 0.147-0.049 0.169-0.126 0.112-0.408 0.176-0.837 0.176-1.28 0-2.602-2.125-4.727-4.734-4.727z"/>
</svg>