<svg xmlns="http://www.w3.org/2000/svg" version="1.1" width="24" height="24" viewBox="0 0 24 24">
<path d="M20.83 2.976l-0.085 0.095c-0.404 0.447-0.794 0.931-1.157 1.438l-0.033 0.049c-0.152 0.207-0.3 0.442-0.431 0.688l-0.015 0.031c-0.097 0.171-0.182 0.369-0.244 0.577l-0.005 0.020c-0.021 0.053-0.033 0.113-0.033 0.177v0.004c-0.123 0.038-0.21 0.151-0.21 0.284 0 0.002 0 0.004 0 0.006v-0c-0 0.002-0 0.004-0 0.006 0 0.125 0.076 0.232 0.185 0.277l0.002 0.001c0.038 0.371 0.080 1.142 0.070 2.2l-0.004 0.142c-0.031 0.842-0.188 1.638-0.451 2.383l0.017-0.056c-0.016-0.010-0.030-0.014-0.040-0.013-0.030 0.003-0.111 0.12-0.19 0.251-0.058 0.090-0.119 0.195-0.154 0.291-0.018 0.041-0.029 0.089-0.030 0.14v0c-0 0.005-0.001 0.011-0.001 0.016 0 0.026 0.004 0.050 0.011 0.073l-0-0.002c0.010 0.037 0.022 0.058 0.022 0.058-0.018 0.046-0.019 0.049-0.020 0.051l0.017-0.044c-0.014 0.019-0.024 0.041-0.028 0.066l-0 0.001-0.012 0.029c-0.096 0.22-0.183 0.393-0.276 0.562l0.018-0.035-0.077 0.142c-0.040 0.068-0.063 0.106-0.087 0.143l0.017-0.028c-0.006-0.005-0.014-0.010-0.021-0.014l-0.001-0c-0.008-0.001-0.017-0.002-0.026-0.002-0.033 0-0.063 0.010-0.088 0.026l0.001-0c-0.047 0.035-0.151 0.194-0.498 0.368-0.118 0.059-0.226 0.093-0.32 0.114 0.124-0.602 0.213-1.313 0.247-2.039l0.001-0.031c0.003-0.067 0.005-0.145 0.005-0.224 0-0.294-0.025-0.583-0.073-0.863l0.004 0.030c0.003-0.010 0.003-0.017 0.003-0.017l-0.005 0.010c-0.031-0.183-0.068-0.338-0.112-0.489l0.008 0.031c-0.145-0.535-0.395-0.999-0.728-1.39l0.004 0.005c-0.631-0.754-1.496-1.14-2.256-1.165l-0.125-0.002c0-0.008 0-0.015 0.002-0.022 0.021-0.098 0.024-0.127-0.087-0.032-0.020 0.018-0.039 0.035-0.057 0.054l-0 0c-0.053 0.001-0.101 0.004-0.146 0.007-0.002-0.022-0.004-0.048-0.004-0.074 0-0.012 0-0.024 0.001-0.036l-0 0.002c0.004-0.076 0.024-0.127-0.087-0.032-0.058 0.046-0.105 0.101-0.141 0.164l-0.001 0.003c-0.050 0.008-0.080 0.015-0.080 0.015l0.045-0.002-0.047 0.008c-0.016-0.042-0.053-0.105-0.048-0.16 0.010-0.118 0.043-0.14-0.037-0.065-0.098 0.090-0.202 0.226-0.22 0.299l-0.096 0.030c-0.018-0.018-0.074-0.070-0.086-0.178-0.013-0.11-0.012-0.166-0.080-0.051-0.059 0.101-0.104 0.218-0.129 0.342l-0.001 0.007c-0.032 0.015-0.063 0.030-0.093 0.046-0.036-0.045-0.057-0.103-0.057-0.166 0-0.002 0-0.005 0-0.007v0c-0.005-0.144 0.040-0.261-0.067-0.068-0.062 0.117-0.112 0.253-0.144 0.395l-0.002 0.011c-0.036 0.025-0.071 0.051-0.105 0.079-0.004-0.049-0.007-0.108-0.008-0.168l-0-0.002c-0.002-0.142 0.021-0.295-0.067-0.025-0.026 0.079-0.053 0.192-0.070 0.321-0.404 0.385-0.65 0.917-0.644 1.572v0.007c-0.001 0.117 0.005 0.228 0.014 0.33 0.020 0.238 0.057 0.438 0.107 0.605-0.095 0.13-0.103 0.689-0.010 0.818 0.073 0.104 0.496 0.35 0.586 0.399 0.037 0.025 0.068 0.056 0.093 0.092l0.001 0.001c0.115 0.188 0.115 0.567 0.027 0.762-0.107 0.238 0.107 0.285 0.285 0.32 0.178 0.036 0.415-0.023 0.463-0.118 0.047-0.095-0.154-0.309-0.237-0.748-0.084-0.439 0.13-0.474 0.13-0.474s0.095 0.024 0.237 0.249c0.11 0.175 0.227 0.313 0.336 0.413-0.056 0.069-0.122 0.126-0.198 0.17l-0.003 0.002c0.12 0.005 0.24-0.051 0.304-0.087 0.020 0.014 0.043 0.029 0.067 0.043l0.004 0.002c-0.016 0.017-0.033 0.034-0.049 0.049l-0.001 0.001c0.040-0.004 0.077-0.012 0.112-0.023l-0.004 0.001c0.024 0.011 0.053 0.019 0.083 0.022l0.001 0c0.155 0.012 0.57-0.368 0.57-0.439 0-0.018-0.015-0.040-0.038-0.063-0.042-0.045-0.12-0.1-0.207-0.177-0.040-0.036-0.076-0.074-0.109-0.114l-0.001-0.002c-0.078-0.104-0.129-0.232-0.141-0.371l-0-0.003v-0.010l-0.003-0.031c0 0 0.007-0.007 0.016-0.020v0.004l0.004-0.010c0.052-0.080 0.15-0.379-0.47-1.078-0.256-0.288-0.563-0.525-0.907-0.698l-0.017-0.008c-0.042-0.472 0.15-0.913 0.626-1.13l-0.005 0.005 0.008-0.006c0.227-0.102 0.517-0.155 0.877-0.136 0.69 0.036 1.22 0.359 1.59 0.845 0.514 0.712 0.738 1.78 0.575 2.856-0.068 0.065-0.055 0.075-0.013 0.077-0.020 0.121-0.040 0.213-0.061 0.304l0.006-0.031-0.027 0.015c-0.123 0.074-0.071 0.073 0 0.092l-0.006 0.020c-0.020 0.065-0.043 0.13-0.066 0.193-0.036 0.011-0.065 0.021-0.093 0.032l0.006-0.002c-0.135 0.053-0.080 0.060-0.012 0.091l0.044 0.022c-0.032 0.080-0.066 0.16-0.101 0.237-0.032 0.005-0.059 0.011-0.085 0.018l0.005-0.001c-0.142 0.036-0.088 0.050-0.024 0.090 0.016 0.010 0.029 0.018 0.041 0.028l-0.001-0.001c-0.052 0.111-0.088 0.181-0.125 0.251l0.018-0.037c-0.056 0.003-0.108 0.012-0.158 0.026l0.005-0.001c-0.14 0.036-0.087 0.050-0.023 0.090 0.034 0.020 0.060 0.041 0.081 0.059-0.052 0.094-0.083 0.148-0.115 0.201l0.020-0.036-0.023 0.036c-0.011-0.001-0.023-0.001-0.036-0.001-0.061 0-0.119 0.009-0.174 0.026l0.004-0.001c-0.142 0.036-0.088 0.050-0.024 0.090 0.039 0.024 0.073 0.050 0.104 0.079l-0-0c-0.060 0.088-0.101 0.147-0.143 0.205l0.017-0.025c-0.038-0.010-0.081-0.016-0.126-0.016-0.037 0-0.073 0.004-0.107 0.011l0.003-0.001c-0.144 0.020-0.092 0.040-0.033 0.086 0.068 0.053 0.101 0.099 0.118 0.118l-0.062 0.084c-0.044-0.058-0.149-0.124-0.246-0.193-0.083-0.058-0.18-0.103-0.284-0.129l-0.006-0.001c-0.048 0-0.199 0.268-1.017 0.197-0.819-0.071-0.87-0.15-0.942-0.15-0.070 0-0.223 0.057-0.228 0.059l-0.034-0.020c-0.375-0.232-0.692-0.455-0.996-0.692l0.024 0.018c-0.464-0.37-0.72-0.647-0.72-0.647s0.137-0.125-0.047-0.284c-0.102-0.096-0.212-0.187-0.328-0.27l-0.010-0.007c-0.071-0.056-0.15-0.111-0.232-0.161l-0.010-0.005c-0.023-0.031-0.052-0.072-0.080-0.114l-0.008-0.013c-0.098-0.153-0.219-0.359-0.333-0.568l-0.030-0.060c-0.061-0.112-0.144-0.285-0.223-0.461l-0.027-0.066c-0.16-0.36-0.27-0.682-0.346-0.964-0.069-0.266-0.122-0.581-0.147-0.904l-0.001-0.019c-0.001-0.025-0.002-0.054-0.002-0.084 0-0.056 0.002-0.111 0.006-0.166l-0 0.007c0.096-0.076 0.158-0.192 0.158-0.323v-0c-0-0.208-0.155-0.38-0.356-0.407l-0.002-0c-0.204-0.427-0.982-1.477-3.882-3.68l-0.127-0.098 0.005 0.004-0.036-0.027c2.954 2.53 3.53 3.519 3.682 3.932-0.009 0.010-0.018 0.021-0.026 0.032l-0.001 0.001c0.047 0.033 0.041 0.028 0.036 0.024l-0.054-0.037c0.018 0 0.025-0.005 0.025-0.005s-0.672-0.546-1.787-1.23c-1.119-0.687-1.749-0.849-1.88-0.877l-0.027-0.006c0 0 0.206 0.19 0.174 0.285-0.010 0.032-0.168 0.022-0.421 0.028-0.257 0.001-0.508 0.026-0.75 0.074l0.025-0.004c-0.593 0.107-1.121 0.328-1.581 0.639l0.014-0.009c-1.305 0.869-1.543 1.486-1.543 1.486s0.55-0.768 1.58-1.305c-0.014 0.337-0.047 1.969 0.445 4.12 0.531 2.32 1.531 4.487 1.614 4.665 0.004 0.178 0.016 0.272 0.016 0.272s0.148-1.79 0.756-3.647c0.175 0.283 0.758 1.117 2.076 2.096 1.628 1.21 2.37 1.536 2.4 1.548 0.001 0.157 0.005 0.24 0.005 0.24s0.005-0.1 0.018-0.263c0.044-0.065 0.298-0.43 0.552-0.67 0.161-0.158 0.338-0.301 0.527-0.427l0.013-0.008c0.032 0.11 0.063 0.204 0.093 0.276-0.020-0.097-0.036-0.19-0.052-0.282 0.107 0.010 0.538 0.066 1.206 0.393 0.343 0.168 0.609 0.395 0.798 0.595-0.006 0.002-0.010 0.004-0.015 0.006l0.001-0c0 0 0.123 0.112 0.269 0.403-0.027-0.001-0.060-0.002-0.092-0.002-0.227 0-0.447 0.031-0.655 0.090l0.017-0.004c-0.038-0.081-0.071-0.143-0.106-0.203l0.007 0.014c-0.007-0.050-0.021-0.096-0.040-0.138l0.001 0.003c-0.027-0.061-0.095-0.1-0.164-0.14-0.030-0.029-0.064-0.053-0.102-0.072l-0.002-0.001c-0.023-0.020-0.041-0.044-0.054-0.072l-0.001-0.001c-0.084-0.184-0.798 0.012-0.942 0.18-0.175 0.204-0.209 0.464-0.14 0.608 0.021 0.045 0.070 0.082 0.138 0.11 0.002 0.221 0.137 0.75 0.404 1.134-0.046-0.188-0.084-0.415-0.106-0.647l-0.002-0.020c-0.009-0.16 0-0.274 0.015-0.35 0.047 0.328 0.174 0.684 0.577 1.125-0.248-0.54-0.22-0.862-0.195-1.144l0.009-0.044 0.006-0.001c0.036 0.263 0.142 0.534 0.482 0.964-0.004-0.007-0.009-0.016-0.013-0.025l-0.001-0.003 0.014 0.021c-0.119-0.221-0.189-0.483-0.189-0.761 0-0.095 0.008-0.188 0.024-0.278l-0.001 0.010 0.008-0.003c0.046 0.030 0.091 0.070 0.134 0.126 0.128 0.172 0.188 0.349 0.212 0.47-0.007 0.032-0.011 0.070-0.011 0.108 0 0.102 0.029 0.198 0.079 0.279l-0.001-0.002c-0.245 0.179-0.485 0.346-0.72 0.501-0.23 0.149-0.49 0.313-0.757 0.47-0.14 0.080-0.279 0.158-0.414 0.23l-0.135-0.077h0.002l-0.008-0.004c-0.97-0.559-1.69-0.932-2.518-1.082-0.931-0.167-1.787 0.283-1.983 1.082-0.023 0.090-0.036 0.194-0.036 0.301 0 0.45 0.232 0.847 0.583 1.076l0.005 0.003 0.012 0.008c0.013 0.010 0.026 0.017 0.040 0.026l0.060 0.036h0.002c0.192 0.11 0.424 0.191 0.691 0.237l0.028 0.005h0.006c0.118 0.021 0.26 0.037 0.404 0.044l0.008 0c0.975 0.047 2.156-0.408 3.323-0.982 0.1 0.054 0.202 0.108 0.306 0.166 2.547 1.403 4.098 1.585 6.154 0.728-0.502 0.151-1.208 0.356-2.094 0.344-0.006-0.003-0.013-0.005-0.020-0.006l-0-0 0.001 0.006c-0.233-0.004-0.457-0.022-0.677-0.053l0.029 0.003v-0.001l-0.030-0.003v-0.003c0-0.001 0-0-0 0l-0.001 0.002c-0.581-0.086-1.105-0.238-1.596-0.452l0.040 0.016c-0.302-0.128-0.547-0.249-0.784-0.382l0.039 0.020c-0.618-0.334-0.947-0.523-1.274-0.715l0.268 0.146c0.348-0.178 0.692-0.363 1.026-0.545 0.355-0.189 0.672-0.362 0.918-0.5l0.009-0.004 0.007-0.001c0 0 0.083-0.018 0.16-0.042 0.17-0.052 0.41-0.149 0.695-0.283 0.028 0.117 0.095 0.215 0.195 0.253 0.235 0.091 0.407 0.027 0.522-0.102l0.018-0.010 0.047-0.037c0.050-0.030 0.107-0.067 0.156-0.090 0.010-0.005 0.028-0.012 0.045-0.019l0.008-0.003c0.040-0.010 0.078-0.023 0.116-0.037l0.033-0.010c-0.145 0.297-0.091 0.581-0.091 0.581 0.043-0.371 0.22-0.608 0.392-0.715 0.064-0.027 0.13-0.050 0.2-0.067 0.064 0 0.116 0.023 0.144 0.070 0.070 0.12 0.217 0.194 0.364 0.226 0.024 0.15-0.045 0.404-0.4 0.866l0.090-0.062 0.004-0.003 0.072-0.053c0.143-0.108 0.252-0.21 0.334-0.305 0.080-0.086 0.144-0.187 0.189-0.298l0.002-0.007c0.012 0.2-0.043 0.507-0.311 1.036 0 0 0.317-0.276 0.514-0.63 0.006 0.191-0.010 0.443-0.063 0.785 0.345-0.673 0.325-1.085 0.239-1.326l-0.010-0.036c-0.002-0.024-0.005-0.046-0.011-0.068l0.001 0.003 0.042-0.057c0.118-0.166-0.048-0.344-0.154-0.415-0.060-0.040-0.2-0.154-0.454-0.157-0.225-0.27-0.51-0.15-0.958 0.145-0.047 0.032-0.101 0.063-0.158 0.090l-0.008 0.003c-0.017-0.045-0.035-0.084-0.057-0.12l0.002 0.003c0.16-0.096 0.326-0.199 0.494-0.308 0.317-0.207 0.553-0.416 0.728-0.615 0.51-0.517 0.69-1.020 1.21-1.446l-0.013 0.001 0.060-0.032c0.854-0.458 1.307-0.547 1.339-0.553l-0.003 0.128 0.018-0.125c0.185 0.092 0.344 0.207 0.481 0.344l0 0c0.14 0.141 0.26 0.301 0.356 0.476l0.006 0.011 0.044 0.301c0 0 0-0.117-0.010-0.33 0.153-0.152 1.020-1.044 1.724-2.467 0.694-1.404 0.944-2.523 1.017-2.924 0.245 0.674 0.475 1.501 0.645 2.35l0.020 0.116c0 0-0.002-0.133-0.031-0.374 0.097-0.336 0.516-1.872 0.627-3.756 0.1-1.681-0.065-2.78-0.14-3.174 0.648 0.537 0.995 1.307 0.995 1.307s-0.040-0.163-0.188-0.437l0.020 0.027c0 0-0.236-0.455-0.644-0.905-0.056-0.064-0.108-0.12-0.16-0.175l0.003 0.003c-0.432-0.459-0.854-0.617-1.17-0.672-0.1-0.020-0.203-0.030-0.308-0.030h-0.019c-0.125-0.003-0.201 0.002-0.207-0.026-0.020-0.095 0.11-0.285 0.11-0.285s-0.177 0.046-0.554 0.33c-0.23 0.167-0.52 0.41-0.853 0.76-0.304 0.308-0.595 0.633-0.87 0.97l-0.095 0.12c-0.007-0.006-0.014-0.011-0.022-0.017l-0.001-0c0.076-0.331 0.362-1.118 1.787-3.107zM11.92 14.090c0.006 0.003 0.010 0.005 0.014 0.007l-0.002-0.001zM11.657 16.696c0.088 0.044 0.19 0.106 0.303 0.194h-0.005c-0.059 0.015-0.111 0.039-0.157 0.071l0.002-0.001c-0.049-0.065-0.092-0.138-0.124-0.218l-0.002-0.006zM6.802 18.266c0.132 0 0.276 0.014 0.432 0.048l0.020 0.005 0.017 0.004c0.11 0.027 0.223 0.062 0.337 0.102l0.057 0.021c0.191 0.074 0.395 0.156 0.611 0.248 0.32 0.139 0.619 0.277 0.838 0.375l0.183 0.088c-0.221 0.106-0.424 0.196-0.577 0.261-1.014 0.416-1.83 0.536-2.338 0.391-0.945-0.269-0.76-1.536 0.42-1.543z"/>
</svg>