<svg xmlns="http://www.w3.org/2000/svg" version="1.1" width="24" height="24" viewBox="0 0 24 24">
<path d="M13.639 11.928h-0.954c0.060-0.258 0.216-0.492 0.534-0.492 0.246 0 0.42 0.228 0.42 0.492zM24.001 12c0 6.627-5.373 12-12 12s-12-5.373-12-12 5.373-12 12-12 12 5.373 12 12zM6.217 9.78c0 0.298 0.242 0.54 0.54 0.54s0.54-0.242 0.54-0.54-0.242-0.54-0.54-0.54-0.54 0.242-0.54 0.54zM7.735 13.2h-0.42v-2.526h-2.466v-0.162c0-0.318 0.318-0.324 0.48-0.324 0.186 0 0.27 0.018 0.27 0.018v-0.876c0 0-0.168-0.024-0.396-0.024-0.516 0-1.47 0.144-1.47 1.236v0.138h-0.45v0.81h0.45v1.71h-0.42v0.81h2.028v-0.81h-0.492v-1.71h1.35v1.71h-0.42v0.81h1.956zM11.149 11.484h0.372v-0.81h-1.77v0.81h0.3l-0.384 1.2c-0.072 0.198-0.090 0.438-0.090 0.438h-0.024c0 0-0.018-0.24-0.090-0.438l-0.384-1.2h0.3v-0.81h-1.77v0.81h0.372l0.924 2.52h1.32zM14.797 12.204c0-0.924-0.558-1.608-1.548-1.608-1.074 0-1.734 0.762-1.734 1.74 0 0.888 0.642 1.746 1.83 1.746 0.9 0 1.434-0.468 1.434-0.468l-0.408-0.774c0 0-0.444 0.318-0.936 0.318-0.354 0-0.69-0.186-0.774-0.612h2.112c-0.006-0.006 0.024-0.234 0.024-0.342zM17.773 10.632c0 0-0.066-0.012-0.132-0.012-0.51-0.006-0.93 0.366-1.068 0.822v0h-0.012c0 0 0.012-0.066 0.012-0.168v-0.174c0-0.306-0.168-0.426-0.474-0.426h-1.050v0.81h0.312c0.090 0 0.144 0.054 0.144 0.144v1.572h-0.45v0.81h2.022v-0.81h-0.45v-0.486c0-0.606 0.3-1.002 0.918-1.002 0.138 0 0.228 0.018 0.228 0.018zM20.731 11.73v-1.098c0 0-0.066-0.012-0.132-0.012-0.504-0.006-0.924 0.366-1.068 0.822v0h-0.012c0 0 0.012-0.066 0.012-0.168v-0.174c0-0.306-0.168-0.426-0.474-0.426h-1.050v0.81h0.312c0.090 0 0.144 0.054 0.144 0.144v1.572h-0.45v0.81h2.022v-0.81h-0.45v-0.486c0-0.606 0.3-1.002 0.918-1.002 0.138 0 0.228 0.018 0.228 0.018z"/>
</svg>