<svg xmlns="http://www.w3.org/2000/svg" version="1.1" width="24" height="24" viewBox="0 0 24 24">
<path d="M12.043 23.968c0.479-0.004 0.953-0.029 1.426-0.094 1.080-0.138 2.143-0.433 3.146-0.863 1.409-0.602 2.698-1.471 3.793-2.543 1.003-0.989 1.842-2.151 2.44-3.427 0.509-1.097 0.869-2.274 1.020-3.476 0.149-1.16 0.135-2.346-0.045-3.499-0.149-0.96-0.419-1.896-0.793-2.788-0.24-0.561-0.525-1.101-0.854-1.617-1.168-1.837-2.861-3.314-4.81-4.301-0.693-0.355-1.423-0.645-2.172-0.869h-0.005c0.119 0.063 0.24 0.132 0.345 0.201 0.12 0.074 0.239 0.146 0.351 0.225 0.569 0.385 1.094 0.827 1.559 1.33 1.063 1.145 1.797 2.548 2.218 4.041 0.284 0.982 0.434 1.998 0.495 3.017 0.044 0.743 0.044 1.491-0.047 2.229-0.149 1.27-0.554 2.51-1.228 3.596-0.495 0.803-1.14 1.519-1.903 2.084-1.244 0.928-2.877 1.482-4.436 1.114-0.254-0.061-0.51-0.146-0.748-0.258-0.271-0.124-0.54-0.277-0.779-0.449-0.465-0.311-0.885-0.685-1.244-1.106-0.435-0.52-0.794-1.111-1.049-1.747-0.314-0.806-0.479-1.672-0.494-2.54-0.030-1.273 0.225-2.553 0.854-3.67 0.42-0.744 0.989-1.396 1.663-1.918 0.225-0.178 0.464-0.333 0.704-0.479l0.016-0.007c-0.466-0.105-0.96-0.151-1.441-0.12-0.418 0.029-0.823 0.105-1.228 0.239-0.359 0.12-0.704 0.271-1.019 0.45-0.255 0.149-0.508 0.315-0.733 0.495-0.211 0.18-0.42 0.359-0.615 0.555-1.123 1.153-1.768 2.682-2.022 4.256-0.15 0.973-0.15 1.961-0.091 2.951 0.105 1.394 0.391 2.786 0.945 4.061 0.344 0.794 0.793 1.527 1.348 2.173 0.854 0.987 1.934 1.753 3.132 2.231 0.675 0.271 1.394 0.465 2.113 0.54 0.074 0.015 0.149 0.015 0.209 0.015zM9.109 23.57c-0.164-0.070-0.314-0.149-0.45-0.228-0.149-0.083-0.3-0.168-0.449-0.259-0.585-0.362-1.108-0.787-1.589-1.275-1.094-1.138-1.827-2.567-2.247-4.081-0.284-1.034-0.435-2.102-0.495-3.172-0.044-0.703-0.029-1.393 0.046-2.082 0.135-1.257 0.495-2.501 1.124-3.58 0.449-0.794 1.063-1.498 1.783-2.053 0.494-0.374 1.049-0.69 1.633-0.9 0.824-0.299 1.708-0.389 2.563-0.27 0.33 0.045 0.658 0.121 0.959 0.225 0.029 0 0.029 0 0.045 0.030 0.015 0.015 0.045 0.015 0.060 0.030 0.045 0.016 0.104 0.045 0.165 0.074 0.239 0.12 0.479 0.271 0.704 0.42 0.899 0.629 1.633 1.498 2.097 2.502 0.42 0.914 0.615 1.934 0.631 2.938 0.014 1.079-0.18 2.157-0.645 3.146-0.555 1.184-1.498 2.188-2.638 2.832 0.090 0.030 0.18 0.045 0.271 0.075 0.225 0.044 0.449 0.074 0.688 0.074 1.468 0.045 2.892-0.659 3.94-1.647 0.195-0.18 0.375-0.375 0.54-0.585 0.225-0.27 0.435-0.539 0.614-0.823 0.239-0.375 0.435-0.75 0.614-1.154 0.226-0.539 0.404-1.094 0.509-1.664 0.196-1.004 0.211-2.022 0.149-3.026-0.135-2.022-0.673-4.045-1.842-5.724-0.18-0.254-0.359-0.494-0.555-0.719-0.329-0.375-0.689-0.719-1.063-1.034-0.42-0.345-0.885-0.659-1.363-0.915-0.493-0.223-1.078-0.447-1.692-0.598l-0.3-0.060c-0.209-0.030-0.42-0.044-0.634-0.060-0.325-0.015-0.669-0.010-1.015 0.016-0.704 0.045-1.412 0.16-2.112 0.337-3.356 0.866-6.292 3.205-7.855 6.308-0.501 0.989-0.855 2.046-1.062 3.132-0.239 1.243-0.27 2.523-0.104 3.775 0.12 1.020 0.374 2.023 0.778 2.977 0.227 0.57 0.511 1.124 0.825 1.648 1.094 1.783 2.683 3.236 4.51 4.24 0.688 0.391 1.408 0.69 2.157 0.945 0.226 0.074 0.45 0.149 0.689 0.209z"/>
</svg>