<svg xmlns="http://www.w3.org/2000/svg" version="1.1" width="24" height="24" viewBox="0 0 24 24">
<path d="M11.398 0.002c-1.925 0.026-6.067 0.342-8.384 2.465-1.72 1.71-2.321 4.231-2.391 7.353-0.060 3.11-0.13 8.95 5.5 10.541v2.42c0 0-0.038 0.97 0.602 1.17 0.79 0.25 1.24-0.499 1.99-1.299l1.4-1.58c3.85 0.32 6.8-0.419 7.14-0.529 0.78-0.25 5.181-0.811 5.901-6.652 0.74-6.031-0.36-9.831-2.34-11.551l-0.010-0.002c-0.6-0.55-3-2.3-8.37-2.32 0 0-0.396-0.025-1.038-0.016zM11.465 1.699c0.545-0.003 0.88 0.020 0.88 0.020 4.54 0.010 6.711 1.38 7.221 1.84 1.67 1.429 2.528 4.856 1.9 9.892-0.6 4.88-4.17 5.19-4.83 5.4-0.28 0.090-2.88 0.73-6.152 0.52 0 0-2.439 2.941-3.199 3.701-0.12 0.13-0.26 0.17-0.35 0.15-0.13-0.030-0.17-0.19-0.16-0.41l0.020-4.019c-4.771-1.32-4.491-6.302-4.441-8.902 0.060-2.6 0.55-4.732 2-6.172 1.957-1.77 5.475-2.010 7.111-2.020zM11.825 4.299c-0 0-0.001 0-0.001 0-0.165 0-0.299 0.134-0.299 0.299 0 0 0 0 0 0v0c0 0.166 0.134 0.3 0.3 0.3v0c0.032-0.001 0.070-0.001 0.107-0.001 1.526 0 2.91 0.607 3.924 1.592l-0.001-0.001c1.090 1.060 1.621 2.48 1.641 4.34 0 0.166 0.134 0.3 0.3 0.3v0-0.009c0.166 0 0.3-0.134 0.3-0.3v0c0.004-0.082 0.006-0.177 0.006-0.273 0-1.744-0.692-3.327-1.817-4.488l0.002 0.002c-1.19-1.16-2.692-1.76-4.461-1.76zM7.871 4.989c-0.040-0.006-0.087-0.010-0.135-0.010-0.177 0-0.343 0.048-0.485 0.132l0.004-0.002h-0.012c-0.41 0.24-0.788 0.54-1.148 0.94-0.27 0.32-0.421 0.639-0.461 0.949-0.007 0.048-0.010 0.103-0.010 0.159 0 0.136 0.022 0.268 0.063 0.391l-0.003-0.009 0.020 0.010c0.343 0.998 0.749 1.857 1.234 2.662l-0.034-0.062c0.672 1.206 1.441 2.247 2.326 3.177l-0.006-0.006 0.030 0.040 0.040 0.030 0.060 0.060c0.927 0.881 1.971 1.654 3.102 2.29l0.078 0.040c1.32 0.72 2.122 1.060 2.602 1.2v0.010c0.14 0.040 0.268 0.060 0.398 0.060 0.427-0.032 0.809-0.206 1.104-0.473l-0.002 0.001c0.39-0.35 0.7-0.738 0.93-1.148v-0.010c0.23-0.43 0.15-0.841-0.18-1.121-0.633-0.556-1.337-1.066-2.086-1.505l-0.064-0.035c-0.51-0.28-1.030-0.11-1.24 0.17l-0.45 0.569c-0.23 0.28-0.65 0.24-0.65 0.24l-0.012 0.010c-3.12-0.8-3.95-3.959-3.95-3.959s-0.040-0.43 0.25-0.65l0.56-0.45c0.27-0.22 0.46-0.74 0.17-1.25-0.474-0.813-0.983-1.517-1.553-2.165l0.013 0.015c-0.124-0.153-0.299-0.261-0.499-0.299l-0.005-0.001zM12.344 5.879c-0.165 0.001-0.299 0.135-0.299 0.3s0.134 0.3 0.3 0.3c0 0 0.001 0 0.001 0h-0c1.041 0.019 1.977 0.455 2.649 1.149l0.001 0.001c0.562 0.619 0.907 1.444 0.907 2.351 0 0.077-0.003 0.154-0.007 0.23l0.001-0.010c0.001 0.165 0.135 0.299 0.3 0.299 0 0 0 0 0 0v0l0.010 0.012c0 0 0 0 0 0 0.166 0 0.3-0.134 0.3-0.3 0-0 0-0.001 0-0.001v0c0.030-1.19-0.34-2.19-1.070-2.99s-1.75-1.25-3.050-1.34c-0.006-0-0.014-0.001-0.021-0.001s-0.015 0-0.022 0.001l0.001-0zM12.834 7.498c-0.003-0-0.006-0-0.009-0-0.169 0-0.306 0.137-0.306 0.306 0 0.166 0.132 0.3 0.296 0.305h0c0.99 0.050 1.47 0.55 1.53 1.58 0.006 0.161 0.138 0.29 0.3 0.29 0 0 0 0 0 0h0.010c0.162-0.005 0.291-0.137 0.291-0.3 0-0.007-0-0.014-0.001-0.021l0 0.001c-0.070-1.34-0.8-2.091-2.1-2.161-0.002-0-0.004-0-0.006-0s-0.004 0-0.006 0h0z"/>
</svg>