<svg xmlns="http://www.w3.org/2000/svg" version="1.1" width="24" height="24" viewBox="0 0 24 24">
<path d="M0 0.3v23.4h24v-23.4zM1 1.3h22v21.4h-22zM6.648 16.625c-0.116 0-0.148-0.050-0.148-0.148v-10.744c0-0.083 0.033-0.132 0.116-0.132h1.584c0.084 0 0.1 0.037 0.1 0.12v9.26h4.125c0.083 0 0.106 0.033 0.090 0.116l-0.248 1.42c-0.016 0.082-0.066 0.115-0.148 0.115zM14.050 10.149c0-0.12 0-0.416-0.050-0.977 0-0.083 0.018-0.1 0.084-0.132 0.61-0.246 2.058-0.692 3.675-0.692 0.080 0 0.112 0.017 0.112 0.1v1.452c0 0.084-0.033 0.1-0.116 0.1-0.628-0.033-1.564 0.050-1.91 0.198v6.31c0 0.082-0.033 0.115-0.116 0.115h-1.57c-0.080 0-0.114-0.033-0.114-0.116z"/>
</svg>