<svg xmlns="http://www.w3.org/2000/svg" version="1.1" width="24" height="24" viewBox="0 0 24 24">
<path d="M3.42 0c-0.204 0.001-0.369 0.166-0.369 0.37 0 0 0 0 0 0v0 19.516c0.577-1.488 1.557-3.617 3.138-6.53 5.7-10.48 6.447-11.537 9.416-11.537 1.56 0 3.134 0.704 4.152 1.955-1.407-2.248-3.853-3.731-6.649-3.774l-0.006-0zM16.14 2.544c-1.19 0.010-2.257 0.466-2.698 1.498-0.967 2.256 1.624 4.767 2.757 4.568 1.442-0.255-0.255-3.563-0.255-3.563 2.205 4.156 1.697 2.884-2.29 6.7s-8.058 11.873-8.652 12.211c-0.023 0.016-0.049 0.030-0.077 0.042l-0.003 0.001h15.637c0.204-0.003 0.368-0.169 0.368-0.373 0-0.060-0.014-0.117-0.039-0.167l0.001 0.002-4.088-8.092c-0.025-0.049-0.040-0.107-0.040-0.168 0-0.136 0.073-0.255 0.183-0.319l0.002-0.001c2.41-1.399 4.005-3.967 4.005-6.908 0-0.002 0-0.004 0-0.005v0c0-1.425-0.373-2.761-1.030-3.92-0.927-0.952-2.43-1.516-3.78-1.506z"/>
</svg>