<svg xmlns="http://www.w3.org/2000/svg" version="1.1" width="24" height="24" viewBox="0 0 24 24">
<path d="M8.963 12c0-1.584 1.284-2.855 2.855-2.855 1.572 0 2.856 1.284 2.856 2.855 0 1.572-1.284 2.856-2.856 2.856-1.57 0-2.855-1.284-2.855-2.856zM11.818 0c-5.603 0-10.296 3.84-11.628 9.025-0.010 0.036-0.010 0.070-0.010 0.12 0 0.313 0.252 0.576 0.575 0.576h4.835c0.23 0 0.433-0.13 0.517-0.333 0.997-2.16 3.18-3.672 5.712-3.672 3.466 0 6.286 2.82 6.286 6.287 0 3.47-2.82 6.29-6.29 6.29-2.53 0-4.714-1.5-5.71-3.673-0.097-0.19-0.29-0.336-0.517-0.336h-4.833c-0.312 0-0.575 0.253-0.575 0.576 0 0.037 0.014 0.072 0.014 0.12 1.32 5.18 6.020 9.020 11.624 9.020 6.624 0 12-5.375 12-12 0-6.623-5.376-12-12-12z"/>
</svg>