<svg xmlns="http://www.w3.org/2000/svg" version="1.1" width="24" height="24" viewBox="0 0 24 24">
<path d="M7.883 11.615c0-1.92-1.474-3.904-3.974-3.904-1.922-0.001-3.909 1.472-3.909 3.968 0 1.92 1.474 3.905 3.973 3.905 0.801 0 1.602-0.256 2.275-0.736l1.154 1.152 0.513-0.512-1.090-1.088c0.673-0.736 1.058-1.696 1.058-2.785zM3.909 8.415c1.827 0 3.269 1.408 3.269 3.232 0 1.569-1.218 3.233-3.237 3.233-2.018 0-3.236-1.632-3.236-3.2 0-2.049 1.634-3.265 3.204-3.265zM9.773 9.983h0.673v5.44h-0.673zM10.093 9.247c-0.001 0-0.001 0-0.002 0-0.317 0-0.574-0.257-0.574-0.574 0-0.001 0-0.001 0-0.002v0c0-0.32 0.256-0.576 0.576-0.576s0.577 0.256 0.577 0.576-0.256 0.576-0.577 0.576zM12.817 9.247c-0.001 0-0.002 0-0.003 0-0.317 0-0.574-0.257-0.574-0.574 0-0.001 0-0.001 0-0.002v0c0-0.32 0.257-0.576 0.577-0.576s0.577 0.256 0.577 0.576-0.256 0.576-0.577 0.576zM12.497 9.983h0.673v5.44h-0.673zM17.207 15.52c-1.25 0-1.987-0.96-1.987-1.92v-5.121h0.673v1.504h2.371v0.672h-2.37v2.977c0 0.608 0.48 1.248 1.313 1.248 0.224 0 0.449-0.064 0.64-0.192l0.065-0.032 0.32 0.576-0.064 0.032c-0.288 0.16-0.64 0.256-0.961 0.256zM21.661 15.552c-1.827 0-2.916-1.44-2.916-2.848 0-1.825 1.442-2.913 2.852-2.913 0.737 0 1.314 0.256 1.73 0.736v-0.544h0.673v5.44h-0.673v-0.607c-0.384 0.48-0.961 0.736-1.666 0.736zM21.597 10.463c-1.090 0-2.18 0.832-2.18 2.24 0 1.089 0.834 2.177 2.244 2.177 0.64 0 1.282-0.288 1.698-0.8v-2.817c-0.422-0.491-1.045-0.8-1.739-0.8-0.008 0-0.016 0-0.024 0h0.001z"/>
</svg>