<svg xmlns="http://www.w3.org/2000/svg" version="1.1" width="24" height="24" viewBox="0 0 24 24">
<path d="M10.436-0.055c-0.366 0.006-0.744 0.030-1.139 0.075-4.796 0.542-7.612 4.536-7.775 9.379-1.123 2.201-1.453 4.791-0.724 7.324 1.396 4.853 6.216 7.785 11.169 7.204l0.909-0.107c4.956 0.327 6.013-1.024 7.199-4.318 0.125-0.272 0.306-0.77 0.569-1.574 0.007-0.038 0.016-0.077 0.021-0.096 0.789-2.152 0.905-4.582 0.24-6.891-0.080-0.277-0.171-0.548-0.273-0.812-0.030-0.19-0.024-0.42 0.009-0.6 0.29-0.475 0.65-0.833 1.079-1.1l0.273-1.876c0.287-0.323 0.177-0.601 0.19-1.061 0.167-0.079 0.259-0.214 0.329-0.43 0.077-0.238 0.448-0.688 0.863-1.037 0.064-0.189 0.224-0.574 0.222-0.895-1.988 0.227-3.237 0.609-4.235-0.612l-0.533-0.208c-0.24-0.372-0.672-0.585-0.981-0.951l-0.35 1.213c-0.431-0.267-2.749-2.696-7.062-2.627zM10.577 0.741c2.595 0.037 4.973 1.347 6.221 2.285l-0.951 0.355-0.599-0.382-0.27 0.788v0.326l-0.734 1.767-0.080-0.027 0.379-1.577 0.572-1.52-0.192-0.163-0.842 0.922c-0.179 0.981-0.090 2.364-0.542 2.937 0.141-1.152 0.341-2.159 0.353-3.506l-0.489-0.163c-0.113 0.596-0.265 1.278-0.382 1.657l0.163-1.71-0.624 0.405v0.978l-0.163-0.542-0.056-0.978-0.216-0.029-0.163 0.625c0.028 0.272-0.015 0.543 0.216 0.815l0.056 2.066 0.134 0.246-0.243 1.168 0.027-1.141-0.080-0.080-0.164-2.013-0.273-1.088-0.435-0.27-0.163-0.462-0.462-0.029 1.034 3.698 0.080 1.112c-0.118-0.527-0.113-1.102-0.569-1.494 0.045-0.553-0.036-1.095-0.708-1.577l-0.978-2.009c-0.034-0.238-0.367-0.277-0.599-0.382-0.070 0.32-0.131 0.643 0.083 1.034 0.489 0.777 0.978 1.559 1.467 1.983l0.027 0.951c-0.161-0.877-0.603-1.35-0.762-1.222-0.005-0.715-0.792-0.982-1.248-1.44l-0.056-0.788-0.27-0.056c0.169 0.533-0.219 0.571 0.542 1.63l0.027 0.382c-0.29-0.197-0.579-0.565-0.868-0.978l-0.353-0.625c0.037 0.428-0.175 0.524 0.134 1.277 0.456 0.396 0.866 0.977 1.387 1.114 0 0 0.109 0.19 0 0.19s-0.326-0.083-0.326-0.083c-0.3-0.137-0.586-0.26-1.168-0.679l-0.598-1.766-0.273-0.053 0.056 0.951 0.243 0.107 0.027 0.625c0.106 0.371 0.228 0.518 0.409 0.462-0.102 0.125-0.221 0.152-0.462 0.137-0.202-0.378-0.325-0.747-0.735-1.195l-0.27-0.788-0.163 0.163c-0.059 0.296-0.085 0.61 0 0.978-0.265-0.157-0.658-0.593-1.125-0.82 1.534-1.78 3.904-2.462 5.766-2.496 0.084-0.002 0.168-0.004 0.251-0.003zM18.147 2.935l0.518 0.171 1.518 0.866 2.151 0.019c-0.617 0.242-1.377 0.526-1.862 0.673l-0.615-0.019c-0.486-0.414-0.876-0.613-1.312-0.876-0.528 0.553-0.839 1.035-1.013 1.74l0.152-1.192 0.521-1.173zM4.539 3.266l0.548 1.093 0.027 0.243-0.3-0.107-0.27-0.625-0.299 0.217-0.217-0.129c0.156-0.246 0.328-0.477 0.511-0.692zM8.066 5.58c1.617-0.037 1.873 1.306 2.132 2.549v2.229c0.186 0.018 0.568 1.138 0.489 1.494-0.045 0.204 0.489 1.425 0.452 1.43 0.288 0.278 0.235 0.248 0.465 0.425 0.317 0.244 0.604 1.136 0.428 1.267-0.168 0.124 0.221 0.402 0.313 0.601 0.568 0.507 0.989 1.016 0.981 1.523l0.27 0.489 0.516 0.080 0.136 0.192 0.652 0.080c0.375-0.081 0.32-0.486 0.436-0.762 0.022-0.279-0.058-0.6-0.462-0.951 0.021-0.422 0.074-0.838-0.326-1.331 0.057-0.504-0.311-0.922-0.599-1.357-0.035-0.374-0.197-0.885-0.321-1.381-0.061-0.245-0.090-0.498-0.139-0.74-0.182-1.677 0.058-1.866 0.134-2.771 0.62-0.932 0.945-1.379 1.496-1.577l0.705 0.871c0.348 0.633 0.199 1.444 1.061 1.603l0.021 0.021c0.44-0.397 1.023-0.384 1.497-0.396l-0.057 0.188c-0.571-0.060-1.038-0.074-1.424 0.216l0.385 0.374c0.413-0.536 0.982-0.5 1.542-0.521l0.006 0.207c-0.605-0.080-1.184 0.021-1.497 0.362l0.123 0.118h0.005c0.466-0.364 1.024-0.384 1.552-0.39l-0.104 0.184c-0.53 0.043-0.895 0.007-1.274 0.23 0.293 0.031 0.588 0.057 0.882 0.086l0.11 0.243 0.679 0.056c0.119 0.030 0.216 0.043 0.302 0.045 0.083 0.221 0.158 0.445 0.224 0.676 0.504 1.751 0.502 3.588 0.059 5.283-1.359 3.648-2.804 4.625-5.742 4.428-3.067-0.206-5.543-3.614-7.725-8.283-0.476-1.295-1.641-2.116-2.318-1.424-3.080 3.063 0.395 8.51 2.104 9.825 0.957 0.692 1.924 1.245 2.878 1.673-3.388-0.564-6.284-2.92-7.263-6.322-1.182-4.102 0.769-8.395 4.495-10.449 0.004-0.001 0.010-0.004 0.013-0.005 0.697-0.26 1.255-0.377 1.708-0.388zM18.31 7.625c0.294 0.045 0.84 0.366 1.139 0.665 0.090 0.244-0.136 0.354-0.12 0.497 0.008 0.024 0.004 0.032 0.003 0.032-0.001-0.011-0.002-0.021-0.003-0.032-0.024-0.072-0.421-0.56-1.019-1.162zM20.118 9.811c-0.002 0.253-0.083 0.341-0.192 0.476-0.111 0.009-0.39-0.075-0.513-0.251 0.185-0.213 0.469-0.211 0.705-0.225zM17.277 9.983c-0.059 0.071-0.086 0.157-0.156 0.306 0.091-0.14 0.146-0.201 0.207-0.245zM17.419 10.159c-0.225 0.063-0.387 0.419-0.613 0.923 0.241-0.297 0.407-0.718 0.746-0.852zM5.551 13.076l0.053 1.058-1.657 0.951-0.027-0.788c0.692 0.179 1.151-0.561 1.631-1.221zM6.286 15.331l0.243 0.625-2.092 1.141-0.299-0.708c2.095-0.766 1.735-0.76 2.148-1.058zM7.045 16.771l0.273 0.462c-0.788 0.389-1.438 0.914-2.009 1.52l-0.436-0.868c0.79-0.239 1.533-0.572 2.172-1.114zM8.052 18.075l0.462 0.436c-0.362 0.811-1.11 1.315-1.822 1.846l-0.732-0.842c0.719-0.469 1.631-0.842 2.092-1.44zM9.595 19.582c0.073 0.433-0.222 1.076-1.216 2.026-0.387-0.174-0.787-0.337-1.034-0.652 1.61-0.816 2.024-1.255 2.143-1.471 0.042-0.006 0.112 0.032 0.107 0.097zM10.607 20.25c0.037 0.383-0.041 0.831 0.19 1.085l0.216 0.056c-0.114 0.471-0.341 0.823-0.326 1.294-0.859-0.208-0.954-0.297-1.277-0.506 0.998-1.552 1.189-1.917 1.197-1.929zM12.018 21.036l1.061 1.224c-0.107 0.585-0.098 0.934 0.299 1.087-0.6-0.033-1.188-0.040-1.683-0.345 0.43-0.639 0.423-1.211 0.323-1.966zM17.355 21.512c0.308 0.469 0.349 0.707 0.657 0.815-0.406 0.394-0.589 0.471-1.066 0.652 0.15-0.304 0.001-0.73-0.134-1.248-0.1-0.192 0.401-0.176 0.543-0.219zM14.356 21.797c1.79 0.534 1.183 0.874 1.732 1.408-0.472 0.099-0.905 0.205-1.659 0.163 0.556-0.412 0.302-0.872-0.073-1.571z"/>
</svg>