<svg xmlns="http://www.w3.org/2000/svg" version="1.1" width="24" height="24" viewBox="0 0 24 24">
<path d="M19.865 0.718h-0.26l-11.965 0.068c-2.471-0.127-4.905 0.478-7.010 1.689l0.002 0.002c-0.379 0.21-0.631 0.607-0.631 1.063 0 0.668 0.541 1.21 1.209 1.211h0c0.35 0 0.662-0.148 0.883-0.383 1.416-0.778 3.103-1.236 4.897-1.236 1.414 0 2.762 0.284 3.989 0.799l-0.068-0.025c5.275 2.165 7.805 8.22 5.64 13.495-0.591 1.418-1.436 2.622-2.489 3.608l-0.006 0.005 0.010 0.013c-0.365 0.213-0.606 0.603-0.606 1.048 0 0.668 0.542 1.21 1.21 1.21 0.431 0 0.808-0.225 1.023-0.563l0.003-0.005c1.289-1.213 2.319-2.686 3.009-4.336l0.031-0.083c0.049-0.118 4.952-12.061 4.964-12.093 0.189-0.448 0.298-0.968 0.298-1.514 0-1.658-1.011-3.080-2.45-3.683l-0.026-0.010c-0.55-0.226-1.064-0.278-1.657-0.28zM6.067 6.853c-2.635 0-5.342 0.807-5.342 3.941 0 2.16 1.946 2.849 3.893 3.277 2.422 0.522 3.823 0.878 3.823 1.899 0 1.188-1.235 1.568-2.208 1.568-1.33 0-2.564-0.594-2.588-2.066h-3.205c0.143 3.252 2.92 4.32 5.77 4.32 2.801 0 5.603-1.044 5.603-4.273 0-2.28-1.923-2.992-3.894-3.443-1.923-0.451-3.823-0.617-3.823-1.828 0-0.997 1.116-1.14 1.877-1.14 1.21 0 2.207 0.357 2.302 1.662h3.205c-0.26-3.015-2.73-3.917-5.413-3.917z"/>
</svg>