<svg xmlns="http://www.w3.org/2000/svg" version="1.1" width="24" height="24" viewBox="0 0 24 24">
<path d="M21.356 11.162v3.98c0 0.122-0.081 0.154-0.181 0.071l-2.032-1.682c-0.103-0.093-0.17-0.222-0.181-0.368l-0-0.002v-0.501l-0.635-0.516c-0.68-0.554-1.226-1.677-1.226-2.5 0-0.822 0.549-1.036 1.226-0.478l0.635 0.516v-0.502c0-0.122 0.081-0.154 0.181-0.071l2.032 1.682c0.1 0.082 0.181 0.248 0.181 0.371zM18.363 9.897c-0.358-0.296-0.648-0.182-0.648 0.253s0.29 1.027 0.648 1.323l0.599 0.486v-1.576zM21.202 19.934l0.013-0.010c0.013-0.011 0.026-0.023 0.037-0.036l0-0 0.004-0.004c0.011-0.014 0.022-0.029 0.031-0.044l0.001-0.002 0.007-0.013c0.007-0.012 0.013-0.026 0.018-0.040l0.001-0.002 0.004-0.010c0.005-0.016 0.010-0.034 0.013-0.053l0-0.002v-0.014l0.003-0.027 0.003-0.152-5.223-4.28 0.022-12.91-0.151-0.114-0.034-0.020c-0.007-0.004-0.014-0.010-0.022-0.013l-0.030-0.010c-0.010-0.004-0.020-0.009-0.030-0.011l-0.026-0.004c-0.013-0.002-0.026-0.005-0.039-0.005h-0.004l-0.023 0.001c-0.013 0-0.025 0.001-0.037 0.003l-0.030 0.007c-0.010 0.003-0.021 0.005-0.031 0.010-0.010 0.003-0.020 0.008-0.029 0.012l-0.029 0.015c-0.005 0.004-0.010 0.007-0.014 0.010l0-0c-0.012 0.004-0.024 0.007-0.035 0.013l-3.444 1.726 0.72 0.57 0.027 10.067-5.246-4.32-0.003-5.241-0.003-4.703-0.001-0.010c-0.001-0.013-0.002-0.025-0.004-0.037l0 0.002c-0.001-0.010-0.002-0.020-0.005-0.030l-0.008-0.030c-0.005-0.010-0.008-0.022-0.015-0.033l-0.002-0.009-0.010-0.015c-0.006-0.010-0.012-0.021-0.020-0.031l-0.018-0.023c-0.021-0.024-0.046-0.044-0.073-0.061l-0.001-0.001c-0.007-0.005-0.016-0.010-0.024-0.014l-0.002-0.001c-0.010-0.004-0.020-0.010-0.030-0.013-0.017-0.006-0.038-0.012-0.059-0.016l-0.002-0-0.035-0.004-0.020-0.002-0.009 0.001c-0.013 0.001-0.026 0.002-0.038 0.004l0.002-0c-0.010 0.001-0.020 0.002-0.030 0.005-0.010 0.002-0.019 0.006-0.029 0.009-0.013 0.004-0.024 0.008-0.035 0.013l0.002-0.001-0.009 0.004-4.339 2.175c-0.029 0.017-0.055 0.037-0.077 0.061l-0 0c-0.021 0.022-0.039 0.048-0.052 0.076l-0.001 0.002c-0.008 0.017-0.016 0.037-0.022 0.057l-0.001 0.003c-0.006 0.019-0.009 0.042-0.010 0.064l-0 0.001c-0.001 0.006-0.003 0.013-0.002 0.020l0.006 10.108v0.020l0.002 0.008c0 0.015 0.003 0.030 0.006 0.044l0.002 0.009 0.004 0.011c0.006 0.021 0.013 0.039 0.021 0.056l-0.001-0.002v0.001h0.001c0.009 0.018 0.020 0.034 0.031 0.050l0.007 0.010 0.006 0.006c0.010 0.012 0.020 0.022 0.031 0.032l0 0 0.006 0.006c0.004 0.003 0.008 0.005 0.010 0.008 0.002 0 0.003 0.003 0.005 0.004l4.7 3.909-0.107 2.673v0.038l0.004 0.025 0.002 0.015c0 0.005 0.002 0.010 0.004 0.015 0 0.004 0.002 0.007 0.003 0.011l0.001 0.005 0.003 0.010c0.005 0.014 0.010 0.028 0.017 0.040v0.002c0.010 0.019 0.020 0.035 0.032 0.050l-0.001-0.001 0.006 0.008 0.005 0.005c0.012 0.014 0.024 0.027 0.037 0.039l0 0 0.005 0.003 0.003 0.002 0.003 0.004 5.317 4.212c0.1 0.078 0.236 0.092 0.35 0.035l7.992-4.002c0.017-0.009 0.032-0.019 0.046-0.030l-0.001 0.001zM5.475 10.985l-1.656-1.279v1.1l0.844 0.585-1.392 0.698-0.006-9.376 2.176-1.090 0.023 2.392-1.546-1.236v1.1l1.554 1.235 0.024 1.182-1.595-1.276v1.1l1.603 1.275-0.006 1.283-1.573-1.257v1.1l1.58 1.256 0.010 1.187zM8.908 17.023l-5.309-4.365 3.668-1.837 5.309 4.365zM6.123 1.282l0.733-0.367 0.079 9.34-0.733 0.366zM8.617 8.396l-0.001-1.59 1.309 1.024 0.001 1.591zM9.926 6.568l-1.31-1.025v-1.591l1.309 1.025zM11.018 5.816c0.507 0.646 1.026 1.907 1.026 3.073 0 1.165-0.519 1.562-1.026 1.362z"/>
</svg>