<svg xmlns="http://www.w3.org/2000/svg" version="1.1" width="24" height="24" viewBox="0 0 24 24">
<path d="M16.661 0c-0.070 0-0.115 0.034-0.165 0.095-0.063 0.072-0.101 0.168-0.101 0.272 0 0.057 0.011 0.111 0.032 0.161l-0.001-0.003c0.19 0.41 0.363 0.83 0.528 1.25 0.010 0.020 0.022 0.040 0.039 0.068-0.039-0.002-0.050-0.022-0.063-0.043-0.297-0.31-0.648-0.557-0.998-0.804-0.473-0.337-0.99-0.603-1.503-0.872-0.062-0.034-0.135-0.057-0.212-0.065l-0.002-0-0.384-0.040c-0.202-0.025-0.355 0.090-0.355 0.292 0 0.108-0.046 0.132-0.135 0.14-0.079 0.004-0.187 0.115-0.196 0.192-0.004 0.030-0.007 0.064-0.007 0.098 0 0.207 0.091 0.393 0.234 0.52l0.001 0.001c0.444 0.415 0.873 0.845 1.303 1.275l0.015 0.007c0.012 0.010 0.022 0.023 0.028 0.037l0 0.001c-0.007 0.003-0.014 0.003-0.019 0.003-0.015-0.003-0.027-0.011-0.036-0.022l-0-0c-0.002-0.002-0.005-0.005-0.005-0.007-0.062-0.036-0.127-0.070-0.187-0.11-0.3-0.2-0.595-0.404-0.895-0.598-0.129-0.093-0.287-0.154-0.457-0.17l-0.004-0c-0.017-0.002-0.038-0.004-0.058-0.004-0.132 0-0.251 0.056-0.334 0.146l-0 0c-0.056 0.051-0.092 0.125-0.092 0.207 0 0.016 0.001 0.032 0.004 0.047l-0-0.002c0.016 0.146 0.115 0.237 0.223 0.312 0.502 0.338 0.95 0.734 1.366 1.174 0.036 0.038 0.074 0.079 0.115 0.112 0.118 0.096 0.19 0.224 0.262 0.356 0.033 0.060 0.021 0.074-0.043 0.074-0.428 0-0.836 0.118-1.246 0.204-0.168 0.036-0.334 0.094-0.394 0.28-0.065 0.21-0.096 0.328 0.16 0.392 0.579 0.15 1.075 0.326 1.55 0.54l-0.060-0.024c0.045 0.022 0.083 0.048 0.118 0.078l-0.001-0.001c0.12 0.104 0.23 0.219 0.362 0.303 0.38 0.247 0.77 0.478 1.22 0.583 0.053 0.012 0.1 0.039 0.151 0.050 0.050 0.015 0.084 0.044 0.094 0.094 0.029 0.178 0.139 0.279 0.305 0.33 0.021 0.006 0.038 0.020 0.060 0.028 0.052 0.017 0.076 0.055 0.093 0.108 0.067 0.24 0.137 0.478 0.212 0.715 0.026 0.080 0.002 0.101-0.070 0.123-0.372 0.108-0.742 0.22-1.112 0.334-0.132 0.040-0.134 0.043-0.067 0.163l0.908 1.635c0.127 0.23 0.132 0.23 0.365 0.11 0.024-0.012 0.057-0.053 0.079-0.014 0.021 0.036 0.060 0.089 0.024 0.13-0.113 0.129-0.19 0.28-0.286 0.42-0.031 0.045-0.031 0.074-0.005 0.117 0.101 0.166 0.202 0.334 0.3 0.502 0.012 0.019 0.034 0.043 0.030 0.058l-0.123 0.367c-0.074-0.272-0.183-0.51-0.323-0.726l0.006 0.010c-0.18-0.288-0.41-0.542-0.62-0.811-0.033-0.040-0.072-0.077-0.11-0.115-0.2-0.207-0.456-0.332-0.699-0.478-0.098-0.059-0.212-0.103-0.334-0.126l-0.006-0.001c-0.375-0.080-0.747-0.11-1.12 0.004-0.076 0.024-0.117 0.005-0.162-0.060-0.092-0.127-0.166-0.273-0.289-0.372-0.3-0.24-0.617-0.458-0.986-0.583-0.256-0.094-0.551-0.154-0.859-0.168l-0.006-0c-0.022-0-0.049-0.001-0.075-0.001-0.137 0-0.272 0.006-0.405 0.019l0.017-0.001c-0.396 0.030-0.79 0.074-1.14 0.293-0.070 0.043-0.15 0.067-0.221 0.108-0.36 0.194-0.716 0.386-1.016 0.679-0.312 0.298-0.605 0.606-0.883 0.927l-0.014 0.017c-0.322 0.384-0.565 0.818-0.783 1.267-0.015 0.031-0.022 0.070-0.070 0.096l-0.12-0.744c-0.007-0.046 0.022-0.043 0.053-0.038 0.089 0.010 0.175 0.014 0.264 0.026 0.067 0.010 0.103-0.005 0.12-0.080 0.022-0.102 0.046-0.206 0.067-0.311 0.082-0.397 0.2-0.78 0.303-1.17 0.020-0.074 0.007-0.1-0.070-0.12-0.381-0.090-0.763-0.192-1.145-0.283-0.072-0.017-0.106-0.043-0.084-0.12 0.087-0.298 0.125-0.61 0.242-0.9 0.010-0.035 0.030-0.065 0.056-0.087l0-0c0.098-0.076 0.17-0.165 0.16-0.302-0.007-0.103 0.041-0.168 0.14-0.214 0.182-0.086 0.358-0.187 0.53-0.288 0.139-0.079 0.25-0.192 0.325-0.329l0.002-0.004c0.322-0.605 0.59-1.242 0.98-1.81 0.033-0.051 0.060-0.106 0.1-0.15 0.252-0.264 0.488-0.544 0.771-0.78 0.089-0.074 0.113-0.175 0.115-0.285 0-0.128-0.074-0.217-0.151-0.305-0.075-0.087-0.151-0.161-0.279-0.147-0.028 0.003-0.057-0.010-0.088-0.014 0.019-0.039 0.050-0.048 0.076-0.065 0.339-0.218 0.677-0.437 1.016-0.658 0.41-0.264 0.819-0.53 1.232-0.794 0.052-0.034 0.076-0.060 0.019-0.11-0.015-0.013-0.024-0.030-0.036-0.044-0.084-0.099-0.084-0.099-0.2-0.029l-3.442 2.142c-0.101 0.062-0.101 0.062-0.152-0.050-0.112-0.263-0.177-0.539-0.261-0.81-0.020-0.062-0.003-0.098 0.045-0.137 0.289-0.23 0.553-0.49 0.82-0.742 0.101-0.095 0.168-0.223 0.186-0.367l0-0.003c0.022-0.17-0.090-0.259-0.244-0.196-0.087 0.034-0.16 0.069-0.229 0.109l0.008-0.004c-0.68 0.375-1.405 0.632-2.149 0.848-0.043 0.012-0.082 0.026-0.118-0.020-0.074-0.090-0.185-0.14-0.278-0.208-0.013-0.010-0.029-0.017-0.047-0.017-0.006 0-0.011 0.001-0.017 0.002l0-0c-0.1 0.027-0.204 0.056-0.266 0.147-0.159 0.233-0.358 0.44-0.507 0.682-0.17 0.28-0.333 0.562-0.525 0.828-0.036 0.050-0.050 0.058-0.084-0.002l-0.637-1.117c-0.073-0.129-0.147-0.24-0.228-0.345l0.005 0.007c-0.094-0.118-0.209-0.176-0.358-0.159-0.026 0.003-0.060-0.005-0.070 0.036-0.020 0.11-0.071 0.226-0.057 0.332 0.034 0.27 0.082 0.542 0.15 0.806 0.114 0.459 0.244 0.912 0.38 1.364 0.133 0.444 0.282 0.88 0.426 1.323 0.012 0.038 0.033 0.072-0.020 0.103-0.067 0.038-0.175 0.058-0.187 0.125-0.012 0.070 0.050 0.15 0.080 0.225l0.007 0.017c0.024 0.058 0.036 0.144 0.079 0.166 0.058 0.029 0.11-0.050 0.163-0.082 0.048-0.029 0.065-0.021 0.087 0.029 0.124 0.293 0.252 0.583 0.379 0.876 0.011 0.023 0.017 0.049 0.017 0.077 0 0.022-0.004 0.042-0.011 0.061l0-0.001c-0.077 0.203-0.144 0.445-0.188 0.695l-0.004 0.025c-0.012 0.070-0.038 0.070-0.091 0.055 0.471 0.094 0.192 0.022-0.088-0.049l-0.745-0.161c-0.123-0.032-0.123-0.032-0.137 0.093v0.010c-0.060 0.665-0.12 1.33-0.183 1.994-0.004 0.060 0.003 0.085 0.068 0.092 0.194 0.024 0.386 0.055 0.578 0.084 0.036 0.005 0.067 0.007 0.058 0.060-0.043 0.225-0.077 0.453-0.125 0.677-0.004 0.015-0.007 0.032-0.007 0.049 0 0.043 0.015 0.083 0.041 0.114l-0-0c0.067 0.087 0.132 0.175 0.199 0.264 0.046 0.063 0.080 0.144 0.038 0.209-0.021 0.031-0.033 0.069-0.033 0.111 0 0.003 0 0.005 0 0.008v-0c0.007 0.415 0.007 0.83 0.026 1.246 0.010 0.201 0.007 0.403 0.012 0.605 0.010 0.535 0.040 1.068 0.060 1.603 0.010 0.262-0.036 0.521-0.024 0.783 0.002 0.065 0.017 0.1 0.084 0.122 0.159 0.050 0.312 0.116 0.473 0.166 0.083 0.022 0.15 0.079 0.184 0.154l0.001 0.002c0.025 0.053 0.040 0.116 0.040 0.182 0 0.013-0.001 0.026-0.002 0.039l0-0.002c-0.002 0.072 0.024 0.115 0.082 0.156 0.247 0.177 0.492 0.36 0.74 0.542 0.65 0.48 1.3 0.963 1.954 1.44 0.060 0.046 0.074 0.082 0.038 0.147-0.034 0.062-0.055 0.135-0.089 0.197-0.029 0.058-0.024 0.094 0.031 0.134 0.082 0.058 0.161 0.123 0.236 0.188 0.065 0.055 0.067 0.141 0.048 0.208-0.015 0.049-0.087 0.005-0.132 0-0.032-0.002-0.063-0.010-0.094-0.014-0.31-0.050-0.617-0.13-0.932-0.156-0.501-0.040-1.003-0.084-1.51-0.070-0.026 0-0.067-0.024-0.074 0.030-0.007 0.042-0.017 0.088 0.031 0.117 0.024 0.014 0.050 0.026 0.077 0.036 0.283 0.098 0.547 0.24 0.807 0.389 0.168 0.096 0.333 0.204 0.518 0.269 0.034 0.012 0.068 0.038 0.108 0.002-0.278-0.22-0.554-0.442-0.833-0.665 0.039-0.029 0.070-0.017 0.099-0.014 0.333 0.026 0.665 0.072 0.989 0.149 0.713 0.17 1.421 0.362 2.122 0.573 0.23 0.070 0.475 0.104 0.682 0.243 0.050 0.033 0.080 0.067 0.074 0.13 0.012 0.014 0.027 0.033 0.010 0.045-0.020 0.012-0.036-0.012-0.050-0.024-0.164-0.014-0.327-0.026-0.488-0.043-0.463-0.046-0.924-0.11-1.392-0.096-0.35 0.010-0.701-0.015-1.050 0.010-0.494 0.033-0.989 0.098-1.48 0.15-0.025 0.003-0.063-0.002-0.063 0.027 0 0.036 0.014 0.077 0.060 0.087 0.034 0.007 0.073 0.012 0.113 0.012h0c0.25 0.010 0.497 0.007 0.746 0.011 0.62 0.015 1.242-0.012 1.86 0.041 0.224 0.020 0.45 0.010 0.668 0.050 1.030 0.193 2.055 0.394 3.078 0.618 0.12 0.026 0.243 0.045 0.36 0.103-0.055 0.050-0.127 0.065-0.158 0.137-0.219 0.506-0.363 1.040-0.53 1.563-0.030 0.089 0.030 0.192 0.12 0.216 0.023 0.007 0.050 0.011 0.078 0.011 0.137 0 0.251-0.1 0.274-0.23l0-0.002c0.020-0.108 0.039-0.216 0.053-0.327 0.005-0.036 0.017-0.055 0.053-0.067 0.132-0.053 0.261-0.108 0.393-0.16 0.205-0.078 0.38-0.188 0.53-0.326l-0.001 0.001c0.134-0.127 0.247-0.274 0.25-0.47 0-0.060 0.014-0.099 0.062-0.135 0.22-0.17 0.418-0.365 0.61-0.564 0.184-0.187 0.38-0.362 0.587-0.523l0.013-0.010c0.024-0.020 0.043-0.048 0.081-0.034l0.56 0.221c-0.375 0.228-0.73 0.447-1.083 0.66-0.017 0.010-0.036 0.015-0.053 0.020-0.133 0.041-0.246 0.11-0.338 0.201l0-0c-0.375 0.372-0.567 0.814-0.545 1.35 0.014 0.36 0.22 0.53 0.571 0.449 0.615-0.144 1.14-0.733 1.232-1.379 0.024-0.18 0.052-0.357-0.077-0.513-0.058-0.071-0.116-0.134-0.178-0.195l-0-0c0.020-0.012 0.029-0.019 0.039-0.026 0.777-0.463 1.625-0.778 2.475-1.070 1.040-0.359 2.1-0.644 3.164-0.918l-0.075-0.017c-0.070 0.007-0.136 0.015-0.206 0.020-0.321 0.022-0.619 0.069-0.907 0.141l0.035-0.007-0.016 0.007c-0.024 0.010-0.052 0.015-0.082 0.015-0.004 0-0.009-0-0.013-0l0.001 0c-0.014 0-0.029 0-0.048 0.002 0.065-0.062 0.252-0.264 0.303-0.25l0.002-0.005h0.005c0-0.007 0.019-0.021 0.019-0.021 0.017-0.029 0.040-0.048 0.074-0.050 0.053-0.075 0.119-0.138 0.194-0.186l0.003-0.002c0.050-0.031 0.103-0.062 0.161-0.086h-0.002c0.16 0 0.319-0.194 0.486-0.262-0.001-0.006-0.010-0.010-0.013-0.017-0.24 0.034-0.476 0.072-0.706 0.159-0.492 0.182-1.001 0.324-1.481 0.535-0.742 0.324-1.482 0.648-2.195 1.035-0.020 0.011-0.046 0.023-0.072 0.034l-0.005 0.002-0.055-0.504c-0.005-0.034 0.012-0.048 0.041-0.063 0.631-0.334 1.265-0.665 1.925-0.938 0.543-0.226 1.080-0.471 1.626-0.692 0.002-0.005 0.005-0.010 0.010-0.010h0.004c0.003 0 0.003 0.003 0.005 0.003 0.007 0.012 0.002 0.020-0.005 0.026-0.002 0.003-0.005 0.003-0.010 0.005h-0.002c-0.14 0.191-0.264 0.408-0.364 0.638l-0.008 0.022c0.038 0.010 0.053-0.002 0.067-0.017 0.113-0.12 0.226-0.237 0.336-0.357 0.214-0.235 0.44-0.459 0.704-0.641 0.017-0.012 0.045-0.022 0.033-0.048-0.014-0.030-0.045-0.015-0.067-0.010-0.247 0.050-0.494 0.096-0.74 0.154-0.081 0.019-0.076-0.010-0.079-0.067-0.002-0.197 0.027-0.39 0.034-0.586 0.003-0.090 0.024-0.175 0.060-0.251l-0.002 0.004c0.098-0.226 0.197-0.45 0.297-0.675 0.050-0.113 0.080-0.233 0.099-0.353 0.031-0.192 0.055-0.386 0.074-0.58 0.031-0.299 0.137-0.58 0.187-0.875 0.065-0.374 0.118-0.751 0.257-1.109 0.125-0.317 0.245-0.634 0.372-0.948 0.176-0.428 0.399-0.833 0.505-1.29 0.036-0.158 0.076-0.302 0.004-0.458-0.040-0.084-0.052-0.18-0.081-0.271-0.013-0.037-0.020-0.080-0.020-0.124 0-0.028 0.003-0.056 0.009-0.082l-0 0.003c0.048-0.245 0.070-0.488-0.063-0.716-0.036-0.062 0.008-0.1 0.044-0.139 0.088-0.091 0.093-0.132 0.016-0.23-0.088-0.11-0.175-0.224-0.27-0.327-0.080-0.084-0.154-0.175-0.234-0.262-0.055-0.033-0.050-0.055 0.012-0.076 0.14-0.048 0.276-0.108 0.418-0.152 0.080-0.024 0.1-0.070 0.106-0.141 0.045-0.605 0.090-1.213 0.139-1.818 0.007-0.084-0.007-0.1-0.094-0.074-0.454 0.144-0.907 0.28-1.363 0.422-0.14 0.044-0.142 0.044-0.204-0.093-0.231-0.519-0.411-1.057-0.6-1.59-0.019-0.044-0.030-0.096-0.030-0.15 0-0.060 0.014-0.117 0.038-0.168l-0.001 0.002c0.067-0.188 0.024-0.377 0.019-0.567-0.003-0.009-0.005-0.019-0.005-0.029v-0c-0.045-0.573-0.135-1.101-0.268-1.612l0.014 0.064c-0.131-0.485-0.302-0.907-0.516-1.302l0.016 0.032c-0.228-0.432-0.473-0.86-0.737-1.275-0.113-0.178-0.233-0.339-0.434-0.427-0.075-0.031-0.162-0.049-0.253-0.050h-0zM14.018 0.26c0.004-0 0.009-0 0.014-0 0.069 0 0.133 0.019 0.188 0.052l-0.002-0.001c0.603 0.297 1.084 0.565 1.552 0.852l-0.083-0.047c0.247 0.158 0.482 0.338 0.715 0.52 0.11 0.087 0.192 0.217 0.284 0.33 0.038 0.047 0.012 0.090-0.024 0.124-0.024 0.024-0.058 0.039-0.087 0.055-0.031 0.022-0.072 0.041-0.060 0.087 0.010 0.040 0.055 0.050 0.091 0.058 0.017 0.004 0.036 0.006 0.055 0.006 0.037 0 0.073-0.008 0.105-0.021l-0.002 0.001c0.168-0.070 0.31 0.048 0.418 0.166 0.028 0.030 0.040 0.093 0.093 0.074 0.055-0.021 0.063-0.081 0.058-0.137-0.012-0.15-0.050-0.297-0.084-0.444-0.090-0.377-0.27-0.718-0.418-1.073-0.053-0.127-0.11-0.254-0.163-0.382-0.029-0.070 0.010-0.132 0.048-0.182 0.031-0.040 0.081-0.005 0.122 0.014 0.152 0.068 0.238 0.19 0.312 0.332 0.080 0.15 0.178 0.29 0.262 0.436 0.144 0.255 0.322 0.495 0.437 0.762 0.168 0.388 0.382 0.758 0.483 1.176 0.086 0.37 0.208 0.732 0.252 1.114 0.016 0.144-0.010 0.283 0.007 0.422 0.033 0.279-0.008 0.543-0.123 0.798-0.030 0.070-0.021 0.136 0.012 0.208 0.252 0.533 0.461 1.083 0.67 1.635 0.027 0.072 0.015 0.101-0.060 0.123-0.482 0.141-0.965 0.288-1.447 0.434-0.070 0.022-0.092 0.003-0.113-0.060-0.123-0.326-0.24-0.646-0.353-0.967-0.024-0.068-0.053-0.104-0.128-0.087-0.088 0.022-0.136-0.017-0.175-0.096-0.062-0.127-0.113-0.28-0.216-0.36s-0.266-0.082-0.403-0.115c-0.103-0.027-0.207-0.058-0.312-0.075-0.234-0.044-0.441-0.14-0.615-0.275l0.003 0.002c-0.303-0.224-0.615-0.43-0.934-0.627-0.104-0.007-0.202-0.036-0.303-0.060-0.278-0.057-0.554-0.117-0.833-0.17-0.067-0.012-0.080-0.063-0.084-0.108-0.007-0.056 0.007-0.11 0.065-0.144 0.089-0.053 0.19-0.063 0.29-0.080 0.395-0.070 0.859-0.117 1.332-0.13l0.013-0c0.11-0.002 0.209 0.040 0.312 0.066 0.016 0.005 0.035 0.009 0.055 0.009 0.042 0 0.081-0.015 0.112-0.039l-0 0c0.216-0.143 0.434-0.28 0.65-0.422 0.034-0.021 0.096-0.036 0.070-0.093-0.004-0.008-0.009-0.016-0.015-0.022l0 0c-0.012-0.010-0.026-0.012-0.043-0.012l-0.050 0.002h-0.007c-0.005-0-0.011-0-0.017-0-0.243 0-0.469 0.075-0.655 0.203l0.004-0.003c-0.079 0.050-0.259 0.019-0.31-0.056-0.34-0.516-0.823-0.888-1.282-1.289-0.204-0.177-0.403-0.362-0.619-0.526-0.055-0.040-0.080-0.144-0.043-0.196 0.048-0.072 0.11-0.041 0.168-0.015 0.185 0.082 0.362 0.175 0.528 0.293 0.564 0.403 1.17 0.744 1.772 1.085 0.014 0.009 0.030 0.018 0.047 0.026l0.003 0.001c0.092 0.030 0.14-0.010 0.125-0.106-0.008-0.052-0.030-0.098-0.062-0.134l0 0c-0.488-0.574-1.001-1.124-1.506-1.683-0.105-0.116-0.23-0.216-0.348-0.32-0.091-0.076-0.165-0.168-0.218-0.273l-0.002-0.005c-0.013-0.023-0.021-0.050-0.021-0.080 0-0.043 0.017-0.082 0.044-0.11l-0 0c0.041-0.045 0.077-0.055 0.137-0.024 0.17 0.082 0.332 0.178 0.483 0.293 0.266 0.202 0.535 0.403 0.804 0.605l0.807 0.603c0.021 0.017 0.043 0.033 0.062 0.050 0.050 0.046 0.094 0.094 0.142 0.142l0.029 0.029c0.019 0.019 0.036 0.045 0.060 0.060 0.055 0.033 0.112 0.062 0.17 0.004 0.020-0.019 0.029-0.036 0.031-0.055 0-0.007 0.003-0.014 0-0.021 0-0.003 0-0.008-0.002-0.010-0.009-0.028-0.023-0.053-0.043-0.072v0l-0.18-0.187c-0.099-0.104-0.201-0.201-0.307-0.293l-0.005-0.005c-0.349-0.29-0.706-0.571-1.066-0.845-0.183-0.14-0.397-0.233-0.596-0.348-0.072-0.041-0.12-0.101-0.173-0.159-0.022-0.025-0.035-0.058-0.035-0.094 0-0.020 0.004-0.039 0.012-0.057l-0 0.001c0.022-0.054 0.075-0.051 0.12-0.057zM8.252 1.649c0.002-0 0.005-0.001 0.007-0.001 0.008 0 0.015 0.002 0.022 0.006l-0-0c0.048 0.027 0.030 0.077 0.030 0.135 0.013 0.060-0.026 0.11-0.080 0.16-0.346 0.322-0.707 0.627-1.076 0.922-0.147 0.118-0.327 0.173-0.49 0.262-0.034 0.017-0.053 0-0.072-0.024-0.12-0.154-0.238-0.31-0.358-0.463-0.045-0.055 0.017-0.053 0.046-0.065 0.254-0.091 0.504-0.195 0.756-0.295 0.365-0.144 0.696-0.35 1.040-0.533 0.036-0.020 0.070-0.043 0.105-0.063 0.024-0.010 0.044-0.037 0.070-0.041zM5.633 2.479c0.053 0.006 0.099 0.029 0.134 0.064v0c0.072 0.067 0.13 0.144 0.18 0.228 0.173 0.28 0.413 0.506 0.646 0.737 0.163 0.163 0.329 0.321 0.502 0.47 0.057 0.050 0.067 0.127 0.098 0.192 0.012 0.024 0.002 0.043-0.020 0.055-0.011 0.008-0.023 0.013-0.030 0.020-0.142 0.12-0.276 0.103-0.442 0.019-0.334-0.173-0.62-0.388-0.863-0.645l-0.001-0.001c-0.010-0.010-0.020-0.017-0.030-0.024-0.114-0.086-0.12-0.082-0.17 0.050-0.052 0.135-0.086 0.274-0.146 0.404-0.022 0.045 0.012 0.094 0.046 0.127 0.038 0.039 0.064 0.099 0.134 0.089 0.031-0.005 0.048-0.022 0.055-0.055 0.017-0.080 0.039-0.159 0.060-0.257 0.262 0.22 0.553 0.391 0.84 0.583l-0.278 0.159c-0.713 0.4-1.428 0.801-2.139 1.205-0.058 0.031-0.082 0.038-0.106-0.034-0.273-0.847-0.561-1.69-0.79-2.552-0.052-0.2-0.074-0.408-0.112-0.612-0.012-0.060 0.028-0.091 0.067-0.113 0.053-0.026 0.055 0.036 0.074 0.060 0.377 0.521 0.634 1.11 0.941 1.669 0.092 0.168 0.195 0.331 0.293 0.497 0.020 0.030 0.034 0.057 0.082 0.040 0.053-0.019 0.043-0.052 0.034-0.090-0.039-0.174-0.128-0.33-0.193-0.493-0.011-0.023-0.017-0.049-0.017-0.077 0-0.030 0.008-0.059 0.021-0.084l-0 0.001c0.137-0.284 0.329-0.531 0.48-0.803 0.14-0.247 0.317-0.468 0.451-0.717 0.035-0.067 0.103-0.113 0.183-0.113 0.006 0 0.012 0 0.018 0.001l-0.001-0zM7.407 2.971c0.014 0.003 0.024 0.016 0.036 0.042 0.12 0.27 0.201 0.555 0.302 0.83 0.010 0.027 0.012 0.049-0.017 0.066l-0.256 0.158c-0.008 0.005-0.017 0.007-0.046 0.020-0.007-0.013-0.017-0.034-0.031-0.051l-0.54-0.62c-0.024-0.028-0.048-0.055 0-0.081 0.177-0.101 0.312-0.264 0.499-0.35 0.024-0.011 0.040-0.017 0.053-0.014zM9.336 3.457c0.003-0 0.007-0 0.011-0 0.049 0 0.094 0.017 0.13 0.047l-0-0c0.052 0.039 0.086 0.1 0.086 0.169 0 0.017-0.002 0.034-0.006 0.050l0-0.001c-0.024 0.115-0.081 0.214-0.161 0.29l-0 0c-0.333 0.32-0.624 0.678-0.868 1.070l-0.014 0.023c-0.228 0.36-0.453 0.718-0.624 1.11-0.039 0.079-0.088 0.147-0.146 0.206l0-0c-0.24 0.273-0.526 0.485-0.855 0.638-0.064 0.025-0.108 0.087-0.108 0.158 0 0 0 0 0 0.001v-0c-0.005 0.060-0.024 0.118-0.029 0.178-0 0.155-0.074 0.293-0.189 0.38l-0.001 0.001c-0.040 0.031-0.045 0.082-0.060 0.125l-0.273 0.915c0 0.007 0 0.014-0.002 0.019 0 0.014 0.002 0.031-0.017 0.038-0.041 0.010-0.077-0.002-0.113-0.021-0.731-0.165-1.177-0.28-1.621-0.402l0.291 0.068c-0.055-0.012-0.108-0.029-0.166-0.036-0.088-0.012-0.096-0.053-0.055-0.12 0.058-0.281 0.125-0.56 0.298-0.797 0.038-0.053 0.036-0.096 0.002-0.154-0.19-0.317-0.334-0.658-0.492-0.989-0.026-0.055-0.017-0.080 0.034-0.11 3.247-1.933 4.090-2.464 4.931-2.997l-2.348 1.39c0.045-0.030 0.089-0.012 0.132-0.022 0.151-0.034 0.298-0.080 0.43-0.163 0.010-0.007 0.026-0.012 0.030-0.022 0.097-0.213 0.31-0.286 0.49-0.37 0.411-0.187 0.826-0.36 1.189-0.633 0.026-0.021 0.059-0.035 0.094-0.038l0.001-0zM20.779 7.229v0.005l0.002-0.001c-0.021 0.256-0.043 0.498-0.062 0.74l-0.043 0.535c-0.005 0.065-0.024 0.106-0.094 0.13-5.052 1.599-6.169 1.997-7.286 2.397l3.877-1.218c-0.036 0.005-0.055-0.012-0.080-0.055-0.218-0.394-0.439-0.785-0.662-1.177-0.029-0.050-0.038-0.077 0.034-0.096l4.254-1.246c0.014-0.005 0.031-0.007 0.060-0.014zM20.369 7.615c-0.154 0.003-0.293 0.147-0.286 0.293 0.007 0.137 0.124 0.257 0.254 0.252 0.137-0.002 0.27-0.153 0.267-0.302-0.005-0.166-0.082-0.245-0.235-0.243zM3.539 8.485c0.010 0 0.024 0.002 0.039 0.007l1.935 0.508c0.645 0.171 1.291 0.34 1.937 0.51 0.062 0.017 0.082 0.036 0.060 0.1l-0.278 0.913c-0.010 0.036-0.017 0.074-0.058 0.074-0.001 0-0.003 0-0.004 0-0.006 0-0.011-0.001-0.016-0.002l0 0-1.036-0.142c-0.226-0.030-0.45-0.062-0.675-0.093 0.688 0.065-0.013-0.036-0.716-0.133l-1.339-0.153c-0.043-0.012-0.058-0.038-0.050-0.098 0.052-0.476 0.103-0.951 0.153-1.429 0.003-0.012 0.002-0.021 0.005-0.031 0.003-0.004 0.004-0.009 0.005-0.015v-0c0.007-0.014 0.021-0.019 0.038-0.016zM11.675 8.588l0.113 0.002c0.197 0.010 0.389 0.086 0.569 0.166 0.080 0.036 0.159 0.070 0.238 0.108l0.057 0.029c0.058 0.028 0.118 0.057 0.173 0.090l0.113 0.065c0.036 0.025 0.075 0.046 0.108 0.073 0.072 0.050 0.142 0.105 0.207 0.165 0.218 0.202 0.372 0.44 0.463 0.72 0.065 0.202 0.113 0.409 0.13 0.617 0.016 0.202-0.044 0.399-0.096 0.593-0.008 0.030-0.020 0.036-0.030 0.034-0.014-0.005-0.021-0.022-0.033-0.036l-0.216-0.25c-0.266-0.321-0.621-0.56-1.027-0.68l-0.015-0.004c-0.295-0.087-0.635-0.142-0.987-0.154l-0.007-0c-0.286 0.002-0.563 0.036-0.83 0.097l0.026-0.005c-0.211 0.040-0.423 0.074-0.631 0.113-0.137 0.024-0.262 0.086-0.387 0.141-0.060 0.027-0.12 0.053-0.18 0.076l-0.020 0.004c-0.376 0.132-0.695 0.36-1.024 0.57-0.090 0.060-0.165 0.14-0.243 0.218l-0.010 0.008-0.064 0.065c-0.152 0.147-0.3 0.296-0.464 0.43-0.074 0.103-0.175 0.175-0.268 0.266 0.024-0.17 0.070-0.328 0.146-0.472 0.091-0.172 0.178-0.314 0.272-0.451l-0.010 0.016c0.048-0.070 0.096-0.14 0.146-0.206 0.112-0.151 0.216-0.28 0.323-0.406l-0.008 0.010c0.081-0.097 0.163-0.193 0.247-0.289s0.168-0.19 0.25-0.285c0.035-0.035 0.072-0.068 0.112-0.097l0.003-0.002 0.026-0.030c0.078-0.067 0.147-0.137 0.238-0.21l0.012-0.010 0.067-0.062c0.24-0.228 0.519-0.406 0.797-0.583 0.028-0.019 0.057-0.035 0.086-0.051l0.111-0.048c0.010-0.004 0.020-0.010 0.029-0.012 0.038-0.017 0.095-0.039 0.153-0.059l0.020-0.006 0.117-0.036c0.14-0.040 0.279-0.074 0.416-0.117 0.222-0.073 0.477-0.115 0.743-0.115 0.014 0 0.028 0 0.041 0l-0.002-0zM4.105 9.037c-0.071 0.004-0.153-0.003-0.215 0.057-0.084 0.084-0.135 0.199-0.135 0.327 0 0.133 0.057 0.254 0.147 0.338l0 0c0.050 0.045 0.117 0.072 0.189 0.072s0.139-0.027 0.19-0.072l-0 0c0.146-0.127 0.183-0.314 0.096-0.535-0.053-0.137-0.125-0.187-0.272-0.187zM19.951 9.099c0.087-0.001 0.163 0.053 0.23 0.146 0.014 0.010 0.029 0.020 0.043 0.032 0.022 0.019 0.030 0.040 0.053 0.064 0.099 0.113 0.207 0.224 0.31 0.334 0.006 0.007 0.011 0.015 0.014 0.024l0 0c0.001 0.003 0.002 0.006 0.002 0.009 0 0.005-0.001 0.009-0.004 0.013l0-0c-0.004 0.006-0.009 0.011-0.015 0.014l-0 0-0.010 0.015-0.002 0.002c-0.002 0.002-0.002 0.005-0.004 0.010 0 0.002-0.003 0.004-0.003 0.004h0.003v0.008c-0.145 0.146-0.106 0.283 0.010 0.415 0.006 0.012 0.014 0.024 0.014 0.036 0.096 0.127 0.016 0.254 0 0.382-0.003 0.012-0.005 0.016-0.015 0.021l-0.007 0.003c-0.010-0-0.020-0.002-0.030-0.005l0.001 0-0.010-0.003c-0.154-0.043-0.238-0.069-0.321-0.097l0.069 0.020c-0.007 0-0.012-0.004-0.019-0.007-0.007 0-0.012-0.007-0.019-0.007-0.004 0-0.010 0-0.015 0-0.037 0-0.073-0.007-0.105-0.020l0.002 0.001c-0.033-0.016-0.071-0.026-0.112-0.026-0.071 0-0.135 0.029-0.18 0.076l-0 0c-0 0.007-0.002 0.014-0.005 0.020l0-0c0.040 0.060 0.108 0.074 0.168 0.093 0.245 0.080 0.453 0.23 0.68 0.348 0.052 0.030 0.062 0.092 0.057 0.152-0.003 0.033-0.012 0.067-0.020 0.103l-0.072 0.31c0 0.003 0 0.006 0 0.009 0 0.025-0.007 0.048-0.020 0.068l0-0.001c0.003 0.168-0.115 0.293-0.17 0.437-0.007 0.012-0.012 0.017-0.020 0.041-0.046 0.123-0.089 0.221-0.137 0.317l0.008-0.019c0 0.007-0.010 0.017-0.012 0.024v-0.005c0 0.002-0.002 0.002-0.002 0.005l-0.005 0.010c-0.003 0.002-0.003 0.004-0.005 0.007-0.012 0.045-0.020 0.093-0.058 0.132-0.049 0.165-0.113 0.308-0.192 0.441l0.005-0.009c-0.007 0.012-0.012 0.012-0.017 0.036-0.062 0.144-0.127 0.317-0.19 0.475-0.014 0.058-0.026 0.115-0.040 0.17l-0.008 0.015c0 0.002-0.002 0.002-0.002 0.005 0 0.005-0.005 0.010-0.007 0.014 0 0.004 0 0.010 0 0.015 0 0.064-0.013 0.125-0.037 0.18l0.001-0.003c-0.012 0.039-0.022 0.082-0.034 0.12-0.001 0.007-0.003 0.014-0.005 0.020l0-0-0.201 0.912c-0.055 0.25-0.077 0.504-0.118 0.754-0.038 0.235-0.048 0.477-0.106 0.708-0.040 0.168-0.136 0.324-0.213 0.48-0.072 0.146-0.118 0.302-0.207 0.444l-0.007 0.015c-0.005 0.008-0.009 0.018-0.012 0.029l-0 0.001c-0.002 0.006-0.002 0.013-0.005 0.018l-0.007 0.033c-0.001 0.008-0.002 0.018-0.002 0.028 0 0.003 0 0.006 0 0.008l-0-0c0 0.012 0 0.024-0.003 0.036v0.036c0 0.005 0 0.011 0 0.016 0 0.020-0.001 0.039-0.002 0.058l0-0.003c-0.020 0.257-0.053 0.514-0.041 0.773 0.002 0.048-0.012 0.075-0.058 0.091l-0.057 0.022c-0.049 0.018-0.086 0.035-0.123 0.052l0.010-0.004-0.060 0.024c-0.031 0.012-0.050 0.022-0.099 0.034v-0.005c0 0-0.007 0.005-0.011 0.005l-0.133 0.055-0.093 0.038c-0.060 0.041-0.131 0.073-0.207 0.091l-0.004 0.001-0.036 0.021c-0.318 0.133-0.474 0.204-0.629 0.276l0.155-0.065c-0.081 0.024-0.165 0.072-0.247 0.11-0.089 0.040-0.175 0.075-0.264 0.114-0.139 0.062-0.278 0.12-0.418 0.182-0.004 0.002-0.012 0-0.016 0-0.128 0.048-0.26 0.118-0.38 0.173-0.048 0.026-0.117 0.053-0.177 0.077-0.11 0.043-0.135 0.038-0.159-0.075-0.072-0.052-0.079-0.141-0.105-0.216-0.027-0.072-0.048-0.15-0.072-0.223-0.005-0.024-0.017-0.020-0.017-0.034-0.024-0.033-0.024-0.064-0.036-0.098l-0.003-0.017c-0.007-0.005-0.007-0.012-0.010-0.019l-0.006-0.017h0.004c-0.033-0.1-0.070-0.199-0.093-0.3-0.024-0.067-0.067-0.132-0.080-0.202-0.002-0.011-0.004-0.023-0.004-0.035s0.001-0.024 0.004-0.036l-0 0.001 0.008-0.033 0.004-0.017c0.020-0.047 0.051-0.093 0.075-0.139 0.017-0.038 0.031-0.077 0.048-0.115s0.031-0.067 0.048-0.115c0.038-0.072 0.062-0.156 0.11-0.24 0-0.020 0.015-0.039 0.020-0.058 0.043-0.146 0.090-0.295 0.149-0.437 0-0.005-0.005-0.012-0.003-0.017 0.017-0.086 0.098-0.117 0.146-0.168v0.003c0.024-0.008 0.037-0.022 0.049-0.022 0.014-0.024 0.028-0.034 0.043-0.048 0.036-0.044 0.072-0.092 0.104-0.143l0.004-0.006c0.045-0.067 0.086-0.137 0.137-0.204 0.016-0.021 0.030-0.055 0.057-0.055 0.005 0 0.007 0 0.012 0.002 0.039 0.010 0.027 0.055 0.022 0.084-0.010 0.049-0.015 0.106-0.015 0.163s0.006 0.114 0.016 0.169l-0.001-0.006c0.012 0.084 0.026 0.168 0.033 0.252l-0.002 0.038c0.022 0.056 0.035 0.121 0.036 0.189v0.001c0.020 0.082 0.036 0.16 0.060 0.242 0.072 0.15 0.125 0.3 0.173 0.454l0.005-0.002c0.081 0.12 0.163 0.26 0.245 0.391 0.024 0.031 0.050 0.065 0.074 0.089h0.005v0.020c0.024 0 0.036 0.052 0.072 0.004-0.007-0.024-0.012-0.024-0.020-0.024-0.011-0.023-0.022-0.049-0.029-0.077l-0.001-0.003c-0.005-0.016-0.013-0.035-0.015-0.050-0.004-0.014-0.009-0.030-0.012-0.048l-0-0.002c-0.002-0.007-0.002-0.017-0.005-0.024-0.002-0.018-0.006-0.034-0.011-0.050l0.001 0.002-0.011-0.075-0.013-0.074c-0.007-0.007-0.007-0.017-0.007-0.026-0.002-0.010-0.004-0.020-0.010-0.030-0.002-0.028-0.007-0.057-0.011-0.086l-0.022-0.172c-0.002-0.030-0.012-0.058-0.014-0.087-0.010-0.1-0.015-0.216-0.015-0.333 0-0.215 0.019-0.425 0.054-0.63l-0.003 0.022h0.014c0.029-0.144 0.058-0.31 0.086-0.466 0.008 0 0.015 0.003 0.024 0.003-0.010 0.261 0.017 0.52 0.075 0.775 0.002 0.005 0.002 0.012 0.002 0.017 0.036 0.098 0.075 0.197 0.106 0.298 0.007 0.021 0.014 0.043 0.022 0.062 0.014 0.036 0.033 0.067 0.055 0.095l-0-0.001c0.007 0.012 0.021 0.024 0.021 0.036 0.024 0.019 0.036 0.040 0.056 0.060 0.014 0.016 0.026 0.036 0.040 0.053 0.050 0.048 0.104 0.093 0.166 0.156-0.005-0.028-0.011-0.076-0.016-0.124l-0.001-0.016c-0.004-0.043-0.012-0.086-0.016-0.134 0 0-0.013-0.007-0.013-0.012-0.001-0.039-0.005-0.076-0.011-0.113l0.001 0.005-0.040-0.33c0-0.009 0-0.016 0.002-0.025 0-0.010 0.003-0.027 0.003-0.027-0.013-0.101-0.021-0.218-0.021-0.337 0-0.027 0-0.055 0.001-0.082l-0 0.004-0.002-0.017c-0.010-0.057-0.016-0.124-0.016-0.191 0-0.063 0.005-0.125 0.015-0.186l-0.001 0.007c0.005-0.033 0.002-0.070 0.005-0.103 0-0.007-0.003-0.012-0.003-0.020 0-0.158 0.007-0.319 0.055-0.472l0.003-0.017c0.012-0.072 0.024-0.158 0.036-0.238 0.012-0.079 0.024-0.16 0.033-0.24 0.005-0.033 0.015-0.050 0.034-0.050 0.010 0 0.024 0.005 0.040 0.017l0.051 0.030 0.075 0.049c0.024 0.017 0.048 0.033 0.070 0.055 0.002 0.002 0.004 0.005 0.009 0.007 0.005 0.004 0.011 0.008 0.016 0.012l0.001 0h0.005v-0.002c0.168 0.084 0.261 0.226 0.374 0.358 0.051 0.038 0.089 0.089 0.109 0.149l0.001 0.002c0.075 0.098 0.13 0.204 0.169 0.322 0.002 0.010 0.007 0.021 0.010 0.030 0.002 0.010 0.007 0.006 0.009 0.030 0.020 0.024 0.031 0.055 0.043 0.084l0.034 0.084 0.019 0.040c0.005 0.010 0.010 0.017 0.017 0.024 0.010 0.012 0.024 0.021 0.040 0.024l0 0c0.027-0.088-0.035-0.172-0.011-0.256h0.007c0-0.024-0.007-0.025-0.007-0.037-0.024-0.156-0.044-0.31-0.109-0.453-0.002-0.012-0.002-0.039-0.002-0.039-0.058-0.144-0.086-0.29-0.17-0.417-0.019-0.015-0.033-0.037-0.037-0.062l-0-0.001c-0.026-0.024-0.040-0.053-0.055-0.081-0.003-0.003-0.015-0.024-0.028-0.044l-0.010-0.019v0.017c0-0.002-0.005-0.005-0.005-0.007v-0.003c-0.073-0.104-0.145-0.195-0.222-0.281l0.002 0.003-0.010-0.010c-0.010-0.010-0.020-0.010-0.030-0.033-0.057-0.024-0.112-0.096-0.17-0.147-0.007-0.007-0.014-0.010-0.019-0.017-0.005-0.004 0-0.010-0.024-0.016-0.12-0.082-0.209-0.183-0.314-0.255-0.020-0.024-0.044-0.010-0.053-0.048 0.31-0.019 0.61 0.017 0.922 0.036v-0.012h0.002c0.154 0.024 0.298 0.053 0.437 0.113 0.005 0 0.010 0.007 0.017 0.007v0.005c0.096 0.022 0.187 0.065 0.278 0.108 0.020 0.010 0.044 0.040 0.065 0.012 0.017-0.024-0.010-0.046-0.024-0.065-0.036-0.050-0.070-0.1-0.108-0.151-0.007-0.012-0.019-0.024-0.019-0.036-0.072-0.070-0.127-0.149-0.19-0.219-0.021-0.020-0.040-0.041-0.059-0.063l-0.001-0.001c-0.079-0.051-0.147-0.107-0.209-0.17l-0-0c-0.012-0.008-0.024-0.022-0.036-0.022-0.030 0-0.064-0.034-0.096-0.056-0.030-0.021-0.064-0.040-0.096-0.062-0.012-0.007-0.024-0.012-0.036-0.020-0.146-0.055-0.293-0.105-0.44-0.16-0.004 0-0.013-0.003-0.013-0.005 0 0-0.013 0-0.017-0.002-0.028-0.001-0.053-0.012-0.072-0.030l0 0c-0.012-0.009-0.021-0.021-0.027-0.034l-0-0.001-0.005-0.012c-0.007-0.020-0.010-0.041-0.007-0.063 0.001-0.017 0.002-0.037 0.002-0.058 0-0.057-0.005-0.114-0.015-0.168l0.001 0.006c-0.002-0.022-0.007-0.041-0.012-0.063-0.007-0.035-0.012-0.055-0.017-0.075l0.003 0.015-0.015-0.062c-0.011-0.046-0.019-0.076-0.028-0.106l0.004 0.016c0 0-0.010-0.002-0.010-0.009-0.023-0.146-0.080-0.293-0.124-0.437-0.007-0.019-0.010-0.033-0.017-0.057-0.031-0.048-0.052-0.105-0.057-0.167l-0-0.001c0-0.020 0-0.036 0.002-0.056l0.002-0.026c0.005-0.027 0.010-0.055 0.020-0.082l0.033-0.108c0-0.005 0-0.017 0.003-0.017h-0.003c0.031-0.17 0.099-0.314 0.147-0.468 0-0.002 0.005-0.002 0.005-0.005l0.010-0.010c0.002-0.002 0.004-0.002 0.004-0.004 0.034-0.044 0.054-0.1 0.054-0.161 0-0.009-0-0.017-0.001-0.026l0 0.001c-0.004-0.038-0.013-0.073-0.028-0.105l0.001 0.002c-0.016-0.043-0.038-0.084-0.060-0.127-0.002-0.005-0.010-0.010-0.014-0.012-0.002-0.003-0.005-0.005-0.005-0.008-0.086-0.101-0.157-0.219-0.206-0.347l-0.003-0.008-0.016-0.038c-0.005-0.005-0.005-0.010-0.008-0.017l-0.002-0.007c-0.002-0.005-0.005-0.010-0.007-0.016l-0-0.001 0.002 0.002-0.002-0.005c0.003-0.017 0.007-0.031 0.013-0.045l-0.001 0.002c0.004-0.010 0.010-0.017 0.014-0.026 0.005-0.007 0.012-0.014 0.020-0.022l0.009-0.007c0.065-0.094 0.125-0.192 0.197-0.283 0.039-0.045 0.063-0.105 0.063-0.17 0-0.029-0.005-0.058-0.014-0.084l0.001 0.002c-0.040-0.137-0.036-0.14 0.101-0.19 0.024-0.010 0.315-0.12 0.432-0.156l0.075-0.029 0.019-0.007c-0.116 0.032 0.053-0.032 0.222-0.096l0.287-0.094c0.005-0.002 0.012-0.002 0.017-0.002 0.141-0.072 0.293-0.118 0.441-0.168 0.020-0.007 0.036-0.015 0.060-0.020 0.024-0.019 0.096-0.035 0.12-0.055 0.12-0.038 0.216-0.093 0.324-0.117 0.045-0.038 0.103-0.063 0.166-0.067l0.001-0zM14.519 9.702c0.082 0.001 0.161 0.014 0.236 0.038l-0.006-0.002 0.014 0.004c0.259 0.080 0.523 0.142 0.77 0.26 0.041 0.019 0.084 0.038 0.113 0.077 0.16 0.115 0.307 0.247 0.43 0.405 0.19 0.245 0.38 0.492 0.557 0.773-0.011-0.003-0.022-0.008-0.034-0.013v-0.001c-0.071-0.031-0.132-0.065-0.188-0.105l0.003 0.002c-0.185-0.115-0.406-0.234-0.634-0.339l-0.040-0.017c-0.095-0.043-0.206-0.078-0.322-0.099l-0.009-0.001c-0.181-0.035-0.389-0.055-0.602-0.055-0.108 0-0.215 0.005-0.321 0.015l0.013-0.001c-0.084 0.007-0.17 0-0.255 0-0.062 0-0.091-0.030-0.091-0.092 0-0.235 0.012-0.472-0.060-0.7-0.015-0.048 0.014-0.068 0.055-0.082 0.11-0.041 0.238-0.066 0.37-0.067h0.001zM11.769 10.475c0.423-0.015 0.812 0.105 1.167 0.324 0.132 0.080 0.253 0.176 0.363 0.284l0.014 0.013c0.122 0.123 0.23 0.26 0.321 0.41 0.080 0.13 0.058 0.272 0.031 0.414-0.072 0.406-0.316 0.706-0.592 0.987-0.265 0.269-0.596 0.444-0.903 0.648-0.435 0.29-0.932 0.403-1.438 0.478-0.632 0.093-1.273 0.103-1.906 0.187-0.23 0.029-0.464 0.048-0.694 0.089-0.279 0.047-0.517 0.196-0.678 0.407l-0.002 0.003c-0.062 0.084-0.1 0.187-0.16 0.303-0.017-0.049-0.026-0.106-0.026-0.165 0-0.083 0.019-0.162 0.054-0.232l-0.001 0.003c0.112-0.238 0.297-0.425 0.526-0.537l0.007-0.003c0.415-0.219 0.879-0.262 1.323-0.375 0.36-0.091 0.73-0.144 1.087-0.242 0.546-0.148 1.020-0.336 1.466-0.569l-0.040 0.019c0.24-0.125 0.49-0.252 0.656-0.485 0.083-0.117 0.133-0.263 0.133-0.42 0-0.048-0.005-0.096-0.014-0.142l0.001 0.005c-0.005-0.034-0.015-0.050-0.027-0.053-0.012-0.002-0.029 0.007-0.050 0.027-0.18 0.16-0.367 0.314-0.571 0.449-0.32 0.206-0.673 0.33-1.038 0.42-0.58 0.144-1.166 0.266-1.764 0.31-0.452 0.029-0.874 0.115-1.273 0.252l0.034-0.010c-0.34 0.118-0.687 0.235-0.96 0.49-0.034 0.030-0.075 0.057-0.13 0.098l0.007-0.038-0.026 0.019v-0.005c0.009-0.006 0.016-0.013 0.024-0.017 0.017-0.076 0.046-0.143 0.085-0.202l-0.001 0.002 0.646-1.022c0.012-0.020 0.026-0.037 0.041-0.053l-0 0c0.334-0.329 0.653-0.677 1.023-0.965 0.614-0.48 1.284-0.855 2.055-1.020 0.187-0.041 0.377-0.070 0.571-0.070 0.22-0.002 0.442-0.010 0.66-0.016zM4.137 10.497c0.013 0 0.029 0.002 0.048 0.009 0.029 0.010 0.062 0.007 0.094 0.010 0.127 0.028 0.259 0.030 0.386 0.062 0.012 0 0.017 0.002 0.034 0.010 0.146 0.007 0.283 0.028 0.415 0.060l-0.015-0.003c0.145 0.020 0.289 0.036 0.433 0.060 0.033 0 0.062-0.002 0.093 0.017 0.005 0 0.012-0.002 0.012 0 0.168 0.020 0.3 0.031 0.445 0.055h-0.015v0.005c0.096 0.012 0.159 0.024 0.233 0.036 0.077 0.012 0.156 0.031 0.23 0.031h0.003c0.007 0 0.012 0.003 0.017 0.003l0.021 0.005c0.048 0.002 0.067 0.028 0.075 0.070 0.038 0.227 0.070 0.455 0.117 0.683 0 0.017 0.010 0.032 0.008 0.046l0.019 0.11c0.021 0.11 0.040 0.221 0.062 0.332 0 0.010 0 0.031 0.003 0.036v0.010c0.024 0.143 0.050 0.273 0.074 0.41v0.046c-0.12 0.131-0.221 0.283-0.296 0.449l-0.004 0.011c-0.031 0.075-0.070 0.152-0.1 0.226l-0.006 0.003c-0.024 0.076-0.062 0.15-0.098 0.223-0.003 0-0.005 0.005-0.007 0.010-0.005 0.009-0.008 0.024-0.012 0.030v0.003c-0.057 0.16-0.122 0.297-0.198 0.427l0.006-0.012c-0.008 0.020-0.024 0.039-0.024 0.056-0.024 0.090-0.046 0.182-0.092 0.266-0.014 0.085-0.040 0.161-0.076 0.23l0.002-0.004c-0.034 0.151-0.079 0.282-0.135 0.407l0.005-0.013c-0.007 0.019-0.019 0.036-0.019 0.055l-0.002 0.007c-0.003 0.007-0.005 0.020-0.010 0.029-0.002 0.011-0.005 0.021-0.010 0.031l0-0.001-0.002 0.010-0.038 0.742 0.021 0.008 0.094-0.185c0.031-0.060 0.055-0.123 0.089-0.185 0.019-0.043 0.050-0.086 0.050-0.13 0.072-0.12 0.137-0.24 0.211-0.35 0.008-0.012 0.022-0.020 0.030-0.043 0.062-0.097 0.134-0.224 0.208-0.334 0.026-0.043 0.054-0.080 0.078-0.123h-0.001c0.017-0.048 0.043-0.055 0.065-0.076 0.021-0.022 0.033-0.044 0.081-0.065 0 0.019 0.005 0.036 0.003 0.053l-0.003 0.010c0 0.009-0.004 0.018-0.007 0.028l-0.002 0.010c-0.003 0.007-0.003 0.012-0.005 0.019-0.001 0.005-0.002 0.010-0.002 0.015 0 0.002 0 0.003 0 0.005l-0-0c0 0.006-0.005 0.011-0.003 0.018l-0.003 0.015h0.003c-0.022 0.144-0.021 0.307-0.024 0.458 0 0.007-0.005 0.020-0.005 0.024l0.005-0.002c0.020 0.144 0.043 0.288 0.062 0.432h-0.002c0.003 0 0.005 0.031 0.005 0.043 0.024 0.144 0.055 0.29 0.072 0.437l0.002 0.017c0.003 0.010 0.005 0.017 0.005 0.026 0.024 0.116 0.11 0.195 0.163 0.296 0.039 0.055 0.080 0.12 0.116 0.168h0.002v0.002c0.12 0.106 0.22 0.214 0.355 0.31 0.020 0 0.039 0.024 0.058 0.024h-0.002v0.012c0.048 0.005 0.088 0.043 0.139 0.029 0.010-0.003 0.019-0.007 0.026-0.012l-0 0c0.007-0.005 0.017-0.010 0.020-0.017 0.011-0.022-0.010-0.034-0.027-0.041-0.197-0.125-0.166-0.33-0.19-0.521h0.008v-0.003c0.048 0.046 0.081 0.091 0.122 0.14 0.007 0.010 0.015 0.019 0.024 0.026l0 0 0.050 0.055c0.034 0.036 0.070 0.070 0.108 0.101 0.039 0.031 0.080 0.065 0.125 0.089 0.020 0.007 0.039 0.024 0.056 0.024h-0.005c0.144 0.070 0.269 0.137 0.4 0.206 0.031 0.004 0.058 0.017 0.080 0.036l-0-0c0.048 0.144 0.105 0.288 0.091 0.456 0.005 0 0.010 0.017 0.012 0.030 0.001 0.003 0.001 0.007 0.001 0.011 0 0.007-0.001 0.014-0.003 0.020l0-0c0.017 0.14 0.017 0.281-0.003 0.42 0.002 0.005 0.004 0.011 0.004 0.017 0 0.008-0.002 0.015-0.006 0.022l0-0c-0.003 0.005 0 0.007-0.002 0.012h0.002c0 0.14-0.002 0.278-0.038 0.415-0.003 0.137-0.046 0.27-0.060 0.406 0 0.005-0.003 0.010-0.005 0.017-0.008 0.026-0.020 0.057 0.038 0.050v-0.002c0.13-0.135 0.26-0.267 0.38-0.418v0.010c0.002-0.048 0.030-0.073 0.057-0.096 0.050-0.049 0.1-0.13 0.151-0.2 0.050-0.070 0.101-0.137 0.152-0.206l0.002-0.012c0.007-0.024 0.017-0.039 0.029-0.046 0.005-0.002 0.010-0.005 0.014-0.005h0.016c0.019 0.003 0.036 0.010 0.050 0.020l-0-0c0.030 0.017 0.055 0.033 0.080 0.050l-0.003-0.002c0.144 0.079 0.307 0.132 0.415 0.269 0.012 0.012 0.026 0.014 0.038 0.038 0.050 0.024 0.096 0.080 0.133 0.132l0.038 0.036c0.002 0.002 0.005 0.002 0.007 0.005 0.19 0.16 0.204 0.247 0.067 0.46-0.004 0.008-0.012 0.015-0.016 0.015-0.006 0.021-0.014 0.039-0.025 0.056l0.001-0.001c-0.006 0.014-0.013 0.026-0.020 0.037l0-0.001-0.010 0.017c-0.035 0.058-0.074 0.118-0.088 0.185-0.010 0.034-0.015 0.074-0.015 0.115 0 0.019 0.001 0.037 0.003 0.055l-0-0.002c0.026 0.094 0.050 0.19 0.070 0.286 0.012 0.057 0.024 0.115 0.028 0.175 0.020 0.142-0.048 0.228-0.168 0.288v-0.002c-0.024 0.002-0.026 0.017-0.038 0.024-0.006 0.006-0.012 0.010-0.020 0.014l-0 0c-0.011 0.009-0.023 0.017-0.036 0.025l-0.002 0.001c-0.034 0.021-0.060 0.050-0.077 0.086l-0 0.001c0 0.007 0 0.005-0.002 0.010-0.002 0.004 0 0.014-0.002 0.014h0.007v0.014c-0.024 0.070-0.036 0.12-0.048 0.156-0.003 0.010-0.007 0.017-0.010 0.024-0.002 0.008-0.007 0.012-0.010 0.017-0.002 0.005-0.007 0.010-0.009 0.012-0.006 0.006-0.015 0.010-0.024 0.012l-0 0h-0.007c-0.018-0.001-0.035-0.006-0.051-0.012l0.001 0c-0.034-0.012-0.078-0.029-0.138-0.048-0.004-0.002-0.009-0.002-0.011-0.005-0.003-0.002-0.008-0.004-0.012-0.004h-0l-0.027-0.012h-0.010v-0.010h-0.002c-0.072-0.024-0.14-0.038-0.204-0.065-0.038-0.014-0.080-0.026-0.12-0.043-0.050-0.012-0.1-0.036-0.151-0.036-0.14-0.048-0.281-0.072-0.416-0.12-0.011 0-0.019 0.002-0.043 0v0.002c-0.096-0.019-0.173-0.043-0.264-0.060-0.089-0.014-0.122-0.060-0.113-0.148 0.005-0.037 0.003-0.080 0.003-0.116 0-0.012-0.003-0.017-0.003-0.040-0.014-0.025-0.036-0.053-0.055-0.085-0.006-0.008-0.010-0.016-0.014-0.025l-0-0.001c-0.012-0.012-0.036-0.024-0.036-0.038-0.024-0.005-0.015-0.010-0.022-0.015-0.074-0.070-0.053-0.163-0.043-0.252l0.002-0.029 0.008-0.055c0.002-0.010 0.002-0.020 0.004-0.026 0.039-0.15 0.048-0.29-0.113-0.38-0.019-0.012-0.030-0.024-0.055-0.040v0.004c-0.065-0.053-0.139-0.108-0.215-0.158l-0.010-0.007c-0.012-0.024-0.015-0.029-0.039-0.039-0.118-0.065-0.22-0.141-0.31-0.228l0 0-0.074-0.040h0.010c-0.015-0.025-0.032-0.022-0.044-0.034-0.019-0.014-0.036-0.024-0.060-0.039-0.12-0.103-0.283-0.199-0.413-0.316-0.045-0.015-0.074-0.050-0.11-0.080v-0.004c-0.127-0.090-0.252-0.176-0.377-0.272h0.003c-0.015 0-0.015-0.012-0.039-0.024-0.072-0.036-0.144-0.096-0.206-0.144-0.020-0.024-0.039-0.024-0.058-0.024-0.058-0.048-0.108-0.070-0.156-0.113-0.020-0.012-0.036-0.026-0.060-0.040-0.15-0.086-0.28-0.182-0.398-0.29l0.002 0.001-0.012-0.012-0.022-0.024c-0.018-0.023-0.032-0.050-0.038-0.080l-0-0.001v0.019c-0.087-0.094-0.144-0.202-0.216-0.3l-0.007-0.015c-0.003-0.004-0.005-0.009-0.005-0.014v-0c-0.002-0.008-0.003-0.016-0.003-0.025 0-0 0-0.001 0-0.001v0c0.004-0.020 0.012-0.038 0.024-0.053l-0 0c0-0.005 0.003-0.012 0.003-0.020 0.024-0.153 0.108-0.292 0.168-0.436v-0.037c0 0 0-0.022-0.003-0.032l-0.004-0.014-0.005-0.005c-0.005-0.005-0.010-0.008-0.017-0.010l-0-0h-0.007c-0.022 0.002-0.042 0.010-0.058 0.022l0-0c-0.021 0.013-0.039 0.027-0.055 0.043l0-0-0.020 0.015c-0.005 0.006-0.010 0.012-0.014 0.018l-0 0.001-0.007 0.010c0 0.002-0.002 0-0.002 0 0 0.002-0.003 0-0.003 0v0.002c-0.048 0.055-0.12 0.103-0.182 0.154-0.012 0.012-0.034 0.026-0.034 0.038v-0.002h-0.007c-0.020 0.024-0.045 0.024-0.072 0.012l-0.31-0.137c-0.024-0.012-0.036-0.038-0.040-0.062-0.002-0.006-0.005-0.017-0.007-0.028l-0.001-0.004-0.007-0.026v0.005c-0.036-0.168 0.022-0.293 0.053-0.437 0.002-0.012 0.005-0.024 0.005-0.036 0.024-0.14 0.033-0.288 0.074-0.423v-0.062c-0.021-0.154-0.022-0.305-0.033-0.459l0.002-0.079c-0.014-0.286-0.033-0.571-0.043-0.857-0.022-0.598-0.070-1.193-0.053-1.79 0-0.005 0-0.011 0-0.017 0-0.109-0.027-0.212-0.076-0.302l0.002 0.003c-0.035-0.065-0.068-0.119-0.103-0.171l0.004 0.007c-0.036-0.045-0.058-0.102-0.058-0.165 0-0.026 0.004-0.050 0.010-0.074l-0 0.002c0.036-0.14 0.063-0.284 0.089-0.425 0.009-0.050 0.022-0.084 0.059-0.085zM3.971 10.877l0.005 0.015c0.005 0.032-0.007 0.065-0.021 0.113-0.005-0.013-0.008-0.028-0.008-0.043s0.003-0.030 0.008-0.044l-0 0.001c0.005-0.016 0.010-0.030 0.017-0.044l-0.001 0.002zM14.686 10.88c0.13-0.002 0.257 0.005 0.381 0.024 0.219 0.017 0.42 0.058 0.55 0.164 0.094 0.040 0.188 0.090 0.279 0.144 0.22 0.132 0.441 0.269 0.662 0.403 0.047 0.028 0.086 0.064 0.117 0.107l0.001 0.001 0.223 0.315c0.012 0.016 0.031 0.036 0.015 0.057-0.005 0.007-0.012 0.012-0.020 0.014l-0 0c-0.018 0.004-0.034-0.002-0.050-0.011-0.098-0.056-0.2-0.108-0.298-0.164-0.341-0.192-0.735-0.349-1.151-0.452l-0.033-0.007c-0.107-0.031-0.208-0.061-0.323-0.076l-0.152-0.034c-0.004 0.003 0.005 0.012 0.017 0.024 0.005 0.005 0.010 0.010 0.012 0.015 0.011 0.013 0.025 0.024 0.040 0.033l0.001 0 0.020 0.010c0.227 0.115 0.612 0.187 0.892 0.317l0.058 0.029c0.156 0.081 0.298 0.182 0.44 0.29l0.268 0.207c0.404 0.293 0.65 0.689 0.77 1.169 0.003 0.014 0.008 0.029 0.010 0.043l0.010 0.014c0.020 0.030 0.024 0.065 0.017 0.096 0.002 0.008 0.002 0.015 0.005 0.022-0.005 0.070-0.060 0.040-0.092 0.040-0.222-0.012-0.43-0.052-0.628-0.115l0.018 0.005h-0.006c-0.051-0.016-0.118-0.040-0.165-0.054-0.211-0.075-0.41-0.163-0.615-0.238-0.252-0.089-0.449-0.261-0.662-0.413-0.373-0.258-0.7-0.526-1.003-0.818l0.002 0.002c-0.033-0.029-0.060-0.065-0.079-0.104l-0.001-0.002c-0.012-0.024-0.032-0.074-0.052-0.125l-0.010-0.028-0.036-0.094c-0.010-0.028-0.018-0.047-0.027-0.067l0.003 0.007-0.002-0.005c-0.003-0.002-0.003-0.007-0.003-0.010v-0.002l-0.002-0.010c-0.005-0.016-0.008-0.033-0.008-0.052 0-0.025 0.006-0.049 0.016-0.071l-0 0.001c0.002-0.005 0.002-0.010 0.005-0.014l0.005-0.017 0.004-0.014c0.003-0.005 0.003-0.013 0.005-0.017l0.003-0.015 0.002-0.017 0.003-0.014 0.002-0.017 0.002-0.014 0.003-0.017 0.002-0.014 0.003-0.017c0-0.005 0-0.010 0.002-0.015 0-0.004 0-0.012 0.003-0.016v-0.266c-0.003-0.082 0.026-0.114 0.108-0.111 0.080 0.002 0.162-0.001 0.243-0.005l0.075 0.004c0.040-0.002 0.081-0.005 0.122-0.005zM14.97 11.412c0.008 0.004 0.017 0.006 0.027 0.008l0.001 0h0.002c-0.012 0.008-0.028 0.005-0.033 0.020-0.004-0.020-0.002-0.027 0.003-0.028zM15.85 11.754c0.003 0.002 0.007 0.004 0.011 0.005l0.001 0.001 0.003 0.001zM13.942 11.931l0.002 0.003c0.007 0.003 0.014 0.010 0.022 0.024 0.076 0.154 0.182 0.281 0.3 0.399 0.124 0.12 0.259 0.23 0.389 0.348 0.268 0.242 0.542 0.48 0.818 0.713 0.178 0.151 0.392 0.228 0.62 0.288 0.518 0.132 1.049 0.182 1.575 0.254 0.139 0.020 0.264 0.065 0.374 0.156h-0.007c0.010 0.008 0.017 0.012 0.024 0.020-0.296-0.043-0.59-0.039-0.886-0.046-0.324-0.007-0.641 0.031-0.96 0.067-0.028 0.003-0.060 0.004-0.093 0.004-0.086 0-0.17-0.011-0.25-0.032l0.007 0.002c-0.308-0.070-0.598-0.195-0.889-0.317-0.329-0.14-0.602-0.353-0.862-0.588-0.019-0.020-0.038-0.036-0.057-0.055-0.083-0.080-0.151-0.175-0.202-0.279l-0.003-0.006-0.002-0.006c-0.090-0.212-0.085-0.448-0.016-0.708 0.019-0.070 0.040-0.14 0.062-0.209 0.007-0.023 0.020-0.035 0.034-0.032zM13.694 13.111c0.065 0.233 0.233 0.396 0.375 0.573l0.029 0.039 0.028 0.038c0.031 0.035 0.066 0.066 0.104 0.093l0.002 0.001c0.017 0.012 0.031 0.021 0.046 0.033l0.021 0.017c0.15 0.12 0.325 0.25 0.505 0.374l0.033 0.022 0.329 0.229c0.149 0.103 0.305 0.19 0.468 0.266 0.040 0.020 0.082 0.036 0.123 0.055 0.124 0.053 0.25 0.099 0.379 0.14l0.021 0.007c0.080 0.021 0.166 0.028 0.25 0.038 0.031 0.002 0.063 0.007 0.091 0.010 0.023 0.005 0.043 0.013 0.061 0.024l-0.001-0c0.026 0.015 0.048 0.032 0.068 0.050l-0-0c0.074 0.067 0.144 0.163 0.148 0.221 0 0.010 0 0.017-0.002 0.024-0.002 0.005-0.002 0.007-0.005 0.010-0.010 0.016-0.024 0.030-0.033 0.048-0.030 0.050-0.060 0.1-0.085 0.153l-0.011 0.027c-0.018 0.038-0.028 0.082-0.028 0.128 0 0.048 0.011 0.094 0.031 0.135l-0.001-0.002c0.115-0.115 0.218-0.237 0.293-0.377 0.032-0.057 0.061-0.124 0.084-0.193l0.002-0.008c0.010-0.027 0.003-0.058 0.010-0.084 0.010-0.029-0.024-0.070-0.010-0.090 0-0.001 0.003-0.001 0.005-0.004 0.004-0.003 0.009-0.006 0.014-0.007l0-0c0.010-0.002 0.020-0.005 0.027-0.005 0.019-0.002 0.036-0.005 0.055-0.005 0.048 0 0.094 0.008 0.14 0.022 0.028 0.010 0.019 0.045 0.016 0.072v0.005c-0.005 0.086-0.040 0.165-0.072 0.242-0.008 0.022-0.016 0.041-0.025 0.058l0.001-0.003c-0.053 0.143-0.117 0.267-0.196 0.381l0.004-0.006c-0.118 0.156-0.254 0.302-0.475 0.31h-0.063c-0.038 0-0.077 0.010-0.115 0.012-0.002-0-0.004-0-0.006-0-0.037 0-0.068 0.024-0.080 0.057l-0 0.001c-0.017 0.039-0.039 0.072-0.058 0.11l-0.007 0.017c-0.095 0.226-0.233 0.416-0.406 0.569l-0.002 0.001c-0.080 0.071-0.164 0.139-0.25 0.203-0.135 0.090-0.29 0.165-0.454 0.22l-0.014 0.004-0.036 0.014-0.034 0.015-0.019 0.007c-0.010 0.002-0.022 0.007-0.031 0.010-0.036 0.014-0.065 0.035-0.046 0.090 0.020 0.060 0.063 0.077 0.118 0.080 0.012 0 0.026 0 0.040-0.003 0.055-0.005 0.106-0.017 0.154-0.034l-0.004 0.001c0.048-0.017 0.096-0.039 0.146-0.060 0.034-0.015 0.067-0.029 0.103-0.041-0.029 0.122-0.045 0.235-0.084 0.341l-0.021 0.053c-0.047 0.106-0.077 0.169-0.108 0.232l0.018-0.040c-0.018 0.043-0.040 0.084-0.062 0.125-0.115 0.23-0.245 0.45-0.405 0.655-0.102 0.131-0.22 0.243-0.351 0.337l-0.005 0.003c-0.022 0.017-0.056 0.041-0.090 0.064l-0.013 0.009c-0.108 0.071-0.232 0.14-0.363 0.199l-0.017 0.007-0.064 0.030-0.053 0.020-0.043 0.018c-0.040 0.016-0.082 0.030-0.123 0.045-0.036 0.014-0.092 0.032-0.149 0.048l-0.019 0.005c-0.153 0.048-0.345 0.095-0.541 0.13l-0.029 0.004c-0.008 0-0.013 0.003-0.020 0.003-0.055 0.010-0.108 0.017-0.163 0.026-0.058 0.008-0.116 0.017-0.176 0.024-0.069 0.008-0.148 0.012-0.228 0.012-0.133 0-0.263-0.012-0.39-0.035l0.013 0.002-0.028-0.007c-0.055-0.016-0.103-0.036-0.148-0.062l0.003 0.002c-0.062-0.034-0.12-0.070-0.182-0.101-0.053-0.027-0.096-0.051-0.137-0.076l0.007 0.004c-0.062-0.037-0.115-0.072-0.165-0.11l0.005 0.004c-0.103-0.068-0.183-0.163-0.231-0.275l-0.002-0.004c-0.031-0.078-0.062-0.142-0.097-0.203l0.005 0.009c-0.010-0.020-0.021-0.036-0.030-0.053-0.088-0.138-0.179-0.258-0.279-0.369l0.002 0.002c-0.043-0.052-0.084-0.099-0.126-0.143l0.001 0.001c-0.021-0.024-0.040-0.048-0.062-0.070-0.088-0.099-0.173-0.189-0.26-0.276l-0.067-0.067c-0.11-0.108-0.228-0.207-0.355-0.296l-0.009-0.006c-0.087-0.064-0.186-0.128-0.289-0.185l-0.014-0.007-0.060-0.039c-0.284-0.181-0.503-0.442-0.626-0.751l-0.004-0.011c-0.043-0.093-0.107-0.122-0.22-0.124-0.003 0-0.007 0-0.011 0-0.087 0-0.17-0.018-0.246-0.050l0.004 0.002-0.002-0.002c-0.051-0.021-0.095-0.050-0.132-0.084l0 0-0.026-0.016c-0.022-0.026-0.038-0.058-0.058-0.090-0.131-0.188-0.259-0.403-0.372-0.628l-0.014-0.030c0 0.003 0.002 0.005 0.003 0.008l-0.006-0.013 0.003 0.005c-0.031-0.092-0.056-0.157-0.082-0.221l0.009 0.025-0.036-0.086c-0.010-0.033-0.016-0.071-0.016-0.111 0-0.015 0.001-0.030 0.003-0.045l-0 0.002 0.007-0.031c0.002-0.005 0.002-0.010 0.005-0.015 0.003-0.011 0.007-0.021 0.012-0.030l-0 0.001c0.033-0.056 0.075-0.103 0.126-0.14l0.001-0.001c0.019-0.016 0.041-0.033 0.064-0.048l0.003-0.002c0.046-0.034 0.094-0.063 0.14-0.094 0.071-0.044 0.143-0.084 0.218-0.123 0.271-0.14 0.56-0.238 0.857-0.314 0.017-0.005 0.033-0.008 0.053-0.012 0.033-0.008 0.070-0.010 0.105-0.015 0.036-0.002 0.072-0.005 0.106-0.005l0.106-0.002c0.016 0 0.036 0 0.052-0.002 0.353-0.016 0.665-0.038 0.974-0.069l-0.074 0.006c0.18-0.017 0.36-0.036 0.54-0.055 0.418-0.048 0.799-0.163 1.148-0.333l-0.021 0.009c0.036-0.020 0.074-0.036 0.11-0.055l0.063-0.034c0.144-0.077 0.288-0.151 0.427-0.233 0.014-0.020 0.031-0.026 0.055-0.033l0.010-0.003v0.012c-0.003 0.014-0.010 0.025-0.020 0.034l-0 0-0.021 0.014c-0.14 0.178-0.331 0.3-0.497 0.45-0.018 0.014-0.035 0.029-0.050 0.045l-0 0c-0.053 0.043-0.106 0.089-0.166 0.137 0.209 0 0.41-0.024 0.598-0.080 0.357-0.104 0.655-0.315 0.866-0.596l0.003-0.004c0.103-0.137 0.197-0.297 0.278-0.482zM10.429 13.127c-0.099 0.050-0.215 0.088-0.336 0.108l-0.007 0.001c-0.56 0.139-1.13 0.22-1.697 0.326-0.422 0.079-0.795 0.25-1.111 0.492l0.006-0.005c-0.019 0.015-0.040 0.032-0.062 0.043-0.026 0.017-0.039 0.013-0.043-0.010-0.003-0.004-0.003-0.011-0.003-0.018-0.010-0.144 0.034-0.214 0.166-0.274 0.18-0.082 0.36-0.168 0.54-0.252 0.235-0.108 0.487-0.142 0.742-0.168 0.396-0.043 0.792-0.094 1.19-0.14l0.524-0.086zM12.815 14.372l-0.026 0.001c-0.038 0.010-0.036 0.050-0.036 0.080 0.003 0.1 0.007 0.201 0.020 0.302 0.011 0.11 0.047 0.219 0.112 0.307 0.121 0.168 0.299 0.288 0.504 0.333l0.006 0.001c0.155 0.036 0.155 0.038 0.17 0.2 0.007 0.069 0.016 0.131 0.081 0.17 0.113 0.067 0.226 0.137 0.363 0.146 0.084 0.007 0.17 0.012 0.242 0.068 0.090 0.061 0.201 0.097 0.32 0.098h0c0.084 0.007 0.17 0.010 0.254 0.024 0.067 0.012 0.113-0.010 0.16-0.050 0.239-0.197 0.474-0.397 0.697-0.617-0.026-0.030-0.065-0.039-0.118-0.012-0.175 0.086-0.311 0.16-0.444 0.239l0.029-0.016c-0.032 0.022-0.070 0.039-0.111 0.048l-0.002 0c-0.216 0.044-0.465 0.071-0.719 0.074l-0.003 0c-0.139-0.007-0.266-0.055-0.37-0.131l0.002 0.001c-0.067-0.043-0.134-0.105-0.146-0.201 0.036-0.012 0.070 0.002 0.103 0.007 0.127 0.017 0.252 0.063 0.382 0.055 0.312-0.019 0.605-0.113 0.898-0.213l0.283-0.103c0.043-0.015 0.055-0.030 0.017-0.070-0.046-0.050-0.096-0.040-0.147-0.034-0.241 0.037-0.519 0.057-0.802 0.057-0.378 0-0.747-0.037-1.104-0.108l0.036 0.006c-0.18-0.034-0.372-0.046-0.442-0.27-0.019-0.060-0.038-0.12-0.050-0.182-0.017-0.067-0.049-0.124-0.094-0.17l0 0c-0.015-0.021-0.038-0.036-0.064-0.040l-0-0zM12.242 14.437c-0.048 0-0.080 0.050-0.103 0.093-0.060 0.103-0.137 0.196-0.207 0.292-0.108 0.147-0.26 0.178-0.418 0.154-0.48-0.079-1.071-0.143-1.669-0.178l-0.049-0.002c-0.030-0.002-0.058-0.010-0.082 0.010-0.183 0.134-0.367 0.264-0.483 0.468 0.007 0.002 0.015 0.007 0.020 0.007 0.019-0.002 0.035-0.007 0.055-0.010 0.297-0.074 0.607-0.098 0.922-0.072 0.398 0.034 0.792 0.113 1.188 0.168 0.053 0.008 0.106 0.010 0.156 0.036 0.12 0.063 0.18 0.173 0.226 0.29 0.070 0.18 0.090 0.373 0.103 0.565 0.010 0.151-0.022 0.278-0.144 0.38-0.093 0.069-0.163 0.164-0.199 0.274l-0.001 0.004c0.154 0 0.286 0.026 0.387 0.156 0.063 0.081 0.144 0.149 0.223 0.218 0.068 0.064 0.16 0.104 0.261 0.104 0.138 0 0.258-0.073 0.324-0.183l0.001-0.002c0.058-0.094 0.113-0.19 0.175-0.281 0.087-0.127 0.17-0.264 0.325-0.32 0.093-0.030 0.052-0.076 0.021-0.115-0.062-0.079-0.178-0.081-0.28-0.019-0.16 0.096-0.267 0.238-0.382 0.375-0.034 0.040-0.068 0.081-0.113 0.115-0.058 0.040-0.108 0.043-0.159-0.010-0.057-0.057-0.115-0.117-0.177-0.168-0.053-0.043-0.063-0.082-0.032-0.144 0.054-0.099 0.085-0.217 0.085-0.342 0-0.025-0.001-0.050-0.004-0.074l0 0.003c-0.029-0.312-0.080-0.62-0.3-0.867-0.024-0.026-0.024-0.040 0.010-0.064 0.229-0.157 0.384-0.409 0.408-0.698l0-0.003c0.007-0.075-0.007-0.135-0.067-0.156-0.007-0.002-0.014-0.004-0.022-0.004h-0zM16.703 14.472c0.205 0 0.387 0.080 0.566 0.182-0.005 0-0.007 0-0.012 0.003l0.031 0.017c-0.271 0.040-0.54 0.060-0.811 0.030-0.084-0.009-0.168-0.026-0.255-0.023-0.17 0.005-0.307-0.084-0.451-0.161h0.017c-0.012-0.007-0.024-0.012-0.036-0.020 0.024 0.003 0.050 0.003 0.074 0.005 0.029 0.003 0.055 0.010 0.084 0.015 0.238 0.050 0.468-0.020 0.704-0.043 0.027-0.003 0.058-0.005 0.089-0.005h0zM8.013 15.186c-0.006 0-0.011 0.002-0.016 0.004l0-0c-0.050 0.019-0.098 0.048-0.112 0.115-0.048 0.223 0.055 0.437 0.278 0.552 0.1 0.053 0.178 0.127 0.226 0.23 0.016 0.037 0.019 0.106 0.072 0.094s0.010-0.077 0.021-0.103c0.008-0.135-0.019-0.25-0.127-0.32-0.080-0.050-0.11-0.12-0.14-0.201-0.038-0.106-0.047-0.223-0.134-0.307-0.020-0.021-0.036-0.064-0.068-0.064zM9.856 15.54c-0.11 0.027-0.236 0.053-0.353 0.106-0.082 0.038-0.087 0.084-0.015 0.139 0.043 0.034 0.087 0.050 0.14 0.031 0.051-0.021 0.11-0.033 0.172-0.033 0.125 0 0.238 0.049 0.322 0.129l-0-0c0.089 0.077 0.205 0.124 0.333 0.124 0.069 0 0.134-0.014 0.194-0.038l-0.003 0.001c0.106-0.036 0.197-0.096 0.293-0.15 0.033-0.019 0.071-0.033 0.111-0.040l0.002-0c0.144-0.014 0.288-0.033 0.43-0.053 0.038-0.005 0.098 0.010 0.108-0.036 0.010-0.048-0.046-0.077-0.080-0.108-0.016-0.017-0.045-0.019-0.069-0.026-0.073-0.024-0.158-0.038-0.246-0.038-0.068 0-0.134 0.008-0.197 0.024l0.006-0.001c-0.133 0.030-0.287 0.048-0.444 0.048s-0.311-0.017-0.458-0.050l0.014 0.003c-0.080-0.019-0.163-0.019-0.259-0.031zM16.759 16.429c0.006 0 0.011 0.003 0.015 0.007s0.009 0.009 0.012 0.014l0 0 0.008 0.005c0.043 0.034-0.007 0.11-0.020 0.168-0.030 0.168-0.057 0.334-0.086 0.502-0.007 0.048-0.012 0.098-0.048 0.165l-0.007-0.043-0.012 0.024c-0.038-0.205-0.065-0.448-0.075-0.696l-0-0.010c-0.002-0.053 0.034-0.065 0.068-0.077 0.048-0.016 0.107-0.066 0.145-0.059zM13.54 17.331c-0.009 0.002-0.016 0.006-0.023 0.010l0-0c-0.19 0.105-0.404 0.11-0.613 0.137-0.088 0.012-0.199-0.015-0.264 0.050-0.158 0.156-0.293 0.091-0.432-0.020-0.007-0.004-0.014-0.011-0.024-0.014-0.206-0.11-0.413-0.15-0.624-0.005-0.057 0.045-0.13 0.073-0.21 0.073-0.020 0-0.040-0.002-0.059-0.005l0.002 0c-0.074-0.020-0.131-0.015-0.19 0.038-0.028 0.027-0.066 0.048-0.1 0.070-0.094 0.062-0.094 0.072-0.007 0.141 0.020 0.017 0.043 0.024 0.067 0.032 0.2 0.060 0.387 0.016 0.562-0.080 0.182-0.098 0.353-0.093 0.518 0.032 0.152 0.112 0.312 0.115 0.48 0.045 0.187-0.089 0.406-0.162 0.634-0.21l0.019-0.003c0.034-0.005 0.068-0.017 0.099 0.010 0.096 0.088 0.187 0.026 0.279-0.010 0.036-0.015 0.040-0.044 0.038-0.080-0.007-0.076-0.065-0.12-0.098-0.18-0.015-0.025-0.032-0.035-0.054-0.031zM8.822 17.401c0.009 0 0.020 0.006 0.032 0.017 0.039 0.036 0.075 0.074 0.113 0.11l0.015 0.014c0.019 0.017 0.021 0.039 0.012 0.060l-0.224 0.45-0.024-0.008c0-0.005 0.003-0.007 0.003-0.012 0.048-0.197 0.029-0.4 0.055-0.6 0.002-0.020 0.009-0.030 0.018-0.031zM12.722 17.989c-0.238 0.007-0.48 0.046-0.703 0.122-0.185 0.063-0.392 0.106-0.488 0.32-0.055 0.124-0.048 0.257-0.086 0.381 0.017 0.099 0.017 0.197 0.074 0.281 0.017 0.024 0.024 0.063 0.065 0.060 0.043-0.002 0.058-0.038 0.070-0.067 0.043-0.091 0.053-0.194 0.081-0.29 0.046-0.157 0.118-0.281 0.281-0.351 0.17-0.072 0.343-0.14 0.516-0.206 0.021-0.009 0.046-0.014 0.071-0.014 0.010 0 0.021 0.001 0.031 0.003l-0.001-0c0.214 0.030 0.437 0.021 0.627 0.146 0.013 0.009 0.028 0.014 0.045 0.014 0.006 0 0.012-0.001 0.018-0.002l-0.001 0c0.072-0.017 0.080-0.040 0.036-0.098-0.133-0.182-0.346-0.3-0.586-0.3-0.018 0-0.035 0.001-0.052 0.002l0.002-0zM10.504 18.731l0.014 0.017c0.094 0.117 0.187 0.218 0.25 0.336 0.151 0.29 0.374 0.501 0.662 0.655 0.135 0.072 0.256 0.172 0.414 0.19l0.003 0.001 0.018-0.001c0.017 0 0.040-0.003 0.036 0.024-0.003 0.014-0.017 0.014-0.031 0.012h-0.007c-0.005 0-0.010 0-0.015-0.003-0.167 0.005-0.33 0.033-0.493 0.067-0.085 0.018-0.17 0.038-0.255 0.058-0.027 0.009-0.109 0.028-0.191 0.046l-0.052 0.009h-0.003c-0.033 0.008-0.048 0.024-0.043 0.058 0.005 0.040 0.020 0.062 0.067 0.072 0.065 0.012 0.141 0.018 0.217 0.018 0.020 0 0.040-0 0.059-0.001l-0.003 0c0.118-0.003 0.235-0.015 0.353-0.034s0.256-0.030 0.396-0.030c0.135 0 0.267 0.010 0.397 0.030l-0.014-0.002c-0.43 0.070-0.785 0.312-1.174 0.475-0.202 0.084-0.358 0.245-0.55 0.348-0.014 0.017-0.022 0.044-0.036 0.060-0.031 0.039-0.036 0.118-0.087 0.11h-0.004c-0.005 0-0.010 0.003-0.015 0-0.099-0.009-0.19-0.040-0.269-0.088l0.003 0.002c-0.030-0.019-0.022-0.055-0.022-0.089v-0.453c0-0.032 0.012-0.067-0.019-0.090-0.106-0.066-0.080-0.182-0.106-0.278-0.010-0.038 0.017-0.057 0.039-0.081l0.278-0.31c0.063-0.067 0.089-0.142 0.043-0.223-0.086-0.163-0.072-0.32-0.002-0.485 0.055-0.13 0.091-0.267 0.142-0.42zM15.089 18.908c0.005 0.003 0.010 0.005 0.012 0.008l0.007-0.008c0.039 0.022 0.041 0.050 0.050 0.075 0.102 0.247 0.2 0.497 0.3 0.744 0.025 0.055 0.030 0.103-0.006 0.149-0.068 0.085-0.109 0.194-0.109 0.313 0 0.064 0.012 0.125 0.033 0.181l-0.001-0.003c0.067 0.206 0.019 0.348-0.183 0.449-0.034 0.022-0.075 0.035-0.12 0.036h-0c-0.002 0-0.004 0-0.007 0-0.031 0-0.059-0.011-0.081-0.030l0 0c-0.375-0.259-0.821-0.345-1.242-0.494-0.060-0.021-0.117-0.043-0.18-0.057-0.072-0.017-0.067-0.065-0.057-0.116 0.007-0.036 0.026-0.040 0.045-0.038 0.020-0.005 0.046 0.010 0.063 0.014 0.48 0.12 0.965 0.216 1.428 0.396 0.017 0.008 0.031 0.010 0.043 0.013 0.034-0.005 0.044-0.037 0.039-0.082-0.010-0.108-0.020-0.214-0.144-0.271-0.286-0.129-0.618-0.213-0.968-0.233l-0.007-0c-0.050-0.005-0.098-0.007-0.149-0.010 0.238-0.144 0.5-0.22 0.713-0.406 0.027-0.022 0.052-0.044 0.075-0.067l-0 0 0.398-0.482zM13.207 20.041h0.020c0.030-0.002 0.054 0.005 0.057 0.053 0 0.044 0.010 0.082-0.060 0.092-0.081 0.013-0.175 0.021-0.27 0.021-0.001 0-0.002 0-0.004 0h0c-0.094 0-0.185-0.010-0.278-0.031-0.050-0.012-0.070-0.046-0.065-0.086 0.002-0.027 0.021-0.027 0.040-0.027 0.004-0 0.008-0.001 0.012-0.001 0.010 0 0.019 0.001 0.028 0.004l-0.001-0h0.18c0.026 0.002 0.057 0.003 0.088 0.003 0.090 0 0.177-0.010 0.261-0.030l-0.008 0.002zM13.243 20.437c0.006 0 0.012 0.002 0.020 0.005 0.278 0.116 0.556 0.231 0.844 0.349-0.132 0.11-0.254 0.208-0.374 0.304-0.221 0.178-0.44 0.358-0.646 0.553-0.050 0.048-0.089 0.050-0.147 0.014-0.303-0.18-0.663-0.363-1.036-0.522l-0.061-0.023c-0.165-0.070-0.34-0.098-0.511-0.158 0.020-0.036 0.055-0.036 0.084-0.046 0.367-0.137 0.742-0.26 1.102-0.42 0.094-0.043 0.187-0.007 0.278 0.005 0.137 0.019 0.27 0.021 0.394-0.046 0.014-0.009 0.032-0.015 0.050-0.015 0.001 0 0.002 0 0.003 0h-0zM11.082 21.135c0.030 0.002 0.058 0.008 0.084 0.019l-0.002-0.001c0.197 0.077 0.38 0.185 0.569 0.274 0.001-0 0.002-0 0.002-0 0.010 0 0.020 0.004 0.027 0.010l-0-0c0.004 0.002 0.005 0.004 0.005 0.011v0.005c0 0.003-0.003 0.003-0.003 0.005-0.002 0.003-0.005 0.003-0.007 0.003l-0.010-0.003c-0.005-0.003-0.009-0.007-0.012-0.012l-0-0-0.862-0.214c0.074-0.059 0.133-0.1 0.209-0.097zM19.252 21.67c-0.142-0.004-0.26 0.062-0.372 0.15-0.029 0.022-0.046 0.048-0.094 0.017-0.105-0.072-0.206-0.053-0.295 0.039-0.049 0.050-0.085 0.114-0.102 0.184l-0.001 0.003c-0.125 0.504-0.252 1.006-0.372 1.512-0.041 0.169 0.048 0.255 0.223 0.229 0.158-0.025 0.238-0.116 0.264-0.32 0.026-0.197 0.053-0.391 0.11-0.595 0.15 0.187 0.29 0.362 0.433 0.538 0.139 0.17 0.29 0.321 0.494 0.412 0.144 0.065 0.269 0.027 0.382-0.074 0.041-0.034 0.066-0.085 0.066-0.142 0-0.023-0.004-0.045-0.012-0.065l0 0.001c-0.015-0.072-0.078-0.125-0.154-0.125-0.002 0-0.003 0-0.005 0h0c-0.060-0.005-0.112-0.031-0.152-0.070l0 0c-0.135-0.117-0.254-0.247-0.357-0.389l-0.005-0.007c-0.090-0.12-0.094-0.12 0.026-0.202 0.252-0.173 0.341-0.417 0.322-0.71-0.014-0.219-0.132-0.346-0.339-0.38-0.018-0.003-0.040-0.005-0.061-0.006l-0.001-0zM8.519 21.7c-0.040 0-0.077 0.020-0.097 0.075-0.019 0.050-0.053 0.043-0.091 0.038-0.037-0.007-0.081-0.010-0.125-0.010-0.212 0-0.404 0.088-0.54 0.229l-0 0c-0.38 0.37-0.574 0.814-0.552 1.354 0.014 0.358 0.22 0.53 0.569 0.451 0.689-0.16 1.224-0.835 1.253-1.582 0.007-0.192-0.168-0.47-0.34-0.538-0.023-0.010-0.049-0.016-0.077-0.017h-0zM6.589 21.758c-0.236 0.003-0.451 0.093-0.614 0.239l0.001-0.001c-0.346 0.302-0.547 0.693-0.646 1.138-0.011 0.045-0.018 0.097-0.018 0.15 0 0.123 0.034 0.238 0.094 0.335l-0.002-0.003c0.070 0.118 0.158 0.161 0.292 0.135 0.327-0.064 0.619-0.169 0.887-0.313l-0.017 0.008c0.087-0.046 0.161-0.102 0.225-0.168l0-0c0.052-0.052 0.084-0.124 0.084-0.204v-0c0-0.075-0.033-0.101-0.103-0.104-0.070-0.002-0.13 0.024-0.192 0.046-0.207 0.075-0.408 0.166-0.622 0.22-0.105 0.027-0.141 0.003-0.163-0.105-0.003-0.015-0.004-0.032-0.004-0.049 0-0.026 0.003-0.051 0.009-0.075l-0 0.002c0.040-0.168 0.098-0.331 0.187-0.483 0.061-0.114 0.143-0.209 0.243-0.281l0.002-0.002c0.14-0.089 0.283-0.137 0.442-0.040 0.052 0.030 0.103 0.016 0.15-0.013 0.072-0.046 0.125-0.116 0.149-0.199l0.001-0.002c0.016-0.050 0.002-0.090-0.044-0.116-0.098-0.062-0.214-0.103-0.339-0.115l-0.003-0zM15.789 21.828c-0.007-0-0.016-0-0.024-0-0.193 0-0.367 0.079-0.493 0.206l-0 0c-0.156 0.161-0.183 0.324-0.084 0.526 0.074 0.151 0.177 0.28 0.278 0.415 0.072 0.094 0.149 0.187 0.216 0.286 0.048 0.070 0.024 0.125-0.058 0.151-0.019 0.006-0.040 0.010-0.063 0.010-0.027 0-0.054-0.006-0.078-0.016l0.001 0c-0.145-0.053-0.27-0.131-0.375-0.23l0 0c-0.039-0.032-0.068-0.074-0.082-0.123l-0-0.002c-0.012-0.074-0.053-0.108-0.125-0.115-0.081-0.007-0.156-0.007-0.204 0.080-0.080 0.138-0.057 0.263 0.087 0.393 0.276 0.245 0.605 0.353 0.933 0.38 0.3 0.004 0.485-0.267 0.387-0.522-0.043-0.115-0.118-0.216-0.19-0.314-0.12-0.159-0.245-0.313-0.357-0.476-0.090-0.125-0.048-0.216 0.098-0.264 0.135-0.043 0.25-0.005 0.36 0.080 0.13 0.1 0.24 0.047 0.269-0.116 0.017-0.086-0.029-0.144-0.089-0.194-0.111-0.092-0.252-0.15-0.408-0.156l-0.001-0zM17.694 21.888c-0.137-0.003-0.274 0-0.41 0.016-0.164 0.020-0.32 0.065-0.38 0.248-0.002 0.010-0.014 0.024-0.024 0.026-0.187 0.048-0.252 0.202-0.302 0.358-0.106 0.346-0.2 0.696-0.298 1.042-0.024 0.084 0.010 0.14 0.080 0.182 0.054 0.034 0.11 0.032 0.172 0.015 0.324-0.080 0.648-0.166 0.987-0.142 0.002 0 0.005 0 0.007 0 0.044 0 0.085-0.011 0.121-0.030l-0.001 0.001c0.072-0.043 0.119-0.12 0.119-0.208 0-0.011-0.001-0.022-0.002-0.033l0 0.001c-0.014-0.091-0.086-0.117-0.163-0.13-0.052-0.008-0.113-0.014-0.175-0.016l-0.002-0c-0.219 0.001-0.434 0.020-0.643 0.055l0.023-0.003c0.031-0.228 0.048-0.242 0.264-0.242 0.161 0 0.322-0.010 0.473-0.072 0.101-0.043 0.166-0.113 0.176-0.226 0.007-0.076-0.025-0.122-0.104-0.124-0.023-0.001-0.050-0.002-0.078-0.002-0.040 0-0.079 0.001-0.118 0.004l0.005-0-0.453 0.040c0.024-0.052 0.036-0.1 0.062-0.136 0.044-0.062-0.007-0.178 0.084-0.209 0.075-0.024 0.164-0.007 0.245-0.010 0.214-0.004 0.427-0.007 0.634-0.074 0.079-0.021 0.145-0.067 0.191-0.129l0.001-0.001c0.070-0.108 0.043-0.18-0.082-0.185-0.136-0.006-0.273-0.014-0.41-0.016zM11.030 21.896c-0.071-0.003-0.13 0.042-0.185 0.093-0.139 0.133-0.268 0.275-0.385 0.425l-0.007 0.009-0.367 0.456c-0.020 0.024-0.040 0.070-0.080 0.050-0.030-0.014-0.018-0.055-0.014-0.086 0.010-0.11 0.024-0.218 0.036-0.329 0.015-0.144 0.034-0.288 0.010-0.432-0.031-0.173-0.156-0.22-0.295-0.113-0.034 0.028-0.065 0.058-0.093 0.090l-0.001 0.001c-0.104 0.122-0.203 0.257-0.29 0.4l-0.008 0.014c-0.225 0.348-0.432 0.71-0.703 1.027-0.050 0.060-0.103 0.118-0.149 0.182-0.048 0.072-0.067 0.154-0.022 0.23 0.041 0.068 0.11 0.092 0.188 0.087 0.081-0.004 0.125-0.064 0.168-0.122l0.626-0.852c0.012-0.015 0.017-0.044 0.053-0.034-0.005 0.030-0.009 0.067-0.012 0.106l-0 0.004c-0.010 0.137-0.038 0.274-0.010 0.413 0.034 0.159 0.16 0.224 0.306 0.152 0.078-0.043 0.145-0.093 0.204-0.152l-0 0c0.117-0.112 0.228-0.233 0.33-0.362 0.114-0.144 0.229-0.29 0.349-0.447 0.036 0.12 0.022 0.228 0.017 0.336-0.012 0.188-0.048 0.375-0.012 0.565 0.024 0.117 0.091 0.187 0.187 0.194 0.011 0.001 0.024 0.002 0.037 0.002 0.089 0 0.173-0.027 0.242-0.073l-0.002 0.001c0.125-0.079 0.137-0.237 0.020-0.343-0.033-0.028-0.055-0.068-0.063-0.112l-0-0.001c-0.026-0.13-0.004-0.257 0.017-0.384 0.039-0.245 0.115-0.485 0.103-0.737-0.004-0.098-0.019-0.19-0.12-0.237-0.022-0.012-0.048-0.019-0.075-0.021l-0.001-0zM19.070 22.085c0.117-0.010 0.175 0.064 0.141 0.177-0.016 0.051-0.040 0.095-0.071 0.133l0.001-0.001c-0.129 0.161-0.292 0.27-0.496 0.353 0.018-0.157 0.057-0.301 0.114-0.435l-0.004 0.010c0.062-0.134 0.163-0.223 0.315-0.237zM12.419 22.105c0.003-0 0.007-0 0.011-0 0.051 0 0.099 0.013 0.141 0.036l-0.002-0.001c0.076 0.043 0.098 0.146 0.045 0.233-0.050 0.073-0.111 0.134-0.183 0.182l-0.002 0.002c-0.137 0.106-0.298 0.189-0.473 0.24l-0.010 0.003c0.070-0.216 0.128-0.415 0.245-0.586 0.053-0.067 0.134-0.109 0.225-0.109 0.001 0 0.002 0 0.004 0h-0zM14.019 22.197c0.008-0 0.018-0.001 0.028-0.001 0.067 0 0.13 0.013 0.188 0.036l-0.003-0.001c0.113 0.046 0.151 0.1 0.149 0.269-0.035 0.329-0.192 0.615-0.424 0.818l-0.001 0.001c-0.087 0.076-0.199 0.126-0.322 0.136l-0.002 0c-0.147 0.012-0.262-0.081-0.247-0.228 0.028-0.321 0.115-0.624 0.33-0.876 0.074-0.088 0.182-0.146 0.303-0.154l0.001-0zM8.137 22.2c0.009-0.001 0.019-0.001 0.029-0.001 0.068 0 0.133 0.014 0.192 0.038l-0.003-0.001c0.11 0.043 0.149 0.098 0.144 0.262-0.033 0.328-0.189 0.615-0.421 0.817l-0.001 0.001c-0.088 0.077-0.199 0.127-0.323 0.14l-0.002 0c-0.15 0.011-0.266-0.082-0.252-0.233 0.030-0.315 0.116-0.613 0.325-0.86 0.075-0.092 0.186-0.154 0.311-0.163l0.001-0z"/>
</svg>