<svg xmlns="http://www.w3.org/2000/svg" version="1.1" width="24" height="24" viewBox="0 0 24 24">
<path d="M12 20.352c0 0-1.096-0.108-1.955-0.705-0.86-0.596-6.58-4.688-6.58-4.688v8.098c0 0 0.048 0.943 1.085 0.943h14.9c1.036 0 1.085-0.942 1.085-0.942v-8.1c0 0-5.723 4.092-6.58 4.69-0.86 0.595-1.955 0.704-1.955 0.704zM12 0.002c0 0-7.075-0.232-8.535 7.622v5.35c0 0 0.060 0.572 1.67 1.735 1.607 1.162 5.773 4.436 6.867 4.436 1.088 0 5.254-3.273 6.865-4.437 1.607-1.164 1.668-1.737 1.668-1.737v-5.35c-1.46-7.849-8.535-7.617-8.535-7.619zM16.846 10.538h-9.69v-2.914c0.984-3.9 4.844-3.954 4.844-3.954s3.863 0.054 4.846 3.954z"/>
</svg>