<svg xmlns="http://www.w3.org/2000/svg" version="1.1" width="24" height="24" viewBox="0 0 24 24">
<path d="M0.168 13.988c0.272 1.623 0.86 3.115 1.69 4.423 3.095-0.863 5.817-2.495 6.785-6.132 1.065-4.003-0.15-8.199-3.057-10.422-3.96 2.507-6.243 7.22-5.418 12.131zM23.832 10.013c1.098 6.534-3.308 12.722-9.844 13.819-1.1 0.185-2.19 0.214-3.245 0.103-3.492-0.381-6.494-2.207-8.436-4.858l-0.024-0.034 19.428-5.57c0.279-0.080 0.207-0.349-0.024-0.333l-8.145 0.569c1.148-1.108 2.021-2.467 1.915-4.345-0.214-3.043-3.311-6.013-9.071-7.967 1.629-0.88 3.567-1.398 5.625-1.398 0.439 0 0.872 0.024 1.298 0.069l-0.053-0.005c5.228 0.548 9.663 4.512 10.576 9.95z"/>
</svg>