<svg xmlns="http://www.w3.org/2000/svg" version="1.1" width="24" height="24" viewBox="0 0 24 24">
<path d="M21.463 8.653c-0.627 0-1.211 0.511-1.297 1.135l-0.637 4.647c-0.070 0.506-0.313 0.945-0.727 1.317-0.415 0.372-0.882 0.558-1.4 0.558-0.504 0-0.913-0.182-1.224-0.547-0.313-0.365-0.433-0.808-0.361-1.329l0.385-2.82c0.012-0.563-0.411-1.003-0.993-1.003h-1.525c-0.582 0-1.127 0.44-1.27 1.003l-0.397 2.82c-0.072 0.521-0.315 0.964-0.729 1.329s-0.872 0.547-1.376 0.547-0.915-0.186-1.234-0.558-0.443-0.811-0.373-1.317l0.854-6.166c0.091-0.6-0.265-1.228-0.808-1.482 0 0-6.43-2.68-6.849-2.853-0.425-0.174-0.906 0.216-1.070 0.866l-0.393 1.551c-0.165 0.649 0.207 1.388 0.824 1.641l4.31 1.784-0.646 4.659c-0.217 1.563 0.15 2.899 1.1 4.008 0.95 1.11 2.203 1.664 3.76 1.664 1.437 0 2.748-0.483 3.934-1.451 0.947 0.968 2.133 1.451 3.555 1.451 1.556 0 2.962-0.554 4.22-1.664 1.257-1.109 1.995-2.446 2.211-4.008 0 0 0.675-4.917 0.688-5.003 0.059-0.429-0.406-0.779-1.032-0.779h-1.5z"/>
</svg>