<svg xmlns="http://www.w3.org/2000/svg" version="1.1" width="24" height="24" viewBox="0 0 24 24">
<path d="M14.774 8.291l0.772-2.596 0.79 2.596zM18.622 10.559l-2.025-6.128c-0.045-0.135-0.097-0.224-0.154-0.266-0.059-0.041-0.152-0.063-0.28-0.063h-1.12c-0.010-0.001-0.022-0.001-0.034-0.001-0.092 0-0.178 0.026-0.252 0.070l0.002-0.001c-0.060 0.045-0.11 0.132-0.149 0.261l-2.045 6.128c-0.025 0.032-0.038 0.096-0.038 0.192 0 0.149 0.090 0.223 0.27 0.223h0.84c0.076 0 0.139-0.003 0.187-0.010 0.045-0.004 0.085-0.021 0.116-0.048l-0 0c0.033-0.032 0.059-0.071 0.076-0.114l0.001-0.002c0.022-0.051 0.046-0.119 0.072-0.202l0.318-1.071h2.306l0.327 1.051c0.026 0.090 0.051 0.16 0.077 0.213 0.022 0.047 0.051 0.086 0.087 0.12l0 0c0.031 0.028 0.070 0.047 0.114 0.053h0.002c0.045 0.006 0.103 0.010 0.173 0.010h0.897c0.18 0 0.27-0.074 0.27-0.223 0-0.004 0-0.008 0-0.012 0-0.027-0.002-0.054-0.005-0.081l0 0.003c-0.011-0.043-0.024-0.079-0.038-0.114l0.002 0.006zM17.628 13.026h-0.646c-0.168 0-0.279 0.024-0.333 0.072-0.055 0.049-0.082 0.147-0.082 0.295v3.638l-1.91-3.647c-0.076-0.155-0.152-0.253-0.226-0.295-0.074-0.041-0.204-0.063-0.39-0.063h-0.599c-0.167 0-0.278 0.025-0.332 0.073-0.055 0.048-0.082 0.147-0.082 0.294v6.138c0 0.148 0.025 0.246 0.077 0.294s0.16 0.072 0.328 0.072h0.656c0.167 0 0.278-0.024 0.332-0.072 0.055-0.048 0.082-0.146 0.082-0.294v-3.648l1.91 3.657c0.077 0.155 0.152 0.253 0.227 0.295 0.073 0.042 0.204 0.062 0.39 0.062h0.598c0.167 0 0.278-0.024 0.333-0.072 0.054-0.048 0.082-0.146 0.082-0.294v-6.138c0-0.148-0.028-0.246-0.082-0.294-0.055-0.048-0.166-0.073-0.333-0.073zM20.831 12.445l1.665 1.665v8.385h-20.991v-8.385l1.663-1.664c0.114-0.114 0.184-0.271 0.184-0.445s-0.070-0.331-0.184-0.445v0l-1.664-1.665v-8.386h20.991v8.384l-1.665 1.666c-0.113 0.114-0.184 0.271-0.184 0.444s0.071 0.331 0.185 0.445v0zM24 0h-24v10.613l1.387 1.387-1.387 1.387v10.613h24v-10.613l-1.387-1.387 1.387-1.387zM10.67 18.469h-2.71l2.855-4.014c0.034-0.045 0.063-0.096 0.085-0.151l0.002-0.004c0.012-0.038 0.019-0.081 0.019-0.126 0-0.003-0-0.006-0-0.010v0-0.772c0-0.148-0.028-0.246-0.082-0.294-0.055-0.048-0.166-0.073-0.334-0.073h-4.123c-0.149 0-0.245 0.028-0.29 0.082-0.045 0.055-0.068 0.169-0.068 0.343v0.58c0 0.172 0.023 0.287 0.068 0.341 0.045 0.055 0.141 0.083 0.29 0.083h2.545l-2.817 4.014c-0.063 0.072-0.103 0.166-0.107 0.269l-0 0.001v0.792c0 0.148 0.027 0.245 0.082 0.294 0.055 0.048 0.167 0.072 0.334 0.072h4.25c0.148 0 0.245-0.027 0.29-0.081 0.045-0.055 0.068-0.17 0.068-0.344v-0.579c0-0.173-0.023-0.287-0.068-0.342s-0.142-0.082-0.289-0.082zM9.408 8.233c0 0.264-0.017 0.484-0.052 0.661s-0.093 0.32-0.174 0.43c-0.079 0.106-0.188 0.187-0.313 0.23l-0.005 0.001c-0.135 0.043-0.29 0.068-0.451 0.068-0.013 0-0.025-0-0.037-0l0.002 0h-0.79v-4.17h0.79c0.366 0 0.63 0.11 0.79 0.324s0.241 0.571 0.241 1.067zM10.788 5.444c-0.225-0.457-0.533-0.795-0.921-1.013-0.39-0.219-0.88-0.328-1.47-0.328h-1.979c-0.167 0-0.278 0.024-0.333 0.072-0.054 0.049-0.082 0.147-0.082 0.294v6.138c0 0.148 0.028 0.246 0.082 0.295 0.055 0.048 0.166 0.072 0.333 0.072h2.218c1.048 0 1.765-0.447 2.15-1.342 0.090-0.205 0.153-0.413 0.188-0.622 0.035-0.219 0.054-0.472 0.054-0.729 0-0.023-0-0.047-0-0.070l0 0.004v-1.303c0-0.367-0.018-0.656-0.054-0.868-0.037-0.229-0.105-0.435-0.199-0.625l0.006 0.013z"/>
</svg>