<svg xmlns="http://www.w3.org/2000/svg" version="1.1" width="24" height="24" viewBox="0 0 24 24">
<path d="M3.673 9.181v-1.040h-3.673v5.723h3.68v-1.048h-2.494v-1.378h2.158v-1.017h-2.158v-1.241zM5.835 15.815l2.532-5.907h-1.24l-0.902 2.357-0.91-2.357h-1.234l1.546 3.604-1.010 2.303zM12.46 12.242v-0.444c0-1.232-0.75-1.966-1.89-1.966-1.179 0-2.013 0.78-2.013 2.058 0 1.27 0.834 2.058 2.043 2.058 0.926 0 1.684-0.536 1.821-1.285l-1.124-0.054c-0.085 0.275-0.337 0.436-0.727 0.436-0.505 0-0.804-0.314-0.827-0.803zM10.562 10.704c0.505 0 0.75 0.314 0.773 0.796h-1.592c0.031-0.505 0.345-0.796 0.819-0.796zM17.040 9.18v-1.040h-3.672v5.723h3.68v-1.048h-2.495v-1.378h2.158v-1.017h-2.158v-1.24zM22.5 9.83c-0.597 0-0.987 0.268-1.216 0.628-0.26-0.406-0.697-0.627-1.24-0.627s-0.864 0.206-1.040 0.482v-0.406h-1.056v3.956h1.117v-2.196c0-0.474 0.268-0.796 0.711-0.796 0.406 0 0.643 0.283 0.643 0.788v2.204h1.117v-2.333c0.046-0.398 0.291-0.658 0.689-0.658 0.428 0 0.658 0.283 0.658 0.788v2.204h1.117v-2.426c0-1.002-0.597-1.606-1.5-1.608z"/>
</svg>