<svg xmlns="http://www.w3.org/2000/svg" version="1.1" width="24" height="24" viewBox="0 0 24 24">
<path d="M10.492 0.008c-2.412-0.090-4.655 0.715-6.282 2.484-1.3 1.413-2.024 3.255-2.225 5.274h-0.42c-0.863 0-1.565 0.702-1.565 1.564v4.74c0 0.862 0.702 1.565 1.564 1.565h2.090c0.731 1.405 1.585 2.616 2.578 3.697l-0.011-0.012c4.458 4.845 10.69 6.032 14.552 3.014h2.1c0.577 0 1.050-0.473 1.050-1.050v-2.864c-0.003-0.257-0.1-0.491-0.258-0.669l0.001 0.001c0.857-3.431-0.045-7.637-2.518-11.211 0.002-0.017 0.010-0.032 0.010-0.049v-2.012c-0.002-0.45-0.366-0.815-0.816-0.818h-1.702c-2.51-2.29-5.432-3.552-8.148-3.654zM12.24 2.186c1.78-0.009 3.688 0.621 5.422 1.85-0.090 0.123-0.145 0.277-0.15 0.443l-0 0.001v2.012c0 0.448 0.368 0.819 0.816 0.819h2.014c0.146-0.004 0.28-0.046 0.395-0.118l-0.003 0.002c2.246 3.3 2.733 7.317 1.239 10.174h-1.963c-0.578 0-1.051 0.474-1.051 1.050v1.792c-2.989 1.3-7 0.222-9.957-2.99-0.565-0.618-1.077-1.304-1.517-2.038l-0.032-0.058c0.256-0.279 0.416-0.647 0.416-1.055v-4.74c0-0.862-0.702-1.564-1.564-1.564h-0.409c0.237-1.363 0.78-2.61 1.686-3.594 1.224-1.33 2.878-1.978 4.658-1.986zM18.328 4.196h2.014c0.162 0 0.283 0.122 0.283 0.284v2.012c0 0.163-0.12 0.285-0.283 0.285h-2.014c-0.002 0-0.003 0-0.005 0-0.155 0-0.28-0.125-0.28-0.28 0-0.002 0-0.004 0-0.005v0-2.012c-0-0.001-0-0.003-0-0.004 0-0.155 0.125-0.28 0.28-0.28 0.002 0 0.004 0 0.005 0h-0zM1.564 8.298h4.74c0.577 0 1.032 0.455 1.032 1.031v4.74c0 0.576-0.455 1.032-1.031 1.032h-4.74c-0.003 0-0.007 0-0.010 0-0.565 0-1.023-0.458-1.023-1.023 0-0.003 0-0.006 0-0.008v0-4.74c0-0.576 0.455-1.031 1.032-1.032zM20.010 17.901h2.863c0.291 0 0.52 0.226 0.52 0.518v2.863c0 0.002 0 0.004 0 0.006 0 0.283-0.229 0.512-0.512 0.512-0.003 0-0.006-0-0.008-0h-2.863c-0.002 0-0.005 0-0.008 0-0.282 0-0.51-0.228-0.51-0.51 0-0.003 0-0.006 0-0.008v0-2.862c-0-0.003-0-0.006-0-0.009 0-0.282 0.228-0.51 0.51-0.51 0.003 0 0.006 0 0.009 0h-0z"/>
</svg>