<svg xmlns="http://www.w3.org/2000/svg" version="1.1" width="24" height="24" viewBox="0 0 24 24">
<path d="M1.576 14.448l7.972-8.112c0.618-0.616 1.471-0.996 2.412-0.996s1.794 0.381 2.413 0.996l8.042 8.042 0.84-0.84c0.909-0.839 0.909-2.237 0.070-3.146l-9.722-9.65c-0.91-0.91-2.308-0.91-3.217 0l-9.65 9.65c-0.91 0.909-0.91 2.307 0 3.216zM13.604 7.175c-0.91-0.91-2.308-0.91-3.217 0l-9.65 9.65c-0.91 0.91-0.91 2.308 0 3.217l3.216 3.217c0.91 0.909 2.308 0.909 3.217 0l4.825-4.826 4.826 4.826c0.909 0.909 2.307 0.909 3.216 0l3.217-3.217c0.91-0.839 0.91-2.308 0.070-3.217z"/>
</svg>