<svg xmlns="http://www.w3.org/2000/svg" version="1.1" width="24" height="24" viewBox="0 0 24 24">
<path d="M24 12c0-6.648-5.352-12-12-12-6.624 0-12 5.352-12 12 0 6.624 5.376 12 12 12 6.648 0 12-5.376 12-12zM23.136 12c0 6.12-4.992 11.136-11.136 11.136-6.12 0-11.136-5.015-11.136-11.136 0-6.144 5.016-11.136 11.136-11.136 6.144 0 11.136 4.992 11.136 11.136zM16.248 11.28c-0.264 0-0.6 0-1.032 0.024l0.312-0.528h0.504c1.8 0 3.144 0.096 4.368 0.312l0.552-0.528c-1.368-0.24-3.024-0.384-4.704-0.384h-0.408l0.264-0.504h0.456c1.752 0 3.336 0.144 4.872 0.432l0.576-0.552c-1.728-0.336-3.576-0.503-5.568-0.503-0.849 0.003-1.698 0.043-2.544 0.12-0.96 2.063-2.496 3.264-4.224 3.24-0.672-0.025-1.513-0.312-2.592-0.889l-1.008-0.576 0.312-0.288 2.328 1.008 0.504-0.384-4.704-2.136-0.72 0.552-1.68-0.696 0.024 0.696c2.256 1.032 3.192 1.608 5.568 3.312 3.096 2.208 5.856 3.408 9.696 4.176l1.008-0.96h-0.24c-2.544 0-4.824-0.84-6.144-2.256 1.104-0.672 2.471-0.983 4.368-0.983 0.504 0 1.224 0.047 1.896 0.119l0.576-0.552c-0.9-0.11-1.805-0.166-2.712-0.168-0.609-0.001-1.217 0.023-1.824 0.072l0.432-0.528c0.511-0.030 1.024-0.046 1.536-0.048 1.272 0 2.112 0.048 3.072 0.192l0.552-0.528c-1.008-0.167-2.4-0.264-3.672-0.264z"/>
</svg>