<svg xmlns="http://www.w3.org/2000/svg" version="1.1" width="24" height="24" viewBox="0 0 24 24">
<path d="M12 18.82c-6.627 0-12-3.598-12-8.037s5.373-8.037 12-8.037 12 3.599 12 8.037-5.373 8.037-12 8.037zM13.837 5.888c-5.038 0-9.121 2.46-9.121 5.495s4.083 5.494 9.12 5.494 8.756-1.682 8.756-5.494-3.718-5.495-8.755-5.495zM18.275 15.194c0.456 0.138 0.837 0.285 1.205 0.456l-0.056-0.023c0.224 0.112 0.416 0.251 0.582 0.416l-0-0c0.104 0.11 0.193 0.236 0.262 0.374l0.004 0.009 2.863 4.826-4.627 0.002-2.163-4.063c-0.212-0.372-0.449-0.694-0.719-0.985l0.003 0.003c-0.136-0.151-0.331-0.247-0.548-0.25h-1.1v5.292l-4.093 0.001v-13.515h8.221c0 0 3.744 0.067 3.744 3.63 0 0.004 0 0.008 0 0.013 0 2.025-1.575 3.682-3.567 3.814l-0.011 0.001zM16.495 10.668l-2.479-0.001v2.298h2.479c0.004 0 0.009 0 0.015 0 0.626 0 1.134-0.508 1.134-1.134 0-0.013-0-0.025-0.001-0.038l0 0.002c0.001-0.018 0.002-0.039 0.002-0.060 0-0.591-0.479-1.070-1.070-1.070-0.028 0-0.056 0.001-0.083 0.003l0.004-0z"/>
</svg>