<svg xmlns="http://www.w3.org/2000/svg" version="1.1" width="24" height="24" viewBox="0 0 24 24">
<path d="M19.96 20c-0.177 0-0.32-0.143-0.32-0.32v0-15.36c0-0.177 0.143-0.32 0.32-0.32v0h3.71c0.003-0 0.006-0 0.010-0 0.177 0 0.32 0.143 0.32 0.32 0 0 0 0 0 0v0 15.36c0 0 0 0 0 0 0 0.177-0.143 0.32-0.32 0.32-0.004 0-0.007-0-0.011-0l0.001 0zM13.74 20c0 0-0.3-0.090-0.3-0.32v-9.43c0.001-0.021 0.001-0.045 0.001-0.070 0-1.204-0.976-2.18-2.18-2.18-0.007 0-0.015 0-0.022 0h-6.939c-0.4 0-0.3 0.3-0.3 0.3v11.38c0 0.27-0.3 0.32-0.3 0.32h-3.37c-0.003 0-0.006 0-0.010 0-0.177 0-0.32-0.143-0.32-0.32 0-0 0-0 0-0v0-15.36c0-0 0-0 0-0 0-0.177 0.143-0.32 0.32-0.32 0.004 0 0.007 0 0.011 0l-0.001-0h12.86c2.347 0.017 4.244 1.921 4.25 4.269v0.001l0.010 11.41c0 0.177-0.143 0.32-0.32 0.32v0zM6.84 20c-0.166 0-0.3-0.134-0.3-0.3v-9c0-0.166 0.134-0.3 0.3-0.3v0h3.77c0.161 0.006 0.29 0.138 0.29 0.3 0 0 0 0 0 0v0 9c0 0.166-0.134 0.3-0.3 0.3v0z"/>
</svg>