<svg xmlns="http://www.w3.org/2000/svg" version="1.1" width="24" height="24" viewBox="0 0 24 24">
<path d="M15.818 18.157c0.058-0.045 0.112-0.099 0.163-0.15 0.396-0.41 0.641-0.969 0.641-1.584s-0.244-1.175-0.641-1.585l0.001 0.001-7.802-8c-0.054 0.050-0.109 0.099-0.16 0.152-0.397 0.409-0.642 0.969-0.642 1.585s0.245 1.175 0.642 1.586l-0.001-0.001zM21.545 6.758c0.625 0.128 1.163 0.438 1.572 0.872l0.001 0.001c1.176 1.24 1.176 3.25 0 4.49l-5.557 5.847c-0.335 0.345-0.785 0.578-1.288 0.636l-0.010 0.001 3.304 3.395-17.11-3.758c-0.624-0.132-1.161-0.443-1.571-0.877l-0.001-0.001c-1.18-1.237-1.18-3.248 0-4.494l5.552-5.838c0.335-0.349 0.787-0.584 1.293-0.642l0.010-0.001-3.306-3.389z"/>
</svg>