<svg xmlns="http://www.w3.org/2000/svg" version="1.1" width="24" height="24" viewBox="0 0 24 24">
<path d="M21.822 1.248c-0.338 0.806-0.766 1.57-1.281 2.272-2.179-2.175-5.187-3.52-8.509-3.52-0.001 0-0.001 0-0.002 0h0c-6.599 0-12.030 5.43-12.030 12.031 0 3.293 1.35 6.445 3.737 8.717l0.444 0.393c2.079 1.759 4.789 2.829 7.75 2.83h0c6.275 0 11.55-4.911 11.997-11.172 0.328-3.065-0.572-6.941-2.106-11.551zM5.447 20.817c-0.194 0.24-0.49 0.38-0.8 0.38-0.567-0.003-1.026-0.463-1.028-1.030v-0c0-0.564 0.465-1.030 1.028-1.030 0.569 0.002 1.029 0.463 1.029 1.032 0 0.246-0.086 0.473-0.23 0.65l0.002-0.002zM21.772 17.215c-2.969 3.954-9.31 2.622-13.375 2.812 0 0-0.722 0.044-1.447 0.162 0 0 0.272-0.115 0.625-0.25 2.853-0.992 4.203-1.185 5.937-2.075 3.266-1.66 6.494-5.293 7.166-9.072-1.244 3.636-5.012 6.76-8.447 8.030-2.353 0.867-6.603 1.71-6.603 1.71l-0.172-0.090c-2.894-1.408-2.981-7.672 2.278-9.694 2.303-0.886 4.507-0.4 6.994-0.992 2.656-0.63 5.728-2.622 6.978-5.219 1.4 4.154 3.085 10.658 0.066 14.678z"/>
</svg>