<svg xmlns="http://www.w3.org/2000/svg" version="1.1" width="24" height="24" viewBox="0 0 24 24">
<path d="M3.927 2.596c0.264 0.045-0.397 1.778-0.028 3.76 0.318 1.697 4.313 8.275 4.148 10.529-0.128 1.418-3.408 4.74-3.753 4.52-0.377-0.105 0.996-2.361 0.486-4.244-0.59-2.191-4.107-7.86-4.103-10.363 0-1.832 3.011-4.32 3.25-4.202zM11.44 0.005c0.336 0.058-0.506 2.271-0.034 4.791 0.405 2.17 5.501 10.555 5.292 13.432-0.166 1.809-4.348 6.043-4.789 5.76-0.479-0.131 1.271-3.008 0.622-5.406-0.755-2.796-5.238-10.026-5.235-13.218 0-2.338 3.842-5.509 4.144-5.359zM19.194 2.596c0.27 0.045-0.393 1.778-0.023 3.761 0.318 1.697 4.313 8.275 4.148 10.529-0.125 1.418-3.408 4.74-3.754 4.52-0.377-0.105 0.996-2.361 0.488-4.244-0.594-2.192-4.11-7.861-4.105-10.363 0-1.832 3.014-4.32 3.248-4.202z"/>
</svg>