<svg xmlns="http://www.w3.org/2000/svg" version="1.1" width="24" height="24" viewBox="0 0 24 24">
<path d="M7.843 13.76c-0.461 0.005-0.921-0.013-1.38-0.052v-5.068c0.263-0.018 0.581-0.027 0.981-0.030l0.591-0.002c1.724 0 2.695 0.889 2.695 2.49 0 1.622-1.102 2.661-2.886 2.661zM21.001 0h-18c-1.657 0-3 1.343-3 3v18c0 1.657 1.343 3 3 3h18c1.657 0 3-1.343 3-3v-18c0-1.657-1.343-3-3-3zM15.151 20.831l-0.089 0.135c-0.252 0.115-0.653 0.184-1.038 0.184-1.23 0-2.266-0.474-2.959-1.308-0.825-0.951-2.051-2.769-3.204-4.824-0.664 0-0.912-0.005-1.233-0.021l-0.162-0.012v3.394c0 1.143 0.184 1.451 0.741 1.535l1.104 0.15 0.13 0.15v0.617l-0.156 0.15c-0.904-0.037-1.808-0.058-2.712-0.063-0.573 0-1.169 0.015-1.865 0.038l-0.698 0.026-0.154-0.15v-0.618l0.123-0.147 0.806-0.15c0.564-0.107 0.75-0.409 0.75-1.533v-8.394c0-1.124-0.186-1.427-0.747-1.534l-0.808-0.151-0.129-0.145v-0.618l0.156-0.15c1.231 0.035 2.463 0.031 3.693-0.011 0.741-0.022 1.185-0.031 1.718-0.031 2.683 0 4.419 1.305 4.419 3.642 0 1.65-1.251 3.25-2.919 3.737 0.921 1.606 2.078 3.184 3.112 4.317 0.614 0.663 1.329 1.080 1.971 1.080l0.15 0.15zM20.392 7.086c0 0.454-0.008 0.67-0.034 0.91-0.023 0.244-0.068 0.484-0.135 0.719-0.186 0.576-0.483 0.99-0.935 1.299-0.45 0.307-1.027 0.473-1.65 0.473-0.638 0-1.181-0.147-1.626-0.443-0.448-0.297-0.769-0.74-0.96-1.32-0.038-0.112-0.068-0.227-0.090-0.344-0.055-0.315-0.087-0.633-0.096-0.953-0.016-0.505-0.016-1.010 0-1.515 0.011-0.319 0.043-0.638 0.098-0.952 0.022-0.119 0.051-0.233 0.089-0.344 0.192-0.581 0.513-1.023 0.961-1.32 0.445-0.297 0.99-0.444 1.628-0.444 0.328 0 0.625 0.039 0.892 0.116 0.266 0.078 0.504 0.184 0.713 0.322s0.387 0.297 0.537 0.48c0.148 0.18 0.27 0.375 0.362 0.571 0.073 0.13 0.045 0.27-0.105 0.36l-0.76 0.311c-0.14 0.078-0.282 0.027-0.351-0.111-0.186-0.341-0.318-0.505-0.516-0.63-0.229-0.147-0.499-0.218-0.771-0.203-0.345 0-0.504 0.053-0.759 0.233-0.237 0.161-0.413 0.399-0.496 0.673-0.056 0.171-0.090 0.348-0.102 0.528-0.047 0.779-0.047 1.561 0 2.34 0.012 0.18 0.046 0.357 0.102 0.528 0.065 0.248 0.222 0.462 0.438 0.6 0.241 0.163 0.527 0.245 0.818 0.235 0.292 0.008 0.579-0.073 0.825-0.231 0.201-0.136 0.349-0.337 0.418-0.57l0.042-0.146c0.026-0.093 0.047-0.188 0.062-0.284 0.021-0.13 0.026-0.24 0.026-0.529h-1.157l-0.003-0.005c-0.153 0-0.255-0.102-0.255-0.255v-0.705c0-0.151 0.102-0.255 0.255-0.255h2.28c0.151 0 0.255 0.104 0.255 0.255z"/>
</svg>