<svg xmlns="http://www.w3.org/2000/svg" version="1.1" width="24" height="24" viewBox="0 0 24 24">
<path d="M15.684 0h-7.368c-6.724 0-8.316 1.592-8.316 8.316v7.368c0 6.724 1.592 8.316 8.316 8.316h7.368c6.724 0 8.316-1.592 8.316-8.316v-7.368c0-6.724-1.609-8.316-8.316-8.316zM19.376 17.123h-1.744c-0.66 0-0.864-0.525-2.050-1.727-1.033-1-1.49-1.135-1.744-1.135-0.356 0-0.458 0.102-0.458 0.593v1.575c0 0.424-0.135 0.678-1.253 0.678-1.846 0-3.896-1.118-5.335-3.202-2.168-3.048-2.762-5.335-2.762-5.809 0-0.254 0.102-0.491 0.593-0.491h1.744c0.44 0 0.61 0.203 0.78 0.677 0.863 2.49 2.303 4.675 2.896 4.675 0.22 0 0.322-0.102 0.322-0.66v-2.576c-0.068-1.186-0.695-1.287-0.695-1.71 0-0.204 0.17-0.407 0.44-0.407h2.744c0.373 0 0.508 0.203 0.508 0.643v3.473c0 0.372 0.17 0.508 0.271 0.508 0.22 0 0.407-0.136 0.813-0.542 1.254-1.406 2.151-3.574 2.151-3.574 0.119-0.254 0.322-0.491 0.763-0.491h1.744c0.525 0 0.644 0.27 0.525 0.643-0.22 1.017-2.354 4.031-2.354 4.031-0.186 0.305-0.254 0.44 0 0.78 0.186 0.254 0.796 0.779 1.203 1.253 0.745 0.847 1.32 1.558 1.473 2.050 0.17 0.49-0.085 0.744-0.575 0.745z"/>
</svg>