<svg xmlns="http://www.w3.org/2000/svg" version="1.1" width="24" height="24" viewBox="0 0 24 24">
<path d="M23.996 4.685c0-2.080-1.674-3.774-3.727-3.774h-16.549c-2.055-0.001-3.725 1.693-3.725 3.779v7.536c0 0.336 0.045 0.667 0.135 0.997 0.030 0.134 0.070 0.264 0.12 0.39 0.25 0.623 0.653 1.17 1.173 1.593 0.51 0.524 1.17 1.095 1.965 1.71l0.105 0.074 0.435 0.33 0.52 0.397c1.19 0.912 3.205 2.453 6.165 4.71 0.483 0.366 1.038 0.676 1.383 0.676 0.343 0 0.902-0.31 1.383-0.676 2.96-2.257 4.972-3.798 6.164-4.71l0.972-0.74h-0.002l0.11-0.085c0.798-0.612 1.463-1.19 1.968-1.71 0.514-0.418 0.908-0.96 1.15-1.576 0.166-0.44 0.252-0.906 0.254-1.376v-7.15h-0.003l0.003-0.003zM19.856 10.927c-0.093-0.017-0.188-0.032-0.283-0.045-0.105 0-0.226-0.015-0.33-0.015-0.278-0.006-0.556 0.050-0.81 0.164-0.214 0.1-0.4 0.248-0.54 0.436-0.135 0.196-0.23 0.415-0.286 0.646-0.060 0.254-0.090 0.524-0.090 0.81v2.88h-5.027l-3.734-5.583-1.556 1.575v3.975h-2.72v-12.37h2.716v5.13l4.83-5.127h3.396l-4.83 4.885 5.166 7.293v-6.179h1.662v1.182h0.023c0.084-0.195 0.195-0.38 0.33-0.547 0.144-0.168 0.3-0.312 0.483-0.43 0.18-0.106 0.375-0.21 0.58-0.27s0.42-0.090 0.64-0.090c0.114 0 0.24 0.030 0.38 0.060z"/>
</svg>