<svg xmlns="http://www.w3.org/2000/svg" version="1.1" width="24" height="24" viewBox="0 0 24 24">
<path d="M19.565 5.106c-0.083 0-0.166 0.002-0.248 0.006l0.012-0c-0.074 0-0.148 0-0.221 0.007-0.506 0.111-1.072 0.246-1.438 0.634-0.552 0.631-0.442 1.69 0.202 2.222 0.885 0.79 1.72 1.657 2.29 2.708 0.624 0.965 0.731 2.259 0.16 3.274-0.63 1.283-1.887 2.18-3.26 2.515 0.38 0.998 0.437 2.3 0.437 2.3s1.157-0.32 1.64-0.537c0.545-0.263 1.117-0.507 1.55-0.943 0.434-0.295 0.75-0.724 1.035-1.163 0.32-0.512 0.612-1.048 0.862-1.595 0.157-0.492 0.347-0.98 0.374-1.505 0.025-0.208 0.039-0.449 0.039-0.694 0-0.565-0.076-1.113-0.218-1.633l0.010 0.043c-0.378-1.016-1.090-1.875-1.93-2.545 0.772-0.008 1.547 0.030 2.317-0.019 0.432 0 1.253-0.42 0.544-0.754-0.385-0.12-0.782 0.090-1.16 0.109-0.315-0.139-0.973-0.324-0.725-0.776 0.288-0.598-0.153-1.082-0.69-1.277-0.484-0.278-1.032-0.379-1.582-0.378zM13.146 5.766c-1.18 0.034-2.404 0.178-3.425 0.823-1.054 0.695-1.908 1.677-2.554 2.757 0.032-0.004 0.060-0.005 0.070 0.002 0.017 0.010 0.112 0.027 0.213 0.037 0.201 0.024 1.527 0.4 1.591 0.451 0.080 0.064 0.656 0.343 0.71 0.343 0.094 0 0.057-0.057-0.070-0.114-0.267-0.114-0.499-0.256-0.428-0.256 0.131 0 0.36 0.101 0.542 0.24 0.198 0.154 0.733 0.383 0.979 0.42 0.269 0.037 0.962 0.303 1.14 0.43 0.088 0.068 0.22 0.152 0.286 0.189 0.056 0.027 0.103 0.061 0.145 0.1l-0-0c0.037 0.058 0.078 0.038 0.060-0.030-0.010-0.033-0.067-0.090-0.13-0.124-0.064-0.034-0.108-0.080-0.101-0.1s-0.135-0.129-0.32-0.236c-0.182-0.108-0.34-0.226-0.35-0.26-0.014-0.030-0.034-0.057-0.047-0.057-0.051-0.026-0.094-0.060-0.131-0.1l-0-0c-0.061-0.058-0.101-0.102-0.091-0.102 0.023 0 0.296 0.175 0.32 0.206 0.036 0.043 0.238 0.134 0.265 0.117 0.017-0.010 0.054 0.010 0.088 0.048 0.080 0.087 0.097 0.084 0.148-0.020l0.040-0.088 0.070 0.090c0.055 0.068 0.078 0.081 0.098 0.044 0.016-0.022 0.027-0.050 0.030-0.079l0-0.001c0-0.034-0.17-0.121-0.42-0.212-0.071-0.031-0.132-0.066-0.188-0.107l0.003 0.002c-0.128-0.1-0.010-0.087 0.242 0.030 0.118 0.051 0.303 0.122 0.414 0.152s0.25 0.078 0.303 0.101c0.296 0.135 0.384 0.178 0.511 0.263 0.060 0.045 0.131 0.078 0.209 0.093l0.003 0.001c0.037 0 0.078 0.023 0.088 0.050 0.013 0.027 0.034 0.044 0.047 0.034 0.014-0.010 0.080 0.020 0.148 0.067 0.067 0.044 0.121 0.071 0.121 0.057 0-0.010 0.024 0.014 0.054 0.054 0.040 0.057 0.064 0.068 0.094 0.044 0.030-0.027 0.060-0.017 0.105 0.030 0.033 0.037 0.080 0.064 0.107 0.061 0.040-0.010 0.347 0.296 0.347 0.347 0 0.010 0.064 0.064 0.144 0.117 0.078 0.054 0.152 0.111 0.165 0.132 0.014 0.016 0.040 0.033 0.058 0.033 0.016 0 0.104 0.054 0.195 0.118 0.087 0.064 0.168 0.114 0.178 0.118 0.044 0.003 0.33 0.222 0.42 0.323 0.125 0.134 0.058 0.097-0.188-0.101-0.333-0.273-0.535-0.36-0.535-0.232 0 0.033-0.023 0.070-0.050 0.084-0.047 0.017-0.047 0.027 0.003 0.080 0.067 0.075 0.141 0.088 0.080 0.014-0.050-0.060-0.003-0.064 0.071-0.007 0.030 0.024 0.047 0.057 0.040 0.080-0.010 0.024 0.010 0.034 0.051 0.021 0.067-0.017 0.242 0.118 0.242 0.185 0 0.017 0.209 0.168 0.465 0.33 0.454 0.29 0.67 0.45 0.535 0.404-0.032-0.010-0.068-0.017-0.106-0.020l-0.002-0c-0.024 0-0.091-0.038-0.145-0.085-0.094-0.077-0.235-0.087-0.188-0.013 0.010 0.017-0.010 0.030-0.044 0.030-0.040 0.003-0.024 0.020 0.050 0.060 0.081 0.044 0.098 0.071 0.071 0.098s-0.017 0.047 0.040 0.081c0.044 0.020 0.095 0.060 0.108 0.084 0.014 0.027 0.050 0.047 0.078 0.047 0.027 0 0.064 0.037 0.087 0.084 0.020 0.044 0.047 0.074 0.064 0.068 0.014-0.010 0.034 0.010 0.047 0.047 0.010 0.033 0.148 0.192 0.303 0.35 0.158 0.158 0.286 0.306 0.286 0.323 0 0.030-0.222 0.094-0.276 0.077-0.017-0.003-0.027 0.007-0.027 0.027s-0.030 0.020-0.074 0.003-0.077-0.040-0.074-0.057c0.003-0.047-0.060-0.101-0.145-0.121-0.11-0.030-0.094 0.016 0.054 0.151 0.125 0.111 0.128 0.121 0.060 0.138-0.007 0.002-0.014 0.003-0.022 0.003h-0c0.032 0.037 0.063 0.073 0.093 0.111 0.755-0.6 1.66-1.235 1.777-2.276 0.154-1.283-0.886-2.277-1.854-2.94-0.592-0.432-1-1.091-1.279-1.759-0.287-0.61-0.007-1.883-0.007-1.883s-1.418-0.112-2.085-0.124zM2.396 8.576c-0.080 0.008-0.178 0.014-0.277 0.017l-0.005 0c-0.233 0.014-0.24 0.014-0.223 0.094 0.010 0.054 0.060 0.105 0.155 0.148 0.135 0.068 0.976 0.303 1.397 0.394 0.12 0.027 0.232 0.060 0.252 0.077 0.064 0.050 0.249 0.071 0.262 0.030 0.010-0.026 0.064-0.016 0.165 0.031 0.121 0.057 0.441 0.145 0.586 0.158 0.020 0.003 0.043 0.030 0.057 0.064 0.013 0.030 0.070 0.067 0.128 0.080 0.057 0.010 0.097 0.038 0.090 0.058-0.016 0.047-0.198 0.027-0.232-0.024-0.020-0.030-0.033-0.030-0.054 0.003-0.023 0.034-0.063 0.034-0.201 0.003-0.098-0.023-0.175-0.053-0.175-0.070 0-0.054-0.064-0.024-0.084 0.040-0.014 0.037-0.037 0.060-0.054 0.047-0.017-0.010-0.024-0.030-0.014-0.043 0.007-0.017-0.107-0.091-0.262-0.165-0.219-0.111-0.407-0.165-0.912-0.276-0.166-0.042-0.386-0.084-0.61-0.116l-0.040-0.005c-0.010 0.010 0.041 0.047 0.115 0.087 0.108 0.060 0.114 0.067 0.037 0.050-0.148-0.030-0.111 0.010 0.094 0.102 0.131 0.057 0.185 0.097 0.172 0.13-0.020 0.051 0.047 0.129 0.097 0.119 0.071-0.014 0.111 0.007 0.121 0.060 0.017 0.094-0.11 0.145-0.265 0.108-0.038-0.010-0.116-0.027-0.194-0.041l-0.036-0.006c-0.056-0.007-0.208-0.037-0.336-0.060-0.103-0.023-0.23-0.043-0.358-0.054l-0.012-0.001c-0.103-0.006-0.2-0.020-0.293-0.042l0.011 0.002c-0.115-0.027-0.155-0.024-0.175 0.010-0.017 0.027-0.088 0.040-0.182 0.037-0.084-0.003-0.151 0.010-0.151 0.023 0 0.017 0.127 0.030 0.286 0.030 0.279 0 0.353 0.014 0.353 0.068 0 0.050-0.121 0.064-0.222 0.020-0.078-0.030-0.111-0.030-0.172 0.007-0.064 0.044-0.084 0.040-0.158-0.007-0.077-0.050-0.090-0.050-0.108-0.007-0.020 0.057-0.13 0.054-0.235-0.003-0.057-0.030-0.047-0.040 0.080-0.060 0.172-0.027 0.169-0.040-0.013-0.064-0.090-0.010-0.158 0-0.202 0.033-0.060 0.044-0.060 0.048-0.003 0.051 0.094 0 0.030 0.067-0.064 0.067-0.055-0.002-0.107-0.014-0.154-0.034l0.003 0.001c-0.051-0.027-0.064-0.027-0.057 0.007 0.010 0.047-0.111 0.053-0.226 0.010-0.037-0.017-0.057-0.017-0.043 0 0.013 0.013 0 0.043-0.030 0.067-0.044 0.034-0.034 0.040 0.077 0.040 0.074 0 0.188 0.010 0.259 0.024 0.074 0.013 0.124 0.010 0.124-0.010 0-0.044 0.236-0.024 0.367 0.033 0.074 0.034 0.104 0.064 0.090 0.105-0.010 0.047-0.002 0.054 0.041 0.030 0.040-0.023 0.074-0.017 0.115 0.020 0.050 0.044 0.074 0.047 0.158 0.010 0.057-0.023 0.117-0.026 0.144-0.010 0.024 0.014 0.152 0.030 0.28 0.034 0.272 0.007 0.373 0.027 0.44 0.080 0.027 0.020 0.081 0.045 0.125 0.048 0.131 0.017 0.239 0.044 0.34 0.080 0.128 0.051 0.7 0.179 0.716 0.162 0.007-0.007-0.057-0.034-0.14-0.057-0.085-0.024-0.152-0.057-0.152-0.078 0-0.033 0.097-0.020 0.346 0.058 0.142 0.043 0.165 0.047 0.182 0.003 0.010-0.027 0.037-0.050 0.064-0.050s0.047-0.024 0.047-0.055c0-0.027-0.013-0.040-0.034-0.030-0.016 0.010-0.033 0.003-0.033-0.013 0-0.020 0.023-0.037 0.050-0.037 0.030 0 0.050 0.030 0.050 0.080 0 0.068 0.020 0.081 0.139 0.101 0.077 0.014 0.148 0.014 0.158 0.003s-0.007-0.017-0.037-0.017-0.057-0.016-0.057-0.033c0-0.044-0.007-0.044 0.296 0.030 0.141 0.037 0.35 0.074 0.46 0.088 0.327 0.030 0.435 0.063 0.892 0.265 0.225 0.103 0.468 0.203 0.678 0.283 0.003-0.035 0.008-0.070 0.013-0.106-0.124-0.046-0.24-0.106-0.247-0.136-0.010-0.040 0.007-0.044 0.091-0.017l0.176 0.052c-0.017-0.116 0.406 0.020 0.454-0.112 0.028-0.076-0.691-0.282-0.664-0.372 0.026-0.090 0.387 0.062 0.465-0.026 0.060-0.067-0.181-0.212-0.12-0.291 0.040-0.053 0.413 0.237 0.468 0.185 0.070-0.068-0.413-0.337-0.36-0.432 0.041-0.072 0.285 0.115 0.372 0.057 0.136-0.090-0.040-0.044 0.066-0.17 0.020-0.024 0.051-0.032 0.090-0.032 0.007-0.016 0.016-0.031 0.024-0.047l0.058 0.002c0.071-0.003 0.088-0.010 0.051-0.030-0.023-0.012-0.050-0.021-0.078-0.027l-0.002-0c0.005-0.007 0.008-0.013 0.011-0.020l0.002-0.003c-0.131-0.092-0.352-0.239-0.576-0.381l-0.104-0.062-0.043-0.013c-0.199-0.064-0.43-0.105-0.668-0.115l-0.005-0c-0.333-0.017-0.333-0.017-0.152 0.027 0.438 0.101 0.976 0.28 0.976 0.32 0 0.027-0.023 0.037-0.057 0.027-0.4-0.122-1.38-0.39-1.42-0.39-0.034-0.001-0.066-0.014-0.090-0.034l0 0c-0.020-0.020-0.139-0.047-0.27-0.064-0.146-0.018-0.274-0.043-0.399-0.075l0.022 0.005c-0.077-0.025-0.148-0.038-0.158-0.028-0.037 0.034 0.024 0.121 0.094 0.142 0.058 0.013 0.064 0.026 0.034 0.057-0.030 0.030-0.054 0.030-0.098-0.007-0.030-0.027-0.063-0.044-0.070-0.037-0.030 0.027-0.209-0.037-0.226-0.081-0.013-0.037-0.043-0.044-0.090-0.030-0.040 0.013-0.081 0.007-0.095-0.014-0.030-0.047-0.508-0.138-0.508-0.097 0 0.043-0.212-0.003-0.242-0.054-0.030-0.040-0.094 0.030-0.094 0.104 0 0.064-0.067 0.054-0.242-0.040-0.058-0.036-0.126-0.063-0.199-0.076l-0.004-0.001zM6.4 9.051c0.322 0.097 0.377 0.105 0.377 0.057 0-0.028-0.35-0.146-0.632-0.214 0.082 0.049 0.168 0.102 0.255 0.157zM6.145 8.894c-0.223-0.134-0.411-0.236-0.478-0.244-0.078-0.005-0.15-0.018-0.219-0.039l0.007 0.002c-0.034-0.020-0.226 0.024-0.226 0.054 0 0.020 0.199 0.067 0.841 0.209zM7.080 9.494c0.077 0.051 0.136 0.092 0.148 0.101 0.013 0.010 0.043 0.031 0.083 0.055l0.155 0.007c0.243 0.010 0.431 0.044 0.673 0.115 0.364 0.11 0.42 0.12 0.42 0.070 0-0.030-0.416-0.168-0.706-0.232-0.399-0.088-0.627-0.139-0.742-0.17zM7.31 9.65c-0.16-0.007-0.14 0 0.005 0.035l0.095 0.023zM7.41 9.708l0.040 0.020c-0.047 0.027-0.29-0.109-0.437-0.109l-0.033 0.062c0.304 0.079 0.947 0.257 1.254 0.35 0.033 0.010 0.057 0 0.057-0.027 0-0.037-0.464-0.193-0.881-0.296zM5.1 8.758h-0.038c-0.030 0.002-0.054 0.006-0.065 0.013-0.047 0.027 0.148 0.068 0.316 0.068 0.070-0.003 0.088-0.010 0.050-0.030-0.078-0.031-0.168-0.050-0.262-0.051h-0.001zM1.996 8.906c-0.020 0-0.024 0.014-0.014 0.034 0.010 0.017 0.037 0.033 0.054 0.033 0.020 0 0.024-0.016 0.014-0.033-0.011-0.019-0.031-0.032-0.054-0.034l-0-0zM2.206 8.976h-0.026c-0.037 0-0.047 0.010-0.020 0.021 0.023 0.010 0.053 0.007 0.063-0.003 0.010-0.008 0.001-0.015-0.017-0.018zM7.64 9.112c0.005 0 0.009 0 0.013 0.003l-0.096 0.045-0.010-0.005c-0.058 0.042-0.118 0.1-0.148 0.1-0.033 0 0.067-0.133 0.148-0.1 0.033-0.025 0.066-0.044 0.093-0.043zM5.788 9.814c0.027 0 0.040 0.014 0.030 0.034-0.010 0.017-0.034 0.034-0.054 0.034-0.017 0-0.030-0.017-0.030-0.034 0-0.020 0.023-0.034 0.054-0.034zM0.826 10.154h-0.026c-0.037 0-0.047 0.010-0.020 0.020 0.024 0.010 0.054 0.008 0.064-0.002 0.010-0.008 0.001-0.015-0.018-0.018zM1.040 10.242l0.064 0.070c0.034 0.040 0.094 0.081 0.135 0.091 0.037 0.014 0.151 0.054 0.245 0.091 0.145 0.057 0.195 0.060 0.283 0.030 0.084-0.030 0.121-0.026 0.161 0.007 0.084 0.064 0.186 0.108 0.296 0.125l0.004 0c0.047 0 0.040-0.014-0.024-0.064l-0.080-0.060 0.14 0.010c0 0 0 0 0 0 0.071 0 0.137 0.019 0.195 0.051l-0.002-0.001c0.027 0.020 0.047 0.027 0.047 0.014s0.020-0.010 0.043 0.007c0.068 0.053 0.189 0.074 0.202 0.033 0.007-0.023 0.078-0.007 0.195 0.050 0.202 0.095 0.475 0.162 0.663 0.162 0.068 0 0.232 0.024 0.36 0.054 0.39 0.088 0.693 0.145 0.963 0.182 0.144 0.020 0.346 0.067 0.454 0.104 0.252 0.088 0.323 0.101 0.3 0.060-0.014-0.016 0.002-0.030 0.030-0.030 0.030 0 0.053 0.024 0.053 0.050 0 0.031 0.020 0.041 0.058 0.028 0.037-0.014 0.047-0.010 0.030 0.017-0.020 0.037 0.017 0.057 0.090 0.043 0.014 0 0.024 0.010 0.024 0.027s0.037 0.037 0.084 0.044c0.011 0.003 0.024 0.005 0.038 0.005 0.008 0 0.015-0.001 0.023-0.002l-0.001 0-0.024-0.003 0.104-0.213c-0.070-0.040-0.18-0.085-0.305-0.12-0.129-0.041-0.239-0.086-0.343-0.138l0.013 0.006c-0.093-0.047-0.164-0.067-0.178-0.047-0.012 0.020-0.033 0.033-0.057 0.034h-0c-0.023 0-0.020-0.017 0.003-0.047 0.057-0.067-0.249-0.165-0.552-0.172-0.349-0.008-0.683-0.059-1.001-0.148l0.029 0.007c-0.212-0.057-0.34-0.074-0.353-0.050-0.014 0.020-0.148 0.007-0.39-0.044-0.202-0.040-0.438-0.084-0.522-0.094-0.076-0.008-0.145-0.021-0.211-0.039l0.009 0.002c-0.097-0.019-0.213-0.032-0.33-0.037l-0.005-0c-0.291-0.010-0.564-0.035-0.832-0.073l0.041 0.005zM6.193 11.223l0.003 0.002c-0.002 0.064 0 0.128 0.003 0.192-0.001 0-0.002 0-0.003 0-0.010 0-0.020-0.003-0.028-0.007l0 0c-0.017-0.010-0.030-0.003-0.030 0.014 0 0.008-0.010 0.014-0.024 0.017 0.142 0.019 0.283 0.030 0.444 0.035 0.303 0.007 0.609 0.104 0.552 0.171-0.024 0.030-0.027 0.047-0.003 0.047s0.045-0.014 0.057-0.033l0-0c0.013-0.020 0.084 0 0.178 0.047 0.088 0.043 0.236 0.104 0.33 0.13 0.212 0.061 0.383 0.149 0.383 0.193 0 0.016 0.024 0.023 0.051 0.013 0.027-0.013 0.050-0.003 0.050 0.017 0 0.047-0.161 0.114-0.205 0.084-0.017-0.010-0.030-0.003-0.030 0.013s-0.037 0.024-0.084 0.014c-0.047-0.007-0.084-0.027-0.084-0.044s-0.010-0.027-0.024-0.027c-0.074 0.014-0.11-0.007-0.090-0.044 0.016-0.026 0.006-0.030-0.030-0.016-0.038 0.013-0.058 0.003-0.058-0.027 0-0.027-0.024-0.050-0.054-0.050-0.027 0-0.044 0.013-0.030 0.030 0.023 0.040-0.047 0.027-0.3-0.061-0.127-0.042-0.281-0.078-0.438-0.102l-0.016-0.002c-0.217-0.030-0.458-0.074-0.746-0.135-0.3 0.636-0.585 1.279-0.848 1.932-1.36 2.488-3.238 2.791-3.238 2.791v2.477c1.517-0.004 3.034-0.009 4.55-0.016-0.24-2.505 1.376-5.035 3.753-5.863-0.069-0.034-0.127-0.068-0.182-0.106l0.005 0.003c-0.064-0.044-0.145-0.070-0.178-0.060-0.040 0.010-0.165-0.048-0.323-0.145-0.069-0.045-0.169-0.105-0.27-0.163l-0.036-0.019c-0.199-0.115-0.363-0.223-0.522-0.338l0.017 0.012c0.080 0 0.501 0.151 0.69 0.249 0.13 0.067 0.269 0.12 0.31 0.12 0.072 0.012 0.137 0.038 0.193 0.076l-0.002-0.001c0.067 0.044 0.219 0.138 0.336 0.212 0.056 0.034 0.107 0.067 0.146 0.094 0.14-0.047 0.283-0.090 0.426-0.125-0.080-0.036-0.244-0.116-0.417-0.198-0.171-0.086-0.387-0.179-0.609-0.261l-0.047-0.015c-0.189-0.064-0.351-0.135-0.504-0.22l0.016 0.008c-0.056-0.034-0.169-0.095-0.282-0.153l-0.061-0.029c-0.070-0.030-0.192-0.1-0.27-0.151-0.066-0.045-0.143-0.091-0.222-0.132l-0.013-0.006c-0.067-0.027-0.087-0.054-0.070-0.094 0.017-0.044 0.010-0.050-0.027-0.027-0.070 0.044-0.121 0.044-0.232 0.010l-0.206-0.060c-0.084-0.027-0.1-0.024-0.090 0.016 0.010 0.047 0.289 0.169 0.447 0.195 0.067 0.010 0.209 0.085 0.42 0.222 0.065 0.040 0.088 0.064 0.051 0.051-0.054-0.020-0.144-0.047-0.235-0.072l-0.034-0.008c-0.441-0.143-0.803-0.288-1.154-0.453l0.060 0.025c-0.457-0.202-0.565-0.236-0.891-0.266-0.088-0.011-0.158-0.022-0.227-0.035l0.021 0.003zM6.614 10.381l-0.043 0.084c0.065 0.030 0.182 0.034 0.196-0.003 0.007-0.020-0.034-0.047-0.091-0.057-0.024-0.006-0.044-0.014-0.063-0.025l0.001 0.001zM8.143 12.135c0.030 0 0.092 0.024 0.249 0.076 0.212 0.074 0.366 0.155 0.992 0.529 0.057 0.033 0.145 0.1 0.199 0.148l0.097 0.084h-0.090c-0.145 0-0.811-0.367-0.811-0.448 0-0.020-0.027-0.043-0.064-0.050-0.040-0.010-0.054 0-0.037 0.027 0.020 0.030 0.007 0.030-0.047 0.003-0.081-0.044-0.098-0.088-0.020-0.057 0.026 0.010 0.050 0.003 0.050-0.014 0-0.020-0.030-0.034-0.067-0.034s-0.068-0.016-0.068-0.033c0-0.020-0.020-0.034-0.040-0.034-0.068-0.017-0.127-0.040-0.183-0.069l0.005 0.002c-0.051-0.027-0.111-0.050-0.173-0.067l-0.006-0.001c-0.023 0-0.033-0.016-0.023-0.033 0.012-0.020 0.014-0.030 0.037-0.029z"/>
</svg>