<svg xmlns="http://www.w3.org/2000/svg" version="1.1" width="24" height="24" viewBox="0 0 24 24">
<path d="M12 24c-1.89-1.755-1.813-3.743-1.813-3.743h3.626c0 0 0.077 1.988-1.813 3.743zM12 1.988c-1.595 2.106-4.693 6.893-4.693 12.291 0 1.562 0.293 2.87 0.589 3.793h8.208c0.296-0.923 0.589-2.231 0.589-3.793 0-5.398-3.098-10.185-4.693-12.291zM17.95 14.279c0 3.556-1.363 5.903-1.363 5.903l-1.458-0.853h-6.258l-1.458 0.853c0 0-1.363-2.347-1.363-5.903 0-7.833 5.948-14.277 5.95-14.279 0.002 0.002 5.95 6.446 5.95 14.279zM18.773 16.614c0 1.363-0.605 2.845-1.022 3.47h2.889l-0.32-1.965zM3.68 18.12l-0.32 1.965h2.889c-0.418-0.625-1.022-2.107-1.022-3.47zM10.867 12.448c-0.154 0-0.279 0.125-0.279 0.279s0.125 0.279 0.279 0.279 0.279-0.125 0.279-0.279-0.125-0.279-0.279-0.279zM11.762 12.448c-0.154 0-0.279 0.125-0.279 0.279s0.125 0.279 0.279 0.279 0.279-0.125 0.279-0.279-0.125-0.279-0.279-0.279zM12.657 12.448c-0.154 0-0.279 0.125-0.279 0.279s0.125 0.279 0.279 0.279 0.279-0.125 0.279-0.279-0.125-0.279-0.279-0.279zM15.715 15.98c0 0.799-0.647 1.446-1.446 1.446s-1.446-0.647-1.446-1.446c0-0.262 0.071-0.507 0.192-0.719l-0.361-0.493c-0.273 0.12-0.575 0.187-0.892 0.187-0.551 0-1.054-0.201-1.443-0.532l-0.403 0.35c0.013 0.059 0.020 0.119 0.020 0.181 0 0.478-0.387 0.865-0.865 0.865s-0.865-0.387-0.865-0.865 0.387-0.865 0.865-0.865c0.104 0 0.202 0.021 0.294 0.055l0.429-0.373c-0.166-0.312-0.261-0.667-0.261-1.045 0-0.506 0.171-0.971 0.455-1.345l-0.451-0.49c-0.033 0.004-0.065 0.010-0.098 0.010-0.406 0-0.735-0.329-0.735-0.735s0.329-0.735 0.735-0.735 0.735 0.329 0.735 0.735c0 0.055-0.007 0.109-0.019 0.161l0.455 0.495c0.337-0.204 0.73-0.324 1.153-0.324 0.398 0 0.771 0.106 1.094 0.288l0.385-0.385c-0.040-0.116-0.063-0.241-0.063-0.371 0-0.632 0.512-1.144 1.144-1.144s1.144 0.512 1.144 1.144-0.512 1.144-1.144 1.144c-0.13 0-0.255-0.023-0.371-0.063l-0.353 0.353c0.247 0.359 0.393 0.793 0.393 1.262 0 0.551-0.201 1.054-0.531 1.442l0.329 0.449c0.151-0.053 0.312-0.084 0.481-0.084 0.797 0.001 1.444 0.649 1.444 1.447zM11.762 14.481c0.969 0 1.754-0.785 1.754-1.754s-0.785-1.754-1.754-1.754-1.754 0.785-1.754 1.754c0 0.968 0.785 1.754 1.754 1.754z"/>
</svg>