<svg xmlns="http://www.w3.org/2000/svg" version="1.1" width="24" height="24" viewBox="0 0 24 24">
<path d="M12 0c-6.627 0-12 5.373-12 12s5.373 12 12 12c6.628 0 12-5.373 12-12s-5.372-12-12-12zM7.080 4.182h2.781c0.233 0 0.42 0.21 0.42 0.47v14.696c0 0.26-0.187 0.47-0.42 0.47h-2.78c-0.233 0-0.42-0.21-0.42-0.47v-14.696c0-0.26 0.187-0.47 0.419-0.47zM11.744 4.182c0 0 0.001 0 0.002 0 0.12 0 0.232 0.034 0.327 0.093l-0.003-0.002c0.355 0.209 7.451 4.42 8.057 4.78 0.178 0.107 0.296 0.3 0.296 0.519s-0.118 0.412-0.293 0.518l-0.003 0.002c-0.436 0.264-7.558 4.495-8.074 4.789-0.085 0.051-0.187 0.082-0.296 0.082-0.319 0-0.577-0.258-0.577-0.577 0-0.006 0-0.012 0-0.018l-0 0.001v-1.812c0-1.712 2.962-2.201 3.398-2.465 0.179-0.107 0.297-0.3 0.297-0.52s-0.118-0.413-0.294-0.518l-0.003-0.002c-0.605-0.36-3.398-0.746-3.398-2.452v-1.81c0-0.334 0.251-0.605 0.564-0.608z"/>
</svg>