<svg xmlns="http://www.w3.org/2000/svg" version="1.1" width="24" height="24" viewBox="0 0 24 24">
<path d="M6.656 19.63l-3.304 3.295-3.308-3.295zM11.49 12.108c-0.69-0.821-0.656-1.264-0.229-1.69 0.519-0.52 1.047-0.306 1.639 0.274zM18.57 3.115c0.518-0.519 1.046-0.305 1.638 0.275l-1.41 1.41c-0.692-0.818-0.659-1.258-0.228-1.685zM22.841 4.555c-0.643 0.962-1.742 2.52-2.929 1.343l2.97-2.97c-0.266-0.283-0.47-0.524-0.611-0.676-1.614-1.6-3.418-1.62-4.834-0.214-0.943 0.943-1.19 2.020-0.915 3.051l-0.916-1.065c-0.526 0.351-0.868 0.943-0.868 1.614 0 0.393 0.117 0.758 0.318 1.063l-0.005-0.007-1.065-0.884-1.431 1.406 1.907 1.907c-1.474-1.168-3.051-1.055-4.34 0.217-1.363 1.361-1.269 3.012-0.246 4.37l-0.208-0.205c-1.349-1.348-2.813-0.872-3.54-0.146-0.561 0.561-0.915 1.33-0.762 1.867l-2.918-2.92-1.556 1.556 5.764 5.768h3.095l-2.078-2.090c-1.093-1.111-1.111-1.697-0.58-2.225 0.53-0.528 1.104-0.192 2.151 0.851l2.054 2.050 1.562-1.543-1.95-1.947c1.404 1.062 3.088 1.12 4.577-0.378l0.028-0.028c0.513-0.451 0.918-1.013 1.179-1.649l0.011-0.030-1.169-0.784c-0.647 0.96-1.76 2.523-2.93 1.364l2.976-2.976 1.855 1.84 1.618-1.617-2.32-2.319c-1.083-1.083-0.442-2.1 0-2.484 0.242 0.491 0.549 0.911 0.915 1.269l0.001 0.001c1.501 1.504 3.439 1.806 5.145 0.106l0.027-0.027c0.513-0.451 0.918-1.013 1.179-1.648l0.011-0.030z"/>
</svg>