<svg xmlns="http://www.w3.org/2000/svg" version="1.1" width="24" height="24" viewBox="0 0 24 24">
<path d="M23.542 11.305c-1.234-1.187-7.407-1.927-9.354-2.142 0.094-0.222 0.175-0.453 0.242-0.691 0.266-0.117 0.552-0.225 0.849-0.315 0.036 0.107 0.207 0.515 0.303 0.709 3.917 0.108 4.118-2.91 4.277-3.738 0.156-0.808 0.148-1.59 1.492-3.018-2.001-0.584-4.88 0.904-5.844 3.118-0.362-0.136-0.726-0.236-1.085-0.298-0.258-1.038-1.598-3.931-5.114-3.931-2.278 0-4.575 0.941-6.302 2.581-0.93 0.884-1.661 1.932-2.173 3.119-0.552 1.281-0.832 2.691-0.832 4.192 0 5.227 3.568 9.807 5.584 9.807 0.88 0 1.638-0.659 1.816-1.25 0.149 0.406 0.606 1.665 0.756 1.985 0.222 0.475 1.249 0.885 1.698 0.392 0.577 0.321 1.638 0.514 2.215-0.342 1.112 0.235 2.097-0.428 2.118-1.221 0.546-0.029 0.814-0.796 0.695-1.406-0.088-0.449-1.027-2.063-1.393-2.619 0.725 0.59 2.562 0.756 2.784 0 1.169 0.918 2.991 0.437 3.135-0.31 1.421 0.369 3.049-0.442 2.782-1.423 2.282-0.158 1.99-2.585 1.35-3.201zM17.599 7.281c-0.601-0.236-1.363-0.386-1.897-0.386-0.758 0-1.219 0.429-1.932 0.429-0.149 0-0.506 0.001-0.793-0.102 0.189 0.198 0.423 0.305 0.877 0.305 0.271 0 0.809-0.139 1.245-0.269 0.006 0.092 0.016 0.182 0.029 0.273-0.816 0.195-1.672 0.714-1.92 0.849-0.551-1.217-0.077-2.368 0.36-2.899 1.962 0.004 3.548 1.352 4.032 1.799zM18.448 7.19l-0.3-0.281c-0.308-0.289-0.629-0.55-0.96-0.782 0.492-0.975 1.109-2.039 1.889-2.698-0.858 0.346-1.707 1.38-2.208 2.486-0.255-0.162-0.515-0.307-0.777-0.433 0.699-1.493 2.323-2.739 4.114-2.836-1.199 1.088-0.749 3.258-1.76 4.544zM15.984 8.207c-0.132-0.287-0.265-0.762-0.249-1.042 0.222-0.005 0.651 0.078 0.718 0.094-0.027 0.131-0.040 0.42-0.040 0.457 0.042-0.073 0.16-0.324 0.208-0.424 0.428 0.082 0.991 0.218 1.32 0.372-0.388 0.251-1.045 0.524-1.956 0.543zM8.912 6.255c-0.485-0.174-0.485-0.611 0-0.785s1.094 0.045 1.094 0.392-0.609 0.566-1.094 0.392zM10.529 6.417c0-0.96-1.046-1.563-1.879-1.083s-0.833 1.687 0 2.167c0.833 0.48 1.879-0.123 1.879-1.083zM13.312 4.843c-1.565 1.586-0.947 3.593-0.377 4.498-0.81 1.349-2.404 2.27-4.255 2.69 2.078 0 3.3-0.535 4.011-1.058 0.453-0.335 0.699-0.664 0.825-0.847 3.081 0.199 7.959 1.192 8.434 1.513 0.191 0.129 0.388 0.414 0.417 0.688-2.315-0.324-6.488-0.665-7.58-0.723 0.775 0.11 6.433 1.181 7.414 1.432-0.299 0.486-0.979 0.831-2.003 0.591 0.554 0.754-0.521 1.659-2.019 1.161 0.33 0.741-1.003 1.407-2.519 0.636 0.019 0.741-1.881 0.826-2.631 0.007 0.015 0.098 0.104 0.284 0.142 0.367-0.242 2.163-2.014 3.506-3.829 3.506-4.443 0-8.315-3.61-8.315-8.411 0-5.076 3.752-8.864 8.279-8.864 2.594 0 3.765 2.042 4.006 2.815z"/>
</svg>