<svg xmlns="http://www.w3.org/2000/svg" version="1.1" width="24" height="24" viewBox="0 0 24 24">
<path d="M23.58 13.38c-0.078-0.066-0.172-0.115-0.276-0.139l-0.004-0.001c-0.6 0.61-1.35 1.25-2 1.68-0.31 0.2-0.7 0.3-0.95 0.3-0.59 0-0.84-0.55-0.91-1.44-0.11-1.3-0.172-2.813-0.172-4.341 0-0.172 0.001-0.344 0.002-0.515l-0 0.026c0-2.26-0.52-3.8-1.88-3.92l-0.18-0.010c-0.83 0-1.24 0.43-1.77 1.52-0.46 0.94-1.17 2.3-2.48 4.9-1.078 2.129-2.241 3.957-3.559 5.66l0.059-0.080c-0.31 0.38-0.55 0.64-0.78 0.8-0.123 0.085-0.275 0.137-0.439 0.14h-0.001c-0.43 0-0.75-0.36-0.85-1.21-0.026-0.198-0.040-0.428-0.040-0.66 0-0.010 0-0.021 0-0.031v0.002c0-1.75 0.66-4.6 1.8-8.78 0.83-3.050 0.48-5.13-1.34-5.13h-0.030c-0.41 0-0.75 0.16-1.080 0.42-0.33 0.25-0.65 0.81-0.96 1.56-0.34 0.84-2.42 5.030-5.74 7.2-0.040 0.81 0.42 1.63 1.37 1.73 0.85 0.080 1.46-0.28 2.24-0.81l-0.16 0.73c-0.166 0.651-0.341 1.531-0.478 2.424l-0.022 0.176c-0.46 4.2 1.47 6.27 3.74 6.27 0.38 0 0.76-0.050 1.13-0.15 2.5-0.63 4.9-3.51 7.75-10.13-0.021 0.33-0.032 0.715-0.032 1.103 0 0.323 0.008 0.643 0.024 0.962l-0.002-0.045c0.19 3.8 1.68 4.93 3.8 4.93 1.6 0 3.090-0.83 3.85-1.87 0.474-0.598 0.768-1.358 0.79-2.185l0-0.005c-0.020-0.49-0.17-0.88-0.42-1.080z"/>
</svg>