<svg xmlns="http://www.w3.org/2000/svg" version="1.1" width="24" height="24" viewBox="0 0 24 24">
<path d="M1.5 9.68c-0.83 0-1.5 0.67-1.5 1.5v1.63c0 0.828 0.672 1.5 1.5 1.5s1.5-0.672 1.5-1.5v0-1.63c0-0.83-0.67-1.5-1.5-1.5zM22.5 9.68c-0.83 0-1.5 0.67-1.5 1.5v1.63c0 0.828 0.672 1.5 1.5 1.5s1.5-0.672 1.5-1.5v0-1.63c0-0.83-0.67-1.5-1.5-1.5zM6.68 14.59c-0.83 0-1.5 0.67-1.5 1.5v1.63c0 0.828 0.672 1.5 1.5 1.5s1.5-0.672 1.5-1.5v0-1.62c0-0.83-0.67-1.5-1.5-1.51zM6.68 4.77c-0.83 0-1.5 0.67-1.5 1.5v5.36c0 0.828 0.672 1.5 1.5 1.5s1.5-0.672 1.5-1.5v0-5.37c0-0.83-0.67-1.5-1.5-1.49zM17.32 4.77c-0.83 0-1.5 0.67-1.5 1.5v1.64c0 0.828 0.672 1.5 1.5 1.5s1.5-0.672 1.5-1.5v0-1.64c0-0.83-0.67-1.5-1.5-1.5zM12 0c-0.83 0-1.5 0.67-1.5 1.5v1.63c0 0.828 0.672 1.5 1.5 1.5s1.5-0.672 1.5-1.5v0-1.63c0-0.83-0.67-1.5-1.5-1.5zM12 19.36c-0.83 0-1.5 0.67-1.5 1.5v1.64c0 0.001 0 0.003 0 0.005 0 0.828 0.672 1.5 1.5 1.5 0.827 0 1.497-0.669 1.5-1.495v-1.64c0-0.82-0.67-1.5-1.5-1.51zM17.32 10.9c-0.83 0-1.5 0.68-1.5 1.5v5.33c0 0.828 0.672 1.5 1.5 1.5s1.5-0.672 1.5-1.5v0-5.33c0-0.83-0.67-1.5-1.5-1.5zM12 6.13c-0.83 0-1.5 0.68-1.5 1.5v8.73c0 0.828 0.672 1.5 1.5 1.5s1.5-0.672 1.5-1.5v0-8.72c0-0.83-0.67-1.5-1.5-1.51z"/>
</svg>