<svg xmlns="http://www.w3.org/2000/svg" version="1.1" width="24" height="24" viewBox="0 0 24 24">
<path d="M8.948 8.798v-1.43c0.124-0.010 0.271-0.016 0.42-0.018l0.004-0c3.922-0.124 6.493 3.374 6.493 3.374s-2.774 3.851-5.75 3.851c-0.398 0-0.787-0.062-1.158-0.185v-4.346c1.528 0.185 1.837 0.857 2.747 2.385l2.040-1.714c0 0-1.492-1.952-4-1.952-0.040-0.001-0.087-0.002-0.134-0.002-0.233 0-0.463 0.013-0.689 0.039l0.028-0.003zM8.948 4.063v2.138l0.424-0.027c5.45-0.185 9.010 4.47 9.010 4.47s-4.080 4.964-8.33 4.964c-0.37 0-0.733-0.035-1.095-0.097v1.325c0.3 0.035 0.61 0.062 0.91 0.062 3.957 0 6.82-2.023 9.593-4.408 0.459 0.371 2.34 1.263 2.73 1.652-2.633 2.208-8.772 3.984-12.253 3.984-0.335 0-0.653-0.018-0.971-0.053v1.864h15.034v-15.874zM8.948 14.389v1.131c-3.657-0.654-4.673-4.46-4.673-4.46s1.758-1.944 4.673-2.262v1.237h-0.008c-1.528-0.186-2.73 1.245-2.73 1.245s0.68 2.412 2.739 3.11zM2.456 10.9c0 0 2.164-3.197 6.5-3.533v-1.166c-4.803 0.389-8.956 4.452-8.956 4.452s2.35 6.802 8.948 7.42v-1.237c-4.84-0.6-6.492-5.936-6.492-5.936z"/>
</svg>