<svg xmlns="http://www.w3.org/2000/svg" version="1.1" width="24" height="24" viewBox="0 0 24 24">
<path d="M2.176 2.813c0.233 0.42 0.477 0.779 0.73 1.090h-0.002c-0.104-0.017-0.224-0.026-0.346-0.026-0.004 0-0.008 0-0.012 0h0.001c-0.284 0.004-0.555 0.051-0.81 0.135l0.019-0.005c0.494 0.415 0.912 0.717 1.281 0.95 0.905 0.294 1.912 0.782 2.77 1.328 0.429 0.273 0.812 0.543 1.113 0.78 0.301 0.236 0.567 0.471 0.621 0.574 0.054 0.102-0.001 0.139-0.082 0.060-0.081-0.078-0.302-0.319-0.6-0.553-0.316-0.247-0.677-0.503-1.050-0.741l-0.057-0.034c-0.775-0.49-1.982-0.96-2.715-1.414-0.57-0.182-1.182-0.207-1.902 0.135 0.526 0.33 0.967 0.568 1.353 0.746 1.104 0.155 2.259 0.695 3.225 1.308 0.483 0.308 0.905 0.616 1.22 0.868 0.158 0.125 0.29 0.237 0.39 0.328 0.098 0.090 0.176 0.155 0.198 0.21 0.030 0.074-0.020 0.104-0.085 0.057-0.032-0.022-0.085-0.102-0.182-0.191-0.116-0.105-0.241-0.212-0.37-0.314l-0.015-0.012c-0.312-0.25-0.73-0.553-1.21-0.858-0.894-0.561-2.233-1.012-3.175-1.396-0.601-0.11-1.223-0.060-1.904 0.389 0.449 0.2 0.837 0.35 1.182 0.464-0.566 0.020-1.128 0.197-1.676 0.717 0.477 0.118 0.885 0.198 1.244 0.25-0.44 0.090-0.87 0.3-1.289 0.72 0.324 0.070 0.616 0.123 0.883 0.163-0.329 0.159-0.64 0.406-0.924 0.783 0.373 0.030 0.703 0.042 1 0.043-0.36 0.166-0.696 0.428-0.996 0.85 0.533 0.026 0.979 0.024 1.363 0.002-0.422 0.172-0.812 0.464-1.144 0.969 0.079 0.002 0.172 0.003 0.265 0.003 0.481 0 0.954-0.029 1.42-0.086l-0.056 0.006-0.008 0.002c0.99-0.073 2.3 0.127 2.965 0.848 0.052 0.057-0.024 0.118-0.073 0.074-0.648-0.58-1.494-0.827-2.892-0.922-0.544 0.15-1.047 0.447-1.461 1.075 0.535 0.007 0.981-0.011 1.365-0.047-0.47 0.255-0.871 0.643-1.137 1.304 0.483-0.091 0.888-0.19 1.237-0.293-0.363 0.265-0.669 0.636-0.873 1.194 0.324-0.072 0.611-0.146 0.87-0.221-0.248 0.305-0.428 0.674-0.51 1.080l-0.003 0.016c0.351-0.13 0.655-0.256 0.926-0.38h0.002c0.283-0.23 0.71-0.457 1.289-0.622 0.506-0.145 1.082-0.284 1.652-0.301 0.036-0.001 0.079-0.002 0.122-0.002s0.086 0.001 0.128 0.002l-0.006-0c0.1 0.003 0.063 0.104 0.006 0.103-0.728-0.008-1.302 0.132-1.873 0.295-0.52 0.166-0.956 0.344-1.375 0.552l0.057-0.026c-0.276 0.327-0.471 0.731-0.549 1.176l-0.002 0.015c0.495-0.198 0.899-0.388 1.238-0.568-0.311 0.333-0.543 0.76-0.635 1.357 0.567-0.246 1.040-0.495 1.493-0.773l-0.051 0.029c-0.432 0.362-0.764 0.844-0.879 1.588 0.679-0.293 1.259-0.613 1.804-0.981l-0.038 0.024c-0.184 0.372-0.281 0.807-0.235 1.35 0.762-0.585 1.245-1.056 1.604-1.473-0.006 0.065-0.009 0.141-0.009 0.217 0 0.237 0.031 0.467 0.089 0.686l-0.004-0.019c0.449-0.772 0.897-1.093 1.353-1.358-0.563 0.37-0.464 0.671-0.464 1.014 0.683-0.72 1.636-1.483 1.927-1.961-0.39 0.585-0.547 1.14-0.65 1.629-1.994 1.055-3.21 1.33-4.57 1.752 0.528 0.194 1.095 0.383 0.861 0.652l-0.625 0.623c0.399-0.124 0.805-0.3 1.158-0.058-0.034 0.327-0.448 0.493-0.8 0.683 0.62-0.224 0.756-0.173 0.92-0.12 0.080 0.391-0.203 0.602-0.387 0.86 1.565-1.19 3.606-2.128 5.045-2.521 2.022-0.681 4.632-1.39 5.341-3.117 0.235-0.946 0.478-1.905 0.707-2.842-0.111-0.035-0.245-0.063-0.35-0.133-0.105-0.074-0.185-0.176-0.232-0.295l-0.002-0.004c-0.252 0.066-0.441 0.031-0.56-0.088-0.118-0.117-0.168-0.294-0.203-0.49-0.204 0.042-0.364 0.017-0.47-0.076-0.114-0.102-0.17-0.26-0.198-0.443l-0.006-0.041 0.037-0.014c0.117-0.045 0.217-0.111 0.3-0.195l0-0c0.046-0.046 0.075-0.11 0.075-0.181 0-0.016-0.001-0.031-0.004-0.046l0 0.002-0.006-0.037 0.030-0.016c0.163-0.093 0.346-0.168 0.43-0.279 0.034-0.045 0.054-0.102 0.054-0.164 0-0.016-0.001-0.032-0.004-0.048l0 0.002c-0.026-0.137-0.080-0.258-0.156-0.363l0.002 0.003-0.028-0.040 0.040-0.027c0.118-0.090 0.246-0.176 0.31-0.257 0.032-0.041 0.046-0.077 0.045-0.11 0-0.033-0.015-0.071-0.065-0.119l-0.097-0.094 0.135 0.006c0.212 0.009 0.396-0.006 0.539-0.053 0.126-0.035 0.23-0.115 0.295-0.222l0.001-0.002c-0.003-0.020-0.005-0.044-0.005-0.068 0-0.002 0-0.005 0-0.007v0c0-0.251 0.204-0.455 0.455-0.455v0c0.251 0 0.455 0.204 0.455 0.455v0c-0.001 0.047-0.009 0.093-0.023 0.135l0.001-0.003c0.184 0.016 0.359 0.008 0.524-0.064l0.037-0.012c0.236-0.084 0.333 0.045 0.72-0.459-1.69-2.191-4.158-0.632-4.978 1.625-0.21 0.577-1.405 0.577-1.752-0.002-1.37-2.95-5.531-6.067-9.072-7.216zM2.908 3.904c0.252-0.009 1.13 0.453 1.31 0.52 0.64 0.361 1.151 0.681 1.649 1.020l-0.082-0.053c0.505 0.336 0.961 0.663 1.274 0.902 0.156 0.12 0.277 0.218 0.351 0.285 0.037 0.034 0.064 0.057 0.080 0.082 0.004 0.006 0.008 0.014 0.010 0.021l0 0.001c0.002 0.005 0.003 0.012 0.003 0.018 0 0.010-0.003 0.019-0.007 0.027l0-0c-0.010 0.020-0.030 0.030-0.043 0.030-0.004 0.001-0.009 0.001-0.014 0.001s-0.009-0-0.014-0.001l0 0c-0.057 0.001-0.202-0.163-0.496-0.415-0.8-0.622-1.701-1.225-2.644-1.766l-0.114-0.060c-0.504-0.28-0.956-0.54-1.264-0.612zM1.766 6.691c0.812 0 1.89 0.365 2.931 0.92 1.043 0.557 2.043 1.219 2.526 1.779 0.066 0.076-0.019 0.123-0.077 0.068-0.52-0.496-1.462-1.206-2.498-1.758-0.637-0.336-2.148-1.005-2.882-1.009zM1.338 7.658c1.116 0.015 2.348 0.446 3.432 0.996 0.541 0.275 1.024 0.57 1.396 0.832s0.673 0.523 0.734 0.657c0.062 0.133-0.019 0.13-0.086 0.054-0.21-0.232-0.441-0.438-0.692-0.618l-0.013-0.009c-0.394-0.278-0.847-0.552-1.319-0.794l-0.065-0.030c-0.963-0.482-2.284-0.926-3.387-1.088zM1.5 8.473c0.066-0.003 0.133 0 0.201 0.006 0.822 0.071 1.719 0.366 2.533 0.748 1.087 0.509 2.035 1.157 2.434 1.666 0.035 0.045-0.011 0.133-0.078 0.064-0.428-0.44-1.32-1.132-2.397-1.637-0.913-0.42-2.283-0.87-3.263-0.779 0.188-0.024 0.373-0.061 0.57-0.068zM18.041 8.486c-0.365 0.475-0.53 0.425-0.701 0.465 0.093 0.431 0.35 0.587 0.586 0.772 2.020-0.372 4.29-0.274 6.080-0.225l-5.963-1.010zM17.238 8.98c-0.19 0.077-0.387 0.079-0.584 0.060-0.080 0.134-0.225 0.223-0.39 0.224h-0c-0.183-0-0.341-0.109-0.413-0.265l-0.001-0.003c-0.076 0.097-0.178 0.17-0.297 0.209l-0.004 0.001c-0.124 0.035-0.267 0.056-0.415 0.056-0.027 0-0.054-0.001-0.081-0.002l0.004 0c0.020 0.035 0.054 0.067 0.054 0.103-0.002 0.067-0.029 0.128-0.070 0.174l0-0c-0.073 0.093-0.188 0.172-0.295 0.25 0.071 0.103 0.123 0.224 0.148 0.355l0.001 0.006c0.003 0.017 0.004 0.036 0.004 0.056 0 0.086-0.028 0.165-0.075 0.229l0.001-0.001c-0.106 0.14-0.287 0.211-0.438 0.295 0 0.006 0.001 0.013 0.001 0.021 0 0.095-0.035 0.181-0.093 0.247l0-0c-0.082 0.083-0.181 0.15-0.291 0.195l-0.006 0.002c0.027 0.157 0.074 0.283 0.154 0.354 0.086 0.076 0.212 0.104 0.426 0.049l0.055-0.016 0.010 0.055c0.034 0.207 0.088 0.386 0.187 0.484 0.1 0.099 0.243 0.135 0.502 0.055l0.049-0.016 0.015 0.050c0.037 0.118 0.111 0.215 0.208 0.281l0.002 0.001c0.087 0.060 0.25 0.112 0.36 0.147 0.798-0.868 1.525-1.772 1.884-2.86-0.225-0.176-0.508-0.335-0.612-0.795zM1.44 9.348c1.009 0.013 1.959 0.248 2.81 0.657l-0.040-0.017c0.92 0.43 1.658 0.939 1.975 1.307 0.074 0.087-0.020 0.122-0.073 0.074-0.561-0.502-1.202-0.933-1.898-1.269l-0.049-0.021c-0.904-0.416-2.196-0.646-3.16-0.718 0.145-0.010 0.29-0.014 0.435-0.013zM1.872 10.164c0.61 0.020 1.24 0.155 1.807 0.352 0.756 0.262 1.42 0.614 1.746 0.98 0.044 0.050-0.005 0.13-0.072 0.070-0.349-0.304-0.962-0.694-1.707-0.953-0.575-0.195-1.616-0.367-2.27-0.396 0.196-0.021 0.293-0.060 0.496-0.053zM2.765 11.945c0.050 0 0.103 0.004 0.156 0.008 0.424 0.034 0.886 0.133 1.342 0.406 0.043 0.026 0.049 0.136-0.050 0.090-0.856-0.402-1.327-0.489-2.458-0.308 0.338-0.113 0.652-0.199 1.010-0.196zM3.181 12.729c0.3 0.004 0.613 0.062 0.998 0.216 0.044 0.018 0.080 0.126-0.033 0.094-0.857-0.243-1.167-0.328-2.288 0.104 0.281-0.229 0.62-0.367 1.022-0.403 0.1-0.009 0.2-0.013 0.301-0.011zM4.64 13.41c0.156 0 0.311 0.009 0.46 0.026 0.053 0.005 0.055 0.102-0.007 0.1-0.129-0.008-0.281-0.012-0.433-0.012-0.497 0-0.982 0.046-1.453 0.133l0.049-0.008c-0.243 0.046-0.422 0.044-1.404 0.46 0.286-0.234 0.795-0.451 1.386-0.56 0.444-0.080 0.934-0.142 1.403-0.14zM5.976 14.316c0.035-0.005 0.105 0.084 0.017 0.1-0.73 0.136-1.244 0.268-1.795 0.455-0.216 0.074-0.579 0.207-1.242 0.588 0.259-0.269 0.655-0.494 1.213-0.684 0.51-0.186 1.118-0.346 1.745-0.45l0.062-0.009zM6.286 14.824c0.075-0.012 0.099 0.087 0.022 0.102-1.217 0.24-1.76 0.556-2.541 1.144 0.503-0.523 1.296-1.050 2.519-1.246zM6.882 15.271c0.005-0.001 0.010-0.001 0.015-0.001s0.010 0 0.016 0.001l-0.001-0c0.060 0.011 0.069 0.089-0.009 0.1-0.872 0.13-1.479 0.555-2.257 1.332 0.295-0.494 1.006-1.242 2.236-1.432zM7.253 15.662c0.046-0.005 0.116 0.073 0.025 0.1-0.193 0.056-0.433 0.15-0.67 0.3-0.182 0.118-0.302 0.202-0.6 0.508 0.112-0.245 0.299-0.435 0.546-0.591 0.246-0.157 0.507-0.293 0.699-0.317z"/>
</svg>