<svg xmlns="http://www.w3.org/2000/svg" version="1.1" width="24" height="24" viewBox="0 0 24 24">
<path d="M3.72 7.34c-1.010 0-1.84 0.23-2.5 0.7-0.661 0.46-0.99 1.080-0.99 1.84 0 0.78 0.276 1.38 0.83 1.79 0.55 0.42 1.4 0.8 2.54 1.16 0.55 0.2 0.93 0.38 1.14 0.56 0.22 0.17 0.32 0.42 0.32 0.74 0 0.28-0.1 0.51-0.32 0.68-0.21 0.19-0.54 0.27-0.97 0.27-0.57 0-1-0.12-1.27-0.34-0.3-0.24-0.44-0.6-0.44-1.12h-2.047l-0.013 0.040c-0.020 0.97 0.346 1.71 1.1 2.23 0.75 0.52 1.64 0.77 2.67 0.77 1.020 0 1.84-0.22 2.46-0.66 0.62-0.46 0.94-1.090 0.94-1.88s-0.26-1.4-0.78-1.85c-0.53-0.45-1.3-0.83-2.33-1.13-0.67-0.25-1.12-0.45-1.37-0.61-0.24-0.16-0.36-0.37-0.36-0.63 0-0.28 0.12-0.51 0.36-0.69 0.24-0.21 0.57-0.29 1-0.29s0.77 0.12 1.010 0.34c0.25 0.24 0.37 0.52 0.37 0.88h2.040l0.010-0.030c0.030-0.81-0.29-1.48-0.93-2s-1.46-0.77-2.47-0.77zM8.5 7.4v9.18h2.15v-3.15h1.3c1.090 0 1.95-0.27 2.59-0.83 0.64-0.55 0.96-1.28 0.96-2.18 0-0.92-0.32-1.63-0.96-2.19s-1.5-0.83-2.59-0.83h-3.45zM18.11 7.4l-3.18 9.19h1.99l3.26-9.19h-2.070zM21.93 7.4l-3.18 9.19h1.99l3.26-9.19h-2.070zM10.65 9.040h1.3c0.46 0 0.82 0.13 1.050 0.39 0.25 0.26 0.37 0.57 0.37 1 0 0.4-0.12 0.73-0.37 0.98-0.23 0.26-0.59 0.38-1.050 0.38h-1.3z"/>
</svg>