<svg xmlns="http://www.w3.org/2000/svg" version="1.1" width="24" height="24" viewBox="0 0 24 24">
<path d="M12 0c-4.498 3-5.998 3-10.5 3 0 15.002 0 15.002 10.5 21 10.5-5.998 10.5-5.998 10.5-21-4.498 0-5.998 0-10.5-3zM5.956 7.472h1.512v4.536c0 1.322 0.19 1.508 1.512 1.508 1.323 0 1.512-0.19 1.512-1.512v-4.532h1.508v0.767c0.622-0.478 1.411-0.766 2.268-0.767h0c2.084 0.008 3.77 1.696 3.776 3.779v0.001c-0.009 2.083-1.696 3.769-3.779 3.775h-0.001c-1.052-0.002-2.002-0.436-2.683-1.132l-0.001-0.001c-0.464 0.77-1.315 1.133-2.6 1.133-2.079 0-3.024-0.944-3.024-3.023zM14.264 8.984c-0.003-0-0.007-0-0.010-0-1.245 0-2.254 1.009-2.254 2.254 0 0.005 0 0.010 0 0.015v-0.001c-0 0.003-0 0.007-0 0.010 0 1.245 1.009 2.254 2.254 2.254 0.005 0 0.010-0 0.015-0h-0.001c0.003 0 0.007 0 0.010 0 1.245 0 2.254-1.009 2.254-2.254 0-0.005-0-0.010-0-0.015v0.001c0-0.003 0-0.007 0-0.010 0-1.245-1.009-2.254-2.254-2.254-0.005 0-0.010 0-0.015 0h0.001z"/>
</svg>