<svg xmlns="http://www.w3.org/2000/svg" version="1.1" width="24" height="24" viewBox="0 0 24 24">
<path d="M12.335 12.606c-0.171 0.682-0.586 1.261-1.139 1.564l-0.428 0.234 0.78 1.32 0.41-0.226c0.605-0.344 1.092-0.833 1.425-1.421l0.010-0.019c0.346-0.605 0.554-1.327 0.565-2.097l0-0.003v-0.016c-0.011-0.773-0.219-1.496-0.576-2.122l0.011 0.022c-0.342-0.606-0.829-1.095-1.416-1.43l-0.018-0.010-0.41-0.225-0.78 1.32 0.427 0.234c0.571 0.312 0.995 0.92 1.155 1.632h-5.107c-0.24-0.445-0.704-0.743-1.236-0.743-0.001 0-0.003 0-0.004 0h0c-0.77 0-1.396 0.617-1.396 1.377 0 0.759 0.626 1.377 1.396 1.377 0.001 0 0.002 0 0.003 0 0.543 0 1.013-0.309 1.246-0.76l0.004-0.008zM12 24c-5.608 0-10.154-5.373-10.154-12s4.546-12 10.154-12 10.154 5.373 10.154 12-4.546 12-10.154 12zM17.591 12.836c-0.29 2.825-1.867 5.206-4.060 6.377l0.829 1.368c2.846-1.526 4.83-4.767 4.896-8.538-0.066-3.771-2.050-7.012-4.896-8.539l-0.83 1.37c2.194 1.17 3.771 3.55 4.061 6.375l0.023 0.794zM12.939 18.172l0.194-0.107c0.995-0.547 1.841-1.398 2.446-2.46 0.601-1.050 0.962-2.305 0.98-3.643l0-0.005v-0.008c-0.018-1.343-0.379-2.597-1-3.685l0.020 0.038c-0.605-1.063-1.451-1.914-2.446-2.46l-0.194-0.108-0.79 1.336 0.203 0.11c0.732 0.416 1.33 0.991 1.76 1.681l0.012 0.021c0.467 0.744 0.763 1.62 0.856 2.535l0.015 0.536-0.015 0.535c-0.095 0.95-0.401 1.812-0.87 2.561l0.014-0.025c-0.442 0.71-1.040 1.285-1.748 1.688l-0.024 0.013-0.203 0.111z"/>
</svg>