<svg xmlns="http://www.w3.org/2000/svg" version="1.1" width="24" height="24" viewBox="0 0 24 24">
<path d="M23.985 9.202c-0.032-0.099-0.127-0.223-0.334-0.258-0.207-0.036-7.351-1.406-7.351-1.406s-0.105-0.022-0.198-0.070c-0.092-0.047-0.127-0.167-0.127-0.167s-3.528-6.345-3.626-6.531c-0.099-0.187-0.245-0.238-0.349-0.238s-0.251 0.051-0.349 0.238c-0.098 0.186-3.626 6.531-3.626 6.531s-0.035 0.12-0.128 0.167c-0.092 0.047-0.197 0.070-0.197 0.070s-7.144 1.37-7.352 1.405c-0.208 0.036-0.302 0.16-0.333 0.258-0.009 0.034-0.014 0.073-0.014 0.113 0 0.131 0.053 0.25 0.139 0.336l-0-0 5.362 5.49c0 0 0.072 0.080 0.119 0.172 0.016 0.104 0.005 0.21 0.005 0.21s-1.189 7.242-1.22 7.45 0.075 0.369 0.159 0.43c0.083 0.062 0.233 0.106 0.421 0.013s6.812-3.261 6.812-3.261 0.098-0.044 0.201-0.061 0.201 0.061 0.201 0.061 6.623 3.168 6.812 3.261c0.188 0.094 0.338 0.049 0.421-0.013 0.101-0.085 0.165-0.213 0.165-0.355 0-0.027-0.002-0.053-0.007-0.078l0 0.003c-0.021-0.14-0.93-5.677-0.93-5.677 0.876-0.54 1.425-1.039 1.849-1.747-2.594 0.969-6.006 1.717-9.415 1.866-0.915 0.041-2.41 0.097-3.473-0.015-0.678-0.071-1.17-0.144-1.243-0.438-0.053-0.215 0.054-0.46 0.545-0.831-5.574 4.035-4.643 3.329-3.712 2.622l6.573-4.777c1.285-0.968 3.559-2.47 3.559-2.731 0-0.285-2.144-0.781-4.037-0.781-1.945 0-2.275 0.132-2.811 0.168-0.488 0.034-0.769 0.005-0.804-0.138-0.060-0.248 0.183-0.389 0.588-0.568 0.709-0.314 1.86-0.594 1.984-0.626 0.194-0.052 3.082-0.805 5.618-0.535 1.318 0.14 3.244 0.668 3.244 1.276 0 0.342-1.721 1.494-3.225 2.597-1.149 0.843-2.217 1.561-2.217 1.688 0 0.342 3.533 1.241 6.689 1.010l0.003-0.022c0.048-0.092 0.119-0.172 0.119-0.172l5.362-5.49c0.087-0.086 0.14-0.206 0.14-0.338 0-0.039-0.005-0.078-0.014-0.115l0.001 0.003z"/>
</svg>