<svg xmlns="http://www.w3.org/2000/svg" version="1.1" width="24" height="24" viewBox="0 0 24 24">
<path d="M3.55 6.41c0-1.2 0.73-2.28 1.88-2.8 0.418-0.19 0.906-0.3 1.42-0.3 0.787 0 1.514 0.259 2.099 0.697l-0.009-0.007 2.52-2.35c-1.241-1.026-2.849-1.648-4.603-1.648-1.34 0-2.595 0.363-3.671 0.997l0.034-0.018c-1.925 1.082-3.204 3.112-3.204 5.44 0 0.627 0.093 1.233 0.266 1.804l-0.011-0.044c0.937 2.721 3.476 4.641 6.463 4.641 0.048 0 0.096-0 0.145-0.002l-0.007 0h2.58v-3.3h-2.58c-1.83-0.020-3.32-1.41-3.32-3.11zM17.060 11.14h-2.58v3.3h2.58c1.83 0 3.32 1.4 3.32 3.1 0 1.72-1.49 3.1-3.32 3.1s-3.32-1.37-3.32-3.080v-11.16c0-1.58-0.63-3.11-1.76-4.29l-2.52 2.37c0.47 0.53 0.73 1.22 0.73 1.93v11.14c0 3.54 3.080 6.41 6.87 6.41 3.8 0 6.87-2.87 6.87-6.41s-3.070-6.41-6.87-6.41z"/>
</svg>