<svg xmlns="http://www.w3.org/2000/svg" version="1.1" width="24" height="24" viewBox="0 0 24 24">
<path d="M22.33 7.851l-0.716-0.398c1.101-1.569 1.758-3.927 0.934-7.453 0 0-1.857 5.029-5.59 4.863l-4.37-2.431c-0.154-0.088-0.338-0.143-0.534-0.15l-0.002-0h-0.101c-0.199 0.007-0.383 0.062-0.544 0.153l0.006-0.003-4.371 2.431c-3.733 0.167-5.59-4.863-5.59-4.863-0.825 3.526-0.166 5.884 0.934 7.453l-0.716 0.398c-0.352 0.195-0.587 0.564-0.589 0.988v0l0.022 14.591c0 0.203 0.109 0.392 0.294 0.491 0.084 0.050 0.184 0.079 0.292 0.079s0.208-0.029 0.295-0.080l-0.003 0.001 5.79-3.204c0.366-0.211 0.589-0.582 0.589-0.987v-6.817c0-0.406 0.223-0.783 0.588-0.984l2.465-1.372c0.168-0.097 0.37-0.154 0.586-0.154 0.002 0 0.003 0 0.005 0h-0c0.2 0 0.407 0.050 0.585 0.154l2.465 1.372c0.365 0.201 0.588 0.578 0.588 0.984v6.817c0 0.405 0.226 0.779 0.59 0.987l5.788 3.204c0.084 0.050 0.186 0.079 0.294 0.079s0.21-0.029 0.297-0.080l-0.003 0.002c0.174-0.097 0.291-0.28 0.292-0.491v-0l0.019-14.591c-0.001-0.424-0.236-0.793-0.583-0.985l-0.006-0.003z"/>
</svg>