<svg xmlns="http://www.w3.org/2000/svg" version="1.1" width="24" height="24" viewBox="0 0 24 24">
<path d="M23.82 12c-0.061-3.145-2.625-5.671-5.779-5.671-0.036 0-0.071 0-0.106 0.001l0.005-0c-0.29 0-0.6 0.020-0.9 0.050-2.52 0.37-4.2 2.18-5.13 3.57-0.95-1.39-2.64-3.2-5.14-3.57-0.3-0.030-0.6-0.050-0.9-0.050-0.027-0-0.059-0.001-0.091-0.001-3.154 0-5.718 2.526-5.779 5.665l-0 0.006c0.061 3.145 2.625 5.671 5.779 5.671 0.032 0 0.064-0 0.096-0.001l-0.005 0c0.3 0 0.6-0.020 0.92-0.060 2.52-0.36 4.2-2.17 5.14-3.56 0.95 1.39 2.63 3.2 5.14 3.57 0.31 0.030 0.6 0.050 0.91 0.050 0.018 0 0.040 0 0.061 0 3.154 0 5.717-2.526 5.779-5.665l0-0.006zM6.48 15.6c-0.2 0.040-0.43 0.040-0.63 0.040-0.024 0.001-0.053 0.001-0.082 0.001-2.044 0-3.708-1.626-3.768-3.655l-0-0.006c0.066-2.036 1.732-3.661 3.778-3.661 0.029 0 0.058 0 0.086 0.001l-0.004-0c0.2 0 0.42 0.020 0.63 0.040 2.37 0.35 3.82 2.67 4.31 3.62-0.5 0.95-1.95 3.3-4.32 3.62zM13 12c0.49-0.93 1.94-3.27 4.31-3.62 0.2-0.040 0.42-0.040 0.62-0.040 0.033-0.001 0.072-0.002 0.111-0.002 2.042 0 3.704 1.628 3.759 3.657l0 0.005c-0.066 2.036-1.732 3.661-3.778 3.661-0.029 0-0.058-0-0.086-0.001l0.004 0c-0.2 0-0.42-0.020-0.62-0.040-2.36-0.35-3.82-2.69-4.32-3.62zM4.21 12.59h3.54v-1.16h-3.53zM18.34 12.59h1.19v-1.16h-1.2v-1.19h-1.13v1.2h-1.2v1.15h1.2v1.18h1.15zM24 7.060c0 0.3-0.22 0.51-0.53 0.51-0.006 0-0.013 0-0.020 0-0.278 0-0.505-0.223-0.51-0.5v-0c0-0.28 0.24-0.52 0.53-0.52 0.31 0 0.53 0.22 0.53 0.51zM23.090 7.060c0 0.22 0.16 0.4 0.4 0.4 0.22 0 0.38-0.18 0.38-0.4s-0.16-0.4-0.38-0.4c-0.24-0.020-0.4 0.16-0.4 0.4zM23.39 7.32h-0.1v-0.52l0.2-0.010c0.090 0 0.14 0.010 0.18 0.030s0.060 0.060 0.060 0.11c0 0.060-0.040 0.1-0.11 0.11 0.050 0.020 0.070 0.060 0.090 0.13l0.030 0.13h-0.12c-0.020-0.020-0.020-0.070-0.040-0.13-0.020-0.050-0.040-0.070-0.11-0.070h-0.050zM23.41 7.020h0.060c0.070 0 0.1-0.010 0.1-0.070 0-0.050-0.030-0.070-0.1-0.070h-0.070v0.14z"/>
</svg>