<svg xmlns="http://www.w3.org/2000/svg" version="1.1" width="24" height="24" viewBox="0 0 24 24">
<path d="M10.93 2.045c-0.547 0.366-3.22 2.14-5.938 3.945-2.72 1.804-4.942 3.296-4.942 3.314 0 0.019 0.136 0.11 0.305 0.2 0.167 0.096 2.85 1.583 5.965 3.31l5.656 3.143 0.144-0.074c0.082-0.040 2.169-1.232 4.642-2.642l4.493-2.568 0.027 7.947h2.668v-9.301l-3.46-2.32c-4.664-3.124-8.392-5.586-8.484-5.606-0.045-0.008-0.527 0.287-1.076 0.652zM5.355 16.633l0.014 2.005 6.62 3.969 3.337-2 3.332-2.005v-1.982c0-1.092-0.013-1.983-0.027-1.983s-1.318 0.782-2.9 1.741l-3.306 1.996-0.431 0.256-1.32-0.791c-3.764-2.165-4.837-2.82-5.907-3.478l2.621 1.499-2.005-1.21c-0.024-0.008-0.032 0.883-0.027 1.983z"/>
</svg>