<svg xmlns="http://www.w3.org/2000/svg" version="1.1" width="24" height="24" viewBox="0 0 24 24">
<path d="M20.68 3.17c-1.334-1.919-3.528-3.16-6.012-3.16-1.4 0-2.708 0.394-3.819 1.078l0.032-0.018-5.6 3.56c-1.501 0.951-2.565 2.477-2.884 4.261l-0.006 0.039c-0.070 0.362-0.11 0.778-0.11 1.203 0 1.144 0.289 2.221 0.797 3.162l-0.017-0.035c-0.462 0.683-0.795 1.492-0.945 2.364l-0.005 0.036c-0.067 0.36-0.105 0.774-0.105 1.196 0 1.486 0.474 2.862 1.279 3.984l-0.014-0.020c1.34 1.922 3.541 3.163 6.031 3.163 1.392 0 2.693-0.388 3.802-1.062l-0.032 0.018 5.6-3.56c1.497-0.953 2.557-2.479 2.874-4.262l0.006-0.038c0.069-0.36 0.108-0.773 0.108-1.196 0-1.143-0.288-2.219-0.796-3.159l0.017 0.035c0.666-1.032 1.062-2.293 1.062-3.647 0-1.479-0.473-2.848-1.276-3.963l0.014 0.020zM10.32 21.13c-0.335 0.091-0.719 0.143-1.115 0.143-1.505 0-2.835-0.751-3.636-1.898l-0.010-0.014c-0.65-0.9-0.89-2.010-0.7-3.11l0.11-0.53 0.1-0.33 0.3 0.2c0.66 0.5 1.4 0.86 2.19 1.1l0.2 0.070-0.020 0.2c-0.020 0.28 0.060 0.59 0.22 0.83 0.33 0.47 0.9 0.7 1.45 0.55 0.12-0.040 0.24-0.080 0.34-0.14l5.58-3.56c0.28-0.18 0.46-0.45 0.53-0.77 0.060-0.33-0.020-0.67-0.2-0.94-0.33-0.46-0.9-0.67-1.45-0.53-0.12 0.040-0.25 0.090-0.35 0.15l-2.11 1.34c-0.647 0.39-1.428 0.621-2.263 0.621-1.5 0-2.827-0.746-3.628-1.887l-0.009-0.014c-0.478-0.662-0.765-1.49-0.765-2.384 0-0.256 0.024-0.507 0.069-0.751l-0.004 0.025c0.203-1.105 0.854-2.029 1.754-2.591l0.016-0.009 5.57-3.56c0.35-0.22 0.73-0.38 1.14-0.5 1.8-0.47 3.7 0.24 4.76 1.76 0.478 0.664 0.764 1.494 0.764 2.39 0 0.446-0.071 0.876-0.202 1.279l0.008-0.029-0.1 0.33-0.29-0.2c-0.629-0.464-1.36-0.839-2.147-1.086l-0.053-0.014-0.2-0.060 0.020-0.2c0.020-0.29-0.060-0.6-0.22-0.84-0.33-0.47-0.9-0.67-1.45-0.53-0.12 0.040-0.24 0.080-0.34 0.14l-5.59 3.59c-0.28 0.19-0.46 0.45-0.52 0.78-0.060 0.32 0.020 0.67 0.2 0.93 0.32 0.47 0.9 0.67 1.44 0.53 0.13-0.040 0.25-0.080 0.35-0.14l2.13-1.36c0.35-0.23 0.74-0.4 1.14-0.51 1.81-0.47 3.7 0.24 4.76 1.77 0.65 0.9 0.9 2.010 0.72 3.1-0.198 1.102-0.842 2.025-1.734 2.591l-0.016 0.009-5.58 3.55c-0.334 0.205-0.718 0.379-1.125 0.501l-0.035 0.009z"/>
</svg>