<svg xmlns="http://www.w3.org/2000/svg" version="1.1" width="24" height="24" viewBox="0 0 24 24">
<path d="M23.994 14.34c-0.010 0.229-0.313 0.485-0.935 0.81-1.281 0.667-7.916 3.396-9.328 4.132s-2.197 0.729-3.313 0.195c-1.116-0.533-8.176-3.386-9.448-3.993-0.635-0.304-0.959-0.56-0.97-0.802v2.426c0 0.242 0.334 0.499 0.97 0.803 1.272 0.608 8.333 3.46 9.448 3.993 1.116 0.534 1.9 0.541 3.313-0.196 1.412-0.736 8.047-3.464 9.328-4.132 0.651-0.339 0.939-0.603 0.939-0.842 0-0.226 0.001-2.392 0.001-2.392-0.001-0.001-0.004-0.001-0.005-0.002zM23.993 10.385c-0.011 0.229-0.313 0.484-0.934 0.809-1.281 0.667-7.916 3.396-9.328 4.132s-2.197 0.729-3.313 0.196-8.176-3.386-9.448-3.994c-0.635-0.303-0.959-0.56-0.97-0.801v2.426c0 0.242 0.334 0.498 0.97 0.802 1.272 0.608 8.332 3.46 9.448 3.993 1.116 0.534 1.9 0.541 3.313-0.195 1.412-0.736 8.047-3.465 9.328-4.132 0.651-0.34 0.939-0.604 0.939-0.843 0-0.226 0.001-2.392 0.001-2.392-0.001-0.001-0.004 0-0.006-0.001zM23.993 6.283c0.012-0.244-0.307-0.458-0.949-0.694-1.248-0.457-7.843-3.082-9.106-3.545s-1.777-0.443-3.261 0.089c-1.484 0.533-8.506 3.287-9.755 3.776-0.625 0.246-0.931 0.473-0.92 0.715v2.426c0 0.242 0.334 0.498 0.97 0.802 1.272 0.608 8.332 3.461 9.448 3.994s1.9 0.54 3.313-0.196c1.412-0.736 8.047-3.465 9.328-4.132 0.651-0.34 0.939-0.604 0.939-0.843 0-0.225 0.001-2.392 0.001-2.392zM8.594 8.579l5.561-0.854-1.68 2.463zM20.893 6.361l-3.645 1.439-3.287-1.299 3.642-1.44zM11.238 3.978l-0.538-0.992 1.678 0.656 1.582-0.518-0.428 1.025 1.612 0.604-2.079 0.216-0.466 1.12-0.752-1.249-2.401-0.216zM7.095 5.377c1.642 0 2.972 0.516 2.972 1.152s-1.331 1.152-2.972 1.152-2.973-0.517-2.973-1.152c0-0.636 1.331-1.152 2.973-1.152z"/>
</svg>