<svg xmlns="http://www.w3.org/2000/svg" version="1.1" width="24" height="24" viewBox="0 0 24 24">
<path d="M21.825 0h-19.65c-1.2 0-2.175 0.975-2.175 2.175v19.65c0 1.2 0.975 2.175 2.175 2.175h19.65c1.2 0 2.175-0.975 2.175-2.175v-19.65c0-1.2-0.975-2.175-2.175-2.175zM8.020 4.667c0.798 0 1.468 0.63 1.468 1.44 0 0.82-0.67 1.444-1.468 1.444v0.027c-0.803 0-1.454-0.65-1.454-1.455s0.65-1.455 1.454-1.456zM17.836 18.482c-1.484 0-2.204-0.885-2.204-2.090 0-0.346 0.044-0.713 0.15-1.080l0.71-2.545c0.088-0.28 0.11-0.54 0.11-0.775 0-0.82-0.5-1.315-1.296-1.315-1.013 0-1.68 0.727-2.025 2.13l-1.38 5.535h-2.414l0.432-1.74c-0.708 1.166-1.695 1.885-2.91 1.885-1.467 0-2.157-0.842-2.157-2.113 0.004-0.365 0.047-0.73 0.13-1.085v0.002l1.1-4.49h-1.707l0.518-1.905h4.1l-1.62 6.405c-0.105 0.41-0.15 0.75-0.15 0.986 0 0.41 0.202 0.53 0.517 0.604 0.195 0.040 1.725 0.012 2.56-1.84l1.060-4.25h-1.723l0.52-1.875h3.72l-0.48 2.16c0.647-1.2 1.937-2.355 3.212-2.355 1.35 0 2.475 0.975 2.475 2.82 0 0.534-0.080 1.065-0.24 1.575l-0.69 2.476c-0.060 0.254-0.104 0.465-0.104 0.66 0 0.434 0.18 0.645 0.494 0.645s0.735-0.24 1.2-1.56l0.943 0.36c-0.555 1.964-1.576 2.774-2.851 2.775z"/>
</svg>