<svg xmlns="http://www.w3.org/2000/svg" version="1.1" width="24" height="24" viewBox="0 0 24 24">
<path d="M16.861 0l-1.127 10.584-1.924-8.924-6.033 1.266 1.924 8.922-8.695 1.822 1.535 7.127 15.291 3.203 3.498-7.744 1.664-15.62zM11.39 13.61c0.004-0 0.008-0 0.013-0 0.112 0 0.218 0.024 0.314 0.068l-0.005-0.002c0.208 0.093 0.56 0.29 0.63 0.592 0.103 0.434 0.004 0.799-0.312 1.084v0.002c-0.315 0.284-0.732 0.258-1.174 0.113-0.441-0.145-0.637-0.672-0.47-1.309 0.124-0.473 0.71-0.544 1.004-0.548zM15.532 14.158c0.447-0.012 0.832 0.186 1.050 0.543s0.107 0.75-0.122 1.143h-0.002c-0.229 0.392-0.83 0.445-1.422 0.16-0.399-0.193-0.397-0.684-0.353-0.983 0.025-0.171 0.094-0.324 0.194-0.449l-0.001 0.002c0.142-0.177 0.381-0.408 0.656-0.416z"/>
</svg>