<svg xmlns="http://www.w3.org/2000/svg" version="1.1" width="24" height="24" viewBox="0 0 24 24">
<path d="M10.204 14.35l0.007 0.010-0.999 2.413c-0.95-0.614-1.673-1.507-2.063-2.561l-0.012-0.036 2.578-0.437 0.004 0.005c0.024-0.005 0.052-0.007 0.081-0.007 0.243 0 0.44 0.197 0.44 0.44 0 0.063-0.013 0.122-0.037 0.176l0.001-0.003zM9.371 12.221c0.188-0.053 0.324-0.223 0.324-0.424 0-0.132-0.058-0.251-0.15-0.331l-0.001-0 0.002-0.011-1.961-1.754c-0.478 0.766-0.761 1.696-0.761 2.692 0 0.198 0.011 0.394 0.033 0.586l-0.002-0.024 2.514-0.725zM10.516 10.241c0.072 0.053 0.162 0.085 0.259 0.085 0.237 0 0.429-0.187 0.44-0.421l0-0.001 0.010-0.005 0.15-2.62c-1.182 0.142-2.221 0.666-3.011 1.443l0.001-0.001 2.147 1.523zM11.276 12.991l0.723 0.349 0.722-0.347 0.18-0.78-0.5-0.623h-0.804l-0.5 0.623zM12.776 9.896c0.010 0.235 0.203 0.421 0.44 0.421 0.098 0 0.188-0.032 0.262-0.086l-0.001 0.001 0.008 0.003 2.134-1.513c-0.786-0.77-1.817-1.293-2.966-1.439l-0.026-0.003 0.148 2.615zM23.652 15.866l-5.773 7.181c-0.296 0.364-0.743 0.594-1.244 0.594-0.001 0-0.003 0-0.004 0l-9.261 0.003c-0 0-0.001 0-0.001 0-0.502 0-0.95-0.231-1.243-0.593l-0.002-0.003-5.776-7.18c-0.216-0.268-0.347-0.613-0.347-0.988 0-0.125 0.014-0.246 0.042-0.362l-0.002 0.011 2.060-8.955c0.108-0.47 0.425-0.864 0.863-1.073l8.342-3.987c0.203-0.099 0.441-0.157 0.693-0.157s0.49 0.058 0.702 0.161l-0.010-0.004 8.345 3.985c0.438 0.209 0.755 0.604 0.863 1.073l2.062 8.955c0.108 0.47-0.005 0.963-0.308 1.34zM20.363 13.809c-0.042-0.010-0.103-0.026-0.145-0.034-0.174-0.033-0.315-0.025-0.479-0.038-0.35-0.037-0.638-0.067-0.895-0.148-0.105-0.040-0.18-0.165-0.216-0.216l-0.201-0.059c0.038-0.265 0.060-0.57 0.060-0.881 0-0.515-0.060-1.015-0.174-1.495l0.009 0.044c-0.192-0.821-0.515-1.545-0.95-2.186l0.014 0.023c0.052-0.047 0.15-0.133 0.177-0.159 0.008-0.090 0.001-0.183 0.094-0.282 0.197-0.185 0.444-0.338 0.743-0.522 0.142-0.084 0.273-0.137 0.415-0.242 0.032-0.024 0.076-0.062 0.11-0.089 0.24-0.191 0.295-0.52 0.123-0.736s-0.506-0.236-0.745-0.045c-0.034 0.027-0.080 0.062-0.111 0.088-0.134 0.116-0.217 0.23-0.33 0.35-0.246 0.25-0.45 0.458-0.673 0.609-0.097 0.056-0.239 0.037-0.303 0.033l-0.19 0.135c-1.061-1.112-2.505-1.85-4.12-2.001l-0.026-0.002-0.012-0.223c-0.065-0.062-0.143-0.115-0.163-0.25-0.022-0.268 0.015-0.557 0.057-0.905 0.023-0.163 0.061-0.298 0.068-0.475 0.001-0.040-0.001-0.099-0.001-0.142 0-0.306-0.224-0.555-0.5-0.555-0.275 0-0.499 0.249-0.499 0.555l0.001 0.014c0 0.041-0.002 0.092 0 0.128 0.006 0.177 0.044 0.312 0.067 0.475 0.042 0.348 0.078 0.637 0.056 0.906-0.030 0.103-0.086 0.191-0.161 0.258l-0.001 0-0.012 0.211c-1.651 0.136-3.106 0.878-4.163 2l-0.003 0.003c-0.086-0.059-0.145-0.101-0.203-0.144l0.023 0.016c-0.090 0.012-0.18 0.040-0.297-0.029-0.223-0.15-0.427-0.358-0.673-0.608-0.113-0.12-0.195-0.234-0.329-0.349-0.030-0.026-0.077-0.062-0.111-0.088-0.095-0.077-0.215-0.126-0.347-0.132l-0.001-0c-0.008-0-0.017-0.001-0.026-0.001-0.15 0-0.284 0.068-0.372 0.176l-0.001 0.001c-0.172 0.216-0.117 0.546 0.123 0.737l0.007 0.005 0.104 0.083c0.142 0.105 0.272 0.159 0.414 0.242 0.299 0.185 0.546 0.338 0.743 0.522 0.076 0.082 0.090 0.226 0.1 0.288l0.16 0.143c-0.68 1.007-1.086 2.249-1.086 3.585 0 0.325 0.024 0.644 0.070 0.956l-0.004-0.035-0.208 0.060c-0.055 0.072-0.133 0.184-0.215 0.217-0.257 0.081-0.546 0.11-0.895 0.147-0.164 0.014-0.305 0.006-0.48 0.039-0.037 0.007-0.090 0.020-0.133 0.030l-0.004 0.002-0.007 0.002c-0.295 0.071-0.484 0.342-0.423 0.608 0.061 0.267 0.349 0.429 0.645 0.365l0.007-0.001 0.010-0.003 0.129-0.029c0.17-0.046 0.294-0.113 0.448-0.172 0.33-0.118 0.604-0.217 0.87-0.256 0.112-0.009 0.23 0.069 0.288 0.101l0.217-0.037c0.507 1.536 1.526 2.787 2.85 3.58l0.030 0.016-0.090 0.218c0.033 0.084 0.069 0.199 0.044 0.282-0.097 0.252-0.263 0.517-0.452 0.813-0.091 0.136-0.185 0.242-0.268 0.399-0.020 0.037-0.045 0.095-0.064 0.134-0.128 0.275-0.034 0.591 0.213 0.71 0.248 0.12 0.556-0.007 0.69-0.282v-0.002c0.020-0.039 0.046-0.090 0.062-0.127 0.070-0.162 0.094-0.301 0.144-0.458 0.132-0.332 0.205-0.68 0.387-0.897 0.050-0.060 0.13-0.082 0.215-0.105l0.113-0.205c0.688 0.273 1.486 0.432 2.32 0.432 0.823 0 1.609-0.154 2.333-0.435l-0.044 0.015 0.106 0.192c0.086 0.028 0.18 0.042 0.256 0.155 0.136 0.232 0.229 0.507 0.342 0.84 0.050 0.156 0.074 0.295 0.145 0.457 0.016 0.037 0.043 0.090 0.062 0.129 0.133 0.276 0.442 0.402 0.69 0.282 0.247-0.118 0.341-0.435 0.213-0.71-0.020-0.039-0.045-0.096-0.065-0.134-0.083-0.156-0.177-0.261-0.268-0.398-0.19-0.296-0.346-0.541-0.443-0.793-0.040-0.13 0.007-0.21 0.038-0.294-0.018-0.022-0.059-0.144-0.083-0.202 1.358-0.815 2.378-2.076 2.867-3.576l0.013-0.046c0.064 0.010 0.176 0.030 0.213 0.038 0.075-0.050 0.144-0.114 0.28-0.104 0.266 0.039 0.54 0.138 0.87 0.256 0.154 0.060 0.277 0.128 0.448 0.173 0.036 0.010 0.088 0.019 0.13 0.028l0.009 0.003 0.007 0.001c0.297 0.064 0.584-0.098 0.645-0.365 0.060-0.266-0.128-0.537-0.423-0.608zM16.4 9.701l-1.95 1.746v0.005c-0.093 0.081-0.152 0.2-0.152 0.332 0 0.202 0.136 0.372 0.322 0.424l0.003 0.001 0.003 0.010 2.526 0.728c0.016-0.152 0.025-0.328 0.025-0.507 0-0.414-0.048-0.817-0.14-1.203l0.007 0.035c-0.139-0.595-0.361-1.12-0.657-1.594l0.013 0.022zM12.387 15.026c-0.075-0.139-0.22-0.232-0.386-0.232-0.006 0-0.013 0-0.019 0l0.001-0c-0.161 0.006-0.299 0.098-0.371 0.231l-0.001 0.002h-0.002l-1.268 2.292c0.497 0.175 1.070 0.277 1.667 0.277 0.594 0 1.164-0.1 1.695-0.285l-0.036 0.011-1.27-2.296zM14.275 13.733c-0.024-0.005-0.052-0.007-0.080-0.007-0.069 0-0.135 0.016-0.193 0.044l0.003-0.001c-0.149 0.073-0.25 0.223-0.25 0.397 0 0.063 0.013 0.123 0.037 0.178l-0.001-0.003-0.003 0.004 1.010 2.438c0.956-0.617 1.683-1.516 2.070-2.579l0.011-0.036-2.6-0.44z"/>
</svg>