<svg xmlns="http://www.w3.org/2000/svg" version="1.1" width="24" height="24" viewBox="0 0 24 24">
<path d="M2.456 1.375c-0.637 0.002-1.216 0.246-1.652 0.644l0.002-0.002c-0.94 0.867-1.016 2.331-0.253 3.363l4.917 6.59-4.946 6.65c-0.762 1.032-0.702 2.496 0.254 3.363 0.434 0.398 1.015 0.642 1.653 0.642 0.801 0 1.513-0.385 1.96-0.979l0.005-0.006 6.904-9.28c0.077-0.106 0.124-0.238 0.124-0.381s-0.046-0.276-0.125-0.383l0.001 0.002-6.876-9.235c-0.448-0.601-1.157-0.986-1.955-0.986-0.004 0-0.008 0-0.012 0h0.001zM21.545 1.375c-0.004-0-0.008-0-0.013-0-0.799 0-1.508 0.385-1.951 0.98l-0.005 0.006-6.86 9.22c-0.077 0.106-0.123 0.238-0.123 0.381s0.046 0.275 0.125 0.383l-0.001-0.002 6.89 9.296c0.452 0.601 1.163 0.986 1.964 0.986 0.638 0 1.219-0.244 1.655-0.643l-0.002 0.002c0.956-0.867 1.016-2.331 0.254-3.363l-4.947-6.65 4.917-6.59c0.762-1.032 0.687-2.496-0.254-3.363-0.434-0.396-1.013-0.64-1.649-0.642h-0z"/>
</svg>