<svg xmlns="http://www.w3.org/2000/svg" version="1.1" width="24" height="24" viewBox="0 0 24 24">
<path d="M14.439 11.358c-0.084-0.057-0.199-0.034-0.256 0.051-0.334 0.503-1.043 0.53-1.080 0.53-0.007 0-0.010 0-0.017 0-0.874 0-1.208 0.746-1.221 0.776-0.040 0.094 0.003 0.202 0.094 0.243 0.024 0.010 0.051 0.017 0.074 0.017 0.071 0 0.138-0.040 0.169-0.111 0.003-0.007 0.233-0.52 0.823-0.553v0.955c-0.024 0.206-0.121 0.368-0.294 0.489-0.179 0.125-0.418 0.189-0.712 0.189-0.351 0-0.638-0.121-0.85-0.361-0.216-0.24-0.324-0.58-0.324-1.019l0.003-1.053c0.017-0.388 0.121-0.695 0.321-0.914 0.216-0.24 0.499-0.361 0.85-0.361 0.294 0 0.533 0.064 0.712 0.189s0.28 0.297 0.297 0.52v0c0 0.007 0 0.017 0 0.024 0 0.128 0.105 0.233 0.233 0.233s0.233-0.105 0.233-0.233c0-0.007 0-0.017 0-0.024v0c-0.034-0.334-0.186-0.597-0.459-0.796-0.273-0.201-0.613-0.299-1.025-0.299-0.489 0-0.884 0.162-1.184 0.482-0.283 0.3-0.432 0.695-0.449 1.181v0 0c0 0.034-0.003 0.067-0.003 0.101l0.003 0.948h-0.003c0 0.536 0.152 0.965 0.452 1.285s0.695 0.482 1.184 0.482c0.412 0 0.752-0.098 1.026-0.297 0.25-0.182 0.398-0.422 0.449-0.719l0.010-1.059c0.307-0.074 0.725-0.243 0.989-0.641 0.066-0.083 0.043-0.198-0.045-0.255zM17.688 0.511h2.588c0.115 0 0.209-0.094 0.209-0.209s-0.094-0.209-0.209-0.209h-2.588c-0.115 0-0.209 0.094-0.209 0.209s0.094 0.209 0.209 0.209zM3.825 0.511h2.588c0.115 0 0.209-0.094 0.209-0.209s-0.095-0.209-0.209-0.209h-2.588c-0.115 0-0.209 0.094-0.209 0.209s0.091 0.209 0.209 0.209zM20.408 2.191c0.116 0 0.209 0.094 0.209 0.209 0 0.116-0.094 0.209-0.209 0.209-0.116 0-0.209-0.094-0.209-0.209-0.001-0.115 0.093-0.209 0.209-0.209zM11.99 1.533c0.116 0 0.209 0.094 0.209 0.209s-0.094 0.209-0.209 0.209-0.209-0.094-0.209-0.209 0.093-0.209 0.209-0.209zM8.11 2.404c0.003 0 0.007 0 0.010 0 0.786 0 1.137-0.493 1.404-0.951 0.088-0.152 0.412-0.658 0.87-0.789 0.567-0.165 1.171 0.098 1.407 0.614 0.034 0.074 0.108 0.118 0.182 0.121 0.003 0 0.007 0 0.010 0s0.007 0 0.013 0c0.074-0.003 0.148-0.047 0.182-0.121 0.236-0.516 0.84-0.779 1.407-0.614 0.459 0.135 0.783 0.638 0.87 0.789 0.267 0.462 0.617 0.951 1.414 0.951v0c0.479 0 1.046-0.358 1.204-1.043 0.132-0.567-0.111-1.080-0.641-1.339-0.105-0.051-0.229-0.010-0.28 0.094s-0.010 0.229 0.094 0.28c0.503 0.25 0.459 0.692 0.418 0.87-0.081 0.351-0.391 0.722-0.8 0.722-0.523 0-0.773-0.263-1.053-0.746-0.138-0.236-0.523-0.81-1.113-0.982-0.644-0.189-1.326 0.037-1.717 0.533-0.391-0.496-1.073-0.722-1.717-0.533-0.59 0.172-0.975 0.746-1.113 0.982-0.28 0.482-0.53 0.746-1.043 0.746-0.003 0-0.007 0-0.007 0-0.445-0.003-0.729-0.314-0.81-0.621-0.040-0.145-0.125-0.641 0.442-0.978 0.098-0.057 0.132-0.186 0.071-0.287-0.059-0.097-0.183-0.131-0.285-0.070-0.651 0.388-0.752 1.002-0.631 1.447 0.149 0.55 0.638 0.921 1.212 0.925zM11.996 22.1h0.004zM3.498 2.191c0.116 0 0.209 0.094 0.209 0.209 0 0.116-0.094 0.209-0.209 0.209s-0.21-0.093-0.21-0.209c0-0.115 0.094-0.209 0.21-0.209zM2.911 0.096c0.116 0 0.209 0.094 0.209 0.209s-0.094 0.209-0.209 0.209-0.21-0.093-0.21-0.209 0.094-0.209 0.21-0.209zM21.15 0.096c0.116 0 0.209 0.094 0.209 0.209s-0.094 0.209-0.209 0.209-0.209-0.094-0.209-0.209 0.093-0.209 0.209-0.209zM22.27 13.5c0.116 0 0.209 0.094 0.209 0.209 0 0.116-0.094 0.209-0.209 0.209-0.116 0-0.209-0.094-0.209-0.209s0.093-0.209 0.209-0.209zM21.43 18.285c0.116 0 0.209 0.094 0.209 0.209 0 0.116-0.094 0.209-0.209 0.209s-0.209-0.094-0.209-0.209c0-0.116 0.093-0.209 0.209-0.209zM20.087 18.882c0.116 0 0.209 0.094 0.209 0.209 0 0.116-0.094 0.209-0.209 0.209-0.116 0-0.209-0.094-0.209-0.209 0-0.116 0.094-0.209 0.209-0.209zM7.674 1.088c0 0.31 0.253 0.563 0.563 0.563s0.563-0.253 0.563-0.563-0.252-0.564-0.562-0.564c-0.31-0.003-0.564 0.25-0.564 0.564zM8.238 0.939c0.081 0 0.148 0.067 0.148 0.148s-0.067 0.148-0.148 0.148-0.148-0.067-0.148-0.148c-0.001-0.080 0.067-0.148 0.148-0.148zM15.829 1.651c0.31 0 0.563-0.253 0.563-0.563s-0.253-0.563-0.563-0.563-0.563 0.253-0.563 0.563 0.253 0.563 0.563 0.563zM15.829 0.939c0.081 0 0.148 0.067 0.148 0.148s-0.067 0.148-0.148 0.148-0.148-0.067-0.148-0.148c0-0.080 0.067-0.148 0.148-0.148zM12.56 1.439c-0.108 0.040-0.162 0.159-0.121 0.267s0.159 0.162 0.267 0.125c0.034-0.013 0.843-0.283 1.464 0.682 0.040 0.061 0.108 0.094 0.175 0.094 0.037 0 0.078-0.010 0.111-0.034 0.098-0.061 0.125-0.192 0.064-0.287-0.648-1.002-1.565-0.992-1.96-0.847zM11.433 1.439c-0.030-0.010-0.307-0.108-0.685-0.051-0.351 0.051-0.854 0.25-1.272 0.901-0.061 0.098-0.034 0.226 0.064 0.287 0.034 0.024 0.074 0.034 0.111 0.034 0.067 0 0.135-0.034 0.175-0.094 0.617-0.965 1.427-0.695 1.464-0.682 0.108 0.040 0.226-0.017 0.267-0.125s-0.016-0.23-0.124-0.27zM21.032 2.009l1.016-1.154v1.663c0 0.115 0.094 0.209 0.209 0.209s0.209-0.094 0.209-0.209v-2.213c0-0.088-0.054-0.165-0.135-0.196s-0.172-0.007-0.229 0.057l-1.38 1.569c-0.078 0.088-0.067 0.219 0.020 0.294 0.081 0.078 0.212 0.068 0.29-0.020zM1.767 2.731c0.115 0 0.209-0.094 0.209-0.209v-1.664l1.016 1.154c0.077 0.088 0.209 0.095 0.293 0.021 0.088-0.078 0.094-0.209 0.020-0.294l-1.38-1.572c-0.057-0.064-0.148-0.088-0.229-0.058-0.081 0.031-0.135 0.108-0.135 0.196v2.217c0 0.114 0.091 0.209 0.206 0.209zM16.497 2.937c-0.098-0.007-0.189 0.061-0.213 0.155-0.024 0.098 0.024 0.199 0.111 0.24 0.331 0.155 0.631 0.216 0.901 0.216 0.516 0 0.928-0.226 1.215-0.462 0.459-0.378 0.695-0.854 0.705-0.874 0.047-0.098 0.013-0.216-0.081-0.27-0.213-0.125-0.58-0.202-1.14 0.138-0.28 0.172-0.496 0.378-0.533 0.415-0.513 0.452-0.941 0.442-0.965 0.442zM17.742 2.805c0.003-0.003 0.007-0.007 0.010-0.010 0.159-0.159 0.607-0.526 0.958-0.543-0.101 0.145-0.253 0.341-0.459 0.513-0.304 0.25-0.628 0.371-0.972 0.364 0.143-0.074 0.301-0.182 0.463-0.324zM4.958 1.941c-0.094 0.054-0.128 0.173-0.080 0.27 0.010 0.020 0.246 0.496 0.705 0.874 0.287 0.236 0.695 0.462 1.215 0.462 0.273 0 0.574-0.061 0.901-0.216 0.091-0.044 0.135-0.142 0.111-0.24s-0.112-0.161-0.213-0.158c-0.017 0-0.449 0.013-0.962-0.439-0.037-0.036-0.253-0.242-0.533-0.414-0.56-0.338-0.931-0.26-1.144-0.139zM6.355 2.805c0.159 0.142 0.317 0.246 0.462 0.324-0.729 0.007-1.211-0.55-1.431-0.877 0.351 0.017 0.8 0.385 0.958 0.543 0.005 0.003 0.008 0.007 0.011 0.010zM22.516 19.759c-0.209-0.175-0.439-0.277-0.651-0.334 0.081-0.061 0.159-0.132 0.226-0.209 0.516-0.607 0.52-1.501 0.007-2.082-0.078-0.088-0.209-0.094-0.294-0.017-0.088 0.078-0.094 0.209-0.017 0.294 0.375 0.425 0.368 1.083-0.013 1.535-0.31 0.364-0.901 0.452-1.076 0.472-0.53 0.057-1.124 0.179-1.444 0.904-0.051 0.111-0.081 0.236-0.088 0.371-0.074-0.024-0.155-0.037-0.236-0.037-0.422 0-0.766 0.344-0.766 0.766 0 0.29 0.162 0.543 0.401 0.671-0.071 0.064-0.138 0.135-0.199 0.216-0.709-0.955-1.842-1.555-3.090-1.555-0.179 0-0.358 0.013-0.53 0.037 1.026-0.314 1.98-0.803 2.851-1.451v0c1.124-0.84 2.058-1.937 2.699-3.168 0.675-1.296 1.016-2.696 1.016-4.153 0-0.010 0-0.017 0-0.027 0-0.003 0-0.003 0-0.007s0-0.007 0-0.010c-0.007-1.184-0.27-2.25-0.644-3.168 0.138 0.027 0.27 0.037 0.388 0.037 0.874 0 1.258-0.601 1.299-0.671v0c0.189-0.317 0.219-0.702 0.111-1.049 0.003-0.010 0.003-0.024 0.003-0.037v-3.803c0-0.115-0.094-0.209-0.209-0.209s-0.209 0.094-0.209 0.209v3.195c-0.354-0.307-0.867-0.341-1.080-0.341-0.412 0.003-0.668-0.061-0.857-0.385-0.159-0.273-0.067-0.557 0.091-0.719 0.199-0.202 0.482-0.229 0.759-0.078 0.101 0.054 0.229 0.020 0.283-0.081s0.020-0.229-0.081-0.283c-0.439-0.243-0.931-0.182-1.258 0.148-0.324 0.331-0.385 0.82-0.155 1.218 0.3 0.516 0.756 0.59 1.204 0.59 0.007 0 0.010 0 0.017 0 0.135 0 0.57 0.020 0.82 0.256 0.324 0.307 0.408 0.789 0.196 1.147 0 0-0.003 0.003-0.003 0.007-0.017 0.030-0.418 0.712-1.538 0.354-0.337-0.715-0.729-1.323-1.093-1.808l-0.166 0.127 0.165-0.128-0.067-0.088c-0.719-1.204 0.111-2.487 0.543-3.030l0.243-0.277c0.074-0.088 0.067-0.219-0.020-0.294-0.084-0.071-0.206-0.067-0.283 0.010v0c-0.007 0.007-0.044 0.044-0.101 0.108-0.375 0.381-1.839 1.731-3.259 1.026l-0.040-0.027-0.020-0.013c-1.272-0.685-2.527-1.080-3.725-1.181-0.155-0.354-0.361-0.624-0.621-0.624-0.263 0-0.469 0.273-0.628 0.634-1.677 0.074-3.762 1.157-3.85 1.201-1.428 0.72-2.899-0.637-3.274-1.018-0.057-0.064-0.098-0.101-0.101-0.108v0c-0.078-0.078-0.199-0.081-0.283-0.010-0.088 0.074-0.094 0.206-0.020 0.294v0 0 0l0.26 0.294c0.151 0.188 0.343 0.461 0.505 0.788 0.405 0.82 0.412 1.565 0.024 2.22-0.483 0.601-0.874 1.232-1.174 1.897-1.13 0.368-1.535-0.321-1.552-0.351 0-0.003-0.003-0.003-0.003-0.007-0.213-0.358-0.129-0.84 0.195-1.147 0.25-0.236 0.685-0.256 0.82-0.256h0.003c0.452 0 0.918-0.071 1.218-0.59 0.23-0.399 0.169-0.892-0.155-1.219-0.327-0.334-0.82-0.391-1.258-0.148-0.102 0.054-0.139 0.182-0.081 0.283 0.054 0.101 0.182 0.138 0.283 0.081 0.28-0.152 0.563-0.125 0.759 0.078 0.159 0.162 0.247 0.445 0.091 0.718-0.185 0.321-0.438 0.385-0.843 0.385-0.003 0-0.007 0-0.013 0-0.186 0-0.617 0.027-0.962 0.25v-3.047c0-0.115-0.094-0.209-0.209-0.209s-0.209 0.094-0.209 0.209v3.509c-0.23 0.411-0.243 0.914-0.007 1.319 0.023 0.044 0.168 0.287 0.492 0.469 0.186 0.104 0.452 0.202 0.807 0.202 0.128 0 0.27-0.013 0.422-0.044-0.364 0.978-0.547 2.031-0.553 3.178 0 0.003 0 0.003 0 0.007v0.003c0 0.010 0 0.020 0 0.027 0 2.072 0.729 4.106 2.051 5.729 1.171 1.437 2.763 2.503 4.528 3.047-0.186-0.027-0.375-0.040-0.563-0.040-1.238 0-2.362 0.59-3.070 1.532-0.057-0.074-0.121-0.145-0.192-0.206 0.223-0.135 0.375-0.378 0.375-0.658 0-0.422-0.344-0.766-0.766-0.766-0.078 0-0.152 0.013-0.223 0.034-0.010-0.132-0.040-0.256-0.088-0.368-0.324-0.725-0.914-0.847-1.444-0.904-0.175-0.020-0.766-0.108-1.076-0.472-0.391-0.442-0.398-1.1-0.024-1.525 0.078-0.088 0.067-0.219-0.017-0.294-0.088-0.078-0.219-0.067-0.294 0.017-0.509 0.58-0.506 1.474 0.007 2.082 0.067 0.081 0.145 0.148 0.226 0.209-0.213 0.057-0.442 0.162-0.651 0.334-0.496 0.408-0.749 1.090-0.756 2.018-0.017 0.084 0.020 0.172 0.094 0.219 0.034 0.020 0.071 0.030 0.108 0.030 0.013 0 0.030-0.003 0.044-0.007h0.003c0.007 0 0.010-0.003 0.017-0.007 0.010-0.003 0.024-0.007 0.034-0.013 0.003 0 0.003-0.003 0.007-0.003 0.034-0.020 0.064-0.047 0.084-0.081 0.081-0.105 0.415-0.236 0.692-0.294 1.083-0.236 1.309-0.968 1.275-1.319-0.010-0.115-0.111-0.199-0.226-0.189s-0.199 0.111-0.189 0.226c0 0.003 0.003 0.064-0.017 0.155-0.051 0.209-0.236 0.57-0.931 0.722-0.003 0-0.003 0-0.007 0-0.081 0.017-0.324 0.074-0.55 0.179 0.061-0.601 0.253-1.039 0.58-1.312 0.503-0.418 1.167-0.3 1.174-0.297 0.024 0.003 0.044 0.003 0.064 0 0.111 0.024 0.206 0.037 0.277 0.044 0.557 0.061 0.897 0.182 1.11 0.658 0.165 0.375-0.047 0.806-0.334 1.022-0.145 0.111-0.533 0.331-0.968-0.027-0.088-0.074-0.219-0.061-0.294 0.027-0.074 0.088-0.061 0.219 0.027 0.294 0.196 0.162 0.415 0.256 0.641 0.283-0.29 0.236-0.486 0.533-0.574 0.688-0.283 0.489-0.513 0.752-0.894 0.756v-1.461c0-0.115-0.094-0.209-0.209-0.209s-0.209 0.094-0.209 0.209v1.694c0 0.084 0.051 0.155 0.121 0.189 0.037 0.027 0.081 0.047 0.128 0.047h4.858c0.074 0 0.135-0.037 0.175-0.094 0.027-0.027 0.051-0.061 0.061-0.101 0.192-0.746 0.864-1.265 1.633-1.265 0.688 0 1.299 0.418 1.559 1.043h-0.444c-0.182-0.449-0.621-0.749-1.117-0.749-0.543 0-1.022 0.368-1.167 0.891-0.030 0.111 0.037 0.226 0.145 0.256 0.111 0.030 0.226-0.037 0.256-0.145 0.094-0.344 0.408-0.584 0.763-0.584 0.263 0 0.499 0.128 0.644 0.331h-0.122c-0.115 0-0.209 0.094-0.209 0.209s0.094 0.209 0.209 0.209h0.422c0.007-0.001 0.017 0.002 0.024 0.002 0.010 0 0.020 0 0.027-0.003h0.837c0.115 0 0.209-0.094 0.209-0.209 0-0.010 0-0.020-0.003-0.030 0.003-0.027 0.003-0.057-0.003-0.088-0.246-0.914-1.083-1.552-2.031-1.552-0.918 0-1.724 0.594-2.004 1.461h-1.090c0.088-0.28 0.206-0.54 0.354-0.783 0.010-0.013 0.017-0.027 0.027-0.040 0.617-0.968 1.697-1.589 2.895-1.589 0.709 0 1.39 0.216 1.967 0.621 0.017 0.010 0.034 0.020 0.051 0.024 0.088 0.105 0.175 0.216 0.26 0.331 0.020 0.027 0.037 0.054 0.057 0.081-0.020 0.428 0.213 0.877 0.695 1.336 0.017 0.051 0.034 0.094 0.044 0.128v0.044c0 0.115 0.094 0.209 0.209 0.209 0.098 0 0.175-0.064 0.199-0.155v0c0-0.003 0.030-0.105 0.091-0.273 0.435-0.425 0.651-0.84 0.648-1.242 0.027-0.040 0.057-0.084 0.088-0.125 0.094-0.128 0.192-0.253 0.294-0.371 0.574-0.398 1.245-0.607 1.947-0.607 1.512 0 2.834 0.985 3.273 2.412h-1.090c-0.277-0.867-1.083-1.461-2.004-1.461-0.948 0-1.781 0.638-2.031 1.552-0.010 0.034-0.010 0.067 0 0.101 0 0.007 0 0.010 0 0.017 0 0.115 0.094 0.209 0.209 0.209h1.829c0.115 0 0.209-0.094 0.209-0.209s-0.094-0.209-0.209-0.209h-0.665c0.145-0.202 0.381-0.331 0.644-0.331 0.361 0 0.675 0.243 0.766 0.594 0.024 0.094 0.108 0.155 0.202 0.155 0.017 0 0.034-0.003 0.051-0.007 0.111-0.027 0.179-0.142 0.152-0.253-0.138-0.533-0.617-0.908-1.171-0.908-0.493 0-0.931 0.3-1.117 0.749h-0.422c0.256-0.624 0.87-1.043 1.559-1.043 0.769 0 1.441 0.52 1.633 1.265 0.003 0.017 0.013 0.034 0.020 0.051 0.027 0.084 0.105 0.145 0.199 0.145h4.95c0.115 0 0.209-0.094 0.209-0.209 0-0.003 0-0.010 0-0.013s0-0.010 0-0.013v-0.040c0.003-0.020 0.003-0.040 0.003-0.061 0-0.003 0-0.007-0.003-0.010v-1.582c0-0.115-0.094-0.209-0.209-0.209s-0.209 0.094-0.209 0.209v1.417c-0.351-0.027-0.57-0.287-0.84-0.752-0.088-0.148-0.27-0.428-0.54-0.658 0.186-0.040 0.364-0.128 0.53-0.267 0.088-0.074 0.101-0.206 0.027-0.294s-0.206-0.101-0.294-0.027c-0.432 0.358-0.82 0.138-0.968 0.027-0.287-0.216-0.499-0.651-0.334-1.022 0.213-0.476 0.553-0.601 1.11-0.658 0.071-0.007 0.165-0.020 0.277-0.044 0.020 0.003 0.044 0.003 0.067 0 0.007 0 0.665-0.121 1.171 0.297 0.331 0.273 0.526 0.712 0.584 1.316-0.229-0.108-0.476-0.165-0.553-0.182-0.003 0-0.003 0-0.007 0-0.692-0.152-0.881-0.509-0.931-0.719-0.020-0.088-0.020-0.148-0.017-0.155 0.010-0.115-0.074-0.216-0.189-0.226s-0.216 0.074-0.226 0.189c-0.034 0.354 0.192 1.083 1.279 1.319 0.28 0.061 0.634 0.199 0.698 0.304 0 0 0 0.003 0.003 0.003 0.010 0.013 0.020 0.027 0.030 0.037 0.003 0.003 0.007 0.003 0.010 0.007 0.010 0.007 0.020 0.017 0.030 0.020 0.003 0.003 0.010 0.007 0.013 0.007 0.010 0.007 0.020 0.010 0.030 0.013 0.003 0 0.010 0.003 0.013 0.003 0.013 0.003 0.030 0.007 0.047 0.007v0c0.013 0 0.024 0 0.037-0.003 0.003 0 0.007 0 0.010-0.003 0.010-0.003 0.020-0.007 0.034-0.010h0.003c0.010-0.003 0.017-0.010 0.027-0.013l0.003-0.003c0.007-0.003 0.013-0.010 0.017-0.013s0.010-0.007 0.013-0.013c0.003-0.003 0.010-0.010 0.013-0.013 0.003-0.007 0.010-0.010 0.013-0.017s0.007-0.010 0.010-0.017 0.007-0.010 0.010-0.017 0.003-0.013 0.007-0.020c0.003-0.007 0.003-0.013 0.007-0.020 0-0.007 0.003-0.013 0.003-0.017 0-0.007 0.003-0.013 0.003-0.024v-0.008c-0.001-0.954-0.257-1.646-0.76-2.061zM5.009 23.575h-2.196c0.186-0.189 0.317-0.415 0.418-0.59 0.088-0.152 0.412-0.658 0.87-0.789 0.54-0.159 1.046 0.027 1.296 0.455-0.165 0.286-0.297 0.597-0.388 0.924zM5.066 21.763c-0.192 0-0.348-0.155-0.348-0.348s0.155-0.348 0.348-0.348c0.192 0 0.348 0.155 0.348 0.348s-0.159 0.348-0.348 0.348zM17.435 19.128v0l0.030 0.037zM17.442 18.919c-1.97-0.229-3.394 0.617-4.244 1.366-0.368 0.324-0.658 0.658-0.877 0.941-0.040-0.027-0.078-0.054-0.111-0.071v-0.594c1.596-1.603 3.182-2.082 4.234-2.2 0.698-0.078 1.262-0.013 1.599 0.051-0.193 0.18-0.392 0.348-0.601 0.507zM19.915 15.977c-0.202 0.388-0.435 0.759-0.692 1.117-0.267-0.084-0.601-0.162-1.002-0.199 0.894-1.134 1.461-2.487 1.643-3.914 0.29-0.034 0.692-0.159 0.999-0.358-0.081 1.171-0.398 2.298-0.948 3.354zM18.495 12.212l0.243-0.010c0.081 0.361 0.354 0.651 0.712 0.749-0.189 1.444-0.789 2.807-1.748 3.92-0.462 0-0.999 0.054-1.606 0.186 1.417-1.154 2.341-2.892 2.399-4.845zM14.53 17.542c-0.135 0.054-0.229 0.098-0.277 0.118-0.56 0.223-1.161 0.368-1.788 0.415l5.597-5.597c-0.168 2.254-1.572 4.164-3.532 5.064zM20.883 11.986c-0.007 0.189-0.523 0.496-0.978 0.57-0.064 0.010-0.128 0.017-0.189 0.017-0.081 0-0.159-0.017-0.229-0.047-0.213-0.091-0.361-0.3-0.361-0.543s0.148-0.452 0.361-0.543c0.071-0.030 0.148-0.047 0.229-0.047 0.061 0 0.125 0.007 0.189 0.017 0.455 0.074 0.968 0.381 0.978 0.567 0 0.002 0 0.005 0 0.009zM18.93 6.648l0.088 0.118c0.766 1.022 1.663 2.605 1.835 4.575-0.304-0.196-0.702-0.321-0.989-0.354-0.216-1.707-0.975-3.249-2.099-4.44 0.047-0.098 0.074-0.209 0.074-0.324 0-0.155-0.047-0.3-0.125-0.418l0.958-1.093c-0.181 0.694-0.093 1.352 0.258 1.936zM16.133 4.283l0.044 0.030 0.023 0.014c0.334 0.169 0.692 0.253 1.063 0.253 0.391 0 0.8-0.094 1.211-0.283l-1.080 1.231c-0.098-0.047-0.206-0.071-0.324-0.071-0.152 0-0.29 0.044-0.408 0.118-1.063-0.776-2.321-1.292-3.691-1.461-0.034-0.246-0.101-0.597-0.202-0.941 1.083 0.121 2.213 0.493 3.364 1.11zM17.422 6.223c0 0.152-0.101 0.283-0.24 0.331-0.034 0.010-0.071 0.017-0.108 0.017-0.010 0-0.024 0-0.034 0-0.155-0.013-0.28-0.132-0.307-0.28-0.003-0.020-0.007-0.044-0.007-0.064 0-0.024 0.003-0.044 0.007-0.067 0.030-0.152 0.159-0.27 0.317-0.28 0.007 0 0.017 0 0.024 0s0.013 0 0.020 0c0.155 0.010 0.287 0.121 0.321 0.27 0.003 0.020 0.007 0.037 0.007 0.057-0.004 0.002 0 0.009 0 0.016zM12.988 4.539c1.255 0.165 2.416 0.644 3.398 1.353-0.051 0.101-0.078 0.213-0.078 0.334 0 0.152 0.044 0.29 0.121 0.412l-1.68 1.916c-0.078 0.088-0.067 0.219 0.020 0.294 0.040 0.034 0.088 0.051 0.138 0.051 0.057 0 0.115-0.024 0.159-0.071l1.677-1.913c0.101 0.051 0.213 0.078 0.334 0.078 0.155 0 0.297-0.047 0.415-0.125 1.046 1.12 1.751 2.557 1.96 4.15-0.361 0.101-0.641 0.398-0.715 0.769l-0.24 0.010c-0.051-1.542-0.648-3.013-1.69-4.157-0.078-0.084-0.209-0.091-0.294-0.013-0.084 0.078-0.091 0.209-0.013 0.294 0.918 1.005 1.464 2.281 1.569 3.63l-2.244-2.237c-0.081-0.081-0.213-0.081-0.294 0s-0.081 0.213 0 0.294l2.409 2.409-5.938 5.938-5.938-5.938 2.389-2.389c0.081-0.081 0.081-0.213 0-0.294s-0.213-0.081-0.294 0l-2.215 2.216c0.118-1.535 0.806-2.915 1.856-3.92l1.046 1.194c0.040 0.047 0.098 0.071 0.159 0.071 0.047 0 0.098-0.017 0.138-0.051 0.088-0.078 0.094-0.209 0.020-0.294l-1.050-1.197c0.945-0.789 2.129-1.299 3.428-1.397l-1.781 1.765c-0.081 0.081-0.081 0.213 0 0.294 0.040 0.040 0.094 0.061 0.148 0.061s0.105-0.020 0.148-0.061l1.957-1.937 1.9 1.9c0.081 0.081 0.213 0.081 0.294 0s0.081-0.213 0-0.294l-1.727-1.727c1.070 0.081 2.088 0.439 2.976 1.049 0.094 0.064 0.226 0.040 0.29-0.054s0.040-0.226-0.054-0.29c-1.026-0.705-2.22-1.097-3.468-1.134v-0.149c0.39-0.094 0.704-0.428 0.764-0.84zM6.892 7.046c0.118 0 0.229-0.027 0.327-0.074l0.3 0.344c-1.191 1.137-1.95 2.719-2.011 4.477l-0.169-0.010c-0.081-0.395-0.388-0.705-0.783-0.786 0.206-1.562 0.894-2.972 1.906-4.079 0.126 0.081 0.271 0.128 0.43 0.128zM6.544 6.284c0-0.017 0-0.030 0.003-0.047 0-0.010 0.003-0.017 0.003-0.027 0.030-0.148 0.159-0.263 0.314-0.273 0.007 0 0.013 0 0.017 0s0.003 0 0.007 0c0.159 0 0.294 0.108 0.334 0.256 0.007 0.030 0.013 0.061 0.013 0.091 0 0.024-0.003 0.047-0.007 0.071-0.030 0.148-0.159 0.263-0.314 0.273-0.010 0-0.017 0-0.027 0-0.044 0-0.088-0.010-0.125-0.024-0.123-0.047-0.218-0.175-0.218-0.32zM5.336 12.201l0.172 0.010c0.057 1.957 0.985 3.698 2.406 4.852-0.611-0.135-1.147-0.189-1.613-0.192-0.951-1.11-1.555-2.466-1.744-3.904 0.388-0.081 0.695-0.381 0.779-0.766zM5.94 12.478l5.597 5.597c-2.982-0.226-5.371-2.614-5.597-5.597zM11.43 4.077c0.091-0.631 0.401-1.474 0.563-1.542 0.186 0.071 0.472 0.945 0.56 1.538 0.017 0.119 0.027 0.227 0.027 0.315 0 0.037-0.003 0.071-0.010 0.105-0.051 0.273-0.29 0.482-0.58 0.482s-0.53-0.209-0.58-0.482c-0.007-0.034-0.010-0.071-0.010-0.105 0.003-0.092 0.013-0.196 0.030-0.311zM11.794 5.376v0.145c-1.505 0.047-2.881 0.611-3.961 1.515l-0.297-0.341c0.078-0.118 0.125-0.263 0.125-0.415 0-0.128-0.034-0.25-0.088-0.354 0.989-0.725 2.159-1.215 3.431-1.387 0.058 0.419 0.378 0.756 0.79 0.837zM6.642 4.58c0.371 0 0.729-0.084 1.066-0.253 0.020-0.010 1.947-1.012 3.505-1.147-0.101 0.341-0.169 0.695-0.202 0.938-1.386 0.172-2.665 0.708-3.735 1.504-0.114-0.067-0.243-0.104-0.384-0.104-0.118 0-0.229 0.027-0.327 0.074l-1.134-1.292c0.415 0.185 0.82 0.28 1.211 0.28zM4.958 6.668l0.017-0.024c0.351-0.58 0.439-1.242 0.263-1.937l1.012 1.157c-0.077 0.119-0.124 0.264-0.124 0.416 0 0.111 0.024 0.216 0.067 0.314-1.103 1.188-1.846 2.713-2.058 4.4-0.3 0.047-0.698 0.175-0.999 0.368 0.119-1.782 0.716-3.324 1.822-4.694zM3.12 11.979c0.007-0.196 0.55-0.466 0.978-0.553 0.094-0.020 0.182-0.030 0.256-0.030 0.057 0 0.108 0.007 0.162 0.024 0.246 0.071 0.428 0.297 0.428 0.567s-0.182 0.496-0.428 0.567c-0.051 0.013-0.105 0.024-0.162 0.024-0.078 0-0.165-0.010-0.256-0.030-0.428-0.091-0.972-0.361-0.978-0.557 0-0.009 0-0.009 0-0.012zM3.14 12.6c0.3 0.196 0.702 0.324 0.999 0.371 0.179 1.431 0.746 2.787 1.643 3.92-0.401 0.037-0.736 0.111-1.005 0.196-0.969-1.329-1.529-2.865-1.637-4.487zM5.077 17.478c-0.010-0.013-0.020-0.024-0.030-0.037 1.016-0.28 2.126-0.132 2.905 0.054 0.941 0.226 1.63 0.553 1.636 0.557l0.003-0.007c0.746 0.297 1.559 0.462 2.409 0.462 0.847 0 1.657-0.162 2.399-0.459v0c0 0 0.007-0.003 0.020-0.010 0.088-0.037 0.179-0.074 0.263-0.115 0.287-0.118 0.769-0.294 1.35-0.432 0.786-0.189 1.9-0.337 2.915-0.054-0.175 0.216-0.358 0.422-0.553 0.621-0.283-0.078-1.005-0.226-1.98-0.121-1.059 0.115-2.618 0.567-4.211 2.038v-0.368c0-0.115-0.094-0.209-0.209-0.209s-0.209 0.094-0.209 0.209v0.348c-1.582-1.454-3.134-1.903-4.187-2.018-0.999-0.108-1.731 0.054-1.997 0.128-0.177-0.182-0.356-0.381-0.524-0.587zM5.964 18.416c0.337-0.067 0.908-0.135 1.619-0.054 1.873 0.209 3.31 1.279 4.211 2.176v0.611c-0.030 0.017-0.064 0.037-0.101 0.064-0.219-0.28-0.506-0.607-0.867-0.924-0.85-0.752-2.281-1.603-4.258-1.366v0.003c-0.209-0.162-0.412-0.331-0.604-0.51zM11.204 21.723c-0.395-0.506-0.827-0.887-1.258-1.174l0.003-0.010c-0.010-0.003-0.020-0.007-0.030-0.007-0.719-0.469-1.441-0.675-2.021-0.759-0.273-0.142-0.543-0.3-0.803-0.472 1.272-0.037 2.426 0.395 3.445 1.289 0.351 0.307 0.628 0.624 0.837 0.897-0.065 0.070-0.123 0.148-0.173 0.236zM12.212 22.988c-0.051 0.061-0.105 0.121-0.165 0.182-0.013 0.013-0.030 0.030-0.047 0.044l-0.006 0.006v-0.007c-0.007-0.007-0.017-0.013-0.024-0.024-0.067-0.064-0.125-0.128-0.179-0.192-0.246-0.294-0.354-0.567-0.317-0.816 0.003-0.020 0.007-0.040 0.013-0.061 0.027-0.108 0.078-0.202 0.138-0.283 0.051-0.067 0.108-0.125 0.165-0.175 0.051-0.044 0.101-0.081 0.145-0.111 0.020-0.013 0.037-0.024 0.054-0.034 0 0 0.003 0 0.003-0.003h0.003c0.024 0.013 0.047 0.030 0.078 0.051 0.040 0.027 0.088 0.064 0.135 0.105 0.061 0.054 0.121 0.118 0.172 0.189 0.061 0.088 0.111 0.186 0.132 0.297 0 0.007 0.003 0.017 0.007 0.024 0.038 0.244-0.067 0.514-0.307 0.808zM13.036 21.466c-0.007 0.007-0.013 0.013-0.017 0.020-0.078 0.088-0.148 0.175-0.213 0.26-0.051-0.088-0.108-0.169-0.169-0.24 0.209-0.273 0.493-0.601 0.85-0.914 1.012-0.891 2.163-1.323 3.425-1.292-0.263 0.172-0.533 0.334-0.81 0.476-1.444 0.219-2.432 0.968-3.066 1.69zM18.923 21.068c0.192 0 0.348 0.155 0.348 0.348s-0.155 0.348-0.348 0.348-0.348-0.155-0.348-0.348c0.001-0.189 0.156-0.348 0.348-0.348zM19.976 22.151c0.459 0.135 0.783 0.638 0.87 0.789 0.108 0.189 0.253 0.439 0.466 0.634h-2.332c-0.088-0.317-0.213-0.617-0.371-0.894 0.257-0.458 0.83-0.687 1.367-0.529zM2.199 7.495c0 0.341 0.277 0.621 0.621 0.621s0.62-0.277 0.62-0.621c0-0.341-0.277-0.621-0.621-0.621s-0.62 0.28-0.62 0.621zM3.022 7.495c0 0.111-0.091 0.202-0.202 0.202s-0.202-0.091-0.202-0.202 0.091-0.202 0.202-0.202c0.111-0.001 0.202 0.091 0.202 0.202zM21.737 7.495c0-0.341-0.277-0.621-0.621-0.621-0.341 0-0.621 0.277-0.621 0.621 0 0.341 0.277 0.621 0.621 0.621s0.621-0.277 0.621-0.621zM20.914 7.495c0-0.111 0.091-0.202 0.202-0.202s0.202 0.091 0.202 0.202-0.091 0.202-0.202 0.202c-0.111 0.004-0.202-0.087-0.202-0.202zM22.334 9.040c-0.078-0.030-0.169-0.013-0.229 0.047-0.273 0.28-0.722 0.27-0.729 0.27-0.003 0-0.007 0-0.007 0-0.111 0-0.202 0.088-0.209 0.199-0.003 0.115 0.084 0.213 0.199 0.216 0.020 0 0.351 0.010 0.688-0.145v3.404c0 0.115 0.094 0.209 0.209 0.209s0.209-0.094 0.209-0.209v-3.799c-0.003-0.084-0.053-0.162-0.131-0.192zM1.73 13.241c0.115 0 0.209-0.094 0.209-0.209v-3.405c0.337 0.155 0.668 0.145 0.688 0.145 0.115-0.003 0.206-0.101 0.199-0.216-0.003-0.114-0.101-0.205-0.216-0.199-0.003 0-0.455 0.010-0.729-0.27-0.060-0.060-0.148-0.077-0.229-0.047-0.078 0.030-0.128 0.108-0.128 0.192v3.802c-0.004 0.116 0.091 0.207 0.206 0.207zM22.499 16.712c0-0.115-0.094-0.209-0.209-0.209h-1.35c-0.115 0-0.209 0.094-0.209 0.209s0.094 0.209 0.209 0.209h1.35c0.115 0.001 0.209-0.091 0.209-0.209zM21.099 17.512c0.115 0 0.209-0.094 0.209-0.209s-0.094-0.209-0.209-0.209h-0.52c-0.115 0-0.209 0.094-0.209 0.209s0.094 0.209 0.209 0.209zM21.605 17.897c0-0.115-0.094-0.209-0.209-0.209h-1.289c-0.115 0-0.209 0.094-0.209 0.209s0.094 0.209 0.209 0.209h1.289c0.115 0 0.209-0.091 0.209-0.209zM20.789 18.494c0-0.115-0.094-0.209-0.209-0.209h-1.009c-0.115 0-0.209 0.094-0.209 0.209s0.094 0.209 0.209 0.209h1.009c0.114 0 0.209-0.094 0.209-0.209zM18.916 18.882c-0.115 0-0.209 0.094-0.209 0.209s0.094 0.209 0.209 0.209h0.574c0.115 0 0.209-0.094 0.209-0.209s-0.094-0.209-0.209-0.209zM22.29 15.312h-0.752c-0.115 0-0.209 0.094-0.209 0.209s0.094 0.209 0.209 0.209h0.752c0.115 0 0.209-0.094 0.209-0.209s-0.094-0.209-0.209-0.209zM22.29 15.909h-1.049c-0.115 0-0.209 0.094-0.209 0.209s0.094 0.209 0.209 0.209h1.049c0.115 0 0.209-0.094 0.209-0.209s-0.094-0.209-0.209-0.209zM22.29 14.121h-0.334c-0.115 0-0.209 0.094-0.209 0.209s0.094 0.209 0.209 0.209h0.334c0.115 0 0.209-0.094 0.209-0.209s-0.094-0.209-0.209-0.209zM22.29 14.718h-0.513c-0.115 0-0.209 0.094-0.209 0.209s0.094 0.209 0.209 0.209h0.513c0.115 0 0.209-0.094 0.209-0.209s-0.094-0.209-0.209-0.209zM1.723 13.511c0.116 0 0.209 0.094 0.209 0.209 0 0.116-0.094 0.209-0.209 0.209-0.116 0-0.209-0.094-0.209-0.209 0-0.116 0.093-0.209 0.209-0.209zM2.566 18.291c0.116 0 0.209 0.094 0.209 0.209 0 0.116-0.094 0.209-0.209 0.209-0.116 0-0.209-0.094-0.209-0.209s0.094-0.209 0.209-0.209zM3.909 18.889c0.116 0 0.209 0.094 0.209 0.209 0 0.116-0.094 0.209-0.209 0.209s-0.209-0.094-0.209-0.209c0-0.116 0.094-0.209 0.209-0.209zM1.703 16.928h1.35c0.115 0 0.209-0.094 0.209-0.209s-0.095-0.209-0.21-0.209h-1.35c-0.115 0-0.209 0.094-0.209 0.209 0 0.118 0.095 0.209 0.21 0.209zM3.413 17.104h-0.52c-0.115 0-0.209 0.094-0.209 0.209s0.094 0.209 0.209 0.209h0.52c0.115 0 0.209-0.094 0.209-0.209s-0.094-0.209-0.209-0.209zM3.886 17.698h-1.289c-0.115 0-0.209 0.094-0.209 0.209s0.094 0.209 0.209 0.209h1.289c0.115 0 0.209-0.094 0.209-0.209 0-0.118-0.095-0.209-0.209-0.209zM4.422 18.291h-1.009c-0.115 0-0.209 0.094-0.209 0.209s0.094 0.209 0.209 0.209h1.009c0.115 0 0.209-0.094 0.209-0.209s-0.094-0.209-0.209-0.209zM4.294 19.098c0 0.115 0.094 0.209 0.209 0.209h0.574c0.115 0 0.209-0.094 0.209-0.209s-0.094-0.209-0.209-0.209h-0.574c-0.115 0-0.209 0.094-0.209 0.209zM1.703 15.737h0.752c0.115 0 0.209-0.094 0.209-0.209s-0.094-0.209-0.209-0.209h-0.752c-0.115 0-0.209 0.094-0.209 0.209-0.001 0.115 0.094 0.209 0.209 0.209zM1.703 16.335h1.049c0.115 0 0.209-0.094 0.209-0.209s-0.094-0.209-0.209-0.209h-1.049c-0.115 0-0.209 0.094-0.209 0.209s0.094 0.209 0.209 0.209zM1.703 14.546h0.334c0.115 0 0.209-0.094 0.209-0.209s-0.094-0.209-0.209-0.209h-0.334c-0.115 0-0.209 0.094-0.209 0.209s0.094 0.209 0.209 0.209zM1.703 15.14h0.513c0.115 0 0.209-0.094 0.209-0.209s-0.094-0.209-0.209-0.209h-0.513c-0.115 0-0.209 0.094-0.209 0.209-0.001 0.118 0.094 0.209 0.209 0.209zM11.996 23.217v0c0.003-0.003 0-0.003 0-0.007zM21.484 4.175c0.003 0 0.003 0 0 0 0.094 0 0.179-0.064 0.202-0.159 0.074-0.297 0.044-0.55-0.098-0.759-0.226-0.337-0.641-0.401-0.688-0.408-0.108-0.013-0.209 0.054-0.233 0.162-0.078 0.354-0.034 0.638 0.135 0.847 0.25 0.303 0.641 0.314 0.682 0.317zM21.248 3.493c0.040 0.064 0.064 0.138 0.064 0.226-0.061-0.024-0.128-0.061-0.175-0.121-0.054-0.067-0.081-0.155-0.081-0.267 0.067 0.034 0.141 0.088 0.192 0.162zM20.128 1.159c-0.226-0.337-0.641-0.401-0.688-0.408-0.108-0.013-0.209 0.054-0.233 0.162-0.078 0.354-0.034 0.638 0.135 0.847 0.243 0.304 0.634 0.314 0.678 0.314v0c0.094 0 0.179-0.064 0.202-0.159 0.078-0.291 0.047-0.547-0.094-0.756zM19.672 1.499c-0.054-0.067-0.081-0.155-0.081-0.267 0.071 0.034 0.145 0.088 0.192 0.162 0.040 0.064 0.064 0.138 0.064 0.226-0.060-0.023-0.128-0.060-0.175-0.121zM3.133 2.849c-0.047 0.007-0.459 0.071-0.688 0.408-0.138 0.209-0.172 0.462-0.098 0.759 0.024 0.091 0.108 0.159 0.203 0.159v0c0.044 0 0.435-0.010 0.678-0.314 0.168-0.209 0.212-0.496 0.135-0.847-0.021-0.108-0.122-0.178-0.23-0.165zM2.907 3.598c-0.047 0.061-0.115 0.098-0.179 0.121 0-0.088 0.024-0.165 0.064-0.226 0.051-0.074 0.125-0.128 0.192-0.162 0.001 0.112-0.026 0.2-0.077 0.267zM4.564 0.75c-0.047 0.007-0.459 0.071-0.689 0.409-0.138 0.209-0.172 0.462-0.097 0.759 0.023 0.091 0.108 0.158 0.202 0.158v0c0.044 0 0.435-0.010 0.678-0.314 0.169-0.209 0.213-0.496 0.135-0.847-0.023-0.107-0.121-0.178-0.229-0.165zM4.334 1.499c-0.047 0.061-0.114 0.098-0.178 0.122 0-0.088 0.024-0.165 0.064-0.226 0.050-0.074 0.124-0.128 0.192-0.162 0 0.111-0.024 0.199-0.078 0.266zM18.579 10.562c0.013 0.108 0.101 0.186 0.206 0.186 0.007 0 0.017 0 0.024 0 0.115-0.013 0.196-0.118 0.182-0.233-0.209-1.822-1.454-3.111-1.508-3.165-0.081-0.081-0.213-0.084-0.294-0.003s-0.084 0.213-0.003 0.294c0.013 0.012 1.201 1.244 1.393 2.921zM5.218 10.744c0.007 0 0.017 0 0.024 0 0.105 0 0.196-0.078 0.206-0.186 0.192-1.676 1.38-2.908 1.39-2.918 0.081-0.081 0.078-0.216-0.003-0.294-0.082-0.081-0.217-0.081-0.294 0.004-0.054 0.054-1.296 1.343-1.508 3.165-0.010 0.114 0.071 0.215 0.185 0.229z"/>
</svg>