<svg xmlns="http://www.w3.org/2000/svg" version="1.1" width="24" height="24" viewBox="0 0 24 24">
<path d="M21.618 6.028l0.623 1.786c0.017 0.048 0.027 0.104 0.027 0.163 0 0.045-0.006 0.088-0.017 0.13l0.001-0.003-0.025 0.097-0.072 0.274-0.257 0.979-0.781 2.972c-0.613 2.337-1.015 3.876-1.112 4.259-0.527 2.087-0.945 2.812-2.296 3.766-1.184 0.836-3.653 2.514-4.128 2.811-0.073 0.046-0.125 0.081-0.178 0.117l0.016-0.010-0.187 0.128c-0.165 0.119-0.353 0.232-0.549 0.329l-0.024 0.011c-0.225 0.105-0.44 0.164-0.659 0.164s-0.434-0.059-0.659-0.164c-0.22-0.108-0.408-0.221-0.585-0.348l0.012 0.008-0.187-0.128c-0.029-0.021-0.081-0.056-0.135-0.090l-0.027-0.017c-0.475-0.298-2.944-1.975-4.128-2.811-1.351-0.954-1.769-1.679-2.296-3.766-0.097-0.383-0.499-1.922-1.107-4.242l-1.114-4.243-0.025-0.097c-0.010-0.038-0.016-0.081-0.016-0.126 0-0.058 0.010-0.114 0.028-0.166l-0.001 0.003 0.623-1.786-0.467-1.152c-0.023-0.055-0.036-0.119-0.036-0.186 0-0.13 0.050-0.249 0.133-0.337l-0 0 0.122-0.13c0.097-0.103 0.207-0.22 0.329-0.347 0.346-0.363 0.71-0.738 1.077-1.105 0.351-0.352 0.823-0.542 1.374-0.607 0.143-0.016 0.309-0.025 0.476-0.025 0.323 0 0.638 0.033 0.941 0.097l-0.030-0.005 1.811-2.063c0.090-0.103 0.223-0.168 0.37-0.168 0 0 0 0 0 0h7.038c0.142 0 0.276 0.061 0.37 0.168l1.811 2.063c0.274-0.058 0.589-0.092 0.912-0.092 0.168 0 0.334 0.009 0.497 0.027l-0.020-0.002c0.552 0.065 1.023 0.254 1.374 0.607 0.49 0.493 0.977 0.997 1.458 1.508l0.037 0.040c0.163 0.175 0.2 0.379 0.128 0.557zM20.626 6.177c-0.017-0.048-0.028-0.104-0.028-0.163 0-0.067 0.013-0.131 0.038-0.19l-0.001 0.003 0.418-1.031-0.226-0.238c-0.367-0.385-0.714-0.741-1.064-1.092l0.002 0.002c-0.174-0.174-0.442-0.282-0.791-0.323-0.107-0.011-0.231-0.018-0.357-0.018-0.239 0-0.473 0.023-0.699 0.067l0.023-0.004c-0.080 0.014-0.153 0.029-0.216 0.044l-0.069 0.017c-0.040 0.012-0.085 0.018-0.132 0.018-0.147 0-0.279-0.065-0.369-0.168l-0-0.001-1.857-2.115h-6.593l-1.857 2.115c-0.091 0.103-0.223 0.168-0.371 0.168-0.047 0-0.092-0.006-0.135-0.019l0.003 0.001c-0.068-0.019-0.164-0.040-0.261-0.057l-0.024-0.004c-0.204-0.040-0.438-0.063-0.678-0.063-0.125 0-0.249 0.006-0.371 0.019l0.015-0.001c-0.349 0.041-0.618 0.149-0.791 0.323-0.423 0.425-0.843 0.857-1.257 1.295l-0.031 0.033 0.418 1.031c0.023 0.055 0.036 0.119 0.036 0.187 0 0.058-0.010 0.114-0.028 0.166l0.001-0.003-0.634 1.82 0.059 0.225 0.257 0.979 0.781 2.973c-1.033-4.73-0.65-3.3-0.27-1.868l1.384 6.136c0.474 1.878 0.776 2.401 1.908 3.201 1.17 0.827 3.627 2.495 4.083 2.782 0.057 0.036 0.117 0.075 0.192 0.127l0.187 0.128c0.191 0.129 0.318 0.207 0.436 0.262 0.105 0.049 0.187 0.071 0.243 0.071s0.137-0.022 0.243-0.071c0.118-0.055 0.246-0.133 0.436-0.262l0.187-0.128c0.076-0.051 0.135-0.091 0.192-0.127 0.456-0.286 2.913-1.955 4.083-2.782 1.132-0.8 1.434-1.323 1.908-3.201 0.098-0.388 0.499-1.925 1.11-4.251l1.101-4.194zM16.961 4.224c0 0 2.578 3.128 2.578 3.796s-0.324 0.845-0.65 1.192l-1.933 2.060c-0.183 0.195-0.563 0.49-0.34 1.022s0.554 1.209 0.187 1.895-0.997 1.145-1.4 1.069-1.35-0.573-1.698-0.799-1.452-1.141-1.452-1.49c0-0.35 1.141-0.977 1.352-1.12s1.172-0.695 1.192-0.911c0.020-0.217 0.012-0.28-0.272-0.816s-0.795-1.25-0.71-1.725 0.909-0.722 1.497-0.945 1.72-0.644 1.862-0.709c0.141-0.066 0.105-0.128-0.324-0.169s-1.644-0.203-2.192-0.049-1.485 0.387-1.56 0.51c-0.076 0.124-0.143 0.128-0.065 0.555s0.479 2.475 0.518 2.839 0.115 0.604-0.276 0.694-1.049 0.245-1.275 0.245-0.884-0.156-1.275-0.245c-0.391-0.090-0.315-0.33-0.276-0.694s0.44-2.412 0.518-2.839 0.011-0.431-0.065-0.555-1.012-0.357-1.56-0.51-1.764 0.009-2.192 0.049c-0.428 0.041-0.465 0.103-0.324 0.169s1.274 0.486 1.862 0.709 1.412 0.47 1.497 0.945-0.426 1.19-0.71 1.725-0.291 0.599-0.272 0.816 0.981 0.769 1.192 0.911c0.211 0.143 1.352 0.77 1.352 1.12s-1.104 1.263-1.452 1.49-1.295 0.724-1.698 0.799c-0.403 0.076-1.033-0.382-1.4-1.069s-0.037-1.363 0.187-1.895-0.157-0.827-0.34-1.022l-1.933-2.060c-0.326-0.347-0.65-0.524-0.65-1.192s2.578-3.796 2.578-3.796 2.175 0.417 2.468 0.417 0.929-0.245 1.515-0.442 0.978-0.198 0.978-0.198 0.391 0.001 0.978 0.198 1.222 0.442 1.515 0.442 2.468-0.417 2.468-0.417zM15.029 16.188c0.16 0.1 0.062 0.289-0.083 0.392s-2.098 1.621-2.288 1.789-0.468 0.445-0.658 0.445-0.468-0.277-0.658-0.445-2.143-1.686-2.288-1.789-0.243-0.292-0.083-0.392 0.659-0.353 1.348-0.711 1.547-0.662 1.681-0.662 0.992 0.304 1.681 0.662 1.188 0.611 1.348 0.711z"/>
</svg>