<svg xmlns="http://www.w3.org/2000/svg" version="1.1" width="24" height="24" viewBox="0 0 24 24">
<path d="M17.58 0.070c-0.006-0-0.013-0-0.021-0-0.39 0-0.746 0.149-1.012 0.393l0.001-0.001c-0 0-0 0-0 0s-0 0-0.001 0h0c-0.018 0.015-0.034 0.030-0.050 0.045l0-0-7.967 8.81-4.65-3.813-0.407-0.35c-0.172-0.144-0.395-0.231-0.639-0.231-0.139 0-0.271 0.028-0.391 0.079l0.007-0.002c-0.011 0.004-0.015 0.006-0.018 0.007l0.006-0.003-1.816 0.75c-0.033 0.013-0.058 0.025-0.083 0.038l0.006-0.003c-0.021 0.011-0.036 0.021-0.051 0.030l0.004-0.002c-0.018 0.010-0.030 0.017-0.042 0.024l0.004-0.002c-0.020 0.013-0.035 0.024-0.050 0.036l0.002-0.002c-0.013 0.010-0.023 0.017-0.033 0.025l0.002-0.001c-0.016 0.013-0.030 0.025-0.044 0.037l0.001-0.001c-0.013 0.011-0.025 0.022-0.036 0.033l0-0c-0.010 0.011-0.021 0.022-0.031 0.034l-0.001 0.001c-0.010 0.011-0.021 0.024-0.032 0.036l-0.001 0.002c-0.011 0.013-0.022 0.027-0.033 0.041l-0.002 0.003c-0.006 0.008-0.014 0.019-0.022 0.031l-0.002 0.003c-0.009 0.013-0.019 0.029-0.029 0.046l-0.003 0.005c-0.004 0.007-0.011 0.018-0.017 0.029l-0.003 0.005c-0.006 0.011-0.014 0.027-0.021 0.044l-0.003 0.006c-0.004 0.009-0.011 0.023-0.018 0.038l-0.002 0.007c-0.003 0.008-0.009 0.022-0.014 0.037l-0.002 0.007c-0.004 0.009-0.009 0.024-0.014 0.040l-0.002 0.007c-0.004 0.011-0.009 0.030-0.014 0.048l-0.001 0.007c-0.002 0.006-0.005 0.020-0.009 0.033l-0.001 0.007c-0.002 0.012-0.005 0.031-0.007 0.049l-0 0.005c-0.002 0.012-0.004 0.029-0.006 0.046l-0 0.004c-0.002 0.025-0.004 0.053-0.004 0.083v10.659c0.003 0.411 0.253 0.763 0.608 0.915l0.007 0.002 1.816 0.763c0.114 0.049 0.246 0.077 0.384 0.077 0.249 0 0.476-0.091 0.651-0.241l-0.001 0.001 0.408-0.35 4.65-3.813 7.968 8.81c0.022 0.022 0.046 0.043 0.070 0.063l0.002 0.002c0.017 0.016 0.036 0.032 0.055 0.048l0.002 0.002c0.015 0.012 0.034 0.025 0.053 0.039l0.005 0.003c0.016 0.012 0.037 0.027 0.058 0.041l0.005 0.003c0.015 0.009 0.036 0.022 0.057 0.034l0.008 0.004c0.014 0.009 0.035 0.021 0.057 0.032l0.008 0.004c0.013 0.007 0.036 0.017 0.058 0.027l0.010 0.004c0.014 0.007 0.037 0.017 0.060 0.026l0.010 0.004c0.014 0.006 0.038 0.014 0.062 0.022l0.011 0.003c0.011 0.004 0.033 0.011 0.055 0.017l0.011 0.003c0.016 0.005 0.043 0.012 0.070 0.018l0.010 0.002c0.013 0.003 0.036 0.008 0.059 0.013l0.009 0.001c0.017 0.003 0.042 0.007 0.068 0.009l0.007 0.001c0.018 0.002 0.044 0.005 0.070 0.007l0.005 0c0.021 0.001 0.046 0.003 0.072 0.003l0.001 0c0.011 0 0.025 0 0.039 0s0.027-0 0.040-0.001l-0.002 0c0.030-0.001 0.057-0.003 0.084-0.005l-0.006 0c0.029-0.002 0.052-0.005 0.075-0.008l-0.008 0.001c0.038-0.005 0.067-0.010 0.097-0.016l-0.010 0.002c0.030-0.005 0.050-0.009 0.070-0.014l-0.010 0.002c0.037-0.009 0.064-0.017 0.091-0.025l-0.011 0.003c0.033-0.009 0.056-0.016 0.079-0.023l-0.011 0.003c0.034-0.012 0.057-0.022 0.080-0.032l-0.010 0.004c0.040-0.015 0.069-0.027 0.098-0.041l-0.009 0.004 4.942-2.376c0.186-0.091 0.344-0.213 0.474-0.36l0.001-0.002c0.030-0.033 0.059-0.070 0.087-0.108l0.003-0.004c-0.003 0.005-0.001 0.003 0 0l0.004-0.007c0.025-0.035 0.052-0.076 0.076-0.118l0.004-0.007c0.018-0.031 0.039-0.070 0.058-0.111l0.004-0.009c-0.001 0.002 0.002-0.003 0.005-0.009l0.004-0.008c0.011-0.025 0.025-0.060 0.038-0.096l0.003-0.011c0.001-0.002 0.006-0.014 0.011-0.027l0.003-0.010c0.009-0.025 0.019-0.060 0.028-0.097l0.002-0.010c0.001-0.002 0.004-0.014 0.007-0.027l0.002-0.010c0.005-0.024 0.011-0.058 0.016-0.092l0.001-0.008c0.002-0.008 0.005-0.025 0.007-0.042l0.001-0.008c0.003-0.025 0.005-0.057 0.006-0.088l0-0.003c0.002-0.022 0.003-0.049 0.004-0.077l0-0.002v-16.111c0-0 0-0.001 0-0.001s0-0.001 0-0.001v0c0-0.005 0-0.010 0-0.016s-0-0.011-0-0.017v0.001c-0.001-0.054-0.005-0.106-0.011-0.157l0.001 0.007c-0.065-0.518-0.387-0.949-0.831-1.166l-0.009-0.004-4.94-2.375c-0.182-0.089-0.396-0.143-0.622-0.147l-0.001-0zM17.997 6.922v10.157l-6.195-5.078zM3.005 8.576l3.097 3.425-3.097 3.424z"/>
</svg>