<svg xmlns="http://www.w3.org/2000/svg" version="1.1" width="24" height="24" viewBox="0 0 24 24">
<path d="M5.39 0.004l4.75 13.46v-0.007l0.376 1.060c2.088 5.908 3.21 9.075 3.216 9.082 0.004 0 0.32 0.020 0.702 0.040 1.156 0.050 2.59 0.18 3.676 0.31 0.25 0.030 0.466 0.040 0.48 0.030l-4.71-13.36-0.436-1.23-2.423-6.85c-0.46-1.3-0.85-2.408-0.87-2.45l-0.031-0.089zM13.898 0.012l-0.010 5.306-0.008 5.306-0.437-1.232v-0.002l-0.565 11.81c0.555 1.567 0.852 2.403 0.855 2.407 0.004 0.004 0.32 0.024 0.702 0.042 1.157 0.050 2.59 0.18 3.68 0.31 0.25 0.030 0.467 0.040 0.48 0.030s0.020-5.42 0.017-12.010l-0.008-11.969zM5.39 0.002v11.99c0 6.594 0.007 11.995 0.015 12.003s0.416-0.030 0.907-0.086c0.49-0.060 1.17-0.13 1.51-0.16 0.518-0.050 2.068-0.15 2.248-0.15 0.052 0 0.056-0.27 0.063-5.080l0.008-5.080 0.38 1.060 0.13 0.376 0.57-11.8-0.19-0.546-0.88-2.44-0.030-0.087z"/>
</svg>