<svg xmlns="http://www.w3.org/2000/svg" version="1.1" width="24" height="24" viewBox="0 0 24 24">
<path d="M12 0c-6.628 0-12 5.372-12 12s5.372 12 12 12 12-5.372 12-12-5.372-12-12-12zM18.23 16.244c0 0 0 0.001 0 0.001 0 0.205-0.166 0.371-0.371 0.371-0.001 0-0.001 0-0.002 0h-1.567c-0 0-0.001 0-0.001 0-0.205 0-0.371-0.166-0.371-0.371 0-0 0-0.001 0-0.001v0-4.828c0-0.040-0.046-0.060-0.080-0.033l-3.32 3.32c-0.134 0.132-0.318 0.214-0.522 0.214s-0.388-0.082-0.522-0.214l-3.32-3.32c-0.027-0.027-0.080-0.007-0.080 0.033v4.828c0 0 0 0.001 0 0.001 0 0.205-0.166 0.371-0.371 0.371-0 0-0.001 0-0.001 0h-1.567c-0 0-0.001 0-0.001 0-0.205 0-0.371-0.166-0.371-0.371 0-0 0-0.001 0-0.001v0-8.487c0-0.206 0.166-0.372 0.372-0.372h1.076c0.205 0.002 0.391 0.085 0.525 0.22v0l4.13 4.13c0.033 0.034 0.079 0.055 0.13 0.055s0.097-0.021 0.13-0.055l4.13-4.13c0.14-0.14 0.325-0.22 0.525-0.22h1.075c0.206 0 0.372 0.166 0.372 0.372z"/>
</svg>