<svg xmlns="http://www.w3.org/2000/svg" version="1.1" width="24" height="24" viewBox="0 0 24 24">
<path d="M14.86 0l-7.983 0.060c-1.561 0.349-2.868 1.252-3.731 2.488l-0.013 0.020c-0.632 0.731-1.103 1.619-1.348 2.596l-0.009 0.044-0.12 0.553-0.119 0.857c-0.060 0.799-0.060 1.351 0.12 1.471h5.275c0.060 0-0.186-0.246-0.186-0.672 0-0.738 0.252-0.924 0.552-1.23 0.552-0.426 2.945-0.12 4.728-0.246 2.448 0 4.602-0.060 4.848-0.12 2.7-0.427 5.030-2.388 5.522-4.536 0.12-0.547 0.12-1.105 0.060-1.165-0.060-0.12-1.039-0.12-7.596-0.12zM9.192 9.007c-3.758-0.015-7.47 0-7.53 0.060-0.126 0.126-0.060 0.798 0.060 1.35 0.34 1.117 0.983 2.057 1.833 2.753l0.010 0.008c0.917 0.766 2.035 1.323 3.263 1.581l0.049 0.009c0.366 0.126 1.044 0.126 4.597 0.126 4.236 0 4.915 0.060 5.22 0.24 0.142 0.107 0.265 0.23 0.369 0.367l0.003 0.005c0.18 0.24 0.181 0.307 0.181 0.979s-0.066 0.732-0.186 1.044c-0.117 0.147-0.258 0.269-0.419 0.362l-0.007 0.004c-0.186 0.12-0.307 0.119-4.357 0.179-4.67 0-5.155 0-6.319 0.432-0.953 0.282-1.776 0.746-2.467 1.356l0.007-0.006c-1.164 1.039-1.842 2.203-1.962 3.428l0.060 0.611c2.294 0.067 4.994 0.105 7.702 0.105s5.408-0.038 8.098-0.113l-0.396 0.009 0.492-0.12c0.285-0.069 0.531-0.153 0.766-0.256l-0.029 0.011 0.367-0.18c1.644-0.955 2.883-2.453 3.483-4.242l0.016-0.054c0.252-0.762 0.397-1.639 0.397-2.55 0-1.273-0.284-2.481-0.792-3.562l0.022 0.051c-0.576-1.145-1.36-2.106-2.311-2.867l-0.017-0.013c-0.685-0.453-1.487-0.794-2.349-0.976l-0.045-0.008c-0.246-0.060-4.051-0.106-7.809-0.121z"/>
</svg>