<svg xmlns="http://www.w3.org/2000/svg" version="1.1" width="24" height="24" viewBox="0 0 24 24">
<path d="M4.78 24c-0.88 0-1.36-0.2-1.62-0.36-0.36-0.21-1.020-0.75-1.62-2.33-0.977-2.681-1.542-5.776-1.542-9.003 0-0.108 0.001-0.215 0.002-0.323l-0 0.016c0.020-3.66 0.59-6.76 1.54-9.3 0.6-1.6 1.26-2.14 1.62-2.35 0.26-0.14 0.74-0.35 1.62-0.35 0.33 0 0.72 0.030 1.18 0.1 3.279 0.62 6.198 1.769 8.815 3.365l-0.115-0.065h0.010c2.791 1.617 5.159 3.619 7.126 5.969l0.034 0.041c1.060 1.32 1.19 2.17 1.19 2.59s-0.13 1.27-1.19 2.59c-2.001 2.387-4.37 4.386-7.034 5.932l-0.126 0.068h-0.010c-2.501 1.532-5.421 2.681-8.538 3.274l-0.162 0.026c-0.46 0.080-0.85 0.11-1.18 0.11z"/>
</svg>