<svg xmlns="http://www.w3.org/2000/svg" version="1.1" width="24" height="24" viewBox="0 0 24 24">
<path d="M7.692 5.445c0 0.239-0.020 0.637-0.256 0.895-0.257 0.24-0.652 0.259-0.888 0.259h-2.526c-0.73 0-1.165 0-1.46 0.040-0.159 0.020-0.356 0.1-0.455 0.14-0.040 0.019-0.040 0-0.020-0.020l5.763-5.911c0.020-0.020 0.040-0.020 0.020 0.020-0.040 0.099-0.118 0.298-0.138 0.457-0.040 0.298-0.040 0.736-0.040 1.472zM13.040 23.314c-0.67-0.438-1.026-1.015-1.164-1.373-0.136-0.324-0.216-0.7-0.217-1.094v-0.001c0.002-1.657 1.343-3 3-3.004h0c0.493 0 0.888 0.398 0.888 0.895 0 0.002 0 0.004 0 0.006 0 0.33-0.181 0.617-0.45 0.768l-0.004 0.002c-0.099 0.060-0.237 0.1-0.336 0.12-0.098 0.020-0.473 0.060-0.65 0.218-0.198 0.16-0.356 0.418-0.356 0.697 0 0.298 0.118 0.577 0.316 0.776 0.355 0.358 0.829 0.557 1.342 0.557 1.341-0.005 2.427-1.094 2.427-2.436 0-0.004 0-0.008-0-0.012v0.001c0-1.214-0.809-2.289-1.875-2.766-0.158-0.080-0.414-0.14-0.651-0.2-0.146-0.033-0.347-0.067-0.551-0.095l-0.041-0.004c-0.829-0.1-2.901-0.756-3.040-2.606 0 0-0.611 2.785-1.835 3.541-0.118 0.060-0.276 0.12-0.454 0.16-0.177 0.040-0.374 0.060-0.434 0.060-1.993 0.119-4.105-0.518-5.565-2.030 0 0-0.987-0.816-1.5-3.104-0.118-0.558-0.355-1.553-0.493-2.488-0.060-0.338-0.080-0.597-0.099-0.836 0-0.975 0.592-1.631 1.342-1.73h4.026c0.69 0 1.086-0.18 1.342-0.419 0.336-0.318 0.415-0.776 0.415-1.313v-4.198c0.097-0.737 0.75-1.354 1.716-1.354h0.474c0.197 0 0.434 0.020 0.651 0.040 0.158 0.020 0.296 0.060 0.533 0.12 1.204 0.298 1.46 1.532 1.46 1.532s2.27 0.398 3.415 0.597c1.085 0.199 3.77 0.378 4.282 3.104 1.204 6.487 0.474 12.775 0.415 12.775-0.849 6.129-5.901 5.83-5.901 5.83-0.025 0.001-0.054 0.001-0.083 0.001-0.878 0-1.691-0.276-2.358-0.746l0.013 0.009zM17.58 10.28c-0.652-0.060-1.204 0.2-1.402 0.697-0.040 0.1-0.079 0.219-0.059 0.278 0.020 0.060 0.060 0.080 0.099 0.1 0.237 0.12 0.631 0.179 1.204 0.239 0.572 0.060 0.967 0.1 1.223 0.060 0.040 0 0.080-0.020 0.119-0.080 0.040-0.060 0.020-0.18 0.020-0.279-0.060-0.537-0.553-0.935-1.204-1.015z"/>
</svg>