<svg xmlns="http://www.w3.org/2000/svg" version="1.1" width="24" height="24" viewBox="0 0 24 24">
<path d="M3.418 19.73l0.98-4.885h1.592l-0.973 4.884zM8.225 18.13h1.012l-0.26-1.792zM5.99 19.73l2.412-4.885h1.57l0.99 4.884h-1.475l-0.088-0.58h-1.572l-0.25 0.58zM12.429 19.73l0.547-3.674h-1.394l0.238-1.233h4.281l-0.237 1.233h-1.328l-0.536 3.674zM17.783 18.13h1.012l-0.26-1.792zM15.553 19.73l2.407-4.885h1.57l0.99 4.884h-1.487l-0.072-0.58h-1.57l-0.25 0.58zM24 9.324h-7.495c-0.276 1.372-1.228 2.517-3.125 3.308 0.216 0.652 0.951 1.255 1.715 1.255h4.065c0.62 0 1.112-0.52 1.311-0.94h-4.131c-0.254-0.044-0.265-0.25-0.010-0.271h4.060c0.525 0 1-0.448 1.277-0.935h-4.73c-0.237-0.039-0.237-0.238 0-0.277h4.769c0.48 0 0.918-0.558 1.1-0.934h-5.232c-0.26-0.033-0.26-0.277 0-0.282h5.326c0.415 0 0.819-0.454 1.1-0.924zM0 9.324h7.495c0.27 1.372 1.228 2.517 3.12 3.308-0.216 0.652-0.952 1.255-1.715 1.255h-4.060c-0.62 0-1.112-0.52-1.311-0.94h4.131c0.249-0.044 0.265-0.25 0.010-0.271h-4.063c-0.525 0-1-0.448-1.272-0.935h4.735c0.238-0.039 0.238-0.238 0-0.277h-4.77c-0.481 0-0.918-0.558-1.1-0.934h5.232c0.26-0.033 0.26-0.277 0-0.282h-5.326c-0.42 0-0.824-0.454-1.106-0.924zM9.569 5.21c0.277 0.238 0.586 0.448 0.918 0.58 0.282-0.553 0.675-1.028 1.129-1.449-0.786 0.1-1.484 0.411-2.054 0.875l0.007-0.006zM8.242 7.937h1.67c0.035-0.698 0.199-1.349 0.468-1.943l-0.014 0.034c-0.384-0.171-0.714-0.382-1.007-0.634l0.005 0.004c-0.656 0.654-1.076 1.543-1.122 2.53l-0 0.009zM11.87 6.37v1.566h-1.67c0.015-0.661 0.166-1.283 0.426-1.844l-0.012 0.029c0.399 0.144 0.83 0.238 1.256 0.249zM14.431 5.209c-0.262 0.234-0.565 0.429-0.896 0.572l-0.022 0.008c-0.303-0.56-0.681-1.037-1.129-1.439l-0.005-0.004c0.787 0.094 1.489 0.404 2.059 0.869l-0.007-0.006zM15.753 7.936h-1.665c-0.024-0.696-0.185-1.349-0.455-1.941l0.013 0.032c0.354-0.166 0.69-0.376 0.984-0.63 0.665 0.648 1.088 1.541 1.123 2.533l0 0.006zM12.14 6.37v1.566h1.66c0-0.631-0.155-1.234-0.415-1.815-0.368 0.141-0.793 0.231-1.237 0.249l-0.008 0zM9.569 10.94c0.277-0.216 0.597-0.454 0.918-0.57 0.299 0.559 0.67 1.018 1.129 1.433-0.785-0.098-1.484-0.408-2.055-0.869l0.008 0.006zM8.242 8.208h1.67c0.039 0.691 0.182 1.3 0.454 1.924-0.383 0.172-0.713 0.381-1.008 0.63l0.006-0.005c-0.655-0.658-1.075-1.55-1.122-2.54l-0-0.009zM11.87 9.778v-1.57h-1.67c0.010 0.63 0.154 1.255 0.414 1.814 0.399-0.144 0.83-0.232 1.256-0.244zM14.431 10.94c-0.263-0.229-0.566-0.42-0.896-0.562l-0.022-0.008c-0.301 0.558-0.68 1.032-1.128 1.428l-0.006 0.005c0.787-0.099 1.487-0.408 2.060-0.869l-0.008 0.006zM15.753 8.208h-1.665c-0.022 0.701-0.182 1.359-0.455 1.956l0.013-0.032c0.354 0.166 0.674 0.366 0.984 0.625 0.66-0.655 1.081-1.549 1.123-2.541l0-0.008zM12.141 9.778v-1.57h1.66c0 0.63-0.155 1.244-0.415 1.814-0.368-0.14-0.794-0.228-1.238-0.244l-0.007-0zM11.87 4.502c-0.46 0.377-0.837 0.836-1.111 1.358l-0.012 0.024c0.36 0.122 0.741 0.222 1.123 0.222zM12.141 4.502c0.443 0.365 0.846 0.846 1.112 1.382-0.329 0.132-0.71 0.213-1.108 0.222l-0.004 0zM11.87 11.648c-0.464-0.376-0.841-0.838-1.112-1.364l-0.011-0.024c0.36-0.128 0.741-0.2 1.123-0.2zM12.141 11.659c0.443-0.37 0.846-0.868 1.112-1.4-0.33-0.117-0.711-0.188-1.107-0.198l-0.005-0z"/>
</svg>