<svg xmlns="http://www.w3.org/2000/svg" version="1.1" width="24" height="24" viewBox="0 0 24 24">
<path d="M7.010 10.207h-0.944l-0.515 2.648h0.838c0.556 0 0.97-0.105 1.242-0.314 0.272-0.21 0.455-0.559 0.55-1.049 0.092-0.47 0.050-0.802-0.124-0.995-0.175-0.193-0.523-0.29-1.047-0.29zM12 5.688c-6.627 0-12 2.826-12 6.312s5.373 6.313 12 6.313 12-2.827 12-6.313-5.373-6.312-12-6.312zM8.74 13.139c-0.261 0.25-0.575 0.438-0.917 0.551-0.336 0.108-0.765 0.164-1.285 0.164h-1.181l-0.327 1.681h-1.378l1.23-6.326h2.65c0.797 0 1.378 0.209 1.744 0.628 0.366 0.418 0.476 1.002 0.33 1.752-0.061 0.319-0.167 0.603-0.312 0.861l0.007-0.014c-0.143 0.255-0.33 0.49-0.561 0.703zM12.764 13.854l0.543-2.799c0.063-0.318 0.039-0.536-0.068-0.651s-0.336-0.174-0.687-0.174h-1.092l-0.704 3.625h-1.368l1.23-6.327h1.367l-0.327 1.682h1.218c0.767 0 1.295 0.134 1.586 0.401s0.378 0.7 0.263 1.299l-0.572 2.944zM20.361 11.589c-0.060 0.319-0.166 0.603-0.312 0.861l0.007-0.014c-0.143 0.255-0.33 0.49-0.561 0.703-0.253 0.242-0.56 0.43-0.9 0.546l-0.017 0.005c-0.336 0.108-0.765 0.164-1.286 0.164h-1.18l-0.327 1.682h-1.378l1.23-6.326h2.649c0.797 0 1.378 0.209 1.744 0.628 0.366 0.417 0.477 1.001 0.331 1.751zM17.766 10.207h-0.943l-0.516 2.648h0.838c0.557 0 0.971-0.105 1.242-0.314 0.272-0.21 0.455-0.559 0.551-1.049 0.092-0.47 0.049-0.802-0.125-0.995s-0.524-0.29-1.047-0.29z"/>
</svg>