<svg xmlns="http://www.w3.org/2000/svg" version="1.1" width="24" height="24" viewBox="0 0 24 24">
<path d="M7.258 0l2.205 5.171h-2.807l0.929 2.276h5.689zM7.089 7.973c-0.315 0-0.487 0-0.629 0.456-0.171 0.545-0.19 1.571-0.19 3.571s0.020 3.027 0.19 3.571c0.142 0.456 0.314 0.456 0.629 0.456h3.585l-1.775-4.203h1.589l-0.891-2.1h0.427l0.892 2.101h1.894l-1.637-3.853zM10.487 11.824l0.001 0.002 0.003-0.002zM11.576 7.973l0.743 1.752h3.175c0.069 0 0.23-0.085 0.23-0.877s-0.16-0.876-0.23-0.876zM12.468 10.073l0.743 1.752h2.632c0.070 0 0.23-0.085 0.23-0.877s-0.16-0.876-0.23-0.876zM9.47 12.175l1.858 4.377h-3.307l6.115 7.449-2.205-5.172h2.806l-0.939-2.276h-1.302l-1.86-4.377zM11.064 12.175l0.743 1.752h4.038c0.070 0 0.23-0.085 0.23-0.876s-0.161-0.877-0.231-0.877zM11.954 14.276l0.745 1.751h2.797c0.069 0 0.23-0.085 0.23-0.876s-0.163-0.876-0.231-0.876zM17 14.785c-0.104 0-0.202 0.022-0.291 0.062l0.010-0.004c-0.173 0.076-0.309 0.211-0.384 0.378l-0.002 0.005-0.002 0.005c-0.037 0.081-0.058 0.176-0.058 0.275 0 0.001 0 0.003 0 0.004v-0 0.007c0 0.101 0.021 0.197 0.060 0.284l-0.002-0.004c0.076 0.173 0.211 0.309 0.378 0.384l0.005 0.002 0.005 0.002c0.083 0.037 0.181 0.059 0.283 0.059 0.104 0 0.203-0.022 0.292-0.063l-0.004 0.002-0.005 0.002c0.173-0.076 0.309-0.211 0.384-0.378l0.002-0.005 0.002-0.005c0.037-0.083 0.059-0.181 0.059-0.283 0-0.104-0.022-0.203-0.063-0.292l0.002 0.004 0.002 0.005c-0.076-0.173-0.211-0.309-0.378-0.384l-0.005-0.002-0.005-0.002c-0.083-0.037-0.179-0.058-0.28-0.058-0.001 0-0.002 0-0.003 0h0zM17.002 14.914c0.084 0 0.164 0.017 0.237 0.049l-0.004-0.002c0.143 0.062 0.255 0.173 0.316 0.311l0.002 0.004 0.002 0.004c0.030 0.069 0.048 0.149 0.048 0.233 0 0.086-0.018 0.167-0.052 0.241l0.002-0.004 0.002-0.004c-0.062 0.143-0.173 0.255-0.311 0.316l-0.004 0.002-0.004 0.002c-0.069 0.030-0.149 0.048-0.233 0.048-0.086 0-0.167-0.018-0.241-0.052l0.004 0.001 0.004 0.002c-0.143-0.062-0.255-0.173-0.316-0.311l-0.002-0.004-0.002-0.004c-0.030-0.067-0.047-0.145-0.047-0.227 0-0.001 0-0.002 0-0.003v0-0.004h0.001v-0.005c0-0.082 0.017-0.16 0.048-0.231l-0.001 0.004c0.062-0.143 0.173-0.255 0.311-0.316l0.004-0.002 0.004-0.001c0.068-0.030 0.147-0.047 0.23-0.047 0.001 0 0.002 0 0.003 0h-0zM17.075 15.092h-0.006l-0.027 0.001h-0.32l-0.001 0.001v0.832h0.153v-0.341h0.112l0.207 0.341h0.16l-0.215-0.353c0.056-0.005 0.105-0.029 0.142-0.065l-0 0c0.035-0.039 0.057-0.091 0.057-0.148v-0l-0.001-0.018v-0.014c-0-0.067-0.028-0.127-0.072-0.171l-0-0c-0.052-0.039-0.118-0.064-0.189-0.065h-0zM16.874 15.228h0.183c0.024 0.001 0.046 0.006 0.066 0.014l-0.001-0h-0.001c0.019 0.008 0.034 0.020 0.046 0.035 0.011 0.018 0.018 0.041 0.018 0.064s-0.007 0.046-0.018 0.065l0-0.001v-0.001c-0.012 0.015-0.027 0.027-0.044 0.035l-0.001 0h-0.001c-0.019 0.008-0.040 0.013-0.063 0.014l-0 0h-0.184z"/>
</svg>