<svg xmlns="http://www.w3.org/2000/svg" version="1.1" width="24" height="24" viewBox="0 0 24 24">
<path d="M20.885 15.811v1.164h1.982c0.406 0 1.103-0.315 1.127-1.196v-0.45c0-0.752-0.582-1.196-1.127-1.196h-0.988v-0.54h1.958v-1.17h-1.879c-0.485 0-1.133 0.424-1.133 1.215v0.405c0 0.791 0.642 1.196 1.133 1.196 1.364 0.006-0.327 0 0.933 0v0.566zM10.267 15.528c0 0 1.061-0.096 1.061-1.549s-1.285-1.588-1.285-1.588h-2.315v4.584h1.164v-1.106l1.006 1.106h1.721zM9.818 14.589h-0.927v-1.048h0.933c0 0 0.261 0.103 0.261 0.521s-0.267 0.527-0.267 0.527zM14.2 12.423h-1.182c-0.842 0-1.127 0.81-1.127 1.196v3.356h1.182v-0.804h1.109v0.804h1.146v-3.356c0-0.977-0.836-1.196-1.127-1.196zM14.182 14.872h-1.115v-1.112c0 0 0-0.251 0.37-0.251h0.406c0.327 0 0.333 0.251 0.333 0.251v1.112zM15.867 12.423h1.23v4.551h-1.23zM18.824 15.798v-3.375h-1.224v4.551h2.879v-1.176zM0.424 16.974h4.788c0 0-0.915-4.429 2.115-6.223 0.661-0.341 2.764-1.614 6.206 1.086 0.109-0.096 0.212-0.174 0.212-0.174s-3.152-3.336-6.661-2.964c-1.764 0.167-3.933 1.871-5.206 4.121s-1.455 4.153-1.455 4.153zM0.424 16.974h4.788c0 0-0.915-4.429 2.115-6.223 0.661-0.341 2.764-1.614 6.206 1.086 0.109-0.096 0.212-0.174 0.212-0.174s-3.152-3.336-6.661-2.964c-1.764 0.167-3.933 1.871-5.206 4.121s-1.455 4.153-1.455 4.153zM0.424 16.974h4.788c0 0-0.915-4.429 2.115-6.223 0.661-0.341 2.764-1.614 6.206 1.086 0.109-0.096 0.212-0.174 0.212-0.174s-3.152-3.336-6.661-2.964c-1.77 0.167-3.939 1.871-5.212 4.121s-1.449 4.153-1.449 4.153zM10.4 9.061l0.024-0.431c-0.054-0.032-0.206-0.109-0.588-0.225l-0.024 0.424c0.2 0.071 0.394 0.148 0.588 0.231zM9.824 10.424l-0.024 0.405c0.2 0.006 0.4 0.032 0.6 0.077l0.024-0.399c-0.206-0.045-0.406-0.071-0.6-0.084zM7.582 8.418h0.061l-0.121-0.392c-0.188 0-0.382 0.013-0.582 0.039l0.115 0.379c0.176-0.019 0.351-0.026 0.527-0.026zM7.873 10.784l0.139 0.444c0.176-0.090 0.351-0.167 0.527-0.225l-0.133-0.424c-0.206 0.064-0.382 0.135-0.533 0.206zM5.121 9.093l-0.273-0.444c-0.151 0.084-0.309 0.174-0.473 0.276l0.279 0.45c0.158-0.103 0.309-0.199 0.467-0.283zM6.364 11.986l0.291 0.463c0.103-0.161 0.224-0.309 0.358-0.456l-0.273-0.437c-0.139 0.135-0.267 0.283-0.376 0.431zM5.485 14.056l0.491 0.411c0.024-0.251 0.067-0.501 0.127-0.752l-0.436-0.366c-0.079 0.238-0.133 0.476-0.182 0.707zM2.83 11.002l-0.43-0.399c-0.158 0.161-0.309 0.321-0.449 0.482l0.467 0.424c0.127-0.174 0.267-0.347 0.412-0.508zM1 13.876l-0.697-0.27c-0.115 0.276-0.242 0.598-0.303 0.771l0.697 0.27c0.079-0.219 0.206-0.534 0.303-0.771zM5.394 15.689c0.012 0.341 0.042 0.617 0.073 0.81l0.727 0.276c-0.054-0.251-0.109-0.534-0.146-0.836z"/>
</svg>