<svg xmlns="http://www.w3.org/2000/svg" version="1.1" width="24" height="24" viewBox="0 0 24 24">
<path d="M16.633 16.324h-3.199c-0.177-0.001-0.32-0.144-0.32-0.321 0-0 0-0.001 0-0.001v0-8.028c0-0.177 0.143-0.32 0.32-0.32v0h2.966c2.226 0 2.693 1.31 2.693 2.408 0 0.636-0.169 1.14-0.504 1.511 0.816 0.337 1.256 1.096 1.256 2.194 0 1.601-1.201 2.557-3.212 2.557zM11.989 16.324h-6.644c0 0 0 0 0 0-0.177 0-0.32-0.143-0.32-0.32 0-0.001 0-0.001 0-0.002v0-8.028c0-0.177 0.143-0.32 0.32-0.32v0h3.103c1.939 0 3.096 1.043 3.096 2.791 0 1.163-0.585 2.077-1.527 2.448l2.21 2.897c0.049 0.056 0.079 0.13 0.079 0.211 0 0.177-0.142 0.32-0.319 0.322h-0zM12 0c-6.627 0-12 5.373-12 12s5.373 12 12 12c6.628 0 12-5.373 12-12s-5.37-12-11.999-12z"/>
</svg>