<svg xmlns="http://www.w3.org/2000/svg" version="1.1" width="24" height="24" viewBox="0 0 24 24">
<path d="M9.375 8.782l-4.442 4.44c-1.451 1.45-1.451 3.803 0 5.253l4.442 4.439c1.45 1.449 3.799 1.449 5.249 0l4.442-4.439c1.451-1.45 1.452-3.803 0-5.253l-4.442-4.44c-1.449-1.449-3.799-1.449-5.249 0zM10.595 7.38c-2.998-0.32-6.018-2.586-6.257-7.38 4.652 0 7.14 2.754 7.38 7.118 0.88-5.234 5.003-4.621 5.003-4.621 0.196 2.966-2.24 4.765-5.003 4.914-0.776-1.636-5.426-5.648-5.426-5.648-0.005-0.004-0.014-0.004-0.018 0.002-0.003 0.003-0.004 0.009-0.002 0.013 0 0 4.487 3.909 4.323 5.602zM11.994 17.684c-2.231 0.165-3.212 1.738-3.148 3.274-0.003-0.036-0.007-0.070-0.009-0.107-0.133-1.848 1.327-3.21 1.327-5.005-0.172-2.322-1.869-3.287-3.462-3.133 0.101-0.012 0.204-0.022 0.313-0.028 1.848-0.133 3.212 1.327 5.005 1.327 2.082-0.157 3.074-1.537 3.146-2.969 0.022 1.75-1.331 3.079-1.331 4.81 0.165 2.23 1.736 3.21 3.271 3.148-0.036 0.003-0.070 0.007-0.107 0.009-1.848 0.134-3.212-1.326-5.005-1.326z"/>
</svg>