<svg xmlns="http://www.w3.org/2000/svg" version="1.1" width="24" height="24" viewBox="0 0 24 24">
<path d="M11.936 0.016c-1.058 0.003-2.083 0.141-3.060 0.397l0.085-0.019c-4.68 1.163-8.394 5.403-8.87 10.21-0.59 4.549 1.708 9.286 5.644 11.635 3.861 2.418 9.093 2.32 12.874-0.223 3.397-2.206 5.512-6.228 5.386-10.285-0.058-4.016-2.31-7.917-5.759-9.98-1.882-1.161-4.093-1.744-6.3-1.735zM11.873 1.712c4.945-0.007 9.789 3.814 10.282 8.925 0.945 5.66-3.753 11.413-9.488 11.58-5.454 0.544-10.725-4.080-10.88-9.557-0.407-4.434 2.516-8.835 6.698-10.3 0.999-0.41 2.159-0.648 3.375-0.648 0.005 0 0.009 0 0.014 0h-0.001zM16.964 4.937c-2.687 2.085-5.26 4.308-7.889 6.457 1.203 0.017 2.412 0.016 3.621 0.010 1.41-2.165 2.859-4.301 4.268-6.467zM11.299 12.591c-1.41 2.166-2.86 4.309-4.27 6.474 2.693-2.080 5.255-4.32 7.902-6.456-0.916-0.012-1.998-0.019-3.082-0.019-0.193 0-0.387 0-0.58 0.001l0.030-0z"/>
</svg>