<svg xmlns="http://www.w3.org/2000/svg" version="1.1" width="24" height="24" viewBox="0 0 24 24">
<path d="M12 0c-6.628 0-12 5.372-12 12s5.372 12 12 12 12-5.372 12-12-5.372-12-12-12zM7.369 4.378c0.525 0 0.947 0.431 0.947 0.947s-0.422 0.947-0.947 0.947c-0.522-0.002-0.945-0.425-0.947-0.947v-0c0-0.525 0.422-0.947 0.947-0.947zM6.647 7.416h1.444v10.041h-1.444zM10.209 7.416h3.9c3.712 0 5.344 2.653 5.344 5.025 0 2.578-2.016 5.025-5.325 5.025h-3.919zM11.653 8.719v7.444h2.297c3.272 0 4.022-2.484 4.022-3.722 0-2.016-1.284-3.722-4.097-3.722z"/>
</svg>