<svg xmlns="http://www.w3.org/2000/svg" version="1.1" width="24" height="24" viewBox="0 0 24 24">
<path d="M22.565 9.054c0.248-0.477 0.45-1.125 0.235-1.786-0.25-0.766-0.939-1.275-2.051-1.511l-7.052-1.5-7.201-3.852c-0.078-0.042-0.779-0.405-1.545-0.405-0.571 0-1.063 0.198-1.424 0.571-0.337 0.349-0.539 0.834-0.603 1.444-0.058-0.004-0.127-0.006-0.195-0.006-0.001 0-0.003 0-0.004 0h0c-1.089 0-1.648 0.456-1.926 0.839-0.43 0.592-0.484 1.393-0.161 2.382l2.649 8.118 0.251 7.033c0.044 1.222 0.719 2.536 2.098 2.537 0.264 0 0.537-0.051 0.82-0.15 0.328 0.556 0.92 1.232 1.864 1.232 0.666 0 1.324-0.357 1.956-1.063l5.11-5.697 6.783-4.283c0.147-0.094 1.444-0.95 1.398-2.229-0.022-0.642-0.362-1.202-1.002-1.674zM7.396 20.166l-2.328-7.134-0.316-8.847 8.326 1.771 6.771 3.622-5.63 6.279zM20.377 7.51c0.545 0.116 0.709 0.279 0.72 0.313 0.021 0.063-0.017 0.196-0.087 0.344l-1.623-0.868zM4.951 1.792c0.269 0 0.607 0.145 0.7 0.193l1.738 0.929-2.693-0.573c0.013-0.323 0.080-0.484 0.12-0.526 0.012-0.011 0.062-0.023 0.135-0.023zM2.341 4.674c-0.195-0.595-0.093-0.773-0.092-0.774 0.019-0.026 0.167-0.099 0.476-0.099 0.083 0 0.159 0.005 0.221 0.011l0.109 3.050zM5.329 20.316l-0.029-0.798 0.514 1.574c-0.052 0.018-0.113 0.030-0.176 0.034l-0.002 0c-0.146 0-0.293-0.5-0.307-0.81zM8.943 21.74c-0.414 0.463-0.62 0.468-0.622 0.468-0.058 0-0.185-0.132-0.301-0.317l1.818-1.148zM21.213 11.441l-1.445 0.913 1.695-1.89c0.249 0.174 0.313 0.298 0.314 0.329 0.006 0.133-0.287 0.468-0.564 0.648z"/>
</svg>