<svg xmlns="http://www.w3.org/2000/svg" version="1.1" width="24" height="24" viewBox="0 0 24 24">
<path d="M23.254 12.667h-10.235c-1.051 0-2.1 0.489-2.692 1.266v-0.017c-0.591 0.816-1.544 1.353-2.629 1.353-1.796 0-3.249-1.458-3.249-3.251 0-1.795 1.454-3.251 3.249-3.251 1.085 0 2.039 0.536 2.629 1.353v-0.013c0.592 0.776 1.641 1.273 2.692 1.273h10.129c0.186-0.005 0.873-0.095 0.848-0.981-0.884-5.086-5.879-8.987-11.923-8.987-3.721 0-7.047 1.48-9.262 3.803-0.356 0.527 0.014 0.689 0.35 0.734h6.608c1.050 0 2.1-0.498 2.691-1.277v0.018c0.591-0.817 1.546-1.355 2.63-1.355 1.795 0 3.249 1.456 3.249 3.251 0 1.793-1.454 3.252-3.249 3.252-1.084 0-2.039-0.537-2.63-1.355v0.019c-0.591-0.779-1.641-1.266-2.691-1.266l-7.192 0.003c0 0-1.068-0.060-1.719 0.859-0.497 0.802-0.858 2.523-0.858 3.904 0 1.388 0.198 2.649 0.867 3.923 0.564 0.908 1.71 0.849 1.71 0.849l-0.042 0.006h7.233c1.050 0 2.1-0.49 2.691-1.268v0.019c0.591-0.817 1.546-1.355 2.63-1.355 1.795 0 3.249 1.458 3.249 3.251 0 1.795-1.454 3.251-3.249 3.251-1.084 0-2.039-0.537-2.63-1.354v0.018c-0.591-0.779-1.641-1.277-2.691-1.277h-6.604c-0.328 0.042-0.698 0.198-0.379 0.699 2.216 2.337 5.555 3.824 9.288 3.824 6.054 0 11.056-3.911 11.926-9.009-0.004-0.713-0.489-0.877-0.745-0.912z"/>
</svg>