<svg xmlns="http://www.w3.org/2000/svg" version="1.1" width="24" height="24" viewBox="0 0 24 24">
<path d="M17.948 20.162c-1.81 1.527-4.078 2.366-6.466 2.366-2.682 0-5.19-1.047-7.088-2.933-1.897-1.897-2.933-4.416-2.933-7.088 0-2.399 0.84-4.667 2.366-6.466l-0.916-1.167c-1.81 2.028-2.911 4.711-2.911 7.644 0 6.346 5.136 11.482 11.482 11.482 2.933 0 5.616-1.101 7.644-2.911zM8.331 2.988c1.003-0.327 2.061-0.502 3.151-0.502 2.682 0 5.19 1.047 7.088 2.933 1.897 1.897 2.933 4.416 2.933 7.088 0 1.090-0.174 2.148-0.502 3.151l1.134 1.134c0.534-1.319 0.829-2.77 0.829-4.285 0-6.346-5.136-11.482-11.482-11.482-1.516 0-2.966 0.294-4.285 0.829zM9.683 6.444l-6.237-6.444-0.97 1.516c-0.088 0.141-0.077 0.327 0.032 0.458l5.408 6.946zM7.655 14.96l-2.508-1.886-0.458 0.774c-0.055 0.087-0.044 0.196 0.033 0.273l2.115 2.29zM12.158 9.007l-0.578-0.6 0.153-0.611c0.065-0.273 0.087-0.491 0.065-0.622-0.087-0.393-0.273-0.687-0.273-0.687l-5.474 5.866c0 0 0.371 0.36 0.905-0.055 0.24-0.185 1.189-0.96 2.203-1.799l0.927 1.189zM17.501 14.263l0.153-0.611c0.055-0.207 0.087-0.382 0.065-0.502-0.065-0.393-0.218-0.687-0.218-0.687l-5.866 5.474c0 0 0.36 0.371 0.916 0 0.273-0.185 1.428-0.992 2.584-1.821l6.891 5.365c0.131 0.109 0.316 0.12 0.458 0.033l1.516-0.971zM9.061 16.389c0.883-0.676 2.115-1.625 3.217-2.475l1.243 0.97 2.039-2.475-0.676-0.654 0.218-0.774c0.109-0.393 0.153-0.698 0.12-0.883-0.109-0.567-0.36-0.981-0.36-0.981l-8.069 8.069c0 0 0.251 0.207 0.774 0l2.279 2.104c0.076 0.065 0.185 0.076 0.273 0.033l0.774-0.458z"/>
</svg>