<svg xmlns="http://www.w3.org/2000/svg" version="1.1" width="24" height="24" viewBox="0 0 24 24">
<path d="M21.314 13.477l-9.213 5.13-9.396-5.13c-0.101-0.057-0.222-0.090-0.351-0.090-0.276 0-0.517 0.154-0.64 0.38l-0.002 0.004c-0.057 0.101-0.090 0.222-0.090 0.351 0 0.276 0.154 0.517 0.38 0.64l0.004 0.002 9.746 5.333c0.22 0.128 0.497 0.128 0.717 0l9.562-5.333c0.223-0.127 0.371-0.363 0.371-0.634 0-0.132-0.035-0.256-0.097-0.363l0.002 0.004c-0.122-0.232-0.362-0.388-0.638-0.388-0.131 0-0.253 0.035-0.359 0.096l0.003-0.002zM3.845 10.075l8.256-4.67 9.195 5.314c0.105 0.060 0.231 0.095 0.365 0.095 0.274 0 0.514-0.147 0.645-0.367l0.002-0.003c0.060-0.105 0.095-0.231 0.095-0.365 0-0.274-0.148-0.514-0.368-0.645l-0.003-0.002-9.561-5.516c-0.106-0.061-0.232-0.096-0.367-0.096s-0.262 0.036-0.371 0.098l0.004-0.002-9.747 5.515c-0.497 0.276-0.497 0.993 0 1.288l9.746 5.516c0.105 0.060 0.231 0.095 0.365 0.095 0.274 0 0.514-0.148 0.644-0.368l0.002-0.003c0.060-0.105 0.095-0.231 0.095-0.365 0-0.274-0.147-0.514-0.367-0.645l-0.003-0.002zM0.057 13.937v-3.678c-0.006-0.063-0.010-0.137-0.010-0.211 0-0.847 0.467-1.586 1.157-1.972l0.011-0.006 9.745-5.517c0.322-0.189 0.71-0.301 1.124-0.301 0.427 0 0.826 0.119 1.166 0.325l-0.010-0.006 9.562 5.516c0.691 0.404 1.147 1.143 1.147 1.988 0 0.064-0.003 0.128-0.008 0.19l0.001-0.008v3.678c0.005 0.055 0.007 0.119 0.007 0.184 0 0.858-0.473 1.606-1.172 1.998l-0.012 0.006-9.562 5.332c-0.32 0.182-0.704 0.29-1.113 0.29s-0.792-0.107-1.124-0.296l0.011 0.006-9.746-5.332c-0.81-0.442-1.232-1.306-1.177-2.187z"/>
</svg>