<svg xmlns="http://www.w3.org/2000/svg" version="1.1" width="24" height="24" viewBox="0 0 24 24">
<path d="M22 10.68c0.001-0.007 0.002-0.014 0.002-0.022 0-0.054-0.028-0.101-0.071-0.128l-0.001-0-3.26-1.82c-0.020-0.012-0.044-0.019-0.070-0.019s-0.050 0.007-0.071 0.019l0.001-0-2.77 1.69c-0.041 0.030-0.068 0.077-0.070 0.13l-0 0v1.45l-1.13-0.74c-0.021-0.014-0.047-0.022-0.075-0.022s-0.054 0.008-0.076 0.022l0.001-0-1.62 1-0.070-1.64c-0.008-0.049-0.033-0.091-0.070-0.12l-0-0-1.65-1.090 1.51-0.78c0.048-0.028 0.080-0.080 0.080-0.139 0-0 0-0.001 0-0.002v0l-0.27-6.27c-0.003-0.056-0.034-0.103-0.079-0.13l-0.001-0-4.24-2.070h-0.1l-5.82 1.81c-0.052 0.027-0.087 0.081-0.087 0.142 0 0.017 0.003 0.033 0.008 0.049l-0-0.001 1.27 6.23c-0.002 0.012-0.004 0.026-0.004 0.040s0.001 0.028 0.004 0.041l-0-0.001 1.83 1.38-1.26 0.6c-0.050 0.028-0.083 0.080-0.083 0.14 0 0.011 0.001 0.021 0.003 0.031l-0-0.001 1 4.7c-0.002 0.011-0.003 0.023-0.003 0.035s0.001 0.024 0.004 0.036l-0-0.001 1.24 1.14-0.8 0.49c-0.039 0.027-0.065 0.072-0.065 0.123 0 0.013 0.002 0.026 0.005 0.038l-0-0.001 0.75 3.64c-0.004 0.010-0.006 0.022-0.006 0.035s0.002 0.025 0.006 0.036l-0-0.001 3 3.22c0.025 0.026 0.061 0.042 0.1 0.042s0.075-0.016 0.1-0.042l0-0 3.92-3.12c0.035-0.029 0.058-0.071 0.060-0.12v-0l-0.070-2.12 1.32 1.1c0.024 0.020 0.056 0.033 0.090 0.033s0.066-0.012 0.090-0.033l-0 0 3.14-2.51c0.028-0.030 0.049-0.067 0.060-0.108l0-0.002 0.090-1.57 1 0.67c0.023 0.018 0.053 0.029 0.085 0.029s0.062-0.011 0.085-0.029l-0 0 2.57-2c0.029-0.024 0.048-0.060 0.050-0.1l0-0zM12.38 10.83l0.070 1.57 0.12 2.78-4.23 2.87-0.66-4.53zM12.030 2.41l0.25 5.91-5 2.59-0.9-6.32zM3.54 8.12l-1.21-5.86 3.74 2.32 0.93 6.2-1.58-1.2zM5 15.050l-0.88-4.26 3.28 2.74 0.6 4.38-1.68-1.62zM6.14 20.56l-0.65-3.14 2.89 2.85 0.47 3.16zM9.14 23.56l-0.49-3.33 4-2.87 0.14 3.28zM13 18.2v-1.080c-0.002-0.043-0.021-0.082-0.050-0.11l-0-0-1.13-0.92 1-0.7c0.037-0.026 0.060-0.068 0.060-0.115 0-0.002-0-0.004-0-0.005v0-0.26l1.39 1.060v3.21zM17.44 17l-2.86 2.28v-3.22l3.070-2.2zM18.73 15.79l-0.9-0.63 0.090-1.59c0.003-0.009 0.004-0.019 0.004-0.030s-0.002-0.021-0.004-0.031l0 0.001c0.002-0.008 0.003-0.016 0.003-0.025s-0.001-0.018-0.003-0.026l0 0.001-1.93-1.27v-1.39l3 1.89zM21.28 13.93l-2.28 1.81 0.26-3.060 2.43-1.68z"/>
</svg>