<svg xmlns="http://www.w3.org/2000/svg" version="1.1" width="24" height="24" viewBox="0 0 24 24">
<path d="M12 24c-6.617 0-12-5.383-12-12s5.383-12 12-12 12 5.383 12 12-5.383 12-12 12zM12 1.109c-6.005 0-10.89 4.886-10.89 10.891s4.885 10.89 10.89 10.89 10.89-4.885 10.89-10.89-4.885-10.891-10.89-10.891zM6.182 5.99c0.352-1.698 1.503-3.229 3.050-3.996-0.269 0.273-0.595 0.483-0.844 0.78-1.020 1.1-1.48 2.692-1.199 4.156 0.355 2.235 2.455 4.060 4.732 4.028 1.765 0.079 3.485-0.937 4.348-2.468 1.848 0.063 3.645 1.017 4.7 2.548 0.54 0.799 0.962 1.736 0.991 2.711-0.342-1.295-1.202-2.446-2.375-3.095-1.135-0.639-2.529-0.802-3.772-0.425-1.56 0.448-2.849 1.723-3.293 3.293-0.377 1.25-0.216 2.628 0.377 3.772-0.825 1.429-2.315 2.449-3.932 2.756-1.244 0.261-2.551 0.059-3.709-0.464 1.036 0.302 2.161 0.355 3.191-0.011 1.381-0.457 2.522-1.567 3.024-2.935 0.556-1.49 0.345-3.261-0.591-4.54-0.7-1.007-1.803-1.717-3.002-1.969-0.38-0.068-0.764-0.098-1.148-0.134-0.611-1.231-0.834-2.66-0.528-3.996z"/>
</svg>