<svg xmlns="http://www.w3.org/2000/svg" version="1.1" width="24" height="24" viewBox="0 0 24 24">
<path d="M10.285 7.975v-3.934c0-0.135-0.109-0.244-0.244-0.245-0.137 0.001-0.245 0.11-0.245 0.245 0.007 2.524-0.991 4.946-2.775 6.732l-5.638 5.657c-0.076 0.076-0.095 0.194-0.045 0.29 0.262 0.507 0.559 0.995 0.889 1.46 0.041 0.059 0.106 0.096 0.178 0.103h0.021c0.065 0 0.128-0.026 0.173-0.073l5.915-5.938c1.138-1.139 1.776-2.686 1.771-4.297zM17.998 0.779c-0.076-0.043-0.169-0.043-0.243 0-0.076 0.045-0.123 0.125-0.123 0.213v10.918c0 1.622 0.63 3.148 1.774 4.296l1.995 2.007c0.046 0.046 0.108 0.073 0.175 0.073l0.021-0.003c0.070-0.006 0.137-0.044 0.179-0.101 1.448-2.038 2.226-4.476 2.223-6.976-0.007-4.295-2.293-8.262-6.001-10.426zM6.367 4.041v-3.049c0-0.086-0.045-0.168-0.119-0.213-0.076-0.045-0.17-0.045-0.246 0-3.71 2.164-5.994 6.132-6.002 10.426 0 0.342 0.018 0.709 0.057 1.12 0.010 0.095 0.072 0.177 0.16 0.21 0.027 0.010 0.057 0.014 0.084 0.015 0.064-0.001 0.126-0.027 0.172-0.073l4.123-4.138c1.139-1.14 1.775-2.685 1.771-4.296zM16.981 18.641c-1.784-1.784-2.784-4.207-2.778-6.73v-3.936c0.001-0.136-0.109-0.247-0.244-0.248-0.136 0.002-0.245 0.112-0.245 0.248 0 2.543-0.986 4.935-2.776 6.732l-5.914 5.937c-0.097 0.096-0.098 0.252-0.002 0.349 0.010 0.011 0.020 0.020 0.031 0.026 2.023 1.455 4.455 2.238 6.947 2.235 2.492 0.003 4.923-0.78 6.947-2.235 0.059-0.042 0.095-0.106 0.098-0.18 0.009-0.070-0.016-0.144-0.067-0.195z"/>
</svg>