<svg xmlns="http://www.w3.org/2000/svg" version="1.1" width="24" height="24" viewBox="0 0 24 24">
<path d="M17.128 0c-0.984 0.008-1.932 0.154-2.827 0.421l0.072-0.018-0.063 0.020c-0.508-0.094-1.098-0.154-1.7-0.165l-0.010-0c-1.178-0.020-2.19 0.266-3.006 0.742-0.804-0.279-2.472-0.76-4.23-0.664-1.224 0.067-2.56 0.439-3.55 1.484-0.987 1.045-1.509 2.662-1.399 4.862 0.030 0.607 0.203 1.597 0.49 2.879s0.69 2.783 1.193 4.152c0.503 1.37 1.054 2.6 1.915 3.436 0.43 0.419 1.022 0.771 1.72 0.742 0.49-0.020 0.933-0.235 1.315-0.552 0.186 0.245 0.385 0.352 0.566 0.451 0.228 0.125 0.45 0.21 0.68 0.266 0.413 0.103 1.12 0.241 1.948 0.1 0.282-0.047 0.579-0.139 0.875-0.27 0.011 0.33 0.024 0.653 0.037 0.98 0.041 1.036 0.067 1.993 0.378 2.832 0.050 0.137 0.187 0.843 0.727 1.466 0.54 0.624 1.598 1.013 2.803 0.755 0.85-0.182 1.931-0.51 2.649-1.532 0.71-1.010 1.030-2.459 1.093-4.809 0.016-0.127 0.035-0.235 0.055-0.336l0.169 0.015h0.020c0.907 0.041 1.891-0.088 2.713-0.47 0.728-0.337 1.279-0.678 1.68-1.283 0.1-0.15 0.21-0.331 0.24-0.643s-0.149-0.8-0.446-1.025c-0.595-0.452-0.969-0.28-1.37-0.197-0.357 0.083-0.77 0.135-1.194 0.146l-0.008 0c1.156-1.947 1.985-4.015 2.458-5.845 0.28-1.080 0.437-2.076 0.45-2.947s-0.058-1.642-0.58-2.309c-1.631-2.084-3.924-2.66-5.698-2.68-0.055-0.001-0.11-0.002-0.165-0.004zM17.081 0.64c1.678-0.016 3.822 0.455 5.361 2.422 0.346 0.442 0.449 1.088 0.437 1.884-0.013 0.795-0.16 1.747-0.429 2.79-0.522 2.020-1.508 4.375-2.897 6.488 0.046 0.033 0.098 0.062 0.153 0.084l0.005 0.002c0.29 0.12 0.951 0.223 2.27-0.048 0.332-0.070 0.575-0.117 0.827 0.075 0.113 0.096 0.184 0.238 0.184 0.397 0 0.010-0 0.020-0.001 0.030l0-0.001c-0.015 0.128-0.061 0.242-0.131 0.338l0.001-0.002c-0.255 0.383-0.758 0.746-1.403 1.045-0.571 0.266-1.39 0.405-2.116 0.413-0.364 0.004-0.7-0.024-0.985-0.113l-0.018-0.007c-0.11 1.060-0.363 3.153-0.528 4.108-0.132 0.77-0.363 1.382-0.804 1.84-0.44 0.458-1.063 0.734-1.901 0.914-1.038 0.223-1.795-0.017-2.283-0.428-0.487-0.41-0.71-0.954-0.844-1.287-0.092-0.23-0.14-0.528-0.186-0.926s-0.080-0.885-0.103-1.434c-0.022-0.558-0.034-1.214-0.034-1.873 0-0.229 0.002-0.457 0.004-0.685l-0 0.035c-0.418 0.384-0.947 0.654-1.534 0.757l-0.018 0.003c-0.689 0.117-1.304 0.002-1.671-0.090-0.198-0.050-0.371-0.119-0.532-0.207l0.012 0.006c-0.17-0.091-0.332-0.194-0.44-0.397-0.043-0.077-0.068-0.17-0.068-0.268 0-0.040 0.004-0.079 0.012-0.116l-0.001 0.004c0.036-0.135 0.113-0.249 0.217-0.33l0.001-0.001c0.198-0.161 0.46-0.251 0.855-0.333 0.719-0.148 0.97-0.249 1.123-0.37 0.13-0.104 0.277-0.314 0.537-0.622-0.001-0.009-0.002-0.024-0.003-0.038l-0-0.003c-0.49-0.014-0.946-0.145-1.345-0.366l0.015 0.008c-0.15 0.158-0.916 0.968-1.85 2.092-0.393 0.47-0.827 0.74-1.285 0.759s-0.872-0.211-1.224-0.552c-0.703-0.683-1.264-1.858-1.753-3.186-0.488-1.328-0.885-2.807-1.167-4.067-0.283-1.26-0.45-2.276-0.474-2.766-0.105-2.082 0.382-3.485 1.217-4.37 0.836-0.885 1.982-1.22 3.099-1.284 2.005-0.115 3.909 0.584 4.294 0.734 0.742-0.504 1.698-0.818 2.892-0.798 0.601 0.009 1.179 0.088 1.732 0.229l-0.051-0.011 0.020-0.009c0.193-0.072 0.44-0.145 0.693-0.205l0.046-0.009c0.619-0.152 1.332-0.243 2.065-0.253l0.007-0zM17.233 1.31h-0.146c-0.608 0.009-1.195 0.078-1.762 0.203l0.058-0.011c1.246 0.552 2.187 1.402 2.85 2.25 0.438 0.555 0.818 1.187 1.111 1.865l0.021 0.055c0.11 0.264 0.184 0.487 0.226 0.66 0.021 0.087 0.035 0.16 0.040 0.236 0.002 0.038 0.004 0.077-0.012 0.144 0 0.003-0.005 0.010-0.006 0.013 0.030 0.876-0.187 1.47-0.213 2.306-0.020 0.606 0.135 1.318 0.173 2.095 0.036 0.73-0.052 1.532-0.526 2.319 0.040 0.048 0.076 0.096 0.114 0.144 1.254-1.975 2.158-4.16 2.64-6.023 0.258-1.003 0.395-1.912 0.407-2.632 0.010-0.72-0.124-1.242-0.295-1.46-1.342-1.716-3.158-2.153-4.68-2.164zM12.443 1.566c-1.182 0.003-2.030 0.36-2.673 0.895-0.663 0.553-1.108 1.31-1.4 2.085-0.347 0.92-0.466 1.81-0.513 2.414l0.013-0.008c0.357-0.2 0.826-0.4 1.328-0.516s1.043-0.151 1.533 0.039 0.895 0.637 1.042 1.315c0.704 3.257-0.219 4.468-0.559 5.382-0.108 0.263-0.221 0.601-0.315 0.946l-0.016 0.067c0.043-0.010 0.086-0.022 0.129-0.026 0.24-0.020 0.428 0.060 0.54 0.108 0.342 0.142 0.577 0.44 0.704 0.78 0.033 0.089 0.057 0.185 0.071 0.284 0.013 0.034 0.020 0.074 0.020 0.115 0 0.004-0 0.009-0 0.013l0-0.001c-0.016 0.5-0.026 1.087-0.026 1.677 0 0.725 0.014 1.446 0.042 2.164l-0.003-0.103c0.023 0.538 0.057 1.012 0.1 1.386s0.104 0.657 0.143 0.753c0.128 0.32 0.315 0.739 0.653 1.024 0.338 0.284 0.823 0.474 1.709 0.284 0.768-0.165 1.242-0.394 1.559-0.723s0.505-0.787 0.626-1.488c0.181-1.050 0.545-4.095 0.589-4.668-0.020-0.432 0.044-0.764 0.182-1.017 0.142-0.26 0.362-0.419 0.552-0.505 0.095-0.043 0.184-0.072 0.257-0.093-0.089-0.127-0.169-0.233-0.252-0.336l0.009 0.011c-0.262-0.316-0.486-0.679-0.655-1.070l-0.011-0.029c-0.102-0.209-0.188-0.367-0.278-0.522l0.021 0.039c-0.133-0.24-0.301-0.54-0.477-0.877-0.352-0.675-0.735-1.493-0.934-2.29-0.198-0.796-0.227-1.62 0.281-2.201 0.45-0.516 1.24-0.73 2.426-0.61-0.035-0.105-0.056-0.192-0.115-0.332-0.29-0.673-0.639-1.254-1.054-1.781l0.013 0.017c-1.005-1.285-2.632-2.559-5.146-2.6zM5.801 1.618c-0.127 0-0.254 0.004-0.38 0.011-1.010 0.058-1.965 0.351-2.648 1.075-0.684 0.724-1.134 1.911-1.036 3.876 0.019 0.372 0.181 1.414 0.459 2.652s0.67 2.695 1.142 3.982c0.473 1.287 1.046 2.407 1.59 2.937 0.274 0.265 0.512 0.372 0.728 0.363 0.217-0.010 0.478-0.135 0.797-0.518 0.627-0.754 1.219-1.421 1.83-2.069l-0.020 0.021c-0.74-0.645-1.204-1.588-1.204-2.641 0-0.18 0.014-0.356 0.040-0.529l-0.002 0.019c0.103-0.739 0.117-1.43 0.105-1.976-0.012-0.532-0.050-0.886-0.050-1.107-0-0.003-0-0.006-0-0.009s0-0.007 0-0.010v0-0.005l-0.001-0.006v-0.001c0-0.002 0-0.003 0-0.005 0-1.209 0.217-2.368 0.614-3.439l-0.022 0.068c0.28-0.744 0.697-1.5 1.322-2.112-0.614-0.202-1.704-0.51-2.884-0.568-0.113-0.006-0.245-0.010-0.378-0.010h-0.001zM18.199 6.9c-0.679 0.009-1.060 0.184-1.26 0.413-0.283 0.325-0.31 0.895-0.134 1.597 0.175 0.703 0.537 1.489 0.877 2.142 0.17 0.327 0.335 0.621 0.468 0.86 0.134 0.24 0.232 0.41 0.292 0.555 0.055 0.134 0.116 0.252 0.178 0.362 0.263-0.555 0.31-1.1 0.283-1.668-0.035-0.703-0.198-1.422-0.174-2.15 0.027-0.851 0.195-1.405 0.21-2.063-0.222-0.030-0.479-0.048-0.74-0.048h-0zM9.965 7.015c-0.219 0.002-0.432 0.029-0.635 0.078l0.019-0.004c-0.437 0.108-0.821 0.262-1.177 0.461l0.024-0.012c-0.133 0.072-0.247 0.147-0.354 0.232l0.005-0.004-0.022 0.020c0.006 0.146 0.035 0.5 0.047 1.021 0.012 0.57-0.002 1.297-0.112 2.084-0.239 1.71 1.002 3.126 2.46 3.128 0.085-0.351 0.225-0.707 0.365-1.082 0.406-1.094 1.205-1.892 0.532-5.006-0.11-0.51-0.328-0.716-0.628-0.832-0.146-0.053-0.315-0.084-0.492-0.084-0.011 0-0.023 0-0.034 0l0.002-0zM17.882 7.219h0.050c0.066 0.002 0.127 0.009 0.18 0.022 0.054 0.012 0.1 0.030 0.138 0.055s0.066 0.063 0.075 0.109l0 0.001-0.001 0.008c0 0.003 0 0.006 0 0.010 0 0.046-0.013 0.090-0.036 0.126l0.001-0.001c-0.031 0.057-0.068 0.107-0.11 0.15l0-0c-0.099 0.109-0.232 0.185-0.382 0.211l-0.004 0.001c-0.021 0.003-0.046 0.004-0.071 0.004-0.127 0-0.245-0.040-0.341-0.108l0.002 0.001c-0.050-0.034-0.093-0.073-0.129-0.117l-0.001-0.001c-0.031-0.034-0.054-0.078-0.063-0.125l-0-0.002c-0-0.005-0.001-0.010-0.001-0.015 0-0.043 0.016-0.083 0.043-0.113l-0 0c0.032-0.037 0.071-0.067 0.115-0.089l0.002-0.001c0.096-0.054 0.226-0.094 0.373-0.116 0.055-0.008 0.109-0.012 0.16-0.010zM10.062 7.387c0.053 0 0.109 0.005 0.166 0.013 0.153 0.021 0.289 0.062 0.393 0.122 0.052 0.028 0.096 0.063 0.132 0.105l0.001 0.001c0.034 0.039 0.055 0.090 0.055 0.147 0 0.008-0 0.016-0.001 0.024l0-0.001c-0.010 0.060-0.037 0.112-0.075 0.154l0-0c-0.041 0.050-0.088 0.093-0.141 0.129l-0.002 0.001c-0.103 0.074-0.231 0.118-0.37 0.118-0.027 0-0.055-0.002-0.081-0.005l0.003 0c-0.168-0.028-0.312-0.11-0.419-0.227l-0.001-0.001c-0.046-0.047-0.085-0.101-0.116-0.16l-0.002-0.004c-0.027-0.042-0.042-0.093-0.042-0.148 0-0.010 0.001-0.020 0.002-0.030l-0 0.001c0.015-0.108 0.104-0.164 0.191-0.195 0.082-0.028 0.176-0.045 0.274-0.045 0.012 0 0.024 0 0.035 0.001l-0.002-0zM19.122 14.73l-0.003 0.001c-0.147 0.053-0.268 0.075-0.37 0.12-0.104 0.041-0.188 0.116-0.238 0.212l-0.001 0.002c-0.063 0.115-0.117 0.319-0.101 0.666 0.042 0.030 0.092 0.053 0.144 0.069l0.004 0.001c0.171 0.052 0.458 0.086 0.778 0.081 0.638-0.007 1.423-0.156 1.84-0.35 0.361-0.17 0.671-0.375 0.947-0.619l-0.004 0.004h-0.001c-1.393 0.288-2.18 0.211-2.663 0.012-0.127-0.053-0.237-0.12-0.334-0.201l0.002 0.002zM11.091 14.824h-0.021c-0.053 0.005-0.13 0.023-0.279 0.188-0.348 0.39-0.47 0.635-0.757 0.864-0.287 0.228-0.66 0.35-1.405 0.503-0.236 0.048-0.371 0.101-0.461 0.144 0.029 0.024 0.026 0.030 0.070 0.053 0.109 0.060 0.249 0.113 0.362 0.142 0.32 0.080 0.846 0.173 1.395 0.080 0.549-0.094 1.12-0.357 1.607-1.040 0.084-0.118 0.093-0.292 0.024-0.479-0.070-0.187-0.223-0.348-0.331-0.393-0.059-0.030-0.128-0.052-0.201-0.062l-0.003-0z"/>
</svg>