<svg xmlns="http://www.w3.org/2000/svg" version="1.1" width="24" height="24" viewBox="0 0 24 24">
<path d="M12 24c-6.628 0-12-5.372-12-12s5.372-12 12-12 12 5.372 12 12-5.372 12-12 12zM17.371 15.862c-0.23 0.161-0.644 0.322-1.081 0.322-0.46 0-0.805-0.184-0.805-0.851v-5.011c0-3.149-1.403-4.321-4.139-4.321-1.517 0-2.875 0.367-3.656 0.827-0.322 0.529-0.391 1.425-0.23 2 1-0.627 2.214-1.003 3.516-1.012l0.003-0c1.793 0 2.53 0.805 2.53 2.713v0.598c-0.667-0.275-1.541-0.367-2.299-0.367-2.599 0-4.599 1.103-4.599 3.793 0 2.506 1.724 3.448 3.702 3.448 1.518 0 2.575-0.483 3.242-1.357h0.092c0.184 0.851 0.782 1.357 1.816 1.357h0.009c0.557 0 1.077-0.154 1.522-0.421l-0.013 0.007c0.299-0.414 0.437-1.126 0.391-1.725zM10.817 16.183c-1.241 0-2.207-0.529-2.207-1.724 0-1.219 0.989-2.069 2.897-2.069 0.011-0 0.023-0 0.036-0 0.705 0 1.38 0.127 2.004 0.358l-0.040-0.013v2.253c-0.598 0.874-1.702 1.195-2.69 1.195z"/>
</svg>