<svg xmlns="http://www.w3.org/2000/svg" version="1.1" width="24" height="24" viewBox="0 0 24 24">
<path d="M12 0l-10.392 6v12l10.392 6 10.392-6v-12zM10.927 1.445h0.001c0.295 0.22 0.667 0.352 1.069 0.352s0.774-0.132 1.074-0.355l-0.005 0.003 7.534 4.35c-0.007 0.060-0.011 0.13-0.011 0.201s0.004 0.141 0.012 0.21l-0.001-0.008-7.535 4.35c-0.295-0.22-0.666-0.351-1.068-0.351s-0.774 0.132-1.073 0.355l0.005-0.003-7.536-4.35c0.007-0.060 0.011-0.13 0.011-0.201s-0.004-0.141-0.012-0.209l0.001 0.008zM21.324 7.4c0.109 0.080 0.226 0.147 0.349 0.201v8.7c-0.641 0.285-1.080 0.916-1.080 1.65 0 0.071 0.004 0.141 0.012 0.21l-0.001-0.008-7.535 4.35c-0.101-0.075-0.216-0.142-0.337-0.195l-0.012-0.005-0.009-8.653c0.642-0.285 1.081-0.916 1.081-1.65 0-0.071-0.004-0.141-0.012-0.209l0.001 0.008zM2.676 7.448l7.535 4.35c-0.007 0.061-0.011 0.131-0.011 0.202 0 0.734 0.439 1.365 1.069 1.645l0.011 0.005v8.7c-0.124 0.054-0.24 0.122-0.349 0.202l-7.535-4.35c0.007-0.061 0.011-0.131 0.011-0.202 0-0.734-0.439-1.365-1.069-1.645l-0.011-0.005v-8.7c0.124-0.054 0.24-0.122 0.349-0.202z"/>
</svg>