<svg xmlns="http://www.w3.org/2000/svg" version="1.1" width="24" height="24" viewBox="0 0 24 24">
<path d="M5.468 12.804c-0.096-0.006-0.209-0.010-0.322-0.010-2.842 0-5.145 2.304-5.145 5.145 0 2.728 2.124 4.961 4.808 5.134l0.015 0.001c0.096 0.006 0.209 0.010 0.322 0.010 2.842 0 5.145-2.304 5.145-5.145 0-2.728-2.124-4.961-4.808-5.134l-0.015-0.001zM23.309 15.366l-6.859-11.882c-0.907-1.548-2.562-2.572-4.456-2.572-2.842 0-5.147 2.304-5.147 5.146 0 0.948 0.256 1.836 0.704 2.599l-0.013-0.024 6.86 11.878c0.907 1.55 2.563 2.574 4.458 2.574 0.947 0 1.835-0.256 2.597-0.702l-0.024 0.013c1.548-0.907 2.571-2.562 2.571-4.455 0-0.948-0.257-1.837-0.704-2.6l0.013 0.024z"/>
</svg>