<svg xmlns="http://www.w3.org/2000/svg" version="1.1" width="24" height="24" viewBox="0 0 24 24">
<path d="M0 0v24h24v-24zM10.34 5.1c0.083 0.014 0.114 0.096 0.156 0.158 0.054 0.354 0.1 0.71 0.154 1.065 0.157-0.162 0.31-0.328 0.49-0.464 0.867-0.666 2.050-0.94 3.11-0.63 0.72 0.21 1.315 0.72 1.756 1.316 0.187 0.263 0.348 0.547 0.45 0.855 0.198 0.582 0.225 1.206 0.198 1.815-0.053 1.12-0.433 2.244-1.169 3.103-0.645 0.764-1.56 1.283-2.597 1.408l-0.019 0.002c-0.144 0.017-0.311 0.026-0.481 0.026-0.616 0-1.203-0.126-1.736-0.354l0.029 0.011c0.019 1.010 0.032 2.018 0.038 3.028 0.021 0.465-0.021 0.938 0.087 1.396 0.031 0.14 0.123 0.292 0.28 0.308 0.302 0.036 0.608 0.013 0.912 0.020 0.057 0 0.13 0.037 0.126 0.101 0.004 0.186 0.009 0.373-0.004 0.56-0.046 0.092-0.17 0.070-0.255 0.072-0.663-0.035-1.438-0.056-2.219-0.056s-1.556 0.020-2.326 0.060l0.108-0.004-0.070-0.056c-0.004-0.22-0.063-0.467 0.034-0.671 0.3-0.035 0.606 0.020 0.904-0.032 0.191-0.048 0.268-0.26 0.295-0.434 0.040-0.32 0.027-0.642 0.042-0.963v-8.392c0-0.156 0.006-0.31-0.008-0.465-0.014-0.267-0.143-0.501-0.338-0.655l-0.002-0.001c-0.203-0.158-0.438-0.265-0.662-0.388-0.082-0.052-0.181-0.097-0.229-0.187-0.007-0.044-0.011-0.094-0.011-0.145 0-0.068 0.007-0.134 0.020-0.198l-0.001 0.006c0.056-0.066 0.144-0.086 0.219-0.122 0.73-0.315 1.456-0.636 2.185-0.952 0.17-0.068 0.346-0.144 0.534-0.141zM12.33 6.246c-0.053 0-0.104 0-0.156 0.013-0.616 0.066-1.146 0.387-1.489 0.854l-0.004 0.006c0.005 1.44 0 2.88 0.003 4.32 0.005 0.327 0.073 0.676 0.302 0.924 0.524 0.512 1.302 0.692 2.014 0.593 0.577-0.096 1.037-0.538 1.279-1.054 0.344-0.736 0.395-1.571 0.335-2.371-0.053-0.655-0.181-1.312-0.449-1.915-0.184-0.407-0.442-0.793-0.811-1.054-0.276-0.198-0.621-0.316-0.993-0.316-0.011 0-0.022 0-0.033 0l0.002-0z"/>
</svg>