<svg xmlns="http://www.w3.org/2000/svg" version="1.1" width="24" height="24" viewBox="0 0 24 24">
<path d="M24 14.475c0.009 4.084-3.296 7.401-7.38 7.41h-0.016c-1.637-0.015-3.222-0.58-4.5-1.605-3.269 2.544-7.981 1.957-10.524-1.313-1-1.286-1.555-2.862-1.58-4.492v-11.655h1.41v11.655c-0.002 3.314 2.683 6.002 5.996 6.004 1.293 0.001 2.552-0.416 3.589-1.189-1.163-1.335-1.806-3.043-1.815-4.814v-9.54c0-1.557 1.263-2.82 2.82-2.82s2.82 1.263 2.82 2.82v9.54c0.006 1.766-0.623 3.474-1.77 4.814 2.674 1.957 6.429 1.371 8.383-1.304 0.745-1.019 1.149-2.248 1.157-3.511v-11.655h1.41zM13.41 4.935c0-0.778-0.632-1.41-1.41-1.41s-1.41 0.631-1.41 1.41v9.54c0.002 1.41 0.501 2.776 1.41 3.855 0.908-1.079 1.408-2.445 1.41-3.855z"/>
</svg>