<svg xmlns="http://www.w3.org/2000/svg" version="1.1" width="24" height="24" viewBox="0 0 24 24">
<path d="M21.229 4.14l-0.006 3.33h-10.6c-0.219 0-0.397 0.181-0.397 0.399 0 0.221 0.18 0.399 0.397 0.399l2.76-0.016c4.346 0 7.868 3.525 7.868 7.869 0 4.348-3.522 7.869-7.869 7.869l-10.634 0.010 0.005-3.375h10.635c2.487 0 4.504-2.016 4.504-4.504 0-2.49-2.017-4.506-4.506-4.506l-2.771-0.030c-2.060 0-3.727-1.666-3.727-3.72 0-2.061 1.666-3.726 3.723-3.726zM2.763 19.843l-0.004-3.331h10.609c0.21 0 0.383-0.175 0.383-0.387 0-0.213-0.173-0.385-0.384-0.385h-2.744c-4.345 0-7.867-3.525-7.867-7.871s3.522-7.869 7.867-7.869l10.6 0.003 0.006 3.35-10.604 0.003c-2.49 0-4.5 2.019-4.5 4.507s2.024 4.504 4.515 4.504l2.775 0.030c2.055 0 3.72 1.668 3.72 3.724 0 2.055-1.665 3.719-3.72 3.719h-10.65z"/>
</svg>