<svg xmlns="http://www.w3.org/2000/svg" version="1.1" width="24" height="24" viewBox="0 0 24 24">
<path d="M12 0c-0.002 0-0.004 0-0.006 0-5.72 0-10.357 4.637-10.357 10.357 0 0.002 0 0.004 0 0.006v-0c0 5.427 4.949 9.818 10.363 9.818v3.818c6.3-3.191 10.363-8.333 10.363-13.637 0-0.001 0-0.003 0-0.004 0-5.721-4.637-10.358-10.358-10.358-0.002 0-0.004 0-0.005 0h0zM12.027 4.227c0.873 0 1.664 0.151 2.4 0.465s1.364 0.722 1.895 1.254c0.532 0.532 0.94 1.145 1.24 1.855s0.451 1.459 0.451 2.25c0 0.45-0.055 0.86-0.15 1.242s-0.246 0.722-0.451 1.008-0.45 0.518-0.75 0.682-0.64 0.246-1.035 0.246c-0.382 0-0.735-0.096-1.035-0.287s-0.547-0.464-0.725-0.832c-0.227 0.344-0.524 0.624-0.873 0.825l-0.012 0.007c-0.355 0.191-0.765 0.287-1.242 0.287-0.005 0-0.010 0-0.015 0-0.816 0-1.553-0.334-2.083-0.873l-0-0c-0.267-0.275-0.484-0.601-0.634-0.962l-0.007-0.020c-0.147-0.365-0.232-0.787-0.232-1.23 0-0.009 0-0.018 0-0.027v0.001c0-0.45 0.082-0.872 0.232-1.254 0.164-0.382 0.368-0.709 0.641-0.982 0.259-0.273 0.574-0.491 0.928-0.641s0.723-0.232 1.105-0.232 0.735 0.082 1.035 0.232 0.559 0.355 0.764 0.6h0.096v-0.613h1.295v3.832c0 0.245 0.068 0.464 0.205 0.668s0.355 0.312 0.641 0.312c0.191 0 0.354-0.054 0.49-0.176s0.232-0.286 0.314-0.477 0.136-0.424 0.164-0.656c0.026-0.216 0.040-0.468 0.041-0.722v-0.001c0-0.614-0.123-1.201-0.355-1.76-0.25-0.564-0.579-1.048-0.981-1.46l0.001 0.001c-0.423-0.423-0.914-0.749-1.486-0.994s-1.187-0.367-1.869-0.367c-0.655 0-1.267 0.122-1.84 0.354s-1.064 0.56-1.486 0.969c-0.423 0.409-0.751 0.9-0.996 1.459-0.245 0.573-0.367 1.186-0.367 1.855s0.122 1.282 0.367 1.855 0.586 1.050 1.023 1.459c0.852 0.818 2.010 1.322 3.287 1.322h0c0.75 0 1.404-0.164 1.99-0.477l0.477 1.199c-0.708 0.327-1.537 0.518-2.41 0.518-0.016 0-0.032-0-0.047-0l0.002 0c-0.873 0-1.664-0.149-2.414-0.463-0.736-0.314-1.376-0.724-1.908-1.256s-0.956-1.145-1.256-1.855c-0.3-0.709-0.449-1.471-0.449-2.275s0.149-1.555 0.449-2.277c0.604-1.427 1.727-2.537 3.126-3.109l0.038-0.014c0.723-0.314 1.527-0.465 2.412-0.465zM11.836 8.4c-0.218 0-0.436 0.041-0.641 0.123s-0.382 0.19-0.545 0.34c-0.162 0.152-0.288 0.34-0.366 0.551l-0.003 0.010c-0.095 0.218-0.135 0.462-0.135 0.734s0.040 0.518 0.135 0.736 0.219 0.409 0.369 0.559c0.164 0.15 0.341 0.274 0.545 0.342 0.19 0.078 0.41 0.123 0.641 0.123s0.451-0.045 0.653-0.128l-0.012 0.004c0.205-0.082 0.382-0.192 0.545-0.342s0.287-0.327 0.369-0.545c0.095-0.218 0.135-0.464 0.135-0.75s-0.040-0.532-0.135-0.75c-0.092-0.212-0.216-0.392-0.369-0.545v0c-0.311-0.286-0.728-0.462-1.186-0.463h-0z"/>
</svg>