<svg xmlns="http://www.w3.org/2000/svg" version="1.1" width="24" height="24" viewBox="0 0 24 24">
<path d="M13.527 0.099c-6.572-0.843-12.585 3.801-13.428 10.374-0.843 6.572 3.8 12.584 10.373 13.428 6.573 0.843 12.587-3.801 13.428-10.374 0.844-6.572-3.799-12.584-10.373-13.428zM15.998 7.584c-0.232 0.003-0.441 0.098-0.593 0.25v0l-4.453 4.453-0.95-0.95c4.389-4.376 5.18-4.418 5.996-3.753zM11.135 12.445l4.44-4.44c0.113-0.118 0.272-0.192 0.449-0.192 0.342 0 0.62 0.278 0.62 0.62 0 0.19-0.086 0.361-0.221 0.474l-0.001 0.001-4.699 4.125zM11.465 13.139l-1.1 0.238c-0.004 0.001-0.009 0.001-0.013 0.001-0.023 0-0.044-0.013-0.054-0.033l-0-0c-0.005-0.009-0.008-0.019-0.008-0.030 0-0.017 0.007-0.032 0.018-0.043v0l0.645-0.645zM8.662 12.68l1.172-1.172 0.879 0.878-1.979 0.426c-0.006 0.001-0.012 0.002-0.019 0.002-0.029 0-0.054-0.017-0.066-0.041l-0-0c-0.007-0.011-0.011-0.024-0.011-0.039 0-0.021 0.009-0.041 0.024-0.054l0-0zM5.016 18.738c-0.039-0.004-0.069-0.036-0.069-0.076 0-0.003 0-0.005 0-0.008l-0 0c0.002-0.018 0.010-0.034 0.022-0.046v0h0.002l0.946-0.946 1.222 1.222zM7.441 17.482c-0.074 0.039-0.123 0.115-0.123 0.203 0 0.019 0.002 0.037 0.007 0.055l-0-0.002 0.203 0.865c0.002 0.009 0.004 0.019 0.004 0.030 0 0.069-0.056 0.125-0.125 0.125-0.035 0-0.067-0.014-0.090-0.038l-0-0h-0.003l-1.228-1.229 3.762-3.758 1.82-0.393 0.874 0.874c-1.255 1.102-2.971 2.201-5.1 3.268zM12.72 14.054h-0.002l-0.839-0.839 4.699-4.125c0.043-0.039 0.082-0.080 0.117-0.125l0.002-0.002c-0.148 1.345-2.029 3.245-3.977 5.091zM16.377 7.594l-0.003-0.002c-0.328-0.329-0.531-0.784-0.531-1.285 0-1.006 0.816-1.822 1.822-1.822 0.446 0 0.854 0.16 1.17 0.426l-0.003-0.002-1.61 1.613c-0.022 0.022-0.035 0.051-0.035 0.084s0.013 0.063 0.035 0.084v0l1.247 1.247c-0.236 0.119-0.514 0.189-0.808 0.189-0.502 0-0.956-0.203-1.285-0.532v0zM18.955 7.594c-0.081 0.080-0.169 0.151-0.265 0.214l-0.006 0.004h-0.001l-1.207-1.207 1.533-1.533c0.661 0.72 0.637 1.832-0.054 2.522zM18.855 6.050c-0.036 0.026-0.059 0.068-0.059 0.116 0 0.015 0.002 0.029 0.006 0.042l-0-0.001c0.027 0.054 0.043 0.117 0.043 0.184 0 0.101-0.036 0.194-0.097 0.266l0.001-0.001c-0.019 0.024-0.030 0.054-0.030 0.087 0 0.044 0.021 0.084 0.053 0.11l0 0c0.023 0.018 0.052 0.029 0.084 0.030h0c0.042-0 0.080-0.020 0.106-0.050l0-0c0.099-0.119 0.16-0.273 0.16-0.442 0-0.113-0.027-0.219-0.075-0.313l0.002 0.004c-0.025-0.036-0.067-0.059-0.113-0.059-0.030 0-0.058 0.010-0.081 0.026l0-0z"/>
</svg>