<svg xmlns="http://www.w3.org/2000/svg" version="1.1" width="24" height="24" viewBox="0 0 24 24">
<path d="M20.7 15.404l-1.894-4.967h1.411l1.39 3.582 1.379-3.582h0.96l-1.92 4.967zM16.298 9.6v-1.12h1.34v1.12zM16.298 15.408v-4.971h1.34v4.967zM9.333 15.405l2.146-3.3-2.049-3.398h1.627l1.364 2.254 1.479-2.254h1.12l-2.046 3.156 2.126 3.537h-1.622l-1.45-2.4-1.557 2.4zM5.987 15.405v-4.968h1.338v0.937c0.344-0.7 0.875-1.051 1.585-1.051 0.089 0.001 0.174 0.011 0.257 0.028l-0.009-0.002v1.194c-0.157-0.061-0.339-0.098-0.528-0.102l-0.002-0c-0.537 0-0.968 0.267-1.303 0.8v3.164zM2.959 14.869q-0.664 0.65-1.437 0.65c-0.015 0.001-0.034 0.001-0.052 0.001-0.39 0-0.745-0.152-1.009-0.4l0.001 0.001c-0.251-0.249-0.407-0.595-0.407-0.977 0-0.019 0-0.037 0.001-0.056l-0 0.003c-0.001-0.016-0.001-0.036-0.001-0.055 0-0.507 0.26-0.953 0.655-1.213l0.005-0.003q0.657-0.447 1.884-0.448h0.355v-0.453q0-0.772-0.88-0.772c-0.586 0.012-1.132 0.175-1.603 0.451l0.016-0.008v-0.922c0.536-0.216 1.157-0.342 1.807-0.345h0.001q1.953 0 1.951 1.55v2.206c0 0.39 0.123 0.58 0.376 0.58 0.062-0 0.122-0.008 0.179-0.021l-0.005 0.001 0.032 0.751c-0.223 0.074-0.48 0.121-0.747 0.13l-0.004 0c-0.552 0-0.902-0.216-1.060-0.65zM2.959 14.149v-1.010h-0.32c-0.866 0-1.297 0.274-1.297 0.815-0 0.002-0 0.005-0 0.008 0 0.353 0.287 0.64 0.64 0.64 0 0 0 0 0 0v0c0.329 0.004 0.647-0.15 0.977-0.453z"/>
</svg>