<svg xmlns="http://www.w3.org/2000/svg" version="1.1" width="24" height="24" viewBox="0 0 24 24">
<path d="M13.664 6.956l-5.614 1.54 1.14 4.224 5.615-1.54 1.145 4.22-5.615 1.49 1.093 4.224-5.615 1.49-1.393-5.064c0.846-0.995 1.194-2.386 0.846-3.728-0.398-1.342-1.392-2.385-2.584-2.832l-1.392-5.217 11.28-2.983zM20.77 6.758l-1.838-6.708-18.932 5.018 1.838 6.758c1.093 0.2 2.087 1.043 2.385 2.236 0.348 1.193-0.1 2.385-0.944 3.18l1.788 6.708 18.933-5.068-1.79-6.708c-1.142-0.2-2.086-1.043-2.434-2.236-0.298-1.193 0.1-2.435 0.994-3.18z"/>
</svg>