<svg xmlns="http://www.w3.org/2000/svg" version="1.1" width="24" height="24" viewBox="0 0 24 24">
<path d="M23.992 11.806c-0.004-0.107-0.010-0.204-0.020-0.299l0.002 0.020v-0.004c-0.094-1.059-0.451-2.019-1.003-2.835l0.013 0.021c-0.261-0.39-0.547-0.731-0.865-1.037l-0.002-0.002c-0.469-0.448-1.010-0.826-1.603-1.114l-0.037-0.016c-0.875-0.422-1.903-0.668-2.988-0.668-0.022 0-0.044 0-0.066 0l0.003-0c-0.009-0-0.019-0-0.030-0-0.903 0-1.768 0.163-2.567 0.461l0.051-0.017c-0.698 0.247-1.301 0.584-1.835 1.006l0.013-0.010c-0.123 0.1-0.232 0.195-0.337 0.293l0.004-0.003-0.085 0.085-0.117 0.125h0.001l-0.056 0.055-0.026 0.028-0.141 0.147c-0.104 0.117-0.202 0.234-0.296 0.349v-0.002l-0.004-0.003c-0.192 0.233-0.37 0.476-0.5 0.693-0.089 0.14-0.176 0.283-0.259 0.427l-1.147 2.319 0.002 0.001-0.060 0.118-0.126 0.256c-0.251 0.509-0.521 1.017-0.821 1.435-0.672 0.737-1.431 1.098-2.406 1.098-0.068 0-0.139-0.003-0.209-0.008-0.588-0.023-1.092-0.162-1.539-0.427-0.423-0.246-0.762-0.596-0.987-1.016l-0.007-0.014c-0.206-0.369-0.328-0.81-0.328-1.279 0-0.032 0.001-0.064 0.002-0.095l-0 0.005 0.002-0.034c0.031-0.76 0.321-1.352 0.904-1.861 0.142-0.124 0.291-0.228 0.446-0.32 0.021-0.013 0.044-0.024 0.065-0.036 0.434-0.237 0.927-0.355 1.492-0.355l0.176 0.005c0.899 0.034 1.592 0.314 2.145 0.863l1.734-3.113c-0.403-0.27-0.864-0.509-1.352-0.694l-0.047-0.016c-0.019-0.007-0.040-0.016-0.060-0.022-0.062-0.022-0.123-0.045-0.186-0.065-0.502-0.172-1.085-0.295-1.689-0.346l-0.027-0.002c-0.044-0.005-0.059-0.007-0.075-0.009l0.029 0.003c-0.091-0.005-0.184-0.016-0.275-0.020-0.084-0.003-0.188-0.006-0.292-0.007l-0.005-0h-0.055c-0.011-0-0.025-0-0.038-0-1.086 0-2.114 0.247-3.032 0.688l0.042-0.018c-1.031 0.496-1.877 1.234-2.488 2.144l-0.014 0.022c-0.636 0.939-1.016 2.096-1.016 3.343 0 0.014 0 0.027 0 0.040v-0.002c-0.002 1.564 0.568 2.938 1.701 4.093 1.184 1.211 2.721 1.864 4.567 1.941 0.118 0.005 0.235 0.008 0.353 0.008 1.045 0 2.011-0.186 2.878-0.558 0.217-0.093 0.427-0.201 0.642-0.322 0.117-0.067 0.228-0.139 0.338-0.215l0.080-0.055 0.137-0.093c0.164-0.118 0.317-0.246 0.467-0.381l0.052-0.050c0.088-0.083 0.176-0.168 0.259-0.255l0.311-0.352 0.118-0.148 0.056-0.081 0.055-0.079c0.462-0.776 1.965-3.601 1.965-3.601v-0.006l0.090-0.172 0.074-0.135c0.222-0.403 0.382-0.689 0.594-0.99l0.006-0.010c0.493-0.717 1.344-1.227 2.346-1.313 1.68-0.145 3.152 0.959 3.287 2.465 0.135 1.507-1.117 2.846-2.798 2.991-0.087 0.008-0.189 0.012-0.292 0.012-0.255 0-0.503-0.028-0.742-0.081l0.023 0.004-0.009 0.003c-1.232-0.257-2.017-1.155-2.404-1.558l-1.617 2.974c0 0 0.503 0.506 0.847 0.759 0.346 0.253 0.791 0.501 1.146 0.656 0.836 0.372 1.812 0.588 2.838 0.589h0c0.121 0 0.097 0 0.222-0.005 1.844-0.077 3.489-0.784 4.675-1.995 1.123-1.15 1.733-2.463 1.738-4.018v-0.047z"/>
</svg>