<svg xmlns="http://www.w3.org/2000/svg" version="1.1" width="24" height="24" viewBox="0 0 24 24">
<path d="M12 0c-1.66 0-3.21 0.313-4.66 0.938-1.492 0.631-2.767 1.496-3.841 2.563l0.001-0.001c-1.066 1.073-1.932 2.348-2.533 3.762l-0.030 0.078c-0.624 1.45-0.937 3-0.937 4.66s0.313 3.21 0.938 4.66c0.631 1.492 1.496 2.767 2.563 3.841l-0.001-0.001c1.073 1.065 2.348 1.929 3.761 2.53l0.079 0.030c1.45 0.63 3 0.94 4.66 0.94s3.21-0.31 4.66-0.94c1.492-0.631 2.767-1.495 3.841-2.561l-0.001 0.001c1.065-1.073 1.929-2.348 2.53-3.761l0.030-0.079c0.63-1.45 0.94-3 0.94-4.66s-0.31-3.21-0.94-4.66c-0.631-1.492-1.495-2.767-2.561-3.841l0.001 0.001c-1.073-1.066-2.348-1.932-3.762-2.533l-0.078-0.030c-1.45-0.624-3-0.937-4.66-0.937zM8.88 1.5c0.949 0.551 1.767 1.187 2.489 1.919l0.001 0.001c0.717 0.716 1.345 1.52 1.869 2.394l0.031 0.056c0.53 0.9 0.93 1.86 1.23 2.9 0.28 1.030 0.43 2.11 0.43 3.23s-0.15 2.2-0.43 3.23c-0.305 1.102-0.725 2.066-1.259 2.953l0.029-0.053c-0.555 0.93-1.183 1.734-1.9 2.45l-0 0c-0.75 0.75-1.58 1.38-2.49 1.92-0.936-0.555-1.743-1.191-2.458-1.918l-0.002-0.002c-0.725-0.716-1.36-1.52-1.889-2.395l-0.031-0.055c-0.491-0.834-0.898-1.799-1.171-2.818l-0.019-0.082c-0.286-0.96-0.45-2.063-0.45-3.204 0-0.009 0-0.018 0-0.028v0.001c0-1.12 0.14-2.2 0.45-3.23 0.292-1.101 0.699-2.066 1.22-2.955l-0.030 0.055c0.56-0.93 1.195-1.734 1.919-2.449l0.001-0.001c0.75-0.75 1.58-1.38 2.46-1.92zM8.86 9.23c-0.77 0-1.42 0.27-1.96 0.81-0.5 0.486-0.81 1.165-0.81 1.916 0 0.016 0 0.031 0 0.046l-0-0.002c0 0.77 0.27 1.42 0.81 1.96s1.19 0.81 1.96 0.81 1.42-0.27 1.96-0.81 0.81-1.19 0.81-1.96-0.27-1.42-0.81-1.96c-0.486-0.5-1.165-0.81-1.916-0.81-0.016 0-0.031 0-0.046 0l0.002-0z"/>
</svg>