<svg xmlns="http://www.w3.org/2000/svg" version="1.1" width="24" height="24" viewBox="0 0 24 24">
<path d="M12 0c6.6 0 12 5.4 12 12s-5.4 12-12 12-12-5.4-12-12 5.4-12 12-12zM14.94 14.34c1.32-1.68 1.14-4.080-0.54-5.34-1.62-1.26-4.020-0.96-5.4 0.72-1.32 1.68-1.14 4.080 0.54 5.34s4.080 0.96 5.4-0.72zM8.52 22.14c0.72 0.3 2.28 0.6 3.060 0.6l5.22-7.56c1.68-2.52 1.26-5.94-1.080-7.8-2.1-1.68-5.040-1.62-7.14 0l-7.26 5.58c0.18 1.92 0.72 2.88 0.72 2.94l4.14-4.5c-0.3 1.98 0.42 4.020 2.1 5.28 1.44 1.14 3.18 1.44 4.86 1.080z"/>
</svg>