<svg xmlns="http://www.w3.org/2000/svg" version="1.1" width="24" height="24" viewBox="0 0 24 24">
<path d="M4.252 23.936c-0.209-0.097-0.374-0.259-0.471-0.46l-0.003-0.006c-0.080-0.167-0.086-0.222-0.086-0.653 0-0.93 0.15-2.428 0.362-3.587 0.698-3.827 2.373-7.127 4.915-9.671l0.574-0.58-0.074-0.293c-0.14-0.561-0.079-1.306 0.149-1.826 0.25-0.564 0.784-1.142 1.3-1.416 0.134-0.071 0.25-0.127 0.253-0.123 0.008 0 0.066-0.021 0.137-0.049 0.070-0.030 0.153-0.061 0.189-0.068 0.034-0.006 0.095-0.023 0.14-0.034 0.201-0.049 0.433-0.078 0.671-0.078s0.469 0.028 0.69 0.082l-0.020-0.004c0.038 0.007 0.11 0.031 0.165 0.052 0.050 0.020 0.091 0.027 0.091 0.020 0-0.010 0.172 0.072 0.375 0.177 0.61 0.315 1.030 0.75 1.317 1.362 0.222 0.465 0.273 0.704 0.271 1.248-0.004 0.398-0.017 0.506-0.095 0.764-0.182 0.605-0.45 1.004-0.965 1.456-0.117 0.1-0.25 0.202-0.295 0.23-0.136 0.078-0.314 0.167-0.495 0.25l-0.045 0.018c-0.011 0.005-0.040 0.019-0.068 0.030-0.027 0.013-0.091 0.026-0.144 0.036-0.048 0.007-0.090 0.020-0.131 0.036l0.004-0.001c-0.014 0.010-0.119 0.026-0.23 0.038-0.111 0.010-0.255 0.023-0.32 0.033-0.148 0.021-0.609-0.031-0.872-0.096-0.238-0.071-0.445-0.16-0.638-0.27l0.015 0.008-0.26-0.137-0.11 0.080c-0.146 0.114-0.835 0.85-1.186 1.27-2.335 2.805-3.652 6.45-3.827 10.62-0.027 0.628-0.052 0.913-0.088 1.023-0.072 0.193-0.28 0.419-0.472 0.512-0.11 0.045-0.237 0.072-0.37 0.072-0.127 0-0.248-0.024-0.359-0.067l0.007 0.002zM12.105 16.056c-0.091-0.021-0.196-0.034-0.304-0.038l-0.003-0c-0.305-0.013-0.593-0.051-0.873-0.111l0.034 0.006c-0.038-0.007-0.126-0.021-0.2-0.035-0.062-0.007-0.118-0.020-0.171-0.039l0.005 0.002c-0.035-0.015-0.076-0.026-0.119-0.034l-0.003-0c-0.091-0.021-0.168-0.045-0.242-0.073l0.012 0.004c-0.043-0.022-0.092-0.038-0.144-0.048l-0.003-0c-0.113-0.028-0.207-0.057-0.298-0.092l0.018 0.006c-0.078-0.031-0.172-0.060-0.269-0.080l-0.011-0.002c-0.025 0.017-0.34-0.208-0.418-0.3-0.212-0.253-0.29-0.643-0.182-0.903 0.148-0.343 0.504-0.6 0.849-0.609 0.116-0.003 0.23 0.010 0.256 0.034 0.028 0.020 0.050 0.031 0.050 0.017 0-0.013 0.036 0.004 0.083 0.035s0.086 0.044 0.086 0.031c0-0.014 0.022-0.012 0.045 0.007 0.044 0.037 0.335 0.136 0.462 0.163 0.040 0.007 0.089 0.022 0.106 0.031s0.080 0.029 0.143 0.037c0.065 0.006 0.246 0.042 0.407 0.073 0.315 0.058 1.33 0.089 1.54 0.044 0.064-0.014 0.197-0.035 0.289-0.044 0.096-0.007 0.195-0.024 0.223-0.035s0.1-0.024 0.154-0.034c0.14-0.024 0.287-0.057 0.393-0.095 0.027-0.011 0.12-0.038 0.203-0.063 0.084-0.020 0.191-0.057 0.238-0.077 0.049-0.019 0.11-0.038 0.139-0.045 0.023-0.005 0.23-0.1 0.46-0.213 0.925-0.46 1.693-1.11 2.278-1.903l0.012-0.017c0.275-0.394 0.699-1.232 0.843-1.677 0.721-2.254 0.147-4.733-1.478-6.372-0.645-0.627-1.421-1.123-2.283-1.442l-0.045-0.015c-0.106-0.040-0.244-0.082-0.384-0.117l-0.028-0.006c-0.103-0.019-0.186-0.039-0.268-0.062l0.022 0.005c-0.038-0.012-0.101-0.029-0.165-0.044l-0.023-0.004c-0.135-0.029-0.298-0.052-0.465-0.065l-0.014-0.001c-0.102-0.007-0.195-0.020-0.286-0.039l0.013 0.002c-0.055-0.020-0.855-0.013-1.060 0.007-0.243 0.020-0.396 0.044-0.564 0.077-0.059 0.015-0.146 0.033-0.233 0.049l-0.024 0.003-0.171 0.038-0.137 0.034c-0.039 0.009-0.072 0.020-0.104 0.034l0.004-0.002c-0.022 0.002-0.042 0.012-0.057 0.027l0-0c-0.015 0.016-0.059 0.027-0.099 0.027-0.043 0.001-0.083 0.016-0.114 0.041l0-0c-0.023 0.024-0.040 0.028-0.040 0.013 0-0.017-0.024-0.010-0.050 0.015-0.030 0.023-0.052 0.030-0.052 0.020 0-0.014-0.036-0.005-0.076 0.020-0.045 0.020-0.093 0.045-0.113 0.048-0.071 0.014-0.729 0.348-0.93 0.48-0.462 0.29-0.627 0.423-1.054 0.85-0.533 0.53-0.818 0.924-1.145 1.575-0.427 0.825-0.677 1.801-0.677 2.836 0 0.387 0.035 0.766 0.102 1.133l-0.006-0.038c0.060 0.359 0.143 0.65 0.304 1.088 0.061 0.163 0.068 0.23 0.044 0.367-0.098 0.55-0.707 0.957-1.152 0.772-0.065-0.026-0.12-0.045-0.12-0.033 0 0.037-0.287-0.2-0.376-0.312-0.080-0.121-0.15-0.26-0.201-0.407l-0.004-0.013c-0.469-1.301-0.55-2.946-0.216-4.368 0.309-1.238 0.858-2.319 1.599-3.238l-0.012 0.016c0.315-0.39 0.991-1.053 1.358-1.337 0.274-0.21 0.899-0.622 0.944-0.622 0.007 0 0.13-0.069 0.273-0.155 0.073-0.045 0.158-0.091 0.246-0.131l0.014-0.005c0 0.010 0.065-0.018 0.147-0.058 0.079-0.042 0.16-0.080 0.178-0.082 0.020-0.004 0.096-0.035 0.171-0.065 0.075-0.036 0.136-0.055 0.14-0.048 0 0.005 0.027-0.007 0.058-0.035 0.034-0.024 0.060-0.034 0.060-0.020s0.023 0.008 0.050-0.017c0.027-0.024 0.050-0.030 0.050-0.018 0 0.014 0.025 0.007 0.052-0.017s0.051-0.030 0.051-0.016 0.025 0.006 0.052-0.018c0.027-0.023 0.050-0.033 0.050-0.020 0 0.010 0.043 0.003 0.096-0.018 0.052-0.020 0.12-0.043 0.156-0.050 0.054-0.015 0.163-0.040 0.246-0.061 0.041-0.010 0.074-0.021 0.107-0.034l-0.006 0.002c0.038-0.010 0.124-0.030 0.189-0.040s0.263-0.042 0.437-0.068c0.237-0.038 0.537-0.050 1.215-0.043 0.492 0.007 0.945 0.021 0.998 0.031 0.058 0.012 0.172 0.031 0.254 0.041 0.086 0.015 0.214 0.038 0.29 0.059 0.079 0.016 0.192 0.040 0.257 0.052 0.057 0.006 0.109 0.019 0.158 0.038l-0.004-0.001c0.023 0.016 0.051 0.028 0.081 0.034l0.002 0c0.1 0.024 0.16 0.040 0.17 0.045 0.006 0.007 0.017 0.010 0.035 0.012l0.264 0.090c0.134 0.044 0.246 0.084 0.255 0.084s0.050 0.022 0.086 0.043c0.037 0.020 0.080 0.037 0.096 0.040 0.014 0 0.072 0.028 0.127 0.056 0.057 0.030 0.102 0.046 0.102 0.037 0-0.024 0.742 0.379 0.949 0.516 0.105 0.072 0.22 0.148 0.252 0.164 0.347 0.212 0.861 0.643 1.283 1.077 1.060 1.087 1.821 2.472 2.145 4.017l0.009 0.053c0.082 0.414 0.096 0.555 0.108 1.334 0.015 0.998-0.024 1.392-0.215 2.14-0.402 1.574-1.23 2.908-2.541 4.098-0.36 0.306-0.759 0.597-1.178 0.857l-0.042 0.025c-0.18 0.108-1.044 0.537-1.044 0.52 0-0.010-0.033 0.004-0.074 0.028-0.045 0.024-0.086 0.045-0.096 0.045s-0.125 0.040-0.258 0.084c-0.128 0.045-0.246 0.086-0.255 0.086l-0.069 0.028c-0.040 0.017-0.086 0.030-0.134 0.037l-0.003 0c-0.167 0.035-0.24 0.052-0.269 0.069-0.042 0.018-0.091 0.031-0.142 0.037l-0.003 0c-0.114 0.016-0.207 0.033-0.298 0.054l0.025-0.005c-0.205 0.042-0.45 0.073-0.7 0.088l-0.015 0.001c-0.575 0.045-0.875 0.057-0.889 0.040z"/>
</svg>