<svg xmlns="http://www.w3.org/2000/svg" version="1.1" width="24" height="24" viewBox="0 0 24 24">
<path d="M20.254 11.421c-0.002-0-0.005-0-0.007-0-0.447 0-0.81 0.363-0.81 0.81 0 0.020 0.001 0.039 0.002 0.059l-0-0.003c-0 0.008-0 0.018-0 0.028 0 0.459 0.369 0.832 0.827 0.839h0.001c0 0 0 0 0.001 0 0.451 0 0.816-0.365 0.816-0.816 0-0.018-0.001-0.036-0.002-0.053l0 0.002c0-0.008 0-0.018 0-0.028 0-0.459-0.369-0.832-0.827-0.838h-0.001zM13.744 11.421c-0.002-0-0.005-0-0.007-0-0.447 0-0.81 0.363-0.81 0.81 0 0.020 0.001 0.039 0.002 0.059l-0-0.003c-0 0.008-0 0.018-0 0.028 0 0.459 0.369 0.832 0.827 0.839h0.001c0 0 0 0 0.001 0 0.451 0 0.816-0.365 0.816-0.816 0-0.018-0.001-0.036-0.002-0.053l0 0.002c0-0.008 0-0.018 0-0.028 0-0.459-0.369-0.832-0.827-0.838h-0.001zM6.733 11.369c-0.008-0-0.018-0-0.027-0-0.253 0-0.478 0.12-0.622 0.306l-0.001 0.002c-0.115 0.159-0.184 0.359-0.184 0.574 0 0.057 0.005 0.113 0.014 0.167l-0.001-0.006 1.477-0.612c-0.111-0.256-0.361-0.431-0.652-0.431-0.001 0-0.002 0-0.003 0h0zM0 8v8h24v-8zM5.006 13.827h-2.779v-4h0.857v3.224h1.922zM6.823 13.206c0.008 0 0.017 0 0.027 0 0.33 0 0.63-0.124 0.858-0.327l-0.001 0.001 0.534 0.411c-0.366 0.363-0.87 0.588-1.427 0.588-0.001 0-0.003 0-0.004 0h0c-0.047 0.005-0.102 0.008-0.157 0.008-0.88 0-1.594-0.714-1.594-1.594s0.714-1.594 1.594-1.594c0.022 0 0.045 0 0.067 0.001l-0.003-0c0.023-0.001 0.050-0.002 0.077-0.002 0.45 0 0.856 0.193 1.138 0.501l0.001 0.001c0.195 0.235 0.328 0.529 0.369 0.852l0.001 0.008-2.162 0.9c0.166 0.153 0.389 0.247 0.634 0.247 0.017 0 0.034-0 0.050-0.001l-0.002 0zM11.706 13.827h-0.845v-1.752c-0.015-0.363-0.313-0.652-0.678-0.652-0.012 0-0.024 0-0.035 0.001l0.002-0c-0.012-0.001-0.026-0.001-0.040-0.001-0.362 0-0.656 0.291-0.66 0.652v1.752h-0.843v-3.079h0.846v0.441c0.234-0.299 0.595-0.49 1-0.493h0c0.020-0.001 0.043-0.002 0.066-0.002 0.654 0 1.185 0.531 1.185 1.185 0 0.014-0 0.027-0.001 0.041l0-0.002zM13.69 13.879c-0.85-0.037-1.526-0.735-1.526-1.592 0-0.88 0.713-1.593 1.593-1.593s1.593 0.713 1.593 1.593v0c-0.004 0.881-0.719 1.593-1.6 1.593-0.021 0-0.042-0-0.063-0.001l0.003 0zM16.49 13.826l-1.267-3.078h0.966l0.764 2.1 0.764-2.1h0.966l-1.267 3.078zM20.201 13.879c-0.85-0.037-1.526-0.735-1.526-1.592 0-0.88 0.713-1.593 1.593-1.593s1.593 0.713 1.593 1.593v0c-0.004 0.881-0.719 1.593-1.6 1.593-0.021 0-0.042-0-0.063-0.001l0.003 0zM22.201 13.461h-0.141v0.366h-0.085v-0.366h-0.137v-0.077h0.362zM22.742 13.827h-0.082v-0.315l-0.137 0.213h-0.013l-0.136-0.213v0.315h-0.082v-0.443h0.090l0.134 0.21 0.134-0.21h0.088z"/>
</svg>