<svg xmlns="http://www.w3.org/2000/svg" version="1.1" width="24" height="24" viewBox="0 0 24 24">
<path d="M0 4.124c0-0.204 0.021-0.401 0.060-0.595l1.956 1.734 2.144-2.38-1.914-1.703c0.259-0.072 0.53-0.114 0.812-0.114 1.681 0.002 3.044 1.358 3.058 3.036v0.022c0 0.152-0.012 0.304-0.033 0.45l2.385 2.112c-0.859 0.667-1.542 1.519-1.996 2.498l-0.017 0.042-2.473-2.189c-0.276 0.092-0.594 0.145-0.924 0.145h-0c-1.688-0.001-3.057-1.37-3.058-3.058v-0zM20.942 16.818c-0.306 0-0.601 0.045-0.88 0.129l-2.308-2.044c-0.4 1.070-1.022 1.977-1.814 2.701l-0.005 0.005 1.993 1.765c-0.027 0.15-0.043 0.324-0.044 0.501v0.001c0.002 1.689 1.371 3.057 3.060 3.057 0.312 0 0.613-0.047 0.897-0.133l-0.022 0.006-1.992-1.77 2.14-2.365 1.981 1.76c0.034-0.181 0.052-0.364 0.052-0.554v-0.026c-0.014-1.678-1.377-3.032-3.057-3.032-0 0-0.001 0-0.001 0h0zM17.545 9.226l2.473-2.189c0.292 0.093 0.601 0.145 0.924 0.145 1.688-0.002 3.056-1.371 3.056-3.060 0-0.209-0.021-0.414-0.061-0.612l0.003 0.020-1.956 1.734-2.144-2.38 1.914-1.703c-0.243-0.071-0.522-0.113-0.811-0.114h-0.001c-1.681 0.002-3.044 1.358-3.058 3.036v0.022c0 0.152 0.012 0.304 0.033 0.45l-2.385 2.112c0.859 0.666 1.542 1.518 1.996 2.498l0.017 0.042zM6.245 14.903l-2.307 2.044c-0.264-0.082-0.567-0.13-0.881-0.13-1.68 0-3.043 1.355-3.057 3.031v0.027c0 0.19 0.018 0.373 0.052 0.554l1.982-1.76 2.14 2.365-1.993 1.77c0.262 0.081 0.563 0.128 0.875 0.128 1.689 0 3.058-1.368 3.060-3.057v-0c-0.001-0.178-0.017-0.352-0.047-0.52l0.003 0.018 1.993-1.765c-0.798-0.728-1.42-1.635-1.804-2.659l-0.016-0.047zM15.216 17.56c0.111 0.167 0.178 0.372 0.178 0.592 0 0.594-0.482 1.076-1.076 1.076s-1.076-0.482-1.076-1.076c0-0.059 0.005-0.118 0.014-0.175l-0.001 0.006h-0.192c0.008 0.049 0.012 0.106 0.012 0.164 0 0.594-0.482 1.076-1.076 1.076s-1.076-0.482-1.076-1.076c0-0.058 0.005-0.114 0.013-0.17l-0.001 0.006h-0.15c0.006 0.042 0.009 0.091 0.009 0.141 0 0.607-0.489 1.099-1.095 1.105h-0.001c-0.604 0-1.094-0.5-1.094-1.115 0-0.21 0.057-0.405 0.156-0.572-1.493-1.142-2.474-3.051-2.474-5.213 0-3.497 2.559-6.332 5.713-6.332s5.713 2.835 5.713 6.332c0 2.173-0.991 4.091-2.498 5.23zM11.022 11.646c-0.14-0.263-0.328-0.484-0.554-0.656l-0.005-0.004c-0.262-0.162-0.578-0.26-0.917-0.264h-0.001c-0.113 0-0.223 0.013-0.329 0.038l0.010-0.002c-0.405 0.050-0.747 0.327-0.983 0.647-0.207 0.257-0.368 0.569-0.372 0.905-0.032 0.278 0.024 0.556 0.075 0.828 0.066 0.322 0.293 0.584 0.55 0.774 0.119 0.095 0.29 0.226 0.44 0.116 0.1-0.134 0.016-0.33 0.107-0.478 0.036-0.143 0.13-0.26 0.255-0.325l0.003-0.001c0.263-0.132 0.527-0.262 0.808-0.355 0.228-0.067 0.416-0.219 0.61-0.349 0.255-0.197 0.424-0.558 0.303-0.874zM12.018 13.971c-0.279-0.007-0.63 1.237-0.574 1.78 0.175 0.72 0.237-0.505 0.574-0.506 0.323 0.014 0.275 1.255 0.53 0.504 0.078-0.5-0.224-1.77-0.53-1.778zM16.054 13.138c0.051-0.272 0.107-0.55 0.075-0.828-0.004-0.336-0.165-0.648-0.372-0.905-0.236-0.32-0.578-0.596-0.983-0.647-0.096-0.023-0.206-0.036-0.319-0.036h-0c-0.32-0.001-0.644 0.1-0.918 0.264-0.235 0.171-0.42 0.406-0.559 0.66-0.121 0.316 0.048 0.677 0.303 0.874 0.194 0.13 0.382 0.282 0.61 0.35 0.28 0.092 0.545 0.222 0.808 0.354 0.128 0.066 0.222 0.183 0.257 0.323l0.001 0.003c0.091 0.147 0.007 0.344 0.106 0.478 0.151 0.11 0.322-0.021 0.44-0.116 0.258-0.19 0.485-0.452 0.551-0.774z"/>
</svg>