<svg xmlns="http://www.w3.org/2000/svg" version="1.1" width="24" height="24" viewBox="0 0 24 24">
<path d="M13.86 1.989c-0.474-0.483-1.133-0.783-1.863-0.783s-1.389 0.299-1.863 0.782l-0 0-9.366 9.538c-0.475 0.49-0.768 1.16-0.768 1.898s0.293 1.407 0.768 1.898l-0.001-0.001 6.684 6.808c0.46 0.412 1.071 0.663 1.74 0.664h5.613c0.734-0.001 1.397-0.303 1.871-0.79l0.001-0.001 6.554-6.675c0.476-0.49 0.769-1.16 0.769-1.898s-0.293-1.407-0.769-1.898l0.001 0.001zM13.6 19.411l-0.935 0.95c-0.068 0.070-0.163 0.114-0.268 0.114 0 0 0 0 0 0h-0.8c-0.095-0.001-0.182-0.037-0.247-0.096l0 0-0.954-0.97c-0.068-0.070-0.11-0.166-0.11-0.271s0.042-0.201 0.11-0.271l-0 0 1.337-1.36c0.067-0.069 0.161-0.112 0.265-0.112s0.198 0.043 0.265 0.112l0 0 1.337 1.361c0.068 0.070 0.11 0.166 0.11 0.271s-0.042 0.202-0.111 0.272l0-0zM13.6 13.7l-3.737 3.808c-0.068 0.069-0.162 0.111-0.266 0.111-0.001 0-0.001 0-0.002 0h-0.799c-0.001 0-0.002 0-0.002 0-0.095 0-0.182-0.035-0.248-0.093l0 0-0.951-0.97c-0.068-0.070-0.11-0.166-0.11-0.272s0.042-0.202 0.11-0.272l-0 0 4.139-4.214c0.068-0.069 0.162-0.111 0.265-0.111s0.198 0.043 0.265 0.111l0 0 1.337 1.362c0.068 0.069 0.109 0.164 0.109 0.269 0 0.106-0.042 0.201-0.111 0.271l0-0zM13.6 7.993l-6.54 6.66c-0.068 0.070-0.162 0.113-0.267 0.113-0 0-0.001 0-0.001 0h-0.8c-0 0-0.001 0-0.001 0-0.095 0-0.182-0.036-0.248-0.094l0 0-0.953-0.972c-0.068-0.070-0.109-0.165-0.109-0.27s0.042-0.2 0.109-0.27l-0 0 6.943-7.070c0.068-0.069 0.162-0.111 0.265-0.111s0.198 0.043 0.265 0.111l0 0 1.337 1.36c0.068 0.070 0.11 0.166 0.11 0.271s-0.042 0.202-0.111 0.272l0-0z"/>
</svg>