<svg xmlns="http://www.w3.org/2000/svg" version="1.1" width="24" height="24" viewBox="0 0 24 24">
<path d="M12 0c9.601 0 12 2.399 12 12s-2.399 12-12 12-12-2.399-12-12 2.399-12 12-12zM10.031 18.564c2.524 0.003 4.604-2.070 4.609-4.595 0-2.521-2.074-4.595-4.595-4.595s-4.595 2.075-4.595 4.595c0 2.516 2.065 4.588 4.581 4.595zM18.375 18.375v-12.75h-12.75v2.247h10.498v10.503zM10.031 11.627c1.294 0.001 2.342 1.049 2.342 2.343s-1.049 2.343-2.343 2.343c-0 0-0.001 0-0.001 0h0c-1.294-0.001-2.342-1.049-2.342-2.343s1.049-2.343 2.343-2.343c0 0 0.001 0 0.001 0h-0z"/>
</svg>