<svg xmlns="http://www.w3.org/2000/svg" version="1.1" width="24" height="24" viewBox="0 0 24 24">
<path d="M17.295 10.554c-0.072-0-0.139-0.020-0.197-0.054l0.002 0.001-1.527-0.894c-0.115-0.069-0.191-0.192-0.192-0.334v-1.765c0-0 0-0 0-0 0-0.142 0.077-0.267 0.191-0.334l0.002-0.001 1.534-0.886c0.055-0.033 0.122-0.052 0.192-0.052s0.137 0.019 0.194 0.053l-0.002-0.001 1.538 0.88c0.117 0.068 0.195 0.193 0.195 0.336v1.78c0 0 0 0 0 0.001 0 0.142-0.076 0.266-0.19 0.333l-0.002 0.001-1.535 0.885c-0.055 0.032-0.121 0.051-0.191 0.051-0.005 0-0.009-0-0.014-0l0.001 0zM16.155 9.051l1.146 0.67 1.148-0.663v-1.333l-1.15-0.659-1.15 0.665zM5.252 13.545c-0.003 0-0.006 0-0.009 0-0.214 0-0.387-0.173-0.387-0.387 0-0.146 0.081-0.273 0.2-0.339l0.002-0.001 1.344-0.774c0.061-0.043 0.138-0.069 0.22-0.069 0.214 0 0.387 0.173 0.387 0.387 0 0.153-0.089 0.286-0.219 0.349l-0.002 0.001-1.344 0.777c-0.055 0.034-0.121 0.055-0.192 0.056h-0zM4.96 15.886c-0.004 0-0.009 0-0.014 0-0.213 0-0.385-0.172-0.385-0.385 0-0.148 0.084-0.277 0.207-0.341l0.002-0.001 2.578-1.477c0.060-0.041 0.135-0.065 0.215-0.065 0.214 0 0.387 0.173 0.387 0.387 0 0.152-0.088 0.284-0.215 0.347l-0.002 0.001-2.585 1.483c-0.054 0.031-0.118 0.050-0.187 0.051h-0zM5.377 17.812c-0.002 0-0.003 0-0.005 0-0.214 0-0.387-0.173-0.387-0.387 0-0.146 0.081-0.273 0.2-0.339l0.002-0.001 3.117-1.744c0.060-0.040 0.134-0.064 0.214-0.064 0.214 0 0.387 0.173 0.387 0.387 0 0.154-0.090 0.287-0.221 0.349l-0.002 0.001-3.11 1.744c-0.056 0.034-0.123 0.054-0.195 0.054h-0zM12.956 1.99l-1.913-1.163-9.668 5.594 0.019 1.599 3.657 2.11 2.389-1.366 0.522-2.541c0.024-0.111 0.092-0.202 0.184-0.257l0.002-0.001 8.414-4.845c0.056-0.032 0.122-0.051 0.193-0.051s0.138 0.019 0.195 0.052l-0.002-0.001 6.278 3.635c0.117 0.067 0.194 0.191 0.194 0.333 0 0.001 0 0.001 0 0.002v-0l-0.012 7.268c-0 0.143-0.078 0.267-0.193 0.334l-0.002 0.001-8.324 4.78c-0.055 0.032-0.122 0.051-0.193 0.051-0.037 0-0.073-0.005-0.108-0.015l0.003 0.001-2.526-0.714-2.368 1.378v4.197l1.385 0.8 9.667-5.593v-2.248l0.77-0.503v2.972c0 0.001 0 0.002 0 0.003 0 0.141-0.076 0.265-0.189 0.332l-0.002 0.001-10.052 5.815c-0.055 0.033-0.122 0.052-0.193 0.052s-0.138-0.019-0.195-0.053l0.002 0.001-1.774-1.019c-0.117-0.068-0.194-0.192-0.194-0.334v-4.642c0-0.141 0.076-0.265 0.19-0.332l0.002-0.001 2.702-1.572c0.056-0.033 0.123-0.053 0.194-0.053 0.038 0 0.074 0.005 0.108 0.015l-0.003-0.001 2.532 0.716 7.995-4.587 0.012-6.82-5.893-3.41-8.070 4.652-0.526 2.528c-0.024 0.111-0.092 0.202-0.185 0.256l-0.002 0.001-2.727 1.569c-0.055 0.032-0.122 0.051-0.193 0.051s-0.138-0.019-0.195-0.052l0.002 0.001-4.040-2.326c-0.115-0.067-0.192-0.189-0.194-0.33v-0l-0.032-2.053c-0-0.001-0-0.003-0-0.005 0-0.142 0.076-0.265 0.19-0.332l0.002-0.001 10.062-5.815c0.056-0.034 0.124-0.054 0.197-0.054s0.141 0.020 0.199 0.055l-0.002-0.001 2.471 1.502z"/>
</svg>