<svg xmlns="http://www.w3.org/2000/svg" version="1.1" width="24" height="24" viewBox="0 0 24 24">
<path d="M22.999 10.626c-0.043-0.405-0.106-0.873-0.234-1.384s-0.341-1.065-0.618-1.661c-0.298-0.575-0.66-1.193-1.15-1.768-0.192-0.234-0.405-0.447-0.618-0.681 0.341-1.342-0.405-2.513-0.405-2.513-1.299-0.085-2.108 0.405-2.406 0.618-0.043-0.021-0.106-0.043-0.149-0.064-0.213-0.085-0.447-0.17-0.681-0.256-0.234-0.064-0.469-0.149-0.703-0.192-0.234-0.064-0.49-0.106-0.745-0.149-0.043 0-0.085-0.021-0.128-0.021-0.554-1.789-2.172-2.555-2.172-2.555-1.853 1.193-2.215 2.79-2.215 2.79s0 0.043-0.021 0.085c-0.106 0.021-0.192 0.064-0.298 0.085-0.128 0.043-0.277 0.085-0.405 0.149s-0.277 0.106-0.405 0.17c-0.277 0.128-0.532 0.256-0.809 0.405-0.293 0.165-0.537 0.32-0.771 0.487l0.026-0.018c-0.043-0.021-0.064-0.043-0.064-0.043-2.492-0.958-4.706 0.192-4.706 0.192-0.192 2.662 1.001 4.323 1.235 4.621-0.064 0.17-0.106 0.319-0.17 0.49-0.173 0.528-0.315 1.154-0.399 1.799l-0.006 0.054c-0.021 0.085-0.021 0.192-0.043 0.277-2.3 1.129-2.981 3.471-2.981 3.471 1.917 2.215 4.174 2.343 4.174 2.343 0.306 0.55 0.63 1.024 0.993 1.465l-0.013-0.017c0.149 0.192 0.319 0.362 0.49 0.554-0.703 2.002 0.106 3.684 0.106 3.684 2.151 0.085 3.556-0.937 3.854-1.171l0.639 0.192c0.66 0.17 1.342 0.277 2.002 0.298h0.873c1.001 1.448 2.79 1.64 2.79 1.64 1.256-1.342 1.342-2.641 1.342-2.939v-0.128c0.256-0.192 0.511-0.383 0.767-0.596 0.511-0.447 0.937-0.98 1.32-1.533 0.043-0.043 0.064-0.106 0.106-0.149 1.427 0.085 2.428-0.894 2.428-0.894-0.234-1.491-1.086-2.215-1.256-2.343l-0.063-0.063c0-0.085 0.021-0.17 0.021-0.277 0.021-0.17 0.021-0.319 0.021-0.49v-0.618c0-0.043 0-0.085-0.021-0.128l-0.043-0.256c-0.021-0.17-0.064-0.319-0.085-0.49-0.162-0.677-0.411-1.274-0.74-1.817l0.016 0.028c-0.346-0.553-0.748-1.030-1.208-1.443l-0.006-0.005c-0.439-0.39-0.945-0.718-1.496-0.965l-0.037-0.015c-0.49-0.234-1.059-0.399-1.658-0.467l-0.024-0.002c-0.277-0.043-0.575-0.043-0.852-0.043h-0.426c-0.149 0.021-0.298 0.043-0.426 0.064-0.575 0.106-1.107 0.319-1.576 0.596s-0.873 0.639-1.214 1.043c-0.319 0.369-0.578 0.799-0.757 1.27l-0.010 0.029c-0.17 0.447-0.277 0.937-0.298 1.384v0.511c0 0.064 0 0.106 0.021 0.17 0.071 0.688 0.324 1.306 0.71 1.819l-0.007-0.009c0.256 0.341 0.532 0.596 0.852 0.809s0.639 0.362 0.98 0.469 0.66 0.149 0.958 0.128h0.446c0.043 0 0.085-0.021 0.106-0.021 0.043 0 0.064-0.021 0.106-0.021 0.064-0.021 0.149-0.043 0.213-0.064 0.128-0.043 0.256-0.106 0.383-0.149 0.128-0.064 0.234-0.128 0.319-0.192 0.021-0.021 0.064-0.043 0.085-0.064 0.058-0.044 0.095-0.114 0.095-0.191 0-0.057-0.020-0.109-0.053-0.15l0 0c-0.054-0.053-0.127-0.085-0.209-0.085-0.040 0-0.078 0.008-0.112 0.022l0.002-0.001c-0.021 0.021-0.043 0.021-0.085 0.043-0.079 0.041-0.171 0.077-0.267 0.104l-0.010 0.002c-0.106 0.021-0.213 0.064-0.319 0.085-0.064 0-0.106 0.021-0.17 0.021h-0.361c0 0-0.021 0 0 0h-0.086c-0.022 0-0.064 0-0.085-0.021-0.234-0.043-0.49-0.106-0.724-0.213s-0.469-0.256-0.66-0.447c-0.213-0.192-0.383-0.405-0.532-0.66s-0.234-0.532-0.277-0.809c-0.021-0.149-0.043-0.298-0.021-0.447v-0.128c0 0.021 0 0 0 0v-0.107c0-0.085 0.021-0.149 0.043-0.234 0.12-0.684 0.448-1.276 0.915-1.724l0.001-0.001c0.128-0.128 0.256-0.234 0.405-0.319 0.149-0.106 0.298-0.192 0.447-0.256s0.319-0.128 0.49-0.17c0.17-0.043 0.341-0.085 0.511-0.085 0.085 0 0.17-0.021 0.256-0.021h0.17c0.021 0 0 0 0 0h0.085c0.601 0.052 1.152 0.227 1.639 0.501l-0.020-0.011c0.681 0.383 1.256 0.958 1.597 1.661 0.17 0.341 0.298 0.724 0.362 1.129 0.021 0.106 0.021 0.192 0.043 0.298v0.554c0 0.106-0.021 0.213-0.021 0.319-0.021 0.106-0.021 0.213-0.043 0.319l-0.064 0.319c-0.021 0.106-0.128 0.405-0.192 0.618s-0.362 0.788-0.618 1.129c-0.517 0.702-1.19 1.259-1.971 1.627l-0.032 0.013c-0.405 0.17-0.809 0.319-1.235 0.383-0.192 0.041-0.413 0.064-0.639 0.064-0 0-0 0-0 0h-0.319c0.021 0 0 0 0 0h-0.021c-0.106 0-0.234 0-0.341-0.021-0.469-0.043-0.916-0.128-1.363-0.256s-0.873-0.298-1.278-0.511c-0.83-0.452-1.53-1.037-2.098-1.733l-0.010-0.013c-0.277-0.362-0.532-0.745-0.745-1.15s-0.362-0.831-0.49-1.256c-0.118-0.391-0.194-0.843-0.213-1.31l-0-0.010v-0.66c0-0.213 0.021-0.447 0.064-0.681 0.021-0.234 0.064-0.447 0.106-0.681s0.106-0.447 0.17-0.681 0.277-0.873 0.469-1.278c0.383-0.809 0.873-1.533 1.448-2.108 0.149-0.149 0.298-0.277 0.469-0.405 0.064-0.064 0.213-0.192 0.383-0.298s0.341-0.213 0.532-0.298c0.085-0.043 0.17-0.085 0.277-0.128 0.043-0.021 0.085-0.043 0.149-0.064 0.043-0.021 0.085-0.043 0.149-0.064 0.192-0.085 0.383-0.149 0.575-0.213 0.043-0.021 0.106-0.021 0.149-0.043s0.106-0.021 0.149-0.043 0.192-0.043 0.298-0.085c0.043-0.021 0.106-0.021 0.149-0.043 0.043 0 0.106-0.021 0.149-0.021s0.106-0.021 0.149-0.021l0.17-0.043c0.043 0 0.106-0.021 0.149-0.021 0.064 0 0.106-0.021 0.17-0.021 0.043 0 0.128-0.021 0.17-0.021s0.064 0 0.106-0.021h0.149c0.064 0 0.106 0 0.17-0.021h0.085c0 0 0.021 0 0 0h0.788c0.383 0.021 0.767 0.064 1.129 0.128 0.767 0.136 1.453 0.373 2.084 0.7l-0.040-0.019c0.633 0.309 1.179 0.671 1.671 1.094l-0.010-0.008c0.021 0.021 0.064 0.043 0.085 0.085 0.021 0.021 0.064 0.043 0.085 0.085 0.064 0.043 0.106 0.106 0.17 0.149s0.106 0.106 0.17 0.149c0.043 0.064 0.106 0.106 0.149 0.17 0.553 0.567 1.022 1.22 1.385 1.935l0.021 0.045c0.021 0.021 0.021 0.043 0.043 0.085 0.021 0.021 0.021 0.043 0.043 0.085s0.043 0.106 0.085 0.149c0.021 0.043 0.043 0.106 0.064 0.149s0.043 0.106 0.064 0.149c0.085 0.192 0.149 0.383 0.213 0.575 0.106 0.298 0.17 0.554 0.234 0.767 0.024 0.085 0.101 0.147 0.192 0.149h0c0.106 0 0.17-0.085 0.17-0.192-0.021-0.256-0.021-0.532-0.041-0.852z"/>
</svg>