<svg xmlns="http://www.w3.org/2000/svg" version="1.1" width="24" height="24" viewBox="0 0 24 24">
<path d="M7.172 20.655c-0.914-0.72-1.89-1.41-2.556-2.38-1.402-1.712-2.482-3.694-3.22-5.777-0.446-1.355-0.6-2.808-1.174-4.11-0.602-0.944 0.103-1.978 1.138-2.279 0.46-0.088 1.272-0.523 0.293-0.212-0.878 0.644-0.963-0.585-0.063-0.662 0.615-0.082 0.84-0.585 0.63-1.037-0.659-0.43 1.6-0.903 0.463-1.544-1.182-1.278 1.657-1.524 0.957-0.074-0.167 1.115 1.984-0.204 1.485 1.083 0.507 0.619 1.9 0.141 1.865 1.009 0.74 0.050 0.993 0.672 1.687 0.72 0.72 0.325 2.023 0.58 2.267 1.391-0.713 0.565-2.365-1.166-2.444 0.397 0.215 2.31 0.16 4.689 1.005 6.888 0.4 1.332 1.369 2.38 2.244 3.418 0.837 1.016 1.971 1.73 3.127 2.333 1.014 0.478 2.107 0.795 3.213 0.994 0.448-0.343 1.24-1.617 1.938-1.080 0.033 0.604-1.388 1.263-0.067 1.196 0.776-0.234 1.314 0.6 1.953-0.152 0.588 0.697 2.446-0.446 2.027 0.98-0.566 0.364-1.392 0.144-1.959 0.646-0.935-0.467-1.68 0.418-2.715 0.306-1.15 0.206-2.319 0.29-3.484 0.291-1.912-0.151-3.865-0.215-5.684-0.88-1.025-0.298-2.024-0.882-2.926-1.465zM8.787 21.355c1 0.432 1.979 0.888 3.075 1.026 1.74 0.241 3.537 0.614 5.283 0.274-0.79-0.357-1.608 0.14-2.395-0.255-0.944 0.203-1.957-0.052-2.917-0.177-1.092-0.486-2.27-0.82-3.292-1.452-1.277-0.466 0.66 0.598 1.006 0.685 0.798 0.453-0.878-0.233-1.115-0.421-0.668-0.375-0.754-0.297-0.066 0.084 0.139 0.081 0.276 0.166 0.421 0.236zM6.883 20.009c0.97 0.359-0.004-0.682-0.449-0.622-0.197-0.341-0.752-0.557-0.36-0.74-0.705 0.244-0.738-0.93-1.070-0.763-0.745-0.235-0.29-1.069-1.177-1.58-0.081-0.54-0.882-1.008-1.138-1.822-0.113-0.416-0.905-1.613-0.418-0.5 0.414 1.072 1.143 1.99 1.75 2.907 0.47 0.873 1.027 1.786 1.885 2.33 0.29 0.278 0.568 0.703 0.977 0.79zM4.090 16.942c0.033-0.146 0.177 0.317 0 0zM8.044 20.439c0.215-0.096-0.309-0.12 0 0zM8.57 20.631c-0.054-0.265-0.24 0.148 0 0zM9.23 20.906c0.313-0.299-0.484-0.188 0 0zM10.358 21.536c0.191-0.282-0.61-0.107 0 0zM8.19 20.023c0.487-0.315-0.63-0.004 0 0zM8.684 20.269c-0.014-0.166-0.176 0.075 0 0zM11.154 21.811c0.398 0.25 2.32 0.55 1.116 0.103-0.201 0.042-2.231-0.574-1.116-0.103zM7.233 18.757c-0.039-0.167-0.616-0.185 0 0zM8.383 19.427c0.3-0.209-0.621-0.16 0 0zM9.35 20.020c0.43-0.162-0.697-0.163 0 0zM6.765 18.247c0.466 0.358 1.88 0.046 0.714-0.213-0.53-0.283-1.727-0.476-0.912 0.17zM10.005 20.225c0.194-0.33-0.814-0.189 0 0zM9.021 19.442c1.14 0.323-0.958-0.72-0.281-0.118l0.15 0.068zM10.995 20.583c1.079 0.010-0.975-0.148 0 0zM6.35 17.623c-0.042-0.201-0.266 0.017 0 0zM12.82 21.607c0.029-0.363-0.352 0.27 0 0zM8.191 18.751c-0.065-0.191-0.337-0.008 0 0zM6.452 17.497c0.62-0.037-0.848-0.273 0 0zM4.392 16.165c-0.077-0.297-0.674-0.534 0 0zM9.8 19.6c-0.114-0.13-0.054 0.028 0 0zM13.166 21.665c-0.010-0.197-0.183 0.075 0 0zM9.502 19.292c0.060-0.255-0.529-0.077 0 0zM6.995 17.7c0.46-0.049-0.739-0.311 0 0zM11.237 20.337c0.718-0.285-0.7-0.14 0 0zM9.030 18.84c0.828 0.106-0.985-0.563-0.181-0.060zM11.907 20.608c0.773-0.462 0.518 1.082 1.311 0.13 0.782-0.57-0.675 0.707 0.289 0.103 0.697-0.467 1.727 0.22 2.377 0.445 0.468-0.023 0.923 0.405 1.403 0.145 0.923-0.25-1.806-0.37-1.090-0.81-0.845 0.245-1.47-0.294-1.885-0.835-0.948-0.219-2.044-0.703-2.517-1.542-0.192-0.315 0.279 0.044-0.166-0.47-0.571-0.508-0.856-1.085-1.24-1.702-0.457-0.244-0.51-0.963-0.557-0.024 0.004-0.593-0.553-0.992-0.689-0.826-0.002-0.571 0.596-0.285 0.177-0.707-0.090-0.592-0.387-1.209-0.476-1.877-0.138-0.322-0.020-1.011-0.473-0.282-0.165 0.77-0.055-0.947 0.202-0.38 0.337-0.579-0.12-0.51-0.14-0.43 0.22-0.488 0.14-1.18-0.057-0.916 0.117-0.517 0.185-1.902-0.175-1.656 0.218-0.54 0.414-2.473-0.534-1.736-0.384 0.005-1.048 0.14-1.363 0.296 0.986 0.543-0.099 0.196-0.5 0.11-0.052 0.502-0.45 0.285-0.946 0.29 0.793 0.098-0.386 0.81-0.841 0.534-0.59 0.282 0.51 0.987 0.012 1.205 0.061 0.328-0.905-0.119-0.83 0.64-0.573-0.241-0.078 0.9 0.209 0.514 0.975 0.264 0.686 0.866 0.711 1.437-0.159 0.333-0.785-0.783-0.14-0.731-0.508-0.827-0.562-0.299-0.985 0.085-0.099 0.028 1.079 0.547 0.34 0.803 0.65 0.1 0.668 0.67 0.8 1.030 0.391 0.407 0.311-0.45 0.779 0.040-0.296-0.436-1.567-1.228-0.544-0.974-0.005-0.439-0.185-0.793 0.129-0.784 0.31-0.562-0.325 1.387 0.375 0.672 0.193-0.085 0.241-0.563 0.59 0.045 0.505 0.498 0.182 0.858-0.531 0.403 0.127 0.433 0.954 0.587 0.799 1.265 0.165 0.595 0.395 0.376 0.596 0.342 0.158 0.578 0.247 0.153 0.255-0.123 0.721 0.155 0.552 0.581 0.778 0.88 0.497 0.224-0.712-1.522 0.142-0.526 0.898 0.811 0.337 1.15-0.47 1.020 0.51-0.041 0.675 0.69 1.313 0.664 0.582 0.277 0.976 1.34-0.027 0.897-0.348-0.313-1.579-0.7-0.573-0.104 0.929 0.43 1.666 0.688 2.562 1.227 0.64 0.458 0.918 0.982 1.16 1.086-0.538 0.257-1.623-0.206-0.817-0.348-0.503-0.091-1.068-0.345-0.587 0.28 0.41 0.343 1.45 0.306 1.637 0.345-0.159 0.348-0.43 0.376 0.006 0.403-0.486 0.26 0.156 0.3 0.201 0.447zM10.913 17.8c-0.296-0.31-0.373-0.89-0.053-0.385 0.164 0.066 0.525 0.947 0.053 0.385zM14.151 19.857c0.185-0.011 0.006 0.14 0 0zM10.445 17.041c-0.011-0.468 0.107 0.361 0 0zM10.123 16.608c-0.372-0.719 0.47 0.204 0 0zM6.223 13.916c0.218-0.059 0.107 0.374 0 0zM9.327 15.598c0.134-0.504 0.158 0.424 0 0zM7.134 14.073c-0.155-0.278 0.323 0.261 0 0zM9.016 14.677c-0.352-0.79 0.25-0.432 0.078 0.13zM5.77 12.512c-0.158-0.26-0.418-1.020-0.334-1.252 0.076 0.378 0.804 1.627 0.357 0.518-0.494-0.93 0.59 0.302 0.702 0.534 0.051 0.23-0.305-0.063-0.064 0.478-0.44-0.617-0.26 0.34-0.661-0.278zM4.767 11.821c0.041-0.603 0.23 0.413 0 0zM5.218 11.976c0.215-0.455 0.365 0.634 0 0zM4.133 11.136c-0.374-0.37-0.644-0.713 0.017-0.23 0.255 0.010-0.566-0.778 0.061-0.25 0.66 0.12 0.326 1.082-0.078 0.48zM4.703 11.121c0.217-0.215 0.115 0.212 0 0zM5.053 11.234c-0.328-0.617 0.4 0.258 0 0zM4.356 10.567c-1.086-0.966 1.365 0.506 0.177 0.18zM7.467 12.375c-0.47-0.282-0.124-1.984 0.036-0.82 0.457-0.148-0.025 0.601 0.315 0.594-0.053 0.473-0.206 0.643-0.351 0.226zM8.617 13.055c0.047-0.513 0.098 0.35 0 0zM8.417 12.857c0.053-0.219 0.006 0.258 0 0zM4.57 10.25c-0.697-0.963 2.027 0.973 0.447 0.244-0.165-0.043-0.364-0.059-0.447-0.244zM6.786 11.425c-0.066-0.81 0.147 0.134 0 0zM8.468 12.504c0.13-0.462 0.010 0.305 0 0zM4.676 9.882c0.415-0.088 1.718 0.729 0.521 0.234-0.133-0.148-0.417-0.080-0.521-0.234zM8.236 11.657c0.044-0.829 0.248-0.495 0.002 0.118zM4.985 9.594c0.169-0.248-0.449-1.12 0.089-0.313 0.232 0.185 0.672 0.31 0.283 0.387 0.611 0.539-0.149 0.146-0.372-0.074zM8.060 11.398c0.117-0.944 0.103 0.553 0 0zM4.632 8.722c0.129-0.055 0.068 0.172 0 0zM5.434 9.2c0.206-0.434 0.38 0.483 0 0zM7.697 10.459c-0.002-0.167 0.043 0.242 0 0zM7.566 10.169c-0.314-0.776 0.292 0.41 0 0zM7.373 9.66c-0.053-0.32 0.18 0.403 0 0zM7.687 9.15c-0.216-0.38 0.272-1.674 0.326-0.871-0.227 0.625-0.065 0.975 0.093 0.136 0.293-0.66-0.063 1.303-0.419 0.735zM8.009 7.226c0.094-0.115 0.021 0.139 0 0zM7.471 17.839c-0.128-0.111 0.016 0.071 0 0zM8.581 18.4c0.616 0.159 0.613-0.096 0.055-0.171-0.3-0.28-1.246-0.575-0.399-0.035 0.056 0.142 0.234 0.139 0.344 0.206zM6.389 16.945c0.34 0.253 1.28 0.719 0.484 0.096 0.269-0.312-0.514-0.478-0.254-0.686-0.66-0.404-0.52-0.368-0.058-0.356-0.794-0.354 0.114-0.328 0.071-0.51-0.306-0.060-1.52-0.539-0.805 0.040-0.726-0.37-0.173 0.138-0.392 0.084-0.743-0.202 0.66 0.565-0.118 0.375 0.425 0.337 1.146 0.864 0.18 0.357-0.128 0.183 0.691 0.46 0.892 0.6zM7.549 17.612c1.411 0.454-0.691-0.556 0 0zM13.489 21.21c0.020-0.28-0.192 0.24 0 0zM14.101 21.467c0.325-0.315 0.013 0.503 0.539-0.077 0.006-0.415-0.016-0.66-0.605-0.156-0.162 0.090-0.234 0.473 0.066 0.233zM4.408 15.38c-0.1-0.393-0.7-0.39 0 0zM5.060 15.808c-0.242-0.402-0.864-0.364 0 0zM8.77 18.045c0.362 0.321 1.663 0.236 0.44 0.040-0.182-0.269-1.151-0.204-0.44-0.040zM13.868 21.194c0.558-0.468-0.54 0.208 0 0zM15.028 21.99c0.003-0.15-0.24 0.066 0 0zM15.029 21.78c0.617-0.654-0.598 0.039 0 0zM2.805 14.038c-0.526-0.75-0.327-1.088-0.835-1.7-0.096-0.47-0.87-1.533-0.4-0.406 0.43 0.659 0.558 1.679 1.235 2.106zM14.835 21.572c1.136-0.734-0.465-0.32 0 0zM15.702 21.912c0.57-0.488-0.36-0.102 0 0zM4.215 14.55c0.163-0.242-0.42-0.031 0 0zM15.521 21.679c0.551-0.355-0.126-0.3-0.1 0.032zM8.050 16.97c-0.020-0.24-0.291 0.020 0 0zM8.511 17.236c-0.146-0.297-0.225 0.047 0 0zM16.405 21.92c0.705-0.51-0.428-0.098-0.148 0.096zM16.135 21.79c0.574-0.482-0.607 0.213 0 0zM17.515 22.708c0.386-0.258-0.469-0.083 0 0zM4.569 14.376c0.517 0.116 2.066 1.274 1.152 0.080-0.468-0.138-0.187-1.283-0.665-1.080 0.32 0.535 0.264 0.763-0.409 0.426-0.846-0.413-0.475 0.204-0.31 0.374-0.225 0.052 0.298 0.196 0.232 0.2zM2.213 12.516c0.092-0.383-0.853-2.107-0.446-0.864 0.146 0.26 0.131 0.754 0.446 0.864zM6.537 15.182c-0.266-0.223-0.013-0.032 0 0zM7.193 15.334c0-0.405-0.725-0.164 0 0zM12.875 18.917c-0.108-0.278-0.428-0.006 0 0zM13.148 19.116c-0.040-0.155-0.157 0.030 0 0zM15.401 20.535c0.216-0.16-0.27-0.020 0 0zM3.39 12.816c0.62-0.24-0.664-0.171 0 0zM12.375 18.477c-0.007-0.401-0.395 0.1 0 0zM3.145 12.246c0.398-0.135-0.368-0.089 0 0zM4.3 12.806c-0.007-0.133-0.122 0.050 0 0zM18.39 21.446c0.513-0.104 1.679 0.26 1.867-0.136-0.621-0.015-2.15-0.438-2.222 0.101l0.136 0.022zM4.668 12.898c0.009-0.407-0.317-0.015 0 0zM1.63 10.79c-0.138-0.775-0.525-0.118 0 0zM2.354 10.972c0.009-0.249-0.663-0.224 0 0zM2.768 11.175c-0.12-0.097-0.094 0.122 0 0zM5.373 12.845c0.122-0.112-0.29-0.083 0 0zM2.493 10.717c-0.070-0.585-0.84-0.088 0 0zM1.007 9.753c-0.020-0.27-0.144 0.102 0 0zM1.228 9.586c-0.036-0.32-0.19 0.040 0 0zM2.448 10.315c0.517-0.203-0.94-0.42-0.105-0.039zM18.782 20.404c0.33-0.303-0.42-0.094 0 0zM20.756 21.427c0.132-0.392-0.334 0.051 0 0zM2.573 9.676c0.055-0.379-0.409 0.075 0 0zM0.837 8.513c-0.093-0.535-0.080-1.474 0.812-1.156-1.191 0.236 0.824 1.48 0.57 0.498 0.5 0.024 0.98-0.296 0.716 0.19 0.987-0.109 1.671-0.964 2.624-0.845 0.742-0.098 1.554-0.172 2.354-0.471 0.658-0.048 1.291-0.756 0.93-1.175-0.896-0.076-1.835 0.036-2.827 0.233-1.098 0.228-2.096 0.662-3.205 0.849-1.080 0.145 0.217 0.4-0.092 0.456-0.564 0.196 0.672 0.328-0.073 0.534-0.46-0.088-0.94-0.246-0.743-0.73-1.035 0.133-1.945 0.563-1.127 1.616zM3.331 7.243c0.243-0.894 1.3 0.735 0.398 0.118-0.108-0.080-0.285-0.146-0.398-0.118zM3.378 6.809c0.35-0.26 0.186 0.146 0 0zM3.823 6.817c0.032-0.411 1.018 0.218 0.163 0.148zM4.431 6.572c0.222-0.26 0.064 0.231 0 0zM4.587 6.468c0.37-0.444 2.095-0.283 0.832-0.043-0.338-0.255-0.598 0.15-0.832 0.043zM6.838 6.121c-0.056-1.214 1.118 0.432 0 0zM7.477 6.117c0.233-0.612 0.906-0.245 0.108-0.123 0.017 0.065-0.024 0.316-0.108 0.123zM2.322 9.362c0.697-0.427-0.741-0.37 0 0zM2.837 9.506c0.245-0.26-0.531-0.106 0 0zM1.317 8.426c0.399-0.305-0.471-0.116 0 0zM21.92 21.316c0.012-0.355-0.304 0.16 0 0zM19.827 19.887c0.060-0.409-0.27 0.036 0 0zM22.497 21.454c0.557 0 1.688-0.173 0.475-0.173-0.19 0.030-1.109 0.024-0.475 0.173zM3.29 9.254c0.451-0.030 0.706-0.497-0.087-0.47-1.23-0.127 1.084 0.42-0.158 0.264-0.167 0.11 0.236 0.237 0.245 0.206zM3.688 9.456c-0.048-0.29-0.14 0.154 0 0zM4.158 8.199c0.197-0.243-0.27-0.065 0 0zM2.658 5.691c0.806-0.274 1.907-0.581 2.287 0.135-0.387-0.466-0.156-0.924 0.21-0.243 0.516 0.689 0.775-0.313 0.438-0.545 0.383 0.476 0.819 0.701 0.257 0.030 0.61-0.734-1.223 0.097-1.64 0.088-0.2 0.090-2.071 0.477-1.552 0.535zM3.13 4.788c0.46-0.347 1.588 0.206 0.864-0.345-0.070-0.062-1.586 0.418-0.864 0.345zM4.804 4.857c0.538 0.013-0.231-0.722 0.409-0.389-0.105-0.344-0.746-0.408-1.059-0.545-0.177 0.314 0.36 0.938 0.65 0.934zM3.424 3.337c0.186-0.252-0.326 0.128 0 0zM4.108 3.501c0.866-0.115-0.22-0.373-0.174-0.010zM2.831 2.501c-0.61-0.796 1.146 0.134 0.527-0.7-0.522-0.415-1.023 0.468-0.527 0.7zM10.656 6.716c0.28-0.496-1.155-0.668-0.188-0.175 0.089 0.030 0.069 0.21 0.188 0.175z"/>
</svg>