<svg xmlns="http://www.w3.org/2000/svg" version="1.1" width="24" height="24" viewBox="0 0 24 24">
<path d="M24 20.753v-6.306c-3.285 1.296-7.362 2.556-12.23 3.786-4.534 1.145-8.458 1.97-11.77 2.475v0.045zM0 14.078v5.133c3.738-0.55 7.116-1.206 10.13-1.967 2.962-0.748 5.245-1.475 6.847-2.18 1.602-0.703 2.34-1.297 2.22-1.78-0.107-0.42-0.846-0.635-2.217-0.645-0.703 0.010-1.67 0.060-2.904 0.15-1.236 0.090-2.774 0.234-4.61 0.426-2.85 0.304-5.216 0.537-7.1 0.694-0.896 0.075-1.685 0.132-2.366 0.169zM1.035 17.028c0.060 0 0.114 0.025 0.16 0.070 0.046 0.046 0.070 0.103 0.070 0.166 0 0.066-0.024 0.12-0.070 0.168-0.047 0.045-0.104 0.066-0.164 0.066-0.032 0-0.064-0.006-0.092-0.018-0.030-0.012-0.054-0.030-0.075-0.050-0.023-0.014-0.040-0.044-0.050-0.074 0-0.015-0.016-0.045-0.016-0.090 0-0.060 0.030-0.12 0.075-0.165s0.105-0.060 0.162-0.073zM1.845 17.028c0.063 0 0.117 0.025 0.165 0.070 0.045 0.046 0.066 0.103 0.066 0.166 0 0.066-0.022 0.12-0.067 0.168-0.060 0.045-0.106 0.066-0.18 0.066-0.030 0-0.060-0.006-0.090-0.018s-0.060-0.030-0.076-0.050c-0.030-0.014-0.045-0.044-0.060-0.074-0.015-0.015-0.015-0.045-0.015-0.090 0-0.060 0.014-0.12 0.060-0.165s0.104-0.060 0.164-0.060zM1.035 15.518c0.060 0 0.114 0.022 0.16 0.070 0.046 0.045 0.070 0.1 0.070 0.165s-0.024 0.12-0.070 0.165-0.1 0.070-0.164 0.070c-0.065 0-0.122-0.024-0.167-0.070-0.045-0.045-0.070-0.102-0.070-0.165 0-0.067 0.016-0.123 0.060-0.168s0.106-0.068 0.181-0.067zM1.845 15.518c0.063 0 0.117 0.022 0.165 0.070 0.045 0.045 0.066 0.1 0.066 0.165s-0.022 0.12-0.067 0.165c-0.060 0.045-0.106 0.070-0.18 0.070s-0.12-0.024-0.166-0.070c-0.045-0.045-0.075-0.102-0.075-0.165 0-0.067 0.014-0.123 0.060-0.168s0.104-0.068 0.164-0.068zM24 4.597v4.813c-1.635 0.1-3.68 0.277-6.138 0.534-2.49 0.27-4.52 0.48-6.093 0.615-1.576 0.15-2.713 0.226-3.41 0.24-1.363 0.030-2.090-0.15-2.195-0.554-0.105-0.45 0.705-1.050 2.445-1.77 1.74-0.735 4.050-1.47 6.9-2.19 2.505-0.63 5.34-1.185 8.49-1.65zM23.145 3.247c-3.255 0.605-6.627 1.35-10.114 2.23-5.444 1.375-9.787 2.743-13.031 4.096v-6.325z"/>
</svg>