<svg xmlns="http://www.w3.org/2000/svg" version="1.1" width="24" height="24" viewBox="0 0 24 24">
<path d="M12.005 0c6.623 0 12 5.377 12 12s-5.377 12-12 12-12-5.377-12-12 5.377-12 12-12zM3.25 17.539c1.865 2.916 5.087 4.821 8.753 4.821 0.001 0 0.001 0 0.002 0h-0c3.681 0 6.917-1.924 8.755-4.821l-8.755-3.336zM13.913 10.898l7.267 5.915c0.746-1.391 1.185-3.043 1.185-4.798 0-0.005 0-0.011-0-0.016v0.001c0-5.577-4.417-10.131-9.94-10.352zM11.585 1.648c-5.523 0.221-9.94 4.775-9.94 10.352 0 1.737 0.428 3.374 1.185 4.813l7.267-5.915z"/>
</svg>