<svg xmlns="http://www.w3.org/2000/svg" version="1.1" width="24" height="24" viewBox="0 0 24 24">
<path d="M11.72 0c-6.238-0.015-10.128 4.046-10.019 10.322-0.074 3.907 1.437 7.002 4.127 8.734 0.663 0.405 1.364 0.737 2.137 0.995l2.174 3.353c0.333 0.848 0.7 0.774 0.848-0.11l0.59-2.69h0.442c2.469 0.073 4.57-0.517 6.228-1.585 2.616-1.733 4.126-4.791 4.053-8.697 0.11-6.374-3.869-10.466-10.281-10.318-0.1-0.002-0.2-0.004-0.299-0.004zM16.291 4.636c0.258 0 0.516 0.092 0.7 0.276h0.001c0.185 0.185 0.295 0.442 0.295 0.737 0 0.148 0 0.295-0.074 0.406l-3.722 9.25c-0.258 0.441-0.627 0.552-0.885 0.552-0.546-0.007-0.987-0.449-0.994-0.994v-0.001c0-0.148 0.037-0.258 0.073-0.406l3.685-9.212c0.073-0.147 0.148-0.258 0.221-0.332 0.177-0.171 0.419-0.276 0.686-0.276 0.005 0 0.010 0 0.015 0h-0.001zM9.456 7.5c0.313 0 0.626 0.12 0.866 0.359h0.001c0.221 0.221 0.368 0.516 0.331 0.848 0 0.332-0.147 0.589-0.368 0.848-0.222 0.258-0.517 0.369-0.848 0.369-0.332 0-0.59-0.148-0.848-0.37-0.259-0.22-0.37-0.515-0.37-0.847s0.149-0.627 0.37-0.848c0.24-0.24 0.552-0.36 0.866-0.359zM9.456 12.474c0.313 0 0.626 0.12 0.866 0.36h0.001c0.221 0.258 0.368 0.553 0.331 0.848-0.005 0.333-0.145 0.633-0.368 0.848l-0 0c-0.221 0.258-0.516 0.368-0.848 0.368-0.333-0.005-0.633-0.145-0.848-0.368l-0-0c-0.259-0.222-0.37-0.516-0.37-0.848s0.149-0.627 0.37-0.848c0.24-0.24 0.552-0.36 0.866-0.36z"/>
</svg>