<svg xmlns="http://www.w3.org/2000/svg" version="1.1" width="24" height="24" viewBox="0 0 24 24">
<path d="M0 8.579v6.842h24v-6.841zM1.8 9.994h0.793l0.776 3.044 0.76-3.044h0.836l-1.227 4.029h-0.738zM7.288 9.994h1.084l1.145 4.034h-0.814l-0.27-1.007h-1.205c0 0-0.21 0.81-0.254 0.99-0.242 0.017-0.83 0-0.83 0zM11.472 9.994h0.792v3.352h1.69v0.677h-2.482zM14.922 9.994h0.816l0.776 3.005 0.754-3.005h0.815l-1.222 4.034h-0.716zM19.75 9.994h1.69v0.522h-1.084v0.584h0.99v0.523h-0.99v0.6h1.084v0.523h-1.69zM7.848 10.674l-0.426 1.702h0.89z"/>
</svg>