<svg xmlns="http://www.w3.org/2000/svg" version="1.1" width="24" height="24" viewBox="0 0 24 24">
<path d="M12.001 0.007c-6.675 0-11.994 5.319-11.994 11.993s5.319 11.995 11.993 11.995 11.994-5.319 11.994-11.994-5.318-11.994-11.993-11.994zM2.614 12.105l9.283 9.283c-5.111 0-9.283-4.172-9.283-9.283zM14.087 21.179l-11.264-11.264c0.937-4.172 4.693-7.301 9.177-7.301 3.113 0.006 5.873 1.513 7.596 3.835l0.018 0.025-1.355 1.146c-1.398-2.026-3.707-3.337-6.322-3.337-0.014 0-0.028 0-0.042 0h0.002c-0.014-0-0.031-0-0.049-0-3.297 0-6.101 2.112-7.132 5.057l-0.016 0.053 9.804 9.805c2.4-0.835 4.276-2.92 4.798-5.424h-4.068v-1.773h6.154c0 4.485-3.129 8.24-7.301 9.178z"/>
</svg>