<svg xmlns="http://www.w3.org/2000/svg" version="1.1" width="24" height="24" viewBox="0 0 24 24">
<path d="M5.506 5.875c-0.492 0-0.936-0.453-0.936-0.954 0-1.155 2.858-2.010 6.11-2.010 0.295 0 0.492 0 0.492-0.25 0-0.452-0.985-0.602-0.985-1.355 0-0.804 0.936-1.306 2.118-1.306 1.183 0 2.119 0.502 2.119 1.306 0 0.753-0.985 0.853-0.985 1.355 0 0.151 0.148 0.251 0.492 0.251 3.252 0 6.16 0.803 6.16 2.009 0 0.003 0 0.006 0 0.009 0 0.519-0.419 0.94-0.937 0.944h-0zM20.238 10.443c1.183 0.753 1.626 2.109 1.43 3.365l-1.38 7.58c-0.296 1.509-1.578 2.612-3.106 2.612h-9.656c-1.526 0-2.808-1.104-3.104-2.611l-1.38-7.581c-0.027-0.16-0.043-0.344-0.043-0.531 0-1.163 0.601-2.187 1.509-2.776l0.013-0.008c0.69-0.501 0.837-1.355 0-1.656-1.183-0.452-0.937-1.908 0.246-1.908h7.193c1.133 0 2.514 0.853 2.514 3.615s-1.282 2.51-1.282 4.468c0 0.854 0.69 1.758 1.527 1.859 1.43 0.15 2.267-0.402 2.267-2.41 0-2.060-1.182-3.013-1.182-4.72 0-2.059 1.28-2.863 2.118-2.863h2.070c1.182 0 1.429 1.457 0.246 1.909-0.837 0.35-0.69 1.205 0 1.656z"/>
</svg>