<svg xmlns="http://www.w3.org/2000/svg" version="1.1" width="24" height="24" viewBox="0 0 24 24">
<path d="M0 0v25h25v-25zM14.5 8.8l3-3c0 0 2.2 1.3 0.9 2.6l-2.1 2.1c-1.2 1.1-2.9-0.6-1.8-1.7zM13.7 5.5v3c0 1.5-2.5 1.5-2.5 0v-4.2c0 0 2.5-0.6 2.5 1.2zM8.4 6.7l2.1 2.1c1.1 1.1-0.6 2.8-1.7 1.7l-3-3c0 0 1.3-2.1 2.6-0.8zM5.5 11.3h3c1.5 0 1.5 2.5 0 2.5h-4.2c0-0.1-0.6-2.5 1.2-2.5zM10.5 16.2l-3 3c0 0-2.2-1.3-0.9-2.6l2.1-2.1c1.2-1.1 2.9 0.6 1.8 1.7zM13.7 20.7c0 0-2.5 0.6-2.5-1.2v-3c0-1.5 2.5-1.5 2.5 0zM12.5 14.3c-1 0-1.8-0.8-1.8-1.8s0.8-1.8 1.8-1.8 1.8 0.8 1.8 1.8-0.8 1.8-1.8 1.8zM16.6 18.3l-2.1-2.1c-1.1-1.1 0.6-2.8 1.7-1.7l3 3c0 0-1.3 2.1-2.6 0.8zM19.5 13.7h-3c-1.5 0-1.5-2.5 0-2.5h4.2c0 0.1 0.6 2.5-1.2 2.5z"/>
</svg>