<svg xmlns="http://www.w3.org/2000/svg" version="1.1" width="24" height="24" viewBox="0 0 24 24">
<path d="M20.156 0.083c3.033 0.525 3.893 2.598 3.829 4.77l0.015-0.031-1.365 17.888-17.729 1.216c-1.473-0.062-4.756-0.197-4.906-4.787l1.645-3 3.322 7.758 2.805-9.144-0.030 0.007 0.016-0.030 9.255 2.956-1.396-5.431-0.99-3.9 8.82-0.569-0.615-0.51-6.332-5.162 3.659-2.041zM0 19.089v0.026-0.029zM5.13 5.073c3.561-3.533 8.157-5.621 9.922-3.84 1.762 1.777-0.105 6.105-3.673 9.636-3.563 3.532-8.103 5.734-9.864 3.957-1.766-1.777 0.045-6.217 3.612-9.75z"/>
</svg>