<svg xmlns="http://www.w3.org/2000/svg" version="1.1" width="24" height="24" viewBox="0 0 24 24">
<path d="M22.62 19.46c-2.207 2.739-5.56 4.478-9.32 4.48h-0c-3.76-0.002-7.113-1.741-9.302-4.457l-0.018-0.023c2.208-2.729 5.558-4.46 9.311-4.46 0.003 0 0.006 0 0.009 0h-0c3.76 0 7.14 1.76 9.32 4.46zM10.32 12c0-1.52 1.25-2.99 2.62-2.99h0.42c3.91 0 7.1-1.76 9.29-4.48-2.222-2.736-5.582-4.472-9.349-4.48h-0.001c-3.76 0.002-7.113 1.741-9.302 4.457l-0.018 0.023c-1.638 2.013-2.63 4.609-2.63 7.437 0 0.012 0 0.023 0 0.035v-0.002c0 1.94 0.45 3.76 1.29 5.38 2.019-2.231 4.713-3.817 7.758-4.434l0.092-0.016c-0.090-0.3-0.18-0.63-0.17-0.93z"/>
</svg>