<svg xmlns="http://www.w3.org/2000/svg" version="1.1" width="24" height="24" viewBox="0 0 24 24">
<path d="M22.8 7.381c1.125-2.7 1.2-4.95-0.15-6.3-1.5-1.499-5.1-1.050-8.924 0.75h-0.45c-2.7 0-5.324 0.976-7.274 2.7-1.65 1.5-2.85 3.45-3.375 5.625 0.375-0.45 2.475-2.925 4.875-4.275 0.075 0 0.675-0.375 0.675-0.375-0.075 0-1.2 1.125-1.425 1.35-5.25 5.4-8.324 13.574-5.924 15.973 1.574 1.575 4.424 1.2 7.724-0.6 1.425 0.675 3 0.975 4.724 0.975 2.25 0 4.35-0.6 6.15-1.8 1.874-1.2 3.224-3.074 4.050-5.249h-5.85c-0.75 1.425-2.475 2.4-4.275 2.4-2.55 0-4.65-2.1-4.724-4.5v-0.225h15.298v-0.225c0-0.375 0.075-0.825 0.075-1.124 0-1.8-0.45-3.525-1.2-5.1zM2.477 22.38c-1.2-1.2-0.824-3.524 0.6-6.299 0.675 1.875 1.8 3.525 3.225 4.725 0.45 0.375 0.975 0.75 1.5 1.050-2.4 1.274-4.35 1.5-5.325 0.524zM17.851 10.982h-9.149v-0.075c0.15-2.325 2.324-4.35 4.874-4.35 2.4 0 4.35 1.875 4.5 4.35v0.075zM22.425 6.782c-0.45-0.75-1.050-1.5-1.725-2.1-1.012-0.943-2.207-1.704-3.524-2.224l-0.076-0.026c2.4-1.124 4.425-1.274 5.475-0.224 0.825 0.975 0.75 2.624-0.15 4.574 0 0.075 0 0.075 0 0 0 0.075 0 0.075 0 0z"/>
</svg>