<svg xmlns="http://www.w3.org/2000/svg" version="1.1" width="24" height="24" viewBox="0 0 24 24">
<path d="M22.922 7.027l-0.103-0.23-0.169 0.188c-0.408 0.464-0.928 0.82-1.505 1.036l-0.159 0.061 0.066 0.155c0.474 1.107 0.75 2.396 0.75 3.749 0 0.004 0 0.007 0 0.011v-0.001c0 5.405-4.397 9.806-9.806 9.806s-9.802-4.397-9.802-9.802 4.402-9.806 9.806-9.806c1.467 0 2.883 0.319 4.2 0.947l0.155 0.075 0.066-0.155c0.254-0.582 0.63-1.070 1.099-1.447l0.007-0.006 0.197-0.159-0.225-0.117c-1.588-0.839-3.472-1.331-5.47-1.331-0.010 0-0.020 0-0.030 0h0.002c-6.619 0-12 5.381-12 12s5.381 12 12 12 12-5.381 12-12c0-1.73-0.361-3.403-1.079-4.974zM12 6.53c-3.020 0.003-5.467 2.45-5.47 5.47v0c0.003 3.020 2.45 5.467 5.47 5.47h0c3.020-0.003 5.467-2.45 5.47-5.47v-0c-0.005-3.019-2.451-5.465-5.469-5.47h-0zM22.345 4.523c0 1.377-1.117 2.494-2.494 2.494s-2.494-1.117-2.494-2.494v0c0-1.377 1.117-2.494 2.494-2.494s2.494 1.117 2.494 2.494v0z"/>
</svg>