<svg xmlns="http://www.w3.org/2000/svg" version="1.1" width="24" height="24" viewBox="0 0 24 24">
<path d="M6.056 12.13v-4.92h1.2v3.026c0.59-0.703 1.402-0.906 2.202-0.906 1.34 0 2.828 0.904 2.828 2.855 0 0.233-0.015 0.457-0.060 0.668 0.24-0.953 1.274-1.305 2.896-1.344 0.51-0.018 1.095-0.018 1.56-0.018v-0.135c0-0.885-0.556-1.244-1.53-1.244-0.72 0-1.245 0.3-1.305 0.81h-1.275c0.136-1.29 1.5-1.62 2.686-1.62 1.064 0 1.995 0.27 2.415 1.020l-0.436-0.84h1.41l2.055 4.125 2.055-4.126h1.243l-3.72 7.305h-1.346l1.070-2.040-2.33-4.38c0.13 0.255 0.2 0.555 0.2 0.93v2.46c0 0.346 0.010 0.69 0.040 1.005h-1.114c-0.030-0.255-0.046-0.51-0.046-0.765-0.603 0.734-1.32 0.96-2.32 0.96-1.48 0-2.272-0.78-2.272-1.695 0-0.15 0.015-0.284 0.037-0.405-0.3 1.246-1.36 2.086-2.767 2.086-0.87 0-1.694-0.315-2.2-0.93 0 0.24-0.015 0.494-0.040 0.734h-1.18c0.020-0.39 0.040-0.855 0.040-1.245v-1.050h-4.83c0.065 1.095 0.818 1.74 1.853 1.74 0.718 0 1.355-0.3 1.568-0.93h1.24c-0.24 1.29-1.61 1.725-2.79 1.725-2.143 0.021-3.093-1.166-3.093-2.756 0-1.754 0.982-2.91 3.116-2.91 1.688 0 2.93 0.886 2.94 2.806zM15.193 12.313c-1.095 0.034-1.77 0.233-1.77 0.95 0 0.465 0.36 0.97 1.305 0.97 1.26 0 1.935-0.69 1.935-1.814v-0.13c-0.45 0-0.99 0.006-1.484 0.022zM9.133 14.188c1.11 0 1.876-0.806 1.876-2.020s-0.768-2.020-1.893-2.020c-1.11 0-1.89 0.806-1.89 2.020s0.765 2.020 1.875 2.020zM4.783 11.674c-0.044-1.125-0.854-1.546-1.725-1.546-0.944 0-1.694 0.474-1.815 1.546z"/>
</svg>