<svg xmlns="http://www.w3.org/2000/svg" version="1.1" width="24" height="24" viewBox="0 0 24 24">
<path d="M0 0v24h24v-24zM12.29 4.38c1.66-0.030 2.83 0.42 3.84 1.85 2.25 5.58-6 8.4-6 8.4s-0.23 1.48 2.020 1.42c2.78 0 5.7-2.15 6.81-3.060 0.114-0.096 0.262-0.154 0.423-0.154 0.187 0 0.356 0.078 0.477 0.203l0 0 0.84 0.87c0.113 0.118 0.182 0.279 0.182 0.455 0 0.172-0.065 0.328-0.173 0.445l0-0.001c-0.72 0.8-2.42 2.46-4.97 3.53 0 0-4.26 1.97-7.13 0.1-1.331-0.811-2.24-2.201-2.379-3.812l-0.001-0.018c0 0-2.080-0.11-3.42-0.63-1.33-0.52 0.010-2.1 0.010-2.1s0.42-0.65 1.2 0 2.24 0.36 2.24 0.36c0.13-1.030 0.35-2.38 0.98-3.81 1.34-3 3.38-4.010 5.050-4.050zM12.62 7.18c-1.1 0.070-2.8 1.78-2.88 4.93 0 0 0.75 0.23 2.41-0.91 1.67-1.14 2-2.97 1.11-3.81-0.145-0.133-0.34-0.215-0.553-0.215-0.031 0-0.061 0.002-0.091 0.005l0.004-0z"/>
</svg>