<svg xmlns="http://www.w3.org/2000/svg" version="1.1" width="24" height="24" viewBox="0 0 24 24">
<path d="M11.133 8.432c-0.465 0-0.835 0.359-0.835 0.814 0.007 0.454 0.381 0.817 0.835 0.812 0.488 0 0.873-0.358 0.873-0.81 0-0.455-0.385-0.816-0.873-0.816zM14.063 8.432c-0.465 0-0.848 0.359-0.848 0.814 0 0.442 0.383 0.812 0.848 0.812 0.477 0 0.861-0.358 0.861-0.81 0-0.455-0.385-0.816-0.861-0.816zM17.718 8.443c-0.53 0-0.99 0.335-0.99 0.858v3.315c0 0.809 0.56 1.289 1.377 1.289h4.647c0.689 0 1.248-0.477 1.248-1.162v-3.398c0-0.412-0.308-0.86-0.688-0.86h-1.075v2.799c0 2.122-3.701 2.104-3.701 0.040v-2.88zM19.397 8.443v2.453c0 1.636 1.934 1.402 1.934 0.256v-2.707h-1.934zM4.833 8.77c-0.465 0-0.776 0.232-0.938 0.756-0.152 0.533-1.116 4.242-1.116 4.242l-1.267-4.94h-1.512c0 0 1.451 5.264 1.65 5.881 0.15 0.476 0.521 0.86 1.058 0.86 0.627 0 0.917-0.454 1.045-0.86 0.14-0.421 1.080-3.895 1.080-3.895s0.942 3.476 1.069 3.895c0.14 0.406 0.431 0.86 1.047 0.86 0.547 0 0.906-0.385 1.070-0.86 0.196-0.617 1.65-5.881 1.65-5.881h-1.521l-1.258 4.94c0 0-0.963-3.709-1.125-4.242-0.15-0.526-0.479-0.756-0.93-0.756zM10.438 10.86v4.662h1.441v-4.662zM13.354 10.86v4.662h1.442v-4.662z"/>
</svg>