<svg xmlns="http://www.w3.org/2000/svg" version="1.1" width="24" height="24" viewBox="0 0 24 24">
<path d="M19.365 9.863c0.349 0 0.63 0.285 0.63 0.631 0 0.345-0.281 0.63-0.63 0.63h-1.755v1.125h1.755c0.349 0 0.63 0.283 0.63 0.63 0 0.344-0.281 0.629-0.63 0.629h-2.386c-0.345 0-0.627-0.285-0.627-0.629v-4.771c0-0.345 0.282-0.63 0.63-0.63h2.386c0.346 0 0.627 0.285 0.627 0.63 0 0.349-0.281 0.63-0.63 0.63h-1.755v1.125zM15.51 12.879c0 0.27-0.174 0.51-0.432 0.596-0.064 0.021-0.133 0.031-0.199 0.031-0.211 0-0.391-0.090-0.51-0.25l-2.443-3.317v2.94c0 0.344-0.279 0.629-0.631 0.629-0.346 0-0.626-0.285-0.626-0.629v-4.771c0-0.27 0.173-0.51 0.43-0.595 0.060-0.023 0.136-0.033 0.194-0.033 0.195 0 0.375 0.104 0.495 0.254l2.462 3.33v-2.956c0-0.345 0.282-0.63 0.63-0.63 0.345 0 0.63 0.285 0.63 0.63zM9.769 12.879c0 0.344-0.282 0.629-0.631 0.629-0.345 0-0.627-0.285-0.627-0.629v-4.771c0-0.345 0.282-0.63 0.63-0.63 0.346 0 0.628 0.285 0.628 0.63zM7.303 13.508h-2.386c-0.345 0-0.63-0.285-0.63-0.629v-4.771c0-0.345 0.285-0.63 0.63-0.63 0.348 0 0.63 0.285 0.63 0.63v4.141h1.756c0.348 0 0.629 0.283 0.629 0.63 0 0.344-0.282 0.629-0.629 0.629zM24 10.314c0-5.371-5.385-9.742-12-9.742s-12 4.371-12 9.742c0 4.811 4.27 8.842 10.035 9.608 0.391 0.082 0.923 0.258 1.058 0.59 0.12 0.301 0.079 0.766 0.038 1.080l-0.164 1.020c-0.045 0.301-0.24 1.186 1.049 0.645 1.291-0.539 6.916-4.078 9.436-6.975 1.724-1.889 2.548-3.824 2.548-5.968z"/>
</svg>