<svg xmlns="http://www.w3.org/2000/svg" version="1.1" width="24" height="24" viewBox="0 0 24 24">
<path d="M24 19h-24c0.258-2.288 1.047-4.351 2.241-6.118l-0.031 0.048c0.946-1.447 2.172-2.631 3.61-3.502l0.46-0.258-2.020-3.41c-0.047-0.075-0.074-0.167-0.074-0.265 0-0.183 0.097-0.344 0.242-0.434l0.002-0.001c0.073-0.044 0.162-0.071 0.257-0.071 0.184 0 0.346 0.1 0.432 0.248l0.001 0.002 2.080 3.5c1.387-0.57 2.996-0.901 4.683-0.901 0.055 0 0.11 0 0.166 0.001l-0.008-0c0.044-0.001 0.097-0.001 0.149-0.001 1.659 0 3.24 0.331 4.682 0.931l-0.081-0.030 2.070-3.5c0.088-0.149 0.249-0.248 0.432-0.248 0.1 0 0.192 0.029 0.27 0.079l-0.002-0.001c0.143 0.092 0.237 0.25 0.237 0.431 0 0.1-0.029 0.193-0.078 0.271l0.001-0.002-2.020 3.42 0.5 0.28c1.479 0.931 2.696 2.144 3.602 3.574l0.028 0.046c1.098 1.685 1.866 3.684 2.162 5.834l0.009 0.076zM16.5 14.52c0 0.552 0.448 1 1 1v0c0.552 0 1-0.448 1-1v0c0-0.552-0.448-1-1-1v0c-0.552 0-1 0.448-1 1v0zM5.5 14.52c0 0.552 0.448 1 1 1v0c0.552 0 1-0.448 1-1v0c0-0.552-0.448-1-1-1v0c-0.552 0-1 0.448-1 1v0z"/>
</svg>