<svg xmlns="http://www.w3.org/2000/svg" version="1.1" width="24" height="24" viewBox="0 0 24 24">
<path d="M11.777 23.997c-3.605-0.067-6.811-1.715-8.965-4.278l-0.015-0.018c-1.094-1.3-1.925-2.86-2.387-4.571l-0.019-0.084c-0.248-0.915-0.391-1.966-0.391-3.051 0-0.905 0.099-1.787 0.288-2.636l-0.015 0.080c0.342-1.541 0.938-2.902 1.747-4.107l-0.027 0.043c1.049-1.567 2.408-2.844 3.998-3.768l0.058-0.031c1.19-0.694 2.581-1.199 4.063-1.431l0.067-0.009c0.548-0.087 1.18-0.137 1.824-0.137 0.66 0 1.307 0.052 1.939 0.153l-0.070-0.009c1.708 0.27 3.302 0.89 4.751 1.848 0.873 0.577 1.692 1.29 2.385 2.080 1.265 1.429 2.199 3.18 2.663 5.114l0.017 0.082c0.402 1.718 0.416 3.556 0.039 5.291-0.6 2.684-2.032 4.968-4.006 6.628l-0.018 0.015c-1.3 1.094-2.86 1.925-4.571 2.388l-0.084 0.019c-0.743 0.195-1.499 0.316-2.29 0.367-0.234 0.014-0.516 0.023-0.8 0.026l-0.009 0zM4.853 17.313c0.091-0.024 0.169-0.070 0.23-0.133l0-0c0.063-0.063 0.111-0.141 0.138-0.228l0.001-0.004c0.013-0.043 0.014-0.178 0.018-2.363 0.004-2.12 0.005-2.327 0.018-2.438 0.033-0.298 0.076-0.51 0.146-0.72 0.101-0.303 0.224-0.516 0.406-0.705 0.14-0.144 0.26-0.232 0.434-0.315 0.146-0.070 0.316-0.122 0.495-0.147l0.009-0.001c0.114-0.017 0.382-0.024 0.493-0.012 0.55 0.064 1.018 0.367 1.304 0.8l0.004 0.007c0.166 0.25 0.271 0.528 0.327 0.866l0.017 0.106 0.004 2.438c0.004 2.324 0.005 2.44 0.019 2.485 0.027 0.088 0.073 0.164 0.133 0.226l-0-0c0.054 0.057 0.122 0.101 0.197 0.127l0.004 0.001c0.052 0.019 0.068 0.021 0.167 0.021 0.010 0.001 0.021 0.001 0.033 0.001 0.133 0 0.253-0.056 0.337-0.146l0-0c0.080-0.078 0.134-0.181 0.149-0.297l0-0.003c0.006-0.042 0.008-0.774 0.008-2.407 0-1.542 0.003-2.375 0.008-2.428 0.047-0.48 0.222-0.889 0.523-1.225 0.183-0.204 0.464-0.39 0.73-0.482 0.21-0.074 0.394-0.101 0.626-0.095 0.304 0.010 0.55 0.066 0.8 0.186 0.284 0.136 0.514 0.341 0.668 0.597 0.178 0.294 0.28 0.662 0.299 1.083 0.002 0.053 0.013 0.491 0.023 0.973 0.022 1.002 0.024 1.063 0.040 1.238 0.072 0.787 0.307 1.426 0.711 1.935 0.087 0.11 0.311 0.333 0.417 0.417 0.435 0.344 0.944 0.555 1.532 0.634 0.177 0.024 0.507 0.030 0.68 0.012 0.797-0.082 1.53-0.463 2.015-1.046 0.373-0.45 0.606-0.99 0.704-1.64 0.046-0.302 0.043-0.143 0.046-2.506 0.003-2.417 0.007-2.223-0.054-2.346-0.067-0.128-0.187-0.22-0.329-0.25l-0.003-0.001c-0.039-0.009-0.084-0.015-0.13-0.015-0.105 0-0.204 0.028-0.289 0.076l0.003-0.002c-0.1 0.060-0.19 0.183-0.22 0.304-0.009 0.031-0.012 0.478-0.016 2.22-0.005 2.415 0 2.23-0.055 2.51-0.18 0.917-0.81 1.522-1.73 1.66-0.066 0.007-0.142 0.010-0.219 0.010-0.103 0-0.205-0.007-0.304-0.019l0.012 0.001c-0.464-0.070-0.84-0.256-1.13-0.557-0.332-0.345-0.53-0.816-0.601-1.432-0.018-0.151-0.026-0.387-0.043-1.212-0.018-0.853-0.026-1.050-0.047-1.24-0.129-1.123-0.68-1.983-1.548-2.417-0.326-0.168-0.709-0.274-1.115-0.294l-0.006-0c-0.55-0.035-1.136 0.12-1.671 0.441-0.318 0.19-0.588 0.425-0.808 0.701l-0.005 0.006-0.038 0.049-0.028-0.038c-0.075-0.096-0.152-0.181-0.234-0.26l-0.001-0.001c-0.457-0.433-1.1-0.722-1.78-0.8-0.099-0.009-0.214-0.014-0.331-0.014-0.112 0-0.223 0.005-0.333 0.014l0.014-0.001c-0.635 0.070-1.141 0.286-1.559 0.666-0.48 0.437-0.795 1.103-0.912 1.926-0.056 0.393-0.057 0.436-0.054 2.915l0.002 2.184 0.022 0.064c0.057 0.165 0.189 0.292 0.355 0.338l0.004 0.001c0.078 0.020 0.188 0.020 0.269 0zM16.843 8.45c0.267-0.048 0.477-0.245 0.545-0.5l0.001-0.005c0.011-0.052 0.018-0.111 0.018-0.172 0-0.045-0.004-0.089-0.010-0.133l0.001 0.005c-0.050-0.243-0.223-0.437-0.45-0.515l-0.005-0.001c-0.065-0.023-0.139-0.036-0.217-0.036-0.374 0-0.678 0.304-0.678 0.678 0 0.002 0 0.005 0 0.007v-0c0 0.055 0.005 0.11 0.012 0.142 0.069 0.311 0.342 0.54 0.669 0.54 0.041 0 0.081-0.004 0.119-0.010l-0.004 0.001zM14.176 8.312c0.142-0.039 0.257-0.135 0.319-0.262l0.001-0.003c0.046-0.092 0.060-0.158 0.067-0.343 0.013-0.58 0.246-1.103 0.618-1.491l-0.001 0.001c0.295-0.311 0.691-0.524 1.136-0.586l0.010-0.001c0.145-0.022 0.434-0.024 0.581-0.004 0.307 0.043 0.58 0.143 0.822 0.3 0.244 0.16 0.474 0.4 0.634 0.663 0.202 0.333 0.326 0.763 0.327 1.127 0 0.1 0.012 0.184 0.036 0.26 0.067 0.207 0.258 0.354 0.483 0.354 0.2 0 0.373-0.116 0.455-0.283l0.001-0.003c0.053-0.111 0.060-0.15 0.059-0.35 0-0.198-0.010-0.318-0.043-0.514-0.217-1.298-1.165-2.294-2.426-2.545-0.158-0.036-0.34-0.057-0.527-0.057-0.034 0-0.069 0.001-0.103 0.002l0.005-0c-0.014-0-0.030-0-0.046-0-1.165 0-2.177 0.658-2.684 1.622l-0.008 0.017c-0.219 0.415-0.352 0.906-0.366 1.426l-0 0.004c-0.010 0.265 0.037 0.418 0.167 0.544 0.091 0.087 0.215 0.14 0.351 0.14 0.047 0 0.092-0.006 0.135-0.018l-0.004 0.001z"/>
</svg>