<svg xmlns="http://www.w3.org/2000/svg" version="1.1" width="24" height="24" viewBox="0 0 24 24">
<path d="M21.469 6.825c0.84 1.537 1.318 3.3 1.318 5.175 0 3.979-2.156 7.456-5.363 9.325l3.295-9.527c0.615-1.54 0.82-2.771 0.82-3.864 0-0.405-0.026-0.78-0.070-1.11zM13.488 6.929c0.647-0.030 1.232-0.105 1.232-0.105 0.582-0.075 0.514-0.93-0.067-0.899 0 0-1.755 0.135-2.88 0.135-1.064 0-2.85-0.15-2.85-0.15-0.585-0.030-0.661 0.855-0.075 0.885 0 0 0.54 0.061 1.125 0.090l1.68 4.605-2.37 7.080-3.929-11.67c0.649-0.030 1.234-0.1 1.234-0.1 0.585-0.075 0.516-0.93-0.065-0.896 0 0-1.746 0.138-2.874 0.138-0.2 0-0.438-0.008-0.69-0.015 1.952-2.877 5.276-4.812 9.041-4.812 2.809 0 5.365 1.072 7.286 2.833-0.046-0.003-0.091-0.009-0.141-0.009-1.060 0-1.812 0.923-1.812 1.914 0 0.89 0.513 1.643 1.060 2.531 0.411 0.72 0.89 1.643 0.89 2.977 0 0.915-0.354 1.994-0.821 3.479l-1.075 3.585-3.9-11.61zM12 22.784c-1.059 0-2.081-0.153-3.048-0.437l3.237-9.406 3.315 9.087c0.024 0.053 0.050 0.101 0.078 0.149-1.12 0.393-2.325 0.609-3.582 0.609zM1.211 12c0-1.564 0.336-3.050 0.935-4.39l5.144 14.099c-3.596-1.749-6.078-5.438-6.079-9.709zM12 0c-6.615 0-12 5.385-12 12s5.385 12 12 12 12-5.385 12-12-5.385-12-12-12z"/>
</svg>