<svg xmlns="http://www.w3.org/2000/svg" version="1.1" width="24" height="24" viewBox="0 0 24 24">
<path d="M4.37 18.34c-0.9-0.090-1.8-0.26-2.68-0.5l-0.080-0.020 0.020-0.080c0.26-0.85 0.59-1.68 0.98-2.47l0.040-0.080 0.070 0.040c0.59 0.33 1.22 0.63 1.85 0.89l0.060 0.020-0.010 0.060c-0.1 0.67-0.15 1.36-0.17 2.050v0.090zM6.31 6.23v-0.020c-0.52 0.010-1.040 0.040-1.55 0.1 0.060 0.53 0.16 1.050 0.27 1.56 0.36-0.6 0.79-1.15 1.28-1.64zM4.46 18.95v-0.070l-0.070-0.010c-0.76-0.070-1.53-0.2-2.29-0.38l-0.2-0.050 0.11 0.18c0.69 1.040 1.53 1.96 2.5 2.74l0.16 0.13-0.030-0.2c-0.11-0.8-0.17-1.59-0.18-2.34zM8.17 0.7c-0.93 0.32-1.81 0.75-2.62 1.28 0.61 0.11 1.22 0.25 1.81 0.43 0.24-0.59 0.51-1.15 0.81-1.71zM12.040 0.060c-0.46 0-0.91 0.030-1.36 0.080 0.63 0.44 1.24 0.92 1.81 1.45l0.48 0.44-0.47 0.45c-0.39 0.37-0.76 0.77-1.12 1.2l-0.020 0.020c0 0-0.070 0.080-0.18 0.21 0.28-0.030 0.57-0.050 0.86-0.050 4.49 0 8.14 3.64 8.14 8.14 0 4.49-3.64 8.14-8.14 8.14-1.56 0-3.020-0.44-4.25-1.2-0.61 0.070-1.22 0.1-1.84 0.1-0.29 0-0.57-0.010-0.86-0.020 0.020 0.93 0.11 1.88 0.26 2.88 1.91 1.29 4.21 2.050 6.69 2.050 6.6 0 11.94-5.35 11.94-11.94 0-6.6-5.34-11.95-11.94-11.95zM10.46 2.88c0.24-0.28 0.48-0.55 0.73-0.82-0.56-0.48-1.15-0.91-1.77-1.3-0.38 0.64-0.71 1.31-0.99 1.99 0.54 0.2 1.060 0.43 1.58 0.68 0.23-0.31 0.4-0.49 0.45-0.55zM2.35 9.7l0.050 0.070 0.070-0.050c0.55-0.4 1.13-0.77 1.73-1.1l0.060-0.020-0.020-0.070c-0.18-0.67-0.32-1.37-0.41-2.080l-0.010-0.080-0.080 0.020c-0.88 0.16-1.76 0.4-2.6 0.7l-0.080 0.030 0.030 0.080c0.35 0.86 0.77 1.7 1.26 2.5zM2.21 10.85l-0.070 0.050c-0.64 0.52-1.25 1.1-1.81 1.72l-0.060 0.060 0.060 0.050c0.62 0.54 1.29 1.040 1.99 1.48l0.070 0.050 0.040-0.070c0.31-0.56 0.67-1.11 1.050-1.64l0.040-0.050-0.040-0.050c-0.44-0.49-0.85-1-1.23-1.54zM6.9 18.38l0.21-0.010-0.16-0.13c-0.64-0.52-1.19-1.13-1.64-1.83v-0.020l-0.13-0.060-0.020 0.11c-0.080 0.6-0.13 1.22-0.14 1.86v0.080h0.080c0.28 0.020 0.57 0.020 0.85 0.020 0.31 0.010 0.63 0 0.95-0.020zM6.5 5.19c0.13-0.59 0.29-1.17 0.48-1.74-0.75-0.21-1.52-0.37-2.29-0.48-0.070 0.78-0.080 1.56-0.030 2.33 0.61-0.070 1.23-0.1 1.84-0.11zM7.65 5.15c0.52-0.33 1.080-0.61 1.67-0.82-0.42-0.19-0.84-0.37-1.28-0.53-0.15 0.44-0.28 0.9-0.39 1.35zM2.1 14.85l-0.060-0.040c-0.62-0.39-1.21-0.82-1.77-1.28l-0.16-0.13 0.030 0.21c0.15 1.15 0.47 2.26 0.94 3.32l0.080 0.19 0.070-0.19c0.23-0.68 0.52-1.35 0.84-1.99zM3.63 3.52c-0.71 0.71-1.34 1.5-1.85 2.37 0.62-0.18 1.24-0.33 1.87-0.44-0.040-0.64-0.050-1.28-0.020-1.93zM3.99 11.9l0.010-0.21c0.030-0.73 0.15-1.44 0.37-2.13l0.060-0.2-0.18 0.1c-0.47 0.27-0.93 0.57-1.37 0.89l-0.070 0.050 0.050 0.070c0.31 0.44 0.64 0.87 0.99 1.28zM4.070 13.12l-0.030-0.2-0.12 0.18c-0.33 0.47-0.64 0.95-0.92 1.45l-0.040 0.070 0.070 0.040c0.5 0.28 1.030 0.54 1.56 0.77l0.19 0.080-0.090-0.19c-0.31-0.7-0.52-1.44-0.62-2.2zM1.74 10.27l0.060-0.050-0.040-0.060c-0.37-0.6-0.71-1.23-1.010-1.87l-0.090-0.18-0.060 0.2c-0.35 1.080-0.54 2.21-0.57 3.35l-0.010 0.21 0.15-0.15c0.49-0.52 1.020-1.020 1.57-1.45z"/>
</svg>