<svg xmlns="http://www.w3.org/2000/svg" version="1.1" width="24" height="24" viewBox="0 0 24 24">
<path d="M12 0c-6.627 0-12 5.373-12 12s5.373 12 12 12 12-5.373 12-12-5.373-12-12-12zM6.962 7.68c0.754 0 1.337 0.549 1.405 1.2 0.069 0.583-0.171 1.097-0.822 1.406-0.343 0.171-0.48 0.172-0.549 0.069-0.034-0.069 0-0.137 0.069-0.206 0.617-0.514 0.617-0.926 0.548-1.508-0.034-0.378-0.308-0.618-0.583-0.618-1.2 0-2.914 2.674-2.674 4.629 0.103 0.754 0.549 1.646 1.509 1.646 0.308 0 0.65-0.103 0.96-0.24 0.5-0.264 0.799-0.47 1.097-0.8-0.073-0.885 0.704-2.046 1.851-2.046 0.515 0 0.926 0.205 0.96 0.583 0.068 0.514-0.377 0.582-0.514 0.582s-0.378-0.034-0.378-0.17c-0.034-0.138 0.309-0.070 0.275-0.378-0.035-0.206-0.24-0.274-0.446-0.274-0.72 0-1.131 0.994-1.029 1.611 0.035 0.275 0.172 0.549 0.447 0.549 0.205 0 0.514-0.31 0.617-0.755 0.068-0.308 0.343-0.514 0.583-0.514 0.102 0 0.17 0.034 0.205 0.171v0.138c-0.034 0.137-0.137 0.548-0.102 0.651 0 0.069 0.034 0.171 0.17 0.171 0.092 0 0.436-0.18 0.777-0.459 0.117-0.59 0.253-1.298 0.253-1.357 0.034-0.24 0.137-0.48 0.617-0.48 0.103 0 0.171 0.034 0.205 0.171v0.138l-0.136 0.617c0.445-0.583 1.097-0.994 1.508-0.994 0.172 0 0.309 0.102 0.309 0.274 0 0.103 0 0.274-0.069 0.446-0.137 0.377-0.309 0.96-0.412 1.474 0 0.137 0.035 0.274 0.207 0.274 0.171 0 0.685-0.206 1.096-0.754l0.007-0.004c-0.002-0.068-0.007-0.134-0.007-0.202 0-0.411 0.035-0.754 0.104-0.994 0.068-0.274 0.411-0.514 0.617-0.514 0.103 0 0.205 0.069 0.205 0.171 0 0.035 0 0.103-0.034 0.137-0.137 0.446-0.24 0.857-0.24 1.269 0 0.24 0.034 0.582 0.102 0.788 0 0.034 0.035 0.069 0.070 0.069 0.068 0 0.548-0.445 0.89-1.028-0.308-0.206-0.48-0.549-0.48-0.96 0-0.72 0.446-1.097 0.858-1.097 0.343 0 0.617 0.24 0.617 0.72 0 0.308-0.103 0.65-0.274 0.96h0.102c0.007 0 0.016 0 0.025 0 0.22 0 0.418-0.092 0.559-0.24l0-0c0.032-0.052 0.078-0.092 0.132-0.116l0.002-0.001c0.335-0.425 0.83-0.74 1.41-0.74 0.48 0 0.924 0.205 0.959 0.582 0.068 0.515-0.378 0.618-0.515 0.618l-0.002-0.002c-0.138 0-0.377-0.035-0.377-0.172s0.309-0.068 0.274-0.376c-0.034-0.206-0.24-0.275-0.446-0.275-0.686 0-1.13 0.891-1.028 1.611 0.034 0.275 0.171 0.583 0.445 0.583 0.206 0 0.515-0.308 0.652-0.754 0.068-0.274 0.343-0.514 0.583-0.514 0.103 0 0.17 0.034 0.205 0.171 0 0.069 0 0.206-0.137 0.652-0.17 0.308-0.171 0.48-0.137 0.617 0.034 0.274 0.171 0.48 0.309 0.583 0.034 0.034 0.068 0.102 0.068 0.102 0 0.069-0.034 0.138-0.137 0.138-0.034 0-0.068 0-0.103-0.035-0.514-0.205-0.72-0.548-0.789-0.891-0.205 0.24-0.445 0.377-0.72 0.377-0.445 0-0.89-0.411-0.96-0.926-0.004-0.043-0.006-0.093-0.006-0.144 0-0.181 0.030-0.355 0.085-0.517l-0.003 0.011c-0.203 0.13-0.422 0.203-0.623 0.203h-0.17c-0.447 0.652-0.927 1.098-1.27 1.303-0.109 0.059-0.238 0.097-0.375 0.104l-0.002 0c-0.068 0-0.171-0.035-0.205-0.104-0.095-0.152-0.156-0.392-0.193-0.667-0.481 0.527-1.145 0.805-1.453 0.805-0.343 0-0.548-0.206-0.582-0.55v-0.376c0.102-0.754 0.377-1.2 0.377-1.337-0.002-0.037-0.032-0.067-0.069-0.070l-0-0c-0.24 0-1.028 0.824-1.166 1.373l-0.103 0.445c-0.068 0.309-0.377 0.515-0.582 0.515-0.103 0-0.172-0.035-0.206-0.172v-0.137l0.046-0.233c-0.435 0.31-0.87 0.508-1.075 0.508-0.308 0-0.48-0.172-0.514-0.412-0.206 0.274-0.445 0.412-0.754 0.412-0.352 0-0.696-0.24-0.862-0.593-0.244 0.275-0.523 0.553-0.852 0.764-0.48 0.309-1.028 0.549-1.68 0.549-0.582 0-1.097-0.309-1.371-0.583-0.412-0.377-0.651-0.96-0.686-1.509-0.205-1.68 0.823-3.84 2.4-4.8 0.378-0.205 0.755-0.343 1.132-0.343zM16.732 10.971c-0.104 0-0.172 0.172-0.172 0.343 0 0.274 0.137 0.583 0.309 0.755 0.064-0.173 0.102-0.374 0.102-0.583v-0c0-0.343-0.137-0.515-0.239-0.515z"/>
</svg>