<svg xmlns="http://www.w3.org/2000/svg" version="1.1" width="24" height="24" viewBox="0 0 24 24">
<path d="M23.997 6.124c0-0.738-0.065-1.47-0.24-2.19-0.317-1.31-1.062-2.31-2.18-3.043-0.574-0.374-1.204-0.606-1.877-0.727-0.517-0.093-1.038-0.135-1.564-0.15-0.040-0.003-0.083-0.010-0.124-0.013h-12.024c-0.152 0.010-0.303 0.017-0.455 0.026-0.747 0.043-1.49 0.123-2.193 0.401-1.336 0.53-2.3 1.452-2.865 2.78-0.192 0.448-0.292 0.925-0.363 1.408-0.056 0.392-0.088 0.785-0.1 1.18 0 0.032-0.007 0.062-0.010 0.093v12.223c0.010 0.14 0.017 0.283 0.027 0.424 0.050 0.815 0.154 1.624 0.497 2.373 0.65 1.42 1.738 2.353 3.234 2.802 0.42 0.127 0.856 0.187 1.293 0.228 0.555 0.053 1.11 0.060 1.667 0.060h11.030c0.525 0 1.048-0.034 1.57-0.1 0.823-0.106 1.597-0.35 2.296-0.81 0.84-0.553 1.472-1.287 1.88-2.208 0.186-0.42 0.293-0.87 0.37-1.324 0.113-0.675 0.138-1.358 0.137-2.040-0.002-3.8 0-7.595-0.006-11.393zM17.574 10.114v5.712c0 0.417-0.058 0.827-0.244 1.206-0.29 0.59-0.76 0.962-1.388 1.14-0.35 0.1-0.706 0.157-1.070 0.173-0.95 0.045-1.773-0.6-1.943-1.536-0.142-0.773 0.227-1.624 1.038-2.022 0.323-0.16 0.67-0.25 1.018-0.324 0.378-0.082 0.758-0.153 1.134-0.24 0.274-0.063 0.457-0.23 0.51-0.516 0.014-0.063 0.020-0.13 0.020-0.193 0-1.815 0-3.63-0.002-5.443 0-0.062-0.010-0.125-0.026-0.185-0.040-0.15-0.15-0.243-0.304-0.234-0.16 0.010-0.318 0.035-0.475 0.066-0.76 0.15-1.52 0.303-2.28 0.456l-3.7 0.748c-0.016 0.003-0.032 0.010-0.048 0.013-0.277 0.077-0.377 0.203-0.39 0.49-0.002 0.042 0 0.086 0 0.13-0.002 2.602 0 5.204-0.003 7.805 0 0.42-0.047 0.836-0.215 1.227-0.278 0.64-0.77 1.040-1.434 1.233-0.35 0.1-0.71 0.16-1.075 0.172-0.96 0.036-1.755-0.6-1.92-1.544-0.14-0.812 0.23-1.685 1.154-2.075 0.357-0.15 0.73-0.232 1.108-0.31 0.287-0.060 0.575-0.116 0.86-0.177 0.383-0.083 0.583-0.323 0.6-0.714v-0.15c0-2.96 0-5.922 0.002-8.882 0-0.123 0.013-0.25 0.042-0.37 0.070-0.285 0.273-0.448 0.546-0.518 0.255-0.066 0.515-0.112 0.774-0.165 0.733-0.15 1.466-0.296 2.2-0.444l2.27-0.46c0.67-0.134 1.34-0.27 2.010-0.403 0.22-0.043 0.443-0.088 0.664-0.106 0.31-0.025 0.523 0.17 0.554 0.482 0.008 0.073 0.012 0.148 0.012 0.223 0.002 1.91 0.002 3.822 0.001 5.735z"/>
</svg>