<svg xmlns="http://www.w3.org/2000/svg" version="1.1" width="24" height="24" viewBox="0 0 24 24">
<path d="M11.73 2.225l-0.010 0.016h-6.103l-5.618 9.738 5.618 9.736h12.799l0.040 0.060 2.134-3.735 0.518-0.893h-0.008l0.008-0.014-0.626-0.75h0.895l0.006-0.010 0.008 0.010 2.607-4.389-2.607-4.39-0.003 0.005-0.011-0.019h-0.945l0.631-0.764-2.607-4.569-0.006 0.010-0.024-0.040zM9.106 6.824h6.189l-0.529 0.764h-0.024l2.398 4.015h0.875l-0.277 0.328 0.357 0.435h-0.956l-2.398 4.015h0.027l0.523 0.764h-6.218l-2.99-5.168z"/>
</svg>