<svg xmlns="http://www.w3.org/2000/svg" version="1.1" width="24" height="24" viewBox="0 0 24 24">
<path d="M12 6.768v0.002-1.237c-0.485 0.033-0.754 0.293-0.99 0.71l-5.14 10.477h2.464l-0.753-0.96 0.654-1.363 0.005 0.007 3.76-7.63zM10.526 13.123h2.946l-1.472-3.047zM8.233 14.416h0.017l-0.010-0.013zM13.473 13.123v0.002zM21.496 5.066l-8.236-4.758c-0.693-0.4-1.827-0.4-2.52 0l-8.236 4.758c-0.693 0.398-1.26 1.38-1.26 2.182v9.507c0 0.802 0.567 1.782 1.26 2.18l8.236 4.757c0.693 0.4 1.826 0.4 2.52 0l8.235-4.768c0.692-0.39 1.26-1.38 1.26-2.174v-9.504c0-0.8-0.567-1.78-1.259-2.18zM15.43 17.116l-0.687-1.384h-5.5l-0.673 1.384h-3.283l5.396-11.033c0.305-0.607 0.777-0.9 1.317-0.9s1.034 0.328 1.316 0.89l5.396 11.043zM12 6.77v2.474l2.518 5.173h-6.268l0.758 0.94h5.972l0.674 1.35h2.474l-1.708-0.99v0.040l-4.42-8.987z"/>
</svg>