<svg xmlns="http://www.w3.org/2000/svg" version="1.1" width="24" height="24" viewBox="0 0 24 24">
<path d="M8.302 23.976c-0.58-0.044-1.34-0.187-1.979-0.372-1.127-0.343-2.107-0.859-2.964-1.526l0.020 0.015c-0.368-0.285-1.153-1.070-1.473-1.473-1.19-1.499-1.796-3.13-1.856-4.998-0.003-0.081-0.004-0.176-0.004-0.272 0-0.83 0.121-1.632 0.348-2.389l-0.015 0.059c0.068-0.229 0.071-0.255 0.057-0.53-0.003-0.056-0.004-0.122-0.004-0.189 0-0.329 0.038-0.649 0.11-0.955l-0.006 0.028c0.061-0.244 0.23-0.61 0.34-0.742l0.068-0.080-0.010 0.434c-0.012 0.622-0.011 0.623 0.187 0.275 0.47-0.831 1.042-1.541 1.712-2.144l0.008-0.007c0.194-0.176 0.369-0.338 0.388-0.359s0.090-0.178 0.159-0.349c0.207-0.514 0.392-0.796 0.593-0.898 0.175-0.090 0.334-0.044 0.371 0.104 0.002 0.024 0.004 0.053 0.004 0.081 0 0.048-0.004 0.095-0.012 0.141l0.001-0.005c-0.008 0.042-0.013 0.090-0.013 0.139 0 0.008 0 0.015 0 0.023l-0-0.001c0.005 0 0.157-0.079 0.339-0.175 0.65-0.347 1.115-0.546 2.094-0.892 0.323-0.115 0.628-0.225 0.676-0.246 0.276-0.116 0.425-0.506 0.398-1.039-0.004-0.183-0.041-0.356-0.105-0.515l0.003 0.010c-0.046-0.136-0.087-0.241-0.132-0.344l0.010 0.027c-0.050-0.098-0.043-0.115 0.038-0.092 0.233 0.067 0.512 0.292 0.687 0.555 0.102 0.154 0.273 0.522 0.274 0.592 0 0.056 0.036 0.030 0.113-0.084 0.307-0.454 0.309-0.97 0.004-1.488-0.111-0.19-0.429-0.503-0.645-0.637-0.277-0.17-0.444-0.22-0.74-0.217-0.229 0.002-0.25-0.002-0.317-0.057-0.083-0.070-0.13-0.219-0.109-0.343 0.025-0.142 0.266-0.6 0.431-0.82 0.195-0.26 0.636-0.684 0.917-0.884 0.912-0.648 2.056-1.040 3.386-1.16 0.32-0.030 0.332-0.032 0.398-0.103 0.062-0.066 0.082-0.073 0.22-0.073 0.133 0 0.17 0.012 0.319 0.097 0.157 0.091 0.173 0.096 0.239 0.066 0.050-0.022 0.132-0.027 0.28-0.017 0.169 0.010 0.22 0.007 0.264-0.024 0.077-0.054 0.171-0.047 0.31 0.024 0.067 0.033 0.264 0.093 0.438 0.13 0.819 0.182 1.477 0.436 2.103 0.815 0.111 0.067 0.206 0.122 0.211 0.122 0.009 0-0.003-0.088-0.032-0.246l-0.013-0.067 0.152 0.090c0.2 0.12 0.38 0.307 0.479 0.496 0.069 0.133 0.085 0.15 0.121 0.127 0.029-0.017 0.064-0.019 0.11-0.003 0.054 0.019 0.093 0.075 0.2 0.293 0.074 0.149 0.142 0.277 0.15 0.286 0.010 0.010 0.084-0.058 0.167-0.148 0.176-0.192 0.337-0.3 0.55-0.373 0.2-0.067 0.32-0.053 0.41 0.048s0.090 0.23-0.004 0.427c-0.18 0.38-0.26 0.728-0.23 0.994l0.017 0.137 0.108-0.076c0.1-0.070 0.122-0.076 0.305-0.076 0.192 0 0.4 0.058 0.4 0.112 0 0.012-0.051 0.083-0.113 0.159-0.184 0.226-0.23 0.353-0.227 0.626 0.003 0.251 0.014 0.308 0.177 0.868 0.059 0.205 0.128 0.473 0.152 0.595 0.011 0.083 0.032 0.158 0.062 0.228l-0.002-0.006c0.040 0 0.313-0.226 0.478-0.394 0.099-0.1 0.187-0.182 0.195-0.182 0.033 0 0.091 0.19 0.117 0.376 0.030 0.22 0.007 0.432-0.073 0.692-0.048 0.156-0.049 0.17-0.012 0.247 0.061 0.128 0.070 0.266 0.028 0.444-0.070 0.302-0.199 0.51-0.533 0.858l-0.172 0.18-0.028 0.24c-0.016 0.133-0.050 0.332-0.076 0.442-0.019 0.063-0.032 0.137-0.035 0.212l-0 0.002c0.007 0.007 0.029-0.002 0.049-0.019 0.053-0.044 0.216-0.019 0.378 0.058 0.333 0.158 0.972 0.741 1.222 1.116l0.135 0.201 0.215 0.054c0.884 0.224 1.572 0.866 1.952 1.823 0.12 0.3 0.204 0.683 0.264 1.186 0.019 0.154 0.060 0.29 0.18 0.589 0.085 0.213 0.168 0.447 0.183 0.519 0.042 0.193 0.018 0.442-0.060 0.626-0.037 0.086-0.087 0.23-0.113 0.32-0.091 0.323-0.239 0.533-0.487 0.693-0.080 0.051-0.204 0.11-0.277 0.13-0.137 0.037-0.599 0.25-0.6 0.277-0.001 0.008 0.032 0.022 0.073 0.030 0.22 0.044 0.509 0.252 0.582 0.42 0.015 0.035 0.073 0.123 0.129 0.197 0.213 0.28 0.265 0.537 0.188 0.943l-0.040 0.213 0.062 0.076c0.22 0.271 0.409 0.622 0.478 0.892 0.098 0.379 0.096 0.747-0.005 1.303l-0.044 0.235 0.080 0.116c0.154 0.223 0.184 0.436 0.106 0.737-0.194 0.752-0.766 1.31-1.563 1.522l-0.156 0.041v0.208c0 0.16-0.012 0.234-0.050 0.317-0.067 0.141-0.179 0.252-0.316 0.317l-0.004 0.002c-0.224 0.099-0.558-0.007-0.722-0.23-0.082-0.11-0.089-0.113-0.208-0.113-0.081-0.002-0.159-0.015-0.232-0.039l0.006 0.002c-0.248-0.087-0.362-0.257-0.368-0.547l-0.004-0.168-0.156-0.094c-0.216-0.128-0.402-0.279-0.561-0.455l-0.002-0.002-0.15-0.165 0.078 0.155c0.336 0.667-0.045 1.39-0.846 1.604-0.164 0.045-0.289 0.053-0.992 0.070-1.085 0.026-9.019 0.022-9.365-0.005zM21.808 23.575c0.101-0.088 0.143-0.312 0.080-0.433-0.058-0.115-0.14-0.15-0.384-0.17-0.277-0.020-0.354-0.060-0.354-0.178 0-0.153 0.025-0.16 0.64-0.168 0.597-0.008 0.777-0.037 1.038-0.17 0.23-0.116 0.522-0.478 0.549-0.682l0.013-0.095-0.165 0.047c-0.625 0.175-1.467 0.207-2.083 0.079-0.665-0.14-1.28-0.52-1.497-0.926l-0.054-0.101-0.030 0.070c-0.020 0.084-0.031 0.18-0.031 0.279 0 0.019 0 0.039 0.001 0.058l-0-0.003c-0.002 0.247 0.003 0.275 0.073 0.42 0.145 0.305 0.46 0.601 0.842 0.793 0.2 0.101 0.205 0.105 0.192 0.178l-0.042 0.242c-0.037 0.212-0.016 0.326 0.081 0.437 0.095 0.108 0.233 0.175 0.387 0.175 0.006 0 0.012-0 0.017-0l-0.001 0c0.094 0 0.152 0.014 0.192 0.045 0.206 0.16 0.421 0.202 0.535 0.103zM16.804 23.391c0.464-0.067 0.614-0.069 0.863-0.014 0.51 0.113 1.036 0.023 1.267-0.218 0.152-0.158 0.198-0.41 0.104-0.565-0.116-0.19-0.42-0.32-0.756-0.32-0.234 0-0.355 0.034-0.764 0.208-0.098 0.045-0.222 0.094-0.35 0.136l-0.027 0.008c-0.174 0.035-0.265-0.062-0.265-0.279 0-0.232 0.065-0.308 0.56-0.66 0.427-0.3 0.681-0.647 0.744-1.010 0.028-0.169-0.003-0.402-0.061-0.458-0.084-0.041-0.182-0.078-0.284-0.105l-0.011-0.002c-0.83-0.244-1.212-0.561-1.573-1.308-0.129-0.255-0.248-0.557-0.34-0.87l-0.010-0.039c-0.052-0.179-0.104-0.323-0.163-0.464l0.011 0.029c-0.27-0.595-0.927-1.133-1.683-1.377-0.32-0.104-0.523-0.14-1.033-0.184-0.249-0.020-0.443-0.040-0.636-0.064l0.072 0.007-0.12-0.018 0.168-0.086c0.206-0.104 0.356-0.153 0.576-0.185 0.314-0.047 0.528-0.055 0.757-0.030 0.922 0.104 1.617 0.578 2.108 1.438 0.182 0.32 0.313 0.647 0.44 1.102 0.147 0.526 0.28 0.792 0.534 1.060 0.41 0.435 0.959 0.63 1.769 0.63 0.178 0 0.4-0.012 0.492-0.025 0.378-0.053 0.77-0.188 1.060-0.363 0.318-0.191 0.614-0.542 0.71-0.84 0.029-0.090 0.064-0.165 0.078-0.165s0.104 0.018 0.2 0.040c0.164 0.039 0.188 0.039 0.386 0 0.318-0.060 0.403-0.054 0.484 0.032 0.122 0.13 0.275 0.154 0.45 0.070 0.071-0.038 0.13-0.088 0.177-0.149l0.001-0.001c0.058-0.080 0.070-0.118 0.064-0.207-0.007-0.107-0.010-0.11-0.193-0.23-0.070-0.042-0.131-0.085-0.188-0.134l0.002 0.002c0-0.007 0.045-0.043 0.101-0.080 0.077-0.050 0.125-0.064 0.192-0.058 0.103 0.009 0.104-0.004 0.005-0.197-0.085-0.175-0.225-0.313-0.397-0.394l-0.005-0.002c-0.337-0.164-0.719-0.164-1.145 0-0.256 0.1-0.295 0.101-0.47 0.024-0.231-0.102-0.466-0.138-0.785-0.12-0.392 0.024-0.651-0.017-0.75-0.118l-0.073-0.073 0.315-0.029c0.49-0.045 0.632-0.088 1.066-0.327 0.268-0.148 0.428-0.188 0.83-0.211 0.58-0.033 0.855-0.132 1.010-0.363 0.055-0.082 0.083-0.106 0.108-0.090 0.047 0.012 0.1 0.019 0.156 0.019 0.305 0 0.56-0.215 0.622-0.501l0.001-0.004c0.016-0.084 0.012-0.089-0.238-0.31-0.093-0.076-0.176-0.155-0.253-0.239l-0.002-0.002c0-0.010 0.039-0.050 0.085-0.092 0.143-0.125 0.245-0.104 0.534 0.108 0.050 0.037 0.054 0.037 0.054-0.005 0-0.095-0.059-0.25-0.228-0.61-0.199-0.42-0.215-0.47-0.253-0.804-0.12-1.030-0.675-1.892-1.542-2.395-0.058-0.037-0.128-0.075-0.2-0.11l-0.012-0.005c-0.009 0-0.050 0.071-0.093 0.158-0.049 0.096-0.105 0.179-0.169 0.254l0.001-0.002c-0.075 0.078-0.107 0.095-0.182 0.095-0.106 0-0.18-0.055-0.18-0.133 0-0.030 0.032-0.123 0.072-0.207 0.12-0.259 0.155-0.44 0.12-0.645-0.080-0.478-0.53-1.016-1.092-1.31-0.22-0.114-0.245-0.11-0.259 0.031-0.015 0.162 0.020 0.49 0.077 0.71 0.026 0.102 0.117 0.346 0.202 0.541 0.218 0.5 0.284 0.72 0.285 0.94 0 0.010 0.001 0.021 0.001 0.033 0 0.085-0.015 0.167-0.041 0.243l0.002-0.005c-0.066 0.131-0.162 0.239-0.279 0.318l-0.003 0.002c-0.083 0.043-0.175 0.045-0.157 0.004 0.127-0.29 0.169-0.431 0.179-0.609 0.014-0.25-0.020-0.365-0.234-0.804s-0.274-0.68-0.261-1.042l0.010-0.254-0.058 0.115c-0.095 0.17-0.177 0.303-0.264 0.434l0.015-0.025c-0.305 0.472-0.403 0.726-0.403 1.044 0 0.294 0.114 0.704 0.278 1 0.032 0.058 0.054 0.11 0.048 0.117-0.056-0.032-0.104-0.070-0.145-0.115l-0-0.001c-0.134-0.126-0.325-0.452-0.325-0.554 0-0.068-0.044-0.055-0.24 0.070-0.365 0.235-0.628 0.473-0.975 0.885-0.506 0.602-1.196 1.050-2.040 1.328-0.198 0.065-0.845 0.238-1.437 0.386-1.62 0.402-2.188 0.602-2.937 1.034-1.484 0.854-2.26 2-2.413 3.565-0.054 0.56 0.023 1.409 0.184 2.017 0.025 0.091-0.13-0.112-0.227-0.3-0.174-0.333-0.285-0.744-0.34-1.26-0.050-0.461 0.005-1.38 0.112-1.872l0.015-0.070-0.357 0.015c-0.886 0.037-1.618 0.288-2.217 0.76-0.094 0.072-0.177 0.146-0.255 0.225l-0 0-0.060 0.072 0.015-0.070c0.028-0.127 0.17-0.404 0.285-0.555 0.24-0.317 0.723-0.62 1.227-0.771 0.132-0.040 0.537-0.139 0.9-0.22 0.364-0.080 0.678-0.152 0.7-0.158 0.020-0.006 0.090-0.108 0.154-0.226s0.18-0.303 0.257-0.41c0.077-0.109 0.136-0.201 0.131-0.206-0.149 0.012-0.283 0.029-0.415 0.054l0.024-0.004c-0.21 0.033-0.674 0.098-1.030 0.145-0.719 0.095-1.124 0.17-1.5 0.278-1.16 0.335-1.83 0.983-2.179 2.11l-0.090 0.292 0.047 0.137c0.075 0.223 0.33 0.72 0.5 0.972 0.663 0.99 1.704 1.793 2.981 2.299 0.29 0.114 0.324 0.135 0.474 0.283 0.089 0.087 0.158 0.162 0.154 0.166-0.018 0.019-0.754-0.174-1.072-0.28-0.811-0.271-1.513-0.661-2.127-1.156l0.013 0.010c-0.129-0.101-0.274-0.195-0.427-0.276l-0.016-0.008c-0.54-0.279-1.003-0.624-1.401-1.032l-0.001-0.001c-0.188-0.194-0.349-0.415-0.479-0.656l-0.008-0.016-0.103-0.192 0.147 0.135c0.32 0.294 0.783 0.595 1.012 0.659 0.052 0.014 0.050 0.005-0.044-0.161-0.126-0.22-0.249-0.479-0.351-0.748l-0.013-0.039c-0.068-0.189-0.164-0.352-0.284-0.494l0.002 0.002c-0.747-0.971-1.293-1.946-1.674-2.99l-0.117-0.323-0.020 0.106c-0.016 0.156-0.025 0.338-0.025 0.522 0 0.006 0 0.012 0 0.018v-0.001l-0.004 0.432 0.14 0.385c0.145 0.396 0.665 1.798 0.71 1.915 0.014 0.036 0.020 0.066 0.015 0.066s-0.091-0.104-0.19-0.23c-0.229-0.288-0.484-0.67-0.53-0.793l-0.037-0.094 0.014 0.084c0.074 0.448 0.273 1.12 0.466 1.573 0.586 1.376 1.55 2.583 2.722 3.407 1.142 0.803 2.692 1.367 4.063 1.478 0.132 0.010 2.083 0.021 4.335 0.023 3.518 0.002 4.13-0.002 4.347-0.033zM18.489 16.724c-0.287-0.059-0.541-0.155-0.774-0.283l0.014 0.007c-0.461-0.27-0.788-0.742-0.82-1.184-0.010-0.155-0.010-0.156 0.023-0.073 0.208 0.529 0.61 0.955 1.163 1.233 0.254 0.128 0.394 0.18 0.69 0.257l0.264 0.068-0.216-0.002c-0.119-0.001-0.274-0.011-0.344-0.023zM21.12 14.324c-0.241-0.058-0.51-0.273-0.584-0.47-0.019-0.063-0.030-0.135-0.030-0.21 0-0.097 0.018-0.189 0.052-0.274l-0.002 0.005 0.038-0.070 0.017 0.096c0.044 0.24 0.214 0.446 0.457 0.554 0.072 0.032 0.256 0.080 0.41 0.107 0.229 0.040 0.376 0.083 0.465 0.136 0.007 0.004 0.014-0.104 0.017-0.239 0.005-0.237 0.004-0.244-0.035-0.186-0.083 0.122-0.2 0.216-0.271 0.216-0.095 0-0.513-0.152-0.628-0.228-0.143-0.094-0.188-0.186-0.188-0.383 0-0.14-0.009-0.176-0.054-0.224l-0.054-0.058 0.114-0.104c0.19-0.172 0.305-0.216 0.57-0.216 0.257 0 0.367 0.040 0.547 0.193 0.256 0.22 0.342 0.757 0.193 1.204l-0.055 0.164-0.444 0.004c-0.038 0.001-0.083 0.002-0.128 0.002-0.143 0-0.285-0.007-0.424-0.020l0.018 0.001zM21.41 13.474c0.085-0.043 0.135-0.137 0.132-0.248-0.002-0.069-0.022-0.105-0.089-0.167-0.14-0.129-0.328-0.092-0.41 0.080-0.108 0.228 0.139 0.454 0.367 0.335zM19.375 22.062c-0.11-0.172-0.198-0.372-0.253-0.585l-0.003-0.014c-0.080-0.356-0.008-0.927 0.152-1.203l0.060-0.106-0.2 0.015c-0.090 0.008-0.2 0.014-0.311 0.016l-0.005 0h-0.115v0.177c0 0.354-0.164 0.786-0.422 1.108l-0.134 0.168 0.245 0.017c0.134 0.009 0.316 0.038 0.405 0.065 0.18 0.055 0.404 0.192 0.529 0.323 0.1 0.105 0.118 0.112 0.052 0.019zM22.667 21.222c0.181-0.073 0.326-0.205 0.415-0.371l0.002-0.004c0.086-0.175 0.179-0.638 0.196-0.976 0.011-0.215 0.005-0.32-0.027-0.468-0.040-0.187-0.184-0.519-0.273-0.631l-0.045-0.057-0.118 0.084c-0.26 0.186-0.467 0.215-0.73 0.1-0.128-0.055-0.2-0.070-0.398-0.078l-0.243-0.010-0.080 0.14c-0.231 0.409-0.579 0.728-0.999 0.917l-0.014 0.005-0.184 0.084-0.017 0.128c-0.068 0.525 0.283 0.887 1.052 1.084 0.402 0.103 0.536 0.118 0.955 0.111 0.318-0.005 0.392-0.013 0.508-0.058zM3.356 17.502c0.22-1.066 1.028-1.779 2.4-2.12 0.343-0.085 0.907-0.196 1.933-0.382 1.346-0.243 1.761-0.372 2.257-0.703l0.3-0.2-1.266-0.007c-1.552-0.009-1.755 0.010-2.36 0.21-0.383 0.128-0.759 0.296-1.798 0.808-0.494 0.244-0.903 0.439-0.908 0.434-0.009-0.010 0.374-0.345 0.57-0.498 0.642-0.506 1.693-1.090 2.365-1.315 1.148-0.384 2.030-0.458 3.891-0.325l0.89 0.063 0.347-0.086c0.34-0.085 0.688-0.151 1.344-0.257 0.138-0.020 0.251-0.041 0.363-0.067l-0.029 0.006c0.005-0.005-0.011-0.016-0.036-0.025-0.139-0.048-0.259-0.109-0.369-0.184l0.005 0.003c-0.057-0.034-0.106-0.070-0.151-0.111l0.001 0.001c0-0.005 0.31-0.006 0.69-0.002 0.69 0.008 0.692 0.008 0.934-0.058 1.502-0.406 2.734-1.512 3.392-3.045 0.137-0.32 0.376-1.003 0.358-1.022-0.007-0.007-0.087 0.033-0.178 0.088-0.23 0.142-0.72 0.384-1.005 0.498-0.649 0.268-1.4 0.446-2.186 0.497l-0.021 0.001-0.214 0.016-0.17 0.16c-0.6 0.565-1.503 1.102-2.328 1.386-0.46 0.158-0.746 0.223-2.226 0.504-0.733 0.139-1.565 0.302-1.85 0.361-2.068 0.435-3.391 0.979-4.106 1.689-0.243 0.24-0.374 0.427-0.516 0.73-0.072 0.154-0.15 0.274-0.263 0.4-0.192 0.223-0.338 0.492-0.419 0.788l-0.003 0.014c-0.093 0.372-0.051 0.916 0.108 1.381 0.056 0.166 0.203 0.507 0.218 0.507 0.015-0.039 0.027-0.085 0.035-0.133l0.001-0.005zM2.536 16.634l-0.025-0.366-0.26-0.39c-0.11-0.159-0.264-0.399-0.414-0.643l-0.054-0.094c-0.19-0.319-0.63-1.166-0.753-1.452l-0.051-0.12 0.013 0.096c0.026 0.182 0.15 0.674 0.237 0.943 0.193 0.6 0.513 1.261 0.86 1.783 0.157 0.235 0.453 0.628 0.464 0.617 0-0.003 0-0.007 0-0.011 0-0.128-0.006-0.254-0.018-0.379l0.001 0.016zM2.526 15.234c-0.076-0.396-0.040-0.932 0.086-1.249 0.053-0.135 0.163-0.356 0.176-0.356 0.005 0 0.044 0.095 0.086 0.21 0.076 0.212 0.18 0.415 0.211 0.414 0.010 0 0.059-0.071 0.11-0.158 0.050-0.086 0.16-0.248 0.244-0.36l0.154-0.203-0.095-0.060c-0.306-0.193-0.585-0.636-0.705-1.117-0.117-0.475-0.153-1.2-0.088-1.794 0.018-0.162 0.028-0.3 0.022-0.306-0.017-0.016-0.35 0.399-0.558 0.692-0.327 0.459-0.617 0.982-0.846 1.537l-0.019 0.052-0.106 0.264 0.104 0.294c0.331 0.897 0.754 1.674 1.273 2.376l-0.018-0.026c-0.005-0.077-0.016-0.149-0.033-0.219l0.002 0.009zM3.995 13.359c-0.070-0.29-0.1-0.672-0.1-1.351 0-0.653 0.005-0.75 0.056-1.033 0.067-0.368 0.191-0.793 0.304-1.038 0.083-0.178 0.323-0.592 0.337-0.578 0.004 0.004-0.023 0.237-0.060 0.517-0.108 0.806-0.13 1.103-0.113 1.568 0.019 0.533 0.114 1.2 0.172 1.2 0.023 0 0.030-0.113 0.028-0.498-0.001-0.038-0.001-0.083-0.001-0.127 0-0.582 0.088-1.144 0.252-1.673l-0.011 0.040c0.2-0.698 0.622-1.618 1.010-2.196 0.028-0.039 0.055-0.083 0.078-0.13l0.002-0.005c0-0.008-0.063-0.005-0.139 0.006-0.922 0.141-1.671 0.76-2.045 1.69l-0.093 0.23 0.010-0.163c0.032-0.469 0.125-1.128 0.19-1.345 0.008-0.024-0.015 0.010-0.050 0.074-0.277 0.512-0.54 1.976-0.539 3.004 0 0.753 0.134 1.297 0.406 1.658 0.128 0.17 0.336 0.271 0.306 0.15zM5.269 12.44c0.212-0.104 0.503-0.187 1.772-0.507 0.555-0.14 1.138-0.296 1.297-0.349 0.613-0.202 1.137-0.526 1.569-0.945l-0.001 0.001c0.462-0.444 0.617-0.68 0.763-1.162 0.067-0.223 0.067-0.224 0.11-0.168 0.185 0.245 0.182 0.832-0.005 1.2-0.026 0.050-0.038 0.093-0.027 0.093 0.050 0 0.315-0.196 0.426-0.315 0.291-0.311 0.426-0.595 0.66-1.39 0.041-0.152 0.082-0.274 0.129-0.394l-0.009 0.026c0.021-0.024 0.108 0.176 0.16 0.373 0.028 0.104 0.040 0.24 0.040 0.44-0.003 0.329-0.063 0.58-0.214 0.879l-0.086 0.17 0.128-0.069c0.31-0.166 0.875-0.858 1.116-1.367 0.132-0.247 0.21-0.54 0.21-0.852 0-0.012-0-0.025-0-0.037l0 0.002c0.002-0.425-0.087-0.704-0.344-1.075-0.336-0.485-1.093-1.050-1.755-1.311-0.102-0.040-0.168-0.091-0.284-0.22-0.083-0.092-0.14-0.167-0.126-0.167 0.030 0 0.472 0.12 0.77 0.209 0.705 0.21 1.258 0.52 1.684 0.942 0.493 0.488 0.727 1.001 0.724 1.586-0.003 0.518-0.185 0.988-0.586 1.519-0.078 0.102-0.14 0.19-0.14 0.197 0 0.020 0.384-0.152 0.624-0.278 0.303-0.16 0.792-0.49 0.98-0.658 0.261-0.237 0.61-0.82 0.76-1.272 0.145-0.441 0.169-0.936 0.063-1.345-0.093-0.361-0.33-0.777-0.625-1.099l-0.127-0.138h0.122c0.066 0 0.127-0.010 0.134-0.022 0.030-0.048-0.040-0.15-0.148-0.219-0.186-0.118-0.263-0.128-0.606-0.085-0.385 0.049-0.999 0.050-1.296 0.001-0.257-0.042-0.543-0.132-0.681-0.214l-0.094-0.056 0.873-0.012c0.665-0.010 0.921-0.022 1.075-0.052 0.223-0.043 0.38-0.103 0.432-0.167 0.030-0.036 0.023-0.051-0.060-0.138-0.268-0.277-0.767-0.62-1.27-0.875-0.8-0.415-1.747-0.659-2.75-0.659-0.013 0-0.026 0-0.039 0h0.002c-0.387 0-0.86 0.040-1.068 0.089l-0.060 0.014 0.072-0.077c0.094-0.1 0.408-0.254 0.64-0.312 0.41-0.104 0.979-0.14 1.533-0.1 0.774 0.058 1.33 0.2 2.077 0.532 0.158 0.070 0.308 0.127 0.333 0.125 0.060-0.005 0.134-0.074 0.171-0.162l0.031-0.072 0.075 0.161c0.041 0.090 0.075 0.173 0.075 0.188 0 0.059 0.044-0.007 0.072-0.11 0.010-0.046 0.028-0.086 0.053-0.122l-0.001 0.001c0.024-0.016 0.087 0.125 0.166 0.37l0.056 0.173 0.124-0.123c0.147-0.145 0.151-0.14 0.172 0.174l0.013 0.208 0.11-0.069c0.062-0.038 0.118-0.060 0.126-0.052 0.008 0.010 0.038 0.093 0.068 0.185 0.087 0.27 0.205 0.494 0.342 0.652 0.070 0.081 0.166 0.219 0.212 0.306s0.094 0.155 0.105 0.152c0.038-0.012 0.204-0.307 0.284-0.502 0.024-0.071 0.056-0.133 0.096-0.189l-0.002 0.002c0.033 0 0.052 0.267 0.040 0.567-0.004 0.044-0.006 0.096-0.006 0.149s0.002 0.104 0.006 0.155l-0-0.007c0.048-0.027 0.088-0.055 0.127-0.086l-0.002 0.002c0.039-0.031 0.082-0.059 0.129-0.082l0.004-0.002c0.051 0-0.061 0.75-0.145 0.967-0.032 0.080 0.035 0.040 0.191-0.116 0.087-0.086 0.158-0.143 0.158-0.126 0 0.061-0.141 0.586-0.192 0.716-0.056 0.133-0.109 0.24-0.166 0.343l0.010-0.019c-0.089 0.156-0.169 0.337-0.231 0.526l-0.006 0.021-0.017 0.067 0.117-0.080c0.128-0.088 0.19-0.115 0.893-0.391 0.621-0.244 0.971-0.413 1.112-0.539 0.15-0.134 0.233-0.297 0.233-0.46v-0.124l-0.069 0.094c-0.132 0.181-0.446 0.44-0.736 0.61l-0.096 0.056 0.075-0.082c0.318-0.35 0.536-0.836 0.537-1.202 0-0.132-0.034-0.324-0.076-0.427-0.031-0.075-0.032-0.073-0.21 0.363-0.205 0.504-0.4 0.908-0.531 1.102-0.194 0.286-0.483 0.544-0.658 0.588-0.060 0.015-0.064 0.012-0.042-0.030 0.041-0.076 0.097-0.321 0.122-0.536 0.014-0.112 0.030-0.669 0.038-1.237 0.013-1.012 0.030-1.281 0.093-1.551 0.031-0.133 0.031-0.136-0.072-0.408-0.065-0.175-0.122-0.308-0.183-0.438l0.015 0.036c-0.067-0.134-0.215-0.34-0.244-0.34-0.010 0-0.070 0.12-0.137 0.267l-0.12 0.267-0.012-0.225c-0.010-0.18-0.022-0.24-0.064-0.298-0.122-0.152-0.267-0.28-0.43-0.381l-0.007-0.004c-0.203-0.125-0.44-0.246-0.687-0.348l-0.034-0.012c-0.057-0.017-0.057-0.016-0.040 0.112 0.009 0.070 0.023 0.155 0.030 0.186 0.014 0.055 0.010 0.057-0.077 0.040-0.163-0.033-0.303-0.116-0.406-0.233l-0.001-0.001c-0.061-0.066-0.117-0.115-0.124-0.108 0.012 0.084 0.033 0.159 0.062 0.23l-0.002-0.006c0.038 0.117 0.066 0.218 0.060 0.224-0.016 0.016-0.182-0.048-0.254-0.1-0.071-0.072-0.133-0.153-0.184-0.241l-0.003-0.006c-0.065-0.109-0.137-0.203-0.22-0.287l0 0c-0.156-0.133-0.228-0.15-0.97-0.227-0.165-0.012-0.317-0.052-0.458-0.114l0.009 0.003c-0.036-0.015-0.034 0 0.016 0.114 0.032 0.072 0.066 0.17 0.074 0.216l0.016 0.084-0.104-0.020c-0.16-0.030-0.355-0.108-0.534-0.216-0.158-0.096-0.169-0.098-0.451-0.116-0.075-0.006-0.164-0.009-0.252-0.009-0.258 0-0.509 0.027-0.751 0.078l0.024-0.004-0.18 0.044 0.18 0.020c0.24 0.025 0.45 0.092 0.577 0.185 0.103 0.074 0.189 0.16 0.19 0.191 0 0.008-0.19 0.020-0.425 0.027-0.676 0.018-1.102 0.125-1.701 0.425-0.3 0.15-1.124 0.682-1.328 0.856-0.12 0.103-0.339 0.392-0.34 0.447 0 0.030 0.046 0.054 0.175 0.090 0.97 0.279 1.577 0.984 1.697 1.97 0.087 0.709 0.074 1.148-0.045 1.62-0.183 0.725-0.656 1.424-1.186 1.753-0.195 0.121-0.6 0.277-0.721 0.278h-0.068l0.124-0.136c0.29-0.317 0.5-0.72 0.642-1.233 0.079-0.285 0.087-0.586 0.020-0.812-0.048-0.163-0.063-0.165-0.11-0.017-0.071 0.205-0.157 0.382-0.261 0.547l0.006-0.011c-0.050 0.077-0.387 0.432-0.766 0.81-0.862 0.856-1.223 1.301-1.56 1.919-0.255 0.473-0.444 1.023-0.536 1.606l-0.004 0.029c-0.050 0.396-0.037 1.068 0.021 1.068 0.010 0 0.094-0.037 0.188-0.084zM16.696 8.84c0.621-0.209 1.103-0.434 1.51-0.703 0.294-0.194 0.681-0.575 0.9-0.884 0.214-0.304 0.525-0.963 0.477-1.012-0.027-0.026-0.45 0.134-0.592 0.224-0.153 0.098-0.245 0.172-0.698 0.561-0.446 0.383-0.535 0.448-0.763 0.557-0.238 0.115-0.38 0.126-0.532 0.040-0.038-0.017-0.070-0.040-0.098-0.068l-0-0c0-0.007 0.044-0.040 0.096-0.072 0.104-0.065 0.304-0.258 0.285-0.277-0.12 0.049-0.222 0.102-0.318 0.163l0.008-0.005c-0.812 0.463-1.238 0.85-1.308 1.192-0.020 0.098 0.005 0.1 0.263 0.016 0.628-0.205 1.372-0.596 2.308-1.213 0.272-0.179 0.406-0.252 0.528-0.287 0.051-0.019 0.11-0.031 0.172-0.036l0.002-0c0.030 0.030-0.27 0.375-0.513 0.592-0.608 0.542-1.16 0.908-1.798 1.189-0.16 0.070-0.279 0.128-0.265 0.128s0.165-0.046 0.336-0.105zM17.586 5.052c0.256-0.385 0.336-0.674 0.37-1.33 0.032-0.619 0.098-0.988 0.265-1.47 0.040-0.114 0.067-0.21 0.062-0.216-0.025-0.025-0.266 0.291-0.35 0.46-0.24 0.487-0.428 1.344-0.517 2.36-0.020 0.222-0.036 0.413-0.036 0.425 0 0.042 0.1-0.070 0.206-0.229z"/>
</svg>