<svg xmlns="http://www.w3.org/2000/svg" version="1.1" width="24" height="24" viewBox="0 0 24 24">
<path d="M13.7 19.55l5.88-5.89 3.35 3.36c0.646 0.646 1.046 1.539 1.046 2.525s-0.4 1.879-1.046 2.525l-0.83 0.83c-0.646 0.646-1.539 1.046-2.525 1.046s-1.879-0.4-2.525-1.046l-0-0zM22.92 1.9l-0.83-0.83c-0.646-0.646-1.539-1.046-2.525-1.046s-1.879 0.4-2.525 1.046l-0 0-5.040 5.050-5.050-5.050c-0.646-0.646-1.539-1.046-2.525-1.046s-1.879 0.4-2.525 1.046l-0.83 0.83c-0.646 0.646-1.046 1.539-1.046 2.525s0.4 1.879 1.046 2.525l5.050 5.050-5.050 5.050c-0.646 0.646-1.046 1.539-1.046 2.525s0.4 1.879 1.046 2.525l0.83 0.83c0.646 0.646 1.539 1.046 2.525 1.046s1.879-0.4 2.525-1.046l15.98-15.98c0.643-0.646 1.041-1.536 1.041-2.52 0-0.989-0.402-1.883-1.051-2.53l-0-0z"/>
</svg>