<svg xmlns="http://www.w3.org/2000/svg" version="1.1" width="24" height="24" viewBox="0 0 24 24">
<path d="M13.312 12c0-6.282-5.092-11.375-11.375-11.375h-1.937v5h1.938c3.521 0 6.375 2.854 6.375 6.375s-2.854 6.375-6.375 6.375h-1.938v5h1.938c6.281 0 11.374-5.093 11.374-11.375zM24 7.563c0-3.832-3.107-6.938-6.938-6.938h-8c1.97 1.247 3.557 2.935 4.651 4.93l0.035 0.070h3.314c1.069 0 1.938 0.868 1.938 1.938s-0.869 1.938-1.938 1.938h-1.938c0.313 1.652 0.313 3.348 0 5h1.938c1.068 0 1.938 0.867 1.938 1.938s-0.869 1.938-1.938 1.938h-3.314c-1.129 2.065-2.716 3.753-4.631 4.968l-0.055 0.032h8c1.621 0 3.191-0.568 4.438-1.605 2.943-2.45 3.346-6.824 0.895-9.77 0.998-1.194 1.605-2.746 1.605-4.439v-0z"/>
</svg>