<svg xmlns="http://www.w3.org/2000/svg" version="1.1" width="24" height="24" viewBox="0 0 24 24">
<path d="M16.331 18.171v-1.111l-0.022 0.010c-0.25 0.121-0.522 0.19-0.801 0.203-0.027 0.002-0.058 0.003-0.090 0.003-0.27 0-0.519-0.090-0.719-0.243l0.003 0.002c-0.162-0.126-0.284-0.295-0.35-0.491l-0.002-0.007c-0.037-0.112-0.059-0.24-0.059-0.374 0-0.104 0.013-0.205 0.038-0.302l-0.002 0.008c0.052-0.225 0.178-0.426 0.357-0.569 0.16-0.134 0.355-0.218 0.562-0.242 0.062-0.007 0.133-0.011 0.206-0.011 0.313 0 0.607 0.078 0.865 0.214l-0.010-0.005 0.024 0.013v-1.117l-0.051-0.014c-0.26-0.086-0.559-0.135-0.87-0.135-0.050 0-0.099 0.001-0.148 0.004l0.007-0c-0.329 0.008-0.638 0.084-0.918 0.212l0.015-0.006c-0.287 0.132-0.54 0.327-0.739 0.571-0.299 0.375-0.48 0.856-0.48 1.379 0 0.5 0.165 0.961 0.444 1.332l-0.004-0.006c0.295 0.378 0.709 0.645 1.175 0.756 0.491 0.12 1.006 0.102 1.487-0.052l0.082-0.023zM5.336 18.171v-1.111l-0.022 0.010c-0.25 0.121-0.522 0.19-0.801 0.203-0.027 0.002-0.059 0.004-0.091 0.004-0.27 0-0.519-0.090-0.718-0.243l0.003 0.002c-0.162-0.126-0.284-0.295-0.349-0.491l-0.002-0.007c-0.038-0.112-0.060-0.241-0.060-0.375 0-0.104 0.013-0.204 0.038-0.3l-0.002 0.008c0.052-0.225 0.177-0.426 0.357-0.569 0.16-0.134 0.355-0.218 0.562-0.242 0.062-0.007 0.133-0.011 0.206-0.011 0.313 0 0.607 0.078 0.865 0.214l-0.010-0.005 0.024 0.013v-1.117l-0.051-0.014c-0.26-0.086-0.559-0.135-0.87-0.135-0.050 0-0.099 0.001-0.148 0.004l0.007-0c-0.329 0.009-0.638 0.084-0.918 0.212l0.015-0.006c-0.294 0.137-0.542 0.33-0.737 0.567l-0.003 0.004c-0.299 0.375-0.479 0.856-0.479 1.379 0 0.499 0.165 0.96 0.442 1.332l-0.004-0.006c0.29 0.37 0.696 0.639 1.162 0.753l0.014 0.003c0.491 0.12 1.005 0.102 1.487-0.052l0.083-0.023zM9.26 17.249l-0.004 0.957 0.070 0.012c0.22 0.041 0.441 0.069 0.664 0.085 0.195 0.019 0.391 0.022 0.587 0.012 0.187-0.014 0.372-0.049 0.551-0.104 0.21-0.060 0.405-0.163 0.571-0.305 0.147-0.127 0.261-0.287 0.33-0.47l0.003-0.008c0.055-0.14 0.088-0.302 0.088-0.471 0-0.176-0.035-0.344-0.098-0.498l0.003 0.009c-0.067-0.165-0.169-0.304-0.297-0.413l-0.001-0.001c-0.123-0.11-0.269-0.197-0.429-0.252l-0.009-0.003-0.722-0.268c-0.087-0.038-0.156-0.104-0.196-0.186l-0.001-0.002c-0.014-0.030-0.022-0.065-0.022-0.102 0-0.043 0.011-0.084 0.031-0.119l-0.001 0.001c0.037-0.061 0.090-0.109 0.152-0.141l0.002-0.001c0.075-0.037 0.162-0.063 0.253-0.074l0.004-0c0.153-0.022 0.308-0.021 0.46 0.005 0.18 0.020 0.358 0.051 0.533 0.096l0.038 0.008v-0.883l-0.069-0.015c-0.148-0.038-0.332-0.072-0.52-0.095l-0.023-0.002c-0.111-0.015-0.239-0.024-0.369-0.024-0.122 0-0.242 0.008-0.359 0.022l0.014-0.001c-0.3 0.027-0.585 0.143-0.821 0.33-0.16 0.126-0.281 0.293-0.351 0.484-0.104 0.29-0.105 0.608 0 0.899 0.054 0.145 0.14 0.274 0.252 0.381 0.097 0.093 0.207 0.173 0.327 0.236 0.157 0.084 0.324 0.149 0.497 0.195 0.057 0.017 0.114 0.035 0.17 0.054l0.085 0.031 0.024 0.010c0.084 0.030 0.162 0.078 0.226 0.14 0.045 0.042 0.080 0.094 0.101 0.151 0.007 0.025 0.011 0.053 0.011 0.082 0 0.028-0.004 0.055-0.010 0.081l0-0.002c-0.028 0.087-0.087 0.156-0.164 0.197l-0.002 0.001c-0.080 0.042-0.172 0.072-0.271 0.085l-0.005 0.001c-0.094 0.015-0.202 0.024-0.313 0.024-0.040 0-0.080-0.001-0.12-0.003l0.005 0c-0.212-0.017-0.403-0.043-0.59-0.079l0.033 0.005c-0.158-0.033-0.255-0.056-0.351-0.081l0.064 0.014zM6.785 18.244h1.050v-4.167h-1.050zM18.947 15.308c0.187-0.153 0.428-0.246 0.692-0.246 0.342 0 0.647 0.157 0.848 0.402l0.002 0.002c0.154 0.187 0.247 0.429 0.247 0.692 0 0.342-0.157 0.647-0.402 0.847l-0.002 0.002-0.017 0.014c-0.183 0.141-0.415 0.226-0.667 0.226-0.605 0-1.096-0.491-1.096-1.096 0-0.338 0.153-0.641 0.394-0.842l0.002-0.001zM17.422 16.162c0.019 1.196 0.994 2.159 2.193 2.159 0.168 0 0.331-0.019 0.488-0.054l-0.015 0.003c0.998-0.194 1.741-1.061 1.741-2.102 0-0.776-0.413-1.455-1.031-1.83l-0.009-0.005c-0.33-0.207-0.731-0.33-1.161-0.33-1.202 0-2.18 0.961-2.206 2.157l-0 0.002zM22.961 10.728c0.013 0.277 0.24 0.497 0.519 0.497s0.507-0.22 0.519-0.496l0-0.001v-1.155c-0.013-0.277-0.24-0.497-0.519-0.497s-0.507 0.22-0.519 0.496l-0 0.001v1.155zM20.117 10.728c0.021 0.271 0.246 0.482 0.52 0.482s0.499-0.212 0.52-0.481l0-0.002v-2.589c-0.017-0.274-0.244-0.489-0.52-0.489s-0.503 0.215-0.52 0.487l-0 0.002v2.589zM17.231 11.771c0.021 0.27 0.246 0.482 0.519 0.482s0.498-0.211 0.519-0.48l0-0.002v-5.601c-0.013-0.277-0.24-0.497-0.519-0.497s-0.507 0.22-0.519 0.496l-0 0.001v5.601zM14.393 10.728c0.017 0.274 0.244 0.489 0.52 0.489s0.503-0.215 0.52-0.487l0-0.002v-2.589c-0.013-0.277-0.24-0.497-0.519-0.497s-0.507 0.22-0.519 0.496l-0 0.001v2.589zM11.494 10.728c0.027 0.265 0.249 0.471 0.519 0.471s0.493-0.205 0.519-0.469l0-0.002v-1.155c-0.013-0.277-0.24-0.497-0.519-0.497s-0.507 0.22-0.519 0.496l-0 0.001v1.155zM8.624 10.728c0.013 0.277 0.24 0.497 0.519 0.497s0.507-0.22 0.519-0.496l0-0.001v-2.589c-0.013-0.277-0.24-0.497-0.519-0.497s-0.507 0.22-0.519 0.496l-0 0.001v2.589zM5.737 11.771c0.013 0.277 0.24 0.497 0.519 0.497s0.507-0.22 0.519-0.496l0-0.001v-5.601c-0.013-0.277-0.24-0.497-0.519-0.497s-0.507 0.22-0.519 0.496l-0 0.001v5.601zM2.876 10.728c0.024 0.268 0.248 0.476 0.52 0.476s0.496-0.208 0.52-0.474l0-0.002v-2.589c-0.013-0.277-0.24-0.497-0.519-0.497s-0.507 0.22-0.519 0.496l-0 0.001v2.589zM0 10.728c0.021 0.27 0.246 0.482 0.519 0.482s0.498-0.211 0.519-0.48l0-0.002v-1.155c-0.013-0.277-0.24-0.497-0.519-0.497s-0.507 0.22-0.519 0.496l-0 0.001v1.155z"/>
</svg>