<svg xmlns="http://www.w3.org/2000/svg" version="1.1" width="24" height="24" viewBox="0 0 24 24">
<path d="M11.976 0c-0.134 0.003-0.255 0.007-0.376 0.013l0.029-0.001c-0.323 0.021-0.771 0.063-1.129 0.11-3.29 0.448-6.096 2.1-7.993 4.56-0.439 0.564-0.844 1.2-1.188 1.872l-0.032 0.068c-0.028 0.049-0.086 0.166-0.142 0.285l-0.031 0.073c-0.092 0.198-0.179 0.4-0.261 0.603-0.077 0.177-0.175 0.438-0.263 0.703l-0.025 0.085-0.045 0.143c-0.328 1.038-0.518 2.233-0.52 3.471v0.038c0.013 6.618 5.381 11.977 12 11.977 0 0 0 0 0 0v0c0 0 0 0 0 0 6.201 0 11.304-4.704 11.934-10.738l0.004-0.052 0.003-0.024c0.037-0.35 0.058-0.756 0.058-1.167v-0.049c-0.006-1.504-0.287-2.941-0.797-4.264l0.028 0.082c-0.040-0.105-0.081-0.21-0.125-0.313-0.102-0.247-0.178-0.414-0.257-0.579l0.031 0.072c-1.487-3.15-4.299-5.59-7.698-6.506-0.76-0.208-1.978-0.39-2.813-0.444-0.082-0.006-0.202-0.013-0.322-0.017l-0.023-0.001zM14.297 2.88c0.166 0.001 0.377 0.056 0.675 0.159 1.782 0.611 3.773 2.157 4.856 3.764 0.752 1.118 1.337 2.428 1.337 2.987 0 0.358-0.35 0.681-0.725 0.681-0.35 0-0.708-0.305-0.804-0.68-0.13-0.525-0.83-1.852-1.345-2.534-0.917-1.205-2.332-2.262-3.72-2.777-0.979-0.367-1.232-0.795-0.778-1.336 0.152-0.182 0.29-0.267 0.504-0.264zM10.412 4.28c0.26 0.001 0.495 0.056 0.7 0.165 1.31 0.664 1.24 2.568-0.122 3.092-1.686 0.637-2.533 1.319-3.084 2.437-1.153 2.34-0.21 5.1 2.123 6.218 1.712 0.821 3.668 0.533 5.030-0.725 0.62-0.576 0.961-1.074 1.267-1.878 0.428-1.126 0.917-1.545 1.79-1.545 1.119 0 1.887 0.943 1.66 2.026-0.463 2.13-2.253 4.27-4.42 5.275-1.196 0.55-1.851 0.69-3.362 0.69-1.485 0-2.131-0.131-3.284-0.655-3.144-1.424-5.075-4.83-4.673-8.21 0.394-3.163 2.557-5.735 5.454-6.717l0.057-0.017c0.315-0.105 0.603-0.157 0.864-0.156zM13.875 5.24c0.217 0.004 0.499 0.105 0.914 0.306 1.686 0.803 3.083 2.279 3.834 4.035 0.28 0.672 0.14 1.109-0.41 1.283-0.42 0.123-0.7-0.104-1.066-0.864-0.681-1.441-1.65-2.437-3.013-3.11-0.795-0.384-0.891-0.471-0.97-0.847-0.035-0.2 0-0.314 0.184-0.532 0.157-0.184 0.31-0.276 0.527-0.271zM13.477 7.683c0.23-0.001 0.496 0.108 0.84 0.334 0.961 0.629 2.044 1.983 2.044 2.55 0 0.289-0.28 0.656-0.559 0.725-0.376 0.097-0.646-0.087-1.040-0.707-0.427-0.655-0.925-1.153-1.44-1.415-0.446-0.227-0.577-0.402-0.577-0.769-0.001-0.012-0.001-0.026-0.001-0.041 0-0.195 0.097-0.368 0.245-0.473l0.002-0.001c0.126-0.122 0.297-0.198 0.486-0.203l0.001-0z"/>
</svg>