<svg xmlns="http://www.w3.org/2000/svg" version="1.1" width="24" height="24" viewBox="0 0 24 24">
<path d="M21.864 5.266c0.034-0.007 0.073-0.011 0.113-0.011 0.207 0 0.389 0.106 0.496 0.266l0.001 0.002c0 0 0.467 0.76 0.744 1.365 0.275 0.604 0.542 1.453 0.542 1.453 0.014 0.048 0.022 0.103 0.022 0.16 0 0.19-0.089 0.359-0.229 0.467l-0.001 0.001-1.505 1.073c-0.175 0.14-0.286 0.353-0.286 0.593 0 0.019 0.001 0.037 0.002 0.056l-0-0.002c0 0 0.084 0.573 0.096 1.066 0.010 0.485-0.040 1.045-0.040 1.045-0 0.005-0 0.010-0 0.015 0 0.252 0.124 0.475 0.314 0.611l0.002 0.002 1.561 0.993c0.192 0.122 0.3 0.398 0.24 0.618 0 0-0.222 0.862-0.467 1.48-0.242 0.62-0.668 1.4-0.668 1.4-0.105 0.177-0.294 0.293-0.511 0.293-0.030 0-0.059-0.002-0.087-0.006l0.003 0-1.819-0.337c-0.029-0.004-0.062-0.006-0.096-0.006-0.224 0-0.425 0.097-0.564 0.25l-0.001 0.001c0 0-0.381 0.489-0.754 0.861-0.414 0.415-0.997 0.857-0.997 0.857-0.159 0.14-0.259 0.344-0.259 0.571 0 0.030 0.002 0.061 0.005 0.090l-0-0.004 0.306 1.824c0.003 0.022 0.005 0.048 0.005 0.074 0 0.221-0.121 0.413-0.3 0.515l-0.003 0.002c0 0-0.79 0.412-1.414 0.645-0.623 0.233-1.488 0.44-1.488 0.44-0.035 0.008-0.076 0.012-0.118 0.012-0.204 0-0.384-0.103-0.491-0.261l-0.001-0.002-0.967-1.576c-0.138-0.199-0.366-0.328-0.623-0.328-0 0-0.001 0-0.001 0h0c0 0-0.496 0.040-0.949 0.025-0.466-0.015-0.986-0.090-0.986-0.090-0.017-0.001-0.037-0.002-0.057-0.002-0.238 0-0.45 0.11-0.588 0.282l-0.001 0.001-1.076 1.506c-0.11 0.14-0.278 0.229-0.468 0.229-0.057 0-0.112-0.008-0.164-0.023l0.004 0.001c0 0-0.85-0.267-1.456-0.543-0.605-0.276-1.362-0.74-1.362-0.74-0.162-0.107-0.267-0.289-0.267-0.495 0-0.041 0.004-0.080 0.012-0.119l-0.001 0.004 0.385-1.599c0.080-0.331 0.338-0.796 0.579-1.037l3.98-3.993c0.515 0.289 1.13 0.459 1.784 0.459 2.043 0 3.7-1.657 3.7-3.7 0-0.654-0.17-1.269-0.468-1.802l0.010 0.019 3.988-3.989c0.241-0.24 0.705-0.5 1.036-0.579zM2.134 18.733c-0.034 0.007-0.073 0.011-0.113 0.011-0.207 0-0.389-0.106-0.496-0.266l-0.001-0.002c0 0-0.467-0.758-0.743-1.364-0.276-0.605-0.543-1.453-0.543-1.453-0.014-0.048-0.022-0.103-0.022-0.16 0-0.19 0.089-0.358 0.228-0.467l0.001-0.001 1.506-1.073c0.174-0.14 0.285-0.353 0.285-0.592 0-0.019-0.001-0.038-0.002-0.057l0 0.003c0 0-0.082-0.573-0.095-1.066-0.010-0.485 0.040-1.046 0.040-1.046 0-0.005 0-0.010 0-0.015 0-0.252-0.124-0.475-0.314-0.611l-0.002-0.002-1.56-0.992c-0.155-0.108-0.255-0.286-0.255-0.487 0-0.046 0.005-0.091 0.015-0.134l-0.001 0.004c0 0 0.223-0.863 0.466-1.483 0.244-0.617 0.67-1.4 0.67-1.4 0.105-0.176 0.294-0.292 0.51-0.292 0.030 0 0.059 0.002 0.087 0.006l-0.003-0 1.819 0.337c0.029 0.004 0.063 0.006 0.097 0.006 0.223 0 0.424-0.096 0.563-0.25l0.001-0.001c0 0 0.38-0.489 0.753-0.862 0.414-0.414 0.997-0.855 0.997-0.855 0.159-0.14 0.259-0.344 0.259-0.572 0-0.031-0.002-0.062-0.006-0.092l0 0.004-0.306-1.822c-0.003-0.022-0.005-0.048-0.005-0.075 0-0.221 0.121-0.413 0.3-0.515l0.003-0.002c0 0 0.79-0.412 1.414-0.647 0.623-0.231 1.488-0.438 1.488-0.438 0.036-0.008 0.078-0.012 0.12-0.012 0.204 0 0.384 0.103 0.49 0.26l0.001 0.002 0.966 1.578c0.138 0.198 0.365 0.326 0.622 0.326 0.001 0 0.002 0 0.002 0h-0c0 0 0.496-0.039 0.949-0.024 0.466 0.015 0.986 0.091 0.986 0.091 0.017 0.001 0.036 0.002 0.056 0.002 0.238 0 0.451-0.111 0.589-0.284l0.001-0.001 1.075-1.505c0.11-0.14 0.279-0.23 0.469-0.23 0.057 0 0.112 0.008 0.163 0.023l-0.004-0.001c0 0 0.85 0.268 1.456 0.544 0.605 0.275 1.362 0.74 1.362 0.74 0.162 0.108 0.267 0.289 0.267 0.495 0 0.041-0.004 0.080-0.012 0.118l0.001-0.004-0.385 1.599c-0.117 0.403-0.316 0.75-0.58 1.038l0.002-0.002-3.981 3.994c-0.515-0.289-1.13-0.459-1.785-0.459-2.043 0-3.7 1.657-3.7 3.7 0 0.655 0.17 1.27 0.469 1.804l-0.010-0.019-3.988 3.987c-0.24 0.242-0.705 0.5-1.036 0.58z"/>
</svg>