<svg xmlns="http://www.w3.org/2000/svg" version="1.1" width="24" height="24" viewBox="0 0 24 24">
<path d="M13.672 8.86c-0.446-0.354-1.698 0.239-2.052 1.118-0.445 1.117-1.105 2.747-1.752 3.461-0.683 0.751-0.751 0.171-0.683-0.262 0.158-1.020 1.153-3.382 1.697-4.048-0.202-0.299-1.52-0.256-2.436 1.166-0.342 0.537-1.123 2.326-1.99 3.736-0.19 0.305-0.428 0.092-0.244-0.622 0.207-0.825 0.818-3.089 1.605-4.872 2.064-0.409 4.255-0.696 5.934-0.702 0.226-0.061 0.378-0.263 0-0.275-1.447-0.049-3.62 0.122-5.653 0.379 0.391-0.782 0.812-1.404 1.239-1.667-0.464-0.293-1.404-0.177-1.941 0.617-0.235 0.351-0.468 0.759-0.675 1.182l-0.027 0.063c-1.49 0.232-2.766 0.494-3.413 0.739-0.671 0.256-0.598 1.068-0.189 0.915 0.849-0.317 1.996-0.647 3.272-0.94-0.812 1.832-1.447 3.993-1.599 4.872-0.379 2.137 0.946 2.124 1.593 1.282 0.702-0.922 2.167-4.164 2.393-4.505 0.067-0.116 0.159-0.055 0.11 0.048-1.636 3.266-1.496 4.53-0.171 4.249 0.598-0.128 1.63-1.153 1.899-1.685 0.055-0.128 0.171-0.116 0.146-0.061-1.038 2.693-2.356 4.872-3.241 5.556-0.806 0.616-1.405-0.721 1.446-2.638 0.422-0.286 0.226-0.677-0.25-0.543-1.471 0.232-5.683 1.569-7.533 2.851-0.141 0.098-0.269 0.177-0.263 0.379 0.006 0.116 0.208 0.073 0.306 0.012 2.393-1.435 4.352-1.996 6.599-2.467 0.030 0.013 0.067 0.019 0.097 0.007 0.104-0.025 0.098 0.030 0.031 0.073-0.090 0.054-0.202 0.113-0.317 0.167l-0.025 0.010c-1.514 0.592-2.43 1.898-2.106 2.564 0.275 0.574 1.758 0.366 2.46-0.012 1.722-0.934 2.973-2.766 3.828-5.293 0.745-2.241 1.685-4.78 1.905-4.854zM3.696 16.095c0.623-0.745 0.696-1.514 0.214-2.943-0.305-0.903-0.812-1.599-0.44-2.161 0.397-0.598 1.24-0.018 0.538 0.781l0.14 0.098c0.843 0.098 1.258-1.056 0.629-1.386-1.661-0.867-3.114 0.8-2.473 2.729 0.275 0.818 0.66 1.685 0.348 2.375-0.268 0.592-0.787 0.94-1.135 0.952-0.727 0.037-0.244-1.63 0.592-2.045 0.073-0.036 0.177-0.085 0.079-0.207-1.031-0.116-1.636 0.36-1.984 1.025-1.013 1.935 1.923 2.65 3.492 0.782zM23.677 14.031c-2.802-0.366-8.845 0.122-11.513 0.831-0.794 0.207-0.574 0.628-0.171 0.549 0.006 0 0.177-0.043 0.183-0.043 2.192-0.427 7.509-0.8 10.61-0.207 0.373 0.067 1.49-1.050 0.891-1.13zM14.453 13.702c0.781-0.391 1.941-2.809 2.704-4.133 0.055-0.098 0.153-0.019 0.098 0.048-1.929 3.321-1.111 3.706-0.348 3.657 1.020-0.061 1.96-1.526 2.167-1.856 0.086-0.128 0.135-0.024 0.086 0.068-0.049 0.152-0.226 0.421-0.391 0.787-0.232 0.519 0.012 0.72 0.214 0.812 0.317 0.153 1.184 0.055 1.318-0.476-0.866-0.018 1.209-4.109 1.423-4.359-0.58-0.336-1.477 0.031-1.887 0.836-0.872 1.728-1.605 3.12-2.063 3.144-0.891 0.049 1.026-3.852 1.337-3.974-0.189-0.275-1.404-0.159-2.082 0.891-0.244 0.379-1.733 3.016-2.1 3.45-0.647 0.769-0.696 0.11-0.513-0.66 0.061-0.262 0.165-0.598 0.3-0.97 0.427-0.965 0.885-1.27 1.166-1.582 1.886-2.093 2.967-3.791 2.539-4.456-0.378-0.592-1.642-0.33-2.454 0.891-1.496 2.241-2.875 5.311-3.052 6.716-0.171 1.404 0.848 1.507 1.538 1.166zM21.828 10.405c0.238 0.586 0.598 1.166 0.384 1.679-0.177 0.439-0.409 0.623-0.665 0.665-0.36 0.061-0.263-1.068 0.354-1.404 0.055-0.030 0.134-0.177 0.061-0.262-0.781-0.043-1.221 0.329-1.459 0.824-0.69 1.447 1.563 1.843 2.668 0.421 0.439-0.568 0.458-1.129 0.036-2.149-0.268-0.647-0.677-1.129-0.421-1.557 0.275-0.451 0.934-0.061 0.44 0.544l0.11 0.061c0.641 0.036 0.903-0.818 0.415-1.032-1.288-0.549-2.491 0.836-1.923 2.21zM15.247 9.593c0.067-0.153 0.11-0.195 0.226-0.452 0.671-1.477 1.514-3.034 2.094-3.76 0.36-0.379 0.866 0.134-0.049 1.538-0.553 0.851-1.15 1.592-1.815 2.267l0.002-0.002v0.006c-0.171 0.189-0.324 0.348-0.391 0.44-0.049 0.061-0.104 0.049-0.067-0.037z"/>
</svg>