<svg xmlns="http://www.w3.org/2000/svg" version="1.1" width="24" height="24" viewBox="0 0 24 24">
<path d="M7.849 7.513c-0.599 0-1.085 0.486-1.085 1.085s0.486 1.085 1.085 1.085c0.599 0 1.084-0.485 1.085-1.084v-0.001c0-0.599-0.486-1.085-1.085-1.085zM4.942 10.553v1.418h1.948v4.793h0.704v-2.724h0.509v2.724h0.71v-6.211zM14.122 11.089h-0.022c-0.287-0.416-0.862-0.702-1.639-0.702-1.489 0-2.797 1.224-2.786 3.319 0 1.936 1.181 3.201 2.659 3.201 0.797 0 1.56-0.361 1.935-1.040l0.117 0.893h1.669v-9.109h-1.934zM14.122 13.993c0 0.158-0.012 0.313-0.034 0.465l0.002-0.017c-0.11 0.532-0.574 0.925-1.13 0.925h-0.013c-0.797 0-1.318-0.659-1.318-1.723 0-0.978 0.446-1.767 1.329-1.767 0.606 0 1.022 0.437 1.138 0.947 0.014 0.090 0.023 0.194 0.023 0.3l-0.001 0.054v-0.003zM4.802 8.89l0.475-1.6c-0.105-0.037-0.233-0.072-0.366-0.098l-0.018-0.003-0.019-0.003c-0.245-0.058-0.526-0.092-0.815-0.092-0.005 0-0.010 0-0.015 0h0.001c-0.002 0-0.004 0-0.007 0-0.384 0-0.755 0.058-1.104 0.166l0.026-0.007 0.027-0.007c-0.146 0.043-0.272 0.095-0.391 0.158l0.011-0.005 0.011-0.005c-0.255 0.13-0.473 0.288-0.663 0.475l0-0c-0.5 0.49-0.754 1.155-0.754 1.975v0.708h-1.203v1.418h1.199v4.793h1.921v-4.793h1.199v-1.416h-1.199v-0.75c-0.001-0.020-0.002-0.042-0.002-0.066 0-0.247 0.088-0.473 0.233-0.649l-0.001 0.002-0.001 0.002c0.020-0.022 0.040-0.042 0.062-0.061l0.001-0.001 0.001-0.001c0 0 0.414-0.41 1.39-0.14zM20.306 10.388c-2.010 0-3.327 1.286-3.327 3.307s1.393 3.212 3.213 3.212c1.664 0 3.276-1.040 3.276-3.327-0.002-1.874-1.267-3.192-3.162-3.192zM20.243 15.514c-0.832 0-1.276-0.797-1.276-1.871 0-0.915 0.361-1.861 1.276-1.861 0.871 0 1.234 0.936 1.234 1.851 0 1.137-0.482 1.882-1.234 1.881zM22.493 9.761h0.232v0.589h0.14v-0.589h0.231v-0.117h-0.603zM23.799 9.644l-0.182 0.505-0.181-0.505h-0.203v0.707h0.13v-0.571l0.198 0.571h0.113l0.195-0.571v0.571h0.13v-0.707z"/>
</svg>