<svg xmlns="http://www.w3.org/2000/svg" version="1.1" width="24" height="24" viewBox="0 0 24 24">
<path d="M4.844 0.904c-0.443 0.001-0.819 0.287-0.953 0.685l-0.002 0.007-2.53 7.783c0 0.007-0.005 0.012-0.007 0.020l-1.282 3.936c-0.045 0.133-0.070 0.286-0.070 0.444 0 0.476 0.232 0.898 0.588 1.16l0.004 0.003 11.072 8.045c0.092 0.067 0.207 0.108 0.332 0.108 0.127 0 0.245-0.042 0.339-0.113l-0.001 0.001 11.074-8.040c0.361-0.264 0.593-0.686 0.593-1.163 0-0.16-0.026-0.314-0.074-0.457l0.003 0.010-1.26-3.867c-0.008-0.040-0.018-0.074-0.032-0.108l0.001 0.004-2.526-7.775c-0.138-0.401-0.512-0.684-0.952-0.684-0.002 0-0.004 0-0.006 0h0c-0.002-0-0.005-0-0.008-0-0.439 0-0.811 0.287-0.939 0.683l-0.002 0.007-2.406 7.408h-7.598l-2.41-7.408c-0.13-0.403-0.502-0.69-0.941-0.69-0.001 0-0.001 0-0.002 0h0zM4.838 2.324l2.174 6.678h-4.338zM19.166 2.324l2.168 6.678h-4.342zM8.572 10.134h6.862l-2.15 6.618-1.284 3.941zM3.057 10.139h4.322l3.086 9.5zM16.625 10.139h4.326l-7.412 9.502 2.959-9.108zM2.1 10.762l6.978 8.947-7.818-5.682c-0.077-0.056-0.127-0.146-0.127-0.247 0-0.033 0.005-0.066 0.015-0.096l-0.001 0.002zM21.9 10.762l0.952 2.922c0.010 0.028 0.015 0.061 0.015 0.095 0 0.101-0.049 0.19-0.124 0.246l-0.001 0.001v0.002l-7.82 5.68 0.025-0.035z"/>
</svg>