<svg xmlns="http://www.w3.org/2000/svg" version="1.1" width="24" height="24" viewBox="0 0 24 24">
<path d="M12 0.040c-0.962 0-1.742 0.781-1.742 1.743 0 0.77 0.5 1.424 1.193 1.654l0.012 0.004-0.631 2.579h-8.376c-1.356 0-2.456 1.1-2.456 2.456v0 13.029c0 1.356 1.1 2.456 2.456 2.456v0h19.088c1.356 0 2.456-1.1 2.456-2.456v-13.029c0-1.356-1.1-2.456-2.456-2.456h-8.403l-0.616-2.575c0.712-0.23 1.218-0.887 1.218-1.662 0-0.963-0.78-1.743-1.743-1.743v0zM3.933 7.881h16.136c1.101 0 1.994 0.893 1.994 1.994v10.117c0 1.101-0.893 1.994-1.994 1.994v0h-16.136c-1.101 0-1.994-0.893-1.994-1.994v0-10.117c0-1.101 0.893-1.994 1.994-1.994zM7.187 10.193c-2.527 0-4.575 2.048-4.575 4.575s2.048 4.575 4.575 4.575v0c2.527 0 4.575-2.048 4.575-4.575s-2.048-4.575-4.575-4.575v0zM16.93 10.193c-2.527 0-4.575 2.048-4.575 4.575s2.048 4.575 4.575 4.575v0c2.527 0 4.575-2.048 4.575-4.575s-2.048-4.575-4.575-4.575v0zM7.187 11.263c0.018-0 0.038-0 0.059-0 1.936 0 3.506 1.57 3.506 3.506s-1.57 3.506-3.506 3.506c-0.021 0-0.042-0-0.062-0.001l0.003 0c-1.911-0.033-3.447-1.59-3.447-3.506s1.536-3.472 3.444-3.505l0.003-0zM16.93 11.263c0.018-0 0.038-0 0.059-0 1.936 0 3.506 1.57 3.506 3.506s-1.57 3.506-3.506 3.506c-0.021 0-0.042-0-0.062-0.001l0.003 0c-1.911-0.033-3.447-1.59-3.447-3.506s1.536-3.472 3.444-3.505l0.003-0zM7.187 12.926c-1.018 0-1.843 0.825-1.843 1.843s0.825 1.843 1.843 1.843v0c1.018 0 1.843-0.825 1.843-1.843s-0.825-1.843-1.843-1.843v0zM16.93 12.926c-1.018 0-1.843 0.825-1.843 1.843s0.825 1.843 1.843 1.843v0c1.018 0 1.843-0.825 1.843-1.843s-0.825-1.843-1.843-1.843v0zM10.003 19.426v2.159h0.706v-2.159zM11.080 19.426v2.159h0.705v-2.159zM12.156 19.426v2.159h0.706v-2.159zM13.233 19.426v2.159h0.706v-2.159zM14.31 19.456v2.1c0.479-0.117 0.828-0.542 0.829-1.049v-0.001c0-0.51-0.354-0.937-0.829-1.050zM9.632 19.484c-0.429 0.149-0.731 0.55-0.731 1.021v0.001c0 0.474 0.306 0.876 0.731 1.021z"/>
</svg>