<svg xmlns="http://www.w3.org/2000/svg" version="1.1" width="24" height="24" viewBox="0 0 24 24">
<path d="M19.75 0.3h-15.5c-2.35 0-4.25 1.9-4.25 4.25v14.9c0 2.35 1.9 4.25 4.25 4.25h15.5c2.35 0 4.25-1.9 4.25-4.25v-14.9c0-2.35-1.9-4.25-4.25-4.25zM22.99 19.060c0 0.005 0 0.011 0 0.017 0 2-1.62 3.621-3.62 3.623h-14.74c-2 0-3.63-1.63-3.63-3.63v-14.14c0-2 1.63-3.63 3.63-3.63h14.73c2.005 0 3.63 1.625 3.63 3.63v0zM9.49 11.25l2.8 5.38c0.050 0.080 0.020 0.16-0.060 0.16h-1.74c-0.11 0-0.16-0.030-0.21-0.13-0.64-1.32-1.29-2.64-1.96-4.060h-0.020c-0.6 1.34-1.26 2.75-1.9 4.070-0.050 0.080-0.1 0.11-0.18 0.11h-1.65c-0.1 0-0.11-0.080-0.060-0.14l2.74-5.22-2.65-5.28c-0.060-0.080 0-0.14 0.060-0.14h1.72c0.1 0 0.14 0.020 0.18 0.11 0.63 1.32 1.27 2.68 1.87 4.010h0.020c0.58-1.32 1.22-2.69 1.84-4 0.050-0.080 0.080-0.13 0.18-0.13h1.61c0.080 0 0.11 0.060 0.060 0.14zM12.78 12.88c0-2.33 1.55-4.15 4.010-4.15 0.21 0 0.32 0 0.52 0.020v-2.65c0-0.060 0.050-0.1 0.1-0.1h1.58c0.080 0 0.1 0.030 0.1 0.080v9.18c0 0.27 0 0.61 0.050 0.98 0 0.060-0.020 0.080-0.080 0.11-0.84 0.4-1.72 0.58-2.56 0.58-2.17 0.010-3.72-1.33-3.72-4.050zM17.31 10.32c-0.14-0.060-0.34-0.1-0.58-0.1-1.26 0-2.14 0.97-2.14 2.58 0 1.84 0.9 2.58 2.030 2.58 0.24 0 0.5-0.030 0.69-0.11z"/>
</svg>