<svg xmlns="http://www.w3.org/2000/svg" version="1.1" width="24" height="24" viewBox="0 0 24 24">
<path d="M20.486 3.516c-4.686-4.687-12.284-4.688-16.97-0.003-2.172 2.166-3.516 5.162-3.516 8.471 0 0.005 0 0.010 0 0.015v-0.001c-0 0.007-0 0.014-0 0.022 0 3.638 1.623 6.898 4.184 9.094l0.016 0.014h0.010c2.082 1.785 4.809 2.872 7.79 2.872 3.313 0 6.313-1.343 8.484-3.514l-0 0c4.687-4.685 4.688-12.283 0.002-16.97zM16 13.998c-4 0-4-4-8-4-2.5 0-3.44 1.565-4.765 2.74h-0.005c-0.020-0.222-0.031-0.48-0.031-0.74 0-4.861 3.94-8.801 8.801-8.801 4.6 0 8.376 3.529 8.768 8.028l0.002 0.033c-1.33 1.175-2.27 2.74-4.77 2.74z"/>
</svg>