<svg xmlns="http://www.w3.org/2000/svg" version="1.1" width="24" height="24" viewBox="0 0 24 24">
<path d="M5.174 10.172c-1.065 0-1.578 0.187-1.65 1.148-0.014 0.188-0.022 0.407-0.022 0.628 0 0.018 0 0.036 0 0.055l-0-0.003c0 0.218 0.004 0.451 0.021 0.68 0.073 0.96 0.586 1.148 1.65 1.148 1.065 0 1.58-0.188 1.653-1.148 0.018-0.229 0.022-0.462 0.022-0.68s-0.005-0.451-0.022-0.68c-0.073-0.96-0.588-1.148-1.652-1.148zM8.964 10.172c-0.41 0-0.82 0.040-0.985 0.121-0.322 0.156-0.545 0.38-0.545 1.020 0 0.375 0.1 0.654 0.293 0.796 0.281 0.21 0.553 0.23 1.31 0.27 0.305 0.016 0.47 0.078 0.47 0.34 0 0.332-0.294 0.332-0.564 0.332-0.28 0-0.366-0.025-0.46-0.096-0.084-0.063-0.105-0.176-0.106-0.348h-0.95c0 0.487 0.010 0.884 0.47 1.084 0.41 0.18 1.67 0.18 2.048 0.014 0.328-0.145 0.563-0.337 0.563-0.994 0-0.455-0.091-0.735-0.44-0.941-0.248-0.147-0.945-0.17-1.298-0.192-0.258-0.016-0.356-0.11-0.356-0.338 0-0.297 0.285-0.308 0.53-0.308 0.202 0 0.34 0.018 0.439 0.105 0.038 0.039 0.086 0.099 0.088 0.307h0.947c0-0.408-0.014-0.848-0.455-1.051-0.175-0.080-0.587-0.121-0.999-0.121zM11.17 10.234v3.532h0.996v-1.362h1.156v1.362h0.996v-3.532h-0.996v1.29h-1.156v-1.29zM15.193 10.234v3.532h1.002v-3.532zM17.084 10.234v3.532h1.887c0.869 0 1.162-0.376 1.162-0.952 0-0.401-0.092-0.755-0.643-0.894 0.444-0.114 0.574-0.379 0.574-0.762 0-0.776-0.487-0.924-1.181-0.924zM21.457 10.234l-1.068 3.532h1.037l0.187-0.655h1.16l0.19 0.655h1.037l-1.070-3.532zM0 10.236v0.881h1.055v2.65h1.055v-2.65h1.055v-0.88zM5.174 10.998c0.418 0 0.633 0.063 0.66 0.607 0.004 0.085 0.010 0.201 0.010 0.395 0 0.195-0.006 0.31-0.010 0.395-0.027 0.544-0.242 0.607-0.66 0.607s-0.633-0.063-0.66-0.607c-0.005-0.105-0.008-0.229-0.008-0.353 0-0.015 0-0.030 0-0.044v0.002c0-0.194 0.003-0.31 0.008-0.395 0.027-0.544 0.242-0.607 0.66-0.607zM18.080 11.043h0.69c0.18 0 0.293 0.085 0.293 0.291 0 0.176-0.112 0.285-0.293 0.285h-0.69zM22.191 11.107h0.006l0.354 1.22h-0.713zM18.081 12.314h0.689c0.279 0 0.337 0.124 0.337 0.323s-0.11 0.32-0.337 0.32h-0.69z"/>
</svg>