<svg xmlns="http://www.w3.org/2000/svg" version="1.1" width="24" height="24" viewBox="0 0 24 24">
<path d="M11.908 0.184c-2.877 0.023-5.757 1.074-8.045 3.172-4.882 4.475-5.166 12.081-0.691 16.963 0.203 0.244 0.447 0.447 0.691 0.691 0.122 0.081 0.286 0.083 0.408-0.039l0.529-0.611c0.122-0.122 0.122-0.325 0-0.447-4.272-3.946-4.557-10.658-0.57-14.93s10.658-4.555 14.93-0.568c4.271 3.987 4.555 10.656 0.568 14.928-0.203 0.203-0.365 0.408-0.568 0.57-0.122 0.122-0.122 0.325 0 0.447l0.529 0.611c0.122 0.122 0.325 0.12 0.447 0.039 4.882-4.515 5.166-12.081 0.691-16.963-2.399-2.593-5.659-3.889-8.92-3.863zM12.295 3.701c-2.197-0.071-4.423 0.692-6.152 2.299-3.458 3.214-3.661 8.624-0.447 12.082 0.122 0.122 0.243 0.284 0.406 0.406 0.122 0.122 0.325 0.122 0.447 0l0.529-0.609c0.122-0.122 0.122-0.325 0-0.447-1.424-1.342-2.277-3.255-2.277-5.248 0-3.946 3.212-7.16 7.158-7.16s7.16 3.253 7.16 7.199c0 1.953-0.814 3.867-2.238 5.209-0.122 0.122-0.122 0.325 0 0.447l0.529 0.609c0.122 0.122 0.325 0.163 0.447 0.041 3.458-3.255 3.622-8.665 0.408-12.123-1.607-1.729-3.774-2.634-5.971-2.705zM12.029 7.018c-1.322-0.020-2.654 0.466-3.691 1.463-2.075 1.993-2.115 5.247-0.121 7.322l0.121 0.123c0.122 0.122 0.325 0.122 0.447 0l0.529-0.611c0.122-0.122 0.122-0.325 0-0.447-0.692-0.692-1.098-1.667-1.098-2.684 0-0.003-0-0.007-0-0.010 0-2.061 1.671-3.732 3.732-3.732 0.004 0 0.007 0 0.011 0h-0.001c0.003 0 0.007-0 0.010-0 2.061 0 3.732 1.671 3.732 3.732 0 0.004 0 0.007-0 0.011v-0.001c0 1.017-0.406 1.951-1.139 2.684-0.122 0.122-0.122 0.325 0 0.447l0.529 0.611c0.122 0.122 0.325 0.122 0.447 0 2.034-1.993 2.116-5.248 0.123-7.322-0.997-1.037-2.311-1.566-3.633-1.586zM12.035 14.762c-0.137-0.005-0.28 0.045-0.402 0.147l-0.039 0.041-7.16 8.055c-0.163 0.203-0.162 0.488 0.041 0.691 0.081 0.081 0.202 0.123 0.283 0.123h14.361c0.244 0 0.488-0.204 0.488-0.488 0-0.122-0.040-0.245-0.121-0.326l-7.080-8.055c-0.102-0.122-0.234-0.182-0.371-0.188z"/>
</svg>