<svg xmlns="http://www.w3.org/2000/svg" version="1.1" width="24" height="24" viewBox="0 0 24 24">
<path d="M15.91 0c-3.12 0-6.22 0-9.31 0.030 0 0.050-0.060 0.050-0.090 0.080-1.438 0.613-2.657 1.483-3.653 2.563l-0.007 0.007c-0.84 0.87-1.52 1.9-2.060 3-0.2 0.38-0.38 0.79-0.55 1.2-0.020 0.080-0.050 0.2-0.13 0.25v6.22c0.050 0.080 0.050 0.2 0.080 0.3 0.563 2.009 1.775 3.68 3.392 4.811l0.028 0.019c0.030 0.030 0.050 0.090 0.11 0.060-0.030-0.030-0.030-0.060-0.060-0.080-0.24-0.36-0.46-0.69-0.67-1.040-0.829-1.345-1.32-2.975-1.32-4.72 0-0.299 0.014-0.595 0.043-0.887l-0.003 0.037c0.209-1.713 0.819-3.251 1.732-4.563l-0.022 0.033c1.078-1.577 2.277-2.947 3.62-4.162l0.020-0.018c0.937-0.85 2.011-1.573 3.181-2.126l0.079-0.034c1.083-0.511 2.353-0.81 3.692-0.81 0.256 0 0.51 0.011 0.76 0.032l-0.033-0.002c0.7 0.060 1.39 0.17 2.070 0.27l0.19 0.030c0.080 0.030 0.13 0.030 0.21 0.030-0.38-0.16-0.76-0.33-1.14-0.44-0.050-0.020-0.1-0.020-0.16-0.090zM14.25 0.66c-0.43 0.020-0.84 0.050-1.27 0.13-0.74 0.14-1.44 0.36-2.15 0.58-0.552 0.174-1.029 0.384-1.477 0.639l0.037-0.019c-0.020 0-0.080 0-0.080 0.060h0.050c0.865-0.151 1.913-0.268 2.978-0.327l0.072-0.003c0.51-0.030 1.060 0 1.57 0.080 0.76 0.11 1.47 0.39 2.12 0.77 1.911 1.097 3.422 2.704 4.372 4.637l0.028 0.063c0.756 1.587 1.251 3.436 1.378 5.385l0.002 0.045c0.060 0.65 0.060 1.34 0.030 2.020l-0.080 1.14c-0.030 0.33-0.080 0.66-0.14 0.99-0.058 0.439-0.152 0.834-0.283 1.213l0.013-0.043c-0.424 1.043-0.945 1.943-1.57 2.758l0.020-0.028c-0.49 0.66-1.050 1.26-1.6 1.86-0.080 0.080-0.13 0.13-0.19 0.22 0.060 0 0.060-0.030 0.080-0.030 0.876-0.511 1.631-1.043 2.337-1.632l-0.027 0.022c1.405-1.171 2.5-2.668 3.174-4.376l0.026-0.074 0.17-0.41h0.030v5.87c0 0.020 0-9.17 0.020-15 0 0.020 0 0.050-0.020 0.070l-0.030-0.090c-0.401-1.043-0.913-1.945-1.539-2.755l0.019 0.025c-0.84-1.084-1.88-1.97-3.069-2.615l-0.051-0.025c-1.333-0.728-2.92-1.156-4.607-1.156-0.12 0-0.24 0.002-0.36 0.007l0.017-0zM23.88 7.2l0.010-0.020v-5.43zM10.88 3.87c-0.4-0.040-0.8 0.090-1.19 0.42-0.269 0.242-0.481 0.544-0.615 0.884l-0.005 0.016c-0.33 0.8-0.38 1.58-0.22 2.4 0.11 0.63 0.4 1.18 0.92 1.58 0.52 0.44 1.12 0.5 1.66 0.2 0.33-0.2 0.57-0.44 0.76-0.77 0.33-0.57 0.46-1.2 0.46-1.85 0-0.3-0.020-0.58-0.080-0.88-0.078-0.539-0.299-1.016-0.624-1.404l0.004 0.004c-0.263-0.318-0.637-0.537-1.061-0.599l-0.009-0.001zM16 5.15c-0.689 0.026-1.299 0.341-1.717 0.827l-0.003 0.003c-0.3 0.27-0.46 0.63-0.65 0.98-0.239 0.425-0.381 0.932-0.381 1.473 0 0.020 0 0.040 0.001 0.060l-0-0.003c0 0.38 0.050 0.74 0.21 1.1 0.28 0.65 0.8 1 1.44 1 0.47 0 0.85-0.16 1.2-0.43 0.812-0.603 1.368-1.511 1.498-2.552l0.002-0.018c0.050-0.46 0-0.93-0.17-1.4-0.16-0.4-0.4-0.75-0.82-0.92-0.18-0.076-0.39-0.12-0.61-0.12-0 0-0 0-0 0v0zM6.38 7.56c-0.44 0.030-0.84 0.2-1.11 0.6-0.36 0.5-0.47 1.070-0.5 1.64-0.020 0.6 0.12 1.15 0.39 1.67 0.22 0.43 0.51 0.82 0.92 1.1 0.52 0.34 1.17 0.34 1.63 0.020 0.27-0.2 0.46-0.47 0.6-0.77 0.27-0.63 0.32-1.3 0.16-1.99-0.145-0.746-0.524-1.386-1.056-1.857l-0.003-0.003c-0.3-0.24-0.62-0.4-1.030-0.41zM18.24 10.2c-0.019-0.001-0.041-0.001-0.064-0.001-0.305 0-0.593 0.074-0.847 0.206l0.010-0.005c-0.839 0.397-1.482 1.092-1.802 1.946l-0.008 0.024c-0.122 0.28-0.193 0.607-0.193 0.95 0 0.224 0.030 0.441 0.087 0.647l-0.004-0.017c0.14 0.5 0.4 0.85 0.9 0.99 0.19 0.050 0.4 0.080 0.6 0.080 0.32 0 0.54-0.030 0.8-0.17 0.53-0.24 0.93-0.6 1.28-1.030 0.429-0.502 0.689-1.159 0.689-1.877 0-0.206-0.022-0.408-0.063-0.602l0.003 0.019c-0.076-0.576-0.518-1.029-1.083-1.119l-0.007-0.001c-0.087-0.020-0.19-0.034-0.295-0.040l-0.005-0zM11.13 11.85c-0.080 0-0.22 0-0.35 0.030-0.552 0.024-1.065 0.169-1.519 0.409l0.019-0.009c-0.6 0.34-1.1 0.77-1.57 1.26-0.516 0.538-0.976 1.138-1.365 1.785l-0.025 0.045c-0.21 0.38-0.35 0.8-0.32 1.23 0.030 0.25 0.030 0.47 0.14 0.68 0.3 0.39 0.7 0.66 1.19 0.77 0.46 0.080 0.92 0.030 1.38-0.030 0.52-0.050 1-0.1 1.5-0.080 0.78 0.050 1.5 0.3 2.12 0.79 0.24 0.2 0.46 0.41 0.73 0.6 0.51 0.36 1.060 0.52 1.68 0.38 0.52-0.1 0.87-0.43 0.98-0.95 0.1-0.44 0.080-0.85 0.020-1.29-0.094-0.574-0.223-1.079-0.39-1.567l0.020 0.067c-0.263-0.862-0.603-1.611-1.025-2.304l0.025 0.044c-0.3-0.5-0.66-0.93-1.15-1.26-0.568-0.377-1.265-0.601-2.015-0.601-0.026 0-0.053 0-0.079 0.001l0.004-0zM0.11 14.64v2.13c0.1 0.13 0.16 0.3 0.22 0.46 0.567 1.611 1.386 3.001 2.423 4.196l-0.013-0.016c1.030 1.126 2.314 2.002 3.764 2.538l0.066 0.022c0.030 0 0.050 0.030 0.080 0.030h8.010c0.030-0.030 0.030-0.030 0.050-0.030 0.759-0.237 1.418-0.542 2.027-0.921l-0.037 0.021c1.845-1.168 3.302-2.799 4.23-4.732l0.030-0.068c0.43-1.010 0.65-2.080 0.7-3.2 0.012-0.036 0.018-0.077 0.018-0.12s-0.007-0.084-0.019-0.123l0.001 0.003c-0.020 0.020-0.050 0.050-0.050 0.080l-0.22 0.7c-0.397 1.246-1.039 2.317-1.874 3.204l0.004-0.004c-0.784 0.814-1.734 1.462-2.796 1.891l-0.054 0.019c-0.95 0.39-1.95 0.55-2.99 0.6-0.76 0.030-1.49 0-2.22-0.050-1.165-0.091-2.224-0.247-3.26-0.469l0.16 0.029c-1.419-0.321-2.671-0.789-3.835-1.401l0.085 0.041c-1.312-0.697-2.411-1.624-3.283-2.738l-0.017-0.022c-0.487-0.592-0.892-1.277-1.182-2.019l-0.018-0.051z"/>
</svg>