<svg xmlns="http://www.w3.org/2000/svg" version="1.1" width="24" height="24" viewBox="0 0 24 24">
<path d="M12.897 1.235c-0.36 0.001-0.722 0.013-1.080 0.017-0.218-0.028-0.371 0.225-0.352 0.416-0.035 1.012 0.023 2.025-0.016 3.036-0.037 0.841-0.555 1.596-1.224 2.080-0.5 0.345-1.118 0.435-1.671 0.663 0.121 0.78 0.434 1.556 1.057 2.070 1.189 1.053 3.224 0.86 4.17-0.426 0.945-1.071 0.453-2.573 0.603-3.854 0.286-0.48 0.937-0.132 1.317-0.49-0.34-1.249-0.81-2.529-1.725-3.472-0.285-0.026-0.616-0.041-0.951-0.041-0.045 0-0.090 0-0.135 0.001l0.007-0zM2.477 1.241c-1.947 1.751-2.863 4.556-2.323 7.12 0.384 2.052 1.682 3.893 3.45 4.997 0.134-0.23 0.23-0.476 0.090-0.73-0.95-2.814-0.138-6.119 1.986-8.19 0.014-0.986 0.043-1.976-0.003-2.961l-0.188-0.214c-1.003-0.051-2.008 0-3.012-0.022zM20.357 1.296l-0.205 0.356c0.265 0.938 0.6 1.862 0.72 2.834 0.58 3.546-0.402 7.313-2.614 10.14-1.816 2.353-4.441 4.074-7.334 4.773-2.66 0.66-5.514 0.45-8.064-0.543-0.068 0.079-0.207 0.237-0.275 0.318 2.664 2.629 6.543 3.969 10.259 3.498 3.075-0.327 5.995-1.865 8.023-4.195 1.935-2.187 3.083-5.070 3.125-7.992 0.122-3.384-1.207-6.819-3.635-9.189z"/>
</svg>