<svg xmlns="http://www.w3.org/2000/svg" version="1.1" width="24" height="24" viewBox="0 0 24 24">
<path d="M15.070 13.633c0 1.696-1.374 3.070-3.070 3.070s-3.070-1.374-3.070-3.070v0c0-1.696 1.374-3.070 3.070-3.070s3.070 1.374 3.070 3.070v0zM12 1.856c5.359 0.042 11.452 3.82 12 10.94h-7.256c0 0-0.935-3.933-4.744-3.907s-4.744 3.907-4.744 3.907h-7.256c0.353-6.994 6.344-10.984 12-10.94zM12.050 22.144c-3.996 0.011-7.729-3.005-9.259-7.674h4.465c0 0 0.963 3.889 4.773 3.863s4.716-3.863 4.716-3.863h4.465c-0.995 4.94-5.164 7.664-9.16 7.674z"/>
</svg>