<svg xmlns="http://www.w3.org/2000/svg" version="1.1" width="24" height="24" viewBox="0 0 24 24">
<path d="M12 0c-6.627 0-12 5.373-12 12s5.373 12 12 12v0c6.627 0 12-5.373 12-12s-5.373-12-12-12v0zM12 1c0.001 0 0.003 0 0.004 0 5.010 0 9.238 3.35 10.567 7.932l0.019 0.078c-1.175 2.388-2.742 4.409-4.637 6.060l-0.023 0.020c-0.94 0.81-1.96 1.53-3.080 2.040-1.13 0.5-2.37 0.8-3.6 0.72-0.984-0.055-1.892-0.33-2.692-0.776l0.032 0.016c2.216-1.212 4.097-2.742 5.658-4.554l0.022-0.026c1.062-1.143 1.861-2.545 2.293-4.1l0.017-0.070c0.18-0.79 0.2-1.6 0.040-2.4-0.172-0.823-0.552-1.538-1.083-2.113l0.003 0.003c-0.532-0.557-1.209-0.971-1.97-1.183l-0.030-0.007c-0.402-0.111-0.864-0.174-1.341-0.174-0.35 0-0.692 0.034-1.023 0.1l0.033-0.005c-1.594 0.362-2.962 1.17-4.006 2.286l-0.004 0.004c-1.822 1.776-2.952 4.255-2.952 6.998 0 0.173 0.005 0.345 0.013 0.516l-0.001-0.024c0.146 1.775 0.86 3.361 1.957 4.598l-0.007-0.008c-1.022 0.371-2.224 0.669-3.466 0.839l-0.094 0.011c-1.030-1.643-1.641-3.64-1.641-5.78 0-6.072 4.92-10.995 10.99-11h0zM12.070 3.22c0.77 0 1.55 0.24 2.17 0.7 0.55 0.42 0.97 1.020 1.2 1.68 0.23 0.65 0.3 1.37 0.21 2.060-0.237 1.448-0.84 2.725-1.71 3.773l0.010-0.013c-1.662 2.138-3.803 3.826-6.267 4.919l-0.103 0.041c-0.48-0.42-0.9-0.92-1.2-1.48-0.498-0.907-0.791-1.987-0.791-3.135 0-0.259 0.015-0.514 0.044-0.765l-0.003 0.031c0.12-1.32 0.58-2.6 1.2-3.79 0.668-1.43 1.704-2.594 2.987-3.401l0.033-0.019c0.68-0.37 1.45-0.6 2.22-0.6zM22.9 10.52c0.063 0.442 0.099 0.953 0.099 1.472 0 6.075-4.925 11-11 11-3.404 0-6.447-1.546-8.464-3.974l-0.015-0.018c1.391-0.319 2.602-0.731 3.755-1.25l-0.125 0.050c0.51 0.4 1.080 0.71 1.67 0.94 0.793 0.289 1.71 0.457 2.665 0.457 0.997 0 1.95-0.182 2.83-0.515l-0.055 0.018c1.807-0.688 3.353-1.69 4.642-2.952l-0.002 0.002c1.583-1.485 2.916-3.211 3.948-5.124l0.052-0.106z"/>
</svg>