<svg xmlns="http://www.w3.org/2000/svg" version="1.1" width="24" height="24" viewBox="0 0 24 24">
<path d="M11.999 0c-6.572 0-11.899 5.373-11.899 12 0 6.628 5.327 12 11.899 12 6.571 0 11.899-5.372 11.899-12 0-6.627-5.328-12-11.899-12zM11.999 0.528c3.038 0 5.895 1.194 8.043 3.36 2.059 2.069 3.332 4.923 3.332 8.073 0 0.014-0 0.027-0 0.041v-0.002c0 3.064-1.183 5.945-3.332 8.112-2.043 2.075-4.882 3.36-8.021 3.36-0.007 0-0.015 0-0.022-0h0.001c-0.007 0-0.015 0-0.023 0-3.139 0-5.978-1.285-8.019-3.359l-0.001-0.001c-2.060-2.070-3.333-4.923-3.333-8.075 0-0.013 0-0.026 0-0.040v0.002c0-3.064 1.184-5.945 3.332-8.112 2.042-2.075 4.881-3.36 8.020-3.36 0.008 0 0.017 0 0.025 0h-0.001zM11.404 4.751c-1.938 0.52-3.732 1.516-6.123 4.258-2.392 2.742-1.938 5.006-1.938 5.006s0.66-1.558 2.247-3.199c0.752-0.777 1.314-1.037 1.698-1.038 0.010-0.001 0.022-0.001 0.034-0.001 0.33 0 0.598 0.268 0.598 0.598 0 0.002 0 0.003-0 0.005v-0 5.567c0 0.55-0.354 0.669-0.68 0.663-0.279-0.005-0.537-0.102-0.537-0.102 1.63 2.368 5.526 2.7 5.526 2.7l1.711-1.828 0.040 0.035 1.568 1.336c2.866-1.703 4.248-4.86 4.248-4.86-1.279 1.353-2.094 1.669-2.578 1.667-0.429-0.003-0.597-0.255-0.597-0.255-0.023-0.117-0.063-1.81-0.078-3.505-0.014-1.756-0.001-3.513 0.087-3.518 0.494-0.929 2.073-2.802 2.073-2.802-2.948 0.581-4.556 2.513-4.556 2.513-0.475-0.374-1.444-0.311-1.444-0.311 0.454 0.25 0.907 0.976 0.907 1.578v5.92c0 0-0.99 0.873-1.752 0.873-0.451 0-0.729-0.247-0.881-0.449-0.058-0.075-0.108-0.16-0.147-0.25l-0.003-0.008v-7.311c-0.1 0.074-0.226 0.12-0.362 0.123h-0.001c-0.162 0-0.33-0.082-0.444-0.32-0.086-0.18-0.141-0.45-0.141-0.842 0-1.35 1.525-2.243 1.525-2.243z"/>
</svg>