<svg xmlns="http://www.w3.org/2000/svg" version="1.1" width="24" height="24" viewBox="0 0 24 24">
<path d="M21.111 18.226c-0.141 0.969-2.119 3.483-3.029 3.847-0.311 0.124-0.611 0.094-0.85-0.090-0.154-0.12-0.314-0.365-2.447-3.827l-0.633-1.032c-0.244-0.37-0.199-0.857 0.104-1.229 0.297-0.359 0.732-0.494 1.111-0.35 0.020 0.012 1.596 0.531 1.596 0.531 3.588 1.179 3.705 1.224 3.857 1.338 0.227 0.186 0.332 0.475 0.285 0.813zM13.92 12.959c-0.254-0.386-0.25-0.841 0.012-1.155l0.998-1.359c2.189-2.984 2.311-3.141 2.459-3.245 0.256-0.171 0.57-0.179 0.871-0.032 0.869 0.422 2.623 3.029 2.729 4.029v0.034c0.029 0.341-0.105 0.618-0.346 0.784-0.164 0.105-0.314 0.166-4.393 1.156-0.645 0.164-1.004 0.254-1.215 0.329l0.029-0.030c-0.404 0.12-0.854-0.074-1.109-0.479zM11.416 11.413c-0.195 0.061-0.789 0.245-1.519-0.938 0 0-4.931-7.759-5.047-7.998-0.070-0.27 0.015-0.574 0.255-0.82 0.734-0.761 4.717-1.875 5.76-1.621 0.34 0.088 0.574 0.301 0.656 0.604 0.060 0.335 0.545 7.536 0.615 9.149 0.066 1.38-0.525 1.565-0.72 1.624zM12.067 19.306c-0.011 3.774-0.019 3.9-0.081 4.079-0.105 0.281-0.346 0.469-0.681 0.53-0.96 0.164-3.967-0.946-4.594-1.69-0.12-0.164-0.195-0.328-0.21-0.493-0.016-0.12 0-0.24 0.045-0.346 0.075-0.195 0.18-0.345 2.88-3.51l0.794-0.944c0.271-0.345 0.75-0.45 1.199-0.271 0.436 0.165 0.706 0.54 0.676 0.945v1.68zM3.884 16.892c-0.295-0.010-0.56-0.187-0.715-0.48-0.111-0.215-0.189-0.57-0.238-1.002-0.137-1.301 0.029-3.264 0.419-3.887 0.183-0.285 0.45-0.436 0.745-0.426 0.195 0 0.369 0.061 4.229 1.65l1.13 0.449c0.404 0.15 0.654 0.57 0.63 1.051-0.030 0.465-0.298 0.824-0.694 0.93l-1.605 0.51c-3.59 1.155-3.709 1.185-3.898 1.17zM18.861 23.997h-0.004l-0.005 0.003z"/>
</svg>