<svg xmlns="http://www.w3.org/2000/svg" version="1.1" width="24" height="24" viewBox="0 0 24 24">
<path d="M15.023 15.26c0.695 0 1.014-0.404 1.014-1.051 0-0.551-0.308-1.010-0.984-1.010-0.58 0-0.912 0.404-0.912 1.016 0 0.543 0.32 1.045 0.882 1.045zM10.135 15.447c0.764 0 1.113-0.443 1.113-1.154 0-0.604-0.338-1.109-1.082-1.109-0.637 0-1.002 0.445-1.002 1.115 0 0.597 0.352 1.148 0.971 1.148zM24 10.201l-3.15 0.029 0.83-9.686-19.722 3.061 1.686 6.248h-3.644l3.734 11.488 8.713-1.283v3.396l10.113-4.641zM14.896 6.607c0-0.049 0.039-0.092 0.088-0.094l2.325-0.154c0.524-0.035 1.634 0.063 1.634 1.236 0 0.83-0.619 1.184-0.619 1.184s0.75 0.189 0.707 1.092c0 1.602-1.943 1.389-1.943 1.389l-2.133-0.059c-0.048-0.002-0.086-0.041-0.086-0.089 0-0 0-0.001 0-0.001v0zM11.221 6.85c0-0.047 0.039-0.090 0.088-0.092l3.064-0.203c0.002-0 0.005-0 0.007-0 0.044 0 0.080 0.036 0.080 0.080 0 0 0 0 0 0v-0 0.943c0 0.049-0.039 0.090-0.087 0.092l-1.9 0.080c-0.048 0.003-0.086 0.042-0.088 0.090v0l-0.005 0.394c0 0 0 0.001 0 0.001 0 0.046 0.037 0.083 0.083 0.083 0.001 0 0.002-0 0.003-0h-0l1.646-0.066c0.001-0 0.003-0 0.004-0 0.045 0 0.082 0.037 0.082 0.082 0 0.001 0 0.001-0 0.002v-0l-0.020 1.012c-0.002 0.048-0.041 0.086-0.089 0.086-0 0-0 0-0 0h-1.63c-0.048 0.001-0.087 0.040-0.088 0.088v0.416c0 0.047 0.039 0.088 0.088 0.088l1.87 0.033c0.048 0.002 0.087 0.041 0.087 0.090 0 0 0 0 0 0v0 0.951c0 0 0 0 0 0 0 0.046-0.038 0.084-0.084 0.084-0.001 0-0.002-0-0.003-0h0l-3.063-0.123c-0.048-0.002-0.087-0.041-0.087-0.090 0-0 0-0 0-0v0zM5.211 7.162l0.975-0.064c0.002-0 0.004-0 0.006-0 0.048 0 0.089 0.034 0.099 0.080l0 0.001 0.458 2.205c0.010 0.047 0.027 0.047 0.039 0l0.576-2.281c0.016-0.048 0.057-0.083 0.107-0.090l0.001-0 0.921-0.061c0.002-0 0.003-0 0.005-0 0.049 0 0.090 0.033 0.104 0.077l0 0.001 0.564 2.342c0.012 0.047 0.029 0.047 0.041 0l0.6-2.424c0.015-0.049 0.057-0.085 0.107-0.092l0.001-0 0.996-0.064c0.048-0.004 0.077 0.031 0.065 0.078l-1.090 4.104c-0.014 0.048-0.057 0.082-0.109 0.082-0 0-0 0-0 0h0l-1.121-0.031c-0.052-0.003-0.095-0.038-0.109-0.085l-0-0.001-0.535-1.965c-0.012-0.047-0.033-0.047-0.045 0l-0.522 1.934c-0.016 0.047-0.059 0.080-0.11 0.082h-0l-1.109-0.031c-0.051-0.004-0.094-0.040-0.108-0.087l-0-0.001-0.873-3.618c-0.011-0.047 0.019-0.088 0.066-0.090zM4.923 16.785v-3.561c-0.001-0.048-0.039-0.087-0.087-0.088h-0l-1.252-0.029c-0.049-0.002-0.088-0.041-0.091-0.090v-0l-0.046-1.125c-0-0.001-0-0.003-0-0.004 0-0.045 0.037-0.082 0.082-0.082 0 0 0.001 0 0.001 0h-0l4.047 0.096c0.048 0 0.087 0.041 0.085 0.088l-0.022 1.088c-0.003 0.048-0.041 0.086-0.089 0.088h-0l-1.139 0.004c-0.048 0.002-0.086 0.040-0.087 0.088v3.447c0 0.049-0.039 0.090-0.087 0.092l-1.227 0.070c-0.002 0-0.005 0-0.008 0-0.044 0-0.080-0.036-0.080-0.080 0-0.001 0-0.002 0-0.003v0zM7.757 14.406c0-1.918 1.321-2.482 2.416-2.482s2.339 0.73 2.339 2.316c0 1.9-1.383 2.482-2.416 2.482-1.033 0.001-2.339-0.724-2.339-2.316zM12.896 14.291c0-1.746 1.166-2.238 2.162-2.238s2.129 0.664 2.129 2.107c0 1.729-1.259 2.26-2.198 2.26s-2.093-0.68-2.093-2.129zM20.155 16.002c-0.001 0-0.002 0-0.004 0-0.054 0-0.103-0.025-0.135-0.064l-0-0-1.187-1.631c-0.029-0.039-0.053-0.031-0.053 0.018v1.67c0 0.047-0.039 0.090-0.086 0.092l-1.052 0.061c-0.002 0-0.003 0-0.005 0-0.045 0-0.082-0.037-0.082-0.082 0-0 0-0 0-0v0l0.039-3.842c0-0.047 0.039-0.086 0.088-0.084l0.881 0.020c0.056 0.005 0.104 0.033 0.137 0.074l0 0 1.293 1.902c0.027 0.041 0.051 0.033 0.051-0.014l0.032-1.846c0.001-0.048 0.039-0.086 0.087-0.086 0.001 0 0.001 0 0.002 0h-0l0.963 0.029c0.047 0 0.085 0.041 0.083 0.090l-0.138 3.555c-0.003 0.049-0.042 0.089-0.091 0.092l-0 0zM16.258 8.23l0.724-0.014c0 0 0.47 0.018 0.47-0.434 0-0.357-0.411-0.33-0.411-0.33l-0.782 0.008c-0.048 0.001-0.087 0.040-0.088 0.088v0.598c0 0 0 0.001 0 0.001 0 0.046 0.037 0.083 0.083 0.083 0.001 0 0.003-0 0.004-0h-0zM16.229 10.191h0.99c0.024 0 0.35-0.051 0.35-0.404 0-0.293-0.229-0.402-0.441-0.398l-0.898 0.029c-0.048 0.001-0.087 0.041-0.087 0.089 0 0 0 0.001 0 0.001v-0 0.596c0 0 0 0.001 0 0.001 0 0.048 0.039 0.086 0.086 0.086 0 0 0 0 0 0v0z"/>
</svg>