<svg xmlns="http://www.w3.org/2000/svg" version="1.1" width="24" height="24" viewBox="0 0 24 24">
<path d="M20.537 4.118c-0.806-0.453-2.092 0.278-2.871 1.635l-1.416 2.462c-0.215 0.411-0.341 0.898-0.341 1.414 0 0.66 0.206 1.272 0.558 1.776l-0.007-0.010 0.041 0.062c0.653 0.94 1.535 1.808 1.823 2.118 0.27 0.288 0.435 0.675 0.435 1.102 0 0.735-0.491 1.354-1.163 1.549l-0.011 0.003c-0.13 0.038-0.28 0.060-0.435 0.060-0.885 0-1.603-0.718-1.603-1.603 0-0.072 0.005-0.143 0.014-0.212l-0.001 0.008c0.045-0.35-0.067-0.927-0.574-1.489-0.506-0.563-1.54 0.5-1.874 1.61l-0.016 0.061c-0.334 1.094-0.546 2.050-0.482 2.143 0.037 0.060 0.072 0.12 0.105 0.182 0.134 0.246 0.212 0.539 0.212 0.851 0 1-0.81 1.81-1.81 1.81-0.688 0-1.287-0.384-1.593-0.95l-0.005-0.010c-0.134-0.246-0.213-0.539-0.213-0.851 0-0.688 0.384-1.286 0.95-1.591l0.010-0.005 0.121-0.061c0.065-0.030 0.26-0.486 0.423-1.032l0.301-0.987c0.019-0.047 0.033-0.107 0.045-0.168l0.897-3.19-0.957 1.96c-0.112-0.363-0.3-0.38-0.709-0.091-0.243 0.183-0.653 0.531-0.85 0.669-0.365 0.273-0.685 0.788-0.851 1.109-0.096 0.202-0.235 0.37-0.407 0.498l-0.004 0.002c-0.684 0.564-1.687 0.456-2.234-0.227-0.218-0.27-0.35-0.617-0.35-0.995 0-0.762 0.536-1.399 1.251-1.555l0.010-0.002c0.409-0.092 1.777-0.927 2.596-1.52 0.152-0.106 0.274-0.197 0.38-0.304l2.203-1.67-1.914 1.032c0 0-0.196-0.016-0.426 0.017-0.698 0.075-1.428 0.182-1.564 0.35-0.078 0.109-0.175 0.2-0.286 0.27l-0.004 0.002c-0.637 0.456-1.519 0.32-1.989-0.317-0.164-0.23-0.262-0.517-0.262-0.827 0-0.479 0.234-0.903 0.594-1.164l0.004-0.003c0.259-0.183 0.577-0.274 0.865-0.274 0.518 0.016 1.87 0.29 2.993 0.092l0.288-0.045c1.14-0.196 2.476-1.186 3.024-2.187l1.184-2.067c0.653-1.139 0.608-2.384-0.105-2.795l-1.323-0.76c-0.653-0.363-1.715-0.363-2.354 0l-8.858 4.966c-0.667 0.349-1.199 1.26-1.199 2.005v9.744c0 0.744 0.532 1.656 1.178 2.020l8.85 4.983c0.652 0.365 1.716 0.365 2.354 0l8.826-4.983c0.653-0.368 1.184-1.276 1.184-2.020v-9.76c0-0.744-0.531-1.653-1.169-2.020l-1.46-0.823z"/>
</svg>