<svg xmlns="http://www.w3.org/2000/svg" version="1.1" width="24" height="24" viewBox="0 0 24 24">
<path d="M23.638 14.904c-1.602 6.43-8.113 10.34-14.542 8.736-6.426-1.59-10.34-8.115-8.734-14.535 1.6-6.435 8.113-10.348 14.538-8.747 6.43 1.605 10.342 8.115 8.738 14.548zM17.288 10.291c0.24-1.59-0.974-2.45-2.64-3.030l0.54-2.153-1.315-0.33-0.525 2.107c-0.345-0.087-0.705-0.167-1.064-0.25l0.526-2.127-1.32-0.33-0.54 2.165c-0.285-0.067-0.565-0.132-0.84-0.2l-1.815-0.45-0.35 1.407c0 0 0.975 0.225 0.955 0.236 0.535 0.136 0.63 0.486 0.615 0.766l-1.477 5.92c-0.075 0.166-0.24 0.406-0.614 0.314 0.015 0.020-0.96-0.24-0.96-0.24l-0.66 1.51 1.71 0.426 0.93 0.242-0.54 2.19 1.32 0.327 0.54-2.17c0.36 0.1 0.705 0.19 1.050 0.273l-0.51 2.154 1.32 0.33 0.545-2.19c2.24 0.427 3.93 0.257 4.64-1.774 0.57-1.637-0.030-2.58-1.217-3.196 0.854-0.193 1.5-0.76 1.68-1.93zM14.278 14.511c-0.404 1.64-3.157 0.75-4.050 0.53l0.72-2.9c0.896 0.23 3.757 0.67 3.33 2.37zM14.688 10.271c-0.37 1.49-2.662 0.735-3.405 0.55l0.654-2.64c0.744 0.18 3.137 0.524 2.75 2.084z"/>
</svg>