<svg xmlns="http://www.w3.org/2000/svg" version="1.1" width="24" height="24" viewBox="0 0 24 24">
<path d="M4.47 0c-0.009-0-0.020-0-0.030-0-1.541 0-2.793 1.241-2.81 2.779l-0 0.002v18.43c0.006 1.542 1.257 2.79 2.8 2.79 0.014 0 0.028-0 0.042-0l-0.002 0c0.015 0 0.032 0 0.050 0 1.54 0 2.789-1.242 2.8-2.779v-18.441c-0.028-1.541-1.284-2.78-2.83-2.78-0.007 0-0.014 0-0.022 0h0.001zM13.87 8.54c-0.514-0.713-1.342-1.171-2.277-1.171-0.604 0-1.164 0.191-1.621 0.517l0.009-0.006c-0.722 0.488-1.19 1.303-1.19 2.227 0 0.591 0.191 1.137 0.515 1.58l-0.005-0.008 8 11.15c0.517 0.708 1.343 1.163 2.276 1.163 0.6 0 1.156-0.188 1.613-0.508l-0.009 0.006c0.723-0.488 1.193-1.304 1.193-2.229 0-0.556-0.169-1.072-0.459-1.5l0.006 0.009-0.060-0.090zM17.52 7.36c0.009 0 0.020 0 0.030 0 2.035 0 3.687-1.638 3.71-3.668l0-0.002c-0.023-2.032-1.675-3.67-3.71-3.67-0.011 0-0.021 0-0.032 0h0.002c-0.012-0-0.026-0-0.040-0-2.035 0-3.687 1.638-3.71 3.668l-0 0.002c0.022 2.032 1.675 3.67 3.71 3.67 0.014 0 0.028-0 0.042-0l-0.002 0z"/>
</svg>