<svg xmlns="http://www.w3.org/2000/svg" version="1.1" width="24" height="24" viewBox="0 0 24 24">
<path d="M9.373 0c-0.31 0.006-0.93 0.090-1.521 0.654-0.872 0.824-5.224 4.956-6.972 6.616-0.79 0.754-0.72 1.595-0.72 1.664v0.377c0.067-0.292 0.187-0.499 0.427-0.825 0.496-0.616 1.3-0.788 1.627-0.822 0 0 0.001 0 0.001 0s0.001 0 0.001 0h-0c1.88-0.272 4.135-0.468 6.42-0.546l0.107-0.003c4.335-0.137 7.197 0.225 7.197 0.225l6.084-5.793c0 0-3.188-0.6-6.82-1.027-1.467-0.195-3.41-0.378-5.37-0.501l-0.268-0.013c-0.021 0-0.090-0.008-0.193-0.006zM22.933 2.508l-6.066 5.79c0 0 0.222 2.88-0.137 7.198-0.189 2.45-0.584 4.866-0.875 6.494-0.052 0.326-0.256 1.114-0.925 1.594-0.29 0.198-0.491 0.295-0.748 0.363 1.546-0.51 1.091-7.047 1.091-7.047-4.335 0.137-7.214-0.222-7.214-0.222l-6.084 5.792c0 0 3.222 0.634 6.855 1.045 2.056 0.24 4.833 0.429 5.227 0.463 0.023 0 0.045-0.007 0.068-0.012-0.013 0.003-0.022 0.009-0.035 0.012 0.138 0 0.259 0.015 0.379 0.015 0.085 0 0.925 0.105 1.713-0.648 1.748-1.663 6.083-5.81 6.94-6.633 0.788-0.754 0.72-1.594 0.72-1.68-0.004-1.998-0.079-3.97-0.223-5.923l0.016 0.269c-0.24-3.65-0.701-6.871-0.702-6.87zM3.856 8.305c-1.731 0.002-3.508 0.208-3.696 1.021 0.017 1.216 0.050 3.137 0.205 5.28 0.24 3.65 0.703 6.886 0.703 6.886l6.082-5.79c-0.017 0.017-0.239-2.88 0.121-7.198h-0.001c0 0-1.684-0.202-3.414-0.199z"/>
</svg>