<svg xmlns="http://www.w3.org/2000/svg" version="1.1" width="24" height="24" viewBox="0 0 24 24">
<path d="M12 0c-6.63 0-12 5.37-12 12 0.005 1.295 0.215 2.539 0.598 3.705l-0.024-0.085c0.274-0.12 0.566-0.26 0.856-0.38 1.37-0.54 2.63-0.36 3.88 0.4 0 0 0.46 0.28 0.6 0.36 0.59 0.38 1.14 0.73 1.67 0.73 0.51 0 1.010-0.14 1.22-1.12 0.33-1.53 1.14-5.3 1.49-7.16 0.21-1.1 0.32-1.69 0.44-2.090 0.2-0.71 0.58-1.090 1.11-1.15 0 0 0.090-0.010 0.16-0.010s0.15 0.010 0.15 0.010c0.54 0.060 0.92 0.44 1.13 1.15 0.11 0.4 0.22 0.99 0.43 2.090 0.35 1.86 1.16 5.63 1.49 7.16 0.21 0.98 0.71 1.12 1.22 1.12 0.53 0 1.080-0.35 1.67-0.73 0.14-0.080 0.6-0.36 0.6-0.36 1.26-0.76 2.51-0.94 3.88-0.4 0.3 0.12 0.59 0.26 0.87 0.39 0.355-1.083 0.56-2.329 0.56-3.623 0-0.002 0-0.005 0-0.007v0c0-6.63-5.37-12-12-12zM12 9.79c-0.4 2.010-1 4.92-1.3 6.21-0.36 1.7-1.5 2.66-3.12 2.66-1.080 0-1.94-0.54-2.7-1.010-0.38-0.25-0.8-0.52-1.25-0.65-0.226-0.080-0.486-0.127-0.757-0.127-0.237 0-0.465 0.035-0.68 0.101l0.016-0.004c-0.366 0.118-0.677 0.25-0.974 0.406l0.034-0.016c2.012 3.966 6.059 6.637 10.73 6.64h0c4.673-0.005 8.721-2.68 10.699-6.582l0.031-0.068c-0.263-0.14-0.574-0.272-0.897-0.378l-0.043-0.012c-0.206-0.066-0.443-0.105-0.689-0.105-0.258 0-0.505 0.042-0.737 0.12l0.016-0.005c-0.46 0.16-0.88 0.43-1.26 0.68-0.76 0.47-1.62 1.010-2.7 1.010-1.62 0-2.75-0.96-3.12-2.66-0.3-1.29-1.3-6.21-1.3-6.21z"/>
</svg>