<svg xmlns="http://www.w3.org/2000/svg" version="1.1" width="24" height="24" viewBox="0 0 24 24">
<path d="M19.734 11.603c0.078 0.376 0.116 0.76 0.116 1.144 0 1.44-0.562 2.846-1.556 3.889-0.989 1.037-2.358 1.668-3.789 1.741-1.445 0.074-2.885-0.418-3.979-1.365-1.079-0.933-1.776-2.265-1.921-3.684-0.148-1.445 0.273-2.914 1.17-4.057 0.877-1.118 2.168-1.879 3.574-2.095 1.439-0.222 2.934 0.127 4.123 0.97 1.155 0.819 1.976 2.068 2.262 3.457zM24 6v12c0 3.314-2.686 6-6 6h-12c-3.314 0-6-2.686-6-6v-12c0-3.314 2.686-6 6-6h12c3.314 0 6 2.686 6 6zM21.828 9.483c-0.465-1.398-1.274-2.674-2.334-3.697-1.025-0.988-2.279-1.731-3.639-2.152 0.159 0.423 0.239 0.874 0.238 1.326-1.109-1.455-2.809-2.4-4.632-2.564-1.112-0.1-2.245 0.084-3.265 0.538 0.829 0.257 1.555 0.807 2.030 1.533-1.843-0.658-3.936-0.45-5.611 0.561-0.684 0.413-1.291 0.952-1.784 1.581 1.151-0.247 2.375 0.069 3.262 0.843-0.74 0.709-1.754 1.087-2.778 1.039 0.154 0.251 0.337 0.482 0.544 0.689-0.010 0.017-0.021 0.034-0.031 0.051-0.696 0.314-1.288 0.842-1.68 1.496-0.438 0.729-0.613 1.6-0.498 2.442 0.066 0.481 0.226 0.947 0.469 1.367-0.108-0.934 0.684-1.758 1.622-1.686 0.921 0.071 1.576 0.983 1.351 1.88-0.16 0.635-0.732 1.107-1.386 1.142 0.87 1.547 2.362 2.701 4.080 3.146 0.608 0.157 1.238 0.226 1.866 0.206-0.471 0.358-1.029 0.608-1.637 0.711 1.493 1.016 3.275 1.567 5.080 1.578 1.455 0.009 2.905-0.33 4.202-0.991 1.249-0.636 2.345-1.562 3.184-2.684 0.851-1.139 1.43-2.475 1.676-3.876 0.26-1.49 0.148-3.043-0.329-4.479z"/>
</svg>