<svg xmlns="http://www.w3.org/2000/svg" version="1.1" width="24" height="24" viewBox="0 0 24 24">
<path d="M0 0.3v23.4h24v-23.4zM1 1.3h22v21.4h-22zM6.297 5.778c0-0.066 0.017-0.116 0.1-0.116 0.643-0.033 1.583-0.050 2.573-0.050 2.772 0 3.977 1.519 3.977 3.466 0 2.54-1.839 3.63-4.099 3.63-0.38 0-0.512-0.017-0.776-0.017v3.843c0 0.083-0.033 0.116-0.115 0.116h-1.544c-0.083 0-0.116-0.033-0.116-0.116zM8.072 11.091c0.231 0.016 0.413 0.016 0.809 0.016 1.171 0 2.267-0.412 2.267-1.996 0-1.27-0.782-1.914-2.119-1.914-0.396 0-0.775 0.016-0.957 0.033zM14.472 10.183c0-0.115 0-0.412-0.049-0.973 0-0.083 0.011-0.1 0.077-0.132 1.084-0.429 2.339-0.683 3.653-0.693l0.004-0c0.082 0 0.115 0.016 0.115 0.099v1.452c0 0.082-0.026 0.099-0.109 0.099-0.107-0.007-0.231-0.011-0.357-0.011-0.546 0-1.074 0.076-1.574 0.219l0.040-0.010v6.301c0 0.083-0.034 0.116-0.116 0.116h-1.57c-0.082 0-0.115-0.033-0.115-0.116z"/>
</svg>