<svg xmlns="http://www.w3.org/2000/svg" version="1.1" width="24" height="24" viewBox="0 0 24 24">
<path d="M21 0h-18c-1.65 0-3 1.35-3 3v3.858c0 0 3.854 2.24 4.098 2.38 0.31 0.18 0.694 0.177 1.004 0 0.26-0.147 8.020-4.608 8.136-4.675 0.279-0.161 0.58-0.107 0.748-0.010 0.164 0.097 0.606 0.348 0.84 0.48 0.232 0.134 0.221 0.502 0.013 0.622l-9.712 5.59c-0.346 0.2-0.69 0.204-1.048 0.002-0.601-0.34-3.081-1.784-4.079-2.365v2.020l4.098 2.38c0.31 0.18 0.694 0.177 1.004 0 0.26-0.147 8.020-4.609 8.136-4.676 0.279-0.16 0.58-0.106 0.748-0.008 0.164 0.096 0.606 0.347 0.84 0.48 0.232 0.133 0.221 0.5 0.013 0.62-0.208 0.121-9.288 5.346-9.712 5.59-0.346 0.2-0.69 0.205-1.048 0.002-0.601-0.339-3.081-1.784-4.079-2.364v2.020l4.098 2.38c0.31 0.18 0.694 0.177 1.004 0 0.26-0.147 8.020-4.609 8.136-4.676 0.279-0.16 0.58-0.106 0.748-0.009 0.164 0.097 0.606 0.348 0.84 0.48 0.232 0.133 0.221 0.502 0.013 0.622l-9.712 5.59c-0.346 0.199-0.69 0.204-1.048 0.001-0.601-0.34-3.081-1.784-4.079-2.364v4.030c0 1.65 1.35 3 3 3h18c1.65 0 3-1.35 3-3v-18c0-1.65-1.35-3-3-3z"/>
</svg>