<svg xmlns="http://www.w3.org/2000/svg" version="1.1" width="24" height="24" viewBox="0 0 24 24">
<path d="M4.186 5.421c-1.845-0.004-4.316 1.169-4.18 4.11 0.213 4.594 4.92 5.020 6.801 5.057 0.206 0.862 2.42 3.834 4.059 3.99h7.18c4.306-0.286 7.53-13.022 5.14-13.070-3.953 0.186-6.296 0.28-8.305 0.296v3.975l-0.626-0.277-0.004-3.696c-2.306-0.001-4.336-0.108-8.189-0.298-0.482-0.003-1.154-0.085-1.876-0.087zM4.447 7.046h0.22c0.262 2.355 0.688 3.732 1.55 5.836-2.2-0.26-4.072-0.899-4.416-3.285-0.178-1.235 0.422-2.524 2.646-2.551zM13.004 9.361c0.15 0.002 0.303 0.030 0.447 0.096l0.749 0.323-0.537 0.979c-0.001 0-0.003-0-0.005-0-0.085 0-0.166 0.014-0.241 0.039l0.005-0.001c-0.261 0.085-0.445 0.305-0.445 0.562 0 0.073 0.015 0.142 0.041 0.206l-0.002-0.004c0.028 0.067 0.066 0.124 0.113 0.175l-0.001-0.001-0.926 1.686c-0.080 0.002-0.156 0.015-0.227 0.039l0.005-0.001c-0.261 0.085-0.445 0.305-0.445 0.562 0 0.073 0.015 0.142 0.041 0.206l-0.002-0.004c0.096 0.232 0.343 0.395 0.632 0.395 0.082 0 0.16-0.013 0.232-0.037l-0.005 0.001c0.261-0.085 0.444-0.305 0.444-0.562 0-0.073-0.015-0.143-0.042-0.207l0.001 0.004c-0.036-0.086-0.090-0.16-0.158-0.22l-0-0 0.902-1.642c0.021 0.002 0.046 0.003 0.071 0.003 0.079 0 0.156-0.012 0.226-0.035l-0.005 0.001c0.082-0.027 0.153-0.065 0.214-0.113l-0.001 0.001c0.348 0.146 0.633 0.265 0.838 0.366 0.308 0.152 0.417 0.253 0.45 0.365 0.033 0.11-0.003 0.322-0.177 0.694-0.13 0.277-0.345 0.67-0.599 1.133-0.004-0-0.009-0-0.015-0-0.085 0-0.166 0.014-0.241 0.040l0.005-0.001c-0.261 0.085-0.445 0.305-0.445 0.562 0 0.073 0.015 0.142 0.041 0.206l-0.002-0.004c0.096 0.232 0.343 0.395 0.632 0.395 0.082 0 0.16-0.013 0.232-0.037l-0.005 0.001c0.261-0.085 0.444-0.305 0.444-0.562 0-0.073-0.015-0.142-0.041-0.207l0.002 0.004c-0.032-0.078-0.079-0.145-0.137-0.202l0 0c0.251-0.458 0.467-0.852 0.606-1.148 0.188-0.402 0.286-0.701 0.2-0.99s-0.35-0.477-0.7-0.65c-0.23-0.113-0.517-0.233-0.86-0.377 0.001-0.011 0.001-0.024 0.001-0.038 0-0.072-0.014-0.141-0.041-0.205l0.001 0.004c-0.033-0.081-0.083-0.151-0.145-0.209l0 0 0.528-0.963 2.924 1.263c0.528 0.229 0.746 0.79 0.49 1.26l-2.010 3.68c-0.257 0.469-0.888 0.663-1.416 0.435l-4.137-1.788c-0.528-0.228-0.747-0.79-0.49-1.26l2.010-3.679c0.176-0.323 0.53-0.515 0.905-0.53z"/>
</svg>