<svg xmlns="http://www.w3.org/2000/svg" version="1.1" width="24" height="24" viewBox="0 0 24 24">
<path d="M0 0.3v23.4h24v-23.4zM1 1.3h22v21.4h-22zM8.325 13.55l-0.792 2.998c-0.017 0.083-0.050 0.102-0.148 0.102h-1.468c-0.1 0-0.115-0.033-0.1-0.148l2.84-9.945c0.050-0.18 0.082-0.338 0.098-0.833 0-0.066 0.033-0.1 0.083-0.1h2.096c0.066 0 0.1 0.018 0.116 0.1l3.185 10.794c0.017 0.083 0 0.132-0.083 0.132h-1.65c-0.083 0-0.132-0.020-0.148-0.086l-0.825-3.015zM11.113 11.925c-0.28-1.106-0.94-3.528-1.188-4.7h-0.017c-0.214 1.17-0.742 3.15-1.155 4.7zM15.613 6.367c0-0.643 0.445-1.023 1.023-1.023 0.61 0 1.023 0.412 1.023 1.023 0 0.66-0.43 1.023-1.040 1.023-0.6 0-1.010-0.363-1.006-1.023zM15.725 8.641c0-0.080 0.033-0.11 0.116-0.11h1.57c0.088 0 0.12 0.033 0.12 0.116v7.895c0 0.083-0.016 0.116-0.115 0.116h-1.55c-0.1 0-0.133-0.050-0.133-0.13z"/>
</svg>