<svg xmlns="http://www.w3.org/2000/svg" version="1.1" width="24" height="24" viewBox="0 0 24 24">
<path d="M8.985 2.596v17.548l3.915 1.261v-14.717c0-0.69 0.304-1.151 0.794-0.991 0.636 0.181 0.76 0.814 0.76 1.505v5.876c2.441 1.193 4.362-0.002 4.362-3.153 0-3.237-1.126-4.675-4.438-5.827-1.307-0.448-3.728-1.186-5.391-1.502zM13.641 18.838l6.296-2.275c0.715-0.258 0.826-0.625 0.246-0.818-0.586-0.192-1.637-0.139-2.357 0.123l-4.205 1.499v-2.385l0.24-0.085c0 0 1.201-0.42 2.913-0.615 1.696-0.18 3.785 0.029 5.437 0.661 1.848 0.601 2.041 1.472 1.576 2.072s-1.622 1.036-1.622 1.036l-8.544 3.107v-2.297zM1.808 18.6c-1.9-0.545-2.214-1.668-1.352-2.321 0.801-0.585 2.159-1.051 2.159-1.051l5.616-2.013v2.313l-4.025 1.472c-0.705 0.271-0.825 0.632-0.239 0.826s1.637 0.15 2.343-0.12l1.938-0.706v2.074c-0.121 0.029-0.256 0.044-0.391 0.073-1.938 0.331-3.995 0.196-6.037-0.479z"/>
</svg>