<svg xmlns="http://www.w3.org/2000/svg" version="1.1" width="24" height="24" viewBox="0 0 24 24">
<path d="M11.851 0l-11.040 4.020 1.56 14.7 9.479 5.28 9.6-5.28 1.74-14.76zM11.913 4.622c0.965 0.003 1.881 0.213 2.708 0.589l-0.042-0.017c-0.985 0.564-1.836 1.21-2.592 1.952l0.002-0.002c-0.045-0.020-0.092-0.031-0.138-0.045-0.103-0.034-0.222-0.055-0.345-0.056h-0.001c-0.071 0-0.141 0.010-0.21 0.021-0.289-0.674-0.505-1.456-0.61-2.273l-0.005-0.045c0.349-0.072 0.753-0.116 1.166-0.122l0.005-0c0.009-0 0.031-0.001 0.053-0.002l0.009-0zM9.923 4.934c0.13 0.933 0.371 1.777 0.714 2.567l-0.024-0.063c-0.202 0.215-0.327 0.505-0.328 0.825v0c0.001 0.233 0.068 0.451 0.183 0.635l-0.003-0.005c-0.937 1.294-1.656 2.803-1.905 4.31-0.010 0.056-0.013 0.11-0.020 0.166-0.282 0.090-0.515 0.284-0.656 0.54-0.987-0.333-1.885-0.968-2.615-2.022-0.014-0.151-0.024-0.33-0.026-0.51l-0-0.005c0.002-3.007 1.947-5.554 4.633-6.425l0.047-0.013zM15.43 5.643c1.101 0.702 1.968 1.688 2.513 2.859l0.017 0.041c-0.377 0.953-1.049 1.892-1.893 2.727-0.183-0.114-0.406-0.183-0.644-0.184h-0c-0.292 0.001-0.559 0.103-0.77 0.272l0.002-0.002c-0.462-0.354-0.91-0.737-1.318-1.168-0.333-0.35-0.637-0.73-0.921-1.123 0.19-0.215 0.31-0.494 0.31-0.802 0-0.212-0.061-0.41-0.159-0.586 1.058-1.008 2.112-1.67 2.863-2.034zM11.505 7.625c0.13 0.003 0.25 0.045 0.348 0.115l-0.002-0.001c0.175 0.111 0.29 0.304 0.292 0.524v0c-0.002 0.22-0.117 0.413-0.289 0.522l-0.003 0.002c-0.097 0.068-0.216 0.11-0.345 0.113h-0.001c-0.001 0-0.003 0-0.004 0-0.35 0-0.634-0.284-0.634-0.634 0-0.001 0-0.002 0-0.003v0c0-0.355 0.283-0.638 0.638-0.638zM11.064 9.396c0.131 0.053 0.284 0.084 0.443 0.084 0.082 0 0.162-0.008 0.239-0.024l-0.008 0.001c0.036 0.050 0.075 0.097 0.112 0.148 0.302 0.416 0.604 0.78 0.927 1.125l-0.006-0.006c0.441 0.456 0.913 0.875 1.416 1.255l0.030 0.022c-0.032 0.11-0.054 0.224-0.054 0.342 0.002 0.137 0.026 0.267 0.069 0.389l-0.003-0.009c-0.609 0.402-1.309 0.754-2.049 1.020l-0.069 0.022c-0.087 0.029-0.173 0.052-0.261 0.078-0.551 0.176-1.19 0.295-1.85 0.331l-0.020 0.001c-0.091-0.35-0.334-0.63-0.653-0.77l-0.007-0.003c0.004-0.024 0.005-0.049 0.010-0.073 0.219-1.333 0.873-2.73 1.733-3.934zM18.336 9.586c0.153 0.535 0.242 1.149 0.245 1.785v0.001c-0.001 0.661-0.095 1.3-0.271 1.904l0.012-0.048c-0.645-0.182-1.198-0.396-1.725-0.656l0.059 0.026c0.016-0.075 0.025-0.16 0.025-0.248 0-0.167-0.033-0.327-0.093-0.473l0.003 0.008c0.682-0.659 1.262-1.416 1.72-2.25l0.025-0.049zM15.423 11.687c0.367 0 0.657 0.291 0.657 0.658s-0.291 0.657-0.657 0.657c-0.367 0-0.658-0.29-0.658-0.657s0.29-0.658 0.658-0.658zM16.26 13.277c0.507 0.255 1.105 0.489 1.726 0.669l0.076 0.019c-1.030 2.459-3.394 4.154-6.149 4.157h-0c-0.040-0.002-0.062-0.004-0.083-0.005l0.021 0.001c-0.006 0-0.014 0-0.021 0s-0.015-0-0.022-0h0.001c-0.087-0.042-0.168-0.080-0.266-0.129-0.312-0.154-0.667-0.352-0.846-0.5-0.626-0.51-1.084-1.206-1.288-2.004l-0.006-0.026c0.21-0.111 0.38-0.284 0.487-0.495 0.708-0.027 1.379-0.137 2.019-0.321l-0.059 0.015c0.237-0.063 0.408-0.115 0.577-0.173l-0.064 0.019c0.895-0.313 1.668-0.694 2.385-1.156l-0.044 0.026c0.205 0.143 0.452 0.23 0.719 0.23 0.323-0.001 0.617-0.125 0.838-0.328l-0.001 0.001zM5.553 13.393c0.61 0.576 1.35 1.021 2.171 1.287l0.041 0.011c0.097 0.432 0.428 0.767 0.849 0.868l0.008 0.002c0.209 0.876 0.644 1.63 1.24 2.222l0 0c-2.057-0.687-3.643-2.302-4.296-4.342l-0.013-0.048zM8.88 13.857c0.331 0 0.595 0.263 0.595 0.596s-0.264 0.595-0.595 0.595c-0.002 0-0.004 0-0.006 0-0.326 0-0.59-0.264-0.59-0.59 0-0.002 0-0.004 0-0.005v0c-0-0.002-0-0.003-0-0.005 0-0.326 0.265-0.591 0.591-0.591 0.002 0 0.004 0 0.005 0h-0z"/>
</svg>