<svg xmlns="http://www.w3.org/2000/svg" version="1.1" width="24" height="24" viewBox="0 0 24 24">
<path d="M0.030 16.428v-15.31c0-0.618 0.5-1.118 1.117-1.118h21.653c0.624 0 1.12 0.5 1.12 1.12v14.76c-0.67-0.41-1.46-0.616-2.357-0.616-1.254 0-2.205 0.3-2.854 0.896-0.65 0.598-0.97 1.328-0.97 2.225 0 0.97 0.33 1.69 1 2.15 0.39 0.285 1.11 0.54 2.14 0.762l1.050 0.24c0.63 0.133 1.070 0.3 1.36 0.46 0.28 0.183 0.43 0.437 0.43 0.765 0 0.566-0.29 0.955-0.87 1.148l-0.030 0.016h-2.21c-0.287-0.104-0.51-0.254-0.69-0.45-0.18-0.224-0.3-0.55-0.36-1.013h-1.98c0 0.566 0.103 1.045 0.33 1.48h-1.68c0.19-0.39 0.3-0.823 0.3-1.317 0-0.88-0.3-1.55-0.886-2.016-0.374-0.297-0.94-0.535-1.688-0.717l-1.72-0.402c-0.66-0.14-1.090-0.28-1.3-0.4-0.31-0.18-0.46-0.45-0.46-0.79 0-0.38 0.16-0.68 0.47-0.89 0.33-0.21 0.75-0.31 1.29-0.31 0.49 0 0.88 0.090 1.21 0.26 0.494 0.256 0.75 0.69 0.79 1.287h2c-0.030-1.046-0.415-1.853-1.15-2.404-0.744-0.55-1.625-0.835-2.67-0.835-1.255 0-2.195 0.3-2.853 0.88-0.64 0.583-0.97 1.33-0.97 2.21 0 0.97 0.33 1.688 1 2.15 0.402 0.27 1.12 0.523 2.15 0.76l1.045 0.24c0.61 0.135 1.060 0.285 1.36 0.465 0.28 0.18 0.43 0.43 0.43 0.76 0 0.57-0.3 0.94-0.88 1.15h-2.24c-0.284-0.106-0.52-0.256-0.69-0.465-0.18-0.22-0.31-0.564-0.37-1.014h-2.017c0 0.558 0.105 1.050 0.32 1.48h-2.090c0.33-0.52 0.553-1.12 0.663-1.79h-2.053c-0.14 0.51-0.312 0.898-0.525 1.15-0.26 0.33-0.6 0.54-1.020 0.645h-1.227c-0.45-0.105-0.837-0.358-1.15-0.76-0.464-0.558-0.688-1.394-0.688-2.5 0-1.12 0.23-1.97 0.66-2.58 0.45-0.613 1.030-0.91 1.79-0.91 0.75 0 1.3 0.21 1.69 0.644 0.21 0.24 0.39 0.6 0.52 1.076h2.080c-0.030-0.618-0.26-1.24-0.686-1.86-0.772-1.1-1.994-1.65-3.664-1.65-1.16 0-2.134 0.36-2.91 1.060zM23.924 20.064v-1.554h-0.516c-0.035-0.597-0.3-1.022-0.783-1.274-0.313-0.164-0.717-0.248-1.193-0.248-0.54 0-0.955 0.11-1.27 0.322-0.312 0.215-0.478 0.518-0.478 0.902 0 0.355 0.166 0.62 0.477 0.795 0.22 0.105 0.65 0.254 1.31 0.404l1.72 0.41c0.3 0.060 0.56 0.15 0.8 0.23z"/>
</svg>