<svg xmlns="http://www.w3.org/2000/svg" version="1.1" width="24" height="24" viewBox="0 0 24 24">
<path d="M8.855 7.333c0.008 0 0.004 0 0 0zM6.082 5.947c0.007 0 0.004 0 0 0zM22.672 8.087c-0.5-1.203-1.514-2.503-2.31-2.914 0.648 1.27 1.023 2.544 1.166 3.495l0.002 0.020c-1.302-3.246-3.51-4.555-5.314-7.404-0.090-0.145-0.182-0.289-0.27-0.441-0.037-0.060-0.079-0.138-0.119-0.218l-0.009-0.020c-0.069-0.131-0.127-0.282-0.168-0.441l-0.003-0.015c0-0 0-0 0-0 0-0.016-0.012-0.028-0.027-0.030h-0c-0.003-0.001-0.007-0.001-0.011-0.001s-0.007 0.001-0.011 0.002l0-0-0.006 0.002c-0.003 0.001-0.006 0.003-0.009 0.005l0-0c0.001-0.003 0.003-0.005 0.005-0.007l-0 0c-2.56 1.5-3.622 4.126-3.894 5.797-0.838 0.049-1.616 0.258-2.319 0.598l0.037-0.016c-0.098 0.049-0.164 0.149-0.164 0.264 0 0.037 0.007 0.072 0.019 0.104l-0.001-0.002c0.041 0.114 0.148 0.194 0.274 0.194 0.043 0 0.084-0.009 0.12-0.026l-0.002 0.001c0.58-0.281 1.257-0.467 1.97-0.518l0.018-0.001 0.067-0.005c0.084-0.005 0.184-0.008 0.284-0.009h0.002c0.012-0 0.025-0 0.039-0 0.575 0 1.13 0.084 1.654 0.24l-0.041-0.010 0.094 0.030c0.13 0.039 0.218 0.069 0.305 0.101l-0.040-0.013c0.104 0.038 0.167 0.063 0.229 0.089l-0.038-0.014c0.052 0.020 0.103 0.041 0.154 0.063 0.114 0.050 0.191 0.087 0.267 0.126l-0.032-0.015 0.106 0.054c0.106 0.054 0.179 0.095 0.251 0.138l-0.027-0.015c0.070 0.041 0.116 0.069 0.162 0.098l-0.021-0.012c0.837 0.523 1.516 1.225 1.999 2.055l0.015 0.028c-0.615-0.432-1.716-0.859-2.776-0.674 4.142 2.070 3.030 9.201-2.71 8.932-0.543-0.023-1.055-0.128-1.534-0.301l0.036 0.011c-0.157-0.058-0.269-0.104-0.379-0.153l0.040 0.016c-0.092-0.041-0.155-0.072-0.218-0.104l0.024 0.011c-1.406-0.727-2.567-2.1-2.712-3.768 0 0 0.531-1.981 3.806-1.981 0.354 0 1.366-0.988 1.385-1.274-0.005-0.094-2.009-0.891-2.79-1.66-0.418-0.412-0.616-0.61-0.791-0.76-0.088-0.075-0.186-0.149-0.287-0.217l-0.012-0.008c-0.13-0.439-0.205-0.944-0.205-1.466 0-0.479 0.063-0.944 0.182-1.386l-0.009 0.037c-1.183 0.539-2.103 1.39-2.772 2.142h-0.006c-0.456-0.578-0.424-2.486-0.398-2.884-0.006-0.025-0.34 0.174-0.385 0.204-0.418 0.3-0.786 0.617-1.124 0.962l-0.001 0.002c-0.383 0.389-0.736 0.81-1.054 1.259l-0.021 0.031c-0.708 0.991-1.243 2.159-1.533 3.421l-0.013 0.065c-0.003 0.013-0.11 0.482-0.188 1.062-0.005 0.021-0.018 0.113-0.030 0.206l-0.007 0.064c-0.029 0.181-0.053 0.408-0.067 0.638l-0.001 0.022-0.002 0.034c-0.004 0.044-0.012 0.177-0.020 0.31l-0.003 0.073-0.001 0.060c0 6.358 5.156 11.513 11.516 11.513 5.695 0 10.424-4.135 11.35-9.566 0.020-0.147 0.035-0.295 0.052-0.444 0.23-1.974-0.025-4.050-0.746-5.785z"/>
</svg>