<svg xmlns="http://www.w3.org/2000/svg" version="1.1" width="24" height="24" viewBox="0 0 24 24">
<path d="M6.63 9.842c-1.104 0-2.001 0.945-2.001 2.101v0.108c0 1.322 0.847 2.038 1.975 2.101 0.051 0.006 0.108 0.006 0.16 0.006 0.435 0 0.794-0.115 1.195-0.361 0.040-0.023 0.201-0.132 0.361-0.338 0.132-0.166 0.138-0.411 0-0.543-0.2-0.189-0.412-0.086-0.595 0.074-0.292 0.246-0.516 0.442-1.1 0.442-0.55 0-1.064-0.316-1.19-0.94 0-0.023 0.010-0.045 0.034-0.045h2.691c0.26-0.002 0.47-0.213 0.47-0.473 0-0.011-0-0.022-0.001-0.032l0 0.001c0-1.156-0.893-2.101-1.999-2.101zM11.096 9.842c-1.1 0-1.996 0.945-1.996 2.101v0.108c0 1.322 0.846 2.038 1.974 2.101 0.052 0.006 0.109 0.006 0.16 0.006 0.435 0 0.795-0.115 1.196-0.361 0.040-0.023 0.2-0.132 0.361-0.338 0.132-0.166 0.137-0.411 0-0.543-0.2-0.189-0.413-0.086-0.596 0.074-0.292 0.246-0.515 0.442-1.1 0.442-0.549 0-1.063-0.316-1.189-0.94-0.006-0.023 0.010-0.045 0.028-0.045h2.691c0.26-0.002 0.47-0.213 0.47-0.473 0-0.011-0-0.022-0.001-0.032l0 0.001c-0.006-1.156-0.9-2.101-1.998-2.101zM4.206 9.882c-0.151 0.005-0.28 0.094-0.344 0.221l-0.001 0.002-1.42 3.063c-0.034 0.063-0.062 0.11-0.136 0.11s-0.105-0.047-0.139-0.11l-1.42-3.057c-0.061-0.134-0.193-0.225-0.347-0.225-0.068 0-0.131 0.018-0.186 0.049l0.002-0.001c-0.13 0.075-0.216 0.213-0.216 0.372 0 0.069 0.016 0.133 0.045 0.191l-0.001-0.002 1.39 2.828 0.16 0.32c0.129 0.27 0.398 0.455 0.711 0.46h0.001c0.313-0.004 0.582-0.189 0.707-0.455l0.002-0.005 0.16-0.32 1.385-2.834c0.029-0.056 0.047-0.123 0.047-0.193 0-0.156-0.085-0.293-0.211-0.366l-0.002-0.001c-0.052-0.029-0.114-0.046-0.18-0.046-0.002 0-0.005 0-0.007 0h0zM15.568 9.882c-0.001 0-0.002 0-0.003 0-0.192 0-0.368 0.071-0.502 0.189l0.001-0.001c-0.086 0.074-0.156 0.163-0.205 0.265l-0.002 0.005-1.591 3.137c0 0.005-0.006 0.006-0.006 0.011v0.006c-0.030 0.057-0.047 0.125-0.047 0.197 0 0.092 0.028 0.177 0.077 0.247l-0.001-0.001c0 0.005 0.006 0.006 0.006 0.011 0 0.006 0.006 0.004 0.006 0.010 0.069 0.090 0.176 0.148 0.297 0.148 0.082 0 0.159-0.027 0.22-0.072l-0.001 0.001c0 0 0.005 0 0.005-0.006 0.009-0.004 0.017-0.010 0.024-0.017l0-0 0.015-0.018 0.006-0.006c0.029-0.030 0.054-0.064 0.075-0.101l0.001-0.002 0.057-0.125 0.332-0.7c0.006-0.017 0.028-0.027 0.045-0.027h1.484c0.195 0 0.354-0.167 0.354-0.379 0-0.206-0.159-0.377-0.354-0.377h-1.099c-0.023 0-0.041-0.024-0.030-0.046l0.080-0.172 0.602-1.207v-0.006c0 0 0-0.006 0.006-0.006 0.011-0.023 0.040-0.108 0.098-0.125 0.034-0.012 0.063-0.012 0.086 0 0.063 0.017 0.084 0.091 0.113 0.148l1.455 3.022c0.066 0.13 0.198 0.217 0.351 0.217 0.046 0 0.090-0.008 0.132-0.023l-0.003 0.001c0 0 0.006 0 0.006-0.006l0.035-0.017c0.006 0 0.007-0.006 0.012-0.006 0 0 0.006 0 0.006-0.006 0.006 0 0.006-0.006 0.012-0.006s0.010-0.004 0.010-0.010c0.006 0 0.006-0.006 0.011-0.006 0.006-0.006 0.012-0.012 0.018-0.012l0.023-0.023c0.086-0.075 0.139-0.185 0.139-0.307 0-0.070-0.018-0.136-0.048-0.193l0.001 0.002-1.598-3.154c-0.129-0.268-0.399-0.451-0.711-0.452h-0zM19.076 9.882c-0.39 0-0.709 0.332-0.709 0.778v3.018c0 0.183 0.104 0.354 0.264 0.406 0.263 0.086 0.486-0.143 0.486-0.412l-0.058-2.938c0.002-0.015 0.014-0.027 0.030-0.027 0.009 0 0.017 0.004 0.022 0.010l0 0 1.442 2.931c0.137 0.28 0.367 0.448 0.625 0.448 0.257 0 0.491-0.167 0.623-0.448l1.449-2.935c0.011-0.029 0.050-0.019 0.050 0.016l-0.056 2.955c0 0.234 0.177 0.423 0.389 0.412 0.206-0.006 0.367-0.207 0.367-0.43v-3.006c0.011-0.452-0.31-0.771-0.7-0.777-0.269 0.004-0.5 0.162-0.608 0.39l-0.002 0.004c-0.361 0.739-1.426 2.93-1.426 2.936-0.006 0.011-0.029 0.064-0.075 0.064-0.040 0-0.068-0.047-0.074-0.064-0.349-0.727-1.047-2.164-1.408-2.908-0.143-0.287-0.379-0.422-0.631-0.423zM6.625 10.529c0.698 0 1.14 0.527 1.209 1.145 0 0.023-0.012 0.045-0.035 0.045h-2.33c-0.023-0.006-0.033-0.022-0.033-0.045 0.074-0.607 0.49-1.145 1.189-1.145zM11.095 10.529h0.003c0.697 0.001 1.138 0.527 1.207 1.145 0 0.023-0.013 0.045-0.035 0.045h-2.33c-0.023-0.006-0.040-0.022-0.034-0.045 0.075-0.606 0.493-1.144 1.189-1.145z"/>
</svg>