<svg xmlns="http://www.w3.org/2000/svg" version="1.1" width="24" height="24" viewBox="0 0 24 24">
<path d="M9.3 0c-1.55 0.006-2.66 1.157-2.502 3.006 0.102 1.227 0.209 2.473 0.313 3.729-1.080 0.455-2.218 0.934-3.428 1.446-1.255 0.536-2.123 1.609-2.457 2.885-0.34 1.3-0.135 2.808 0.723 4.143 0.763 1.195 1.856 2.006 3.255 2.445-0.080 1.092 0.030 2.080 0.34 2.955 0.138 0.389 0.316 0.755 0.533 1.098 0.798 1.269 1.978 2.029 3.183 2.235 0.201 0.038 0.433 0.060 0.67 0.060 1.019 0 1.945-0.403 2.625-1.059l-0.001 0.001c0.98-0.945 1.907-1.838 2.79-2.684 1.047 0.63 2.056 1.235 3.038 1.827 1.604 0.957 3.243-0.084 3.63-2.115 0.162-0.847 0.090-1.792-0.21-2.862 0.57-0.351 0.925-0.901 1.066-1.671 0.305-1.634-0.503-3.782-1.827-4.88-0.702-0.582-1.427-1.177-2.164-1.783l-0.005-0.023c-0.186-1.050-0.367-2.080-0.548-3.090-0.306-1.724-1.799-3.538-3.374-4.040-0.722-0.23-1.393-0.158-2.035 0.225-0.779-0.824-1.593-1.38-2.48-1.664-0.339-0.115-0.729-0.182-1.134-0.184h-0.001zM10.319 2.479c0.12-0.003 0.25 0.012 0.381 0.048 0.467 0.125 0.912 0.49 1.155 0.932 0.198 0.368 0.29 0.67 0.37 1.298l0.404 3.143c0.013 0.099 0.027 0.195 0.038 0.293 0.115 0.889 0.644 1.528 1.33 1.619 0.659 0.087 1.010-0.43 0.89-1.26-0.019-0.157-0.032-0.252-0.047-0.346l0.009 0.068-0.442-3.005c-0.063-0.425-0.084-0.75-0.050-0.96 0.052-0.465 0.422-0.707 0.896-0.579 0.479 0.131 0.927 0.572 1.134 1.097 0.106 0.266 0.154 0.473 0.236 0.964 0.157 0.941 0.312 1.89 0.472 2.868 0.013 0.087 0.028 0.174 0.039 0.267 0.019 0.090 0.045 0.169 0.068 0.25l0.002 0.014 0.001 0.002 0.023 0.084v-0.002c0-0.004 0-0.007-0.002-0.010l0.003 0.007v0.003c0.099 0.374 0.344 0.746 0.706 1.030 0.065 0.052 0.139 0.103 0.205 0.16 0.73 0.573 1.442 1.14 2.141 1.686 0.421 0.33 0.573 0.484 0.74 0.717 0.269 0.38 0.382 0.934 0.287 1.359-0.087 0.393-0.341 0.627-0.658 0.59-0.26-0.031-0.48-0.137-0.924-0.465-0.734-0.55-1.484-1.112-2.26-1.684-0.068-0.048-0.144-0.1-0.213-0.152-0.646-0.476-1.208-0.385-1.424 0.265-0.222 0.666 0.090 1.449 0.754 1.914 0.072 0.050 0.153 0.107 0.223 0.158 0.81 0.567 1.605 1.12 2.38 1.66 0.329 0.229 0.573 0.444 0.735 0.638 0.357 0.409 0.527 1.080 0.404 1.642-0.132 0.593-0.514 0.902-0.978 0.796-0.235-0.050-0.411-0.144-0.832-0.417-0.817-0.53-1.657-1.079-2.523-1.637-0.080-0.050-0.16-0.104-0.237-0.16-0.273-0.166-0.537-0.242-0.768-0.233h-0.002c-0.26-0.017-0.531 0.078-0.792 0.286-0.072 0.060-0.146 0.117-0.213 0.18-0.809 0.666-1.647 1.375-2.535 2.122-0.48 0.4-0.696 0.557-1.017 0.67-0.645 0.246-1.358-0.030-1.804-0.739-0.421-0.692-0.404-1.589 0.032-2.154 0.185-0.252 0.498-0.54 0.93-0.846 0.94-0.672 1.83-1.305 2.676-1.912 0.077-0.052 0.152-0.104 0.228-0.159 0.641-0.455 0.764-1.26 0.312-2.011-0.44-0.75-1.17-0.976-1.86-0.559-0.102 0.060-0.179 0.108-0.254 0.158l0.019-0.012c-0.895 0.549-1.834 1.128-2.824 1.739-0.638 0.384-0.976 0.509-1.452 0.531-0.59 0.030-1.205-0.332-1.564-0.904-0.407-0.636-0.421-1.427-0.030-1.918 0.22-0.288 0.455-0.463 1.13-0.809 1.043-0.54 2.045-1.048 2.995-1.525 0.082-0.050 0.163-0.084 0.247-0.125 0.058-0.029 0.112-0.063 0.159-0.097 0.425-0.188 0.632-0.657 0.566-1.293-0.012-0.107-0.020-0.21-0.037-0.312-0.256-2.761-0.381-3.9-0.51-5.038l0.159 1.722c-0.070-0.66-0.063-0.892 0.021-1.154 0.1-0.313 0.39-0.493 0.752-0.503zM7.11 6.736l0.002 0.026c-0.001-0.001-0.002-0.003-0.003-0.005l-0-0v-0.018zM7.114 6.779l0.006 0.087c-0.003-0.026-0.005-0.051-0.010-0.080 0-0.003 0.003-0.005 0.004-0.007zM7.124 6.915l0.003 0.025h-0.002v-0.015c0-0.003 0.002-0.005 0-0.008zM7.129 6.955v0.012c-0.001-0.003-0.003-0.005-0.003-0.008 0.002 0 0.002-0.002 0.003-0.004zM17.229 9.277l0.002 0.012c0 0.002 0 0.004 0.003 0.007zM17.234 9.296c0.005 0.015 0.008 0.034 0.013 0.050l-0.010-0.044c-0.002-0.002-0.003-0.004-0.003-0.006v-0z"/>
</svg>