<svg xmlns="http://www.w3.org/2000/svg" version="1.1" width="24" height="24" viewBox="0 0 24 24">
<path d="M10.005 5.416c0.75-0.796 1.845-1.306 3.046-1.306 1.56 0 2.954 0.9 3.689 2.205 0.63-0.3 1.35-0.45 2.101-0.45 2.849 0 5.159 2.34 5.159 5.22s-2.311 5.22-5.176 5.22c-0.345 0-0.689-0.044-1.020-0.104-0.645 1.17-1.875 1.95-3.3 1.95-0.6 0-1.155-0.15-1.65-0.375-0.659 1.546-2.189 2.624-3.975 2.624-1.859 0-3.45-1.169-4.050-2.819-0.27 0.061-0.54 0.075-0.825 0.075-2.204 0-4.005-1.8-4.005-4.050 0-1.5 0.811-2.805 2.010-3.51-0.255-0.57-0.39-1.2-0.39-1.846 0-2.58 2.1-4.649 4.65-4.649 1.53 0 2.85 0.704 3.72 1.8z"/>
</svg>