<svg xmlns="http://www.w3.org/2000/svg" version="1.1" width="24" height="24" viewBox="0 0 24 24">
<path d="M16.111 17.338c-0.857 0.989-1.334 2.79-0.709 3.371 0.596 0.449 2.201 0.391 3.385-1.23 0.86-1.080 0.569-2.893 0.081-3.372-0.73-0.555-1.778 0.164-2.757 1.243zM8.054 17.638c-0.908-1.040-2.088-1.658-2.851-1.199-0.51 0.382-0.605 1.685 0.123 2.967 1.078 1.524 2.596 1.679 3.221 1.307 0.659-0.488 0.3-2.137-0.493-3.075zM12.159 20.783c-1.103-0.026-2.798 0.439-2.776 1.032-0.018 0.403 1.331 1.572 2.705 1.513 1.326 0.030 2.699-1.139 2.682-1.649-0.004-0.523-1.498-0.927-2.607-0.884zM12.084 6.839c-1.275-0.032-2.502 0.933-2.502 1.493-0.004 0.68 1.008 1.376 2.51 1.394 1.543 0.010 2.518-0.559 2.532-1.26 0.016-0.794-1.394-1.639-2.518-1.627zM9.013 7.371c-2.135-0.345-3.913 0.9-3.842 3.192 0.070 0.884 4.63-3.041 3.843-3.177zM18.762 10.622c0.071-2.277-1.709-3.521-3.844-3.176-0.787 0.135 3.772 4.061 3.844 3.176zM19.126 11.446c-1.239-0.329-0.42 5.049 0.588 4.615 1.109-0.869 1.466-3.446-0.588-4.6zM4.228 16.121c1.007 0.45 1.827-4.929 0.589-4.6-2.053 1.153-1.698 3.73-0.589 4.615zM13.643 10.173c-1.146 0.75-1.354 2.428-0.461 3.746 0.891 1.318 2.543 1.813 3.691 1.078 1.146-0.733 1.353-2.412 0.462-3.746-0.892-1.333-2.545-1.813-3.692-1.063zM10.547 10.308c-1.146-0.734-2.799-0.254-3.689 1.064-0.892 1.334-0.686 3.012 0.461 3.761s2.799 0.269 3.691-1.064c0.885-1.318 0.675-2.997-0.465-3.745zM14.916 17.47c-0.009-1.393-1.252-2.518-2.781-2.502-1.527 0.016-2.761 1.139-2.754 2.532v0.029c0.010 1.394 1.254 2.517 2.783 2.502 1.527 0 2.756-1.138 2.742-2.517v-0.029zM18.125 2.337c-2.307 1.184-3.652 2.128-4.389 2.938 0.377 1.498 2.344 1.558 3.063 1.512-0.147-0.060-0.271-0.149-0.315-0.269 0.18-0.12 0.821-0.016 1.268-0.255-0.171-0.030-0.252-0.061-0.329-0.195 0.419-0.135 0.875-0.24 1.141-0.465-0.143 0-0.278 0.030-0.467-0.090 0.377-0.194 0.778-0.359 1.095-0.658-0.196 0-0.406 0-0.466-0.075 0.346-0.21 0.635-0.435 0.877-0.704-0.272 0.045-0.39 0.016-0.454-0.030 0.261-0.255 0.593-0.479 0.749-0.81-0.203 0.076-0.391 0.090-0.522 0 0.091-0.194 0.47-0.314 0.69-0.779-0.215 0.030-0.441 0.046-0.486 0 0.098-0.389 0.269-0.613 0.435-0.854-0.457 0-1.15 0-1.117-0.029l0.283-0.285c-0.448-0.12-0.904 0.015-1.236 0.12-0.149-0.105 0-0.255 0.185-0.405-0.39 0.061-0.733 0.135-1.034 0.256-0.164-0.15 0.105-0.285 0.24-0.436-0.599 0.12-0.839 0.27-1.094 0.42-0.18-0.165-0.015-0.314 0.104-0.449-0.449 0.164-0.674 0.374-0.914 0.568-0.090-0.104-0.209-0.179-0.060-0.449-0.314 0.18-0.554 0.39-0.734 0.629-0.194-0.134-0.119-0.299-0.119-0.449-0.33 0.27-0.54 0.54-0.794 0.811-0.061-0.031-0.105-0.15-0.135-0.346-0.779 0.75-1.889 2.623-0.285 3.356 1.349-1.094 2.981-1.903 4.779-2.503zM5.866 2.337c1.798 0.6 3.419 1.408 4.777 2.518 1.596-0.75 0.493-2.623-0.282-3.356-0.041 0.194-0.085 0.329-0.135 0.359-0.255-0.27-0.462-0.54-0.788-0.81 0 0.15 0.077 0.33-0.117 0.45-0.175-0.239-0.41-0.45-0.725-0.63 0.149 0.256 0.025 0.33-0.056 0.449-0.24-0.225-0.465-0.434-0.899-0.599 0.12 0.149 0.3 0.3 0.12 0.465-0.239-0.149-0.494-0.3-1.078-0.42 0.135 0.149 0.404 0.3 0.238 0.45-0.315-0.122-0.66-0.212-1.035-0.258 0.181 0.15 0.342 0.289 0.192 0.405-0.345-0.12-0.806-0.255-1.255-0.135l0.284 0.284c0.030 0.037-0.659 0.030-1.121 0.035 0.165 0.225 0.337 0.449 0.435 0.854-0.045 0.045-0.27 0.016-0.483 0 0.225 0.449 0.599 0.57 0.688 0.765-0.135 0.096-0.314 0.075-0.523 0 0.164 0.314 0.494 0.539 0.748 0.81-0.074 0.044-0.18 0.074-0.464 0.037 0.239 0.26 0.524 0.494 0.869 0.704-0.060 0.070-0.271 0.069-0.479 0.075 0.314 0.304 0.719 0.464 1.094 0.663-0.195 0.136-0.33 0.105-0.465 0.105 0.255 0.225 0.72 0.329 1.139 0.464-0.090 0.135-0.164 0.165-0.344 0.195 0.449 0.254 1.078 0.135 1.258 0.27-0.045 0.119-0.164 0.209-0.314 0.27 0.719 0.045 2.697-0.015 3.072-1.514-0.736-0.807-2.084-1.752-4.391-2.921zM7.6 0.103c0.236-0.007 0.436 0.135 0.652 0.201 0.529-0.17 0.65 0.063 0.91 0.159 0.577-0.12 0.752 0.141 1.029 0.419l0.322-0.009c0.869 0.507 1.305 1.536 1.457 2.065 0.152-0.529 0.584-1.559 1.457-2.065l0.321 0.007c0.277-0.283 0.453-0.539 1.029-0.418 0.261-0.105 0.38-0.33 0.911-0.166 0.33-0.104 0.62-0.375 1.057-0.045 0.368-0.149 0.726-0.195 1.045 0.090 0.495-0.060 0.653 0.061 0.774 0.21 0.108 0 0.809-0.104 1.132 0.36 0.81-0.090 1.064 0.464 0.774 0.988 0.165 0.255 0.337 0.494-0.050 0.975 0.15 0.269 0.062 0.553-0.27 0.913 0.091 0.374-0.074 0.63-0.374 0.839 0.060 0.51-0.48 0.81-0.629 0.914-0.061 0.3-0.181 0.584-0.795 0.734-0.089 0.449-0.464 0.523-0.824 0.614 1.185 0.675 2.188 1.558 2.188 3.731l0.181 0.299c1.349 0.809 2.562 3.402 0.674 5.514-0.119 0.659-0.329 1.124-0.511 1.648-0.269 2.113-2.082 3.101-2.561 3.221-0.689 0.525-1.438 1.020-2.442 1.363-0.942 0.961-1.976 1.336-2.994 1.336h-0.092c-1.033 0-2.063-0.375-3.012-1.335-1.007-0.344-1.754-0.838-2.447-1.363-0.479-0.12-2.283-1.107-2.562-3.221-0.187-0.524-0.394-1.004-0.518-1.662-1.894-2.113-0.681-4.705 0.666-5.515l0.172-0.3c0-2.172 1.005-3.057 2.188-3.73-0.359-0.090-0.72-0.165-0.823-0.615-0.615-0.15-0.735-0.434-0.795-0.734-0.15-0.105-0.689-0.404-0.629-0.928-0.3-0.211-0.465-0.465-0.375-0.854-0.314-0.346-0.404-0.645-0.27-0.915-0.39-0.479-0.209-0.733-0.045-0.974-0.285-0.525-0.030-1.094 0.779-1.004 0.314-0.465 1.020-0.359 1.123-0.359 0.121-0.15 0.285-0.285 0.779-0.225 0.314-0.285 0.675-0.24 1.049-0.102 0.151-0.12 0.286-0.164 0.406-0.164z"/>
</svg>