<svg xmlns="http://www.w3.org/2000/svg" version="1.1" width="24" height="24" viewBox="0 0 24 24">
<path d="M21.3 14.58l-2.45-9.16c0 0-0.15-0.59-0.72-0.33l-5.6 2.6 0.86 3.2 1.090 4.080 0.010 0.060c0.050 0.47-0.41 0.79-0.41 0.79l-1.88 0.87 0.5 1.89 0.040 0.1c0.070 0.17 0.28 0.6 0.81 0.91l6.95 4.27c0 0 0.68 0.41 0.52-0.17l-1.98-7.4 1.86-0.86c0 0 0.56-0.26 0.4-0.85zM13.76 14.67l-0.010-0.060-1.13-4.22-0.66-2.45-0.67-2.49v-0.040c0 0-0.16-0.59-0.84-1l-6.95-4.27c0 0-0.68-0.41-0.52 0.17l1.99 7.42-1.87 0.87c0 0-0.56 0.26-0.4 0.85l2.45 9.16c0 0 0.16 0.59 0.72 0.33l7.47-3.48c0 0 0.52-0.24 0.42-0.79z"/>
</svg>