<svg xmlns="http://www.w3.org/2000/svg" version="1.1" width="24" height="24" viewBox="0 0 24 24">
<path d="M12.076 0.066l-3.193 3.214h-5.535v5.434l-3.348 3.296 3.349 3.298v5.39h5.374l3.285 3.236 3.285-3.236h5.43v-5.374l3.277-3.298-3.232-3.252v-5.453h-5.458zM12.076 0.815l2.49 2.506h-1.69v6.441l-0.8 0.805-0.81-0.815v-6.472h-1.639zM3.876 3.806h4.483l-1.874 1.886 4.253 4.279v0.654h-0.798l-4.266-4.202-1.798 1.77zM9.103 3.806h1.635v5.415l-3.509-3.53zM13.405 3.849h1.687l1.83 1.842-3.517 3.539zM15.836 3.849h4.404v4.394l-1.83-1.842-4.241 4.267h-0.764v-0.69l4.261-4.287zM18.41 7.149l1.83 1.843v1.676h-5.327zM5.675 7.162l3.515 3.462h-5.314v-1.69zM3.348 9.454v1.697h6.377l0.871 0.858-0.782 0.77h-6.464v1.786l-2.597-2.555zM20.768 9.522l2.488 2.503-2.533 2.55v-1.796h-6.41l-0.75-0.754 0.825-0.83h6.38zM11.266 10.5l0.81 0.815 0.186-0.188 0.614-0.618v0.686h0.768l-0.825 0.83 0.75 0.754h-0.719v0.808l-0.842-0.83-0.741 0.73v-0.707h-0.7l0.781-0.77-0.188-0.186-0.682-0.672h0.788zM3.876 13.307h5.402l-3.603 3.55-1.798-1.772zM10.030 13.307h0.708v0.7l-4.404 4.338 1.852 1.824h-4.31v-4.342l1.798 1.77zM13.378 13.307h0.715l4.317 4.343 0.186-0.187 1.599-1.61v4.316h-4.366l1.853-1.825-4.304-4.239zM14.838 13.307h5.357v1.798l-1.785 1.796zM12.008 13.498l0.842 0.829v6.37h1.691l-2.532 2.495-2.533-2.495h1.79v-6.467zM10.738 14.749v5.42h-1.799l-1.852-1.823zM13.378 14.846l3.552 3.499-1.853 1.825h-1.7z"/>
</svg>