<svg xmlns="http://www.w3.org/2000/svg" version="1.1" width="24" height="24" viewBox="0 0 24 24">
<path d="M10.542 23.91c-2.14-0.278-4.344-1.196-5.95-2.48-3.612-2.885-5.254-7.436-4.316-11.962 0.405-1.952 1.45-4.008 2.79-5.487 0.974-1.094 2.138-1.995 3.443-2.657l0.066-0.031c1.763-0.895 3.452-1.298 5.444-1.298 1.432 0 2.579 0.187 3.897 0.636 3.511 1.231 6.227 3.947 7.432 7.374l0.026 0.084c0.703 2.065 0.834 4.26 0.383 6.435-0.357 1.72-1.283 3.65-2.425 5.050-0.47 0.577-1.545 1.608-2.113 2.028-1.614 1.208-3.582 2.033-5.722 2.304l-0.060 0.006c-0.615 0.076-2.298 0.074-2.895-0.002zM13.812 22.906c3.008-0.516 5.556-2.172 7.231-4.5l0.023-0.033c2.027-2.851 2.571-6.67 1.425-10.001-0.27-0.784-0.937-2.086-1.424-2.775-0.544-0.77-1.888-2.115-2.659-2.66-0.75-0.529-2.031-1.174-2.902-1.462-1.040-0.357-2.239-0.564-3.486-0.564-2.235 0-4.314 0.662-6.054 1.801l0.042-0.026c-1.318 0.875-2.415 1.971-3.264 3.246l-0.026 0.042c-1.112 1.697-1.774 3.776-1.774 6.010 0 1.248 0.206 2.447 0.587 3.566l-0.023-0.078c0.287 0.871 0.933 2.152 1.462 2.902 0.545 0.771 1.889 2.116 2.66 2.66 0.689 0.486 1.99 1.154 2.774 1.424 1.725 0.593 3.573 0.746 5.408 0.447zM9.657 18.883c-0.596-0.092-1.13-0.296-1.602-0.59l0.018 0.010c-0.431-0.277-3.706-3.482-3.866-3.784-0.182-0.345 0.137-0.97 0.594-1.16l0.215-0.090-0.66-0.673c-0.363-0.37-0.707-0.763-0.763-0.874-0.128-0.25-0.134-0.784-0.011-1.022 0.050-0.098 0.17-0.245 0.267-0.327 0.16-0.136 0.174-0.18 0.157-0.516-0.016-0.3 0.010-0.415 0.14-0.639 0.187-0.318 0.574-0.536 0.953-0.537 0.208 0 0.265-0.030 0.353-0.185 0.234-0.41 0.908-0.558 1.42-0.31l0.276 0.133 0.139-0.13c0.186-0.175 0.56-0.326 0.807-0.326 0.492 0 1.187 0.566 1.187 0.966 0 0.475-0.434 0.557-0.862 0.163-0.288-0.265-0.43-0.293-0.547-0.107-0.058 0.092 0.080 0.258 0.922 1.106 0.838 0.843 0.99 1.026 0.99 1.186-0.014 0.253-0.219 0.454-0.472 0.463l-0.001 0c-0.152 0-0.402-0.22-1.554-1.368-1.174-1.17-1.39-1.358-1.483-1.3-0.253 0.16-0.168 0.277 1.207 1.656 0.747 0.75 1.36 1.415 1.36 1.476 0 0.132-0.117 0.367-0.215 0.432-0.070 0.030-0.151 0.047-0.236 0.047-0.007 0-0.014-0-0.020-0l0.001 0c-0.16 0.001-0.406-0.218-1.716-1.524s-1.546-1.516-1.64-1.457c-0.256 0.162-0.172 0.275 1.326 1.78 0.814 0.817 1.498 1.548 1.52 1.625 0.042 0.14-0.052 0.388-0.179 0.473-0.071 0.031-0.154 0.048-0.24 0.048-0.007 0-0.013-0-0.020-0l0.001 0c-0.163 0-0.365-0.176-1.448-1.26-1.040-1.042-1.285-1.258-1.415-1.244-0.377 0.043-0.244 0.212 1.693 2.153 1.679 1.682 1.895 1.921 1.895 2.096 0 0.139-0.050 0.237-0.166 0.328-0.302 0.238-0.42 0.183-1.177-0.55-0.387-0.373-0.787-0.732-0.89-0.796-0.191-0.12-0.675-0.169-0.767-0.076-0.030 0.029 0.685 0.782 1.586 1.675 1.503 1.488 1.678 1.641 2.119 1.853 0.85 0.41 1.768 0.413 2.619 0.008 1.263-0.6 1.962-2.064 1.618-3.388-0.172-0.659-0.386-0.977-1.256-1.869-1-1.025-1.23-1.306-1.474-1.797-0.273-0.55-0.393-1.085-0.393-1.756 0-0.721 0.076-1.050 0.396-1.724 0.306-0.646 0.94-1.32 1.57-1.67 1.236-0.685 2.86-0.628 4.040 0.142 0.235 0.153 1.082 0.949 2.136 2.006 1.567 1.572 1.747 1.773 1.747 1.956 0 0.425-0.348 0.898-0.733 0.994-0.148 0.038-0.118 0.080 0.538 0.745 0.383 0.387 0.739 0.808 0.791 0.934 0.186 0.443 0.104 0.874-0.232 1.222-0.174 0.18-0.195 0.244-0.2 0.603-0.006 0.317-0.040 0.448-0.163 0.629-0.206 0.3-0.547 0.486-0.891 0.487-0.242 0-0.291 0.026-0.41 0.21-0.273 0.421-0.986 0.568-1.446 0.297l-0.23-0.137-0.165 0.157c-0.365 0.348-0.95 0.395-1.396 0.112-0.359-0.228-0.625-0.543-0.625-0.742 0-0.175 0.256-0.464 0.41-0.464 0.148 0 0.35 0.115 0.575 0.328 0.227 0.214 0.421 0.213 0.452-0.005 0.017-0.117-0.17-0.34-0.928-1.103-0.797-0.803-0.95-0.986-0.949-1.143-0-0.005-0-0.011-0-0.017 0-0.086 0.018-0.168 0.050-0.242l-0.002 0.004c0.084-0.127 0.325-0.218 0.474-0.18 0.081 0.020 0.74 0.63 1.464 1.354s1.363 1.318 1.42 1.318c0.161 0 0.264-0.16 0.19-0.295-0.035-0.062-0.646-0.694-1.358-1.404-1.115-1.11-1.294-1.316-1.293-1.479-0-0.007-0-0.015-0-0.023 0-0.085 0.017-0.166 0.049-0.24l-0.002 0.004c0.065-0.097 0.3-0.214 0.432-0.214 0.062 0 0.795 0.682 1.633 1.517 1.539 1.534 1.652 1.62 1.813 1.364 0.060-0.094-0.15-0.33-1.456-1.64-1.349-1.352-1.526-1.553-1.526-1.729 0-0.124 0.052-0.248 0.138-0.327 0.288-0.269 0.371-0.213 1.758 1.167 1.313 1.308 1.432 1.394 1.59 1.145 0.058-0.094-0.207-0.386-1.835-2.019-1.774-1.78-1.903-1.925-1.903-2.132 0-0.31 0.18-0.46 0.527-0.437 0.064 0.004 0.437 0.319 0.827 0.7 0.39 0.38 0.81 0.735 0.935 0.787 0.245 0.102 0.53 0.12 0.654 0.042 0.117-0.075-3.127-3.267-3.546-3.489-0.414-0.228-0.907-0.361-1.431-0.361-1.203 0-2.242 0.706-2.725 1.726l-0.008 0.018c-0.201 0.434-0.23 0.56-0.255 1.12-0.024 0.527-0.006 0.693 0.107 1.027 0.202 0.597 0.381 0.843 1.29 1.773 0.984 1.008 1.172 1.241 1.423 1.778 0.702 1.501 0.404 3.233-0.756 4.392-0.884 0.884-2.084 1.3-3.276 1.136z"/>
</svg>