<svg xmlns="http://www.w3.org/2000/svg" version="1.1" width="24" height="24" viewBox="0 0 24 24">
<path d="M10.51 10.013v-2.714c0-0.306 0.248-0.554 0.554-0.554h1.911c0.306 0 0.554 0.248 0.554 0.554v4.968c0 0.076-0.038 0.134-0.076 0.191l-0.478 0.478c-0.115 0.115-0.115 0.287 0 0.382l0.478 0.478c0.057 0.057 0.076 0.115 0.076 0.191v2.713c0 0.306-0.248 0.554-0.554 0.554h-1.911c-0.306 0-0.554-0.248-0.554-0.554v-4.968c0-0.076 0.038-0.134 0.076-0.191l0.478-0.478c0.115-0.115 0.115-0.287 0-0.382l-0.478-0.478c-0.057-0.057-0.076-0.114-0.076-0.19zM19.127 12c0-3.936-3.191-7.127-7.127-7.127s-7.127 3.191-7.127 7.127 3.191 7.127 7.127 7.127 7.127-3.191 7.127-7.127zM21.382 12c0 5.178-4.204 9.363-9.363 9.363-5.178 0-9.363-4.204-9.363-9.363 0-5.178 4.204-9.363 9.363-9.363s9.363 4.185 9.363 9.363zM0.764 12c0 6.21 5.025 11.236 11.236 11.236s11.236-5.026 11.236-11.236-5.026-11.236-11.236-11.236-11.236 5.026-11.236 11.236zM0 12c0-6.631 5.369-12 12-12s12 5.369 12 12-5.369 12-12 12-12-5.369-12-12z"/>
</svg>