<svg xmlns="http://www.w3.org/2000/svg" version="1.1" width="24" height="24" viewBox="0 0 24 24">
<path d="M4.323 16.248c-1.193-0.894-2.683-1.938-4.323-3.13l5.814-2.236 2.385 1.789c-1.789 2.087-2.981 2.832-3.876 3.577zM20.273 9.988c-0.447-1.193-0.745-2.385-1.193-3.578-0.447-1.342-0.894-2.534-1.64-3.578-0.298-0.447-0.894-1.491-1.64-1.491-0.149 0-0.298 0.149-0.447 0.149-0.447 0.149-1.043 1.043-1.193 1.64-0.447 0.745-1.342 1.938-1.938 2.683-0.149 0.298-0.447 0.596-0.596 0.745-0.447 0.298-0.894 0.745-1.491 1.043-0.149 0-0.298 0.149-0.447 0.149-0.447 0-0.745 0.298-1.043 0.447-0.447 0.447-0.894 1.043-1.342 1.491 0 0.149-0.149 0.298-0.298 0.447l2.236 1.64c1.64-1.938 3.578-3.876 4.919-7.602 0 0-0.447 4.025-4.025 8.348-2.236 2.534-4.025 3.876-4.323 4.174 0 0 0.596-0.149 1.193 0.149 1.193 0.447 1.789 2.087 2.236 3.279 0.298 0.894 0.745 1.64 1.043 2.534 1.193-0.298 1.938-0.745 2.683-1.491s1.491-1.64 2.236-2.385c1.342-1.64 2.981-3.727 5.068-2.683 0.298 0.149 0.745 0.447 0.894 0.596 0.447 0.298 0.745 0.596 1.193 1.043 0.745 0.596 1.043 1.043 1.64 1.342-1.491-2.981-2.534-5.963-3.725-9.091z"/>
</svg>